<svg version="1.1" viewBox="0.0 0.0 744.9790026246719 968.3569553805775" fill="none" stroke="none" stroke-linecap="square" stroke-miterlimit="10" xmlns:xlink="http://www.w3.org/1999/xlink" xmlns="http://www.w3.org/2000/svg"><clipPath id="p.0"><path d="m0 0l744.979 0l0 968.35693l-744.979 0l0 -968.35693z" clip-rule="nonzero"/></clipPath><g clip-path="url(#p.0)"><path fill="#000000" fill-opacity="0.0" d="m0 0l744.979 0l0 968.35693l-744.979 0z" fill-rule="evenodd"/><path fill="#f4cccc" d="m191.49869 36.392788l0 0c0 -15.680904 12.711884 -28.392788 28.392792 -28.392788l488.60022 0c7.5302734 0 14.752075 2.991374 20.076782 8.316055c5.324646 5.3246803 8.31604 12.546495 8.31604 20.076733l0 897.73413c0 15.680908 -12.711914 28.392822 -28.392822 28.392822l-488.60022 0c-15.680908 0 -28.392792 -12.711914 -28.392792 -28.392822z" fill-rule="evenodd"/><path fill="#000000" d="m650.8108 942.5687q-0.75 0 -1.375 -0.265625q-0.625 -0.28125 -1.078125 -0.765625l0.53125 -0.625q0.375 0.40625 0.875 0.640625q0.5 0.234375 1.046875 0.234375q0.703125 0 1.078125 -0.3125q0.390625 -0.3125 0.390625 -0.828125q0 -0.265625 -0.09375 -0.4375q-0.09375 -0.1875 -0.25 -0.328125q-0.15625 -0.140625 -0.375 -0.234375q-0.203125 -0.109375 -0.453125 -0.234375l-1.0 -0.4375q-0.25 -0.09375 -0.5 -0.25q-0.25 -0.15625 -0.453125 -0.359375q-0.203125 -0.21875 -0.34375 -0.5q-0.125 -0.296875 -0.125 -0.6875q0 -0.390625 0.171875 -0.734375q0.171875 -0.34375 0.453125 -0.59375q0.296875 -0.25 0.6875 -0.390625q0.40625 -0.140625 0.890625 -0.140625q0.625 0 1.15625 0.25q0.53125 0.234375 0.90625 0.625l-0.46875 0.5625q-0.328125 -0.296875 -0.71875 -0.46875q-0.390625 -0.1875 -0.875 -0.1875q-0.59375 0 -0.953125 0.28125q-0.34375 0.265625 -0.34375 0.75q0 0.25 0.09375 0.4375q0.109375 0.171875 0.28125 0.3125q0.171875 0.125 0.359375 0.234375q0.203125 0.09375 0.421875 0.171875l1.0 0.421875q0.296875 0.125 0.5625 0.296875q0.265625 0.171875 0.453125 0.390625q0.1875 0.21875 0.296875 0.515625q0.125 0.28125 0.125 0.671875q0 0.40625 -0.171875 0.78125q-0.171875 0.359375 -0.484375 0.625q-0.296875 0.265625 -0.734375 0.421875q-0.4375 0.15625 -0.984375 0.15625zm3.6592407 -0.125l0 -7.59375l0.859375 0l0 5.140625l0.03125 0l2.203125 -2.71875l0.96875 0l-1.734375 2.078125l1.96875 3.09375l-0.953125 0l-1.515625 -2.5l-0.96875 1.140625l0 1.359375l-0.859375 0zm5.2749023 0l0 -5.171875l0.875 0l0 5.171875l-0.875 0zm0.453125 -6.25q-0.265625 0 -0.4375 -0.15625q-0.171875 -0.15625 -0.171875 -0.40625q0 -0.25 0.171875 -0.40625q0.171875 -0.15625 0.4375 -0.15625q0.25 0 0.421875 0.15625q0.171875 0.15625 0.171875 0.40625q0 0.25 -0.171875 0.40625q-0.171875 0.15625 -0.421875 0.15625zm2.168335 8.4375l0 -7.359375l0.71875 0l0.078125 0.59375l0.03125 0q0.359375 -0.296875 0.78125 -0.515625q0.421875 -0.21875 0.875 -0.21875q0.5 0 0.875 0.1875q0.390625 0.1875 0.640625 0.546875q0.265625 0.34375 0.390625 0.828125q0.140625 0.484375 0.140625 1.078125q0 0.671875 -0.1875 1.1875q-0.171875 0.515625 -0.484375 0.875q-0.3125 0.359375 -0.71875 0.546875q-0.40625 0.1875 -0.84375 0.1875q-0.375 0 -0.734375 -0.15625q-0.34375 -0.15625 -0.71875 -0.4375l0.03125 0.90625l0 1.75l-0.875 0zm2.140625 -2.796875q0.3125 0 0.578125 -0.140625q0.28125 -0.140625 0.46875 -0.40625q0.203125 -0.265625 0.3125 -0.640625q0.125 -0.390625 0.125 -0.875q0 -0.421875 -0.078125 -0.765625q-0.078125 -0.359375 -0.25 -0.609375q-0.15625 -0.25 -0.421875 -0.390625q-0.25 -0.140625 -0.609375 -0.140625q-0.34375 0 -0.6875 0.1875q-0.328125 0.1875 -0.703125 0.515625l0 2.71875q0.34375 0.296875 0.671875 0.421875q0.34375 0.125 0.59375 0.125zm3.7736816 2.796875l0 -7.359375l0.71875 0l0.078125 0.59375l0.03125 0q0.359375 -0.296875 0.78125 -0.515625q0.421875 -0.21875 0.875 -0.21875q0.5 0 0.875 0.1875q0.390625 0.1875 0.640625 0.546875q0.265625 0.34375 0.390625 0.828125q0.140625 0.484375 0.140625 1.078125q0 0.671875 -0.1875 1.1875q-0.171875 0.515625 -0.484375 0.875q-0.3125 0.359375 -0.71875 0.546875q-0.40625 0.1875 -0.84375 0.1875q-0.375 0 -0.734375 -0.15625q-0.34375 -0.15625 -0.71875 -0.4375l0.03125 0.90625l0 1.75l-0.875 0zm2.140625 -2.796875q0.3125 0 0.578125 -0.140625q0.28125 -0.140625 0.46875 -0.40625q0.203125 -0.265625 0.3125 -0.640625q0.125 -0.390625 0.125 -0.875q0 -0.421875 -0.078125 -0.765625q-0.078125 -0.359375 -0.25 -0.609375q-0.15625 -0.25 -0.421875 -0.390625q-0.25 -0.140625 -0.609375 -0.140625q-0.34375 0 -0.6875 0.1875q-0.328125 0.1875 -0.703125 0.515625l0 2.71875q0.34375 0.296875 0.671875 0.421875q0.34375 0.125 0.59375 0.125zm5.8673706 0.734375q-0.515625 0 -0.96875 -0.1875q-0.453125 -0.1875 -0.796875 -0.53125q-0.328125 -0.34375 -0.53125 -0.84375q-0.1875 -0.5 -0.1875 -1.140625q0 -0.640625 0.203125 -1.140625q0.203125 -0.515625 0.515625 -0.859375q0.328125 -0.359375 0.734375 -0.546875q0.421875 -0.1875 0.875 -0.1875q0.484375 0 0.875 0.171875q0.390625 0.171875 0.65625 0.5q0.265625 0.3125 0.390625 0.765625q0.140625 0.4375 0.140625 1.0q0 0.140625 0 0.28125q0 0.125 -0.03125 0.21875l-3.484375 0q0.046875 0.828125 0.5 1.3125q0.46875 0.484375 1.21875 0.484375q0.375 0 0.6875 -0.109375q0.3125 -0.109375 0.609375 -0.296875l0.296875 0.578125q-0.328125 0.21875 -0.75 0.375q-0.421875 0.15625 -0.953125 0.15625zm-1.625 -3.125l2.765625 0q0 -0.796875 -0.34375 -1.203125q-0.328125 -0.40625 -0.9375 -0.40625q-0.265625 0 -0.515625 0.109375q-0.25 0.09375 -0.453125 0.3125q-0.203125 0.203125 -0.34375 0.5q-0.125 0.296875 -0.171875 0.6875zm6.5824585 3.125q-0.984375 0 -1.5625 -0.703125q-0.578125 -0.703125 -0.578125 -2.0q0 -0.625 0.1875 -1.125q0.1875 -0.515625 0.484375 -0.859375q0.3125 -0.359375 0.71875 -0.546875q0.40625 -0.203125 0.859375 -0.203125q0.453125 0 0.78125 0.171875q0.328125 0.15625 0.671875 0.4375l-0.046875 -0.890625l0 -2.0l0.890625 0l0 7.59375l-0.734375 0l-0.078125 -0.609375l-0.03125 0q-0.296875 0.296875 -0.703125 0.515625q-0.40625 0.21875 -0.859375 0.21875zm0.1875 -0.734375q0.375 0 0.6875 -0.171875q0.328125 -0.171875 0.640625 -0.546875l0 -2.703125q-0.328125 -0.296875 -0.640625 -0.421875q-0.296875 -0.125 -0.609375 -0.125q-0.3125 0 -0.59375 0.15625q-0.265625 0.140625 -0.46875 0.40625q-0.203125 0.25 -0.328125 0.625q-0.109375 0.359375 -0.109375 0.796875q0 0.9375 0.375 1.46875q0.375 0.515625 1.046875 0.515625zm6.170532 0.609375l0 -6.984375l4.03125 0l0 0.734375l-3.140625 0l0 2.375l2.65625 0l0 0.734375l-2.65625 0l0 3.140625l-0.890625 0zm5.186096 0l0 -5.171875l0.71875 0l0.078125 0.9375l0.03125 0q0.265625 -0.5 0.640625 -0.78125q0.390625 -0.296875 0.828125 -0.296875q0.3125 0 0.5625 0.109375l-0.171875 0.765625q-0.125 -0.03125 -0.234375 -0.046875q-0.109375 -0.03125 -0.265625 -0.03125q-0.328125 0 -0.6875 0.265625q-0.359375 0.265625 -0.625 0.921875l0 3.328125l-0.875 0zm4.885254 0.125q-0.640625 0 -1.078125 -0.375q-0.4375 -0.390625 -0.4375 -1.09375q0 -0.84375 0.75 -1.296875q0.765625 -0.453125 2.4375 -0.640625q0 -0.25 -0.046875 -0.484375q-0.046875 -0.234375 -0.171875 -0.40625q-0.109375 -0.1875 -0.328125 -0.296875q-0.203125 -0.109375 -0.515625 -0.109375q-0.453125 0 -0.859375 0.171875q-0.390625 0.171875 -0.6875 0.375l-0.34375 -0.609375q0.359375 -0.234375 0.875 -0.453125q0.53125 -0.21875 1.15625 -0.21875q0.953125 0 1.375 0.59375q0.421875 0.578125 0.421875 1.546875l0 3.171875l-0.71875 0l-0.078125 -0.625l-0.03125 0q-0.375 0.3125 -0.796875 0.53125q-0.421875 0.21875 -0.921875 0.21875zm0.265625 -0.703125q0.375 0 0.703125 -0.171875q0.328125 -0.171875 0.703125 -0.515625l0 -1.4375q-0.65625 0.078125 -1.109375 0.203125q-0.4375 0.109375 -0.703125 0.28125q-0.265625 0.15625 -0.390625 0.359375q-0.125 0.203125 -0.125 0.453125q0 0.453125 0.265625 0.640625q0.265625 0.1875 0.65625 0.1875zm3.9176636 0.578125l0 -5.171875l0.71875 0l0.078125 0.734375l0.03125 0q0.34375 -0.375 0.734375 -0.625q0.40625 -0.25 0.875 -0.25q0.59375 0 0.921875 0.265625q0.34375 0.265625 0.5 0.734375q0.40625 -0.453125 0.8125 -0.71875q0.421875 -0.28125 0.90625 -0.28125q0.796875 0 1.1875 0.515625q0.390625 0.515625 0.390625 1.515625l0 3.28125l-0.875 0l0 -3.171875q0 -0.734375 -0.234375 -1.046875q-0.234375 -0.328125 -0.734375 -0.328125q-0.578125 0 -1.296875 0.796875l0 3.75l-0.875 0l0 -3.171875q0 -0.734375 -0.234375 -1.046875q-0.234375 -0.328125 -0.734375 -0.328125q-0.578125 0 -1.296875 0.796875l0 3.75l-0.875 0zm10.927856 0.125q-0.515625 0 -0.96875 -0.1875q-0.45306396 -0.1875 -0.79681396 -0.53125q-0.328125 -0.34375 -0.53125 -0.84375q-0.1875 -0.5 -0.1875 -1.140625q0 -0.640625 0.203125 -1.140625q0.203125 -0.515625 0.515625 -0.859375q0.328125 -0.359375 0.734375 -0.546875q0.42181396 -0.1875 0.87493896 -0.1875q0.484375 0 0.875 0.171875q0.390625 0.171875 0.65625 0.5q0.265625 0.3125 0.390625 0.765625q0.140625 0.4375 0.140625 1.0q0 0.140625 0 0.28125q0 0.125 -0.03125 0.21875l-3.484314 0q0.046875 0.828125 0.5 1.3125q0.46868896 0.484375 1.218689 0.484375q0.375 0 0.6875 -0.109375q0.3125 -0.109375 0.609375 -0.296875l0.296875 0.578125q-0.328125 0.21875 -0.75 0.375q-0.421875 0.15625 -0.953125 0.15625zm-1.624939 -3.125l2.765564 0q0 -0.796875 -0.34375 -1.203125q-0.328125 -0.40625 -0.9375 -0.40625q-0.265625 0 -0.515625 0.109375q-0.25 0.09375 -0.45306396 0.3125q-0.203125 0.203125 -0.34375 0.5q-0.125 0.296875 -0.171875 0.6875zm6.1761475 3.125q-0.5625 0 -1.0625 -0.203125q-0.5 -0.203125 -0.875 -0.515625l0.4375 -0.578125q0.34375 0.28125 0.703125 0.453125q0.359375 0.171875 0.828125 0.171875q0.5 0 0.75 -0.234375q0.265625 -0.234375 0.265625 -0.578125q0 -0.203125 -0.109375 -0.34375q-0.109375 -0.15625 -0.28125 -0.265625q-0.15625 -0.125 -0.375 -0.203125q-0.203125 -0.09375 -0.421875 -0.171875q-0.265625 -0.09375 -0.546875 -0.21875q-0.28125 -0.125 -0.5 -0.296875q-0.21875 -0.171875 -0.359375 -0.40625q-0.140625 -0.234375 -0.140625 -0.578125q0 -0.296875 0.125 -0.5625q0.125 -0.28125 0.34375 -0.46875q0.234375 -0.203125 0.5625 -0.3125q0.34375 -0.125 0.75 -0.125q0.5 0 0.90625 0.171875q0.40625 0.171875 0.703125 0.421875l-0.40625 0.546875q-0.265625 -0.203125 -0.5625 -0.328125q-0.28125 -0.125 -0.625 -0.125q-0.484375 0 -0.71875 0.234375q-0.234375 0.21875 -0.234375 0.515625q0 0.171875 0.09375 0.3125q0.109375 0.125 0.265625 0.234375q0.15625 0.09375 0.359375 0.1875q0.21875 0.078125 0.4375 0.15625q0.28125 0.109375 0.5625 0.234375q0.28125 0.109375 0.5 0.28125q0.234375 0.171875 0.375 0.4375q0.140625 0.25 0.140625 0.609375q0 0.328125 -0.125 0.609375q-0.125 0.265625 -0.359375 0.484375q-0.234375 0.203125 -0.59375 0.328125q-0.359375 0.125 -0.8125 0.125z" fill-rule="nonzero"/><path fill="#d9ead3" d="m8.0 37.90611l0 0c0 -16.516687 13.389421 -29.906109 29.906109 -29.906109l119.62085 0l0 0c7.931595 0 15.53833 3.150813 21.146805 8.759296c5.60849 5.6084843 8.759308 13.2152195 8.759308 21.146812l0 894.70746c0 16.516663 -13.38942 29.906128 -29.906113 29.906128l-119.62085 0c-16.516687 0 -29.906109 -13.389465 -29.906109 -29.906128z" fill-rule="evenodd"/><path fill="#000000" d="m101.534195 942.1255q-0.75 0 -1.375 -0.265625q-0.625 -0.28125 -1.078125 -0.765625l0.53125 -0.625q0.375 0.40625 0.875 0.640625q0.5 0.234375 1.046875 0.234375q0.703125 0 1.078125 -0.3125q0.390625 -0.3125 0.390625 -0.828125q0 -0.265625 -0.09375 -0.4375q-0.09375 -0.1875 -0.25 -0.328125q-0.15625 -0.140625 -0.375 -0.234375q-0.203125 -0.109375 -0.453125 -0.234375l-1.0 -0.4375q-0.25 -0.09375 -0.5 -0.25q-0.25 -0.15625 -0.453125 -0.359375q-0.203125 -0.21875 -0.34375 -0.5q-0.125 -0.296875 -0.125 -0.6875q0 -0.390625 0.171875 -0.734375q0.171875 -0.34375 0.453125 -0.59375q0.296875 -0.25 0.6875 -0.390625q0.40625 -0.140625 0.890625 -0.140625q0.625 0 1.15625 0.25q0.53125 0.234375 0.90625 0.625l-0.46875 0.5625q-0.328125 -0.296875 -0.71875 -0.46875q-0.390625 -0.1875 -0.875 -0.1875q-0.59375 0 -0.953125 0.28125q-0.34375 0.265625 -0.34375 0.75q0 0.25 0.09375 0.4375q0.109375 0.171875 0.28125 0.3125q0.171875 0.125 0.359375 0.234375q0.203125 0.09375 0.421875 0.171875l1.0 0.421875q0.296875 0.125 0.5625 0.296875q0.265625 0.171875 0.453125 0.390625q0.1875 0.21875 0.296875 0.515625q0.125 0.28125 0.125 0.671875q0 0.40625 -0.171875 0.78125q-0.171875 0.359375 -0.484375 0.625q-0.296875 0.265625 -0.734375 0.421875q-0.4375 0.15625 -0.984375 0.15625zm5.2842407 0q-0.40625 0 -0.6875 -0.125q-0.28125 -0.125 -0.46875 -0.34375q-0.171875 -0.234375 -0.25 -0.546875q-0.078125 -0.328125 -0.078125 -0.703125l0 -2.875l-0.765625 0l0 -0.65625l0.8125 -0.046875l0.109375 -1.453125l0.734375 0l0 1.453125l1.390625 0l0 0.703125l-1.390625 0l0 2.875q0 0.484375 0.171875 0.75q0.1875 0.25 0.625 0.25q0.140625 0 0.296875 -0.03125q0.171875 -0.046875 0.296875 -0.09375l0.171875 0.65625q-0.21875 0.078125 -0.46875 0.125q-0.25 0.0625 -0.5 0.0625zm3.1643524 0q-0.640625 0 -1.078125 -0.375q-0.4375 -0.390625 -0.4375 -1.09375q0 -0.84375 0.75 -1.296875q0.765625 -0.453125 2.4375 -0.640625q0 -0.25 -0.046875 -0.484375q-0.046875 -0.234375 -0.171875 -0.40625q-0.109375 -0.1875 -0.328125 -0.296875q-0.203125 -0.109375 -0.515625 -0.109375q-0.453125 0 -0.859375 0.171875q-0.390625 0.171875 -0.6875 0.375l-0.34375 -0.609375q0.359375 -0.234375 0.875 -0.453125q0.53125 -0.21875 1.15625 -0.21875q0.953125 0 1.375 0.59375q0.421875 0.578125 0.421875 1.546875l0 3.171875l-0.71875 0l-0.078125 -0.625l-0.03125 0q-0.375 0.3125 -0.796875 0.53125q-0.421875 0.21875 -0.921875 0.21875zm0.265625 -0.703125q0.375 0 0.703125 -0.171875q0.328125 -0.171875 0.703125 -0.515625l0 -1.4375q-0.65625 0.078125 -1.109375 0.203125q-0.4375 0.109375 -0.703125 0.28125q-0.265625 0.15625 -0.390625 0.359375q-0.125 0.203125 -0.125 0.453125q0 0.453125 0.265625 0.640625q0.265625 0.1875 0.65625 0.1875zm5.964554 0.703125q-0.515625 0 -0.96875 -0.171875q-0.4375 -0.1875 -0.765625 -0.53125q-0.328125 -0.34375 -0.515625 -0.84375q-0.1875 -0.515625 -0.1875 -1.15625q0 -0.65625 0.203125 -1.15625q0.203125 -0.5 0.546875 -0.84375q0.34375 -0.359375 0.796875 -0.546875q0.453125 -0.1875 0.953125 -0.1875q0.515625 0 0.875 0.1875q0.359375 0.1875 0.640625 0.421875l-0.453125 0.578125q-0.21875 -0.203125 -0.46875 -0.328125q-0.25 -0.125 -0.5625 -0.125q-0.34375 0 -0.65625 0.140625q-0.296875 0.140625 -0.515625 0.40625q-0.203125 0.265625 -0.328125 0.640625q-0.125 0.359375 -0.125 0.8125q0 0.453125 0.109375 0.8125q0.125 0.359375 0.328125 0.625q0.21875 0.25 0.515625 0.40625q0.296875 0.140625 0.65625 0.140625q0.359375 0 0.65625 -0.15625q0.3125 -0.15625 0.546875 -0.375l0.390625 0.59375q-0.359375 0.3125 -0.78125 0.484375q-0.421875 0.171875 -0.890625 0.171875zm2.8124237 -0.125l0 -7.59375l0.859375 0l0 5.140625l0.03125 0l2.203125 -2.71875l0.96875 0l-1.734375 2.078125l1.96875 3.09375l-0.953125 0l-1.515625 -2.5l-0.96875 1.140625l0 1.359375l-0.859375 0zm7.3686523 0.125q-0.515625 0 -0.96875 -0.1875q-0.453125 -0.1875 -0.796875 -0.53125q-0.328125 -0.34375 -0.53125 -0.84375q-0.1875 -0.5 -0.1875 -1.140625q0 -0.640625 0.203125 -1.140625q0.203125 -0.515625 0.515625 -0.859375q0.328125 -0.359375 0.734375 -0.546875q0.421875 -0.1875 0.875 -0.1875q0.484375 0 0.875 0.171875q0.390625 0.171875 0.65625 0.5q0.265625 0.3125 0.390625 0.765625q0.140625 0.4375 0.140625 1.0q0 0.140625 0 0.28125q0 0.125 -0.03125 0.21875l-3.484375 0q0.046875 0.828125 0.5 1.3125q0.46875 0.484375 1.21875 0.484375q0.375 0 0.6875 -0.109375q0.3125 -0.109375 0.609375 -0.296875l0.296875 0.578125q-0.328125 0.21875 -0.75 0.375q-0.421875 0.15625 -0.953125 0.15625zm-1.625 -3.125l2.765625 0q0 -0.796875 -0.34375 -1.203125q-0.328125 -0.40625 -0.9375 -0.40625q-0.265625 0 -0.515625 0.109375q-0.25 0.09375 -0.453125 0.3125q-0.203125 0.203125 -0.34375 0.5q-0.125 0.296875 -0.171875 0.6875zm6.582428 3.125q-0.984375 0 -1.5625 -0.703125q-0.578125 -0.703125 -0.578125 -2.0q0 -0.625 0.1875 -1.125q0.1875 -0.515625 0.484375 -0.859375q0.3125 -0.359375 0.71875 -0.546875q0.40625 -0.203125 0.859375 -0.203125q0.453125 0 0.78125 0.171875q0.328125 0.15625 0.671875 0.4375l-0.046875 -0.890625l0 -2.0l0.890625 0l0 7.59375l-0.734375 0l-0.078125 -0.609375l-0.03125 0q-0.296875 0.296875 -0.703125 0.515625q-0.40625 0.21875 -0.859375 0.21875zm0.1875 -0.734375q0.375 0 0.6875 -0.171875q0.328125 -0.171875 0.640625 -0.546875l0 -2.703125q-0.328125 -0.296875 -0.640625 -0.421875q-0.296875 -0.125 -0.609375 -0.125q-0.3125 0 -0.59375 0.15625q-0.265625 0.140625 -0.46875 0.40625q-0.203125 0.25 -0.328125 0.625q-0.109375 0.359375 -0.109375 0.796875q0 0.9375 0.375 1.46875q0.375 0.515625 1.046875 0.515625zm6.1705475 0.609375l0 -6.984375l4.03125 0l0 0.734375l-3.140625 0l0 2.375l2.65625 0l0 0.734375l-2.65625 0l0 3.140625l-0.890625 0zm5.1861115 0l0 -5.171875l0.71875 0l0.078125 0.9375l0.03125 0q0.265625 -0.5 0.640625 -0.78125q0.390625 -0.296875 0.828125 -0.296875q0.3125 0 0.5625 0.109375l-0.171875 0.765625q-0.125 -0.03125 -0.234375 -0.046875q-0.109375 -0.03125 -0.265625 -0.03125q-0.328125 0 -0.6875 0.265625q-0.359375 0.265625 -0.625 0.921875l0 3.328125l-0.875 0zm4.885254 0.125q-0.640625 0 -1.078125 -0.375q-0.4375 -0.390625 -0.4375 -1.09375q0 -0.84375 0.75 -1.296875q0.765625 -0.453125 2.4375 -0.640625q0 -0.25 -0.046875 -0.484375q-0.046875 -0.234375 -0.171875 -0.40625q-0.109375 -0.1875 -0.328125 -0.296875q-0.203125 -0.109375 -0.515625 -0.109375q-0.453125 0 -0.859375 0.171875q-0.390625 0.171875 -0.6875 0.375l-0.34375 -0.609375q0.359375 -0.234375 0.875 -0.453125q0.53125 -0.21875 1.15625 -0.21875q0.953125 0 1.375 0.59375q0.421875 0.578125 0.421875 1.546875l0 3.171875l-0.71875 0l-0.078125 -0.625l-0.03125 0q-0.375 0.3125 -0.796875 0.53125q-0.421875 0.21875 -0.921875 0.21875zm0.265625 -0.703125q0.375 0 0.703125 -0.171875q0.328125 -0.171875 0.703125 -0.515625l0 -1.4375q-0.65625 0.078125 -1.109375 0.203125q-0.4375 0.109375 -0.703125 0.28125q-0.265625 0.15625 -0.390625 0.359375q-0.125 0.203125 -0.125 0.453125q0 0.453125 0.265625 0.640625q0.265625 0.1875 0.65625 0.1875zm3.9176788 0.578125l0 -5.171875l0.71875 0l0.078125 0.734375l0.03125 0q0.34375 -0.375 0.734375 -0.625q0.40625 -0.25 0.875 -0.25q0.59375 0 0.921875 0.265625q0.34375 0.265625 0.5 0.734375q0.40625 -0.453125 0.8125 -0.71875q0.421875 -0.28125 0.90625 -0.28125q0.796875 0 1.1875 0.515625q0.390625 0.515625 0.390625 1.515625l0 3.28125l-0.875 0l0 -3.171875q0 -0.734375 -0.234375 -1.046875q-0.234375 -0.328125 -0.734375 -0.328125q-0.578125 0 -1.296875 0.796875l0 3.75l-0.875 0l0 -3.171875q0 -0.734375 -0.234375 -1.046875q-0.234375 -0.328125 -0.734375 -0.328125q-0.578125 0 -1.296875 0.796875l0 3.75l-0.875 0zm10.927872 0.125q-0.515625 0 -0.96875 -0.1875q-0.453125 -0.1875 -0.796875 -0.53125q-0.328125 -0.34375 -0.53125 -0.84375q-0.1875 -0.5 -0.1875 -1.140625q0 -0.640625 0.203125 -1.140625q0.203125 -0.515625 0.515625 -0.859375q0.328125 -0.359375 0.734375 -0.546875q0.421875 -0.1875 0.875 -0.1875q0.484375 0 0.875 0.171875q0.390625 0.171875 0.65625 0.5q0.265625 0.3125 0.390625 0.765625q0.140625 0.4375 0.140625 1.0q0 0.140625 0 0.28125q0 0.125 -0.03125 0.21875l-3.484375 0q0.046875 0.828125 0.5 1.3125q0.46875 0.484375 1.21875 0.484375q0.375 0 0.6875 -0.109375q0.3125 -0.109375 0.609375 -0.296875l0.296875 0.578125q-0.328125 0.21875 -0.75 0.375q-0.421875 0.15625 -0.953125 0.15625zm-1.625 -3.125l2.765625 0q0 -0.796875 -0.34375 -1.203125q-0.328125 -0.40625 -0.9375 -0.40625q-0.265625 0 -0.515625 0.109375q-0.25 0.09375 -0.453125 0.3125q-0.203125 0.203125 -0.34375 0.5q-0.125 0.296875 -0.171875 0.6875zm6.176178 3.125q-0.5625 0 -1.0625 -0.203125q-0.5 -0.203125 -0.875 -0.515625l0.4375 -0.578125q0.34375 0.28125 0.703125 0.453125q0.359375 0.171875 0.828125 0.171875q0.5 0 0.75 -0.234375q0.265625 -0.234375 0.265625 -0.578125q0 -0.203125 -0.109375 -0.34375q-0.109375 -0.15625 -0.28125 -0.265625q-0.15625 -0.125 -0.375 -0.203125q-0.203125 -0.09375 -0.421875 -0.171875q-0.265625 -0.09375 -0.546875 -0.21875q-0.28125 -0.125 -0.5 -0.296875q-0.21875 -0.171875 -0.359375 -0.40625q-0.140625 -0.234375 -0.140625 -0.578125q0 -0.296875 0.125 -0.5625q0.125 -0.28125 0.34375 -0.46875q0.234375 -0.203125 0.5625 -0.3125q0.34375 -0.125 0.75 -0.125q0.5 0 0.90625 0.171875q0.40625 0.171875 0.703125 0.421875l-0.40625 0.546875q-0.265625 -0.203125 -0.5625 -0.328125q-0.28125 -0.125 -0.625 -0.125q-0.484375 0 -0.71875 0.234375q-0.234375 0.21875 -0.234375 0.515625q0 0.171875 0.09375 0.3125q0.109375 0.125 0.265625 0.234375q0.15625 0.09375 0.359375 0.1875q0.21875 0.078125 0.4375 0.15625q0.28125 0.109375 0.5625 0.234375q0.28125 0.109375 0.5 0.28125q0.234375 0.171875 0.375 0.4375q0.140625 0.25 0.140625 0.609375q0 0.328125 -0.125 0.609375q-0.125 0.265625 -0.359375 0.484375q-0.234375 0.203125 -0.59375 0.328125q-0.359375 0.125 -0.8125 0.125z" fill-rule="nonzero"/><path fill="#000000" d="m20.897638 18.532808l153.63779 0l0 203.9685l-153.63779 0z" fill-rule="evenodd"/><path fill="#ff0000" d="m20.897638 46.58005l153.63779 0l0 8.283466l-153.63779 0z" fill-rule="evenodd"/><path fill="#f1c232" d="m20.897638 63.115486l153.63779 0l0 8.283463l-153.63779 0z" fill-rule="evenodd"/><path fill="#ffff00" d="m20.897638 71.39895l153.63779 0l0 8.283463l-153.63779 0z" fill-rule="evenodd"/><path fill="#00ff00" d="m20.897638 79.68241l153.63779 0l0 8.28347l-153.63779 0z" fill-rule="evenodd"/><path fill="#0000ff" d="m20.897638 87.96588l153.63779 0l0 8.283463l-153.63779 0z" fill-rule="evenodd"/><path fill="#ff9900" d="m20.897638 54.83202l153.63779 0l0 8.283466l-153.63779 0z" fill-rule="evenodd"/><path fill="#ffffff" d="m80.0 209.86089l35.433067 0l0 4.535446l-35.433067 0z" fill-rule="evenodd"/><path fill="#ffffff" d="m68.16273 148.91339l0 0c0 -2.2874146 1.8543167 -4.141739 4.1417313 -4.141739l0 0c1.0984573 0 2.1519241 0.4363556 2.92865 1.213089c0.77672577 0.77671814 1.213089 1.8301849 1.213089 2.92865l0 0c0 2.2874146 -1.8543167 4.1417236 -4.141739 4.1417236l0 0c-2.2874146 0 -4.1417313 -1.8543091 -4.1417313 -4.1417236z" fill-rule="evenodd"/><path fill="#000000" d="m204.39633 18.532808l153.63779 0l0 203.9685l-153.63779 0z" fill-rule="evenodd"/><path fill="#ff0000" d="m204.39633 46.58005l153.63779 0l0 8.283466l-153.63779 0z" fill-rule="evenodd"/><path fill="#f1c232" d="m204.39633 63.115486l153.63779 0l0 8.283463l-153.63779 0z" fill-rule="evenodd"/><path fill="#ffff00" d="m204.39633 71.39895l153.63779 0l0 8.283463l-153.63779 0z" fill-rule="evenodd"/><path fill="#00ff00" d="m204.39633 79.68241l153.63779 0l0 8.28347l-153.63779 0z" fill-rule="evenodd"/><path fill="#0000ff" d="m204.39633 87.96588l153.63779 0l0 8.283463l-153.63779 0z" fill-rule="evenodd"/><path fill="#ff9900" d="m204.39633 54.83202l153.63779 0l0 8.283466l-153.63779 0z" fill-rule="evenodd"/><path fill="#ffffff" d="m265.4987 209.86089l35.433075 0l0 4.535446l-35.433075 0z" fill-rule="evenodd"/><path fill="#ffffff" d="m255.66142 152.91339l0 0c0 -2.2874146 1.8543243 -4.141739 4.141739 -4.141739l0 0c1.0984497 0 2.1519165 0.4363556 2.92865 1.213089c0.7767029 0.77671814 1.2130737 1.8301849 1.2130737 2.92865l0 0c0 2.2874146 -1.8543091 4.1417236 -4.1417236 4.1417236l0 0c-2.2874146 0 -4.141739 -1.8543091 -4.141739 -4.1417236z" fill-rule="evenodd"/><path fill="#000000" d="m387.89502 18.532808l153.63782 0l0 203.9685l-153.63782 0z" fill-rule="evenodd"/><path fill="#ff0000" d="m387.89502 46.58005l153.63782 0l0 8.283466l-153.63782 0z" fill-rule="evenodd"/><path fill="#f1c232" d="m387.89502 63.115486l153.63782 0l0 8.283463l-153.63782 0z" fill-rule="evenodd"/><path fill="#ffff00" d="m387.89502 71.39895l153.63782 0l0 8.283463l-153.63782 0z" fill-rule="evenodd"/><path fill="#00ff00" d="m387.89502 79.68241l153.63782 0l0 8.28347l-153.63782 0z" fill-rule="evenodd"/><path fill="#0000ff" d="m387.89502 87.96588l153.63782 0l0 8.283463l-153.63782 0z" fill-rule="evenodd"/><path fill="#ff9900" d="m387.89502 54.83202l153.63782 0l0 8.283466l-153.63782 0z" fill-rule="evenodd"/><path fill="#ffffff" d="m450.99738 209.86089l35.433075 0l0 4.535446l-35.433075 0z" fill-rule="evenodd"/><path fill="#ffffff" d="m443.1601 156.91339l0 0c0 -2.2874146 1.8543396 -4.141739 4.141754 -4.141739l0 0c1.0984497 0 2.1519165 0.4363556 2.92865 1.213089c0.7767029 0.77671814 1.2130737 1.8301849 1.2130737 2.92865l0 0c0 2.2874146 -1.8543091 4.1417236 -4.1417236 4.1417236l0 0c-2.2874146 0 -4.141754 -1.8543091 -4.141754 -4.1417236z" fill-rule="evenodd"/><path fill="#000000" d="m571.3937 18.532808l153.63782 0l0 203.9685l-153.63782 0z" fill-rule="evenodd"/><path fill="#ff0000" d="m571.3937 46.58005l153.63782 0l0 8.283466l-153.63782 0z" fill-rule="evenodd"/><path fill="#f1c232" d="m571.3937 63.115486l153.63782 0l0 8.283463l-153.63782 0z" fill-rule="evenodd"/><path fill="#ffff00" d="m571.3937 71.39895l153.63782 0l0 8.283463l-153.63782 0z" fill-rule="evenodd"/><path fill="#00ff00" d="m571.3937 79.68241l153.63782 0l0 8.28347l-153.63782 0z" fill-rule="evenodd"/><path fill="#0000ff" d="m571.3937 87.96588l153.63782 0l0 8.283463l-153.63782 0z" fill-rule="evenodd"/><path fill="#ff9900" d="m571.3937 54.83202l153.63782 0l0 8.283466l-153.63782 0z" fill-rule="evenodd"/><path fill="#ffffff" d="m636.99603 209.86089l35.433105 0l0 4.535446l-35.433105 0z" fill-rule="evenodd"/><path fill="#ffffff" d="m630.6588 160.91339l0 0c0 -2.2874146 1.8543091 -4.141739 4.1417236 -4.141739l0 0c1.0984497 0 2.1519165 0.4363556 2.92865 1.213089c0.7767334 0.77671814 1.2130737 1.8301849 1.2130737 2.92865l0 0c0 2.2874146 -1.8543091 4.1417236 -4.1417236 4.1417236l0 0c-2.2874146 0 -4.1417236 -1.8543091 -4.1417236 -4.1417236z" fill-rule="evenodd"/><path fill="#000000" d="m20.897638 249.03412l153.63779 0l0 203.9685l-153.63779 0z" fill-rule="evenodd"/><path fill="#ff0000" d="m20.897638 277.08136l153.63779 0l0 8.283478l-153.63779 0z" fill-rule="evenodd"/><path fill="#f1c232" d="m20.897638 293.6168l153.63779 0l0 8.283478l-153.63779 0z" fill-rule="evenodd"/><path fill="#ffff00" d="m20.897638 301.90027l153.63779 0l0 8.283447l-153.63779 0z" fill-rule="evenodd"/><path fill="#00ff00" d="m20.897638 310.18372l153.63779 0l0 8.283478l-153.63779 0z" fill-rule="evenodd"/><path fill="#0000ff" d="m20.897638 318.4672l153.63779 0l0 8.283478l-153.63779 0z" fill-rule="evenodd"/><path fill="#ff9900" d="m20.897638 285.33334l153.63779 0l0 8.283447l-153.63779 0z" fill-rule="evenodd"/><path fill="#ffffff" d="m88.5 440.3622l35.433067 0l0 4.535431l-35.433067 0z" fill-rule="evenodd"/><path fill="#ffffff" d="m84.16273 395.4147l0 0c0 -2.2874146 1.8543167 -4.1417236 4.1417313 -4.1417236l0 0c1.0984573 0 2.1519241 0.43634033 2.92865 1.2130737c0.77672577 0.7767334 1.213089 1.8302002 1.213089 2.92865l0 0c0 2.2874146 -1.8543167 4.1417236 -4.141739 4.1417236l0 0c-2.2874146 0 -4.1417313 -1.8543091 -4.1417313 -4.1417236z" fill-rule="evenodd"/><path fill="#000000" d="m204.39633 249.03412l153.63779 0l0 203.9685l-153.63779 0z" fill-rule="evenodd"/><path fill="#ff0000" d="m204.39633 277.08136l153.63779 0l0 8.283478l-153.63779 0z" fill-rule="evenodd"/><path fill="#f1c232" d="m204.39633 293.6168l153.63779 0l0 8.283478l-153.63779 0z" fill-rule="evenodd"/><path fill="#ffff00" d="m204.39633 301.90027l153.63779 0l0 8.283447l-153.63779 0z" fill-rule="evenodd"/><path fill="#00ff00" d="m204.39633 310.18372l153.63779 0l0 8.283478l-153.63779 0z" fill-rule="evenodd"/><path fill="#0000ff" d="m204.39633 318.4672l153.63779 0l0 8.283478l-153.63779 0z" fill-rule="evenodd"/><path fill="#ff9900" d="m204.39633 285.33334l153.63779 0l0 8.283447l-153.63779 0z" fill-rule="evenodd"/><path fill="#ffffff" d="m275.9987 440.3622l35.433075 0l0 4.535431l-35.433075 0z" fill-rule="evenodd"/><path fill="#ffffff" d="m267.6614 395.4147l0 0c0 -2.2874146 1.8543396 -4.1417236 4.141754 -4.1417236l0 0c1.0984497 0 2.1519165 0.43634033 2.92865 1.2130737c0.7767029 0.7767334 1.2130737 1.8302002 1.2130737 2.92865l0 0c0 2.2874146 -1.8543091 4.1417236 -4.1417236 4.1417236l0 0c-2.2874146 0 -4.141754 -1.8543091 -4.141754 -4.1417236z" fill-rule="evenodd"/><path fill="#000000" d="m391.89502 249.03412l153.63782 0l0 203.9685l-153.63782 0z" fill-rule="evenodd"/><path fill="#ff0000" d="m391.89502 277.08136l153.63782 0l0 8.283478l-153.63782 0z" fill-rule="evenodd"/><path fill="#f1c232" d="m391.89502 293.6168l153.63782 0l0 8.283478l-153.63782 0z" fill-rule="evenodd"/><path fill="#ffff00" d="m391.89502 301.90027l153.63782 0l0 8.283447l-153.63782 0z" fill-rule="evenodd"/><path fill="#00ff00" d="m391.89502 310.18372l153.63782 0l0 8.283478l-153.63782 0z" fill-rule="evenodd"/><path fill="#0000ff" d="m391.89502 318.4672l153.63782 0l0 8.283478l-153.63782 0z" fill-rule="evenodd"/><path fill="#ff9900" d="m391.89502 285.33334l153.63782 0l0 8.283447l-153.63782 0z" fill-rule="evenodd"/><path fill="#ffffff" d="m465.49738 440.3622l35.433075 0l0 4.535431l-35.433075 0z" fill-rule="evenodd"/><path fill="#ffffff" d="m458.6601 399.4147l0 0c0 -2.2874146 1.8543396 -4.1417236 4.141754 -4.1417236l0 0c1.0984497 0 2.1519165 0.43634033 2.92865 1.2130737c0.7767029 0.7767334 1.2130737 1.8302002 1.2130737 2.92865l0 0c0 2.2874146 -1.8543091 4.1417236 -4.1417236 4.1417236l0 0c-2.2874146 0 -4.141754 -1.8543091 -4.141754 -4.1417236z" fill-rule="evenodd"/><path fill="#000000" d="m571.3937 249.03412l153.63782 0l0 203.9685l-153.63782 0z" fill-rule="evenodd"/><path fill="#ff0000" d="m571.3937 277.08136l153.63782 0l0 8.283478l-153.63782 0z" fill-rule="evenodd"/><path fill="#f1c232" d="m571.3937 293.6168l153.63782 0l0 8.283478l-153.63782 0z" fill-rule="evenodd"/><path fill="#ffff00" d="m571.3937 301.90027l153.63782 0l0 8.283447l-153.63782 0z" fill-rule="evenodd"/><path fill="#00ff00" d="m571.3937 310.18372l153.63782 0l0 8.283478l-153.63782 0z" fill-rule="evenodd"/><path fill="#0000ff" d="m571.3937 318.4672l153.63782 0l0 8.283478l-153.63782 0z" fill-rule="evenodd"/><path fill="#ff9900" d="m571.3937 285.33334l153.63782 0l0 8.283447l-153.63782 0z" fill-rule="evenodd"/><path fill="#ffffff" d="m646.99603 440.3622l35.433105 0l0 4.535431l-35.433105 0z" fill-rule="evenodd"/><path fill="#ffffff" d="m642.1588 403.4147l0 0c0 -2.2874146 1.8543091 -4.1417236 4.1417236 -4.1417236l0 0c1.0984497 0 2.1519165 0.43634033 2.92865 1.2130737c0.7767334 0.7767334 1.2130737 1.8302002 1.2130737 2.92865l0 0c0 2.2874146 -1.8543091 4.1417236 -4.1417236 4.1417236l0 0c-2.2874146 0 -4.1417236 -1.8543091 -4.1417236 -4.1417236z" fill-rule="evenodd"/><path fill="#000000" d="m20.897638 479.53543l153.63779 0l0 203.96854l-153.63779 0z" fill-rule="evenodd"/><path fill="#ff0000" d="m20.897638 507.58267l153.63779 0l0 8.283478l-153.63779 0z" fill-rule="evenodd"/><path fill="#f1c232" d="m20.897638 524.1181l153.63779 0l0 8.283447l-153.63779 0z" fill-rule="evenodd"/><path fill="#ffff00" d="m20.897638 532.40155l153.63779 0l0 8.283508l-153.63779 0z" fill-rule="evenodd"/><path fill="#00ff00" d="m20.897638 540.68506l153.63779 0l0 8.283447l-153.63779 0z" fill-rule="evenodd"/><path fill="#0000ff" d="m20.897638 548.9685l153.63779 0l0 8.283447l-153.63779 0z" fill-rule="evenodd"/><path fill="#ff9900" d="m20.897638 515.83466l153.63779 0l0 8.283447l-153.63779 0z" fill-rule="evenodd"/><path fill="#ffffff" d="m100.5 670.8635l35.433075 0l0 4.5354004l-35.433075 0z" fill-rule="evenodd"/><path fill="#ffffff" d="m99.66273 641.916l0 0c0 -2.2874146 1.8543167 -4.1417236 4.1417313 -4.1417236l0 0c1.0984573 0 2.1519241 0.43634033 2.92865 1.2130737c0.77672577 0.7767334 1.213089 1.8302002 1.213089 2.92865l0 0c0 2.2874146 -1.8543167 4.1417236 -4.141739 4.1417236l0 0c-2.2874146 0 -4.1417313 -1.8543091 -4.1417313 -4.1417236z" fill-rule="evenodd"/><path fill="#000000" d="m204.39633 479.53543l153.63779 0l0 203.96854l-153.63779 0z" fill-rule="evenodd"/><path fill="#ff0000" d="m204.39633 507.58267l153.63779 0l0 8.283478l-153.63779 0z" fill-rule="evenodd"/><path fill="#f1c232" d="m204.39633 524.1181l153.63779 0l0 8.283447l-153.63779 0z" fill-rule="evenodd"/><path fill="#ffff00" d="m204.39633 532.40155l153.63779 0l0 8.283508l-153.63779 0z" fill-rule="evenodd"/><path fill="#00ff00" d="m204.39633 540.68506l153.63779 0l0 8.283447l-153.63779 0z" fill-rule="evenodd"/><path fill="#0000ff" d="m204.39633 548.9685l153.63779 0l0 8.283447l-153.63779 0z" fill-rule="evenodd"/><path fill="#ff9900" d="m204.39633 515.83466l153.63779 0l0 8.283447l-153.63779 0z" fill-rule="evenodd"/><path fill="#ffffff" d="m283.9987 670.8635l35.433075 0l0 4.5354004l-35.433075 0z" fill-rule="evenodd"/><path fill="#ffffff" d="m291.1614 649.916l0 0c0 -2.2874146 1.8543396 -4.1417236 4.141754 -4.1417236l0 0c1.0984497 0 2.1519165 0.43634033 2.92865 1.2130737c0.7767029 0.7767334 1.2130737 1.8302002 1.2130737 2.92865l0 0c0 2.2874146 -1.8543091 4.1417236 -4.1417236 4.1417236l0 0c-2.2874146 0 -4.141754 -1.8543091 -4.141754 -4.1417236z" fill-rule="evenodd"/><path fill="#000000" d="m391.89502 479.53543l153.63782 0l0 203.96854l-153.63782 0z" fill-rule="evenodd"/><path fill="#ff0000" d="m391.89502 507.58267l153.63782 0l0 8.283478l-153.63782 0z" fill-rule="evenodd"/><path fill="#f1c232" d="m391.89502 524.1181l153.63782 0l0 8.283447l-153.63782 0z" fill-rule="evenodd"/><path fill="#ffff00" d="m391.89502 532.40155l153.63782 0l0 8.283508l-153.63782 0z" fill-rule="evenodd"/><path fill="#00ff00" d="m391.89502 540.68506l153.63782 0l0 8.283447l-153.63782 0z" fill-rule="evenodd"/><path fill="#0000ff" d="m391.89502 548.9685l153.63782 0l0 8.283447l-153.63782 0z" fill-rule="evenodd"/><path fill="#ff9900" d="m391.89502 515.83466l153.63782 0l0 8.283447l-153.63782 0z" fill-rule="evenodd"/><path fill="#ffffff" d="m473.49738 670.8635l35.433075 0l0 4.5354004l-35.433075 0z" fill-rule="evenodd"/><path fill="#ffffff" d="m482.6601 657.916l0 0c0 -2.2874146 1.8543396 -4.1417236 4.141754 -4.1417236l0 0c1.0984497 0 2.1519165 0.43634033 2.92865 1.2130737c0.7767029 0.7767334 1.2130737 1.8302002 1.2130737 2.92865l0 0c0 2.2874146 -1.8543091 4.1417236 -4.1417236 4.1417236l0 0c-2.2874146 0 -4.141754 -1.8543091 -4.141754 -4.1417236z" fill-rule="evenodd"/><path fill="#000000" d="m571.3937 479.53543l153.63782 0l0 203.96854l-153.63782 0z" fill-rule="evenodd"/><path fill="#ff0000" d="m571.3937 507.58267l153.63782 0l0 8.283478l-153.63782 0z" fill-rule="evenodd"/><path fill="#f1c232" d="m571.3937 524.1181l153.63782 0l0 8.283447l-153.63782 0z" fill-rule="evenodd"/><path fill="#ffff00" d="m571.3937 532.40155l153.63782 0l0 8.283508l-153.63782 0z" fill-rule="evenodd"/><path fill="#00ff00" d="m571.3937 540.68506l153.63782 0l0 8.283447l-153.63782 0z" fill-rule="evenodd"/><path fill="#0000ff" d="m571.3937 548.9685l153.63782 0l0 8.283447l-153.63782 0z" fill-rule="evenodd"/><path fill="#ff9900" d="m571.3937 515.83466l153.63782 0l0 8.283447l-153.63782 0z" fill-rule="evenodd"/><path fill="#ffffff" d="m656.99603 670.8635l35.433105 0l0 4.5354004l-35.433105 0z" fill-rule="evenodd"/><path fill="#ffffff" d="m670.1588 665.916l0 0c0 -2.2874146 1.8543091 -4.1417236 4.1417236 -4.1417236l0 0c1.0984497 0 2.1519165 0.43634033 2.92865 1.2130737c0.7767334 0.7767334 1.2130737 1.8302002 1.2130737 2.92865l0 0c0 2.2874146 -1.8543091 4.1417236 -4.1417236 4.1417236l0 0c-2.2874146 0 -4.1417236 -1.8543091 -4.1417236 -4.1417236z" fill-rule="evenodd"/><path fill="#000000" d="m20.897638 710.03674l153.63779 0l0 203.9685l-153.63779 0z" fill-rule="evenodd"/><path fill="#ff0000" d="m20.897638 738.084l153.63779 0l0 8.283447l-153.63779 0z" fill-rule="evenodd"/><path fill="#f1c232" d="m20.897638 754.61945l153.63779 0l0 8.283447l-153.63779 0z" fill-rule="evenodd"/><path fill="#ffff00" d="m20.897638 762.9029l153.63779 0l0 8.283447l-153.63779 0z" fill-rule="evenodd"/><path fill="#00ff00" d="m20.897638 771.18634l153.63779 0l0 8.283447l-153.63779 0z" fill-rule="evenodd"/><path fill="#0000ff" d="m20.897638 779.4698l153.63779 0l0 8.283508l-153.63779 0z" fill-rule="evenodd"/><path fill="#ff9900" d="m20.897638 746.33594l153.63779 0l0 8.283508l-153.63779 0z" fill-rule="evenodd"/><path fill="#ffffff" d="m106.5 901.3648l35.433075 0l0 4.5354614l-35.433075 0z" fill-rule="evenodd"/><path fill="#ffffff" d="m127.66273 888.4173l0 0c0 -2.2874146 1.8543167 -4.1417236 4.1417313 -4.1417236l0 0c1.098465 0 2.1519318 0.43640137 2.92865 1.2130737c0.7767334 0.7767334 1.213089 1.8302002 1.213089 2.92865l0 0c0 2.2874146 -1.8543243 4.1417847 -4.141739 4.1417847l0 0c-2.2874146 0 -4.1417313 -1.8543701 -4.1417313 -4.1417847z" fill-rule="evenodd"/><path fill="#000000" d="m204.39633 710.03674l153.63779 0l0 203.9685l-153.63779 0z" fill-rule="evenodd"/><path fill="#ff0000" d="m204.39633 738.084l153.63779 0l0 8.283447l-153.63779 0z" fill-rule="evenodd"/><path fill="#f1c232" d="m204.39633 754.61945l153.63779 0l0 8.283447l-153.63779 0z" fill-rule="evenodd"/><path fill="#ffff00" d="m204.39633 762.9029l153.63779 0l0 8.283447l-153.63779 0z" fill-rule="evenodd"/><path fill="#00ff00" d="m204.39633 771.18634l153.63779 0l0 8.283447l-153.63779 0z" fill-rule="evenodd"/><path fill="#0000ff" d="m204.39633 779.4698l153.63779 0l0 8.283508l-153.63779 0z" fill-rule="evenodd"/><path fill="#ff9900" d="m204.39633 746.33594l153.63779 0l0 8.283508l-153.63779 0z" fill-rule="evenodd"/><path fill="#ffffff" d="m289.9987 901.3648l35.433075 0l0 4.5354614l-35.433075 0z" fill-rule="evenodd"/><path fill="#ffffff" d="m319.1614 880.4173l0 0c0 -2.2874146 1.8543396 -4.1417236 4.141754 -4.1417236l0 0c1.0984497 0 2.1519165 0.43640137 2.92865 1.2130737c0.7767029 0.7767334 1.2130737 1.8302002 1.2130737 2.92865l0 0c0 2.2874146 -1.8543091 4.1417847 -4.1417236 4.1417847l0 0c-2.2874146 0 -4.141754 -1.8543701 -4.141754 -4.1417847z" fill-rule="evenodd"/><path fill="#000000" d="m387.89502 710.03674l153.63782 0l0 203.9685l-153.63782 0z" fill-rule="evenodd"/><path fill="#ff0000" d="m387.89502 738.084l153.63782 0l0 8.283447l-153.63782 0z" fill-rule="evenodd"/><path fill="#f1c232" d="m387.89502 754.61945l153.63782 0l0 8.283447l-153.63782 0z" fill-rule="evenodd"/><path fill="#ffff00" d="m387.89502 762.9029l153.63782 0l0 8.283447l-153.63782 0z" fill-rule="evenodd"/><path fill="#00ff00" d="m387.89502 771.18634l153.63782 0l0 8.283447l-153.63782 0z" fill-rule="evenodd"/><path fill="#0000ff" d="m387.89502 779.4698l153.63782 0l0 8.283508l-153.63782 0z" fill-rule="evenodd"/><path fill="#ff9900" d="m387.89502 746.33594l153.63782 0l0 8.283508l-153.63782 0z" fill-rule="evenodd"/><path fill="#ffffff" d="m473.49738 901.3648l35.433075 0l0 4.5354614l-35.433075 0z" fill-rule="evenodd"/><path fill="#ffffff" d="m510.6601 872.4173l0 0c0 -2.2874146 1.8543091 -4.1417236 4.1417236 -4.1417236l0 0c1.0984497 0 2.1519165 0.43640137 2.92865 1.2130737c0.7767334 0.7767334 1.2130737 1.8302002 1.2130737 2.92865l0 0c0 2.2874146 -1.8543091 4.1417847 -4.1417236 4.1417847l0 0c-2.2874146 0 -4.1417236 -1.8543701 -4.1417236 -4.1417847z" fill-rule="evenodd"/><path fill="#000000" d="m571.3937 710.03674l153.63782 0l0 203.9685l-153.63782 0z" fill-rule="evenodd"/><path fill="#ff0000" d="m571.3937 738.084l153.63782 0l0 8.283447l-153.63782 0z" fill-rule="evenodd"/><path fill="#f1c232" d="m571.3937 754.61945l153.63782 0l0 8.283447l-153.63782 0z" fill-rule="evenodd"/><path fill="#ffff00" d="m571.3937 762.9029l153.63782 0l0 8.283447l-153.63782 0z" fill-rule="evenodd"/><path fill="#00ff00" d="m571.3937 771.18634l153.63782 0l0 8.283447l-153.63782 0z" fill-rule="evenodd"/><path fill="#0000ff" d="m571.3937 779.4698l153.63782 0l0 8.283508l-153.63782 0z" fill-rule="evenodd"/><path fill="#ff9900" d="m571.3937 746.33594l153.63782 0l0 8.283508l-153.63782 0z" fill-rule="evenodd"/><path fill="#ffffff" d="m656.99603 901.3648l35.433105 0l0 4.5354614l-35.433105 0z" fill-rule="evenodd"/><path fill="#ffffff" d="m702.1588 864.4173l0 0c0 -2.2874146 1.8543091 -4.1417236 4.1417236 -4.1417236l0 0c1.0984497 0 2.1519165 0.43640137 2.92865 1.2130737c0.7767334 0.7767334 1.2130737 1.8302002 1.2130737 2.92865l0 0c0 2.2874146 -1.8543091 4.1417847 -4.1417236 4.1417847l0 0c-2.2874146 0 -4.1417236 -1.8543701 -4.1417236 -4.1417847z" fill-rule="evenodd"/></g></svg>