<?xml version="1.0" encoding="UTF-8" standalone="no"?>
<svg
   xmlns:dc="http://purl.org/dc/elements/1.1/"
   xmlns:cc="http://creativecommons.org/ns#"
   xmlns:rdf="http://www.w3.org/1999/02/22-rdf-syntax-ns#"
   xmlns:svg="http://www.w3.org/2000/svg"
   xmlns="http://www.w3.org/2000/svg"
   version="1.1"
   viewBox="0 0 324.83423 343.16199"
   fill="none"
   stroke="none"
   stroke-linecap="square"
   stroke-miterlimit="10"
   id="svg121"
   width="324.83423"
   height="343.16199">
  <metadata
     id="metadata127">
    <rdf:RDF>
      <cc:Work
         rdf:about="">
        <dc:format>image/svg+xml</dc:format>
        <dc:type
           rdf:resource="http://purl.org/dc/dcmitype/StillImage" />
        <dc:title></dc:title>
      </cc:Work>
    </rdf:RDF>
  </metadata>
  <defs
     id="defs125">
    <clipPath
       clipPathUnits="userSpaceOnUse"
       id="clipPath141">
      <rect
         style="fill:#0000ff;fill-rule:evenodd;stroke-width:0.999965"
         id="rect143"
         width="324.81174"
         height="343.16199"
         x="193.66119"
         y="75.194969" />
    </clipPath>
  </defs>
  <clipPath
     id="g574d3e646d_0_0.0">
    <path
       d="M 0,0 H 960 V 540 H 0 Z"
       clip-rule="nonzero"
       id="path2" />
  </clipPath>
  <g
     clip-path="url(#clipPath141)"
     id="g119"
     transform="matrix(1.0000692,0,0,1,-193.6746,-75.194969)">
    <path
       fill="#ffffff"
       d="M 0,0 H 960 V 540 H 0 Z"
       fill-rule="evenodd"
       id="path5" />
    <path
       fill="#000000"
       fill-opacity="0"
       d="M 480.39804,363.79962 298.57129,175.23269"
       fill-rule="evenodd"
       id="path7" />
    <path
       stroke="#595959"
       stroke-width="1"
       stroke-linejoin="round"
       stroke-linecap="butt"
       d="M 480.39804,363.79962 302.73602,179.55182"
       fill-rule="evenodd"
       id="path9" />
    <path
       fill="#595959"
       stroke="#595959"
       stroke-width="1"
       stroke-linecap="butt"
       d="m 303.92502,178.40532 -4.33899,-2.12027 1.961,4.41328 z"
       fill-rule="evenodd"
       id="path11" />
    <path
       fill="#000000"
       fill-opacity="0"
       d="M 479.99945,363.04327 V 111.83065"
       fill-rule="evenodd"
       id="path13" />
    <path
       stroke="#595959"
       stroke-width="1"
       stroke-linejoin="round"
       stroke-linecap="butt"
       d="M 479.99942,363.04327 V 117.83065"
       fill-rule="evenodd"
       id="path15" />
    <path
       fill="#595959"
       stroke="#595959"
       stroke-width="1"
       stroke-linecap="butt"
       d="m 481.65115,117.83067 -1.65173,-4.5381 -1.65174,4.5381 z"
       fill-rule="evenodd"
       id="path17" />
    <path
       fill="#000000"
       fill-opacity="0"
       d="M 479.99945,363.0354 H 228.78685"
       fill-rule="evenodd"
       id="path19" />
    <path
       stroke="#595959"
       stroke-width="1"
       stroke-linejoin="round"
       stroke-linecap="butt"
       d="M 479.99942,363.0354 H 234.78685"
       fill-rule="evenodd"
       id="path21" />
    <path
       fill="#595959"
       stroke="#595959"
       stroke-width="1"
       stroke-linecap="butt"
       d="m 234.78685,361.38367 -4.5381,1.65173 4.5381,1.65174 z"
       fill-rule="evenodd"
       id="path23" />
    <path
       fill="#cccccc"
       d="m 449.69592,350.55878 v 0 c 0,-3.465 2.80893,-6.27393 6.27393,-6.27393 h 48.05941 c 1.66394,0 3.25977,0.66101 4.43634,1.83759 1.17661,1.1766 1.83759,2.7724 1.83759,4.43634 v 25.095 c 0,3.46503 -2.80893,6.27396 -6.27393,6.27396 h -48.05941 c -3.465,0 -6.27393,-2.80893 -6.27393,-6.27396 z"
       fill-rule="evenodd"
       id="path25" />
    <path
       stroke="#000000"
       stroke-width="1"
       stroke-linejoin="round"
       stroke-linecap="butt"
       d="m 449.69592,350.55878 v 0 c 0,-3.465 2.80893,-6.27393 6.27393,-6.27393 h 48.05941 c 1.66394,0 3.25977,0.66101 4.43634,1.83759 1.17661,1.1766 1.83759,2.7724 1.83759,4.43634 v 25.095 c 0,3.46503 -2.80893,6.27396 -6.27393,6.27396 h -48.05941 c -3.465,0 -6.27393,-2.80893 -6.27393,-6.27396 z"
       fill-rule="evenodd"
       id="path27" />
    <path
       fill="#cccccc"
       d="m 449.69592,403.82047 v 0 c 0,-4.26041 3.45374,-7.71417 7.71414,-7.71417 h 45.17899 c 2.0459,0 4.00802,0.81274 5.45471,2.25943 1.44672,1.44668 2.25943,3.40881 2.25943,5.45474 v 0 0 c 0,4.26041 -3.45374,7.71417 -7.71414,7.71417 h -45.17899 v 0 c -4.2604,0 -7.71414,-3.45376 -7.71414,-7.71417 z"
       fill-rule="evenodd"
       id="path29" />
    <path
       stroke="#000000"
       stroke-width="1"
       stroke-linejoin="round"
       stroke-linecap="butt"
       d="m 449.69592,403.82047 v 0 c 0,-4.26041 3.45374,-7.71417 7.71414,-7.71417 h 45.17899 c 2.0459,0 4.00802,0.81274 5.45471,2.25943 1.44672,1.44668 2.25943,3.40881 2.25943,5.45474 v 0 0 c 0,4.26041 -3.45374,7.71417 -7.71414,7.71417 h -45.17899 v 0 c -4.2604,0 -7.71414,-3.45376 -7.71414,-7.71417 z"
       fill-rule="evenodd"
       id="path31" />
    <path
       fill="#ffffff"
       d="m 459.21912,363.1063 v 0 c 0,-3.2406 2.62283,-5.86765 5.85825,-5.86765 v 0 c 1.55371,0 3.04379,0.6182 4.14242,1.7186 1.09866,1.1004 1.71585,2.59284 1.71585,4.14905 v 0 c 0,3.2406 -2.62283,5.86765 -5.85827,5.86765 v 0 c -3.23542,0 -5.85825,-2.62705 -5.85825,-5.86765 z"
       fill-rule="evenodd"
       id="path33" />
    <path
       stroke="#000000"
       stroke-width="1"
       stroke-linejoin="round"
       stroke-linecap="butt"
       d="m 459.21912,363.1063 v 0 c 0,-3.2406 2.62283,-5.86765 5.85825,-5.86765 v 0 c 1.55371,0 3.04379,0.6182 4.14242,1.7186 1.09866,1.1004 1.71585,2.59284 1.71585,4.14905 v 0 c 0,3.2406 -2.62283,5.86765 -5.85827,5.86765 v 0 c -3.23542,0 -5.85825,-2.62705 -5.85825,-5.86765 z"
       fill-rule="evenodd"
       id="path35" />
    <path
       fill="#ffffff"
       d="m 489.06348,363.1063 v 0 c 0,-3.2406 2.62283,-5.86765 5.85825,-5.86765 v 0 c 1.55371,0 3.04379,0.6182 4.14242,1.7186 1.09863,1.1004 1.71585,2.59284 1.71585,4.14905 v 0 c 0,3.2406 -2.62283,5.86765 -5.85827,5.86765 v 0 c -3.23542,0 -5.85825,-2.62705 -5.85825,-5.86765 z"
       fill-rule="evenodd"
       id="path37" />
    <path
       stroke="#000000"
       stroke-width="1"
       stroke-linejoin="round"
       stroke-linecap="butt"
       d="m 489.06348,363.1063 v 0 c 0,-3.2406 2.62283,-5.86765 5.85825,-5.86765 v 0 c 1.55371,0 3.04379,0.6182 4.14242,1.7186 1.09863,1.1004 1.71585,2.59284 1.71585,4.14905 v 0 c 0,3.2406 -2.62283,5.86765 -5.85827,5.86765 v 0 c -3.23542,0 -5.85825,-2.62705 -5.85825,-5.86765 z"
       fill-rule="evenodd"
       id="path39" />
    <path
       fill="#cccccc"
       d="m 474.1413,381.92773 h 11.71652 v 14.17233 H 474.1413 Z"
       fill-rule="evenodd"
       id="path41" />
    <path
       stroke="#000000"
       stroke-width="1"
       stroke-linejoin="round"
       stroke-linecap="butt"
       d="m 474.1413,381.92773 h 11.71652 v 14.17233 H 474.1413 Z"
       fill-rule="evenodd"
       id="path43" />
    <path
       fill="#000000"
       fill-opacity="0"
       d="m 488.44705,356.0789 v 0 c 1.3754,-1.71597 3.79773,-2.76703 6.41415,-2.78305 2.61643,-0.016 5.06015,1.00516 6.47077,2.70407 l -6.41025,3.16336 z"
       fill-rule="evenodd"
       id="path45" />
    <path
       fill="#000000"
       fill-opacity="0"
       d="m 488.44705,356.0789 v 0 c 1.3754,-1.71597 3.79773,-2.76703 6.41415,-2.78305 2.61643,-0.016 5.06015,1.00516 6.47077,2.70407"
       fill-rule="evenodd"
       id="path47" />
    <path
       stroke="#000000"
       stroke-width="1"
       stroke-linejoin="round"
       stroke-linecap="butt"
       d="m 488.44705,356.0789 v 0 c 1.3754,-1.71597 3.79773,-2.76703 6.41415,-2.78305 2.61643,-0.016 5.06015,1.00516 6.47077,2.70407"
       fill-rule="evenodd"
       id="path49" />
    <path
       fill="#000000"
       fill-opacity="0"
       d="m 458.6027,356.0789 v 0 c 1.3754,-1.71597 3.79773,-2.76703 6.41415,-2.78305 2.61643,-0.016 5.06015,1.00516 6.47077,2.70407 l -6.41025,3.16336 z"
       fill-rule="evenodd"
       id="path51" />
    <path
       fill="#000000"
       fill-opacity="0"
       d="m 458.6027,356.0789 v 0 c 1.3754,-1.71597 3.79773,-2.76703 6.41415,-2.78305 2.61643,-0.016 5.06015,1.00516 6.47077,2.70407"
       fill-rule="evenodd"
       id="path53" />
    <path
       stroke="#000000"
       stroke-width="1"
       stroke-linejoin="round"
       stroke-linecap="butt"
       d="m 458.6027,356.0789 v 0 c 1.3754,-1.71597 3.79773,-2.76703 6.41415,-2.78305 2.61643,-0.016 5.06015,1.00516 6.47077,2.70407"
       fill-rule="evenodd"
       id="path55" />
    <path
       fill="#000000"
       fill-opacity="0"
       d="M 479.99954,344.28485 V 321.60162"
       fill-rule="evenodd"
       id="path57" />
    <path
       stroke="#000000"
       stroke-width="2"
       stroke-linejoin="round"
       stroke-linecap="butt"
       d="M 479.99954,344.28485 V 321.60162"
       fill-rule="evenodd"
       id="path59" />
    <path
       fill="#f4cccc"
       d="m 476.45648,318.0773 v 0 c 0,-1.95679 1.58627,-3.54309 3.54306,-3.54309 v 0 c 0.9397,0 1.84088,0.37329 2.50534,1.03775 0.66446,0.66446 1.03775,1.56564 1.03775,2.50534 v 0 c 0,1.95679 -1.58627,3.54309 -3.54309,3.54309 v 0 c -1.95679,0 -3.54306,-1.5863 -3.54306,-3.54309 z"
       fill-rule="evenodd"
       id="path61" />
    <path
       stroke="#000000"
       stroke-width="1"
       stroke-linejoin="round"
       stroke-linecap="butt"
       d="m 476.45648,318.0773 v 0 c 0,-1.95679 1.58627,-3.54309 3.54306,-3.54309 v 0 c 0.9397,0 1.84088,0.37329 2.50534,1.03775 0.66446,0.66446 1.03775,1.56564 1.03775,2.50534 v 0 c 0,1.95679 -1.58627,3.54309 -3.54309,3.54309 v 0 c -1.95679,0 -3.54306,-1.5863 -3.54306,-3.54309 z"
       fill-rule="evenodd"
       id="path63" />
    <path
       fill="#666666"
       d="m 454.49265,403.85666 v 0 c 0,-2.38126 1.93042,-4.31168 4.31171,-4.31168 v 0 c 1.14352,0 2.2402,0.45426 3.04882,1.26288 0.8086,0.8086 1.26285,1.90528 1.26285,3.0488 v 0 c 0,2.38129 -1.93042,4.31171 -4.31167,4.31171 v 0 c -2.38129,0 -4.31171,-1.93042 -4.31171,-4.31171 z"
       fill-rule="evenodd"
       id="path65" />
    <path
       stroke="#000000"
       stroke-width="1"
       stroke-linejoin="round"
       stroke-linecap="butt"
       d="m 454.49265,403.85666 v 0 c 0,-2.38126 1.93042,-4.31168 4.31171,-4.31168 v 0 c 1.14352,0 2.2402,0.45426 3.04882,1.26288 0.8086,0.8086 1.26285,1.90528 1.26285,3.0488 v 0 c 0,2.38129 -1.93042,4.31171 -4.31167,4.31171 v 0 c -2.38129,0 -4.31171,-1.93042 -4.31171,-4.31171 z"
       fill-rule="evenodd"
       id="path67" />
    <path
       fill="#666666"
       d="m 496.88275,403.78482 v 0 c 0,-2.38129 1.93042,-4.31171 4.31171,-4.31171 v 0 c 1.14352,0 2.2402,0.45429 3.04879,1.26288 0.80863,0.8086 1.26288,1.90528 1.26288,3.04883 v 0 c 0,2.38126 -1.93042,4.31168 -4.31167,4.31168 v 0 c -2.38129,0 -4.31171,-1.93042 -4.31171,-4.31168 z"
       fill-rule="evenodd"
       id="path69" />
    <path
       stroke="#000000"
       stroke-width="1"
       stroke-linejoin="round"
       stroke-linecap="butt"
       d="m 496.88275,403.78482 v 0 c 0,-2.38129 1.93042,-4.31171 4.31171,-4.31171 v 0 c 1.14352,0 2.2402,0.45429 3.04879,1.26288 0.80863,0.8086 1.26288,1.90528 1.26288,3.04883 v 0 c 0,2.38126 -1.93042,4.31168 -4.31167,4.31168 v 0 c -2.38129,0 -4.31171,-1.93042 -4.31171,-4.31168 z"
       fill-rule="evenodd"
       id="path71" />
    <path
       fill="#666666"
       d="m 468.62268,403.78482 v 0 c 0,-2.38129 1.93042,-4.31171 4.31171,-4.31171 v 0 c 1.14352,0 2.2402,0.45429 3.04879,1.26288 0.80863,0.8086 1.26288,1.90528 1.26288,3.04883 v 0 c 0,2.38126 -1.93042,4.31168 -4.31167,4.31168 v 0 c -2.38129,0 -4.31171,-1.93042 -4.31171,-4.31168 z"
       fill-rule="evenodd"
       id="path73" />
    <path
       stroke="#000000"
       stroke-width="1"
       stroke-linejoin="round"
       stroke-linecap="butt"
       d="m 468.62268,403.78482 v 0 c 0,-2.38129 1.93042,-4.31171 4.31171,-4.31171 v 0 c 1.14352,0 2.2402,0.45429 3.04879,1.26288 0.80863,0.8086 1.26288,1.90528 1.26288,3.04883 v 0 c 0,2.38126 -1.93042,4.31168 -4.31167,4.31168 v 0 c -2.38129,0 -4.31171,-1.93042 -4.31171,-4.31168 z"
       fill-rule="evenodd"
       id="path75" />
    <path
       fill="#666666"
       d="m 482.75272,403.85666 v 0 c 0,-2.38126 1.93042,-4.31168 4.31171,-4.31168 v 0 c 1.14352,0 2.2402,0.45426 3.04879,1.26288 0.80863,0.8086 1.26288,1.90528 1.26288,3.0488 v 0 c 0,2.38129 -1.93042,4.31171 -4.31167,4.31171 v 0 c -2.38129,0 -4.31171,-1.93042 -4.31171,-4.31171 z"
       fill-rule="evenodd"
       id="path77" />
    <path
       stroke="#000000"
       stroke-width="1"
       stroke-linejoin="round"
       stroke-linecap="butt"
       d="m 482.75272,403.85666 v 0 c 0,-2.38126 1.93042,-4.31168 4.31171,-4.31168 v 0 c 1.14352,0 2.2402,0.45426 3.04879,1.26288 0.80863,0.8086 1.26288,1.90528 1.26288,3.0488 v 0 c 0,2.38129 -1.93042,4.31171 -4.31167,4.31171 v 0 c -2.38129,0 -4.31171,-1.93042 -4.31171,-4.31171 z"
       fill-rule="evenodd"
       id="path79" />
    <path
       fill="#eeeeee"
       d="m 280.8819,167.90552 v 0 c 0,-5.7229 4.63931,-10.36221 10.36218,-10.36221 v 0 c 2.74823,0 5.38391,1.09173 7.32721,3.03502 1.94327,1.94329 3.03501,4.57896 3.03501,7.32719 v 0 c 0,5.72288 -4.63932,10.3622 -10.36222,10.3622 v 0 c -5.72287,0 -10.36218,-4.63931 -10.36218,-10.3622 z"
       fill-rule="evenodd"
       id="path81" />
    <path
       stroke="#595959"
       stroke-width="1"
       stroke-linejoin="round"
       stroke-linecap="butt"
       d="m 280.8819,167.90552 v 0 c 0,-5.7229 4.63931,-10.36221 10.36218,-10.36221 v 0 c 2.74823,0 5.38391,1.09173 7.32721,3.03502 1.94327,1.94329 3.03501,4.57896 3.03501,7.32719 v 0 c 0,5.72288 -4.63932,10.3622 -10.36222,10.3622 v 0 c -5.72287,0 -10.36218,-4.63931 -10.36218,-10.3622 z"
       fill-rule="evenodd"
       id="path83" />
    <path
       fill="#000000"
       fill-opacity="0"
       d="m 457.41626,76.962875 h 45.16537 v 34.866135 h -45.16537 z"
       fill-rule="evenodd"
       id="path85" />
    <path
       fill="#000000"
       d="m 479.94815,94.719696 2.5,-4.109375 h 2.25 l -3.6875,5.5625 3.8125,5.703129 h -2.23438 l -2.60937,-4.218754 -2.59375,4.218754 h -2.25 l 3.8125,-5.703129 -3.6875,-5.5625 h 2.21875 z"
       fill-rule="nonzero"
       id="path87" />
    <path
       fill="#000000"
       fill-opacity="0"
       d="m 183.621,345.602 h 45.16534 v 34.86612 H 183.621 Z"
       fill-rule="evenodd"
       id="path89" />
    <path
       fill="#000000"
       d="m 206.29865,367.68692 2.625,-8.4375 h 2.0625 l -4.53125,13 q -1.04688,2.8125 -3.34375,2.8125 l -0.35938,-0.0312 -0.71875,-0.125 v -1.5625 l 0.51563,0.0312 q 0.98437,0 1.53125,-0.39063 0.54687,-0.39062 0.90625,-1.45312 l 0.42187,-1.14063 -4.01562,-11.14062 h 2.09375 z"
       fill-rule="nonzero"
       id="path91" />
    <path
       fill="#000000"
       fill-opacity="0"
       d="m 370.80734,220.00224 h 45.16534 v 34.86614 h -45.16534 z"
       fill-rule="evenodd"
       id="path93" />
    <path
       fill="#000000"
       d="m 396.68777,235.36844 q -0.4375,-0.0625 -0.95313,-0.0625 -1.89062,0 -2.5625,1.60937 v 8 h -1.9375 v -11.26562 h 1.875 l 0.0312,1.29687 q 0.95313,-1.5 2.6875,-1.5 0.5625,0 0.85938,0.14063 z"
       fill-rule="nonzero"
       id="path95" />
    <path
       fill="#000000"
       fill-opacity="0"
       d="m 434.8336,293.5272 h 45.16537 v 34.86612 H 434.8336 Z"
       fill-rule="evenodd"
       id="path97" />
    <path
       fill="#000000"
       d="m 462.1886,311.76837 q 0,3.34375 -1.23438,5.10937 -1.21875,1.76563 -3.53125,1.76563 -2.28125,0 -3.53125,-1.71875 -1.23437,-1.73438 -1.28125,-4.9375 v -2.14063 q 0,-3.29687 1.23438,-5.03125 1.23437,-1.75 3.54687,-1.75 2.3125,0 3.53125,1.6875 1.23438,1.6875 1.26563,4.89063 z m -7.64063,-1.67188 h 5.71875 v -0.57812 q 0,-2.35938 -0.73437,-3.60938 -0.71875,-1.25 -2.14063,-1.25 -1.39062,0 -2.125,1.25 -0.71875,1.25 -0.71875,3.60938 z m 5.71875,1.57813 h -5.71875 v 0.40625 q 0,2.39062 0.75,3.70312 0.76563,1.29688 2.10938,1.29688 1.35937,0 2.09375,-1.25 0.73437,-1.25 0.76562,-3.625 z"
       fill-rule="nonzero"
       id="path99" />
    <path
       fill="#000000"
       fill-opacity="0"
       d="m 455.4893,336.77515 v 0 c 5.67535,-7.8121 14.73468,-12.45093 24.39059,-12.48917 l 0.12003,30.29569 z"
       fill-rule="evenodd"
       id="path101" />
    <path
       fill="#000000"
       fill-opacity="0"
       d="m 455.4893,336.77515 v 0 c 5.67535,-7.8121 14.73468,-12.45093 24.39059,-12.48917"
       fill-rule="evenodd"
       id="path103" />
    <path
       stroke="#595959"
       stroke-width="1"
       stroke-linejoin="round"
       stroke-linecap="butt"
       d="m 455.4893,336.77515 v 0 c 5.67535,-7.8121 14.73468,-12.45093 24.39059,-12.48917"
       fill-rule="evenodd"
       id="path105" />
    <path
       fill="#000000"
       fill-opacity="0"
       d="m 298.57202,128.71916 h 86.04724 v 34.86613 h -86.04724 z"
       fill-rule="evenodd"
       id="path107" />
    <path
       fill="#000000"
       d="m 312.04776,147.47598 q 0,-2.35938 0.625,-4.51563 0.625,-2.17187 1.875,-3.9375 1.25,-1.76562 2.59375,-2.5 l 0.40625,1.26563 q -1.53125,1.17187 -2.5,3.5625 -0.96875,2.39062 -1.0625,5.35937 l -0.0156,0.89063 q 0,4.01562 1.46875,6.98437 0.89063,1.76563 2.10938,2.76563 l -0.40625,1.17187 q -1.375,-0.76562 -2.64063,-2.57812 -2.45312,-3.54688 -2.45312,-8.46875 z m 16.89926,0.64062 q 0,2.59375 -1.1875,4.15625 -1.1875,1.5625 -3.1875,1.5625 -2.14062,0 -3.29687,-1.5 l -0.0937,1.29688 h -1.78125 v -16 h 1.9375 v 5.96875 q 1.15625,-1.4375 3.20312,-1.4375 2.0625,0 3.23438,1.54687 1.17187,1.54688 1.17187,4.25 z m -1.92187,-0.21875 q 0,-1.96875 -0.76563,-3.03125 -0.76562,-1.07812 -2.1875,-1.07812 -1.90625,0 -2.73437,1.76562 v 4.875 q 0.875,1.78125 2.75,1.78125 1.39062,0 2.15625,-1.07812 0.78125,-1.07813 0.78125,-3.23438 z"
       fill-rule="nonzero"
       id="path109" />
    <path
       fill="#000000"
       d="m 333.41284,140.86661 1.65625,-2.75 h 1.5 l -2.45312,3.71875 2.53125,3.79687 h -1.48438 l -1.73437,-2.8125 -1.73438,2.8125 h -1.5 l 2.53125,-3.79687 -2.45312,-3.71875 h 1.48437 z"
       fill-rule="nonzero"
       id="path111" />
    <path
       fill="#000000"
       d="m 338.35025,156.64786 -1.09375,-0.75 q 0.98438,-1.35938 1.03125,-2.8125 v -1.73438 h 1.875 v 1.51563 q 0,1.04687 -0.51562,2.09375 -0.51563,1.0625 -1.29688,1.6875 z m 19.07581,-8.53125 q 0,2.59375 -1.1875,4.15625 -1.1875,1.5625 -3.1875,1.5625 -2.14063,0 -3.29688,-1.5 l -0.0937,1.29687 h -1.78125 v -16 h 1.9375 v 5.96875 q 1.15625,-1.4375 3.20313,-1.4375 2.0625,0 3.23437,1.54688 1.17188,1.54687 1.17188,4.25 z m -1.92188,-0.21875 q 0,-1.96875 -0.76562,-3.03125 -0.76563,-1.07813 -2.1875,-1.07813 -1.90625,0 -2.73438,1.76563 v 4.875 q 0.875,1.78125 2.75,1.78125 1.39063,0 2.15625,-1.07813 0.78125,-1.07812 0.78125,-3.23437 z"
       fill-rule="nonzero"
       id="path113" />
    <path
       fill="#000000"
       d="m 361.8294,143.75723 1.73438,-5.64063 h 1.375 l -3.01563,8.67188 q -0.70312,1.875 -2.21875,1.875 l -0.25,-0.0156 -0.48437,-0.0937 v -1.04687 l 0.35937,0.0312 q 0.64063,0 1,-0.26563 0.375,-0.26562 0.60938,-0.95312 l 0.28125,-0.76563 -2.67188,-7.4375 h 1.40625 z"
       fill-rule="nonzero"
       id="path115" />
    <path
       fill="#000000"
       d="m 371.02557,147.58536 q 0,2.3125 -0.60937,4.45312 -0.60938,2.125 -1.875,3.92188 -1.25,1.8125 -2.625,2.5625 l -0.40625,-1.17188 q 1.60937,-1.23437 2.57812,-3.8125 0.98438,-2.59375 1,-5.75 v -0.32812 q 0,-2.1875 -0.46875,-4.0625 -0.45312,-1.89063 -1.26562,-3.375 -0.8125,-1.48438 -1.84375,-2.32813 l 0.40625,-1.17187 q 1.375,0.76562 2.625,2.54687 1.25,1.78125 1.85937,3.92188 0.625,2.14062 0.625,4.59375 z"
       fill-rule="nonzero"
       id="path117" />
  </g>
</svg>
