<svg version="1.1" viewBox="0.0 0.0 462.09448818897636 176.45144356955382" fill="none" stroke="none" stroke-linecap="square" stroke-miterlimit="10" xmlns:xlink="http://www.w3.org/1999/xlink" xmlns="http://www.w3.org/2000/svg"><clipPath id="p.0"><path d="m0 0l462.09448 0l0 176.45145l-462.09448 0l0 -176.45145z" clip-rule="nonzero"/></clipPath><g clip-path="url(#p.0)"><path fill="#000000" fill-opacity="0.0" d="m0 0l462.09448 0l0 176.45145l-462.09448 0z" fill-rule="evenodd"/><path fill="#cfe2f3" d="m15.998688 23.6222l0 0c0 -4.2096252 3.4125748 -7.6222 7.6222 -7.6222l55.747726 0c2.0215302 0 3.960266 0.803051 5.3897095 2.2324905c1.4294357 1.4294395 2.2324905 3.3681755 2.2324905 5.3897095l0 30.487885c0 4.2096252 -3.4125748 7.6222 -7.6222 7.6222l-55.747726 0c-4.2096252 0 -7.6222 -3.4125748 -7.6222 -7.6222z" fill-rule="evenodd"/><path stroke="#000000" stroke-width="1.0" stroke-linejoin="round" stroke-linecap="butt" d="m15.998688 23.6222l0 0c0 -4.2096252 3.4125748 -7.6222 7.6222 -7.6222l55.747726 0c2.0215302 0 3.960266 0.803051 5.3897095 2.2324905c1.4294357 1.4294395 2.2324905 3.3681755 2.2324905 5.3897095l0 30.487885c0 4.2096252 -3.4125748 7.6222 -7.6222 7.6222l-55.747726 0c-4.2096252 0 -7.6222 -3.4125748 -7.6222 -7.6222z" fill-rule="evenodd"/><path fill="#000000" d="m45.49739 44.726143l2.546875 -4.0625l-2.34375 -3.71875l1.421875 0l1.03125 1.71875q0.1875 0.3125 0.375 0.640625q0.1875 0.328125 0.390625 0.65625l0.078125 0q0.171875 -0.328125 0.34375 -0.65625q0.171875 -0.328125 0.359375 -0.640625l0.9375 -1.71875l1.375 0l-2.34375 3.859375l2.515625 3.921875l-1.421875 0l-1.125 -1.8125q-0.21875 -0.34375 -0.421875 -0.6875q-0.203125 -0.359375 -0.4375 -0.703125l-0.0625 0q-0.203125 0.34375 -0.40625 0.6875q-0.1875 0.34375 -0.375 0.703125l-1.0625 1.8125l-1.375 0z" fill-rule="nonzero"/><path fill="#000000" d="m55.070908 50.851143q-1.03125 0 -1.609375 -0.90625q-0.578125 -0.921875 -0.578125 -2.640625q0 -1.71875 0.578125 -2.609375q0.578125 -0.890625 1.609375 -0.890625q1.015625 0 1.59375 0.890625q0.578125 0.890625 0.578125 2.609375q0 1.71875 -0.578125 2.640625q-0.578125 0.90625 -1.59375 0.90625zm0 -0.703125q0.296875 0 0.53125 -0.15625q0.25 -0.171875 0.421875 -0.515625q0.171875 -0.34375 0.265625 -0.875q0.09375 -0.546875 0.09375 -1.296875q0 -0.75 -0.09375 -1.28125q-0.09375 -0.53125 -0.265625 -0.859375q-0.171875 -0.34375 -0.421875 -0.5q-0.234375 -0.15625 -0.53125 -0.15625q-0.296875 0 -0.546875 0.15625q-0.25 0.15625 -0.421875 0.5q-0.171875 0.328125 -0.265625 0.859375q-0.09375 0.53125 -0.09375 1.28125q0 1.5 0.359375 2.171875q0.375 0.671875 0.96875 0.671875z" fill-rule="nonzero"/><path fill="#cfe2f3" d="m135.42389 23.6222l0 0c0 -4.2096252 3.4125671 -7.6222 7.6221924 -7.6222l55.747726 0c2.0215302 0 3.960266 0.803051 5.3897095 2.2324905c1.4294434 1.4294395 2.2324982 3.3681755 2.2324982 5.3897095l0 30.487885c0 4.2096252 -3.4125824 7.6222 -7.6222076 7.6222l-55.747726 0c-4.2096252 0 -7.6221924 -3.4125748 -7.6221924 -7.6222z" fill-rule="evenodd"/><path stroke="#000000" stroke-width="1.0" stroke-linejoin="round" stroke-linecap="butt" d="m135.42389 23.6222l0 0c0 -4.2096252 3.4125671 -7.6222 7.6221924 -7.6222l55.747726 0c2.0215302 0 3.960266 0.803051 5.3897095 2.2324905c1.4294434 1.4294395 2.2324982 3.3681755 2.2324982 5.3897095l0 30.487885c0 4.2096252 -3.4125824 7.6222 -7.6222076 7.6222l-55.747726 0c-4.2096252 0 -7.6221924 -3.4125748 -7.6221924 -7.6222z" fill-rule="evenodd"/><path fill="#000000" d="m164.92259 44.726143l2.546875 -4.0625l-2.34375 -3.71875l1.421875 0l1.03125 1.71875q0.1875 0.3125 0.375 0.640625q0.1875 0.328125 0.390625 0.65625l0.078125 0q0.171875 -0.328125 0.34375 -0.65625q0.171875 -0.328125 0.359375 -0.640625l0.9375 -1.71875l1.375 0l-2.34375 3.859375l2.515625 3.921875l-1.421875 0l-1.125 -1.8125q-0.21875 -0.34375 -0.421875 -0.6875q-0.203125 -0.359375 -0.4375 -0.703125l-0.0625 0q-0.203125 0.34375 -0.40625 0.6875q-0.1875 0.34375 -0.375 0.703125l-1.0625 1.8125l-1.375 0z" fill-rule="nonzero"/><path fill="#000000" d="m172.68361 50.726143l0 -0.71875l1.546875 0l0 -5.015625l-1.234375 0l0 -0.5625q0.46875 -0.09375 0.8125 -0.203125q0.359375 -0.125 0.625 -0.296875l0.671875 0l0 6.078125l1.40625 0l0 0.71875l-3.828125 0z" fill-rule="nonzero"/><path fill="#d9ead3" d="m135.42389 136.1916l0 0c0 -12.628624 10.237518 -22.866142 22.866135 -22.866142l25.259842 0l0 0c6.0644836 0 11.880569 2.4091034 16.168808 6.6973343c4.2882385 4.288231 6.697342 10.104324 6.697342 16.168808l0 0l0 0c0 12.628616 -10.237518 22.866135 -22.86615 22.866135l-25.259842 0c-12.628616 0 -22.866135 -10.237518 -22.866135 -22.866135z" fill-rule="evenodd"/><path stroke="#000000" stroke-width="1.0" stroke-linejoin="round" stroke-linecap="butt" d="m135.42389 136.1916l0 0c0 -12.628624 10.237518 -22.866142 22.866135 -22.866142l25.259842 0l0 0c6.0644836 0 11.880569 2.4091034 16.168808 6.6973343c4.2882385 4.288231 6.697342 10.104324 6.697342 16.168808l0 0l0 0c0 12.628616 -10.237518 22.866135 -22.86615 22.866135l-25.259842 0c-12.628616 0 -22.866135 -10.237518 -22.866135 -22.866135z" fill-rule="evenodd"/><path fill="#000000" d="m165.37184 142.0516l0 -0.703125l4.09375 -6.0l-3.65625 0l0 -1.078125l5.3125 0l0 0.703125l-4.09375 6.0l4.234375 0l0 1.078125l-5.890625 0z" fill-rule="nonzero"/><path fill="#000000" d="m172.51561 148.0516l0 -0.71875l1.546875 0l0 -5.015625l-1.234375 0l0 -0.5625q0.46875 -0.09375 0.8125 -0.203125q0.359375 -0.125 0.625 -0.296875l0.671875 0l0 6.078125l1.40625 0l0 0.71875l-3.828125 0z" fill-rule="nonzero"/><path fill="#cfe2f3" d="m254.84908 23.6222l0 0c0 -4.2096252 3.4125824 -7.6222 7.6222076 -7.6222l55.74771 0c2.0215454 0 3.9602966 0.803051 5.3897095 2.2324905c1.4294434 1.4294395 2.2325134 3.3681755 2.2325134 5.3897095l0 30.487885c0 4.2096252 -3.4125977 7.6222 -7.622223 7.6222l-55.74771 0c-4.2096252 0 -7.6222076 -3.4125748 -7.6222076 -7.6222z" fill-rule="evenodd"/><path stroke="#000000" stroke-width="1.0" stroke-linejoin="round" stroke-linecap="butt" d="m254.84908 23.6222l0 0c0 -4.2096252 3.4125824 -7.6222 7.6222076 -7.6222l55.74771 0c2.0215454 0 3.9602966 0.803051 5.3897095 2.2324905c1.4294434 1.4294395 2.2325134 3.3681755 2.2325134 5.3897095l0 30.487885c0 4.2096252 -3.4125977 7.6222 -7.622223 7.6222l-55.74771 0c-4.2096252 0 -7.6222076 -3.4125748 -7.6222076 -7.6222z" fill-rule="evenodd"/><path fill="#000000" d="m284.34778 44.726143l2.546875 -4.0625l-2.34375 -3.71875l1.421875 0l1.03125 1.71875q0.1875 0.3125 0.375 0.640625q0.1875 0.328125 0.390625 0.65625l0.078125 0q0.171875 -0.328125 0.34375 -0.65625q0.171875 -0.328125 0.359375 -0.640625l0.9375 -1.71875l1.375 0l-2.34375 3.859375l2.515625 3.921875l-1.421875 0l-1.125 -1.8125q-0.21875 -0.34375 -0.421875 -0.6875q-0.203125 -0.359375 -0.4375 -0.703125l-0.0625 0q-0.203125 0.34375 -0.40625 0.6875q-0.1875 0.34375 -0.375 0.703125l-1.0625 1.8125l-1.375 0z" fill-rule="nonzero"/><path fill="#000000" d="m291.68692 50.726143l0 -0.515625q0.765625 -0.78125 1.359375 -1.390625q0.609375 -0.625 1.015625 -1.140625q0.40625 -0.53125 0.609375 -0.96875q0.21875 -0.453125 0.21875 -0.859375q0 -0.59375 -0.328125 -0.96875q-0.3125 -0.375 -0.96875 -0.375q-0.421875 0 -0.78125 0.25q-0.359375 0.234375 -0.65625 0.578125l-0.5 -0.5q0.421875 -0.46875 0.890625 -0.75q0.484375 -0.28125 1.15625 -0.28125q0.953125 0 1.484375 0.546875q0.546875 0.546875 0.546875 1.453125q0 0.484375 -0.203125 0.96875q-0.203125 0.484375 -0.578125 1.0q-0.359375 0.515625 -0.875 1.078125q-0.5 0.546875 -1.109375 1.1875q0.28125 -0.03125 0.578125 -0.046875q0.296875 -0.015625 0.5625 -0.015625l1.96875 0l0 0.75l-4.390625 0z" fill-rule="nonzero"/><path fill="#d9ead3" d="m254.84908 136.1916l0 0c0 -12.628624 10.237534 -22.866142 22.866135 -22.866142l25.259857 0l0 0c6.0644836 0 11.880554 2.4091034 16.168793 6.6973343c4.2882385 4.288231 6.697357 10.104324 6.697357 16.168808l0 0l0 0c0 12.628616 -10.237518 22.866135 -22.86615 22.866135l-25.259857 0c-12.628601 0 -22.866135 -10.237518 -22.866135 -22.866135z" fill-rule="evenodd"/><path stroke="#000000" stroke-width="1.0" stroke-linejoin="round" stroke-linecap="butt" d="m254.84908 136.1916l0 0c0 -12.628624 10.237534 -22.866142 22.866135 -22.866142l25.259857 0l0 0c6.0644836 0 11.880554 2.4091034 16.168793 6.6973343c4.2882385 4.288231 6.697357 10.104324 6.697357 16.168808l0 0l0 0c0 12.628616 -10.237518 22.866135 -22.86615 22.866135l-25.259857 0c-12.628601 0 -22.866135 -10.237518 -22.866135 -22.866135z" fill-rule="evenodd"/><path fill="#000000" d="m284.79703 142.0516l0 -0.703125l4.09375 -6.0l-3.65625 0l0 -1.078125l5.3125 0l0 0.703125l-4.09375 6.0l4.234375 0l0 1.078125l-5.890625 0z" fill-rule="nonzero"/><path fill="#000000" d="m291.51892 148.0516l0 -0.515625q0.765625 -0.78125 1.359375 -1.390625q0.609375 -0.625 1.015625 -1.140625q0.40625 -0.53125 0.609375 -0.96875q0.21875 -0.453125 0.21875 -0.859375q0 -0.59375 -0.328125 -0.96875q-0.3125 -0.375 -0.96875 -0.375q-0.421875 0 -0.78125 0.25q-0.359375 0.234375 -0.65625 0.578125l-0.5 -0.5q0.421875 -0.46875 0.890625 -0.75q0.484375 -0.28125 1.15625 -0.28125q0.953125 0 1.484375 0.546875q0.546875 0.546875 0.546875 1.453125q0 0.484375 -0.203125 0.96875q-0.203125 0.484375 -0.578125 1.0q-0.359375 0.515625 -0.875 1.078125q-0.5 0.546875 -1.109375 1.1875q0.28125 -0.03125 0.578125 -0.046875q0.296875 -0.015625 0.5625 -0.015625l1.96875 0l0 0.75l-4.390625 0z" fill-rule="nonzero"/><path fill="#cfe2f3" d="m374.2743 23.6222l0 0c0 -4.2096252 3.4125671 -7.6222 7.6221924 -7.6222l55.74771 0c2.0215454 0 3.960266 0.803051 5.3897095 2.2324905c1.4294434 1.4294395 2.2325134 3.3681755 2.2325134 5.3897095l0 30.487885c0 4.2096252 -3.4125977 7.6222 -7.622223 7.6222l-55.74771 0c-4.2096252 0 -7.6221924 -3.4125748 -7.6221924 -7.6222z" fill-rule="evenodd"/><path stroke="#000000" stroke-width="1.0" stroke-linejoin="round" stroke-linecap="butt" d="m374.2743 23.6222l0 0c0 -4.2096252 3.4125671 -7.6222 7.6221924 -7.6222l55.74771 0c2.0215454 0 3.960266 0.803051 5.3897095 2.2324905c1.4294434 1.4294395 2.2325134 3.3681755 2.2325134 5.3897095l0 30.487885c0 4.2096252 -3.4125977 7.6222 -7.622223 7.6222l-55.74771 0c-4.2096252 0 -7.6221924 -3.4125748 -7.6221924 -7.6222z" fill-rule="evenodd"/><path fill="#000000" d="m403.77298 44.726143l2.546875 -4.0625l-2.34375 -3.71875l1.421875 0l1.03125 1.71875q0.1875 0.3125 0.375 0.640625q0.1875 0.328125 0.390625 0.65625l0.078125 0q0.171875 -0.328125 0.34375 -0.65625q0.171875 -0.328125 0.359375 -0.640625l0.9375 -1.71875l1.375 0l-2.34375 3.859375l2.515625 3.921875l-1.421875 0l-1.125 -1.8125q-0.21875 -0.34375 -0.421875 -0.6875q-0.203125 -0.359375 -0.4375 -0.703125l-0.0625 0q-0.203125 0.34375 -0.40625 0.6875q-0.1875 0.34375 -0.375 0.703125l-1.0625 1.8125l-1.375 0z" fill-rule="nonzero"/><path fill="#000000" d="m413.20587 50.851143q-0.40625 0 -0.75 -0.078125q-0.328125 -0.078125 -0.609375 -0.203125q-0.265625 -0.140625 -0.484375 -0.3125q-0.21875 -0.171875 -0.390625 -0.359375l0.4375 -0.578125q0.3125 0.3125 0.71875 0.5625q0.421875 0.25 1.03125 0.25q0.609375 0 1.0 -0.328125q0.40625 -0.34375 0.40625 -0.921875q0 -0.296875 -0.125 -0.546875q-0.109375 -0.25 -0.359375 -0.421875q-0.25 -0.1875 -0.671875 -0.28125q-0.421875 -0.109375 -1.03125 -0.109375l0 -0.671875q0.546875 0 0.90625 -0.09375q0.375 -0.09375 0.609375 -0.265625q0.234375 -0.171875 0.328125 -0.40625q0.09375 -0.234375 0.09375 -0.5q0 -0.5 -0.3125 -0.78125q-0.3125 -0.296875 -0.859375 -0.296875q-0.421875 0 -0.78125 0.203125q-0.359375 0.1875 -0.671875 0.5l-0.46875 -0.5625q0.390625 -0.375 0.859375 -0.609375q0.484375 -0.234375 1.09375 -0.234375q0.453125 0 0.8125 0.125q0.375 0.109375 0.640625 0.328125q0.28125 0.21875 0.421875 0.546875q0.15625 0.3125 0.15625 0.71875q0 0.625 -0.34375 1.015625q-0.328125 0.390625 -0.890625 0.609375l0 0.046875q0.3125 0.0625 0.578125 0.21875q0.265625 0.140625 0.46875 0.359375q0.203125 0.21875 0.3125 0.515625q0.109375 0.28125 0.109375 0.625q0 0.453125 -0.171875 0.8125q-0.171875 0.359375 -0.484375 0.609375q-0.296875 0.25 -0.703125 0.390625q-0.40625 0.125 -0.875 0.125z" fill-rule="nonzero"/><path fill="#d9ead3" d="m374.2743 136.1916l0 0c0 -12.628624 10.237518 -22.866142 22.86612 -22.866142l25.259857 0l0 0c6.0644836 0 11.880554 2.4091034 16.168793 6.6973343c4.2882385 4.288231 6.697357 10.104324 6.697357 16.168808l0 0l0 0c0 12.628616 -10.237549 22.866135 -22.86615 22.866135l-25.259857 0c-12.628601 0 -22.86612 -10.237518 -22.86612 -22.866135z" fill-rule="evenodd"/><path stroke="#000000" stroke-width="1.0" stroke-linejoin="round" stroke-linecap="butt" d="m374.2743 136.1916l0 0c0 -12.628624 10.237518 -22.866142 22.86612 -22.866142l25.259857 0l0 0c6.0644836 0 11.880554 2.4091034 16.168793 6.6973343c4.2882385 4.288231 6.697357 10.104324 6.697357 16.168808l0 0l0 0c0 12.628616 -10.237549 22.866135 -22.86615 22.866135l-25.259857 0c-12.628601 0 -22.86612 -10.237518 -22.86612 -22.866135z" fill-rule="evenodd"/><path fill="#000000" d="m404.22223 142.0516l0 -0.703125l4.09375 -6.0l-3.65625 0l0 -1.078125l5.3125 0l0 0.703125l-4.09375 6.0l4.234375 0l0 1.078125l-5.890625 0z" fill-rule="nonzero"/><path fill="#000000" d="m413.03787 148.1766q-0.40625 0 -0.75 -0.078125q-0.328125 -0.078125 -0.609375 -0.203125q-0.265625 -0.140625 -0.484375 -0.3125q-0.21875 -0.171875 -0.390625 -0.359375l0.4375 -0.578125q0.3125 0.3125 0.71875 0.5625q0.421875 0.25 1.03125 0.25q0.609375 0 1.0 -0.328125q0.40625 -0.34375 0.40625 -0.921875q0 -0.296875 -0.125 -0.546875q-0.109375 -0.25 -0.359375 -0.421875q-0.25 -0.1875 -0.671875 -0.28125q-0.421875 -0.109375 -1.03125 -0.109375l0 -0.671875q0.546875 0 0.90625 -0.09375q0.375 -0.09375 0.609375 -0.265625q0.234375 -0.171875 0.328125 -0.40625q0.09375 -0.234375 0.09375 -0.5q0 -0.5 -0.3125 -0.78125q-0.3125 -0.296875 -0.859375 -0.296875q-0.421875 0 -0.78125 0.203125q-0.359375 0.1875 -0.671875 0.5l-0.46875 -0.5625q0.390625 -0.375 0.859375 -0.609375q0.484375 -0.234375 1.09375 -0.234375q0.453125 0 0.8125 0.125q0.375 0.109375 0.640625 0.328125q0.28125 0.21875 0.421875 0.546875q0.15625 0.3125 0.15625 0.71875q0 0.625 -0.34375 1.015625q-0.328125 0.390625 -0.890625 0.609375l0 0.046875q0.3125 0.0625 0.578125 0.21875q0.265625 0.140625 0.46875 0.359375q0.203125 0.21875 0.3125 0.515625q0.109375 0.28125 0.109375 0.625q0 0.453125 -0.171875 0.8125q-0.171875 0.359375 -0.484375 0.609375q-0.296875 0.25 -0.703125 0.390625q-0.40625 0.125 -0.875 0.125z" fill-rule="nonzero"/><path fill="#000000" fill-opacity="0.0" d="m86.990814 38.866142l48.44095 0" fill-rule="evenodd"/><path stroke="#595959" stroke-width="1.0" stroke-linejoin="round" stroke-linecap="butt" d="m86.990814 38.866142l42.44095 0" fill-rule="evenodd"/><path fill="#595959" stroke="#595959" stroke-width="1.0" stroke-linecap="butt" d="m129.43176 40.517876l4.538086 -1.6517334l-4.538086 -1.6517334z" fill-rule="evenodd"/><path fill="#000000" fill-opacity="0.0" d="m170.91995 61.732285l0 51.590553" fill-rule="evenodd"/><path stroke="#595959" stroke-width="1.0" stroke-linejoin="round" stroke-linecap="butt" d="m170.91995 61.732285l0 45.590553" fill-rule="evenodd"/><path fill="#595959" stroke="#595959" stroke-width="1.0" stroke-linecap="butt" d="m169.26822 107.32284l1.6517334 4.5380936l1.6517334 -4.5380936z" fill-rule="evenodd"/><path fill="#000000" fill-opacity="0.0" d="m206.41602 38.866142l48.440933 0" fill-rule="evenodd"/><path stroke="#595959" stroke-width="1.0" stroke-linejoin="round" stroke-linecap="butt" d="m206.41602 38.866142l42.440933 0" fill-rule="evenodd"/><path fill="#595959" stroke="#595959" stroke-width="1.0" stroke-linecap="butt" d="m248.85695 40.517876l4.538101 -1.6517334l-4.538101 -1.6517334z" fill-rule="evenodd"/><path fill="#000000" fill-opacity="0.0" d="m290.34515 61.732285l0 51.590553" fill-rule="evenodd"/><path stroke="#595959" stroke-width="1.0" stroke-linejoin="round" stroke-linecap="butt" d="m290.34515 61.732285l0 45.590553" fill-rule="evenodd"/><path fill="#595959" stroke="#595959" stroke-width="1.0" stroke-linecap="butt" d="m288.69342 107.32284l1.6517334 4.5380936l1.6517334 -4.5380936z" fill-rule="evenodd"/><path fill="#000000" fill-opacity="0.0" d="m409.77036 61.732285l0 51.590553" fill-rule="evenodd"/><path stroke="#595959" stroke-width="1.0" stroke-linejoin="round" stroke-linecap="butt" d="m409.77036 61.732285l0 45.590553" fill-rule="evenodd"/><path fill="#595959" stroke="#595959" stroke-width="1.0" stroke-linecap="butt" d="m408.11862 107.32284l1.6517334 4.5380936l1.6517334 -4.5380936z" fill-rule="evenodd"/><path fill="#000000" fill-opacity="0.0" d="m325.84122 38.866142l48.44095 0" fill-rule="evenodd"/><path stroke="#595959" stroke-width="1.0" stroke-linejoin="round" stroke-linecap="butt" d="m325.84122 38.866142l42.44095 0" fill-rule="evenodd"/><path fill="#595959" stroke="#595959" stroke-width="1.0" stroke-linecap="butt" d="m368.28217 40.517876l4.538086 -1.6517334l-4.538086 -1.6517334z" fill-rule="evenodd"/></g></svg>