<?xml version="1.0" encoding="utf-8" standalone="no"?>
<!DOCTYPE svg PUBLIC "-//W3C//DTD SVG 1.1//EN"
  "http://www.w3.org/Graphics/SVG/1.1/DTD/svg11.dtd">
<!-- Created with matplotlib (https://matplotlib.org/) -->
<svg height="345.6pt" version="1.1" viewBox="0 0 460.8 345.6" width="460.8pt" xmlns="http://www.w3.org/2000/svg" xmlns:xlink="http://www.w3.org/1999/xlink">
 <defs>
  <style type="text/css">
*{stroke-linecap:butt;stroke-linejoin:round;}
  </style>
 </defs>
 <g id="figure_1">
  <g id="patch_1">
   <path d="M 0 345.6 
L 460.8 345.6 
L 460.8 0 
L 0 0 
z
" style="fill:#ffffff;"/>
  </g>
  <g id="axes_1">
   <g id="patch_2">
    <path d="M 103.104 307.584 
L 369.216 307.584 
L 369.216 41.472 
L 103.104 41.472 
z
" style="fill:#ffffff;"/>
   </g>
   <g id="PathCollection_1">
    <defs>
     <path d="M 0 3 
C 0.795609 3 1.55874 2.683901 2.12132 2.12132 
C 2.683901 1.55874 3 0.795609 3 0 
C 3 -0.795609 2.683901 -1.55874 2.12132 -2.12132 
C 1.55874 -2.683901 0.795609 -3 0 -3 
C -0.795609 -3 -1.55874 -2.683901 -2.12132 -2.12132 
C -2.683901 -1.55874 -3 -0.795609 -3 0 
C -3 0.795609 -2.683901 1.55874 -2.12132 2.12132 
C -1.55874 2.683901 -0.795609 3 0 3 
z
" id="m8ee61d0d14" style="stroke:#1f77b4;"/>
    </defs>
    <g clip-path="url(#p69494571f7)">
     <use style="fill:#1f77b4;stroke:#1f77b4;" x="242.130557" xlink:href="#m8ee61d0d14" y="274.577228"/>
     <use style="fill:#1f77b4;stroke:#1f77b4;" x="298.871381" xlink:href="#m8ee61d0d14" y="274.97378"/>
     <use style="fill:#1f77b4;stroke:#1f77b4;" x="217.079152" xlink:href="#m8ee61d0d14" y="279.276471"/>
     <use style="fill:#1f77b4;stroke:#1f77b4;" x="253.198398" xlink:href="#m8ee61d0d14" y="281.372954"/>
     <use style="fill:#1f77b4;stroke:#1f77b4;" x="301.933345" xlink:href="#m8ee61d0d14" y="265.804561"/>
     <use style="fill:#1f77b4;stroke:#1f77b4;" x="293.676888" xlink:href="#m8ee61d0d14" y="271.687563"/>
     <use style="fill:#1f77b4;stroke:#1f77b4;" x="225.96814" xlink:href="#m8ee61d0d14" y="273.370253"/>
     <use style="fill:#1f77b4;stroke:#1f77b4;" x="280.926709" xlink:href="#m8ee61d0d14" y="279.720598"/>
     <use style="fill:#1f77b4;stroke:#1f77b4;" x="213.88943" xlink:href="#m8ee61d0d14" y="284.655595"/>
     <use style="fill:#1f77b4;stroke:#1f77b4;" x="181.565563" xlink:href="#m8ee61d0d14" y="299.348891"/>
     <use style="fill:#1f77b4;stroke:#1f77b4;" x="279.157964" xlink:href="#m8ee61d0d14" y="293.034772"/>
     <use style="fill:#1f77b4;stroke:#1f77b4;" x="318.145378" xlink:href="#m8ee61d0d14" y="287.630327"/>
     <use style="fill:#1f77b4;stroke:#1f77b4;" x="262.999409" xlink:href="#m8ee61d0d14" y="268.805483"/>
     <use style="fill:#1f77b4;stroke:#1f77b4;" x="207.602128" xlink:href="#m8ee61d0d14" y="289.185468"/>
     <use style="fill:#1f77b4;stroke:#1f77b4;" x="240.610453" xlink:href="#m8ee61d0d14" y="290.298128"/>
     <use style="fill:#1f77b4;stroke:#1f77b4;" x="318.712187" xlink:href="#m8ee61d0d14" y="261.113656"/>
     <use style="fill:#1f77b4;stroke:#1f77b4;" x="256.004856" xlink:href="#m8ee61d0d14" y="300.545806"/>
     <use style="fill:#1f77b4;stroke:#1f77b4;" x="289.194444" xlink:href="#m8ee61d0d14" y="279.546812"/>
     <use style="fill:#1f77b4;stroke:#1f77b4;" x="276.455571" xlink:href="#m8ee61d0d14" y="254.388354"/>
     <use style="fill:#1f77b4;stroke:#1f77b4;" x="207.599973" xlink:href="#m8ee61d0d14" y="260.87996"/>
     <use style="fill:#1f77b4;stroke:#1f77b4;" x="284.305879" xlink:href="#m8ee61d0d14" y="283.418148"/>
     <use style="fill:#1f77b4;stroke:#1f77b4;" x="235.612933" xlink:href="#m8ee61d0d14" y="269.678604"/>
     <use style="fill:#1f77b4;stroke:#1f77b4;" x="262.917801" xlink:href="#m8ee61d0d14" y="270.395182"/>
     <use style="fill:#1f77b4;stroke:#1f77b4;" x="246.711001" xlink:href="#m8ee61d0d14" y="265.492758"/>
     <use style="fill:#1f77b4;stroke:#1f77b4;" x="224.777787" xlink:href="#m8ee61d0d14" y="271.250485"/>
     <use style="fill:#1f77b4;stroke:#1f77b4;" x="317.729878" xlink:href="#m8ee61d0d14" y="273.679631"/>
     <use style="fill:#1f77b4;stroke:#1f77b4;" x="256.714107" xlink:href="#m8ee61d0d14" y="256.977412"/>
     <use style="fill:#1f77b4;stroke:#1f77b4;" x="305.393282" xlink:href="#m8ee61d0d14" y="265.804851"/>
     <use style="fill:#1f77b4;stroke:#1f77b4;" x="252.326638" xlink:href="#m8ee61d0d14" y="277.644646"/>
     <use style="fill:#1f77b4;stroke:#1f77b4;" x="300.159048" xlink:href="#m8ee61d0d14" y="297.847159"/>
     <use style="fill:#1f77b4;stroke:#1f77b4;" x="203.309358" xlink:href="#m8ee61d0d14" y="273.75167"/>
     <use style="fill:#1f77b4;stroke:#1f77b4;" x="246.808673" xlink:href="#m8ee61d0d14" y="265.272565"/>
     <use style="fill:#1f77b4;stroke:#1f77b4;" x="238.493052" xlink:href="#m8ee61d0d14" y="266.954107"/>
     <use style="fill:#1f77b4;stroke:#1f77b4;" x="224.874615" xlink:href="#m8ee61d0d14" y="274.583928"/>
     <use style="fill:#1f77b4;stroke:#1f77b4;" x="180.360602" xlink:href="#m8ee61d0d14" y="271.656559"/>
     <use style="fill:#1f77b4;stroke:#1f77b4;" x="238.75714" xlink:href="#m8ee61d0d14" y="278.906365"/>
     <use style="fill:#1f77b4;stroke:#1f77b4;" x="322.444231" xlink:href="#m8ee61d0d14" y="266.189575"/>
     <use style="fill:#1f77b4;stroke:#1f77b4;" x="177.147122" xlink:href="#m8ee61d0d14" y="283.766026"/>
     <use style="fill:#1f77b4;stroke:#1f77b4;" x="320.922544" xlink:href="#m8ee61d0d14" y="272.643554"/>
     <use style="fill:#1f77b4;stroke:#1f77b4;" x="277.985338" xlink:href="#m8ee61d0d14" y="277.08673"/>
     <use style="fill:#1f77b4;stroke:#1f77b4;" x="213.87897" xlink:href="#m8ee61d0d14" y="259.525863"/>
     <use style="fill:#1f77b4;stroke:#1f77b4;" x="229.502772" xlink:href="#m8ee61d0d14" y="240.423459"/>
     <use style="fill:#1f77b4;stroke:#1f77b4;" x="229.394547" xlink:href="#m8ee61d0d14" y="291.78768"/>
     <use style="fill:#1f77b4;stroke:#1f77b4;" x="242.541735" xlink:href="#m8ee61d0d14" y="287.193749"/>
     <use style="fill:#1f77b4;stroke:#1f77b4;" x="239.221557" xlink:href="#m8ee61d0d14" y="266.40753"/>
     <use style="fill:#1f77b4;stroke:#1f77b4;" x="224.774577" xlink:href="#m8ee61d0d14" y="263.009068"/>
     <use style="fill:#1f77b4;stroke:#1f77b4;" x="288.997682" xlink:href="#m8ee61d0d14" y="255.404351"/>
     <use style="fill:#1f77b4;stroke:#1f77b4;" x="250.416275" xlink:href="#m8ee61d0d14" y="282.650622"/>
     <use style="fill:#1f77b4;stroke:#1f77b4;" x="282.984676" xlink:href="#m8ee61d0d14" y="263.851516"/>
     <use style="fill:#1f77b4;stroke:#1f77b4;" x="326.58338" xlink:href="#m8ee61d0d14" y="266.984548"/>
     <use style="fill:#1f77b4;stroke:#1f77b4;" x="233.607685" xlink:href="#m8ee61d0d14" y="280.097647"/>
     <use style="fill:#1f77b4;stroke:#1f77b4;" x="301.556512" xlink:href="#m8ee61d0d14" y="266.178261"/>
     <use style="fill:#1f77b4;stroke:#1f77b4;" x="229.207903" xlink:href="#m8ee61d0d14" y="266.783711"/>
     <use style="fill:#1f77b4;stroke:#1f77b4;" x="234.739304" xlink:href="#m8ee61d0d14" y="278.038887"/>
     <use style="fill:#1f77b4;stroke:#1f77b4;" x="294.187058" xlink:href="#m8ee61d0d14" y="262.66447"/>
     <use style="fill:#1f77b4;stroke:#1f77b4;" x="304.36607" xlink:href="#m8ee61d0d14" y="273.826931"/>
     <use style="fill:#1f77b4;stroke:#1f77b4;" x="229.701009" xlink:href="#m8ee61d0d14" y="264.220358"/>
     <use style="fill:#1f77b4;stroke:#1f77b4;" x="280.679172" xlink:href="#m8ee61d0d14" y="249.428301"/>
     <use style="fill:#1f77b4;stroke:#1f77b4;" x="266.856983" xlink:href="#m8ee61d0d14" y="294.361964"/>
     <use style="fill:#1f77b4;stroke:#1f77b4;" x="299.9096" xlink:href="#m8ee61d0d14" y="267.79978"/>
     <use style="fill:#1f77b4;stroke:#1f77b4;" x="216.545602" xlink:href="#m8ee61d0d14" y="251.89167"/>
     <use style="fill:#1f77b4;stroke:#1f77b4;" x="291.097655" xlink:href="#m8ee61d0d14" y="291.121032"/>
     <use style="fill:#1f77b4;stroke:#1f77b4;" x="288.627179" xlink:href="#m8ee61d0d14" y="286.103286"/>
     <use style="fill:#1f77b4;stroke:#1f77b4;" x="246.620144" xlink:href="#m8ee61d0d14" y="276.597268"/>
     <use style="fill:#1f77b4;stroke:#1f77b4;" x="290.807187" xlink:href="#m8ee61d0d14" y="258.82123"/>
     <use style="fill:#1f77b4;stroke:#1f77b4;" x="246.071926" xlink:href="#m8ee61d0d14" y="285.289999"/>
     <use style="fill:#1f77b4;stroke:#1f77b4;" x="356.348214" xlink:href="#m8ee61d0d14" y="269.7035"/>
     <use style="fill:#1f77b4;stroke:#1f77b4;" x="236.927989" xlink:href="#m8ee61d0d14" y="242.336593"/>
     <use style="fill:#1f77b4;stroke:#1f77b4;" x="276.583513" xlink:href="#m8ee61d0d14" y="289.740001"/>
     <use style="fill:#1f77b4;stroke:#1f77b4;" x="284.602874" xlink:href="#m8ee61d0d14" y="276.110189"/>
     <use style="fill:#1f77b4;stroke:#1f77b4;" x="281.659718" xlink:href="#m8ee61d0d14" y="271.594885"/>
     <use style="fill:#1f77b4;stroke:#1f77b4;" x="300.299091" xlink:href="#m8ee61d0d14" y="269.362756"/>
     <use style="fill:#1f77b4;stroke:#1f77b4;" x="271.672057" xlink:href="#m8ee61d0d14" y="272.357387"/>
     <use style="fill:#1f77b4;stroke:#1f77b4;" x="285.157169" xlink:href="#m8ee61d0d14" y="248.342218"/>
     <use style="fill:#1f77b4;stroke:#1f77b4;" x="225.002565" xlink:href="#m8ee61d0d14" y="277.614285"/>
     <use style="fill:#1f77b4;stroke:#1f77b4;" x="123.580364" xlink:href="#m8ee61d0d14" y="269.825255"/>
     <use style="fill:#1f77b4;stroke:#1f77b4;" x="270.905297" xlink:href="#m8ee61d0d14" y="263.358068"/>
     <use style="fill:#1f77b4;stroke:#1f77b4;" x="274.364198" xlink:href="#m8ee61d0d14" y="278.899533"/>
     <use style="fill:#1f77b4;stroke:#1f77b4;" x="267.040712" xlink:href="#m8ee61d0d14" y="283.13615"/>
     <use style="fill:#1f77b4;stroke:#1f77b4;" x="296.248484" xlink:href="#m8ee61d0d14" y="277.701399"/>
     <use style="fill:#1f77b4;stroke:#1f77b4;" x="281.47502" xlink:href="#m8ee61d0d14" y="266.579542"/>
     <use style="fill:#1f77b4;stroke:#1f77b4;" x="206.460888" xlink:href="#m8ee61d0d14" y="274.459481"/>
     <use style="fill:#1f77b4;stroke:#1f77b4;" x="242.150274" xlink:href="#m8ee61d0d14" y="261.583947"/>
     <use style="fill:#1f77b4;stroke:#1f77b4;" x="324.199143" xlink:href="#m8ee61d0d14" y="242.636664"/>
     <use style="fill:#1f77b4;stroke:#1f77b4;" x="201.868541" xlink:href="#m8ee61d0d14" y="268.555918"/>
     <use style="fill:#1f77b4;stroke:#1f77b4;" x="274.265233" xlink:href="#m8ee61d0d14" y="279.303562"/>
     <use style="fill:#1f77b4;stroke:#1f77b4;" x="270.202252" xlink:href="#m8ee61d0d14" y="280.610247"/>
     <use style="fill:#1f77b4;stroke:#1f77b4;" x="252.799465" xlink:href="#m8ee61d0d14" y="272.259402"/>
     <use style="fill:#1f77b4;stroke:#1f77b4;" x="303.358405" xlink:href="#m8ee61d0d14" y="264.11912"/>
     <use style="fill:#1f77b4;stroke:#1f77b4;" x="216.35563" xlink:href="#m8ee61d0d14" y="275.899127"/>
     <use style="fill:#1f77b4;stroke:#1f77b4;" x="231.727467" xlink:href="#m8ee61d0d14" y="296.907792"/>
     <use style="fill:#1f77b4;stroke:#1f77b4;" x="245.34698" xlink:href="#m8ee61d0d14" y="280.801735"/>
     <use style="fill:#1f77b4;stroke:#1f77b4;" x="293.938202" xlink:href="#m8ee61d0d14" y="253.110972"/>
     <use style="fill:#1f77b4;stroke:#1f77b4;" x="294.456192" xlink:href="#m8ee61d0d14" y="276.689548"/>
     <use style="fill:#1f77b4;stroke:#1f77b4;" x="176.9288" xlink:href="#m8ee61d0d14" y="258.491493"/>
     <use style="fill:#1f77b4;stroke:#1f77b4;" x="185.984467" xlink:href="#m8ee61d0d14" y="260.784307"/>
     <use style="fill:#1f77b4;stroke:#1f77b4;" x="263.620344" xlink:href="#m8ee61d0d14" y="288.33269"/>
     <use style="fill:#1f77b4;stroke:#1f77b4;" x="220.892562" xlink:href="#m8ee61d0d14" y="276.889475"/>
     <use style="fill:#1f77b4;stroke:#1f77b4;" x="217.676448" xlink:href="#m8ee61d0d14" y="278.040396"/>
     <use style="fill:#1f77b4;stroke:#1f77b4;" x="263.015394" xlink:href="#m8ee61d0d14" y="293.426599"/>
    </g>
   </g>
   <g id="PathCollection_2">
    <defs>
     <path d="M 0 3 
C 0.795609 3 1.55874 2.683901 2.12132 2.12132 
C 2.683901 1.55874 3 0.795609 3 0 
C 3 -0.795609 2.683901 -1.55874 2.12132 -2.12132 
C 1.55874 -2.683901 0.795609 -3 0 -3 
C -0.795609 -3 -1.55874 -2.683901 -2.12132 -2.12132 
C -2.683901 -1.55874 -3 -0.795609 -3 0 
C -3 0.795609 -2.683901 1.55874 -2.12132 2.12132 
C -1.55874 2.683901 -0.795609 3 0 3 
z
" id="m6e5b447d77" style="stroke:#ff7f0e;"/>
    </defs>
    <g clip-path="url(#p69494571f7)">
     <use style="fill:#ff7f0e;stroke:#ff7f0e;" x="235.30912" xlink:href="#m6e5b447d77" y="216.241322"/>
     <use style="fill:#ff7f0e;stroke:#ff7f0e;" x="292.049944" xlink:href="#m6e5b447d77" y="216.637874"/>
     <use style="fill:#ff7f0e;stroke:#ff7f0e;" x="210.257714" xlink:href="#m6e5b447d77" y="220.940565"/>
     <use style="fill:#ff7f0e;stroke:#ff7f0e;" x="246.376961" xlink:href="#m6e5b447d77" y="223.037048"/>
     <use style="fill:#ff7f0e;stroke:#ff7f0e;" x="295.111908" xlink:href="#m6e5b447d77" y="207.468655"/>
     <use style="fill:#ff7f0e;stroke:#ff7f0e;" x="286.855451" xlink:href="#m6e5b447d77" y="213.351657"/>
     <use style="fill:#ff7f0e;stroke:#ff7f0e;" x="219.146703" xlink:href="#m6e5b447d77" y="215.034347"/>
     <use style="fill:#ff7f0e;stroke:#ff7f0e;" x="274.105272" xlink:href="#m6e5b447d77" y="221.384692"/>
     <use style="fill:#ff7f0e;stroke:#ff7f0e;" x="207.067993" xlink:href="#m6e5b447d77" y="226.319689"/>
     <use style="fill:#ff7f0e;stroke:#ff7f0e;" x="174.744125" xlink:href="#m6e5b447d77" y="241.012985"/>
     <use style="fill:#ff7f0e;stroke:#ff7f0e;" x="272.336526" xlink:href="#m6e5b447d77" y="234.698866"/>
     <use style="fill:#ff7f0e;stroke:#ff7f0e;" x="311.323941" xlink:href="#m6e5b447d77" y="229.294421"/>
     <use style="fill:#ff7f0e;stroke:#ff7f0e;" x="256.177972" xlink:href="#m6e5b447d77" y="210.469577"/>
     <use style="fill:#ff7f0e;stroke:#ff7f0e;" x="200.780691" xlink:href="#m6e5b447d77" y="230.849562"/>
     <use style="fill:#ff7f0e;stroke:#ff7f0e;" x="233.789016" xlink:href="#m6e5b447d77" y="231.962222"/>
     <use style="fill:#ff7f0e;stroke:#ff7f0e;" x="311.89075" xlink:href="#m6e5b447d77" y="202.777749"/>
     <use style="fill:#ff7f0e;stroke:#ff7f0e;" x="249.183419" xlink:href="#m6e5b447d77" y="242.2099"/>
     <use style="fill:#ff7f0e;stroke:#ff7f0e;" x="282.373007" xlink:href="#m6e5b447d77" y="221.210906"/>
     <use style="fill:#ff7f0e;stroke:#ff7f0e;" x="269.634134" xlink:href="#m6e5b447d77" y="196.052448"/>
     <use style="fill:#ff7f0e;stroke:#ff7f0e;" x="200.778535" xlink:href="#m6e5b447d77" y="202.544054"/>
     <use style="fill:#ff7f0e;stroke:#ff7f0e;" x="277.484442" xlink:href="#m6e5b447d77" y="225.082242"/>
     <use style="fill:#ff7f0e;stroke:#ff7f0e;" x="228.791496" xlink:href="#m6e5b447d77" y="211.342698"/>
     <use style="fill:#ff7f0e;stroke:#ff7f0e;" x="256.096364" xlink:href="#m6e5b447d77" y="212.059276"/>
     <use style="fill:#ff7f0e;stroke:#ff7f0e;" x="239.889564" xlink:href="#m6e5b447d77" y="207.156852"/>
     <use style="fill:#ff7f0e;stroke:#ff7f0e;" x="217.95635" xlink:href="#m6e5b447d77" y="212.914579"/>
     <use style="fill:#ff7f0e;stroke:#ff7f0e;" x="310.908441" xlink:href="#m6e5b447d77" y="215.343725"/>
     <use style="fill:#ff7f0e;stroke:#ff7f0e;" x="249.89267" xlink:href="#m6e5b447d77" y="198.641506"/>
     <use style="fill:#ff7f0e;stroke:#ff7f0e;" x="298.571845" xlink:href="#m6e5b447d77" y="207.468945"/>
     <use style="fill:#ff7f0e;stroke:#ff7f0e;" x="245.505201" xlink:href="#m6e5b447d77" y="219.30874"/>
     <use style="fill:#ff7f0e;stroke:#ff7f0e;" x="293.337611" xlink:href="#m6e5b447d77" y="239.511253"/>
     <use style="fill:#ff7f0e;stroke:#ff7f0e;" x="196.487921" xlink:href="#m6e5b447d77" y="215.415764"/>
     <use style="fill:#ff7f0e;stroke:#ff7f0e;" x="239.987236" xlink:href="#m6e5b447d77" y="206.936659"/>
     <use style="fill:#ff7f0e;stroke:#ff7f0e;" x="231.671615" xlink:href="#m6e5b447d77" y="208.618201"/>
     <use style="fill:#ff7f0e;stroke:#ff7f0e;" x="218.053178" xlink:href="#m6e5b447d77" y="216.248022"/>
     <use style="fill:#ff7f0e;stroke:#ff7f0e;" x="173.539165" xlink:href="#m6e5b447d77" y="213.320652"/>
     <use style="fill:#ff7f0e;stroke:#ff7f0e;" x="231.935703" xlink:href="#m6e5b447d77" y="220.570459"/>
     <use style="fill:#ff7f0e;stroke:#ff7f0e;" x="315.622794" xlink:href="#m6e5b447d77" y="207.853669"/>
     <use style="fill:#ff7f0e;stroke:#ff7f0e;" x="170.325685" xlink:href="#m6e5b447d77" y="225.43012"/>
     <use style="fill:#ff7f0e;stroke:#ff7f0e;" x="314.101107" xlink:href="#m6e5b447d77" y="214.307648"/>
     <use style="fill:#ff7f0e;stroke:#ff7f0e;" x="271.163901" xlink:href="#m6e5b447d77" y="218.750824"/>
     <use style="fill:#ff7f0e;stroke:#ff7f0e;" x="207.057533" xlink:href="#m6e5b447d77" y="201.189957"/>
     <use style="fill:#ff7f0e;stroke:#ff7f0e;" x="222.681335" xlink:href="#m6e5b447d77" y="182.087553"/>
     <use style="fill:#ff7f0e;stroke:#ff7f0e;" x="222.57311" xlink:href="#m6e5b447d77" y="233.451774"/>
     <use style="fill:#ff7f0e;stroke:#ff7f0e;" x="235.720298" xlink:href="#m6e5b447d77" y="228.857843"/>
     <use style="fill:#ff7f0e;stroke:#ff7f0e;" x="232.40012" xlink:href="#m6e5b447d77" y="208.071624"/>
     <use style="fill:#ff7f0e;stroke:#ff7f0e;" x="217.95314" xlink:href="#m6e5b447d77" y="204.673162"/>
     <use style="fill:#ff7f0e;stroke:#ff7f0e;" x="282.176245" xlink:href="#m6e5b447d77" y="197.068445"/>
     <use style="fill:#ff7f0e;stroke:#ff7f0e;" x="243.594838" xlink:href="#m6e5b447d77" y="224.314716"/>
     <use style="fill:#ff7f0e;stroke:#ff7f0e;" x="276.163239" xlink:href="#m6e5b447d77" y="205.51561"/>
     <use style="fill:#ff7f0e;stroke:#ff7f0e;" x="319.761943" xlink:href="#m6e5b447d77" y="208.648642"/>
     <use style="fill:#ff7f0e;stroke:#ff7f0e;" x="226.786248" xlink:href="#m6e5b447d77" y="221.761741"/>
     <use style="fill:#ff7f0e;stroke:#ff7f0e;" x="294.735075" xlink:href="#m6e5b447d77" y="207.842355"/>
     <use style="fill:#ff7f0e;stroke:#ff7f0e;" x="222.386466" xlink:href="#m6e5b447d77" y="208.447805"/>
     <use style="fill:#ff7f0e;stroke:#ff7f0e;" x="227.917867" xlink:href="#m6e5b447d77" y="219.702981"/>
     <use style="fill:#ff7f0e;stroke:#ff7f0e;" x="287.365621" xlink:href="#m6e5b447d77" y="204.328564"/>
     <use style="fill:#ff7f0e;stroke:#ff7f0e;" x="297.544633" xlink:href="#m6e5b447d77" y="215.491025"/>
     <use style="fill:#ff7f0e;stroke:#ff7f0e;" x="222.879572" xlink:href="#m6e5b447d77" y="205.884452"/>
     <use style="fill:#ff7f0e;stroke:#ff7f0e;" x="273.857735" xlink:href="#m6e5b447d77" y="191.092395"/>
     <use style="fill:#ff7f0e;stroke:#ff7f0e;" x="260.035546" xlink:href="#m6e5b447d77" y="236.026058"/>
     <use style="fill:#ff7f0e;stroke:#ff7f0e;" x="293.088163" xlink:href="#m6e5b447d77" y="209.463874"/>
     <use style="fill:#ff7f0e;stroke:#ff7f0e;" x="209.724165" xlink:href="#m6e5b447d77" y="193.555764"/>
     <use style="fill:#ff7f0e;stroke:#ff7f0e;" x="284.276218" xlink:href="#m6e5b447d77" y="232.785126"/>
     <use style="fill:#ff7f0e;stroke:#ff7f0e;" x="281.805742" xlink:href="#m6e5b447d77" y="227.76738"/>
     <use style="fill:#ff7f0e;stroke:#ff7f0e;" x="239.798707" xlink:href="#m6e5b447d77" y="218.261362"/>
     <use style="fill:#ff7f0e;stroke:#ff7f0e;" x="283.98575" xlink:href="#m6e5b447d77" y="200.485324"/>
     <use style="fill:#ff7f0e;stroke:#ff7f0e;" x="239.250489" xlink:href="#m6e5b447d77" y="226.954093"/>
     <use style="fill:#ff7f0e;stroke:#ff7f0e;" x="349.526777" xlink:href="#m6e5b447d77" y="211.367594"/>
     <use style="fill:#ff7f0e;stroke:#ff7f0e;" x="230.106552" xlink:href="#m6e5b447d77" y="184.000687"/>
     <use style="fill:#ff7f0e;stroke:#ff7f0e;" x="269.762076" xlink:href="#m6e5b447d77" y="231.404095"/>
     <use style="fill:#ff7f0e;stroke:#ff7f0e;" x="277.781437" xlink:href="#m6e5b447d77" y="217.774283"/>
     <use style="fill:#ff7f0e;stroke:#ff7f0e;" x="274.838281" xlink:href="#m6e5b447d77" y="213.258979"/>
     <use style="fill:#ff7f0e;stroke:#ff7f0e;" x="293.477654" xlink:href="#m6e5b447d77" y="211.02685"/>
     <use style="fill:#ff7f0e;stroke:#ff7f0e;" x="264.85062" xlink:href="#m6e5b447d77" y="214.021481"/>
     <use style="fill:#ff7f0e;stroke:#ff7f0e;" x="278.335732" xlink:href="#m6e5b447d77" y="190.006312"/>
     <use style="fill:#ff7f0e;stroke:#ff7f0e;" x="218.181128" xlink:href="#m6e5b447d77" y="219.278379"/>
     <use style="fill:#ff7f0e;stroke:#ff7f0e;" x="116.758927" xlink:href="#m6e5b447d77" y="211.489349"/>
     <use style="fill:#ff7f0e;stroke:#ff7f0e;" x="264.08386" xlink:href="#m6e5b447d77" y="205.022162"/>
     <use style="fill:#ff7f0e;stroke:#ff7f0e;" x="267.542761" xlink:href="#m6e5b447d77" y="220.563627"/>
     <use style="fill:#ff7f0e;stroke:#ff7f0e;" x="260.219275" xlink:href="#m6e5b447d77" y="224.800244"/>
     <use style="fill:#ff7f0e;stroke:#ff7f0e;" x="289.427047" xlink:href="#m6e5b447d77" y="219.365493"/>
     <use style="fill:#ff7f0e;stroke:#ff7f0e;" x="274.653583" xlink:href="#m6e5b447d77" y="208.243636"/>
     <use style="fill:#ff7f0e;stroke:#ff7f0e;" x="199.639451" xlink:href="#m6e5b447d77" y="216.123575"/>
     <use style="fill:#ff7f0e;stroke:#ff7f0e;" x="235.328837" xlink:href="#m6e5b447d77" y="203.248041"/>
     <use style="fill:#ff7f0e;stroke:#ff7f0e;" x="317.377706" xlink:href="#m6e5b447d77" y="184.300758"/>
     <use style="fill:#ff7f0e;stroke:#ff7f0e;" x="195.047104" xlink:href="#m6e5b447d77" y="210.220012"/>
     <use style="fill:#ff7f0e;stroke:#ff7f0e;" x="267.443796" xlink:href="#m6e5b447d77" y="220.967656"/>
     <use style="fill:#ff7f0e;stroke:#ff7f0e;" x="263.380815" xlink:href="#m6e5b447d77" y="222.274341"/>
     <use style="fill:#ff7f0e;stroke:#ff7f0e;" x="245.978028" xlink:href="#m6e5b447d77" y="213.923496"/>
     <use style="fill:#ff7f0e;stroke:#ff7f0e;" x="296.536968" xlink:href="#m6e5b447d77" y="205.783214"/>
     <use style="fill:#ff7f0e;stroke:#ff7f0e;" x="209.534193" xlink:href="#m6e5b447d77" y="217.563221"/>
     <use style="fill:#ff7f0e;stroke:#ff7f0e;" x="224.90603" xlink:href="#m6e5b447d77" y="238.571886"/>
     <use style="fill:#ff7f0e;stroke:#ff7f0e;" x="238.525543" xlink:href="#m6e5b447d77" y="222.465829"/>
     <use style="fill:#ff7f0e;stroke:#ff7f0e;" x="287.116765" xlink:href="#m6e5b447d77" y="194.775066"/>
     <use style="fill:#ff7f0e;stroke:#ff7f0e;" x="287.634755" xlink:href="#m6e5b447d77" y="218.353642"/>
     <use style="fill:#ff7f0e;stroke:#ff7f0e;" x="170.107363" xlink:href="#m6e5b447d77" y="200.155587"/>
     <use style="fill:#ff7f0e;stroke:#ff7f0e;" x="179.16303" xlink:href="#m6e5b447d77" y="202.448401"/>
     <use style="fill:#ff7f0e;stroke:#ff7f0e;" x="256.798907" xlink:href="#m6e5b447d77" y="229.996784"/>
     <use style="fill:#ff7f0e;stroke:#ff7f0e;" x="214.071125" xlink:href="#m6e5b447d77" y="218.553569"/>
     <use style="fill:#ff7f0e;stroke:#ff7f0e;" x="210.855011" xlink:href="#m6e5b447d77" y="219.70449"/>
     <use style="fill:#ff7f0e;stroke:#ff7f0e;" x="256.193957" xlink:href="#m6e5b447d77" y="235.090693"/>
    </g>
   </g>
   <g id="matplotlib.axis_1">
    <g id="xtick_1">
     <g id="line2d_1">
      <defs>
       <path d="M 0 0 
L 0 3.5 
" id="mbc19b5a477" style="stroke:#000000;stroke-width:0.8;"/>
      </defs>
      <g>
       <use style="stroke:#000000;stroke-width:0.8;" x="128.280252" xlink:href="#mbc19b5a477" y="307.584"/>
      </g>
     </g>
     <g id="text_1">
      <!-- −1.0 -->
      <defs>
       <path d="M 10.59375 35.5 
L 73.1875 35.5 
L 73.1875 27.203125 
L 10.59375 27.203125 
z
" id="DejaVuSans-8722"/>
       <path d="M 12.40625 8.296875 
L 28.515625 8.296875 
L 28.515625 63.921875 
L 10.984375 60.40625 
L 10.984375 69.390625 
L 28.421875 72.90625 
L 38.28125 72.90625 
L 38.28125 8.296875 
L 54.390625 8.296875 
L 54.390625 0 
L 12.40625 0 
z
" id="DejaVuSans-49"/>
       <path d="M 10.6875 12.40625 
L 21 12.40625 
L 21 0 
L 10.6875 0 
z
" id="DejaVuSans-46"/>
       <path d="M 31.78125 66.40625 
Q 24.171875 66.40625 20.328125 58.90625 
Q 16.5 51.421875 16.5 36.375 
Q 16.5 21.390625 20.328125 13.890625 
Q 24.171875 6.390625 31.78125 6.390625 
Q 39.453125 6.390625 43.28125 13.890625 
Q 47.125 21.390625 47.125 36.375 
Q 47.125 51.421875 43.28125 58.90625 
Q 39.453125 66.40625 31.78125 66.40625 
z
M 31.78125 74.21875 
Q 44.046875 74.21875 50.515625 64.515625 
Q 56.984375 54.828125 56.984375 36.375 
Q 56.984375 17.96875 50.515625 8.265625 
Q 44.046875 -1.421875 31.78125 -1.421875 
Q 19.53125 -1.421875 13.0625 8.265625 
Q 6.59375 17.96875 6.59375 36.375 
Q 6.59375 54.828125 13.0625 64.515625 
Q 19.53125 74.21875 31.78125 74.21875 
z
" id="DejaVuSans-48"/>
      </defs>
      <g transform="translate(116.138846 322.182437)scale(0.1 -0.1)">
       <use xlink:href="#DejaVuSans-8722"/>
       <use x="83.789062" xlink:href="#DejaVuSans-49"/>
       <use x="147.412109" xlink:href="#DejaVuSans-46"/>
       <use x="179.199219" xlink:href="#DejaVuSans-48"/>
      </g>
     </g>
    </g>
    <g id="xtick_2">
     <g id="line2d_2">
      <g>
       <use style="stroke:#000000;stroke-width:0.8;" x="192.081225" xlink:href="#mbc19b5a477" y="307.584"/>
      </g>
     </g>
     <g id="text_2">
      <!-- −0.5 -->
      <defs>
       <path d="M 10.796875 72.90625 
L 49.515625 72.90625 
L 49.515625 64.59375 
L 19.828125 64.59375 
L 19.828125 46.734375 
Q 21.96875 47.46875 24.109375 47.828125 
Q 26.265625 48.1875 28.421875 48.1875 
Q 40.625 48.1875 47.75 41.5 
Q 54.890625 34.8125 54.890625 23.390625 
Q 54.890625 11.625 47.5625 5.09375 
Q 40.234375 -1.421875 26.90625 -1.421875 
Q 22.3125 -1.421875 17.546875 -0.640625 
Q 12.796875 0.140625 7.71875 1.703125 
L 7.71875 11.625 
Q 12.109375 9.234375 16.796875 8.0625 
Q 21.484375 6.890625 26.703125 6.890625 
Q 35.15625 6.890625 40.078125 11.328125 
Q 45.015625 15.765625 45.015625 23.390625 
Q 45.015625 31 40.078125 35.4375 
Q 35.15625 39.890625 26.703125 39.890625 
Q 22.75 39.890625 18.8125 39.015625 
Q 14.890625 38.140625 10.796875 36.28125 
z
" id="DejaVuSans-53"/>
      </defs>
      <g transform="translate(179.939819 322.182437)scale(0.1 -0.1)">
       <use xlink:href="#DejaVuSans-8722"/>
       <use x="83.789062" xlink:href="#DejaVuSans-48"/>
       <use x="147.412109" xlink:href="#DejaVuSans-46"/>
       <use x="179.199219" xlink:href="#DejaVuSans-53"/>
      </g>
     </g>
    </g>
    <g id="xtick_3">
     <g id="line2d_3">
      <g>
       <use style="stroke:#000000;stroke-width:0.8;" x="255.882197" xlink:href="#mbc19b5a477" y="307.584"/>
      </g>
     </g>
     <g id="text_3">
      <!-- 0.0 -->
      <g transform="translate(247.930635 322.182437)scale(0.1 -0.1)">
       <use xlink:href="#DejaVuSans-48"/>
       <use x="63.623047" xlink:href="#DejaVuSans-46"/>
       <use x="95.410156" xlink:href="#DejaVuSans-48"/>
      </g>
     </g>
    </g>
    <g id="xtick_4">
     <g id="line2d_4">
      <g>
       <use style="stroke:#000000;stroke-width:0.8;" x="319.68317" xlink:href="#mbc19b5a477" y="307.584"/>
      </g>
     </g>
     <g id="text_4">
      <!-- 0.5 -->
      <g transform="translate(311.731608 322.182437)scale(0.1 -0.1)">
       <use xlink:href="#DejaVuSans-48"/>
       <use x="63.623047" xlink:href="#DejaVuSans-46"/>
       <use x="95.410156" xlink:href="#DejaVuSans-53"/>
      </g>
     </g>
    </g>
   </g>
   <g id="matplotlib.axis_2">
    <g id="ytick_1">
     <g id="line2d_5">
      <defs>
       <path d="M 0 0 
L -3.5 0 
" id="m43650c60d1" style="stroke:#000000;stroke-width:0.8;"/>
      </defs>
      <g>
       <use style="stroke:#000000;stroke-width:0.8;" x="103.104" xlink:href="#m43650c60d1" y="304.349366"/>
      </g>
     </g>
     <g id="text_5">
      <!-- −0.25 -->
      <defs>
       <path d="M 19.1875 8.296875 
L 53.609375 8.296875 
L 53.609375 0 
L 7.328125 0 
L 7.328125 8.296875 
Q 12.9375 14.109375 22.625 23.890625 
Q 32.328125 33.6875 34.8125 36.53125 
Q 39.546875 41.84375 41.421875 45.53125 
Q 43.3125 49.21875 43.3125 52.78125 
Q 43.3125 58.59375 39.234375 62.25 
Q 35.15625 65.921875 28.609375 65.921875 
Q 23.96875 65.921875 18.8125 64.3125 
Q 13.671875 62.703125 7.8125 59.421875 
L 7.8125 69.390625 
Q 13.765625 71.78125 18.9375 73 
Q 24.125 74.21875 28.421875 74.21875 
Q 39.75 74.21875 46.484375 68.546875 
Q 53.21875 62.890625 53.21875 53.421875 
Q 53.21875 48.921875 51.53125 44.890625 
Q 49.859375 40.875 45.40625 35.40625 
Q 44.1875 33.984375 37.640625 27.21875 
Q 31.109375 20.453125 19.1875 8.296875 
z
" id="DejaVuSans-50"/>
      </defs>
      <g transform="translate(65.458688 308.148584)scale(0.1 -0.1)">
       <use xlink:href="#DejaVuSans-8722"/>
       <use x="83.789062" xlink:href="#DejaVuSans-48"/>
       <use x="147.412109" xlink:href="#DejaVuSans-46"/>
       <use x="179.199219" xlink:href="#DejaVuSans-50"/>
       <use x="242.822266" xlink:href="#DejaVuSans-53"/>
      </g>
     </g>
    </g>
    <g id="ytick_2">
     <g id="line2d_6">
      <g>
       <use style="stroke:#000000;stroke-width:0.8;" x="103.104" xlink:href="#m43650c60d1" y="272.448879"/>
      </g>
     </g>
     <g id="text_6">
      <!-- 0.00 -->
      <g transform="translate(73.838375 276.248098)scale(0.1 -0.1)">
       <use xlink:href="#DejaVuSans-48"/>
       <use x="63.623047" xlink:href="#DejaVuSans-46"/>
       <use x="95.410156" xlink:href="#DejaVuSans-48"/>
       <use x="159.033203" xlink:href="#DejaVuSans-48"/>
      </g>
     </g>
    </g>
    <g id="ytick_3">
     <g id="line2d_7">
      <g>
       <use style="stroke:#000000;stroke-width:0.8;" x="103.104" xlink:href="#m43650c60d1" y="240.548393"/>
      </g>
     </g>
     <g id="text_7">
      <!-- 0.25 -->
      <g transform="translate(73.838375 244.347612)scale(0.1 -0.1)">
       <use xlink:href="#DejaVuSans-48"/>
       <use x="63.623047" xlink:href="#DejaVuSans-46"/>
       <use x="95.410156" xlink:href="#DejaVuSans-50"/>
       <use x="159.033203" xlink:href="#DejaVuSans-53"/>
      </g>
     </g>
    </g>
    <g id="ytick_4">
     <g id="line2d_8">
      <g>
       <use style="stroke:#000000;stroke-width:0.8;" x="103.104" xlink:href="#m43650c60d1" y="208.647906"/>
      </g>
     </g>
     <g id="text_8">
      <!-- 0.50 -->
      <g transform="translate(73.838375 212.447125)scale(0.1 -0.1)">
       <use xlink:href="#DejaVuSans-48"/>
       <use x="63.623047" xlink:href="#DejaVuSans-46"/>
       <use x="95.410156" xlink:href="#DejaVuSans-53"/>
       <use x="159.033203" xlink:href="#DejaVuSans-48"/>
      </g>
     </g>
    </g>
    <g id="ytick_5">
     <g id="line2d_9">
      <g>
       <use style="stroke:#000000;stroke-width:0.8;" x="103.104" xlink:href="#m43650c60d1" y="176.74742"/>
      </g>
     </g>
     <g id="text_9">
      <!-- 0.75 -->
      <defs>
       <path d="M 8.203125 72.90625 
L 55.078125 72.90625 
L 55.078125 68.703125 
L 28.609375 0 
L 18.3125 0 
L 43.21875 64.59375 
L 8.203125 64.59375 
z
" id="DejaVuSans-55"/>
      </defs>
      <g transform="translate(73.838375 180.546639)scale(0.1 -0.1)">
       <use xlink:href="#DejaVuSans-48"/>
       <use x="63.623047" xlink:href="#DejaVuSans-46"/>
       <use x="95.410156" xlink:href="#DejaVuSans-55"/>
       <use x="159.033203" xlink:href="#DejaVuSans-53"/>
      </g>
     </g>
    </g>
    <g id="ytick_6">
     <g id="line2d_10">
      <g>
       <use style="stroke:#000000;stroke-width:0.8;" x="103.104" xlink:href="#m43650c60d1" y="144.846934"/>
      </g>
     </g>
     <g id="text_10">
      <!-- 1.00 -->
      <g transform="translate(73.838375 148.646153)scale(0.1 -0.1)">
       <use xlink:href="#DejaVuSans-49"/>
       <use x="63.623047" xlink:href="#DejaVuSans-46"/>
       <use x="95.410156" xlink:href="#DejaVuSans-48"/>
       <use x="159.033203" xlink:href="#DejaVuSans-48"/>
      </g>
     </g>
    </g>
    <g id="ytick_7">
     <g id="line2d_11">
      <g>
       <use style="stroke:#000000;stroke-width:0.8;" x="103.104" xlink:href="#m43650c60d1" y="112.946447"/>
      </g>
     </g>
     <g id="text_11">
      <!-- 1.25 -->
      <g transform="translate(73.838375 116.745666)scale(0.1 -0.1)">
       <use xlink:href="#DejaVuSans-49"/>
       <use x="63.623047" xlink:href="#DejaVuSans-46"/>
       <use x="95.410156" xlink:href="#DejaVuSans-50"/>
       <use x="159.033203" xlink:href="#DejaVuSans-53"/>
      </g>
     </g>
    </g>
    <g id="ytick_8">
     <g id="line2d_12">
      <g>
       <use style="stroke:#000000;stroke-width:0.8;" x="103.104" xlink:href="#m43650c60d1" y="81.045961"/>
      </g>
     </g>
     <g id="text_12">
      <!-- 1.50 -->
      <g transform="translate(73.838375 84.84518)scale(0.1 -0.1)">
       <use xlink:href="#DejaVuSans-49"/>
       <use x="63.623047" xlink:href="#DejaVuSans-46"/>
       <use x="95.410156" xlink:href="#DejaVuSans-53"/>
       <use x="159.033203" xlink:href="#DejaVuSans-48"/>
      </g>
     </g>
    </g>
    <g id="ytick_9">
     <g id="line2d_13">
      <g>
       <use style="stroke:#000000;stroke-width:0.8;" x="103.104" xlink:href="#m43650c60d1" y="49.145475"/>
      </g>
     </g>
     <g id="text_13">
      <!-- 1.75 -->
      <g transform="translate(73.838375 52.944693)scale(0.1 -0.1)">
       <use xlink:href="#DejaVuSans-49"/>
       <use x="63.623047" xlink:href="#DejaVuSans-46"/>
       <use x="95.410156" xlink:href="#DejaVuSans-55"/>
       <use x="159.033203" xlink:href="#DejaVuSans-53"/>
      </g>
     </g>
    </g>
   </g>
   <g id="patch_3">
    <path d="M 103.104 307.584 
L 103.104 41.472 
" style="fill:none;stroke:#000000;stroke-linecap:square;stroke-linejoin:miter;stroke-width:0.8;"/>
   </g>
   <g id="patch_4">
    <path d="M 369.216 307.584 
L 369.216 41.472 
" style="fill:none;stroke:#000000;stroke-linecap:square;stroke-linejoin:miter;stroke-width:0.8;"/>
   </g>
   <g id="patch_5">
    <path d="M 103.104 307.584 
L 369.216 307.584 
" style="fill:none;stroke:#000000;stroke-linecap:square;stroke-linejoin:miter;stroke-width:0.8;"/>
   </g>
   <g id="patch_6">
    <path d="M 103.104 41.472 
L 369.216 41.472 
" style="fill:none;stroke:#000000;stroke-linecap:square;stroke-linejoin:miter;stroke-width:0.8;"/>
   </g>
   <g id="text_14">
    <!-- Motion model applied to particles -->
    <defs>
     <path d="M 9.8125 72.90625 
L 24.515625 72.90625 
L 43.109375 23.296875 
L 61.8125 72.90625 
L 76.515625 72.90625 
L 76.515625 0 
L 66.890625 0 
L 66.890625 64.015625 
L 48.09375 14.015625 
L 38.1875 14.015625 
L 19.390625 64.015625 
L 19.390625 0 
L 9.8125 0 
z
" id="DejaVuSans-77"/>
     <path d="M 30.609375 48.390625 
Q 23.390625 48.390625 19.1875 42.75 
Q 14.984375 37.109375 14.984375 27.296875 
Q 14.984375 17.484375 19.15625 11.84375 
Q 23.34375 6.203125 30.609375 6.203125 
Q 37.796875 6.203125 41.984375 11.859375 
Q 46.1875 17.53125 46.1875 27.296875 
Q 46.1875 37.015625 41.984375 42.703125 
Q 37.796875 48.390625 30.609375 48.390625 
z
M 30.609375 56 
Q 42.328125 56 49.015625 48.375 
Q 55.71875 40.765625 55.71875 27.296875 
Q 55.71875 13.875 49.015625 6.21875 
Q 42.328125 -1.421875 30.609375 -1.421875 
Q 18.84375 -1.421875 12.171875 6.21875 
Q 5.515625 13.875 5.515625 27.296875 
Q 5.515625 40.765625 12.171875 48.375 
Q 18.84375 56 30.609375 56 
z
" id="DejaVuSans-111"/>
     <path d="M 18.3125 70.21875 
L 18.3125 54.6875 
L 36.8125 54.6875 
L 36.8125 47.703125 
L 18.3125 47.703125 
L 18.3125 18.015625 
Q 18.3125 11.328125 20.140625 9.421875 
Q 21.96875 7.515625 27.59375 7.515625 
L 36.8125 7.515625 
L 36.8125 0 
L 27.59375 0 
Q 17.1875 0 13.234375 3.875 
Q 9.28125 7.765625 9.28125 18.015625 
L 9.28125 47.703125 
L 2.6875 47.703125 
L 2.6875 54.6875 
L 9.28125 54.6875 
L 9.28125 70.21875 
z
" id="DejaVuSans-116"/>
     <path d="M 9.421875 54.6875 
L 18.40625 54.6875 
L 18.40625 0 
L 9.421875 0 
z
M 9.421875 75.984375 
L 18.40625 75.984375 
L 18.40625 64.59375 
L 9.421875 64.59375 
z
" id="DejaVuSans-105"/>
     <path d="M 54.890625 33.015625 
L 54.890625 0 
L 45.90625 0 
L 45.90625 32.71875 
Q 45.90625 40.484375 42.875 44.328125 
Q 39.84375 48.1875 33.796875 48.1875 
Q 26.515625 48.1875 22.3125 43.546875 
Q 18.109375 38.921875 18.109375 30.90625 
L 18.109375 0 
L 9.078125 0 
L 9.078125 54.6875 
L 18.109375 54.6875 
L 18.109375 46.1875 
Q 21.34375 51.125 25.703125 53.5625 
Q 30.078125 56 35.796875 56 
Q 45.21875 56 50.046875 50.171875 
Q 54.890625 44.34375 54.890625 33.015625 
z
" id="DejaVuSans-110"/>
     <path id="DejaVuSans-32"/>
     <path d="M 52 44.1875 
Q 55.375 50.25 60.0625 53.125 
Q 64.75 56 71.09375 56 
Q 79.640625 56 84.28125 50.015625 
Q 88.921875 44.046875 88.921875 33.015625 
L 88.921875 0 
L 79.890625 0 
L 79.890625 32.71875 
Q 79.890625 40.578125 77.09375 44.375 
Q 74.3125 48.1875 68.609375 48.1875 
Q 61.625 48.1875 57.5625 43.546875 
Q 53.515625 38.921875 53.515625 30.90625 
L 53.515625 0 
L 44.484375 0 
L 44.484375 32.71875 
Q 44.484375 40.625 41.703125 44.40625 
Q 38.921875 48.1875 33.109375 48.1875 
Q 26.21875 48.1875 22.15625 43.53125 
Q 18.109375 38.875 18.109375 30.90625 
L 18.109375 0 
L 9.078125 0 
L 9.078125 54.6875 
L 18.109375 54.6875 
L 18.109375 46.1875 
Q 21.1875 51.21875 25.484375 53.609375 
Q 29.78125 56 35.6875 56 
Q 41.65625 56 45.828125 52.96875 
Q 50 49.953125 52 44.1875 
z
" id="DejaVuSans-109"/>
     <path d="M 45.40625 46.390625 
L 45.40625 75.984375 
L 54.390625 75.984375 
L 54.390625 0 
L 45.40625 0 
L 45.40625 8.203125 
Q 42.578125 3.328125 38.25 0.953125 
Q 33.9375 -1.421875 27.875 -1.421875 
Q 17.96875 -1.421875 11.734375 6.484375 
Q 5.515625 14.40625 5.515625 27.296875 
Q 5.515625 40.1875 11.734375 48.09375 
Q 17.96875 56 27.875 56 
Q 33.9375 56 38.25 53.625 
Q 42.578125 51.265625 45.40625 46.390625 
z
M 14.796875 27.296875 
Q 14.796875 17.390625 18.875 11.75 
Q 22.953125 6.109375 30.078125 6.109375 
Q 37.203125 6.109375 41.296875 11.75 
Q 45.40625 17.390625 45.40625 27.296875 
Q 45.40625 37.203125 41.296875 42.84375 
Q 37.203125 48.484375 30.078125 48.484375 
Q 22.953125 48.484375 18.875 42.84375 
Q 14.796875 37.203125 14.796875 27.296875 
z
" id="DejaVuSans-100"/>
     <path d="M 56.203125 29.59375 
L 56.203125 25.203125 
L 14.890625 25.203125 
Q 15.484375 15.921875 20.484375 11.0625 
Q 25.484375 6.203125 34.421875 6.203125 
Q 39.59375 6.203125 44.453125 7.46875 
Q 49.3125 8.734375 54.109375 11.28125 
L 54.109375 2.78125 
Q 49.265625 0.734375 44.1875 -0.34375 
Q 39.109375 -1.421875 33.890625 -1.421875 
Q 20.796875 -1.421875 13.15625 6.1875 
Q 5.515625 13.8125 5.515625 26.8125 
Q 5.515625 40.234375 12.765625 48.109375 
Q 20.015625 56 32.328125 56 
Q 43.359375 56 49.78125 48.890625 
Q 56.203125 41.796875 56.203125 29.59375 
z
M 47.21875 32.234375 
Q 47.125 39.59375 43.09375 43.984375 
Q 39.0625 48.390625 32.421875 48.390625 
Q 24.90625 48.390625 20.390625 44.140625 
Q 15.875 39.890625 15.1875 32.171875 
z
" id="DejaVuSans-101"/>
     <path d="M 9.421875 75.984375 
L 18.40625 75.984375 
L 18.40625 0 
L 9.421875 0 
z
" id="DejaVuSans-108"/>
     <path d="M 34.28125 27.484375 
Q 23.390625 27.484375 19.1875 25 
Q 14.984375 22.515625 14.984375 16.5 
Q 14.984375 11.71875 18.140625 8.90625 
Q 21.296875 6.109375 26.703125 6.109375 
Q 34.1875 6.109375 38.703125 11.40625 
Q 43.21875 16.703125 43.21875 25.484375 
L 43.21875 27.484375 
z
M 52.203125 31.203125 
L 52.203125 0 
L 43.21875 0 
L 43.21875 8.296875 
Q 40.140625 3.328125 35.546875 0.953125 
Q 30.953125 -1.421875 24.3125 -1.421875 
Q 15.921875 -1.421875 10.953125 3.296875 
Q 6 8.015625 6 15.921875 
Q 6 25.140625 12.171875 29.828125 
Q 18.359375 34.515625 30.609375 34.515625 
L 43.21875 34.515625 
L 43.21875 35.40625 
Q 43.21875 41.609375 39.140625 45 
Q 35.0625 48.390625 27.6875 48.390625 
Q 23 48.390625 18.546875 47.265625 
Q 14.109375 46.140625 10.015625 43.890625 
L 10.015625 52.203125 
Q 14.9375 54.109375 19.578125 55.046875 
Q 24.21875 56 28.609375 56 
Q 40.484375 56 46.34375 49.84375 
Q 52.203125 43.703125 52.203125 31.203125 
z
" id="DejaVuSans-97"/>
     <path d="M 18.109375 8.203125 
L 18.109375 -20.796875 
L 9.078125 -20.796875 
L 9.078125 54.6875 
L 18.109375 54.6875 
L 18.109375 46.390625 
Q 20.953125 51.265625 25.265625 53.625 
Q 29.59375 56 35.59375 56 
Q 45.5625 56 51.78125 48.09375 
Q 58.015625 40.1875 58.015625 27.296875 
Q 58.015625 14.40625 51.78125 6.484375 
Q 45.5625 -1.421875 35.59375 -1.421875 
Q 29.59375 -1.421875 25.265625 0.953125 
Q 20.953125 3.328125 18.109375 8.203125 
z
M 48.6875 27.296875 
Q 48.6875 37.203125 44.609375 42.84375 
Q 40.53125 48.484375 33.40625 48.484375 
Q 26.265625 48.484375 22.1875 42.84375 
Q 18.109375 37.203125 18.109375 27.296875 
Q 18.109375 17.390625 22.1875 11.75 
Q 26.265625 6.109375 33.40625 6.109375 
Q 40.53125 6.109375 44.609375 11.75 
Q 48.6875 17.390625 48.6875 27.296875 
z
" id="DejaVuSans-112"/>
     <path d="M 41.109375 46.296875 
Q 39.59375 47.171875 37.8125 47.578125 
Q 36.03125 48 33.890625 48 
Q 26.265625 48 22.1875 43.046875 
Q 18.109375 38.09375 18.109375 28.8125 
L 18.109375 0 
L 9.078125 0 
L 9.078125 54.6875 
L 18.109375 54.6875 
L 18.109375 46.1875 
Q 20.953125 51.171875 25.484375 53.578125 
Q 30.03125 56 36.53125 56 
Q 37.453125 56 38.578125 55.875 
Q 39.703125 55.765625 41.0625 55.515625 
z
" id="DejaVuSans-114"/>
     <path d="M 48.78125 52.59375 
L 48.78125 44.1875 
Q 44.96875 46.296875 41.140625 47.34375 
Q 37.3125 48.390625 33.40625 48.390625 
Q 24.65625 48.390625 19.8125 42.84375 
Q 14.984375 37.3125 14.984375 27.296875 
Q 14.984375 17.28125 19.8125 11.734375 
Q 24.65625 6.203125 33.40625 6.203125 
Q 37.3125 6.203125 41.140625 7.25 
Q 44.96875 8.296875 48.78125 10.40625 
L 48.78125 2.09375 
Q 45.015625 0.34375 40.984375 -0.53125 
Q 36.96875 -1.421875 32.421875 -1.421875 
Q 20.0625 -1.421875 12.78125 6.34375 
Q 5.515625 14.109375 5.515625 27.296875 
Q 5.515625 40.671875 12.859375 48.328125 
Q 20.21875 56 33.015625 56 
Q 37.15625 56 41.109375 55.140625 
Q 45.0625 54.296875 48.78125 52.59375 
z
" id="DejaVuSans-99"/>
     <path d="M 44.28125 53.078125 
L 44.28125 44.578125 
Q 40.484375 46.53125 36.375 47.5 
Q 32.28125 48.484375 27.875 48.484375 
Q 21.1875 48.484375 17.84375 46.4375 
Q 14.5 44.390625 14.5 40.28125 
Q 14.5 37.15625 16.890625 35.375 
Q 19.28125 33.59375 26.515625 31.984375 
L 29.59375 31.296875 
Q 39.15625 29.25 43.1875 25.515625 
Q 47.21875 21.78125 47.21875 15.09375 
Q 47.21875 7.46875 41.1875 3.015625 
Q 35.15625 -1.421875 24.609375 -1.421875 
Q 20.21875 -1.421875 15.453125 -0.5625 
Q 10.6875 0.296875 5.421875 2 
L 5.421875 11.28125 
Q 10.40625 8.6875 15.234375 7.390625 
Q 20.0625 6.109375 24.8125 6.109375 
Q 31.15625 6.109375 34.5625 8.28125 
Q 37.984375 10.453125 37.984375 14.40625 
Q 37.984375 18.0625 35.515625 20.015625 
Q 33.0625 21.96875 24.703125 23.78125 
L 21.578125 24.515625 
Q 13.234375 26.265625 9.515625 29.90625 
Q 5.8125 33.546875 5.8125 39.890625 
Q 5.8125 47.609375 11.28125 51.796875 
Q 16.75 56 26.8125 56 
Q 31.78125 56 36.171875 55.265625 
Q 40.578125 54.546875 44.28125 53.078125 
z
" id="DejaVuSans-115"/>
    </defs>
    <g transform="translate(135.6 35.472)scale(0.12 -0.12)">
     <use xlink:href="#DejaVuSans-77"/>
     <use x="86.279297" xlink:href="#DejaVuSans-111"/>
     <use x="147.460938" xlink:href="#DejaVuSans-116"/>
     <use x="186.669922" xlink:href="#DejaVuSans-105"/>
     <use x="214.453125" xlink:href="#DejaVuSans-111"/>
     <use x="275.634766" xlink:href="#DejaVuSans-110"/>
     <use x="339.013672" xlink:href="#DejaVuSans-32"/>
     <use x="370.800781" xlink:href="#DejaVuSans-109"/>
     <use x="468.212891" xlink:href="#DejaVuSans-111"/>
     <use x="529.394531" xlink:href="#DejaVuSans-100"/>
     <use x="592.871094" xlink:href="#DejaVuSans-101"/>
     <use x="654.394531" xlink:href="#DejaVuSans-108"/>
     <use x="682.177734" xlink:href="#DejaVuSans-32"/>
     <use x="713.964844" xlink:href="#DejaVuSans-97"/>
     <use x="775.244141" xlink:href="#DejaVuSans-112"/>
     <use x="838.720703" xlink:href="#DejaVuSans-112"/>
     <use x="902.197266" xlink:href="#DejaVuSans-108"/>
     <use x="929.980469" xlink:href="#DejaVuSans-105"/>
     <use x="957.763672" xlink:href="#DejaVuSans-101"/>
     <use x="1019.287109" xlink:href="#DejaVuSans-100"/>
     <use x="1082.763672" xlink:href="#DejaVuSans-32"/>
     <use x="1114.550781" xlink:href="#DejaVuSans-116"/>
     <use x="1153.759766" xlink:href="#DejaVuSans-111"/>
     <use x="1214.941406" xlink:href="#DejaVuSans-32"/>
     <use x="1246.728516" xlink:href="#DejaVuSans-112"/>
     <use x="1310.205078" xlink:href="#DejaVuSans-97"/>
     <use x="1371.484375" xlink:href="#DejaVuSans-114"/>
     <use x="1412.597656" xlink:href="#DejaVuSans-116"/>
     <use x="1451.806641" xlink:href="#DejaVuSans-105"/>
     <use x="1479.589844" xlink:href="#DejaVuSans-99"/>
     <use x="1534.570312" xlink:href="#DejaVuSans-108"/>
     <use x="1562.353516" xlink:href="#DejaVuSans-101"/>
     <use x="1623.876953" xlink:href="#DejaVuSans-115"/>
    </g>
   </g>
   <g id="legend_1">
    <g id="patch_7">
     <path d="M 244.233187 78.82825 
L 362.216 78.82825 
Q 364.216 78.82825 364.216 76.82825 
L 364.216 48.472 
Q 364.216 46.472 362.216 46.472 
L 244.233187 46.472 
Q 242.233187 46.472 242.233187 48.472 
L 242.233187 76.82825 
Q 242.233187 78.82825 244.233187 78.82825 
z
" style="fill:#ffffff;opacity:0.8;stroke:#cccccc;stroke-linejoin:miter;"/>
    </g>
    <g id="PathCollection_3">
     <g>
      <use style="fill:#1f77b4;stroke:#1f77b4;" x="256.233187" xlink:href="#m8ee61d0d14" y="55.445437"/>
     </g>
    </g>
    <g id="text_15">
     <!-- Particles (before) -->
     <defs>
      <path d="M 19.671875 64.796875 
L 19.671875 37.40625 
L 32.078125 37.40625 
Q 38.96875 37.40625 42.71875 40.96875 
Q 46.484375 44.53125 46.484375 51.125 
Q 46.484375 57.671875 42.71875 61.234375 
Q 38.96875 64.796875 32.078125 64.796875 
z
M 9.8125 72.90625 
L 32.078125 72.90625 
Q 44.34375 72.90625 50.609375 67.359375 
Q 56.890625 61.8125 56.890625 51.125 
Q 56.890625 40.328125 50.609375 34.8125 
Q 44.34375 29.296875 32.078125 29.296875 
L 19.671875 29.296875 
L 19.671875 0 
L 9.8125 0 
z
" id="DejaVuSans-80"/>
      <path d="M 31 75.875 
Q 24.46875 64.65625 21.28125 53.65625 
Q 18.109375 42.671875 18.109375 31.390625 
Q 18.109375 20.125 21.3125 9.0625 
Q 24.515625 -2 31 -13.1875 
L 23.1875 -13.1875 
Q 15.875 -1.703125 12.234375 9.375 
Q 8.59375 20.453125 8.59375 31.390625 
Q 8.59375 42.28125 12.203125 53.3125 
Q 15.828125 64.359375 23.1875 75.875 
z
" id="DejaVuSans-40"/>
      <path d="M 48.6875 27.296875 
Q 48.6875 37.203125 44.609375 42.84375 
Q 40.53125 48.484375 33.40625 48.484375 
Q 26.265625 48.484375 22.1875 42.84375 
Q 18.109375 37.203125 18.109375 27.296875 
Q 18.109375 17.390625 22.1875 11.75 
Q 26.265625 6.109375 33.40625 6.109375 
Q 40.53125 6.109375 44.609375 11.75 
Q 48.6875 17.390625 48.6875 27.296875 
z
M 18.109375 46.390625 
Q 20.953125 51.265625 25.265625 53.625 
Q 29.59375 56 35.59375 56 
Q 45.5625 56 51.78125 48.09375 
Q 58.015625 40.1875 58.015625 27.296875 
Q 58.015625 14.40625 51.78125 6.484375 
Q 45.5625 -1.421875 35.59375 -1.421875 
Q 29.59375 -1.421875 25.265625 0.953125 
Q 20.953125 3.328125 18.109375 8.203125 
L 18.109375 0 
L 9.078125 0 
L 9.078125 75.984375 
L 18.109375 75.984375 
z
" id="DejaVuSans-98"/>
      <path d="M 37.109375 75.984375 
L 37.109375 68.5 
L 28.515625 68.5 
Q 23.6875 68.5 21.796875 66.546875 
Q 19.921875 64.59375 19.921875 59.515625 
L 19.921875 54.6875 
L 34.71875 54.6875 
L 34.71875 47.703125 
L 19.921875 47.703125 
L 19.921875 0 
L 10.890625 0 
L 10.890625 47.703125 
L 2.296875 47.703125 
L 2.296875 54.6875 
L 10.890625 54.6875 
L 10.890625 58.5 
Q 10.890625 67.625 15.140625 71.796875 
Q 19.390625 75.984375 28.609375 75.984375 
z
" id="DejaVuSans-102"/>
      <path d="M 8.015625 75.875 
L 15.828125 75.875 
Q 23.140625 64.359375 26.78125 53.3125 
Q 30.421875 42.28125 30.421875 31.390625 
Q 30.421875 20.453125 26.78125 9.375 
Q 23.140625 -1.703125 15.828125 -13.1875 
L 8.015625 -13.1875 
Q 14.5 -2 17.703125 9.0625 
Q 20.90625 20.125 20.90625 31.390625 
Q 20.90625 42.671875 17.703125 53.65625 
Q 14.5 64.65625 8.015625 75.875 
z
" id="DejaVuSans-41"/>
     </defs>
     <g transform="translate(274.233187 58.070437)scale(0.1 -0.1)">
      <use xlink:href="#DejaVuSans-80"/>
      <use x="60.240234" xlink:href="#DejaVuSans-97"/>
      <use x="121.519531" xlink:href="#DejaVuSans-114"/>
      <use x="162.632812" xlink:href="#DejaVuSans-116"/>
      <use x="201.841797" xlink:href="#DejaVuSans-105"/>
      <use x="229.625" xlink:href="#DejaVuSans-99"/>
      <use x="284.605469" xlink:href="#DejaVuSans-108"/>
      <use x="312.388672" xlink:href="#DejaVuSans-101"/>
      <use x="373.912109" xlink:href="#DejaVuSans-115"/>
      <use x="426.011719" xlink:href="#DejaVuSans-32"/>
      <use x="457.798828" xlink:href="#DejaVuSans-40"/>
      <use x="496.8125" xlink:href="#DejaVuSans-98"/>
      <use x="560.289062" xlink:href="#DejaVuSans-101"/>
      <use x="621.8125" xlink:href="#DejaVuSans-102"/>
      <use x="657.017578" xlink:href="#DejaVuSans-111"/>
      <use x="718.199219" xlink:href="#DejaVuSans-114"/>
      <use x="759.28125" xlink:href="#DejaVuSans-101"/>
      <use x="820.804688" xlink:href="#DejaVuSans-41"/>
     </g>
    </g>
    <g id="PathCollection_4">
     <g>
      <use style="fill:#ff7f0e;stroke:#ff7f0e;" x="256.233187" xlink:href="#m6e5b447d77" y="70.123562"/>
     </g>
    </g>
    <g id="text_16">
     <!-- Particles (after) -->
     <g transform="translate(274.233187 72.748562)scale(0.1 -0.1)">
      <use xlink:href="#DejaVuSans-80"/>
      <use x="60.240234" xlink:href="#DejaVuSans-97"/>
      <use x="121.519531" xlink:href="#DejaVuSans-114"/>
      <use x="162.632812" xlink:href="#DejaVuSans-116"/>
      <use x="201.841797" xlink:href="#DejaVuSans-105"/>
      <use x="229.625" xlink:href="#DejaVuSans-99"/>
      <use x="284.605469" xlink:href="#DejaVuSans-108"/>
      <use x="312.388672" xlink:href="#DejaVuSans-101"/>
      <use x="373.912109" xlink:href="#DejaVuSans-115"/>
      <use x="426.011719" xlink:href="#DejaVuSans-32"/>
      <use x="457.798828" xlink:href="#DejaVuSans-40"/>
      <use x="496.8125" xlink:href="#DejaVuSans-97"/>
      <use x="558.091797" xlink:href="#DejaVuSans-102"/>
      <use x="593.28125" xlink:href="#DejaVuSans-116"/>
      <use x="632.490234" xlink:href="#DejaVuSans-101"/>
      <use x="694.013672" xlink:href="#DejaVuSans-114"/>
      <use x="735.126953" xlink:href="#DejaVuSans-41"/>
     </g>
    </g>
   </g>
  </g>
 </g>
 <defs>
  <clipPath id="p69494571f7">
   <rect height="266.112" width="266.112" x="103.104" y="41.472"/>
  </clipPath>
 </defs>
</svg>
