<?xml version="1.0" encoding="utf-8" standalone="no"?>
<!DOCTYPE svg PUBLIC "-//W3C//DTD SVG 1.1//EN"
  "http://www.w3.org/Graphics/SVG/1.1/DTD/svg11.dtd">
<!-- Created with matplotlib (https://matplotlib.org/) -->
<svg height="345.6pt" version="1.1" viewBox="0 0 460.8 345.6" width="460.8pt" xmlns="http://www.w3.org/2000/svg" xmlns:xlink="http://www.w3.org/1999/xlink">
 <defs>
  <style type="text/css">
*{stroke-linecap:butt;stroke-linejoin:round;}
  </style>
 </defs>
 <g id="figure_1">
  <g id="patch_1">
   <path d="M 0 345.6 
L 460.8 345.6 
L 460.8 0 
L 0 0 
z
" style="fill:#ffffff;"/>
  </g>
  <g id="axes_1">
   <g id="patch_2">
    <path d="M 57.6 307.584 
L 414.72 307.584 
L 414.72 41.472 
L 57.6 41.472 
z
" style="fill:#ffffff;"/>
   </g>
   <g id="matplotlib.axis_1">
    <g id="xtick_1">
     <g id="line2d_1">
      <defs>
       <path d="M 0 0 
L 0 3.5 
" id="ma26aa823e6" style="stroke:#000000;stroke-width:0.8;"/>
      </defs>
      <g>
       <use style="stroke:#000000;stroke-width:0.8;" x="73.832727" xlink:href="#ma26aa823e6" y="307.584"/>
      </g>
     </g>
     <g id="text_1">
      <!-- 0 -->
      <defs>
       <path d="M 31.78125 66.40625 
Q 24.171875 66.40625 20.328125 58.90625 
Q 16.5 51.421875 16.5 36.375 
Q 16.5 21.390625 20.328125 13.890625 
Q 24.171875 6.390625 31.78125 6.390625 
Q 39.453125 6.390625 43.28125 13.890625 
Q 47.125 21.390625 47.125 36.375 
Q 47.125 51.421875 43.28125 58.90625 
Q 39.453125 66.40625 31.78125 66.40625 
z
M 31.78125 74.21875 
Q 44.046875 74.21875 50.515625 64.515625 
Q 56.984375 54.828125 56.984375 36.375 
Q 56.984375 17.96875 50.515625 8.265625 
Q 44.046875 -1.421875 31.78125 -1.421875 
Q 19.53125 -1.421875 13.0625 8.265625 
Q 6.59375 17.96875 6.59375 36.375 
Q 6.59375 54.828125 13.0625 64.515625 
Q 19.53125 74.21875 31.78125 74.21875 
z
" id="DejaVuSans-48"/>
      </defs>
      <g transform="translate(70.651477 322.182437)scale(0.1 -0.1)">
       <use xlink:href="#DejaVuSans-48"/>
      </g>
     </g>
    </g>
    <g id="xtick_2">
     <g id="line2d_2">
      <g>
       <use style="stroke:#000000;stroke-width:0.8;" x="138.77013" xlink:href="#ma26aa823e6" y="307.584"/>
      </g>
     </g>
     <g id="text_2">
      <!-- 2 -->
      <defs>
       <path d="M 19.1875 8.296875 
L 53.609375 8.296875 
L 53.609375 0 
L 7.328125 0 
L 7.328125 8.296875 
Q 12.9375 14.109375 22.625 23.890625 
Q 32.328125 33.6875 34.8125 36.53125 
Q 39.546875 41.84375 41.421875 45.53125 
Q 43.3125 49.21875 43.3125 52.78125 
Q 43.3125 58.59375 39.234375 62.25 
Q 35.15625 65.921875 28.609375 65.921875 
Q 23.96875 65.921875 18.8125 64.3125 
Q 13.671875 62.703125 7.8125 59.421875 
L 7.8125 69.390625 
Q 13.765625 71.78125 18.9375 73 
Q 24.125 74.21875 28.421875 74.21875 
Q 39.75 74.21875 46.484375 68.546875 
Q 53.21875 62.890625 53.21875 53.421875 
Q 53.21875 48.921875 51.53125 44.890625 
Q 49.859375 40.875 45.40625 35.40625 
Q 44.1875 33.984375 37.640625 27.21875 
Q 31.109375 20.453125 19.1875 8.296875 
z
" id="DejaVuSans-50"/>
      </defs>
      <g transform="translate(135.58888 322.182437)scale(0.1 -0.1)">
       <use xlink:href="#DejaVuSans-50"/>
      </g>
     </g>
    </g>
    <g id="xtick_3">
     <g id="line2d_3">
      <g>
       <use style="stroke:#000000;stroke-width:0.8;" x="203.707533" xlink:href="#ma26aa823e6" y="307.584"/>
      </g>
     </g>
     <g id="text_3">
      <!-- 4 -->
      <defs>
       <path d="M 37.796875 64.3125 
L 12.890625 25.390625 
L 37.796875 25.390625 
z
M 35.203125 72.90625 
L 47.609375 72.90625 
L 47.609375 25.390625 
L 58.015625 25.390625 
L 58.015625 17.1875 
L 47.609375 17.1875 
L 47.609375 0 
L 37.796875 0 
L 37.796875 17.1875 
L 4.890625 17.1875 
L 4.890625 26.703125 
z
" id="DejaVuSans-52"/>
      </defs>
      <g transform="translate(200.526283 322.182437)scale(0.1 -0.1)">
       <use xlink:href="#DejaVuSans-52"/>
      </g>
     </g>
    </g>
    <g id="xtick_4">
     <g id="line2d_4">
      <g>
       <use style="stroke:#000000;stroke-width:0.8;" x="268.644936" xlink:href="#ma26aa823e6" y="307.584"/>
      </g>
     </g>
     <g id="text_4">
      <!-- 6 -->
      <defs>
       <path d="M 33.015625 40.375 
Q 26.375 40.375 22.484375 35.828125 
Q 18.609375 31.296875 18.609375 23.390625 
Q 18.609375 15.53125 22.484375 10.953125 
Q 26.375 6.390625 33.015625 6.390625 
Q 39.65625 6.390625 43.53125 10.953125 
Q 47.40625 15.53125 47.40625 23.390625 
Q 47.40625 31.296875 43.53125 35.828125 
Q 39.65625 40.375 33.015625 40.375 
z
M 52.59375 71.296875 
L 52.59375 62.3125 
Q 48.875 64.0625 45.09375 64.984375 
Q 41.3125 65.921875 37.59375 65.921875 
Q 27.828125 65.921875 22.671875 59.328125 
Q 17.53125 52.734375 16.796875 39.40625 
Q 19.671875 43.65625 24.015625 45.921875 
Q 28.375 48.1875 33.59375 48.1875 
Q 44.578125 48.1875 50.953125 41.515625 
Q 57.328125 34.859375 57.328125 23.390625 
Q 57.328125 12.15625 50.6875 5.359375 
Q 44.046875 -1.421875 33.015625 -1.421875 
Q 20.359375 -1.421875 13.671875 8.265625 
Q 6.984375 17.96875 6.984375 36.375 
Q 6.984375 53.65625 15.1875 63.9375 
Q 23.390625 74.21875 37.203125 74.21875 
Q 40.921875 74.21875 44.703125 73.484375 
Q 48.484375 72.75 52.59375 71.296875 
z
" id="DejaVuSans-54"/>
      </defs>
      <g transform="translate(265.463686 322.182437)scale(0.1 -0.1)">
       <use xlink:href="#DejaVuSans-54"/>
      </g>
     </g>
    </g>
    <g id="xtick_5">
     <g id="line2d_5">
      <g>
       <use style="stroke:#000000;stroke-width:0.8;" x="333.582339" xlink:href="#ma26aa823e6" y="307.584"/>
      </g>
     </g>
     <g id="text_5">
      <!-- 8 -->
      <defs>
       <path d="M 31.78125 34.625 
Q 24.75 34.625 20.71875 30.859375 
Q 16.703125 27.09375 16.703125 20.515625 
Q 16.703125 13.921875 20.71875 10.15625 
Q 24.75 6.390625 31.78125 6.390625 
Q 38.8125 6.390625 42.859375 10.171875 
Q 46.921875 13.96875 46.921875 20.515625 
Q 46.921875 27.09375 42.890625 30.859375 
Q 38.875 34.625 31.78125 34.625 
z
M 21.921875 38.8125 
Q 15.578125 40.375 12.03125 44.71875 
Q 8.5 49.078125 8.5 55.328125 
Q 8.5 64.0625 14.71875 69.140625 
Q 20.953125 74.21875 31.78125 74.21875 
Q 42.671875 74.21875 48.875 69.140625 
Q 55.078125 64.0625 55.078125 55.328125 
Q 55.078125 49.078125 51.53125 44.71875 
Q 48 40.375 41.703125 38.8125 
Q 48.828125 37.15625 52.796875 32.3125 
Q 56.78125 27.484375 56.78125 20.515625 
Q 56.78125 9.90625 50.3125 4.234375 
Q 43.84375 -1.421875 31.78125 -1.421875 
Q 19.734375 -1.421875 13.25 4.234375 
Q 6.78125 9.90625 6.78125 20.515625 
Q 6.78125 27.484375 10.78125 32.3125 
Q 14.796875 37.15625 21.921875 38.8125 
z
M 18.3125 54.390625 
Q 18.3125 48.734375 21.84375 45.5625 
Q 25.390625 42.390625 31.78125 42.390625 
Q 38.140625 42.390625 41.71875 45.5625 
Q 45.3125 48.734375 45.3125 54.390625 
Q 45.3125 60.0625 41.71875 63.234375 
Q 38.140625 66.40625 31.78125 66.40625 
Q 25.390625 66.40625 21.84375 63.234375 
Q 18.3125 60.0625 18.3125 54.390625 
z
" id="DejaVuSans-56"/>
      </defs>
      <g transform="translate(330.401089 322.182437)scale(0.1 -0.1)">
       <use xlink:href="#DejaVuSans-56"/>
      </g>
     </g>
    </g>
    <g id="xtick_6">
     <g id="line2d_6">
      <g>
       <use style="stroke:#000000;stroke-width:0.8;" x="398.519741" xlink:href="#ma26aa823e6" y="307.584"/>
      </g>
     </g>
     <g id="text_6">
      <!-- 10 -->
      <defs>
       <path d="M 12.40625 8.296875 
L 28.515625 8.296875 
L 28.515625 63.921875 
L 10.984375 60.40625 
L 10.984375 69.390625 
L 28.421875 72.90625 
L 38.28125 72.90625 
L 38.28125 8.296875 
L 54.390625 8.296875 
L 54.390625 0 
L 12.40625 0 
z
" id="DejaVuSans-49"/>
      </defs>
      <g transform="translate(392.157241 322.182437)scale(0.1 -0.1)">
       <use xlink:href="#DejaVuSans-49"/>
       <use x="63.623047" xlink:href="#DejaVuSans-48"/>
      </g>
     </g>
    </g>
   </g>
   <g id="matplotlib.axis_2">
    <g id="ytick_1">
     <g id="line2d_7">
      <defs>
       <path d="M 0 0 
L -3.5 0 
" id="m0c9d2a4ab9" style="stroke:#000000;stroke-width:0.8;"/>
      </defs>
      <g>
       <use style="stroke:#000000;stroke-width:0.8;" x="57.6" xlink:href="#m0c9d2a4ab9" y="286.675066"/>
      </g>
     </g>
     <g id="text_7">
      <!-- −2 -->
      <defs>
       <path d="M 10.59375 35.5 
L 73.1875 35.5 
L 73.1875 27.203125 
L 10.59375 27.203125 
z
" id="DejaVuSans-8722"/>
      </defs>
      <g transform="translate(35.857813 290.474284)scale(0.1 -0.1)">
       <use xlink:href="#DejaVuSans-8722"/>
       <use x="83.789062" xlink:href="#DejaVuSans-50"/>
      </g>
     </g>
    </g>
    <g id="ytick_2">
     <g id="line2d_8">
      <g>
       <use style="stroke:#000000;stroke-width:0.8;" x="57.6" xlink:href="#m0c9d2a4ab9" y="230.513167"/>
      </g>
     </g>
     <g id="text_8">
      <!-- −1 -->
      <g transform="translate(35.857813 234.312386)scale(0.1 -0.1)">
       <use xlink:href="#DejaVuSans-8722"/>
       <use x="83.789062" xlink:href="#DejaVuSans-49"/>
      </g>
     </g>
    </g>
    <g id="ytick_3">
     <g id="line2d_9">
      <g>
       <use style="stroke:#000000;stroke-width:0.8;" x="57.6" xlink:href="#m0c9d2a4ab9" y="174.351269"/>
      </g>
     </g>
     <g id="text_9">
      <!-- 0 -->
      <g transform="translate(44.2375 178.150488)scale(0.1 -0.1)">
       <use xlink:href="#DejaVuSans-48"/>
      </g>
     </g>
    </g>
    <g id="ytick_4">
     <g id="line2d_10">
      <g>
       <use style="stroke:#000000;stroke-width:0.8;" x="57.6" xlink:href="#m0c9d2a4ab9" y="118.18937"/>
      </g>
     </g>
     <g id="text_10">
      <!-- 1 -->
      <g transform="translate(44.2375 121.988589)scale(0.1 -0.1)">
       <use xlink:href="#DejaVuSans-49"/>
      </g>
     </g>
    </g>
    <g id="ytick_5">
     <g id="line2d_11">
      <g>
       <use style="stroke:#000000;stroke-width:0.8;" x="57.6" xlink:href="#m0c9d2a4ab9" y="62.027472"/>
      </g>
     </g>
     <g id="text_11">
      <!-- 2 -->
      <g transform="translate(44.2375 65.826691)scale(0.1 -0.1)">
       <use xlink:href="#DejaVuSans-50"/>
      </g>
     </g>
    </g>
   </g>
   <g id="line2d_12">
    <path clip-path="url(#p56c9dd74ca)" d="M 73.832727 196.816028 
L 74.51457 205.274376 
L 74.969132 208.636004 
L 75.293819 209.654506 
L 75.456162 209.696406 
L 75.618506 209.417039 
L 75.845787 208.480097 
L 76.170474 206.04165 
L 76.592567 201.012086 
L 77.177004 190.981136 
L 78.02119 172.073693 
L 79.709562 133.626333 
L 80.358936 123.970965 
L 80.813498 120.001407 
L 81.138185 118.682557 
L 81.332997 118.499067 
L 81.462872 118.624824 
L 81.657684 119.174444 
L 81.949903 120.769203 
L 82.371996 124.529117 
L 82.988901 132.39843 
L 85.034429 160.563873 
L 85.488991 163.58261 
L 85.813678 164.493168 
L 85.976022 164.536724 
L 86.138365 164.302063 
L 86.365646 163.508403 
L 86.690333 161.458926 
L 87.144895 156.921734 
L 87.7618 148.247321 
L 90.164484 111.545939 
L 90.619046 108.567583 
L 90.911264 107.795371 
L 91.073608 107.76741 
L 91.235951 108.026904 
L 91.463232 108.867244 
L 91.787919 110.997988 
L 92.242481 115.6511 
L 92.891855 124.936778 
L 94.969852 156.648596 
L 95.424414 159.998585 
L 95.716632 160.948583 
L 95.878976 161.03929 
L 96.041319 160.809288 
L 96.2686 159.943183 
L 96.593287 157.611505 
L 97.01538 152.735419 
L 97.599817 142.955835 
L 98.444003 124.51686 
L 100.099907 87.994373 
L 100.716812 79.127549 
L 101.171374 75.291621 
L 101.496061 74.069375 
L 101.690873 73.947383 
L 101.853217 74.189496 
L 102.080498 75.036606 
L 102.405185 77.213626 
L 102.859746 81.936046 
L 103.541589 91.684102 
L 105.327368 118.312354 
L 105.846867 122.632502 
L 106.204023 124.089882 
L 106.431303 124.328717 
L 106.593647 124.166723 
L 106.820928 123.478319 
L 107.145615 121.591161 
L 107.567708 117.679886 
L 108.184613 109.58202 
L 110.52236 76.253666 
L 110.944453 73.73273 
L 111.236671 73.070899 
L 111.399015 73.103436 
L 111.593827 73.523364 
L 111.853577 74.723498 
L 112.210732 77.522547 
L 112.697763 83.267045 
L 113.412074 94.714294 
L 115.26279 125.77043 
L 115.78229 130.682514 
L 116.139445 132.361682 
L 116.366726 132.6433 
L 116.496601 132.521462 
L 116.691413 131.950511 
L 116.983631 130.227762 
L 117.373256 126.37525 
L 117.892755 118.761063 
L 118.639535 104.112202 
L 120.620126 63.615465 
L 121.172094 56.979014 
L 121.594187 54.225454 
L 121.853937 53.59709 
L 122.01628 53.61979 
L 122.178624 53.957943 
L 122.438373 55.136878 
L 122.795529 57.963124 
L 123.28256 63.772561 
L 124.02934 75.762455 
L 125.685243 103.065262 
L 126.237211 108.635822 
L 126.626836 110.804621 
L 126.886585 111.375874 
L 127.048929 111.373254 
L 127.211272 111.096892 
L 127.471022 110.100856 
L 127.828178 107.687098 
L 128.315208 102.718467 
L 129.094457 92.089194 
L 130.425674 73.959283 
L 130.977642 69.339931 
L 131.334797 67.852582 
L 131.562078 67.595403 
L 131.724422 67.753369 
L 131.951703 68.45909 
L 132.27639 70.441071 
L 132.698483 74.652205 
L 133.28292 83.129399 
L 134.192043 100.260485 
L 135.52326 124.787821 
L 136.107697 131.86403 
L 136.52979 134.730499 
L 136.822008 135.481718 
L 136.951883 135.480793 
L 137.114226 135.188446 
L 137.341507 134.240073 
L 137.666194 131.82642 
L 138.120756 126.517491 
L 138.737661 116.371906 
L 140.003941 90.657733 
L 140.913064 74.645866 
L 141.465032 68.25937 
L 141.854657 65.760396 
L 142.114406 65.097162 
L 142.27675 65.09819 
L 142.439093 65.417911 
L 142.698843 66.580503 
L 143.055999 69.427094 
L 143.543029 75.38333 
L 144.257341 87.357425 
L 146.2704 122.887231 
L 146.822368 128.34496 
L 147.211992 130.355389 
L 147.471742 130.810664 
L 147.634086 130.738592 
L 147.828898 130.299841 
L 148.121116 128.956622 
L 148.543209 125.716782 
L 149.160115 118.871123 
L 151.043299 96.482562 
L 151.465392 94.096943 
L 151.757611 93.449202 
L 151.919954 93.473539 
L 152.114766 93.877387 
L 152.374516 95.060024 
L 152.731672 97.877841 
L 153.218702 103.813822 
L 153.868076 114.852092 
L 155.199293 142.585628 
L 156.075948 158.365868 
L 156.660385 165.300472 
L 157.050009 167.821829 
L 157.309759 168.486166 
L 157.472102 168.480082 
L 157.634446 168.150829 
L 157.894195 166.963671 
L 158.251351 164.065074 
L 158.738381 158.007899 
L 159.452693 145.850208 
L 161.368346 111.626983 
L 161.887846 106.386931 
L 162.245001 104.505417 
L 162.472282 104.09483 
L 162.602157 104.140457 
L 162.7645 104.484256 
L 163.02425 105.688828 
L 163.381406 108.609094 
L 163.868436 114.717402 
L 164.550279 126.449668 
L 166.790619 167.495761 
L 167.310119 172.574116 
L 167.699743 174.567296 
L 167.959493 175.007593 
L 168.121836 174.928158 
L 168.316648 174.485168 
L 168.608867 173.150262 
L 169.03096 169.967832 
L 169.647865 163.339232 
L 171.336238 144.156891 
L 171.790799 141.535503 
L 172.083018 140.863033 
L 172.245361 140.865837 
L 172.407705 141.148278 
L 172.667454 142.193363 
L 173.02461 144.824642 
L 173.479172 150.092073 
L 174.096077 160.213291 
L 175.102607 181.239105 
L 176.336418 205.968568 
L 176.953323 214.333869 
L 177.407885 217.870437 
L 177.700103 218.833808 
L 177.862447 218.913862 
L 178.02479 218.669319 
L 178.252071 217.789999 
L 178.576758 215.48932 
L 179.03132 210.393126 
L 179.680694 200.119932 
L 181.985972 160.76163 
L 182.440534 157.15106 
L 182.765221 156.012821 
L 182.927564 155.91557 
L 183.089908 156.136012 
L 183.317188 156.974948 
L 183.641875 159.217467 
L 184.063969 163.8384 
L 184.648405 172.895088 
L 185.654935 192.669549 
L 186.823808 214.442692 
L 187.440714 222.28282 
L 187.895275 225.696845 
L 188.219962 226.804943 
L 188.414775 226.936217 
L 188.577118 226.747283 
L 188.804399 226.04488 
L 189.129086 224.21809 
L 189.583648 220.270311 
L 190.330428 211.464843 
L 191.596707 196.606854 
L 192.116207 192.998163 
L 192.440894 191.963336 
L 192.635706 191.850633 
L 192.798049 192.061892 
L 193.02533 192.834034 
L 193.350017 194.906027 
L 193.77211 199.25329 
L 194.324078 207.460716 
L 195.135796 223.249701 
L 196.7917 256.088477 
L 197.376136 263.482904 
L 197.798229 266.503246 
L 198.090448 267.335704 
L 198.252791 267.341458 
L 198.415135 267.021246 
L 198.674884 265.841767 
L 199.03204 262.937576 
L 199.51907 256.836483 
L 200.200913 245.144125 
L 202.246441 208.023545 
L 202.765941 202.896258 
L 203.123096 201.111712 
L 203.350377 200.76319 
L 203.480252 200.842556 
L 203.675064 201.339448 
L 203.967283 202.916562 
L 204.356907 206.482239 
L 204.876406 213.490332 
L 205.688124 227.965813 
L 207.246621 256.126048 
L 207.831058 262.949819 
L 208.253151 265.812109 
L 208.545369 266.694601 
L 208.740182 266.779027 
L 208.902525 266.546697 
L 209.129806 265.774254 
L 209.454493 263.822456 
L 209.941524 259.280764 
L 210.688304 249.777683 
L 212.051989 232.355799 
L 212.571488 228.377691 
L 212.928644 227.068939 
L 213.123456 226.902807 
L 213.2858 227.072191 
L 213.513081 227.786589 
L 213.837768 229.769948 
L 214.259861 233.972378 
L 214.811829 241.899917 
L 215.656015 257.649827 
L 217.117107 284.8778 
L 217.701543 291.935382 
L 218.123636 294.76304 
L 218.383386 295.446373 
L 218.545729 295.450238 
L 218.708073 295.126546 
L 218.967823 293.933121 
L 219.324978 290.97969 
L 219.812009 284.722741 
L 220.493852 272.567255 
L 222.831598 227.941362 
L 223.318629 223.305969 
L 223.675784 221.637436 
L 223.903065 221.369185 
L 224.03294 221.492987 
L 224.227752 222.050722 
L 224.519971 223.696566 
L 224.909595 227.288057 
L 225.461563 234.65661 
L 226.403155 250.856819 
L 227.572028 269.999763 
L 228.156465 276.314107 
L 228.578558 278.850127 
L 228.870777 279.513432 
L 229.03312 279.488694 
L 229.227932 279.091899 
L 229.487682 277.957361 
L 229.877306 275.045556 
L 230.396805 269.24649 
L 231.240992 256.905037 
L 232.442334 239.801838 
L 232.994302 234.728338 
L 233.383926 232.829729 
L 233.643676 232.433445 
L 233.77355 232.506102 
L 233.968363 232.956617 
L 234.260581 234.39428 
L 234.650205 237.674534 
L 235.169705 244.194876 
L 235.948953 257.24361 
L 237.53992 284.39854 
L 238.091888 290.151346 
L 238.481512 292.257885 
L 238.708793 292.655991 
L 238.838668 292.598604 
L 239.001011 292.232408 
L 239.260761 290.96701 
L 239.617917 287.893237 
L 240.104947 281.398785 
L 240.754321 269.370685 
L 242.215413 236.503371 
L 243.059599 220.587858 
L 243.644036 213.329262 
L 244.066129 210.482626 
L 244.358347 209.757866 
L 244.520691 209.795035 
L 244.715503 210.24503 
L 244.975252 211.506295 
L 245.364877 214.701217 
L 245.916845 221.441373 
L 246.858437 236.335335 
L 247.929904 252.28603 
L 248.514341 257.93513 
L 248.903965 259.926011 
L 249.163715 260.379837 
L 249.326058 260.299333 
L 249.520871 259.833438 
L 249.813089 258.395036 
L 250.202713 255.177897 
L 250.754681 248.446982 
L 251.631336 234.445378 
L 252.897616 214.759131 
L 253.482052 208.918262 
L 253.871677 206.817166 
L 254.131426 206.30104 
L 254.29377 206.34821 
L 254.488582 206.780613 
L 254.748332 207.984091 
L 255.137956 211.063476 
L 255.657455 217.244357 
L 256.469173 230.109699 
L 257.865327 252.24277 
L 258.417295 257.689322 
L 258.806919 259.638419 
L 259.0342 259.959148 
L 259.164075 259.860493 
L 259.358887 259.321949 
L 259.651105 257.633605 
L 260.04073 253.777257 
L 260.560229 246.016485 
L 261.274541 231.488819 
L 263.677224 179.388907 
L 264.196724 173.415655 
L 264.586348 171.000256 
L 264.846098 170.402877 
L 265.008441 170.43589 
L 265.203253 170.876396 
L 265.495472 172.317331 
L 265.885096 175.555474 
L 266.437064 182.20591 
L 267.605937 199.887955 
L 268.450124 210.80104 
L 268.969623 214.965905 
L 269.326778 216.338021 
L 269.521591 216.530435 
L 269.683934 216.383968 
L 269.911215 215.710208 
L 270.235902 213.819367 
L 270.657995 209.836752 
L 271.242432 201.944671 
L 272.28143 184.151916 
L 273.320429 167.680746 
L 273.904865 161.549372 
L 274.326959 159.158678 
L 274.586708 158.625818 
L 274.749052 158.664734 
L 274.943864 159.087802 
L 275.203613 160.27698 
L 275.593238 163.322955 
L 276.112737 169.418041 
L 276.924455 182.004761 
L 278.255671 202.39596 
L 278.807639 207.640419 
L 279.164795 209.377085 
L 279.392076 209.717299 
L 279.521951 209.632404 
L 279.716763 209.116996 
L 279.976513 207.701425 
L 280.333668 204.416568 
L 280.820699 197.598544 
L 281.470073 185.017081 
L 282.671415 156.329573 
L 283.710413 133.735295 
L 284.359787 124.039701 
L 284.814349 120.03787 
L 285.139036 118.695431 
L 285.333848 118.498008 
L 285.463723 118.614686 
L 285.658535 119.151141 
L 285.950754 120.727524 
L 286.372847 124.464796 
L 286.989752 132.311832 
L 289.067749 160.79141 
L 289.522311 163.697077 
L 289.814529 164.486225 
L 289.976873 164.54007 
L 290.139216 164.315723 
L 290.366497 163.536333 
L 290.691184 161.506363 
L 291.145746 156.993333 
L 291.762651 148.342671 
L 294.197804 111.316357 
L 294.619897 108.593117 
L 294.912115 107.801938 
L 295.074459 107.763309 
L 295.236802 108.012181 
L 295.464083 108.837938 
L 295.78877 110.948968 
L 296.243332 115.578106 
L 296.892706 124.84036 
L 298.970703 156.590219 
L 299.425265 159.968705 
L 299.717483 160.939128 
L 299.912295 161.023803 
L 300.074639 160.741171 
L 300.30192 159.801137 
L 300.626607 157.365842 
L 301.0487 152.364414 
L 301.633136 142.442452 
L 302.509791 123.123813 
L 304.068289 88.671137 
L 304.717663 79.194462 
L 305.172225 75.32633 
L 305.496912 74.080404 
L 305.691724 73.944367 
L 305.854068 74.17504 
L 306.081348 75.006759 
L 306.406036 77.163563 
L 306.860597 81.862458 
L 307.54244 91.588832 
L 309.328219 118.24845 
L 309.847718 122.596923 
L 310.204874 124.0762 
L 310.432154 124.329395 
L 310.594498 124.177661 
L 310.821779 123.50339 
L 311.146466 121.635424 
L 311.568559 117.74614 
L 312.185464 109.671453 
L 314.523211 76.302201 
L 314.945304 73.755928 
L 315.237522 73.075229 
L 315.399866 73.097081 
L 315.594678 73.504191 
L 315.854428 74.687553 
L 316.211583 77.464888 
L 316.698614 83.184088 
L 317.412925 94.60767 
L 319.29611 126.084285 
L 319.815609 130.856934 
L 320.172765 132.426541 
L 320.367577 132.643936 
L 320.497452 132.531678 
L 320.692264 131.975106 
L 320.984482 130.273555 
L 321.374107 126.447601 
L 321.893606 118.8635 
L 322.640386 104.242025 
L 324.620977 63.705057 
L 325.172945 57.033405 
L 325.595038 54.249721 
L 325.854788 53.602371 
L 326.017131 53.613287 
L 326.179475 53.939853 
L 326.439224 55.100933 
L 326.79638 57.904697 
L 327.283411 63.688974 
L 328.030191 75.656651 
L 329.686094 102.990045 
L 330.238062 108.590335 
L 330.660155 110.895175 
L 330.919905 111.39427 
L 331.082249 111.346774 
L 331.277061 110.929923 
L 331.569279 109.594194 
L 331.958904 106.591733 
L 332.510871 100.374209 
L 333.54987 85.442388 
L 334.458994 73.681774 
L 334.978493 69.375796 
L 335.335648 67.866848 
L 335.562929 67.595061 
L 335.692804 67.689903 
L 335.887616 68.178017 
L 336.179835 69.687076 
L 336.569459 73.104262 
L 337.088958 79.912784 
L 337.835738 93.067065 
L 339.686454 126.996219 
L 340.238422 132.915465 
L 340.628047 135.07666 
L 340.855328 135.498326 
L 340.985203 135.455205 
L 341.147546 135.110253 
L 341.407296 133.893096 
L 341.764451 130.932063 
L 342.251482 124.722267 
L 342.933325 112.768679 
L 345.108728 72.114973 
L 345.628227 67.044693 
L 345.985383 65.34234 
L 346.212663 65.058391 
L 346.342538 65.177547 
L 346.53735 65.736603 
L 346.829569 67.408932 
L 347.219193 71.096137 
L 347.771161 78.753747 
L 348.647816 94.696469 
L 350.04397 119.75364 
L 350.660876 126.992639 
L 351.082969 129.834479 
L 351.375187 130.714172 
L 351.569999 130.803421 
L 351.732343 130.579858 
L 351.959624 129.827817 
L 352.284311 127.923678 
L 352.771341 123.500231 
L 353.518121 114.303208 
L 354.784401 98.751245 
L 355.3039 94.853918 
L 355.661056 93.578632 
L 355.855868 93.428346 
L 356.018211 93.611666 
L 356.245492 94.349323 
L 356.570179 96.380093 
L 356.992272 100.684734 
L 357.54424 108.84834 
L 358.355958 124.581616 
L 360.011862 157.296166 
L 360.596298 164.651619 
L 361.018391 167.653284 
L 361.31061 168.480156 
L 361.472953 168.486091 
L 361.635297 168.168758 
L 361.895046 167.00018 
L 362.252202 164.125414 
L 362.739232 158.095743 
L 363.453544 145.963663 
L 365.369197 111.703449 
L 365.888697 106.431186 
L 366.278321 104.425705 
L 366.505602 104.087556 
L 366.635477 104.174782 
L 366.830289 104.687384 
L 367.122507 106.300049 
L 367.512132 109.943552 
L 368.031631 117.1271 
L 368.81088 131.432543 
L 370.531721 163.918596 
L 371.116157 170.928724 
L 371.570719 174.053954 
L 371.862938 174.916854 
L 372.05775 174.995879 
L 372.220093 174.766671 
L 372.479843 173.86721 
L 372.836999 171.650707 
L 373.356498 166.771864 
L 374.330559 154.877929 
L 375.207214 145.265991 
L 375.694244 141.971912 
L 376.018931 140.947698 
L 376.213744 140.840134 
L 376.376087 141.055717 
L 376.603368 141.834988 
L 376.928055 143.921904 
L 377.350148 148.303012 
L 377.902116 156.592437 
L 378.713834 172.61034 
L 380.434675 207.436152 
L 381.019111 214.926896 
L 381.441204 218.000722 
L 381.733423 218.869068 
L 381.895766 218.896082 
L 382.05811 218.598955 
L 382.285391 217.647735 
L 382.610078 215.250222 
L 383.06464 210.036348 
L 383.714014 199.646436 
L 385.954354 161.168194 
L 386.441385 157.183821 
L 386.766072 156.022519 
L 386.960884 155.929826 
L 387.123227 156.201972 
L 387.350508 157.112293 
L 387.675195 159.452344 
L 388.129757 164.623241 
L 388.746662 174.531946 
L 389.948004 198.485115 
L 390.922065 215.813152 
L 391.506502 222.844981 
L 391.961064 225.981046 
L 392.253282 226.846047 
L 392.448094 226.923704 
L 392.610438 226.691395 
L 392.870187 225.782798 
L 393.227343 223.544245 
L 393.746842 218.610839 
L 394.688435 206.94714 
L 395.597558 196.660847 
L 396.117058 193.02684 
L 396.441745 191.973044 
L 396.636557 191.848186 
L 396.7989 192.049033 
L 397.026181 192.806382 
L 397.350868 194.857358 
L 397.772961 199.178809 
L 398.324929 207.357859 
L 398.487273 210.222284 
L 398.487273 210.222284 
" style="fill:none;stroke:#1f77b4;stroke-linecap:square;stroke-width:1.5;"/>
   </g>
   <g id="patch_3">
    <path d="M 57.6 307.584 
L 57.6 41.472 
" style="fill:none;stroke:#000000;stroke-linecap:square;stroke-linejoin:miter;stroke-width:0.8;"/>
   </g>
   <g id="patch_4">
    <path d="M 414.72 307.584 
L 414.72 41.472 
" style="fill:none;stroke:#000000;stroke-linecap:square;stroke-linejoin:miter;stroke-width:0.8;"/>
   </g>
   <g id="patch_5">
    <path d="M 57.6 307.584 
L 414.72 307.584 
" style="fill:none;stroke:#000000;stroke-linecap:square;stroke-linejoin:miter;stroke-width:0.8;"/>
   </g>
   <g id="patch_6">
    <path d="M 57.6 41.472 
L 414.72 41.472 
" style="fill:none;stroke:#000000;stroke-linecap:square;stroke-linejoin:miter;stroke-width:0.8;"/>
   </g>
   <g id="text_12">
    <!-- A very nonlinear function -->
    <defs>
     <path d="M 34.1875 63.1875 
L 20.796875 26.90625 
L 47.609375 26.90625 
z
M 28.609375 72.90625 
L 39.796875 72.90625 
L 67.578125 0 
L 57.328125 0 
L 50.6875 18.703125 
L 17.828125 18.703125 
L 11.1875 0 
L 0.78125 0 
z
" id="DejaVuSans-65"/>
     <path id="DejaVuSans-32"/>
     <path d="M 2.984375 54.6875 
L 12.5 54.6875 
L 29.59375 8.796875 
L 46.6875 54.6875 
L 56.203125 54.6875 
L 35.6875 0 
L 23.484375 0 
z
" id="DejaVuSans-118"/>
     <path d="M 56.203125 29.59375 
L 56.203125 25.203125 
L 14.890625 25.203125 
Q 15.484375 15.921875 20.484375 11.0625 
Q 25.484375 6.203125 34.421875 6.203125 
Q 39.59375 6.203125 44.453125 7.46875 
Q 49.3125 8.734375 54.109375 11.28125 
L 54.109375 2.78125 
Q 49.265625 0.734375 44.1875 -0.34375 
Q 39.109375 -1.421875 33.890625 -1.421875 
Q 20.796875 -1.421875 13.15625 6.1875 
Q 5.515625 13.8125 5.515625 26.8125 
Q 5.515625 40.234375 12.765625 48.109375 
Q 20.015625 56 32.328125 56 
Q 43.359375 56 49.78125 48.890625 
Q 56.203125 41.796875 56.203125 29.59375 
z
M 47.21875 32.234375 
Q 47.125 39.59375 43.09375 43.984375 
Q 39.0625 48.390625 32.421875 48.390625 
Q 24.90625 48.390625 20.390625 44.140625 
Q 15.875 39.890625 15.1875 32.171875 
z
" id="DejaVuSans-101"/>
     <path d="M 41.109375 46.296875 
Q 39.59375 47.171875 37.8125 47.578125 
Q 36.03125 48 33.890625 48 
Q 26.265625 48 22.1875 43.046875 
Q 18.109375 38.09375 18.109375 28.8125 
L 18.109375 0 
L 9.078125 0 
L 9.078125 54.6875 
L 18.109375 54.6875 
L 18.109375 46.1875 
Q 20.953125 51.171875 25.484375 53.578125 
Q 30.03125 56 36.53125 56 
Q 37.453125 56 38.578125 55.875 
Q 39.703125 55.765625 41.0625 55.515625 
z
" id="DejaVuSans-114"/>
     <path d="M 32.171875 -5.078125 
Q 28.375 -14.84375 24.75 -17.8125 
Q 21.140625 -20.796875 15.09375 -20.796875 
L 7.90625 -20.796875 
L 7.90625 -13.28125 
L 13.1875 -13.28125 
Q 16.890625 -13.28125 18.9375 -11.515625 
Q 21 -9.765625 23.484375 -3.21875 
L 25.09375 0.875 
L 2.984375 54.6875 
L 12.5 54.6875 
L 29.59375 11.921875 
L 46.6875 54.6875 
L 56.203125 54.6875 
z
" id="DejaVuSans-121"/>
     <path d="M 54.890625 33.015625 
L 54.890625 0 
L 45.90625 0 
L 45.90625 32.71875 
Q 45.90625 40.484375 42.875 44.328125 
Q 39.84375 48.1875 33.796875 48.1875 
Q 26.515625 48.1875 22.3125 43.546875 
Q 18.109375 38.921875 18.109375 30.90625 
L 18.109375 0 
L 9.078125 0 
L 9.078125 54.6875 
L 18.109375 54.6875 
L 18.109375 46.1875 
Q 21.34375 51.125 25.703125 53.5625 
Q 30.078125 56 35.796875 56 
Q 45.21875 56 50.046875 50.171875 
Q 54.890625 44.34375 54.890625 33.015625 
z
" id="DejaVuSans-110"/>
     <path d="M 30.609375 48.390625 
Q 23.390625 48.390625 19.1875 42.75 
Q 14.984375 37.109375 14.984375 27.296875 
Q 14.984375 17.484375 19.15625 11.84375 
Q 23.34375 6.203125 30.609375 6.203125 
Q 37.796875 6.203125 41.984375 11.859375 
Q 46.1875 17.53125 46.1875 27.296875 
Q 46.1875 37.015625 41.984375 42.703125 
Q 37.796875 48.390625 30.609375 48.390625 
z
M 30.609375 56 
Q 42.328125 56 49.015625 48.375 
Q 55.71875 40.765625 55.71875 27.296875 
Q 55.71875 13.875 49.015625 6.21875 
Q 42.328125 -1.421875 30.609375 -1.421875 
Q 18.84375 -1.421875 12.171875 6.21875 
Q 5.515625 13.875 5.515625 27.296875 
Q 5.515625 40.765625 12.171875 48.375 
Q 18.84375 56 30.609375 56 
z
" id="DejaVuSans-111"/>
     <path d="M 9.421875 75.984375 
L 18.40625 75.984375 
L 18.40625 0 
L 9.421875 0 
z
" id="DejaVuSans-108"/>
     <path d="M 9.421875 54.6875 
L 18.40625 54.6875 
L 18.40625 0 
L 9.421875 0 
z
M 9.421875 75.984375 
L 18.40625 75.984375 
L 18.40625 64.59375 
L 9.421875 64.59375 
z
" id="DejaVuSans-105"/>
     <path d="M 34.28125 27.484375 
Q 23.390625 27.484375 19.1875 25 
Q 14.984375 22.515625 14.984375 16.5 
Q 14.984375 11.71875 18.140625 8.90625 
Q 21.296875 6.109375 26.703125 6.109375 
Q 34.1875 6.109375 38.703125 11.40625 
Q 43.21875 16.703125 43.21875 25.484375 
L 43.21875 27.484375 
z
M 52.203125 31.203125 
L 52.203125 0 
L 43.21875 0 
L 43.21875 8.296875 
Q 40.140625 3.328125 35.546875 0.953125 
Q 30.953125 -1.421875 24.3125 -1.421875 
Q 15.921875 -1.421875 10.953125 3.296875 
Q 6 8.015625 6 15.921875 
Q 6 25.140625 12.171875 29.828125 
Q 18.359375 34.515625 30.609375 34.515625 
L 43.21875 34.515625 
L 43.21875 35.40625 
Q 43.21875 41.609375 39.140625 45 
Q 35.0625 48.390625 27.6875 48.390625 
Q 23 48.390625 18.546875 47.265625 
Q 14.109375 46.140625 10.015625 43.890625 
L 10.015625 52.203125 
Q 14.9375 54.109375 19.578125 55.046875 
Q 24.21875 56 28.609375 56 
Q 40.484375 56 46.34375 49.84375 
Q 52.203125 43.703125 52.203125 31.203125 
z
" id="DejaVuSans-97"/>
     <path d="M 37.109375 75.984375 
L 37.109375 68.5 
L 28.515625 68.5 
Q 23.6875 68.5 21.796875 66.546875 
Q 19.921875 64.59375 19.921875 59.515625 
L 19.921875 54.6875 
L 34.71875 54.6875 
L 34.71875 47.703125 
L 19.921875 47.703125 
L 19.921875 0 
L 10.890625 0 
L 10.890625 47.703125 
L 2.296875 47.703125 
L 2.296875 54.6875 
L 10.890625 54.6875 
L 10.890625 58.5 
Q 10.890625 67.625 15.140625 71.796875 
Q 19.390625 75.984375 28.609375 75.984375 
z
" id="DejaVuSans-102"/>
     <path d="M 8.5 21.578125 
L 8.5 54.6875 
L 17.484375 54.6875 
L 17.484375 21.921875 
Q 17.484375 14.15625 20.5 10.265625 
Q 23.53125 6.390625 29.59375 6.390625 
Q 36.859375 6.390625 41.078125 11.03125 
Q 45.3125 15.671875 45.3125 23.6875 
L 45.3125 54.6875 
L 54.296875 54.6875 
L 54.296875 0 
L 45.3125 0 
L 45.3125 8.40625 
Q 42.046875 3.421875 37.71875 1 
Q 33.40625 -1.421875 27.6875 -1.421875 
Q 18.265625 -1.421875 13.375 4.4375 
Q 8.5 10.296875 8.5 21.578125 
z
M 31.109375 56 
z
" id="DejaVuSans-117"/>
     <path d="M 48.78125 52.59375 
L 48.78125 44.1875 
Q 44.96875 46.296875 41.140625 47.34375 
Q 37.3125 48.390625 33.40625 48.390625 
Q 24.65625 48.390625 19.8125 42.84375 
Q 14.984375 37.3125 14.984375 27.296875 
Q 14.984375 17.28125 19.8125 11.734375 
Q 24.65625 6.203125 33.40625 6.203125 
Q 37.3125 6.203125 41.140625 7.25 
Q 44.96875 8.296875 48.78125 10.40625 
L 48.78125 2.09375 
Q 45.015625 0.34375 40.984375 -0.53125 
Q 36.96875 -1.421875 32.421875 -1.421875 
Q 20.0625 -1.421875 12.78125 6.34375 
Q 5.515625 14.109375 5.515625 27.296875 
Q 5.515625 40.671875 12.859375 48.328125 
Q 20.21875 56 33.015625 56 
Q 37.15625 56 41.109375 55.140625 
Q 45.0625 54.296875 48.78125 52.59375 
z
" id="DejaVuSans-99"/>
     <path d="M 18.3125 70.21875 
L 18.3125 54.6875 
L 36.8125 54.6875 
L 36.8125 47.703125 
L 18.3125 47.703125 
L 18.3125 18.015625 
Q 18.3125 11.328125 20.140625 9.421875 
Q 21.96875 7.515625 27.59375 7.515625 
L 36.8125 7.515625 
L 36.8125 0 
L 27.59375 0 
Q 17.1875 0 13.234375 3.875 
Q 9.28125 7.765625 9.28125 18.015625 
L 9.28125 47.703125 
L 2.6875 47.703125 
L 2.6875 54.6875 
L 9.28125 54.6875 
L 9.28125 70.21875 
z
" id="DejaVuSans-116"/>
    </defs>
    <g transform="translate(160.317187 35.472)scale(0.12 -0.12)">
     <use xlink:href="#DejaVuSans-65"/>
     <use x="68.408203" xlink:href="#DejaVuSans-32"/>
     <use x="100.195312" xlink:href="#DejaVuSans-118"/>
     <use x="159.375" xlink:href="#DejaVuSans-101"/>
     <use x="220.898438" xlink:href="#DejaVuSans-114"/>
     <use x="262.011719" xlink:href="#DejaVuSans-121"/>
     <use x="321.191406" xlink:href="#DejaVuSans-32"/>
     <use x="352.978516" xlink:href="#DejaVuSans-110"/>
     <use x="416.357422" xlink:href="#DejaVuSans-111"/>
     <use x="477.539062" xlink:href="#DejaVuSans-110"/>
     <use x="540.917969" xlink:href="#DejaVuSans-108"/>
     <use x="568.701172" xlink:href="#DejaVuSans-105"/>
     <use x="596.484375" xlink:href="#DejaVuSans-110"/>
     <use x="659.863281" xlink:href="#DejaVuSans-101"/>
     <use x="721.386719" xlink:href="#DejaVuSans-97"/>
     <use x="782.666016" xlink:href="#DejaVuSans-114"/>
     <use x="823.779297" xlink:href="#DejaVuSans-32"/>
     <use x="855.566406" xlink:href="#DejaVuSans-102"/>
     <use x="890.771484" xlink:href="#DejaVuSans-117"/>
     <use x="954.150391" xlink:href="#DejaVuSans-110"/>
     <use x="1017.529297" xlink:href="#DejaVuSans-99"/>
     <use x="1072.509766" xlink:href="#DejaVuSans-116"/>
     <use x="1111.71875" xlink:href="#DejaVuSans-105"/>
     <use x="1139.501953" xlink:href="#DejaVuSans-111"/>
     <use x="1200.683594" xlink:href="#DejaVuSans-110"/>
    </g>
   </g>
  </g>
 </g>
 <defs>
  <clipPath id="p56c9dd74ca">
   <rect height="266.112" width="357.12" x="57.6" y="41.472"/>
  </clipPath>
 </defs>
</svg>
