<svg version="1.1" viewBox="0.0 0.0 258.15485564304464 250.35958005249344" fill="none" stroke="none" stroke-linecap="square" stroke-miterlimit="10" xmlns:xlink="http://www.w3.org/1999/xlink" xmlns="http://www.w3.org/2000/svg"><clipPath id="p.0"><path d="m0 0l258.15485 0l0 250.35957l-258.15485 0l0 -250.35957z" clip-rule="nonzero"/></clipPath><g clip-path="url(#p.0)"><path fill="#000000" fill-opacity="0.0" d="m0 0l258.15485 0l0 250.35957l-258.15485 0z" fill-rule="evenodd"/><path fill="#ffffff" d="m47.74803 40.32021l66.83465 0l0 66.83464l-66.83465 0z" fill-rule="evenodd"/><path fill="#000000" fill-opacity="0.0" d="m8.0 57.57874l39.74803 0l0 32.31496l-39.74803 0z" fill-rule="evenodd"/><path fill="#000000" d="m18.639664 76.81874l0 -6.984375l0.890625 0l0 2.921875l3.25 0l0 -2.921875l0.890625 0l0 6.984375l-0.890625 0l0 -3.296875l-3.25 0l0 3.296875l-0.890625 0zm8.885452 0.125q-0.484375 0 -0.921875 -0.171875q-0.421875 -0.1875 -0.75 -0.53125q-0.328125 -0.34375 -0.53125 -0.84375q-0.203125 -0.515625 -0.203125 -1.15625q0 -0.65625 0.203125 -1.15625q0.203125 -0.5 0.53125 -0.84375q0.328125 -0.359375 0.75 -0.546875q0.4375 -0.1875 0.921875 -0.1875q0.484375 0 0.90625 0.1875q0.4375 0.1875 0.765625 0.546875q0.328125 0.34375 0.515625 0.84375q0.203125 0.5 0.203125 1.15625q0 0.640625 -0.203125 1.15625q-0.1875 0.5 -0.515625 0.84375q-0.328125 0.34375 -0.765625 0.53125q-0.421875 0.171875 -0.90625 0.171875zm0 -0.71875q0.328125 0 0.59375 -0.140625q0.28125 -0.15625 0.484375 -0.40625q0.203125 -0.265625 0.296875 -0.625q0.109375 -0.359375 0.109375 -0.8125q0 -0.453125 -0.109375 -0.8125q-0.09375 -0.375 -0.296875 -0.640625q-0.203125 -0.265625 -0.484375 -0.40625q-0.265625 -0.140625 -0.59375 -0.140625q-0.328125 0 -0.609375 0.140625q-0.28125 0.140625 -0.484375 0.40625q-0.1875 0.265625 -0.296875 0.640625q-0.109375 0.359375 -0.109375 0.8125q0 0.453125 0.109375 0.8125q0.109375 0.359375 0.296875 0.625q0.203125 0.25 0.484375 0.40625q0.28125 0.140625 0.609375 0.140625zm4.5726166 0.59375l-1.4375 -5.171875l0.90625 0l0.765625 2.984375q0.078125 0.375 0.15625 0.734375q0.078125 0.34375 0.15625 0.703125l0.03125 0q0.09375 -0.359375 0.171875 -0.71875q0.09375 -0.359375 0.1875 -0.71875l0.796875 -2.984375l0.84375 0l0.8125 2.984375q0.09375 0.375 0.1875 0.734375q0.09375 0.34375 0.1875 0.703125l0.03125 0q0.09375 -0.359375 0.15625 -0.703125q0.078125 -0.359375 0.171875 -0.734375l0.75 -2.984375l0.828125 0l-1.375 5.171875l-1.078125 0l-0.734375 -2.78125q-0.09375 -0.375 -0.1875 -0.734375q-0.078125 -0.359375 -0.171875 -0.75l-0.046875 0q-0.078125 0.390625 -0.171875 0.765625q-0.078125 0.359375 -0.1875 0.734375l-0.71875 2.765625l-1.03125 0z" fill-rule="nonzero"/><path fill="#000000" fill-opacity="0.0" d="m8.0 124.419945l39.74803 0l0 32.314964l-39.74803 0z" fill-rule="evenodd"/><path fill="#000000" d="m22.75946 143.78494q-0.640625 0 -1.078125 -0.375q-0.4375 -0.390625 -0.4375 -1.09375q0 -0.84375 0.75 -1.296875q0.765625 -0.453125 2.4375 -0.640625q0 -0.25 -0.046875 -0.484375q-0.046875 -0.234375 -0.171875 -0.40625q-0.109375 -0.1875 -0.328125 -0.296875q-0.203125 -0.109375 -0.515625 -0.109375q-0.453125 0 -0.859375 0.171875q-0.390625 0.171875 -0.6875 0.375l-0.34375 -0.609375q0.359375 -0.234375 0.875 -0.453125q0.53125 -0.21875 1.15625 -0.21875q0.953125 0 1.375 0.59375q0.421875 0.578125 0.421875 1.546875l0 3.171875l-0.71875 0l-0.078125 -0.625l-0.03125 0q-0.375 0.3125 -0.796875 0.53125q-0.421875 0.21875 -0.921875 0.21875zm0.265625 -0.703125q0.375 0 0.703125 -0.171875q0.328125 -0.171875 0.703125 -0.515625l0 -1.4375q-0.65625 0.078125 -1.109375 0.203125q-0.4375 0.109375 -0.703125 0.28125q-0.265625 0.15625 -0.390625 0.359375q-0.125 0.203125 -0.125 0.453125q0 0.453125 0.265625 0.640625q0.265625 0.1875 0.65625 0.1875zm3.9176788 0.578125l0 -5.171875l0.71875 0l0.078125 0.9375l0.03125 0q0.265625 -0.5 0.640625 -0.78125q0.390625 -0.296875 0.828125 -0.296875q0.3125 0 0.5625 0.109375l-0.171875 0.765625q-0.125 -0.03125 -0.234375 -0.046875q-0.109375 -0.03125 -0.265625 -0.03125q-0.328125 0 -0.6875 0.265625q-0.359375 0.265625 -0.625 0.921875l0 3.328125l-0.875 0zm5.791504 0.125q-0.515625 0 -0.96875 -0.1875q-0.453125 -0.1875 -0.796875 -0.53125q-0.328125 -0.34375 -0.53125 -0.84375q-0.1875 -0.5 -0.1875 -1.140625q0 -0.640625 0.203125 -1.140625q0.203125 -0.515625 0.515625 -0.859375q0.328125 -0.359375 0.734375 -0.546875q0.421875 -0.1875 0.875 -0.1875q0.484375 0 0.875 0.171875q0.390625 0.171875 0.65625 0.5q0.265625 0.3125 0.390625 0.765625q0.140625 0.4375 0.140625 1.0q0 0.140625 0 0.28125q0 0.125 -0.03125 0.21875l-3.484375 0q0.046875 0.828125 0.5 1.3125q0.46875 0.484375 1.21875 0.484375q0.375 0 0.6875 -0.109375q0.3125 -0.109375 0.609375 -0.296875l0.296875 0.578125q-0.328125 0.21875 -0.75 0.375q-0.421875 0.15625 -0.953125 0.15625zm-1.625 -3.125l2.765625 0q0 -0.796875 -0.34375 -1.203125q-0.328125 -0.40625 -0.9375 -0.40625q-0.265625 0 -0.515625 0.109375q-0.25 0.09375 -0.453125 0.3125q-0.203125 0.203125 -0.34375 0.5q-0.125 0.296875 -0.171875 0.6875z" fill-rule="nonzero"/><path fill="#000000" fill-opacity="0.0" d="m8.0 191.25984l39.74803 0l0 32.314957l-39.74803 0z" fill-rule="evenodd"/><path fill="#000000" d="m20.552483 212.73422q-0.171875 0 -0.328125 -0.03125q-0.140625 -0.03125 -0.265625 -0.078125l0.15625 -0.703125q0.09375 0.03125 0.203125 0.046875q0.109375 0.03125 0.203125 0.03125q0.4375 0 0.71875 -0.3125q0.28125 -0.3125 0.453125 -0.796875l0.109375 -0.375l-2.078125 -5.1875l0.90625 0l1.0625 2.859375q0.109375 0.34375 0.234375 0.71875q0.140625 0.375 0.265625 0.734375l0.03125 0q0.125 -0.34375 0.234375 -0.71875q0.109375 -0.390625 0.203125 -0.734375l0.9375 -2.859375l0.84375 0l-1.9375 5.59375q-0.140625 0.390625 -0.3125 0.71875q-0.171875 0.328125 -0.40625 0.5625q-0.234375 0.25 -0.53125 0.390625q-0.296875 0.140625 -0.703125 0.140625zm6.9140167 -2.109375q-0.484375 0 -0.921875 -0.171875q-0.421875 -0.1875 -0.75 -0.53125q-0.328125 -0.34375 -0.53125 -0.84375q-0.203125 -0.515625 -0.203125 -1.15625q0 -0.65625 0.203125 -1.15625q0.203125 -0.5 0.53125 -0.84375q0.328125 -0.359375 0.75 -0.546875q0.4375 -0.1875 0.921875 -0.1875q0.484375 0 0.90625 0.1875q0.4375 0.1875 0.765625 0.546875q0.328125 0.34375 0.515625 0.84375q0.203125 0.5 0.203125 1.15625q0 0.640625 -0.203125 1.15625q-0.1875 0.5 -0.515625 0.84375q-0.328125 0.34375 -0.765625 0.53125q-0.421875 0.171875 -0.90625 0.171875zm0 -0.71875q0.328125 0 0.59375 -0.140625q0.28125 -0.15625 0.484375 -0.40625q0.203125 -0.265625 0.296875 -0.625q0.109375 -0.359375 0.109375 -0.8125q0 -0.453125 -0.109375 -0.8125q-0.09375 -0.375 -0.296875 -0.640625q-0.203125 -0.265625 -0.484375 -0.40625q-0.265625 -0.140625 -0.59375 -0.140625q-0.328125 0 -0.609375 0.140625q-0.28125 0.140625 -0.484375 0.40625q-0.1875 0.265625 -0.296875 0.640625q-0.109375 0.359375 -0.109375 0.8125q0 0.453125 0.109375 0.8125q0.109375 0.359375 0.296875 0.625q0.203125 0.25 0.484375 0.40625q0.28125 0.140625 0.609375 0.140625zm5.2757416 0.71875q-0.828125 0 -1.21875 -0.5q-0.375 -0.515625 -0.375 -1.515625l0 -3.28125l0.890625 0l0 3.15625q0 0.734375 0.21875 1.0625q0.234375 0.328125 0.75 0.328125q0.40625 0 0.703125 -0.203125q0.3125 -0.21875 0.6875 -0.671875l0 -3.671875l0.875 0l0 5.171875l-0.71875 0l-0.078125 -0.8125l-0.03125 0q-0.359375 0.421875 -0.765625 0.6875q-0.390625 0.25 -0.9375 0.25z" fill-rule="nonzero"/><path fill="#000000" fill-opacity="0.0" d="m47.74803 8.0l66.83465 0l0 32.31496l-66.83465 0z" fill-rule="evenodd"/><path fill="#000000" d="m62.65213 27.365q-0.671875 0 -1.234375 -0.234375q-0.546875 -0.25 -0.953125 -0.71875q-0.40625 -0.46875 -0.640625 -1.140625q-0.234375 -0.671875 -0.234375 -1.53125q0 -0.84375 0.234375 -1.515625q0.234375 -0.671875 0.65625 -1.140625q0.421875 -0.46875 0.984375 -0.71875q0.5625 -0.25 1.234375 -0.25q0.640625 0 1.125 0.265625q0.484375 0.265625 0.796875 0.609375l-0.484375 0.5625q-0.28125 -0.296875 -0.640625 -0.46875q-0.34375 -0.1875 -0.78125 -0.1875q-0.5 0 -0.90625 0.203125q-0.40625 0.1875 -0.703125 0.5625q-0.28125 0.359375 -0.4375 0.890625q-0.15625 0.515625 -0.15625 1.171875q0 0.65625 0.15625 1.1875q0.15625 0.53125 0.421875 0.90625q0.28125 0.359375 0.6875 0.5625q0.40625 0.203125 0.90625 0.203125q0.5 0 0.875 -0.203125q0.390625 -0.203125 0.734375 -0.578125l0.5 0.546875q-0.421875 0.484375 -0.953125 0.75q-0.515625 0.265625 -1.1875 0.265625zm5.366028 0q-0.484375 0 -0.921875 -0.171875q-0.421875 -0.1875 -0.75 -0.53125q-0.328125 -0.34375 -0.53125 -0.84375q-0.203125 -0.515625 -0.203125 -1.15625q0 -0.65625 0.203125 -1.15625q0.203125 -0.5 0.53125 -0.84375q0.328125 -0.359375 0.75 -0.546875q0.4375 -0.1875 0.921875 -0.1875q0.484375 0 0.90625 0.1875q0.4375 0.1875 0.765625 0.546875q0.328125 0.34375 0.515625 0.84375q0.203125 0.5 0.203125 1.15625q0 0.640625 -0.203125 1.15625q-0.1875 0.5 -0.515625 0.84375q-0.328125 0.34375 -0.765625 0.53125q-0.421875 0.171875 -0.90625 0.171875zm0 -0.71875q0.328125 0 0.59375 -0.140625q0.28125 -0.15625 0.484375 -0.40625q0.203125 -0.265625 0.296875 -0.625q0.109375 -0.359375 0.109375 -0.8125q0 -0.453125 -0.109375 -0.8125q-0.09375 -0.375 -0.296875 -0.640625q-0.203125 -0.265625 -0.484375 -0.40625q-0.265625 -0.140625 -0.59375 -0.140625q-0.328125 0 -0.609375 0.140625q-0.28125 0.140625 -0.484375 0.40625q-0.1875 0.265625 -0.296875 0.640625q-0.109375 0.359375 -0.109375 0.8125q0 0.453125 0.109375 0.8125q0.109375 0.359375 0.296875 0.625q0.203125 0.25 0.484375 0.40625q0.28125 0.140625 0.609375 0.140625zm3.7601166 0.59375l0 -5.171875l0.71875 0l0.078125 0.734375l0.03125 0q0.34375 -0.375 0.734375 -0.625q0.40625 -0.25 0.875 -0.25q0.59375 0 0.921875 0.265625q0.34375 0.265625 0.5 0.734375q0.40625 -0.453125 0.8125 -0.71875q0.421875 -0.28125 0.90625 -0.28125q0.796875 0 1.1875 0.515625q0.390625 0.515625 0.390625 1.515625l0 3.28125l-0.875 0l0 -3.171875q0 -0.734375 -0.234375 -1.046875q-0.234375 -0.328125 -0.734375 -0.328125q-0.578125 0 -1.296875 0.796875l0 3.75l-0.875 0l0 -3.171875q0 -0.734375 -0.234375 -1.046875q-0.234375 -0.328125 -0.734375 -0.328125q-0.578125 0 -1.296875 0.796875l0 3.75l-0.875 0zm8.834122 0l0 -5.171875l0.71875 0l0.078125 0.734375l0.03125 0q0.34375 -0.375 0.734375 -0.625q0.40625 -0.25 0.875 -0.25q0.59375 0 0.921875 0.265625q0.34375 0.265625 0.5 0.734375q0.40625 -0.453125 0.8125 -0.71875q0.421875 -0.28125 0.90625 -0.28125q0.796875 0 1.1875 0.515625q0.390625 0.515625 0.390625 1.515625l0 3.28125l-0.875 0l0 -3.171875q0 -0.734375 -0.234375 -1.046875q-0.234375 -0.328125 -0.734375 -0.328125q-0.578125 0 -1.296875 0.796875l0 3.75l-0.875 0l0 -3.171875q0 -0.734375 -0.234375 -1.046875q-0.234375 -0.328125 -0.734375 -0.328125q-0.578125 0 -1.296875 0.796875l0 3.75l-0.875 0zm10.927872 0.125q-0.515625 0 -0.96875 -0.1875q-0.453125 -0.1875 -0.796875 -0.53125q-0.328125 -0.34375 -0.53125 -0.84375q-0.1875 -0.5 -0.1875 -1.140625q0 -0.640625 0.203125 -1.140625q0.203125 -0.515625 0.515625 -0.859375q0.328125 -0.359375 0.734375 -0.546875q0.421875 -0.1875 0.875 -0.1875q0.484375 0 0.875 0.171875q0.390625 0.171875 0.65625 0.5q0.265625 0.3125 0.390625 0.765625q0.140625 0.4375 0.140625 1.0q0 0.140625 0 0.28125q0 0.125 -0.03125 0.21875l-3.484375 0q0.046875 0.828125 0.5 1.3125q0.46875 0.484375 1.21875 0.484375q0.375 0 0.6875 -0.109375q0.3125 -0.109375 0.609375 -0.296875l0.296875 0.578125q-0.328125 0.21875 -0.75 0.375q-0.421875 0.15625 -0.953125 0.15625zm-1.625 -3.125l2.765625 0q0 -0.796875 -0.34375 -1.203125q-0.328125 -0.40625 -0.9375 -0.40625q-0.265625 0 -0.515625 0.109375q-0.25 0.09375 -0.453125 0.3125q-0.203125 0.203125 -0.34375 0.5q-0.125 0.296875 -0.171875 0.6875zm4.816803 3.0l0 -5.171875l0.71875 0l0.078125 0.734375l0.03125 0q0.375 -0.375 0.78125 -0.625q0.421875 -0.25 0.953125 -0.25q0.828125 0 1.203125 0.515625q0.375 0.515625 0.375 1.515625l0 3.28125l-0.875 0l0 -3.171875q0 -0.734375 -0.234375 -1.046875q-0.234375 -0.328125 -0.734375 -0.328125q-0.40625 0 -0.71875 0.203125q-0.3125 0.203125 -0.703125 0.59375l0 3.75l-0.875 0zm7.4540253 0.125q-0.40625 0 -0.6875 -0.125q-0.28125 -0.125 -0.46875 -0.34375q-0.171875 -0.234375 -0.25 -0.546875q-0.078125 -0.328125 -0.078125 -0.703125l0 -2.875l-0.765625 0l0 -0.65625l0.8125 -0.046875l0.109375 -1.453125l0.734375 0l0 1.453125l1.390625 0l0 0.703125l-1.390625 0l0 2.875q0 0.484375 0.171875 0.75q0.1875 0.25 0.625 0.25q0.140625 0 0.296875 -0.03125q0.171875 -0.046875 0.296875 -0.09375l0.171875 0.65625q-0.21875 0.078125 -0.46875 0.125q-0.25 0.0625 -0.5 0.0625z" fill-rule="nonzero"/><path fill="#000000" fill-opacity="0.0" d="m114.58268 8.0l66.83465 0l0 32.31496l-66.83465 0z" fill-rule="evenodd"/><path fill="#000000" d="m142.59383 27.24l-1.875 -5.171875l0.90625 0l0.984375 2.9375q0.109375 0.375 0.234375 0.765625q0.125 0.375 0.25 0.75l0.03125 0q0.125 -0.375 0.234375 -0.75q0.125 -0.390625 0.234375 -0.765625l0.984375 -2.9375l0.859375 0l-1.828125 5.171875l-1.015625 0zm5.0390167 0.125q-0.640625 0 -1.078125 -0.375q-0.4375 -0.390625 -0.4375 -1.09375q0 -0.84375 0.75 -1.296875q0.765625 -0.453125 2.4375 -0.640625q0 -0.25 -0.046875 -0.484375q-0.046875 -0.234375 -0.171875 -0.40625q-0.109375 -0.1875 -0.328125 -0.296875q-0.203125 -0.109375 -0.515625 -0.109375q-0.453125 0 -0.859375 0.171875q-0.390625 0.171875 -0.6875 0.375l-0.34375 -0.609375q0.359375 -0.234375 0.875 -0.453125q0.53125 -0.21875 1.15625 -0.21875q0.953125 0 1.375 0.59375q0.421875 0.578125 0.421875 1.546875l0 3.171875l-0.71875 0l-0.078125 -0.625l-0.03125 0q-0.375 0.3125 -0.796875 0.53125q-0.421875 0.21875 -0.921875 0.21875zm0.265625 -0.703125q0.375 0 0.703125 -0.171875q0.328125 -0.171875 0.703125 -0.515625l0 -1.4375q-0.65625 0.078125 -1.109375 0.203125q-0.4375 0.109375 -0.703125 0.28125q-0.265625 0.15625 -0.390625 0.359375q-0.125 0.203125 -0.125 0.453125q0 0.453125 0.265625 0.640625q0.265625 0.1875 0.65625 0.1875zm5.277054 0.703125q-0.5625 0 -1.0625 -0.203125q-0.5 -0.203125 -0.875 -0.515625l0.4375 -0.578125q0.34375 0.28125 0.703125 0.453125q0.359375 0.171875 0.828125 0.171875q0.5 0 0.75 -0.234375q0.265625 -0.234375 0.265625 -0.578125q0 -0.203125 -0.109375 -0.34375q-0.109375 -0.15625 -0.28125 -0.265625q-0.15625 -0.125 -0.375 -0.203125q-0.203125 -0.09375 -0.421875 -0.171875q-0.265625 -0.09375 -0.546875 -0.21875q-0.28125 -0.125 -0.5 -0.296875q-0.21875 -0.171875 -0.359375 -0.40625q-0.140625 -0.234375 -0.140625 -0.578125q0 -0.296875 0.125 -0.5625q0.125 -0.28125 0.34375 -0.46875q0.234375 -0.203125 0.5625 -0.3125q0.34375 -0.125 0.75 -0.125q0.5 0 0.90625 0.171875q0.40625 0.171875 0.703125 0.421875l-0.40625 0.546875q-0.265625 -0.203125 -0.5625 -0.328125q-0.28125 -0.125 -0.625 -0.125q-0.484375 0 -0.71875 0.234375q-0.234375 0.21875 -0.234375 0.515625q0 0.171875 0.09375 0.3125q0.109375 0.125 0.265625 0.234375q0.15625 0.09375 0.359375 0.1875q0.21875 0.078125 0.4375 0.15625q0.28125 0.109375 0.5625 0.234375q0.28125 0.109375 0.5 0.28125q0.234375 0.171875 0.375 0.4375q0.140625 0.25 0.140625 0.609375q0 0.328125 -0.125 0.609375q-0.125 0.265625 -0.359375 0.484375q-0.234375 0.203125 -0.59375 0.328125q-0.359375 0.125 -0.8125 0.125z" fill-rule="nonzero"/><path fill="#000000" fill-opacity="0.0" d="m181.41733 8.0l66.83464 0l0 32.31496l-66.83464 0z" fill-rule="evenodd"/><path fill="#000000" d="m212.6352 27.365q-0.40625 0 -0.6875 -0.125q-0.28125 -0.125 -0.46875 -0.34375q-0.171875 -0.234375 -0.25 -0.546875q-0.078125 -0.328125 -0.078125 -0.703125l0 -2.875l-0.765625 0l0 -0.65625l0.8125 -0.046875l0.109375 -1.453125l0.734375 0l0 1.453125l1.390625 0l0 0.703125l-1.390625 0l0 2.875q0 0.484375 0.171875 0.75q0.1875 0.25 0.625 0.25q0.140625 0 0.296875 -0.03125q0.171875 -0.046875 0.296875 -0.09375l0.171875 0.65625q-0.21875 0.078125 -0.46875 0.125q-0.25 0.0625 -0.5 0.0625zm3.4924774 0q-0.828125 0 -1.21875 -0.5q-0.375 -0.515625 -0.375 -1.515625l0 -3.28125l0.890625 0l0 3.15625q0 0.734375 0.21875 1.0625q0.234375 0.328125 0.75 0.328125q0.40625 0 0.703125 -0.203125q0.3125 -0.21875 0.6875 -0.671875l0 -3.671875l0.875 0l0 5.171875l-0.71875 0l-0.078125 -0.8125l-0.03125 0q-0.359375 0.421875 -0.765625 0.6875q-0.390625 0.25 -0.9375 0.25z" fill-rule="nonzero"/><path fill="#434343" d="m114.58268 40.32021l66.83465 0l0 66.83464l-66.83465 0z" fill-rule="evenodd"/><path fill="#000000" d="m181.41733 40.32021l66.83464 0l0 66.83464l-66.83464 0z" fill-rule="evenodd"/><path fill="#ffffff" d="m114.58268 107.1601l66.83465 0l0 66.83465l-66.83465 0z" fill-rule="evenodd"/><path fill="#000000" d="m47.74803 107.1601l66.83465 0l0 66.83465l-66.83465 0z" fill-rule="evenodd"/><path fill="#000000" d="m181.41733 107.1601l66.83464 0l0 66.83465l-66.83464 0z" fill-rule="evenodd"/><path fill="#434343" d="m114.58268 174.0l66.83465 0l0 66.83464l-66.83465 0z" fill-rule="evenodd"/><path fill="#434343" d="m47.74803 174.0l66.83465 0l0 66.83464l-66.83465 0z" fill-rule="evenodd"/><path fill="#ffffff" d="m181.41733 174.0l66.83464 0l0 66.83464l-66.83464 0z" fill-rule="evenodd"/><path fill="#000000" fill-opacity="0.0" d="m47.74803 40.32021l200.53543 0l0 200.53543l-200.53543 0z" fill-rule="evenodd"/><path stroke="#595959" stroke-width="1.0" stroke-linejoin="round" stroke-linecap="butt" d="m47.74803 40.32021l200.53543 0l0 200.53543l-200.53543 0z" fill-rule="evenodd"/></g></svg>