<svg version="1.1" viewBox="0.0 0.0 552.4251968503937 338.68503937007875" fill="none" stroke="none" stroke-linecap="square" stroke-miterlimit="10" xmlns:xlink="http://www.w3.org/1999/xlink" xmlns="http://www.w3.org/2000/svg"><clipPath id="p.0"><path d="m0 0l552.4252 0l0 338.68503l-552.4252 0l0 -338.68503z" clip-rule="nonzero"/></clipPath><g clip-path="url(#p.0)"><path fill="#000000" fill-opacity="0.0" d="m0 0l552.4252 0l0 338.68503l-552.4252 0z" fill-rule="evenodd"/><path fill="#cfe2f3" d="m414.98688 267.7824l0 0c0 -6.720337 5.4479065 -12.168243 12.168213 -12.168243l48.671448 0l0 0c3.2272034 0 6.322235 1.2820129 8.604218 3.5639954c2.2819824 2.2819824 3.5639954 5.377014 3.5639954 8.604248l0 52.60843c0 6.7203064 -5.4479065 12.168213 -12.168213 12.168213l-48.671448 0c-6.7203064 0 -12.168213 -5.4479065 -12.168213 -12.168213z" fill-rule="evenodd"/><path fill="#000000" d="m449.4436 300.32886l-0.328125 1.0625l2.109375 0l-0.328125 -1.0625q-0.203125 -0.59375 -0.375 -1.171875q-0.171875 -0.578125 -0.328125 -1.1875l-0.046875 0q-0.15625 0.609375 -0.328125 1.1875q-0.171875 0.578125 -0.375 1.171875zm-2.125 3.90625l2.359375 -6.984375l1.015625 0l2.359375 6.984375l-0.953125 0l-0.65625 -2.125l-2.546875 0l-0.671875 2.125l-0.90625 0zm8.687683 0.125q-0.515625 0 -0.96875 -0.171875q-0.4375 -0.1875 -0.765625 -0.53125q-0.328125 -0.34375 -0.515625 -0.84375q-0.1875 -0.515625 -0.1875 -1.15625q0 -0.65625 0.203125 -1.15625q0.203125 -0.5 0.546875 -0.84375q0.34375 -0.359375 0.796875 -0.546875q0.453125 -0.1875 0.953125 -0.1875q0.515625 0 0.875 0.1875q0.359375 0.1875 0.640625 0.421875l-0.453125 0.578125q-0.21875 -0.203125 -0.46875 -0.328125q-0.25 -0.125 -0.5625 -0.125q-0.34375 0 -0.65625 0.140625q-0.296875 0.140625 -0.515625 0.40625q-0.203125 0.265625 -0.328125 0.640625q-0.125 0.359375 -0.125 0.8125q0 0.453125 0.109375 0.8125q0.125 0.359375 0.328125 0.625q0.21875 0.25 0.515625 0.40625q0.296875 0.140625 0.65625 0.140625q0.359375 0 0.65625 -0.15625q0.3125 -0.15625 0.546875 -0.375l0.390625 0.59375q-0.359375 0.3125 -0.78125 0.484375q-0.421875 0.171875 -0.890625 0.171875zm4.437439 0q-0.40625 0 -0.6875 -0.125q-0.28125 -0.125 -0.46875 -0.34375q-0.171875 -0.234375 -0.25 -0.546875q-0.078125 -0.328125 -0.078125 -0.703125l0 -2.875l-0.765625 0l0 -0.65625l0.8125 -0.046875l0.109375 -1.453125l0.734375 0l0 1.453125l1.390625 0l0 0.703125l-1.390625 0l0 2.875q0 0.484375 0.171875 0.75q0.1875 0.25 0.625 0.25q0.140625 0 0.296875 -0.03125q0.171875 -0.046875 0.296875 -0.09375l0.171875 0.65625q-0.21875 0.078125 -0.46875 0.125q-0.25 0.0625 -0.5 0.0625zm3.4924622 0q-0.828125 0 -1.21875 -0.5q-0.375 -0.515625 -0.375 -1.515625l0 -3.28125l0.890625 0l0 3.15625q0 0.734375 0.21875 1.0625q0.234375 0.328125 0.75 0.328125q0.40625 0 0.703125 -0.203125q0.3125 -0.21875 0.6875 -0.671875l0 -3.671875l0.875 0l0 5.171875l-0.71875 0l-0.078125 -0.8125l-0.03125 0q-0.359375 0.421875 -0.765625 0.6875q-0.390625 0.25 -0.9375 0.25zm5.468933 0q-0.640625 0 -1.078125 -0.375q-0.4375 -0.390625 -0.4375 -1.09375q0 -0.84375 0.75 -1.296875q0.765625 -0.453125 2.4375 -0.640625q0 -0.25 -0.046875 -0.484375q-0.046875 -0.234375 -0.171875 -0.40625q-0.109375 -0.1875 -0.328125 -0.296875q-0.203125 -0.109375 -0.515625 -0.109375q-0.453125 0 -0.859375 0.171875q-0.390625 0.171875 -0.6875 0.375l-0.34375 -0.609375q0.359375 -0.234375 0.875 -0.453125q0.53125 -0.21875 1.15625 -0.21875q0.953125 0 1.375 0.59375q0.421875 0.578125 0.421875 1.546875l0 3.171875l-0.71875 0l-0.078125 -0.625l-0.03125 0q-0.375 0.3125 -0.796875 0.53125q-0.421875 0.21875 -0.921875 0.21875zm0.265625 -0.703125q0.375 0 0.703125 -0.171875q0.328125 -0.171875 0.703125 -0.515625l0 -1.4375q-0.65625 0.078125 -1.109375 0.203125q-0.4375 0.109375 -0.703125 0.28125q-0.265625 0.15625 -0.390625 0.359375q-0.125 0.203125 -0.125 0.453125q0 0.453125 0.265625 0.640625q0.265625 0.1875 0.65625 0.1875zm4.839569 0.703125q-0.5 0 -0.71875 -0.296875q-0.203125 -0.296875 -0.203125 -0.875l0 -6.546875l0.875 0l0 6.609375q0 0.21875 0.0625 0.3125q0.078125 0.078125 0.1875 0.078125q0.03125 0 0.0625 0q0.046875 0 0.125 -0.03125l0.109375 0.671875q-0.078125 0.03125 -0.203125 0.046875q-0.109375 0.03125 -0.296875 0.03125z" fill-rule="nonzero"/><path fill="#000000" d="m453.00638 317.2351l-2.234375 -6.984375l0.953125 0l1.109375 3.765625q0.203125 0.625 0.34375 1.15625q0.140625 0.53125 0.34375 1.15625l0.046875 0q0.1875 -0.625 0.328125 -1.15625q0.15625 -0.53125 0.34375 -1.15625l1.109375 -3.765625l0.90625 0l-2.21875 6.984375l-1.03125 0zm5.3161316 0.125q-0.640625 0 -1.078125 -0.375q-0.4375 -0.390625 -0.4375 -1.09375q0 -0.84375 0.75 -1.296875q0.765625 -0.453125 2.4375 -0.640625q0 -0.25 -0.046875 -0.484375q-0.046875 -0.234375 -0.171875 -0.40625q-0.109375 -0.1875 -0.328125 -0.296875q-0.203125 -0.109375 -0.515625 -0.109375q-0.453125 0 -0.859375 0.171875q-0.390625 0.171875 -0.6875 0.375l-0.34375 -0.609375q0.359375 -0.234375 0.875 -0.453125q0.53125 -0.21875 1.15625 -0.21875q0.953125 0 1.375 0.59375q0.421875 0.578125 0.421875 1.546875l0 3.171875l-0.71875 0l-0.078125 -0.625l-0.03125 0q-0.375 0.3125 -0.796875 0.53125q-0.421875 0.21875 -0.921875 0.21875zm0.265625 -0.703125q0.375 0 0.703125 -0.171875q0.328125 -0.171875 0.703125 -0.515625l0 -1.4375q-0.65625 0.078125 -1.109375 0.203125q-0.4375 0.109375 -0.703125 0.28125q-0.265625 0.15625 -0.390625 0.359375q-0.125 0.203125 -0.125 0.453125q0 0.453125 0.265625 0.640625q0.265625 0.1875 0.65625 0.1875zm4.839569 0.703125q-0.5 0 -0.71875 -0.296875q-0.203125 -0.296875 -0.203125 -0.875l0 -6.546875l0.875 0l0 6.609375q0 0.21875 0.0625 0.3125q0.078125 0.078125 0.1875 0.078125q0.03125 0 0.0625 0q0.046875 0 0.125 -0.03125l0.109375 0.671875q-0.078125 0.03125 -0.203125 0.046875q-0.109375 0.03125 -0.296875 0.03125zm3.3111267 0q-0.828125 0 -1.21875 -0.5q-0.375 -0.515625 -0.375 -1.515625l0 -3.28125l0.890625 0l0 3.15625q0 0.734375 0.21875 1.0625q0.234375 0.328125 0.75 0.328125q0.40625 0 0.703125 -0.203125q0.3125 -0.21875 0.6875 -0.671875l0 -3.671875l0.875 0l0 5.171875l-0.71875 0l-0.078125 -0.8125l-0.03125 0q-0.359375 0.421875 -0.765625 0.6875q-0.390625 0.25 -0.9375 0.25zm6.375183 0q-0.515625 0 -0.96875 -0.1875q-0.453125 -0.1875 -0.796875 -0.53125q-0.328125 -0.34375 -0.53125 -0.84375q-0.1875 -0.5 -0.1875 -1.140625q0 -0.640625 0.203125 -1.140625q0.203125 -0.515625 0.515625 -0.859375q0.328125 -0.359375 0.734375 -0.546875q0.421875 -0.1875 0.875 -0.1875q0.484375 0 0.875 0.171875q0.390625 0.171875 0.65625 0.5q0.265625 0.3125 0.390625 0.765625q0.140625 0.4375 0.140625 1.0q0 0.140625 0 0.28125q0 0.125 -0.03125 0.21875l-3.484375 0q0.046875 0.828125 0.5 1.3125q0.46875 0.484375 1.21875 0.484375q0.375 0 0.6875 -0.109375q0.3125 -0.109375 0.609375 -0.296875l0.296875 0.578125q-0.328125 0.21875 -0.75 0.375q-0.421875 0.15625 -0.953125 0.15625zm-1.625 -3.125l2.765625 0q0 -0.796875 -0.34375 -1.203125q-0.328125 -0.40625 -0.9375 -0.40625q-0.265625 0 -0.515625 0.109375q-0.25 0.09375 -0.453125 0.3125q-0.203125 0.203125 -0.34375 0.5q-0.125 0.296875 -0.171875 0.6875z" fill-rule="nonzero"/><path fill="#d9d2e9" d="m208.08661 34.288857l0 0c0 -3.9226055 3.1799011 -7.1025047 7.1025085 -7.1025047l114.42493 0c1.8836975 0 3.6902466 0.74829674 5.022217 2.0802746c1.3319702 1.3319778 2.0802612 3.1385288 2.0802612 5.02223l0 28.409164c0 3.9226074 -3.1799011 7.102501 -7.102478 7.102501l-114.42493 0c-3.9226074 0 -7.1025085 -3.1798935 -7.1025085 -7.102501z" fill-rule="evenodd"/><path fill="#000000" d="m283.3779 42.960274l0 -6.984375l2.0 0q0.578125 0 1.0625 0.109375q0.484375 0.09375 0.828125 0.34375q0.34375 0.234375 0.53125 0.625q0.203125 0.390625 0.203125 0.96875q0 0.5625 -0.1875 0.96875q-0.1875 0.40625 -0.53125 0.671875q-0.34375 0.265625 -0.828125 0.40625q-0.46875 0.125 -1.03125 0.125l-1.15625 0l0 2.765625l-0.890625 0zm0.890625 -3.5l1.046875 0q0.90625 0 1.34375 -0.34375q0.453125 -0.34375 0.453125 -1.09375q0 -0.75 -0.46875 -1.046875q-0.453125 -0.296875 -1.375 -0.296875l-1.0 0l0 2.78125zm5.062744 3.5l0 -5.171875l0.71875 0l0.078125 0.9375l0.03125 0q0.265625 -0.5 0.640625 -0.78125q0.390625 -0.296875 0.828125 -0.296875q0.3125 0 0.5625 0.109375l-0.171875 0.765625q-0.125 -0.03125 -0.234375 -0.046875q-0.109375 -0.03125 -0.265625 -0.03125q-0.328125 0 -0.6875 0.265625q-0.359375 0.265625 -0.625 0.921875l0 3.328125l-0.875 0zm5.791504 0.125q-0.515625 0 -0.96875 -0.1875q-0.453125 -0.1875 -0.796875 -0.53125q-0.328125 -0.34375 -0.53125 -0.84375q-0.1875 -0.5 -0.1875 -1.140625q0 -0.640625 0.203125 -1.140625q0.203125 -0.515625 0.515625 -0.859375q0.328125 -0.359375 0.734375 -0.546875q0.421875 -0.1875 0.875 -0.1875q0.484375 0 0.875 0.171875q0.390625 0.171875 0.65625 0.5q0.265625 0.3125 0.390625 0.765625q0.140625 0.4375 0.140625 1.0q0 0.140625 0 0.28125q0 0.125 -0.03125 0.21875l-3.484375 0q0.046875 0.828125 0.5 1.3125q0.46875 0.484375 1.21875 0.484375q0.375 0 0.6875 -0.109375q0.3125 -0.109375 0.609375 -0.296875l0.296875 0.578125q-0.328125 0.21875 -0.75 0.375q-0.421875 0.15625 -0.953125 0.15625zm-1.625 -3.125l2.765625 0q0 -0.796875 -0.34375 -1.203125q-0.328125 -0.40625 -0.9375 -0.40625q-0.265625 0 -0.515625 0.109375q-0.25 0.09375 -0.453125 0.3125q-0.203125 0.203125 -0.34375 0.5q-0.125 0.296875 -0.171875 0.6875zm6.582428 3.125q-0.984375 0 -1.5625 -0.703125q-0.578125 -0.703125 -0.578125 -2.0q0 -0.625 0.1875 -1.125q0.1875 -0.515625 0.484375 -0.859375q0.3125 -0.359375 0.71875 -0.546875q0.40625 -0.203125 0.859375 -0.203125q0.453125 0 0.78125 0.171875q0.328125 0.15625 0.671875 0.4375l-0.046875 -0.890625l0 -2.0l0.890625 0l0 7.59375l-0.734375 0l-0.078125 -0.609375l-0.03125 0q-0.296875 0.296875 -0.703125 0.515625q-0.40625 0.21875 -0.859375 0.21875zm0.1875 -0.734375q0.375 0 0.6875 -0.171875q0.328125 -0.171875 0.640625 -0.546875l0 -2.703125q-0.328125 -0.296875 -0.640625 -0.421875q-0.296875 -0.125 -0.609375 -0.125q-0.3125 0 -0.59375 0.15625q-0.265625 0.140625 -0.46875 0.40625q-0.203125 0.25 -0.328125 0.625q-0.109375 0.359375 -0.109375 0.796875q0 0.9375 0.375 1.46875q0.375 0.515625 1.046875 0.515625zm3.9611511 0.609375l0 -5.171875l0.875 0l0 5.171875l-0.875 0zm0.453125 -6.25q-0.265625 0 -0.4375 -0.15625q-0.171875 -0.15625 -0.171875 -0.40625q0 -0.25 0.171875 -0.40625q0.171875 -0.15625 0.4375 -0.15625q0.25 0 0.421875 0.15625q0.171875 0.15625 0.171875 0.40625q0 0.25 -0.171875 0.40625q-0.171875 0.15625 -0.421875 0.15625zm4.21521 6.375q-0.515625 0 -0.96875 -0.171875q-0.4375 -0.1875 -0.765625 -0.53125q-0.328125 -0.34375 -0.515625 -0.84375q-0.1875 -0.515625 -0.1875 -1.15625q0 -0.65625 0.203125 -1.15625q0.203125 -0.5 0.546875 -0.84375q0.34375 -0.359375 0.796875 -0.546875q0.453125 -0.1875 0.953125 -0.1875q0.515625 0 0.875 0.1875q0.359375 0.1875 0.640625 0.421875l-0.453125 0.578125q-0.21875 -0.203125 -0.46875 -0.328125q-0.25 -0.125 -0.5625 -0.125q-0.34375 0 -0.65625 0.140625q-0.296875 0.140625 -0.515625 0.40625q-0.203125 0.265625 -0.328125 0.640625q-0.125 0.359375 -0.125 0.8125q0 0.453125 0.109375 0.8125q0.125 0.359375 0.328125 0.625q0.21875 0.25 0.515625 0.40625q0.296875 0.140625 0.65625 0.140625q0.359375 0 0.65625 -0.15625q0.3125 -0.15625 0.546875 -0.375l0.390625 0.59375q-0.359375 0.3125 -0.78125 0.484375q-0.421875 0.171875 -0.890625 0.171875zm4.4374084 0q-0.40625 0 -0.6875 -0.125q-0.28125 -0.125 -0.46875 -0.34375q-0.171875 -0.234375 -0.25 -0.546875q-0.078125 -0.328125 -0.078125 -0.703125l0 -2.875l-0.765625 0l0 -0.65625l0.8125 -0.046875l0.109375 -1.453125l0.734375 0l0 1.453125l1.390625 0l0 0.703125l-1.390625 0l0 2.875q0 0.484375 0.171875 0.75q0.1875 0.25 0.625 0.25q0.140625 0 0.296875 -0.03125q0.171875 -0.046875 0.296875 -0.09375l0.171875 0.65625q-0.21875 0.078125 -0.46875 0.125q-0.25 0.0625 -0.5 0.0625zm4.0706177 0q-0.515625 0 -0.96875 -0.1875q-0.453125 -0.1875 -0.796875 -0.53125q-0.328125 -0.34375 -0.53125 -0.84375q-0.1875 -0.5 -0.1875 -1.140625q0 -0.640625 0.203125 -1.140625q0.203125 -0.515625 0.515625 -0.859375q0.328125 -0.359375 0.734375 -0.546875q0.421875 -0.1875 0.875 -0.1875q0.484375 0 0.875 0.171875q0.390625 0.171875 0.65625 0.5q0.265625 0.3125 0.390625 0.765625q0.140625 0.4375 0.140625 1.0q0 0.140625 0 0.28125q0 0.125 -0.03125 0.21875l-3.484375 0q0.046875 0.828125 0.5 1.3125q0.46875 0.484375 1.21875 0.484375q0.375 0 0.6875 -0.109375q0.3125 -0.109375 0.609375 -0.296875l0.296875 0.578125q-0.328125 0.21875 -0.75 0.375q-0.421875 0.15625 -0.953125 0.15625zm-1.625 -3.125l2.765625 0q0 -0.796875 -0.34375 -1.203125q-0.328125 -0.40625 -0.9375 -0.40625q-0.265625 0 -0.515625 0.109375q-0.25 0.09375 -0.453125 0.3125q-0.203125 0.203125 -0.34375 0.5q-0.125 0.296875 -0.171875 0.6875zm6.582428 3.125q-0.984375 0 -1.5625 -0.703125q-0.578125 -0.703125 -0.578125 -2.0q0 -0.625 0.1875 -1.125q0.1875 -0.515625 0.484375 -0.859375q0.3125 -0.359375 0.71875 -0.546875q0.40625 -0.203125 0.859375 -0.203125q0.453125 0 0.78125 0.171875q0.328125 0.15625 0.671875 0.4375l-0.046875 -0.890625l0 -2.0l0.890625 0l0 7.59375l-0.734375 0l-0.078125 -0.609375l-0.03125 0q-0.296875 0.296875 -0.703125 0.515625q-0.40625 0.21875 -0.859375 0.21875zm0.1875 -0.734375q0.375 0 0.6875 -0.171875q0.328125 -0.171875 0.640625 -0.546875l0 -2.703125q-0.328125 -0.296875 -0.640625 -0.421875q-0.296875 -0.125 -0.609375 -0.125q-0.3125 0 -0.59375 0.15625q-0.265625 0.140625 -0.46875 0.40625q-0.203125 0.25 -0.328125 0.625q-0.109375 0.359375 -0.109375 0.796875q0 0.9375 0.375 1.46875q0.375 0.515625 1.046875 0.515625z" fill-rule="nonzero"/><path fill="#000000" d="m303.21185 55.960274l-2.234375 -6.984375l0.953125 0l1.109375 3.765625q0.203125 0.625 0.34375 1.15625q0.140625 0.53125 0.34375 1.15625l0.046875 0q0.1875 -0.625 0.328125 -1.15625q0.15625 -0.53125 0.34375 -1.15625l1.109375 -3.765625l0.90625 0l-2.21875 6.984375l-1.03125 0zm5.3161316 0.125q-0.640625 0 -1.078125 -0.375q-0.4375 -0.390625 -0.4375 -1.09375q0 -0.84375 0.75 -1.296875q0.765625 -0.453125 2.4375 -0.640625q0 -0.25 -0.046875 -0.484375q-0.046875 -0.234375 -0.171875 -0.40625q-0.109375 -0.1875 -0.328125 -0.296875q-0.203125 -0.109375 -0.515625 -0.109375q-0.453125 0 -0.859375 0.171875q-0.390625 0.171875 -0.6875 0.375l-0.34375 -0.609375q0.359375 -0.234375 0.875 -0.453125q0.53125 -0.21875 1.15625 -0.21875q0.953125 0 1.375 0.59375q0.421875 0.578125 0.421875 1.546875l0 3.171875l-0.71875 0l-0.078125 -0.625l-0.03125 0q-0.375 0.3125 -0.796875 0.53125q-0.421875 0.21875 -0.921875 0.21875zm0.265625 -0.703125q0.375 0 0.703125 -0.171875q0.328125 -0.171875 0.703125 -0.515625l0 -1.4375q-0.65625 0.078125 -1.109375 0.203125q-0.4375 0.109375 -0.703125 0.28125q-0.265625 0.15625 -0.390625 0.359375q-0.125 0.203125 -0.125 0.453125q0 0.453125 0.265625 0.640625q0.265625 0.1875 0.65625 0.1875zm4.839569 0.703125q-0.5 0 -0.71875 -0.296875q-0.203125 -0.296875 -0.203125 -0.875l0 -6.546875l0.875 0l0 6.609375q0 0.21875 0.0625 0.3125q0.078125 0.078125 0.1875 0.078125q0.03125 0 0.0625 0q0.046875 0 0.125 -0.03125l0.109375 0.671875q-0.078125 0.03125 -0.203125 0.046875q-0.109375 0.03125 -0.296875 0.03125zm3.3111267 0q-0.828125 0 -1.21875 -0.5q-0.375 -0.515625 -0.375 -1.515625l0 -3.28125l0.890625 0l0 3.15625q0 0.734375 0.21875 1.0625q0.234375 0.328125 0.75 0.328125q0.40625 0 0.703125 -0.203125q0.3125 -0.21875 0.6875 -0.671875l0 -3.671875l0.875 0l0 5.171875l-0.71875 0l-0.078125 -0.8125l-0.03125 0q-0.359375 0.421875 -0.765625 0.6875q-0.390625 0.25 -0.9375 0.25zm6.375183 0q-0.515625 0 -0.96875 -0.1875q-0.453125 -0.1875 -0.796875 -0.53125q-0.328125 -0.34375 -0.53125 -0.84375q-0.1875 -0.5 -0.1875 -1.140625q0 -0.640625 0.203125 -1.140625q0.203125 -0.515625 0.515625 -0.859375q0.328125 -0.359375 0.734375 -0.546875q0.421875 -0.1875 0.875 -0.1875q0.484375 0 0.875 0.171875q0.390625 0.171875 0.65625 0.5q0.265625 0.3125 0.390625 0.765625q0.140625 0.4375 0.140625 1.0q0 0.140625 0 0.28125q0 0.125 -0.03125 0.21875l-3.484375 0q0.046875 0.828125 0.5 1.3125q0.46875 0.484375 1.21875 0.484375q0.375 0 0.6875 -0.109375q0.3125 -0.109375 0.609375 -0.296875l0.296875 0.578125q-0.328125 0.21875 -0.75 0.375q-0.421875 0.15625 -0.953125 0.15625zm-1.625 -3.125l2.765625 0q0 -0.796875 -0.34375 -1.203125q-0.328125 -0.40625 -0.9375 -0.40625q-0.265625 0 -0.515625 0.109375q-0.25 0.09375 -0.453125 0.3125q-0.203125 0.203125 -0.34375 0.5q-0.125 0.296875 -0.171875 0.6875z" fill-rule="nonzero"/><path fill="#ead1dc" d="m67.55249 266.7483l0 0c0 -7.082733 5.741684 -12.824402 12.8244095 -12.824402l321.78427 0c3.401245 0 6.6631775 1.3511353 9.068207 3.7561646c2.4050598 2.4050598 3.756195 5.666992 3.756195 9.068237l0 51.29608c0 7.0827026 -5.7416687 12.824402 -12.824402 12.824402l-321.78427 0c-7.0827255 0 -12.8244095 -5.741699 -12.8244095 -12.824402z" fill-rule="evenodd"/><path fill="#000000" d="m332.60834 315.47763q-0.671875 0 -1.234375 -0.234375q-0.546875 -0.25 -0.953125 -0.71875q-0.40625 -0.46875 -0.640625 -1.140625q-0.234375 -0.671875 -0.234375 -1.53125q0 -0.84375 0.234375 -1.515625q0.234375 -0.671875 0.65625 -1.140625q0.421875 -0.46875 0.984375 -0.71875q0.5625 -0.25 1.234375 -0.25q0.640625 0 1.125 0.265625q0.484375 0.265625 0.796875 0.609375l-0.484375 0.5625q-0.28125 -0.296875 -0.640625 -0.46875q-0.34375 -0.1875 -0.78125 -0.1875q-0.5 0 -0.90625 0.203125q-0.40625 0.1875 -0.703125 0.5625q-0.28125 0.359375 -0.4375 0.890625q-0.15625 0.515625 -0.15625 1.171875q0 0.65625 0.15625 1.1875q0.15625 0.53125 0.421875 0.90625q0.28125 0.359375 0.6875 0.5625q0.40625 0.203125 0.90625 0.203125q0.5 0 0.875 -0.203125q0.390625 -0.203125 0.734375 -0.578125l0.5 0.546875q-0.421875 0.484375 -0.953125 0.75q-0.515625 0.265625 -1.1875 0.265625zm5.366028 0q-0.484375 0 -0.921875 -0.171875q-0.421875 -0.1875 -0.75 -0.53125q-0.328125 -0.34375 -0.53125 -0.84375q-0.203125 -0.515625 -0.203125 -1.15625q0 -0.65625 0.203125 -1.15625q0.203125 -0.5 0.53125 -0.84375q0.328125 -0.359375 0.75 -0.546875q0.4375 -0.1875 0.921875 -0.1875q0.484375 0 0.90625 0.1875q0.4375 0.1875 0.765625 0.546875q0.328125 0.34375 0.515625 0.84375q0.203125 0.5 0.203125 1.15625q0 0.640625 -0.203125 1.15625q-0.1875 0.5 -0.515625 0.84375q-0.328125 0.34375 -0.765625 0.53125q-0.421875 0.171875 -0.90625 0.171875zm0 -0.71875q0.328125 0 0.59375 -0.140625q0.28125 -0.15625 0.484375 -0.40625q0.203125 -0.265625 0.296875 -0.625q0.109375 -0.359375 0.109375 -0.8125q0 -0.453125 -0.109375 -0.8125q-0.09375 -0.375 -0.296875 -0.640625q-0.203125 -0.265625 -0.484375 -0.40625q-0.265625 -0.140625 -0.59375 -0.140625q-0.328125 0 -0.609375 0.140625q-0.28125 0.140625 -0.484375 0.40625q-0.1875 0.265625 -0.296875 0.640625q-0.109375 0.359375 -0.109375 0.8125q0 0.453125 0.109375 0.8125q0.109375 0.359375 0.296875 0.625q0.203125 0.25 0.484375 0.40625q0.28125 0.140625 0.609375 0.140625zm3.7601013 0.59375l0 -5.171875l0.71875 0l0.078125 0.734375l0.03125 0q0.375 -0.375 0.78125 -0.625q0.421875 -0.25 0.953125 -0.25q0.828125 0 1.203125 0.515625q0.375 0.515625 0.375 1.515625l0 3.28125l-0.875 0l0 -3.171875q0 -0.734375 -0.234375 -1.046875q-0.234375 -0.328125 -0.734375 -0.328125q-0.40625 0 -0.71875 0.203125q-0.3125 0.203125 -0.703125 0.59375l0 3.75l-0.875 0zm7.4540405 0.125q-0.40625 0 -0.6875 -0.125q-0.28125 -0.125 -0.46875 -0.34375q-0.171875 -0.234375 -0.25 -0.546875q-0.078125 -0.328125 -0.078125 -0.703125l0 -2.875l-0.765625 0l0 -0.65625l0.8125 -0.046875l0.109375 -1.453125l0.734375 0l0 1.453125l1.390625 0l0 0.703125l-1.390625 0l0 2.875q0 0.484375 0.171875 0.75q0.1875 0.25 0.625 0.25q0.140625 0 0.296875 -0.03125q0.171875 -0.046875 0.296875 -0.09375l0.171875 0.65625q-0.21875 0.078125 -0.46875 0.125q-0.25 0.0625 -0.5 0.0625zm4.0706177 0q-0.515625 0 -0.96875 -0.1875q-0.453125 -0.1875 -0.796875 -0.53125q-0.328125 -0.34375 -0.53125 -0.84375q-0.1875 -0.5 -0.1875 -1.140625q0 -0.640625 0.203125 -1.140625q0.203125 -0.515625 0.515625 -0.859375q0.328125 -0.359375 0.734375 -0.546875q0.421875 -0.1875 0.875 -0.1875q0.484375 0 0.875 0.171875q0.390625 0.171875 0.65625 0.5q0.265625 0.3125 0.390625 0.765625q0.140625 0.4375 0.140625 1.0q0 0.140625 0 0.28125q0 0.125 -0.03125 0.21875l-3.484375 0q0.046875 0.828125 0.5 1.3125q0.46875 0.484375 1.21875 0.484375q0.375 0 0.6875 -0.109375q0.3125 -0.109375 0.609375 -0.296875l0.296875 0.578125q-0.328125 0.21875 -0.75 0.375q-0.421875 0.15625 -0.953125 0.15625zm-1.625 -3.125l2.765625 0q0 -0.796875 -0.34375 -1.203125q-0.328125 -0.40625 -0.9375 -0.40625q-0.265625 0 -0.515625 0.109375q-0.25 0.09375 -0.453125 0.3125q-0.203125 0.203125 -0.34375 0.5q-0.125 0.296875 -0.171875 0.6875zm4.0980225 3.0l1.6875 -2.703125l-1.5625 -2.46875l0.9375 0l0.703125 1.140625q0.109375 0.203125 0.234375 0.421875q0.140625 0.21875 0.265625 0.4375l0.046875 0q0.125 -0.21875 0.234375 -0.4375q0.125 -0.21875 0.234375 -0.421875l0.625 -1.140625l0.921875 0l-1.5625 2.5625l1.6875 2.609375l-0.953125 0l-0.75 -1.203125q-0.140625 -0.234375 -0.28125 -0.46875q-0.140625 -0.234375 -0.296875 -0.453125l-0.03125 0q-0.140625 0.21875 -0.28125 0.453125q-0.125 0.21875 -0.25 0.46875l-0.703125 1.203125l-0.90625 0zm7.0964966 0.125q-0.40625 0 -0.6875 -0.125q-0.28125 -0.125 -0.46875 -0.34375q-0.171875 -0.234375 -0.25 -0.546875q-0.078125 -0.328125 -0.078125 -0.703125l0 -2.875l-0.765625 0l0 -0.65625l0.8125 -0.046875l0.109375 -1.453125l0.734375 0l0 1.453125l1.390625 0l0 0.703125l-1.390625 0l0 2.875q0 0.484375 0.171875 0.75q0.1875 0.25 0.625 0.25q0.140625 0 0.296875 -0.03125q0.171875 -0.046875 0.296875 -0.09375l0.171875 0.65625q-0.21875 0.078125 -0.46875 0.125q-0.25 0.0625 -0.5 0.0625zm4.951874 -0.125l-1.46875 -6.984375l0.90625 0l0.734375 3.796875q0.109375 0.578125 0.203125 1.140625q0.109375 0.546875 0.203125 1.125l0.046875 0q0.125 -0.578125 0.25 -1.140625q0.125 -0.5625 0.234375 -1.125l0.96875 -3.796875l0.8125 0l0.96875 3.796875q0.140625 0.5625 0.265625 1.125q0.125 0.5625 0.25 1.140625l0.046875 0q0.09375 -0.578125 0.1875 -1.140625q0.09375 -0.5625 0.203125 -1.125l0.734375 -3.796875l0.859375 0l-1.453125 6.984375l-1.0625 0l-1.0625 -4.203125q-0.09375 -0.40625 -0.171875 -0.796875q-0.078125 -0.390625 -0.171875 -0.796875l-0.03125 0q-0.09375 0.40625 -0.1875 0.796875q-0.078125 0.390625 -0.171875 0.796875l-1.03125 4.203125l-1.0625 0zm7.532135 0l0 -5.171875l0.875 0l0 5.171875l-0.875 0zm0.453125 -6.25q-0.265625 0 -0.4375 -0.15625q-0.171875 -0.15625 -0.171875 -0.40625q0 -0.25 0.171875 -0.40625q0.171875 -0.15625 0.4375 -0.15625q0.25 0 0.421875 0.15625q0.171875 0.15625 0.171875 0.40625q0 0.25 -0.171875 0.40625q-0.171875 0.15625 -0.421875 0.15625zm2.168335 6.25l0 -5.171875l0.71875 0l0.078125 0.734375l0.03125 0q0.375 -0.375 0.78125 -0.625q0.421875 -0.25 0.953125 -0.25q0.828125 0 1.203125 0.515625q0.375 0.515625 0.375 1.515625l0 3.28125l-0.875 0l0 -3.171875q0 -0.734375 -0.234375 -1.046875q-0.234375 -0.328125 -0.734375 -0.328125q-0.40625 0 -0.71875 0.203125q-0.3125 0.203125 -0.703125 0.59375l0 3.75l-0.875 0zm7.5946655 0.125q-0.984375 0 -1.5625 -0.703125q-0.578125 -0.703125 -0.578125 -2.0q0 -0.625 0.1875 -1.125q0.1875 -0.515625 0.484375 -0.859375q0.3125 -0.359375 0.71875 -0.546875q0.40625 -0.203125 0.859375 -0.203125q0.453125 0 0.78125 0.171875q0.328125 0.15625 0.671875 0.4375l-0.046875 -0.890625l0 -2.0l0.890625 0l0 7.59375l-0.734375 0l-0.078125 -0.609375l-0.03125 0q-0.296875 0.296875 -0.703125 0.515625q-0.40625 0.21875 -0.859375 0.21875zm0.1875 -0.734375q0.375 0 0.6875 -0.171875q0.328125 -0.171875 0.640625 -0.546875l0 -2.703125q-0.328125 -0.296875 -0.640625 -0.421875q-0.296875 -0.125 -0.609375 -0.125q-0.3125 0 -0.59375 0.15625q-0.265625 0.140625 -0.46875 0.40625q-0.203125 0.25 -0.328125 0.625q-0.109375 0.359375 -0.109375 0.796875q0 0.9375 0.375 1.46875q0.375 0.515625 1.046875 0.515625zm5.976776 0.734375q-0.484375 0 -0.921875 -0.171875q-0.421875 -0.1875 -0.75 -0.53125q-0.328125 -0.34375 -0.53125 -0.84375q-0.203125 -0.515625 -0.203125 -1.15625q0 -0.65625 0.203125 -1.15625q0.203125 -0.5 0.53125 -0.84375q0.328125 -0.359375 0.75 -0.546875q0.4375 -0.1875 0.921875 -0.1875q0.484375 0 0.90625 0.1875q0.4375 0.1875 0.765625 0.546875q0.328125 0.34375 0.515625 0.84375q0.203125 0.5 0.203125 1.15625q0 0.640625 -0.203125 1.15625q-0.1875 0.5 -0.515625 0.84375q-0.328125 0.34375 -0.765625 0.53125q-0.421875 0.171875 -0.90625 0.171875zm0 -0.71875q0.328125 0 0.59375 -0.140625q0.28125 -0.15625 0.484375 -0.40625q0.203125 -0.265625 0.296875 -0.625q0.109375 -0.359375 0.109375 -0.8125q0 -0.453125 -0.109375 -0.8125q-0.09375 -0.375 -0.296875 -0.640625q-0.203125 -0.265625 -0.484375 -0.40625q-0.265625 -0.140625 -0.59375 -0.140625q-0.328125 0 -0.609375 0.140625q-0.28125 0.140625 -0.484375 0.40625q-0.1875 0.265625 -0.296875 0.640625q-0.109375 0.359375 -0.109375 0.8125q0 0.453125 0.109375 0.8125q0.109375 0.359375 0.296875 0.625q0.203125 0.25 0.484375 0.40625q0.28125 0.140625 0.609375 0.140625zm4.5726013 0.59375l-1.4375 -5.171875l0.90625 0l0.765625 2.984375q0.078125 0.375 0.15625 0.734375q0.078125 0.34375 0.15625 0.703125l0.03125 0q0.09375 -0.359375 0.171875 -0.71875q0.09375 -0.359375 0.1875 -0.71875l0.796875 -2.984375l0.84375 0l0.8125 2.984375q0.09375 0.375 0.1875 0.734375q0.09375 0.34375 0.1875 0.703125l0.03125 0q0.09375 -0.359375 0.15625 -0.703125q0.078125 -0.359375 0.171875 -0.734375l0.75 -2.984375l0.828125 0l-1.375 5.171875l-1.078125 0l-0.734375 -2.78125q-0.09375 -0.375 -0.1875 -0.734375q-0.078125 -0.359375 -0.171875 -0.75l-0.046875 0q-0.078125 0.390625 -0.171875 0.765625q-0.078125 0.359375 -0.1875 0.734375l-0.71875 2.765625l-1.03125 0z" fill-rule="nonzero"/><path fill="#000000" fill-opacity="0.0" d="m8.0 269.94498l0 0c0 -2.5744934 2.0870295 -4.661499 4.6615105 -4.661499l40.25178 0c1.236309 0 2.4219818 0.49111938 3.2961845 1.3653259c0.87420654 0.874176 1.3653259 2.0598755 1.3653259 3.296173l0 18.645477c0 2.5744934 -2.0870285 4.6615295 -4.6615105 4.6615295l-40.25178 0c-2.574481 0 -4.6615105 -2.0870361 -4.6615105 -4.6615295z" fill-rule="evenodd"/><path stroke="#1a1a1a" stroke-width="1.0" stroke-linejoin="round" stroke-linecap="butt" d="m8.0 269.94498l0 0c0 -2.5744934 2.0870295 -4.661499 4.6615105 -4.661499l40.25178 0c1.236309 0 2.4219818 0.49111938 3.2961845 1.3653259c0.87420654 0.874176 1.3653259 2.0598755 1.3653259 3.296173l0 18.645477c0 2.5744934 -2.0870285 4.6615295 -4.6615105 4.6615295l-40.25178 0c-2.574481 0 -4.6615105 -2.0870361 -4.6615105 -4.6615295z" fill-rule="evenodd"/><path fill="#000000" d="m23.383905 283.13272q-0.40625 0 -0.75 -0.078125q-0.328125 -0.078125 -0.609375 -0.203125q-0.265625 -0.140625 -0.484375 -0.3125q-0.21875 -0.171875 -0.390625 -0.359375l0.4375 -0.578125q0.3125 0.3125 0.71875 0.5625q0.421875 0.25 1.03125 0.25q0.609375 0 1.0 -0.328125q0.40625 -0.34375 0.40625 -0.921875q0 -0.296875 -0.125 -0.546875q-0.109375 -0.25 -0.359375 -0.421875q-0.25 -0.1875 -0.671875 -0.28125q-0.421875 -0.109375 -1.03125 -0.109375l0 -0.671875q0.546875 0 0.90625 -0.09375q0.375 -0.09375 0.609375 -0.265625q0.234375 -0.171875 0.328125 -0.40625q0.09375 -0.234375 0.09375 -0.5q0 -0.5 -0.3125 -0.78125q-0.3125 -0.296875 -0.859375 -0.296875q-0.421875 0 -0.78125 0.203125q-0.359375 0.1875 -0.671875 0.5l-0.46875 -0.5625q0.390625 -0.375 0.859375 -0.609375q0.484375 -0.234375 1.09375 -0.234375q0.453125 0 0.8125 0.125q0.375 0.109375 0.640625 0.328125q0.28125 0.21875 0.421875 0.546875q0.1562519 0.3125 0.1562519 0.71875q0 0.625 -0.3437519 1.015625q-0.328125 0.390625 -0.890625 0.609375l0 0.046875q0.3125 0.0625 0.578125 0.21875q0.265625 0.140625 0.46875 0.359375q0.2031269 0.21875 0.3125019 0.515625q0.109375 0.28125 0.109375 0.625q0 0.453125 -0.171875 0.8125q-0.1718769 0.359375 -0.4843769 0.609375q-0.296875 0.25 -0.703125 0.390625q-0.40625 0.125 -0.875 0.125zm6.0149555 -0.125l0 -1.875l-3.046875 0l0 -0.578125l2.90625 -4.34375l0.984375 0l0 4.21875l0.921875 0l0 0.703125l-0.921875 0l0 1.875l-0.84375 0zm-2.125 -2.578125l2.125 0l0 -1.96875q0 -0.28125 0.015625 -0.65625q0.015625 -0.375 0.046875 -0.65625l-0.046875 0q-0.125 0.25 -0.265625 0.484375q-0.140625 0.234375 -0.28125 0.46875l-1.59375 2.328125zm5.5149536 2.703125q-0.265625 0 -0.453125 -0.1875q-0.1875 -0.1875 -0.1875 -0.46875q0 -0.3125 0.1875 -0.5q0.1875 -0.1875 0.453125 -0.1875q0.265625 0 0.4375 0.1875q0.1875 0.1875 0.1875 0.5q0 0.28125 -0.1875 0.46875q-0.171875 0.1875 -0.4375 0.1875zm1.7471771 -0.125l0 -0.515625q0.765625 -0.78125 1.359375 -1.390625q0.609375 -0.625 1.015625 -1.140625q0.40625 -0.53125 0.609375 -0.96875q0.21875 -0.453125 0.21875 -0.859375q0 -0.59375 -0.328125 -0.96875q-0.3125 -0.375 -0.96875 -0.375q-0.421875 0 -0.78125 0.25q-0.359375 0.234375 -0.65625 0.578125l-0.5 -0.5q0.421875 -0.46875 0.890625 -0.75q0.484375 -0.28125 1.15625 -0.28125q0.953125 0 1.484375 0.546875q0.546875 0.546875 0.546875 1.453125q0 0.484375 -0.203125 0.96875q-0.203125 0.484375 -0.578125 1.0q-0.359375 0.515625 -0.875 1.078125q-0.5 0.546875 -1.109375 1.1875q0.28125 -0.03125 0.578125 -0.046875q0.296875 -0.015625 0.5625 -0.015625l1.96875 0l0 0.75l-4.390625 0zm7.3899536 0.125q-0.40625 0 -0.75 -0.078125q-0.328125 -0.078125 -0.609375 -0.203125q-0.265625 -0.140625 -0.484375 -0.3125q-0.21875 -0.171875 -0.390625 -0.359375l0.4375 -0.578125q0.3125 0.3125 0.71875 0.5625q0.421875 0.25 1.03125 0.25q0.609375 0 1.0 -0.328125q0.40625 -0.34375 0.40625 -0.921875q0 -0.296875 -0.125 -0.546875q-0.109375 -0.25 -0.359375 -0.421875q-0.25 -0.1875 -0.671875 -0.28125q-0.421875 -0.109375 -1.03125 -0.109375l0 -0.671875q0.546875 0 0.90625 -0.09375q0.375 -0.09375 0.609375 -0.265625q0.234375 -0.171875 0.328125 -0.40625q0.09375 -0.234375 0.09375 -0.5q0 -0.5 -0.3125 -0.78125q-0.3125 -0.296875 -0.859375 -0.296875q-0.421875 0 -0.78125 0.203125q-0.359375 0.1875 -0.671875 0.5l-0.46875 -0.5625q0.390625 -0.375 0.859375 -0.609375q0.484375 -0.234375 1.09375 -0.234375q0.453125 0 0.8125 0.125q0.375 0.109375 0.640625 0.328125q0.28125 0.21875 0.421875 0.546875q0.15625 0.3125 0.15625 0.71875q0 0.625 -0.34375 1.015625q-0.328125 0.390625 -0.890625 0.609375l0 0.046875q0.3125 0.0625 0.578125 0.21875q0.265625 0.140625 0.46875 0.359375q0.203125 0.21875 0.3125 0.515625q0.109375 0.28125 0.109375 0.625q0 0.453125 -0.171875 0.8125q-0.171875 0.359375 -0.484375 0.609375q-0.296875 0.25 -0.703125 0.390625q-0.40625 0.125 -0.875 0.125z" fill-rule="nonzero"/><path fill="#000000" fill-opacity="0.0" d="m150.71825 146.83122l90.55118 -35.653534" fill-rule="evenodd"/><path stroke="#000000" stroke-width="1.0" stroke-linejoin="round" stroke-linecap="butt" d="m150.71825 146.83122l90.55118 -35.653534" fill-rule="evenodd"/><path fill="#000000" fill-opacity="0.0" d="m77.49381 269.94498l0 0c0 -2.5744934 2.0870285 -4.661499 4.6615143 -4.661499l40.251778 0c1.2363129 0 2.4219818 0.49111938 3.2961884 1.3653259c0.8741989 0.874176 1.3653259 2.0598755 1.3653259 3.296173l0 18.645477c0 2.5744934 -2.0870285 4.6615295 -4.6615143 4.6615295l-40.251778 0c-2.5744858 0 -4.6615143 -2.0870361 -4.6615143 -4.6615295z" fill-rule="evenodd"/><path stroke="#1a1a1a" stroke-width="1.0" stroke-linejoin="round" stroke-linecap="butt" d="m77.49381 269.94498l0 0c0 -2.5744934 2.0870285 -4.661499 4.6615143 -4.661499l40.251778 0c1.2363129 0 2.4219818 0.49111938 3.2961884 1.3653259c0.8741989 0.874176 1.3653259 2.0598755 1.3653259 3.296173l0 18.645477c0 2.5744934 -2.0870285 4.6615295 -4.6615143 4.6615295l-40.251778 0c-2.5744858 0 -4.6615143 -2.0870361 -4.6615143 -4.6615295z" fill-rule="evenodd"/><path fill="#000000" d="m93.221466 283.13272q-0.5 0 -0.9375 -0.203125q-0.421875 -0.203125 -0.734375 -0.609375q-0.3125 -0.40625 -0.5 -1.015625q-0.171875 -0.625 -0.171875 -1.4375q0 -1.03125 0.203125 -1.75q0.21875 -0.71875 0.578125 -1.171875q0.359375 -0.453125 0.828125 -0.65625q0.46875 -0.203125 0.96875 -0.203125q0.5625 0 0.953125 0.203125q0.40625 0.203125 0.6875 0.515625l-0.484375 0.546875q-0.21875 -0.25 -0.515625 -0.390625q-0.28125 -0.140625 -0.59375 -0.140625q-0.359375 0 -0.6875 0.15625q-0.3125 0.140625 -0.5625 0.484375q-0.234375 0.328125 -0.390625 0.890625q-0.140625 0.546875 -0.15625 1.359375q0.3125 -0.40625 0.734375 -0.625q0.4375 -0.234375 0.859375 -0.234375q0.875 0 1.40625 0.53125q0.53125 0.515625 0.53125 1.5625q0 0.5 -0.171875 0.90625q-0.15625 0.390625 -0.4375 0.6875q-0.265625 0.28125 -0.640625 0.4375q-0.359375 0.15625 -0.765625 0.15625zm0 -0.6875q0.25 0 0.453125 -0.109375q0.21875 -0.109375 0.375 -0.296875q0.171875 -0.203125 0.25 -0.46875q0.09375 -0.28125 0.09375 -0.625q0 -0.671875 -0.3125 -1.046875q-0.296875 -0.390625 -0.9375 -0.390625q-0.328125 0 -0.71875 0.21875q-0.375 0.203125 -0.703125 0.6875q0.09375 1.0 0.46875 1.515625q0.375 0.515625 1.03125 0.515625zm4.9368286 0.6875q-0.40625 0 -0.75 -0.078125q-0.328125 -0.078125 -0.609375 -0.203125q-0.265625 -0.125 -0.484375 -0.296875q-0.21875 -0.171875 -0.390625 -0.34375l0.421875 -0.578125q0.296875 0.3125 0.703125 0.546875q0.421875 0.234375 1.015625 0.234375q0.3125 0 0.578125 -0.109375q0.28125 -0.125 0.484375 -0.3125q0.203125 -0.203125 0.3125 -0.484375q0.125 -0.296875 0.125 -0.65625q0 -0.703125 -0.40625 -1.09375q-0.390625 -0.390625 -1.046875 -0.390625q-0.359375 0 -0.609375 0.109375q-0.25 0.09375 -0.546875 0.296875l-0.46875 -0.296875l0.21875 -3.265625l3.390625 0l0 0.75l-2.625 0l-0.1875 2.015625q0.25 -0.125 0.484375 -0.203125q0.25 -0.078125 0.5625 -0.078125q0.4375 0 0.8125 0.140625q0.390625 0.125 0.671875 0.390625q0.296875 0.25 0.453125 0.65625q0.171875 0.390625 0.171875 0.953125q0 0.546875 -0.1875 0.984375q-0.1875 0.421875 -0.515625 0.71875q-0.3125 0.28125 -0.734375 0.4375q-0.40625 0.15625 -0.84375 0.15625zm4.1243286 0q-0.265625 0 -0.453125 -0.1875q-0.1875 -0.1875 -0.1875 -0.46875q0 -0.3125 0.1875 -0.5q0.1875 -0.1875 0.453125 -0.1875q0.265625 0 0.4375 0.1875q0.1875 0.1875 0.1875 0.5q0 0.28125 -0.1875 0.46875q-0.171875 0.1875 -0.4375 0.1875zm3.8253021 0q-0.40625 0 -0.75 -0.078125q-0.328125 -0.078125 -0.609375 -0.203125q-0.265625 -0.125 -0.484375 -0.296875q-0.21875 -0.171875 -0.390625 -0.34375l0.421875 -0.578125q0.296875 0.3125 0.703125 0.546875q0.421875 0.234375 1.015625 0.234375q0.3125 0 0.578125 -0.109375q0.28125 -0.125 0.484375 -0.3125q0.203125 -0.203125 0.3125 -0.484375q0.125 -0.296875 0.125 -0.65625q0 -0.703125 -0.40625 -1.09375q-0.390625 -0.390625 -1.046875 -0.390625q-0.359375 0 -0.609375 0.109375q-0.25 0.09375 -0.546875 0.296875l-0.46875 -0.296875l0.21875 -3.265625l3.390625 0l0 0.75l-2.625 0l-0.1875 2.015625q0.25 -0.125 0.484375 -0.203125q0.25 -0.078125 0.5625 -0.078125q0.4375 0 0.8125 0.140625q0.390625 0.125 0.671875 0.390625q0.296875 0.25 0.453125 0.65625q0.171875 0.390625 0.171875 0.953125q0 0.546875 -0.1875 0.984375q-0.1875 0.421875 -0.515625 0.71875q-0.3125 0.28125 -0.734375 0.4375q-0.40625 0.15625 -0.84375 0.15625zm4.6868286 -0.125q0.03125 -0.953125 0.15625 -1.75q0.140625 -0.8125 0.359375 -1.53125q0.234375 -0.71875 0.59375 -1.390625q0.359375 -0.671875 0.859375 -1.375l-3.390625 0l0 -0.75l4.375 0l0 0.546875q-0.609375 0.765625 -0.984375 1.46875q-0.375 0.703125 -0.609375 1.4375q-0.21875 0.71875 -0.328125 1.546875q-0.09375 0.8125 -0.125 1.796875l-0.90625 0z" fill-rule="nonzero"/><path fill="#000000" fill-opacity="0.0" d="m146.98763 269.94498l0 0c0 -2.5744934 2.0870361 -4.661499 4.6615143 -4.661499l40.251785 0c1.2362976 0 2.4219818 0.49111938 3.296173 1.3653259c0.87420654 0.874176 1.3653259 2.0598755 1.3653259 3.296173l0 18.645477c0 2.5744934 -2.0870209 4.6615295 -4.661499 4.6615295l-40.251785 0c-2.5744781 0 -4.6615143 -2.0870361 -4.6615143 -4.6615295z" fill-rule="evenodd"/><path stroke="#1a1a1a" stroke-width="1.0" stroke-linejoin="round" stroke-linecap="butt" d="m146.98763 269.94498l0 0c0 -2.5744934 2.0870361 -4.661499 4.6615143 -4.661499l40.251785 0c1.2362976 0 2.4219818 0.49111938 3.296173 1.3653259c0.87420654 0.874176 1.3653259 2.0598755 1.3653259 3.296173l0 18.645477c0 2.5744934 -2.0870209 4.6615295 -4.661499 4.6615295l-40.251785 0c-2.5744781 0 -4.6615143 -2.0870361 -4.6615143 -4.6615295z" fill-rule="evenodd"/><path fill="#000000" d="m161.74654 283.00772q0.03125 -0.953125 0.15625 -1.75q0.140625 -0.8125 0.359375 -1.53125q0.234375 -0.71875 0.59375 -1.390625q0.359375 -0.671875 0.859375 -1.375l-3.390625 0l0 -0.75l4.375 0l0 0.546875q-0.609375 0.765625 -0.984375 1.46875q-0.375 0.703125 -0.609375 1.4375q-0.21875 0.71875 -0.328125 1.546875q-0.09375 0.8125 -0.125 1.796875l-0.90625 0zm3.8274536 0l0 -0.515625q0.765625 -0.78125 1.359375 -1.390625q0.609375 -0.625 1.015625 -1.140625q0.40625 -0.53125 0.609375 -0.96875q0.21875 -0.453125 0.21875 -0.859375q0 -0.59375 -0.328125 -0.96875q-0.3125 -0.375 -0.96875 -0.375q-0.421875 0 -0.78125 0.25q-0.359375 0.234375 -0.65625 0.578125l-0.5 -0.5q0.421875 -0.46875 0.890625 -0.75q0.484375 -0.28125 1.15625 -0.28125q0.953125 0 1.484375 0.546875q0.546875 0.546875 0.546875 1.453125q0 0.484375 -0.203125 0.96875q-0.203125 0.484375 -0.578125 1.0q-0.359375 0.515625 -0.875 1.078125q-0.5 0.546875 -1.109375 1.1875q0.28125 -0.03125 0.578125 -0.046875q0.296875 -0.015625 0.5625 -0.015625l1.96875 0l0 0.75l-4.390625 0zm6.2024536 0.125q-0.265625 0 -0.453125 -0.1875q-0.1875 -0.1875 -0.1875 -0.46875q0 -0.3125 0.1875 -0.5q0.1875 -0.1875 0.453125 -0.1875q0.265625 0 0.4375 0.1875q0.1875 0.1875 0.1875 0.5q0 0.28125 -0.1875 0.46875q-0.171875 0.1875 -0.4375 0.1875zm4.559677 -0.125l0 -1.875l-3.046875 0l0 -0.578125l2.90625 -4.34375l0.984375 0l0 4.21875l0.921875 0l0 0.703125l-0.921875 0l0 1.875l-0.84375 0zm-2.125 -2.578125l2.125 0l0 -1.96875q0 -0.28125 0.015625 -0.65625q0.015625 -0.375 0.046875 -0.65625l-0.046875 0q-0.125 0.25 -0.265625 0.484375q-0.140625 0.234375 -0.28125 0.46875l-1.59375 2.328125zm6.6868286 2.703125q-0.40625 0 -0.75 -0.078125q-0.328125 -0.078125 -0.609375 -0.203125q-0.265625 -0.125 -0.484375 -0.296875q-0.21875 -0.171875 -0.390625 -0.34375l0.421875 -0.578125q0.296875 0.3125 0.703125 0.546875q0.421875 0.234375 1.015625 0.234375q0.3125 0 0.578125 -0.109375q0.28125 -0.125 0.484375 -0.3125q0.203125 -0.203125 0.3125 -0.484375q0.125 -0.296875 0.125 -0.65625q0 -0.703125 -0.40625 -1.09375q-0.390625 -0.390625 -1.046875 -0.390625q-0.359375 0 -0.609375 0.109375q-0.25 0.09375 -0.546875 0.296875l-0.46875 -0.296875l0.21875 -3.265625l3.390625 0l0 0.75l-2.625 0l-0.1875 2.015625q0.25 -0.125 0.484375 -0.203125q0.25 -0.078125 0.5625 -0.078125q0.4375 0 0.8125 0.140625q0.390625 0.125 0.671875 0.390625q0.296875 0.25 0.453125 0.65625q0.171875 0.390625 0.171875 0.953125q0 0.546875 -0.1875 0.984375q-0.1875 0.421875 -0.515625 0.71875q-0.3125 0.28125 -0.734375 0.4375q-0.40625 0.15625 -0.84375 0.15625z" fill-rule="nonzero"/><path fill="#ffffff" d="m140.66379 150.99593l0 0c0 -3.2528381 2.6369476 -5.8897705 5.8897705 -5.8897705l0 0c1.5620575 0 3.0601501 0.6205292 4.164688 1.7250671c1.1045532 1.1045532 1.7250824 2.6026306 1.7250824 4.1647034l0 0c0 3.2528229 -2.6369476 5.8897552 -5.8897705 5.8897552l0 0c-3.2528229 0 -5.8897705 -2.6369324 -5.8897705 -5.8897552z" fill-rule="evenodd"/><path stroke="#1a1a1a" stroke-width="1.0" stroke-linejoin="round" stroke-linecap="butt" d="m140.66379 150.99593l0 0c0 -3.2528381 2.6369476 -5.8897705 5.8897705 -5.8897705l0 0c1.5620575 0 3.0601501 0.6205292 4.164688 1.7250671c1.1045532 1.1045532 1.7250824 2.6026306 1.7250824 4.1647034l0 0c0 3.2528229 -2.6369476 5.8897552 -5.8897705 5.8897552l0 0c-3.2528229 0 -5.8897705 -2.6369324 -5.8897705 -5.8897552z" fill-rule="evenodd"/><path fill="#000000" fill-opacity="0.0" d="m216.48145 269.94498l0 0c0 -2.5744934 2.0870209 -4.661499 4.661499 -4.661499l40.2518 0c1.2362976 0 2.4219666 0.49111938 3.296173 1.3653259c0.87420654 0.874176 1.3653259 2.0598755 1.3653259 3.296173l0 18.645477c0 2.5744934 -2.0870361 4.6615295 -4.661499 4.6615295l-40.2518 0c-2.5744781 0 -4.661499 -2.0870361 -4.661499 -4.6615295z" fill-rule="evenodd"/><path stroke="#1a1a1a" stroke-width="1.0" stroke-linejoin="round" stroke-linecap="butt" d="m216.48145 269.94498l0 0c0 -2.5744934 2.0870209 -4.661499 4.661499 -4.661499l40.2518 0c1.2362976 0 2.4219666 0.49111938 3.296173 1.3653259c0.87420654 0.874176 1.3653259 2.0598755 1.3653259 3.296173l0 18.645477c0 2.5744934 -2.0870361 4.6615295 -4.661499 4.6615295l-40.2518 0c-2.5744781 0 -4.661499 -2.0870361 -4.661499 -4.6615295z" fill-rule="evenodd"/><path fill="#000000" d="m231.84972 283.13272q-0.40625 0 -0.75 -0.078125q-0.328125 -0.078125 -0.609375 -0.203125q-0.265625 -0.125 -0.484375 -0.296875q-0.21875 -0.171875 -0.390625 -0.34375l0.421875 -0.578125q0.296875 0.3125 0.703125 0.546875q0.421875 0.234375 1.015625 0.234375q0.3125 0 0.578125 -0.109375q0.28125 -0.125 0.484375 -0.3125q0.203125 -0.203125 0.3125 -0.484375q0.125 -0.296875 0.125 -0.65625q0 -0.703125 -0.40625 -1.09375q-0.390625 -0.390625 -1.046875 -0.390625q-0.359375 0 -0.609375 0.109375q-0.25 0.09375 -0.546875 0.296875l-0.46875 -0.296875l0.21875 -3.265625l3.390625 0l0 0.75l-2.625 0l-0.1875 2.015625q0.25 -0.125 0.484375 -0.203125q0.25 -0.078125 0.5625 -0.078125q0.4375 0 0.8125 0.140625q0.390625 0.125 0.671875 0.390625q0.296875 0.25 0.453125 0.65625q0.171875 0.390625 0.171875 0.953125q0 0.546875 -0.1875 0.984375q-0.1875 0.421875 -0.515625 0.71875q-0.3125 0.28125 -0.734375 0.4375q-0.40625 0.15625 -0.84375 0.15625zm5.2962036 0q-0.40625 0 -0.75 -0.078125q-0.328125 -0.078125 -0.609375 -0.203125q-0.265625 -0.125 -0.484375 -0.296875q-0.21875 -0.171875 -0.390625 -0.34375l0.421875 -0.578125q0.296875 0.3125 0.703125 0.546875q0.421875 0.234375 1.015625 0.234375q0.3125 0 0.578125 -0.109375q0.28125 -0.125 0.484375 -0.3125q0.203125 -0.203125 0.3125 -0.484375q0.125 -0.296875 0.125 -0.65625q0 -0.703125 -0.40625 -1.09375q-0.390625 -0.390625 -1.046875 -0.390625q-0.359375 0 -0.609375 0.109375q-0.25 0.09375 -0.546875 0.296875l-0.46875 -0.296875l0.21875 -3.265625l3.390625 0l0 0.75l-2.625 0l-0.1875 2.015625q0.25 -0.125 0.484375 -0.203125q0.25 -0.078125 0.5625 -0.078125q0.4375 0 0.8125 0.140625q0.390625 0.125 0.671875 0.390625q0.296875 0.25 0.453125 0.65625q0.171875 0.390625 0.171875 0.953125q0 0.546875 -0.1875 0.984375q-0.1875 0.421875 -0.515625 0.71875q-0.3125 0.28125 -0.734375 0.4375q-0.40625 0.15625 -0.84375 0.15625zm4.1243286 0q-0.265625 0 -0.453125 -0.1875q-0.1875 -0.1875 -0.1875 -0.46875q0 -0.3125 0.1875 -0.5q0.1875 -0.1875 0.453125 -0.1875q0.265625 0 0.4375 0.1875q0.1875 0.1875 0.1875 0.5q0 0.28125 -0.1875 0.46875q-0.171875 0.1875 -0.4375 0.1875zm3.8253021 0q-0.40625 0 -0.75 -0.078125q-0.328125 -0.078125 -0.609375 -0.203125q-0.265625 -0.125 -0.484375 -0.296875q-0.21875 -0.171875 -0.390625 -0.34375l0.421875 -0.578125q0.296875 0.3125 0.703125 0.546875q0.421875 0.234375 1.015625 0.234375q0.3125 0 0.578125 -0.109375q0.28125 -0.125 0.484375 -0.3125q0.203125 -0.203125 0.3125 -0.484375q0.125 -0.296875 0.125 -0.65625q0 -0.703125 -0.40625 -1.09375q-0.390625 -0.390625 -1.046875 -0.390625q-0.359375 0 -0.609375 0.109375q-0.25 0.09375 -0.546875 0.296875l-0.46875 -0.296875l0.21875 -3.265625l3.390625 0l0 0.75l-2.625 0l-0.1875 2.015625q0.25 -0.125 0.484375 -0.203125q0.25 -0.078125 0.5625 -0.078125q0.4375 0 0.8125 0.140625q0.390625 0.125 0.671875 0.390625q0.296875 0.25 0.453125 0.65625q0.171875 0.390625 0.171875 0.953125q0 0.546875 -0.1875 0.984375q-0.1875 0.421875 -0.515625 0.71875q-0.3125 0.28125 -0.734375 0.4375q-0.40625 0.15625 -0.84375 0.15625zm5.2962036 0q-0.40625 0 -0.75 -0.078125q-0.328125 -0.078125 -0.609375 -0.203125q-0.265625 -0.125 -0.484375 -0.296875q-0.21875 -0.171875 -0.390625 -0.34375l0.421875 -0.578125q0.296875 0.3125 0.703125 0.546875q0.421875 0.234375 1.015625 0.234375q0.3125 0 0.578125 -0.109375q0.28125 -0.125 0.484375 -0.3125q0.203125 -0.203125 0.3125 -0.484375q0.125 -0.296875 0.125 -0.65625q0 -0.703125 -0.40625 -1.09375q-0.390625 -0.390625 -1.046875 -0.390625q-0.359375 0 -0.609375 0.109375q-0.25 0.09375 -0.546875 0.296875l-0.46875 -0.296875l0.21875 -3.265625l3.390625 0l0 0.75l-2.625 0l-0.1875 2.015625q0.25 -0.125 0.484375 -0.203125q0.25 -0.078125 0.5625 -0.078125q0.4375 0 0.8125 0.140625q0.390625 0.125 0.671875 0.390625q0.296875 0.25 0.453125 0.65625q0.171875 0.390625 0.171875 0.953125q0 0.546875 -0.1875 0.984375q-0.1875 0.421875 -0.515625 0.71875q-0.3125 0.28125 -0.734375 0.4375q-0.40625 0.15625 -0.84375 0.15625z" fill-rule="nonzero"/><path fill="#000000" fill-opacity="0.0" d="m285.97525 269.94498l0 0c0 -2.5744934 2.0870361 -4.661499 4.661499 -4.661499l40.2518 0c1.2362976 0 2.4219666 0.49111938 3.296173 1.3653259c0.87420654 0.874176 1.3653259 2.0598755 1.3653259 3.296173l0 18.645477c0 2.5744934 -2.0870361 4.6615295 -4.661499 4.6615295l-40.2518 0c-2.574463 0 -4.661499 -2.0870361 -4.661499 -4.6615295z" fill-rule="evenodd"/><path stroke="#1a1a1a" stroke-width="1.0" stroke-linejoin="round" stroke-linecap="butt" d="m285.97525 269.94498l0 0c0 -2.5744934 2.0870361 -4.661499 4.661499 -4.661499l40.2518 0c1.2362976 0 2.4219666 0.49111938 3.296173 1.3653259c0.87420654 0.874176 1.3653259 2.0598755 1.3653259 3.296173l0 18.645477c0 2.5744934 -2.0870361 4.6615295 -4.661499 4.6615295l-40.2518 0c-2.574463 0 -4.661499 -2.0870361 -4.661499 -4.6615295z" fill-rule="evenodd"/><path fill="#000000" d="m301.34354 283.13272q-0.40625 0 -0.75 -0.078125q-0.328125 -0.078125 -0.609375 -0.203125q-0.265625 -0.125 -0.484375 -0.296875q-0.21875 -0.171875 -0.390625 -0.34375l0.421875 -0.578125q0.296875 0.3125 0.703125 0.546875q0.421875 0.234375 1.015625 0.234375q0.3125 0 0.578125 -0.109375q0.28125 -0.125 0.484375 -0.3125q0.203125 -0.203125 0.3125 -0.484375q0.125 -0.296875 0.125 -0.65625q0 -0.703125 -0.40625 -1.09375q-0.390625 -0.390625 -1.046875 -0.390625q-0.359375 0 -0.609375 0.109375q-0.25 0.09375 -0.546875 0.296875l-0.46875 -0.296875l0.21875 -3.265625l3.390625 0l0 0.75l-2.625 0l-0.1875 2.015625q0.25 -0.125 0.484375 -0.203125q0.25 -0.078125 0.5625 -0.078125q0.4375 0 0.8125 0.140625q0.390625 0.125 0.671875 0.390625q0.296875 0.25 0.453125 0.65625q0.171875 0.390625 0.171875 0.953125q0 0.546875 -0.1875 0.984375q-0.1875 0.421875 -0.515625 0.71875q-0.3125 0.28125 -0.734375 0.4375q-0.40625 0.15625 -0.84375 0.15625zm5.2962036 -3.421875q0.34375 0 0.71875 -0.21875q0.390625 -0.21875 0.71875 -0.6875q-0.09375 -1.015625 -0.484375 -1.515625q-0.375 -0.515625 -1.03125 -0.515625q-0.234375 0 -0.453125 0.109375q-0.21875 0.109375 -0.390625 0.3125q-0.15625 0.1875 -0.25 0.46875q-0.078125 0.265625 -0.078125 0.609375q0 0.65625 0.296875 1.046875q0.3125 0.390625 0.953125 0.390625zm-0.3125 3.421875q-0.546875 0 -0.953125 -0.203125q-0.40625 -0.203125 -0.6875 -0.515625l0.484375 -0.546875q0.21875 0.25 0.5 0.40625q0.296875 0.140625 0.625 0.140625q0.359375 0 0.671875 -0.140625q0.328125 -0.15625 0.5625 -0.5q0.25 -0.359375 0.390625 -0.90625q0.15625 -0.5625 0.171875 -1.375q-0.3125 0.40625 -0.75 0.640625q-0.421875 0.234375 -0.84375 0.234375q-0.890625 0 -1.421875 -0.515625q-0.515625 -0.53125 -0.515625 -1.578125q0 -0.5 0.15625 -0.890625q0.171875 -0.40625 0.4375 -0.6875q0.28125 -0.296875 0.640625 -0.453125q0.375 -0.15625 0.765625 -0.15625q0.515625 0 0.9375 0.203125q0.4375 0.203125 0.75 0.609375q0.3125 0.40625 0.484375 1.03125q0.1875 0.609375 0.1875 1.421875q0 1.03125 -0.21875 1.75q-0.21875 0.71875 -0.578125 1.171875q-0.359375 0.453125 -0.828125 0.65625q-0.453125 0.203125 -0.96875 0.203125zm4.4368286 0q-0.265625 0 -0.453125 -0.1875q-0.1875 -0.1875 -0.1875 -0.46875q0 -0.3125 0.1875 -0.5q0.1875 -0.1875 0.453125 -0.1875q0.265625 0 0.4375 0.1875q0.1875 0.1875 0.1875 0.5q0 0.28125 -0.1875 0.46875q-0.171875 0.1875 -0.4375 0.1875zm3.8409119 0q-0.40625 0 -0.75 -0.078125q-0.328125 -0.078125 -0.609375 -0.203125q-0.265625 -0.140625 -0.484375 -0.3125q-0.21875 -0.171875 -0.390625 -0.359375l0.4375 -0.578125q0.3125 0.3125 0.71875 0.5625q0.421875 0.25 1.03125 0.25q0.609375 0 1.0 -0.328125q0.40625 -0.34375 0.40625 -0.921875q0 -0.296875 -0.125 -0.546875q-0.109375 -0.25 -0.359375 -0.421875q-0.25 -0.1875 -0.671875 -0.28125q-0.421875 -0.109375 -1.03125 -0.109375l0 -0.671875q0.546875 0 0.90625 -0.09375q0.375 -0.09375 0.609375 -0.265625q0.234375 -0.171875 0.328125 -0.40625q0.09375 -0.234375 0.09375 -0.5q0 -0.5 -0.3125 -0.78125q-0.3125 -0.296875 -0.859375 -0.296875q-0.421875 0 -0.78125 0.203125q-0.359375 0.1875 -0.671875 0.5l-0.46875 -0.5625q0.390625 -0.375 0.859375 -0.609375q0.484375 -0.234375 1.09375 -0.234375q0.453125 0 0.8125 0.125q0.375 0.109375 0.640625 0.328125q0.28125 0.21875 0.421875 0.546875q0.15625 0.3125 0.15625 0.71875q0 0.625 -0.34375 1.015625q-0.328125 0.390625 -0.890625 0.609375l0 0.046875q0.3125 0.0625 0.578125 0.21875q0.265625 0.140625 0.46875 0.359375q0.203125 0.21875 0.3125 0.515625q0.109375 0.28125 0.109375 0.625q0 0.453125 -0.171875 0.8125q-0.171875 0.359375 -0.484375 0.609375q-0.296875 0.25 -0.703125 0.390625q-0.40625 0.125 -0.875 0.125zm6.0149536 -0.125l0 -1.875l-3.046875 0l0 -0.578125l2.90625 -4.34375l0.984375 0l0 4.21875l0.921875 0l0 0.703125l-0.921875 0l0 1.875l-0.84375 0zm-2.125 -2.578125l2.125 0l0 -1.96875q0 -0.28125 0.015625 -0.65625q0.015625 -0.375 0.046875 -0.65625l-0.046875 0q-0.125 0.25 -0.265625 0.484375q-0.140625 0.234375 -0.28125 0.46875l-1.59375 2.328125z" fill-rule="nonzero"/><path fill="#000000" fill-opacity="0.0" d="m355.46906 269.94498l0 0c0 -2.5744934 2.0870361 -4.661499 4.6615295 -4.661499l40.25177 0c1.2363281 0 2.421997 0.49111938 3.2962036 1.3653259c0.874176 0.874176 1.3653259 2.0598755 1.3653259 3.296173l0 18.645477c0 2.5744934 -2.0870361 4.6615295 -4.6615295 4.6615295l-40.25177 0c-2.5744934 0 -4.6615295 -2.0870361 -4.6615295 -4.6615295z" fill-rule="evenodd"/><path stroke="#1a1a1a" stroke-width="1.0" stroke-linejoin="round" stroke-linecap="butt" d="m355.46906 269.94498l0 0c0 -2.5744934 2.0870361 -4.661499 4.6615295 -4.661499l40.25177 0c1.2363281 0 2.421997 0.49111938 3.2962036 1.3653259c0.874176 0.874176 1.3653259 2.0598755 1.3653259 3.296173l0 18.645477c0 2.5744934 -2.0870361 4.6615295 -4.6615295 4.6615295l-40.25177 0c-2.5744934 0 -4.6615295 -2.0870361 -4.6615295 -4.6615295z" fill-rule="evenodd"/><path fill="#000000" d="m370.22797 283.00772q0.03125 -0.953125 0.15625 -1.75q0.140625 -0.8125 0.359375 -1.53125q0.234375 -0.71875 0.59375 -1.390625q0.359375 -0.671875 0.859375 -1.375l-3.390625 0l0 -0.75l4.375 0l0 0.546875q-0.609375 0.765625 -0.984375 1.46875q-0.375 0.703125 -0.609375 1.4375q-0.21875 0.71875 -0.328125 1.546875q-0.09375 0.8125 -0.125 1.796875l-0.90625 0zm5.2962036 0q0.03125 -0.953125 0.15625 -1.75q0.140625 -0.8125 0.359375 -1.53125q0.234375 -0.71875 0.59375 -1.390625q0.359375 -0.671875 0.859375 -1.375l-3.390625 0l0 -0.75l4.375 0l0 0.546875q-0.609375 0.765625 -0.984375 1.46875q-0.375 0.703125 -0.609375 1.4375q-0.21875 0.71875 -0.328125 1.546875q-0.09375 0.8125 -0.125 1.796875l-0.90625 0zm4.7337036 0.125q-0.265625 0 -0.453125 -0.1875q-0.1875 -0.1875 -0.1875 -0.46875q0 -0.3125 0.1875 -0.5q0.1875 -0.1875 0.453125 -0.1875q0.265625 0 0.4375 0.1875q0.1875 0.1875 0.1875 0.5q0 0.28125 -0.1875 0.46875q-0.171875 0.1875 -0.4375 0.1875zm3.8253174 -3.421875q0.34375 0 0.71875 -0.21875q0.390625 -0.21875 0.71875 -0.6875q-0.09375 -1.015625 -0.484375 -1.515625q-0.375 -0.515625 -1.03125 -0.515625q-0.234375 0 -0.453125 0.109375q-0.21875 0.109375 -0.390625 0.3125q-0.15625 0.1875 -0.25 0.46875q-0.078125 0.265625 -0.078125 0.609375q0 0.65625 0.296875 1.046875q0.3125 0.390625 0.953125 0.390625zm-0.3125 3.421875q-0.546875 0 -0.953125 -0.203125q-0.40625 -0.203125 -0.6875 -0.515625l0.484375 -0.546875q0.21875 0.25 0.5 0.40625q0.296875 0.140625 0.625 0.140625q0.359375 0 0.671875 -0.140625q0.328125 -0.15625 0.5625 -0.5q0.25 -0.359375 0.390625 -0.90625q0.15625 -0.5625 0.171875 -1.375q-0.3125 0.40625 -0.75 0.640625q-0.421875 0.234375 -0.84375 0.234375q-0.890625 0 -1.421875 -0.515625q-0.515625 -0.53125 -0.515625 -1.578125q0 -0.5 0.15625 -0.890625q0.171875 -0.40625 0.4375 -0.6875q0.28125 -0.296875 0.640625 -0.453125q0.375 -0.15625 0.765625 -0.15625q0.515625 0 0.9375 0.203125q0.4375 0.203125 0.75 0.609375q0.3125 0.40625 0.484375 1.03125q0.1875 0.609375 0.1875 1.421875q0 1.03125 -0.21875 1.75q-0.21875 0.71875 -0.578125 1.171875q-0.359375 0.453125 -0.828125 0.65625q-0.453125 0.203125 -0.96875 0.203125zm5.7805786 0q-0.484375 0 -0.90625 -0.140625q-0.40625 -0.140625 -0.703125 -0.390625q-0.28125 -0.25 -0.453125 -0.578125q-0.171875 -0.34375 -0.171875 -0.75q0 -0.328125 0.109375 -0.609375q0.109375 -0.28125 0.28125 -0.515625q0.1875 -0.234375 0.40625 -0.40625q0.234375 -0.171875 0.484375 -0.296875l0 -0.046875q-0.375 -0.265625 -0.671875 -0.640625q-0.28125 -0.390625 -0.28125 -0.921875q0 -0.40625 0.140625 -0.71875q0.15625 -0.328125 0.40625 -0.546875q0.265625 -0.234375 0.609375 -0.359375q0.359375 -0.125 0.78125 -0.125q0.4375 0 0.78125 0.140625q0.359375 0.125 0.609375 0.359375q0.25 0.234375 0.375 0.578125q0.140625 0.328125 0.140625 0.734375q0 0.265625 -0.09375 0.515625q-0.078125 0.234375 -0.21875 0.453125q-0.125 0.203125 -0.296875 0.375q-0.15625 0.171875 -0.328125 0.296875l0 0.03125q0.234375 0.140625 0.4375 0.3125q0.21875 0.15625 0.375 0.359375q0.171875 0.203125 0.265625 0.46875q0.109375 0.265625 0.109375 0.609375q0 0.390625 -0.15625 0.71875q-0.15625 0.328125 -0.453125 0.578125q-0.28125 0.234375 -0.6875 0.375q-0.40625 0.140625 -0.890625 0.140625zm0.46875 -3.828125q0.34375 -0.3125 0.53125 -0.65625q0.1875 -0.34375 0.1875 -0.71875q0 -0.5 -0.3125 -0.84375q-0.3125 -0.359375 -0.875 -0.359375q-0.484375 0 -0.796875 0.296875q-0.296875 0.296875 -0.296875 0.8125q0 0.296875 0.125 0.515625q0.125 0.21875 0.34375 0.390625q0.21875 0.171875 0.5 0.3125q0.28125 0.125 0.59375 0.25zm-0.453125 3.1875q0.59375 0 0.953125 -0.328125q0.375 -0.34375 0.375 -0.875q0 -0.328125 -0.15625 -0.5625q-0.140625 -0.234375 -0.40625 -0.40625q-0.25 -0.171875 -0.59375 -0.3125q-0.328125 -0.15625 -0.6875 -0.296875q-0.40625 0.265625 -0.6875 0.640625q-0.265625 0.359375 -0.265625 0.828125q0 0.296875 0.109375 0.53125q0.125 0.234375 0.3125 0.40625q0.203125 0.171875 0.46875 0.28125q0.265625 0.09375 0.578125 0.09375z" fill-rule="nonzero"/><path fill="#666666" d="m188.20186 150.99593l0 0c0 -3.2528381 2.6369324 -5.8897705 5.8897552 -5.8897705l0 0c1.5620728 0 3.0601501 0.6205292 4.164688 1.7250671c1.1045532 1.1045532 1.7250824 2.6026306 1.7250824 4.1647034l0 0c0 3.2528229 -2.6369476 5.8897552 -5.8897705 5.8897552l0 0c-3.2528229 0 -5.8897552 -2.6369324 -5.8897552 -5.8897552z" fill-rule="evenodd"/><path stroke="#1a1a1a" stroke-width="1.0" stroke-linejoin="round" stroke-linecap="butt" d="m188.20186 150.99593l0 0c0 -3.2528381 2.6369324 -5.8897705 5.8897552 -5.8897705l0 0c1.5620728 0 3.0601501 0.6205292 4.164688 1.7250671c1.1045532 1.1045532 1.7250824 2.6026306 1.7250824 4.1647034l0 0c0 3.2528229 -2.6369476 5.8897552 -5.8897705 5.8897552l0 0c-3.2528229 0 -5.8897552 -2.6369324 -5.8897552 -5.8897552z" fill-rule="evenodd"/><path fill="#666666" d="m235.73991 150.99593l0 0c0 -3.2528381 2.6369324 -5.8897705 5.8897552 -5.8897705l0 0c1.5620728 0 3.0601501 0.6205292 4.1647034 1.7250671c1.104538 1.1045532 1.7250671 2.6026306 1.7250671 4.1647034l0 0c0 3.2528229 -2.6369324 5.8897552 -5.8897705 5.8897552l0 0c-3.2528229 0 -5.8897552 -2.6369324 -5.8897552 -5.8897552z" fill-rule="evenodd"/><path stroke="#1a1a1a" stroke-width="1.0" stroke-linejoin="round" stroke-linecap="butt" d="m235.73991 150.99593l0 0c0 -3.2528381 2.6369324 -5.8897705 5.8897552 -5.8897705l0 0c1.5620728 0 3.0601501 0.6205292 4.1647034 1.7250671c1.104538 1.1045532 1.7250671 2.6026306 1.7250671 4.1647034l0 0c0 3.2528229 -2.6369324 5.8897552 -5.8897705 5.8897552l0 0c-3.2528229 0 -5.8897552 -2.6369324 -5.8897552 -5.8897552z" fill-rule="evenodd"/><path fill="#434343" d="m283.27795 150.99593l0 0c0 -3.2528381 2.636963 -5.8897705 5.8897705 -5.8897705l0 0c1.5620728 0 3.0601501 0.6205292 4.1647034 1.7250671c1.1045532 1.1045532 1.7250671 2.6026306 1.7250671 4.1647034l0 0c0 3.2528229 -2.6369324 5.8897552 -5.8897705 5.8897552l0 0c-3.2528076 0 -5.8897705 -2.6369324 -5.8897705 -5.8897552z" fill-rule="evenodd"/><path stroke="#1a1a1a" stroke-width="1.0" stroke-linejoin="round" stroke-linecap="butt" d="m283.27795 150.99593l0 0c0 -3.2528381 2.636963 -5.8897705 5.8897705 -5.8897705l0 0c1.5620728 0 3.0601501 0.6205292 4.1647034 1.7250671c1.1045532 1.1045532 1.7250671 2.6026306 1.7250671 4.1647034l0 0c0 3.2528229 -2.6369324 5.8897552 -5.8897705 5.8897552l0 0c-3.2528076 0 -5.8897705 -2.6369324 -5.8897705 -5.8897552z" fill-rule="evenodd"/><path fill="#000000" fill-opacity="0.0" d="m424.9629 269.94498l0 0c0 -2.5744934 2.0870056 -4.661499 4.661499 -4.661499l40.25177 0c1.2363281 0 2.421997 0.49111938 3.2962036 1.3653259c0.87420654 0.874176 1.3653259 2.0598755 1.3653259 3.296173l0 18.645477c0 2.5744934 -2.0870361 4.6615295 -4.6615295 4.6615295l-40.25177 0c-2.5744934 0 -4.661499 -2.0870361 -4.661499 -4.6615295z" fill-rule="evenodd"/><path stroke="#1a1a1a" stroke-width="1.0" stroke-linejoin="round" stroke-linecap="butt" d="m424.9629 269.94498l0 0c0 -2.5744934 2.0870056 -4.661499 4.661499 -4.661499l40.25177 0c1.2363281 0 2.421997 0.49111938 3.2962036 1.3653259c0.87420654 0.874176 1.3653259 2.0598755 1.3653259 3.296173l0 18.645477c0 2.5744934 -2.0870361 4.6615295 -4.6615295 4.6615295l-40.25177 0c-2.5744934 0 -4.661499 -2.0870361 -4.661499 -4.6615295z" fill-rule="evenodd"/><path fill="#000000" d="m440.69052 283.13272q-0.5 0 -0.9375 -0.203125q-0.421875 -0.203125 -0.734375 -0.609375q-0.3125 -0.40625 -0.5 -1.015625q-0.171875 -0.625 -0.171875 -1.4375q0 -1.03125 0.203125 -1.75q0.21875 -0.71875 0.578125 -1.171875q0.359375 -0.453125 0.828125 -0.65625q0.46875 -0.203125 0.96875 -0.203125q0.5625 0 0.953125 0.203125q0.40625 0.203125 0.6875 0.515625l-0.484375 0.546875q-0.21875 -0.25 -0.515625 -0.390625q-0.28125 -0.140625 -0.59375 -0.140625q-0.359375 0 -0.6875 0.15625q-0.3125 0.140625 -0.5625 0.484375q-0.234375 0.328125 -0.390625 0.890625q-0.140625 0.546875 -0.15625 1.359375q0.3125 -0.40625 0.734375 -0.625q0.4375 -0.234375 0.859375 -0.234375q0.875 0 1.40625 0.53125q0.53125 0.515625 0.53125 1.5625q0 0.5 -0.171875 0.90625q-0.15625 0.390625 -0.4375 0.6875q-0.265625 0.28125 -0.640625 0.4375q-0.359375 0.15625 -0.765625 0.15625zm0 -0.6875q0.25 0 0.453125 -0.109375q0.21875 -0.109375 0.375 -0.296875q0.171875 -0.203125 0.25 -0.46875q0.09375 -0.28125 0.09375 -0.625q0 -0.671875 -0.3125 -1.046875q-0.296875 -0.390625 -0.9375 -0.390625q-0.328125 0 -0.71875 0.21875q-0.375 0.203125 -0.703125 0.6875q0.09375 1.0 0.46875 1.515625q0.375 0.515625 1.03125 0.515625zm4.9368286 0.6875q-0.40625 0 -0.75 -0.078125q-0.328125 -0.078125 -0.609375 -0.203125q-0.265625 -0.125 -0.484375 -0.296875q-0.21875 -0.171875 -0.390625 -0.34375l0.421875 -0.578125q0.296875 0.3125 0.703125 0.546875q0.421875 0.234375 1.015625 0.234375q0.3125 0 0.578125 -0.109375q0.28125 -0.125 0.484375 -0.3125q0.203125 -0.203125 0.3125 -0.484375q0.125 -0.296875 0.125 -0.65625q0 -0.703125 -0.40625 -1.09375q-0.390625 -0.390625 -1.046875 -0.390625q-0.359375 0 -0.609375 0.109375q-0.25 0.09375 -0.546875 0.296875l-0.46875 -0.296875l0.21875 -3.265625l3.390625 0l0 0.75l-2.625 0l-0.1875 2.015625q0.25 -0.125 0.484375 -0.203125q0.25 -0.078125 0.5625 -0.078125q0.4375 0 0.8125 0.140625q0.390625 0.125 0.671875 0.390625q0.296875 0.25 0.453125 0.65625q0.171875 0.390625 0.171875 0.953125q0 0.546875 -0.1875 0.984375q-0.1875 0.421875 -0.515625 0.71875q-0.3125 0.28125 -0.734375 0.4375q-0.40625 0.15625 -0.84375 0.15625zm4.1243286 0q-0.265625 0 -0.453125 -0.1875q-0.1875 -0.1875 -0.1875 -0.46875q0 -0.3125 0.1875 -0.5q0.1875 -0.1875 0.453125 -0.1875q0.265625 0 0.4375 0.1875q0.1875 0.1875 0.1875 0.5q0 0.28125 -0.1875 0.46875q-0.171875 0.1875 -0.4375 0.1875zm1.7471924 -0.125l0 -0.515625q0.765625 -0.78125 1.359375 -1.390625q0.609375 -0.625 1.015625 -1.140625q0.40625 -0.53125 0.609375 -0.96875q0.21875 -0.453125 0.21875 -0.859375q0 -0.59375 -0.328125 -0.96875q-0.3125 -0.375 -0.96875 -0.375q-0.421875 0 -0.78125 0.25q-0.359375 0.234375 -0.65625 0.578125l-0.5 -0.5q0.421875 -0.46875 0.890625 -0.75q0.484375 -0.28125 1.15625 -0.28125q0.953125 0 1.484375 0.546875q0.546875 0.546875 0.546875 1.453125q0 0.484375 -0.203125 0.96875q-0.203125 0.484375 -0.578125 1.0q-0.359375 0.515625 -0.875 1.078125q-0.5 0.546875 -1.109375 1.1875q0.28125 -0.03125 0.578125 -0.046875q0.296875 -0.015625 0.5625 -0.015625l1.96875 0l0 0.75l-4.390625 0zm5.2962036 0l0 -0.515625q0.765625 -0.78125 1.359375 -1.390625q0.609375 -0.625 1.015625 -1.140625q0.40625 -0.53125 0.609375 -0.96875q0.21875 -0.453125 0.21875 -0.859375q0 -0.59375 -0.328125 -0.96875q-0.3125 -0.375 -0.96875 -0.375q-0.421875 0 -0.78125 0.25q-0.359375 0.234375 -0.65625 0.578125l-0.5 -0.5q0.421875 -0.46875 0.890625 -0.75q0.484375 -0.28125 1.15625 -0.28125q0.953125 0 1.484375 0.546875q0.546875 0.546875 0.546875 1.453125q0 0.484375 -0.203125 0.96875q-0.203125 0.484375 -0.578125 1.0q-0.359375 0.515625 -0.875 1.078125q-0.5 0.546875 -1.109375 1.1875q0.28125 -0.03125 0.578125 -0.046875q0.296875 -0.015625 0.5625 -0.015625l1.96875 0l0 0.75l-4.390625 0z" fill-rule="nonzero"/><path fill="#000000" fill-opacity="0.0" d="m494.4567 269.94498l0 0c0 -2.5744934 2.0870361 -4.661499 4.661499 -4.661499l40.2518 0c1.2363281 0 2.421997 0.49111938 3.2962036 1.3653259c0.8741455 0.874176 1.3652954 2.0598755 1.3652954 3.296173l0 18.645477c0 2.5744934 -2.0870361 4.6615295 -4.661499 4.6615295l-40.2518 0c-2.574463 0 -4.661499 -2.0870361 -4.661499 -4.6615295z" fill-rule="evenodd"/><path stroke="#1a1a1a" stroke-width="1.0" stroke-linejoin="round" stroke-linecap="butt" d="m494.4567 269.94498l0 0c0 -2.5744934 2.0870361 -4.661499 4.661499 -4.661499l40.2518 0c1.2363281 0 2.421997 0.49111938 3.2962036 1.3653259c0.8741455 0.874176 1.3652954 2.0598755 1.3652954 3.296173l0 18.645477c0 2.5744934 -2.0870361 4.6615295 -4.661499 4.6615295l-40.2518 0c-2.574463 0 -4.661499 -2.0870361 -4.661499 -4.6615295z" fill-rule="evenodd"/><path fill="#000000" d="m510.55936 283.00772l0 -1.875l-3.046875 0l0 -0.578125l2.90625 -4.34375l0.984375 0l0 4.21875l0.9218445 0l0 0.703125l-0.9218445 0l0 1.875l-0.84375 0zm-2.125 -2.578125l2.125 0l0 -1.96875q0 -0.28125 0.015625 -0.65625q0.015625 -0.375 0.046875 -0.65625l-0.046875 0q-0.125 0.25 -0.265625 0.484375q-0.140625 0.234375 -0.28125 0.46875l-1.59375 2.328125zm6.686798 -0.71875q0.34375 0 0.71875 -0.21875q0.390625 -0.21875 0.71875 -0.6875q-0.09375 -1.015625 -0.484375 -1.515625q-0.375 -0.515625 -1.03125 -0.515625q-0.234375 0 -0.453125 0.109375q-0.21875 0.109375 -0.390625 0.3125q-0.15625 0.1875 -0.25 0.46875q-0.078125 0.265625 -0.078125 0.609375q0 0.65625 0.296875 1.046875q0.3125 0.390625 0.953125 0.390625zm-0.3125 3.421875q-0.546875 0 -0.953125 -0.203125q-0.40625 -0.203125 -0.6875 -0.515625l0.484375 -0.546875q0.21875 0.25 0.5 0.40625q0.296875 0.140625 0.625 0.140625q0.359375 0 0.671875 -0.140625q0.328125 -0.15625 0.5625 -0.5q0.25 -0.359375 0.390625 -0.90625q0.15625 -0.5625 0.171875 -1.375q-0.3125 0.40625 -0.75 0.640625q-0.421875 0.234375 -0.84375 0.234375q-0.890625 0 -1.421875 -0.515625q-0.515625 -0.53125 -0.515625 -1.578125q0 -0.5 0.15625 -0.890625q0.171875 -0.40625 0.4375 -0.6875q0.28125 -0.296875 0.640625 -0.453125q0.375 -0.15625 0.765625 -0.15625q0.515625 0 0.9375 0.203125q0.4375 0.203125 0.75 0.609375q0.3125 0.40625 0.484375 1.03125q0.1875 0.609375 0.1875 1.421875q0 1.03125 -0.21875 1.75q-0.21875 0.71875 -0.578125 1.171875q-0.359375 0.453125 -0.828125 0.65625q-0.453125 0.203125 -0.96875 0.203125zm4.4368286 0q-0.265625 0 -0.453125 -0.1875q-0.1875 -0.1875 -0.1875 -0.46875q0 -0.3125 0.1875 -0.5q0.1875 -0.1875 0.453125 -0.1875q0.265625 0 0.4375 0.1875q0.1875 0.1875 0.1875 0.5q0 0.28125 -0.1875 0.46875q-0.171875 0.1875 -0.4375 0.1875zm3.8409424 0q-0.40625 0 -0.75 -0.078125q-0.328125 -0.078125 -0.609375 -0.203125q-0.265625 -0.140625 -0.484375 -0.3125q-0.21875 -0.171875 -0.390625 -0.359375l0.4375 -0.578125q0.3125 0.3125 0.71875 0.5625q0.421875 0.25 1.03125 0.25q0.609375 0 1.0 -0.328125q0.40625 -0.34375 0.40625 -0.921875q0 -0.296875 -0.125 -0.546875q-0.109375 -0.25 -0.359375 -0.421875q-0.25 -0.1875 -0.671875 -0.28125q-0.421875 -0.109375 -1.03125 -0.109375l0 -0.671875q0.546875 0 0.90625 -0.09375q0.375 -0.09375 0.609375 -0.265625q0.234375 -0.171875 0.328125 -0.40625q0.09375 -0.234375 0.09375 -0.5q0 -0.5 -0.3125 -0.78125q-0.3125 -0.296875 -0.859375 -0.296875q-0.421875 0 -0.78125 0.203125q-0.359375 0.1875 -0.671875 0.5l-0.46875 -0.5625q0.390625 -0.375 0.859375 -0.609375q0.484375 -0.234375 1.09375 -0.234375q0.453125 0 0.8125 0.125q0.375 0.109375 0.640625 0.328125q0.28125 0.21875 0.421875 0.546875q0.15625 0.3125 0.15625 0.71875q0 0.625 -0.34375 1.015625q-0.328125 0.390625 -0.890625 0.609375l0 0.046875q0.3125 0.0625 0.578125 0.21875q0.265625 0.140625 0.46875 0.359375q0.203125 0.21875 0.3125 0.515625q0.109375 0.28125 0.109375 0.625q0 0.453125 -0.171875 0.8125q-0.171875 0.359375 -0.484375 0.609375q-0.296875 0.25 -0.703125 0.390625q-0.40625 0.125 -0.875 0.125zm5.4368286 0q-1.03125 0 -1.609375 -0.90625q-0.578125 -0.921875 -0.578125 -2.640625q0 -1.71875 0.578125 -2.609375q0.578125 -0.890625 1.609375 -0.890625q1.015625 0 1.59375 0.890625q0.578125 0.890625 0.578125 2.609375q0 1.71875 -0.578125 2.640625q-0.578125 0.90625 -1.59375 0.90625zm0 -0.703125q0.296875 0 0.53125 -0.15625q0.25 -0.171875 0.421875 -0.515625q0.171875 -0.34375 0.265625 -0.875q0.09375 -0.546875 0.09375 -1.296875q0 -0.75 -0.09375 -1.28125q-0.09375 -0.53125 -0.265625 -0.859375q-0.171875 -0.34375 -0.421875 -0.5q-0.234375 -0.15625 -0.53125 -0.15625q-0.296875 0 -0.546875 0.15625q-0.25 0.15625 -0.421875 0.5q-0.171875 0.328125 -0.265625 0.859375q-0.09375 0.53125 -0.09375 1.28125q0 1.5 0.359375 2.171875q0.375 0.671875 0.96875 0.671875z" fill-rule="nonzero"/><path fill="#999999" d="m330.81604 150.99593l0 0c0 -3.2528381 2.6369324 -5.8897705 5.88974 -5.8897705l0 0c1.5620728 0 3.0601501 0.6205292 4.1647034 1.7250671c1.1045532 1.1045532 1.7250671 2.6026306 1.7250671 4.1647034l0 0c0 3.2528229 -2.6369324 5.8897552 -5.8897705 5.8897552l0 0c-3.2528076 0 -5.88974 -2.6369324 -5.88974 -5.8897552z" fill-rule="evenodd"/><path stroke="#1a1a1a" stroke-width="1.0" stroke-linejoin="round" stroke-linecap="butt" d="m330.81604 150.99593l0 0c0 -3.2528381 2.6369324 -5.8897705 5.88974 -5.8897705l0 0c1.5620728 0 3.0601501 0.6205292 4.1647034 1.7250671c1.1045532 1.1045532 1.7250671 2.6026306 1.7250671 4.1647034l0 0c0 3.2528229 -2.6369324 5.8897552 -5.8897705 5.8897552l0 0c-3.2528076 0 -5.88974 -2.6369324 -5.88974 -5.8897552z" fill-rule="evenodd"/><path fill="#999999" d="m235.3777 105.29776l0 0c0 -3.2528305 2.6369476 -5.889763 5.8897705 -5.889763l0 0c1.5620575 0 3.0601501 0.62052155 4.164688 1.7250671c1.1045532 1.1045456 1.7250671 2.6026306 1.7250671 4.1646957l0 0c0 3.2528229 -2.6369324 5.889763 -5.8897552 5.889763l0 0c-3.2528229 0 -5.8897705 -2.63694 -5.8897705 -5.889763z" fill-rule="evenodd"/><path stroke="#1a1a1a" stroke-width="1.0" stroke-linejoin="round" stroke-linecap="butt" d="m235.3777 105.29776l0 0c0 -3.2528305 2.6369476 -5.889763 5.8897705 -5.889763l0 0c1.5620575 0 3.0601501 0.62052155 4.164688 1.7250671c1.1045532 1.1045456 1.7250671 2.6026306 1.7250671 4.1646957l0 0c0 3.2528229 -2.6369324 5.889763 -5.8897552 5.889763l0 0c-3.2528229 0 -5.8897705 -2.63694 -5.8897705 -5.889763z" fill-rule="evenodd"/><path fill="#000000" fill-opacity="0.0" d="m216.84251 39.170696l0 0c0 -2.574482 2.0870361 -4.6615105 4.6615143 -4.6615105l40.25177 0c1.2363281 0 2.421997 0.4911232 3.2962036 1.3653259c0.87420654 0.8742027 1.3653259 2.0598755 1.3653259 3.2961845l0 18.645485c0 2.5744781 -2.0870361 4.6615105 -4.6615295 4.6615105l-40.25177 0c-2.5744781 0 -4.6615143 -2.0870323 -4.6615143 -4.6615105z" fill-rule="evenodd"/><path stroke="#1a1a1a" stroke-width="1.0" stroke-linejoin="round" stroke-linecap="butt" d="m216.84251 39.170696l0 0c0 -2.574482 2.0870361 -4.6615105 4.6615143 -4.6615105l40.25177 0c1.2363281 0 2.421997 0.4911232 3.2962036 1.3653259c0.87420654 0.8742027 1.3653259 2.0598755 1.3653259 3.2961845l0 18.645485c0 2.5744781 -2.0870361 4.6615105 -4.6615295 4.6615105l-40.25177 0c-2.5744781 0 -4.6615143 -2.0870323 -4.6615143 -4.6615105z" fill-rule="evenodd"/><path fill="#000000" d="m232.57018 52.358437q-0.5 0 -0.9375 -0.203125q-0.421875 -0.203125 -0.734375 -0.609375q-0.3125 -0.40625 -0.5 -1.015625q-0.171875 -0.625 -0.171875 -1.4375q0 -1.03125 0.203125 -1.75q0.21875 -0.71875 0.578125 -1.171875q0.359375 -0.453125 0.828125 -0.65625q0.46875 -0.203125 0.96875 -0.203125q0.5625 0 0.953125 0.203125q0.40625 0.203125 0.6875 0.515625l-0.484375 0.546875q-0.21875 -0.25 -0.515625 -0.390625q-0.28125 -0.140625 -0.59375 -0.140625q-0.359375 0 -0.6875 0.15625q-0.3125 0.140625 -0.5625 0.484375q-0.234375 0.328125 -0.390625 0.890625q-0.140625 0.546875 -0.15625 1.359375q0.3125 -0.40625 0.734375 -0.625q0.4375 -0.234375 0.859375 -0.234375q0.875 0 1.40625 0.53125q0.53125 0.515625 0.53125 1.5625q0 0.5 -0.171875 0.90625q-0.15625 0.390625 -0.4375 0.6875q-0.265625 0.28125 -0.640625 0.4375q-0.359375 0.15625 -0.765625 0.15625zm0 -0.6875q0.25 0 0.453125 -0.109375q0.21875 -0.109375 0.375 -0.296875q0.171875 -0.203125 0.25 -0.46875q0.09375 -0.28125 0.09375 -0.625q0 -0.671875 -0.3125 -1.046875q-0.296875 -0.390625 -0.9375 -0.390625q-0.328125 0 -0.71875 0.21875q-0.375 0.203125 -0.703125 0.6875q0.09375 1.0 0.46875 1.515625q0.375 0.515625 1.03125 0.515625zm4.3274536 0.5625q0.03125 -0.953125 0.15625 -1.75q0.140625 -0.8125 0.359375 -1.53125q0.234375 -0.71875 0.59375 -1.390625q0.359375 -0.671875 0.859375 -1.375l-3.390625 0l0 -0.75l4.375 0l0 0.546875q-0.609375 0.765625 -0.984375 1.46875q-0.375 0.703125 -0.609375 1.4375q-0.21875 0.71875 -0.328125 1.546875q-0.09375 0.8125 -0.125 1.796875l-0.90625 0zm4.7337036 0.125q-0.265625 0 -0.453125 -0.1875q-0.1875 -0.1875 -0.1875 -0.46875q0 -0.3125 0.1875 -0.5q0.1875 -0.1875 0.453125 -0.1875q0.265625 0 0.4375 0.1875q0.1875 0.1875 0.1875 0.5q0 0.28125 -0.1875 0.46875q-0.171875 0.1875 -0.4375 0.1875zm3.2159271 -0.125q0.03125 -0.953125 0.15625 -1.75q0.140625 -0.8125 0.359375 -1.53125q0.234375 -0.71875 0.59375 -1.390625q0.359375 -0.671875 0.859375 -1.375l-3.390625 0l0 -0.75l4.375 0l0 0.546875q-0.609375 0.765625 -0.984375 1.46875q-0.375 0.703125 -0.609375 1.4375q-0.21875 0.71875 -0.328125 1.546875q-0.09375 0.8125 -0.125 1.796875l-0.90625 0zm6.2649536 0.125q-0.5 0 -0.9375 -0.203125q-0.421875 -0.203125 -0.734375 -0.609375q-0.3125 -0.40625 -0.5 -1.015625q-0.171875 -0.625 -0.171875 -1.4375q0 -1.03125 0.203125 -1.75q0.21875 -0.71875 0.578125 -1.171875q0.359375 -0.453125 0.828125 -0.65625q0.46875 -0.203125 0.96875 -0.203125q0.5625 0 0.953125 0.203125q0.40625 0.203125 0.6875 0.515625l-0.484375 0.546875q-0.21875 -0.25 -0.515625 -0.390625q-0.28125 -0.140625 -0.59375 -0.140625q-0.359375 0 -0.6875 0.15625q-0.3125 0.140625 -0.5625 0.484375q-0.234375 0.328125 -0.390625 0.890625q-0.140625 0.546875 -0.15625 1.359375q0.3125 -0.40625 0.734375 -0.625q0.4375 -0.234375 0.859375 -0.234375q0.875 0 1.40625 0.53125q0.53125 0.515625 0.53125 1.5625q0 0.5 -0.171875 0.90625q-0.15625 0.390625 -0.4375 0.6875q-0.265625 0.28125 -0.640625 0.4375q-0.359375 0.15625 -0.765625 0.15625zm0 -0.6875q0.25 0 0.453125 -0.109375q0.21875 -0.109375 0.375 -0.296875q0.171875 -0.203125 0.25 -0.46875q0.09375 -0.28125 0.09375 -0.625q0 -0.671875 -0.3125 -1.046875q-0.296875 -0.390625 -0.9375 -0.390625q-0.328125 0 -0.71875 0.21875q-0.375 0.203125 -0.703125 0.6875q0.09375 1.0 0.46875 1.515625q0.375 0.515625 1.03125 0.515625z" fill-rule="nonzero"/><path fill="#000000" fill-opacity="0.0" d="m241.26747 99.408l0.37794495 -36.944885" fill-rule="evenodd"/><path stroke="#1a1a1a" stroke-width="1.0" stroke-linejoin="round" stroke-linecap="butt" d="m241.26747 99.40799l0.3165741 -30.94519" fill-rule="evenodd"/><path fill="#1a1a1a" stroke="#1a1a1a" stroke-width="1.0" stroke-linecap="butt" d="m243.23569 68.47969l-1.6052246 -4.5547523l-1.6980591 4.5209618z" fill-rule="evenodd"/><path fill="#000000" fill-opacity="0.0" d="m241.62967 145.10616l-0.3464508 -33.921257" fill-rule="evenodd"/><path stroke="#000000" stroke-width="1.0" stroke-linejoin="round" stroke-linecap="butt" d="m241.62967 145.10616l-0.3464508 -33.921257" fill-rule="evenodd"/><path fill="#000000" fill-opacity="0.0" d="m198.2563 146.83122l43.023636 -35.653534" fill-rule="evenodd"/><path stroke="#000000" stroke-width="1.0" stroke-linejoin="round" stroke-linecap="butt" d="m198.2563 146.83122l43.023636 -35.653534" fill-rule="evenodd"/><path fill="#000000" fill-opacity="0.0" d="m285.00305 146.83122l-43.748047 -35.653534" fill-rule="evenodd"/><path stroke="#000000" stroke-width="1.0" stroke-linejoin="round" stroke-linecap="butt" d="m285.00305 146.83122l-43.748047 -35.653534" fill-rule="evenodd"/><path fill="#000000" fill-opacity="0.0" d="m332.5411 146.83122l-91.275604 -35.653534" fill-rule="evenodd"/><path stroke="#000000" stroke-width="1.0" stroke-linejoin="round" stroke-linecap="butt" d="m332.5411 146.83122l-91.275604 -35.653534" fill-rule="evenodd"/><path fill="#cccccc" d="m96.511566 205.40536l0 0c0 -3.2528229 2.6369324 -5.8897552 5.889763 -5.8897552l0 0c1.5620651 0 3.0601425 0.6205292 4.164688 1.7250671c1.1045456 1.1045532 1.7250748 2.6026306 1.7250748 4.164688l0 0c0 3.2528381 -2.63694 5.8897705 -5.889763 5.8897705l0 0c-3.2528305 0 -5.889763 -2.6369324 -5.889763 -5.8897705z" fill-rule="evenodd"/><path stroke="#1a1a1a" stroke-width="1.0" stroke-linejoin="round" stroke-linecap="butt" d="m96.511566 205.40536l0 0c0 -3.2528229 2.6369324 -5.8897552 5.889763 -5.8897552l0 0c1.5620651 0 3.0601425 0.6205292 4.164688 1.7250671c1.1045456 1.1045532 1.7250748 2.6026306 1.7250748 4.164688l0 0c0 3.2528381 -2.63694 5.8897705 -5.889763 5.8897705l0 0c-3.2528305 0 -5.889763 -2.6369324 -5.889763 -5.8897705z" fill-rule="evenodd"/><path fill="#d9d9d9" d="m166.12573 205.40536l0 0c0 -3.2528229 2.6369476 -5.8897552 5.8897705 -5.8897552l0 0c1.5620575 0 3.0601501 0.6205292 4.164688 1.7250671c1.1045532 1.1045532 1.7250671 2.6026306 1.7250671 4.164688l0 0c0 3.2528381 -2.6369324 5.8897705 -5.8897552 5.8897705l0 0c-3.2528229 0 -5.8897705 -2.6369324 -5.8897705 -5.8897705z" fill-rule="evenodd"/><path stroke="#1a1a1a" stroke-width="1.0" stroke-linejoin="round" stroke-linecap="butt" d="m166.12573 205.40536l0 0c0 -3.2528229 2.6369476 -5.8897552 5.8897705 -5.8897552l0 0c1.5620575 0 3.0601501 0.6205292 4.164688 1.7250671c1.1045532 1.1045532 1.7250671 2.6026306 1.7250671 4.164688l0 0c0 3.2528381 -2.6369324 5.8897705 -5.8897552 5.8897705l0 0c-3.2528229 0 -5.8897705 -2.6369324 -5.8897705 -5.8897705z" fill-rule="evenodd"/><path fill="#666666" d="m235.73991 205.40536l0 0c0 -3.2528229 2.6369324 -5.8897552 5.8897552 -5.8897552l0 0c1.5620728 0 3.0601501 0.6205292 4.1647034 1.7250671c1.104538 1.1045532 1.7250671 2.6026306 1.7250671 4.164688l0 0c0 3.2528381 -2.6369324 5.8897705 -5.8897705 5.8897705l0 0c-3.2528229 0 -5.8897552 -2.6369324 -5.8897552 -5.8897705z" fill-rule="evenodd"/><path stroke="#1a1a1a" stroke-width="1.0" stroke-linejoin="round" stroke-linecap="butt" d="m235.73991 205.40536l0 0c0 -3.2528229 2.6369324 -5.8897552 5.8897552 -5.8897552l0 0c1.5620728 0 3.0601501 0.6205292 4.1647034 1.7250671c1.104538 1.1045532 1.7250671 2.6026306 1.7250671 4.164688l0 0c0 3.2528381 -2.6369324 5.8897705 -5.8897705 5.8897705l0 0c-3.2528229 0 -5.8897552 -2.6369324 -5.8897552 -5.8897705z" fill-rule="evenodd"/><path fill="#b7b7b7" d="m305.3541 205.40536l0 0c0 -3.2528229 2.6369324 -5.8897552 5.88974 -5.8897552l0 0c1.5620728 0 3.0601501 0.6205292 4.1647034 1.7250671c1.1045532 1.1045532 1.7250671 2.6026306 1.7250671 4.164688l0 0c0 3.2528381 -2.6369324 5.8897705 -5.8897705 5.8897705l0 0c-3.2528076 0 -5.88974 -2.6369324 -5.88974 -5.8897705z" fill-rule="evenodd"/><path stroke="#1a1a1a" stroke-width="1.0" stroke-linejoin="round" stroke-linecap="butt" d="m305.3541 205.40536l0 0c0 -3.2528229 2.6369324 -5.8897552 5.88974 -5.8897552l0 0c1.5620728 0 3.0601501 0.6205292 4.1647034 1.7250671c1.1045532 1.1045532 1.7250671 2.6026306 1.7250671 4.164688l0 0c0 3.2528381 -2.6369324 5.8897705 -5.8897705 5.8897705l0 0c-3.2528076 0 -5.88974 -2.6369324 -5.88974 -5.8897705z" fill-rule="evenodd"/><path fill="#f3f3f3" d="m374.96826 205.40536l0 0c0 -3.2528229 2.6369324 -5.8897552 5.8897705 -5.8897552l0 0c1.5620422 0 3.0601501 0.6205292 4.164673 1.7250671c1.1045532 1.1045532 1.7250671 2.6026306 1.7250671 4.164688l0 0c0 3.2528381 -2.6369324 5.8897705 -5.88974 5.8897705l0 0c-3.2528381 0 -5.8897705 -2.6369324 -5.8897705 -5.8897705z" fill-rule="evenodd"/><path stroke="#1a1a1a" stroke-width="1.0" stroke-linejoin="round" stroke-linecap="butt" d="m374.96826 205.40536l0 0c0 -3.2528229 2.6369324 -5.8897552 5.8897705 -5.8897552l0 0c1.5620422 0 3.0601501 0.6205292 4.164673 1.7250671c1.1045532 1.1045532 1.7250671 2.6026306 1.7250671 4.164688l0 0c0 3.2528381 -2.6369324 5.8897705 -5.88974 5.8897705l0 0c-3.2528381 0 -5.8897705 -2.6369324 -5.8897705 -5.8897705z" fill-rule="evenodd"/><path fill="#f3f3f3" d="m378.3541 150.99593l0 0c0 -3.2528381 2.6369324 -5.8897705 5.88974 -5.8897705l0 0c1.5620728 0 3.0601501 0.6205292 4.1647034 1.7250671c1.1045532 1.1045532 1.7250671 2.6026306 1.7250671 4.1647034l0 0c0 3.2528229 -2.6369324 5.8897552 -5.8897705 5.8897552l0 0c-3.2528076 0 -5.88974 -2.6369324 -5.88974 -5.8897552z" fill-rule="evenodd"/><path stroke="#1a1a1a" stroke-width="1.0" stroke-linejoin="round" stroke-linecap="butt" d="m378.3541 150.99593l0 0c0 -3.2528381 2.6369324 -5.8897705 5.88974 -5.8897705l0 0c1.5620728 0 3.0601501 0.6205292 4.1647034 1.7250671c1.1045532 1.1045532 1.7250671 2.6026306 1.7250671 4.1647034l0 0c0 3.2528229 -2.6369324 5.8897552 -5.8897705 5.8897552l0 0c-3.2528076 0 -5.88974 -2.6369324 -5.88974 -5.8897552z" fill-rule="evenodd"/><path fill="#cccccc" d="m97.27797 150.99593l0 0c0 -3.2528381 2.63694 -5.8897705 5.889763 -5.8897705l0 0c1.5620651 0 3.0601501 0.6205292 4.1646957 1.7250671c1.104538 1.1045532 1.7250671 2.6026306 1.7250671 4.1647034l0 0c0 3.2528229 -2.6369324 5.8897552 -5.889763 5.8897552l0 0c-3.2528229 0 -5.889763 -2.6369324 -5.889763 -5.8897552z" fill-rule="evenodd"/><path stroke="#1a1a1a" stroke-width="1.0" stroke-linejoin="round" stroke-linecap="butt" d="m97.27797 150.99593l0 0c0 -3.2528381 2.63694 -5.8897705 5.889763 -5.8897705l0 0c1.5620651 0 3.0601501 0.6205292 4.1646957 1.7250671c1.104538 1.1045532 1.7250671 2.6026306 1.7250671 4.1647034l0 0c0 3.2528229 -2.6369324 5.8897552 -5.889763 5.8897552l0 0c-3.2528229 0 -5.889763 -2.6369324 -5.889763 -5.8897552z" fill-rule="evenodd"/><path fill="#f3f3f3" d="m53.892143 150.99593l0 0c0 -3.2528381 2.6369362 -5.8897705 5.889763 -5.8897705l0 0c1.5620613 0 3.0601463 0.6205292 4.164692 1.7250671c1.1045418 1.1045532 1.725071 2.6026306 1.725071 4.1647034l0 0c0 3.2528229 -2.6369362 5.8897552 -5.889763 5.8897552l0 0c-3.2528267 0 -5.889763 -2.6369324 -5.889763 -5.8897552z" fill-rule="evenodd"/><path stroke="#1a1a1a" stroke-width="1.0" stroke-linejoin="round" stroke-linecap="butt" d="m53.892143 150.99593l0 0c0 -3.2528381 2.6369362 -5.8897705 5.889763 -5.8897705l0 0c1.5620613 0 3.0601463 0.6205292 4.164692 1.7250671c1.1045418 1.1045532 1.725071 2.6026306 1.725071 4.1647034l0 0c0 3.2528229 -2.6369362 5.8897552 -5.889763 5.8897552l0 0c-3.2528267 0 -5.889763 -2.6369324 -5.889763 -5.8897552z" fill-rule="evenodd"/><path fill="#d9d9d9" d="m425.89215 150.99593l0 0c0 -3.2528381 2.6369324 -5.8897705 5.88974 -5.8897705l0 0c1.5620728 0 3.0601501 0.6205292 4.1647034 1.7250671c1.1045532 1.1045532 1.7250671 2.6026306 1.7250671 4.1647034l0 0c0 3.2528229 -2.6369324 5.8897552 -5.8897705 5.8897552l0 0c-3.2528076 0 -5.88974 -2.6369324 -5.88974 -5.8897552z" fill-rule="evenodd"/><path stroke="#1a1a1a" stroke-width="1.0" stroke-linejoin="round" stroke-linecap="butt" d="m425.89215 150.99593l0 0c0 -3.2528381 2.6369324 -5.8897705 5.88974 -5.8897705l0 0c1.5620728 0 3.0601501 0.6205292 4.1647034 1.7250671c1.1045532 1.1045532 1.7250671 2.6026306 1.7250671 4.1647034l0 0c0 3.2528229 -2.6369324 5.8897552 -5.8897705 5.8897552l0 0c-3.2528076 0 -5.88974 -2.6369324 -5.88974 -5.8897552z" fill-rule="evenodd"/><path fill="#000000" fill-opacity="0.0" d="m102.40133 265.2794l0 -53.984253" fill-rule="evenodd"/><path stroke="#000000" stroke-width="1.0" stroke-linejoin="round" stroke-linecap="butt" d="m102.40133 265.2794l0 -53.984253" fill-rule="evenodd"/><path fill="#000000" fill-opacity="0.0" d="m172.0155 265.2794l0 -53.984253" fill-rule="evenodd"/><path stroke="#000000" stroke-width="1.0" stroke-linejoin="round" stroke-linecap="butt" d="m172.0155 265.2794l0 -53.984253" fill-rule="evenodd"/><path fill="#000000" fill-opacity="0.0" d="m241.26884 265.28348l0.3464508 -53.98427" fill-rule="evenodd"/><path stroke="#000000" stroke-width="1.0" stroke-linejoin="round" stroke-linecap="butt" d="m241.26884 265.28348l0.3464508 -53.98427" fill-rule="evenodd"/><path fill="#000000" fill-opacity="0.0" d="m310.76266 265.28348l0.47244263 -53.98427" fill-rule="evenodd"/><path stroke="#000000" stroke-width="1.0" stroke-linejoin="round" stroke-linecap="butt" d="m310.76266 265.28348l0.47244263 -53.98427" fill-rule="evenodd"/><path fill="#000000" fill-opacity="0.0" d="m380.25647 265.28348l0.5984192 -53.98427" fill-rule="evenodd"/><path stroke="#000000" stroke-width="1.0" stroke-linejoin="round" stroke-linecap="butt" d="m380.25647 265.28348l0.5984192 -53.98427" fill-rule="evenodd"/><path fill="#000000" fill-opacity="0.0" d="m102.40133 199.51561l-42.614174 -42.61418" fill-rule="evenodd"/><path stroke="#000000" stroke-width="1.0" stroke-linejoin="round" stroke-linecap="butt" d="m102.40133 199.51561l-42.614174 -42.61418" fill-rule="evenodd"/><path fill="#000000" fill-opacity="0.0" d="m102.40133 199.51561l0.75590515 -42.61418" fill-rule="evenodd"/><path stroke="#000000" stroke-width="1.0" stroke-linejoin="round" stroke-linecap="butt" d="m102.40133 199.51561l0.75590515 -42.61418" fill-rule="evenodd"/><path fill="#000000" fill-opacity="0.0" d="m102.40133 199.51561l44.15748 -42.61418" fill-rule="evenodd"/><path stroke="#000000" stroke-width="1.0" stroke-linejoin="round" stroke-linecap="butt" d="m102.40133 199.51561l44.15748 -42.61418" fill-rule="evenodd"/><path fill="#000000" fill-opacity="0.0" d="m102.40133 199.51561l91.685036 -42.61418" fill-rule="evenodd"/><path stroke="#000000" stroke-width="1.0" stroke-linejoin="round" stroke-linecap="butt" d="m102.40133 199.51561l91.685036 -42.61418" fill-rule="evenodd"/><path fill="#000000" fill-opacity="0.0" d="m102.39608 199.49986l329.3858 -42.61418" fill-rule="evenodd"/><path stroke="#000000" stroke-width="1.0" stroke-linejoin="round" stroke-linecap="butt" d="m102.39608 199.49986l329.3858 -42.61418" fill-rule="evenodd"/><path fill="#000000" fill-opacity="0.0" d="m102.40133 199.51561l281.85825 -42.61418" fill-rule="evenodd"/><path stroke="#000000" stroke-width="1.0" stroke-linejoin="round" stroke-linecap="butt" d="m102.40133 199.51561l281.85825 -42.61418" fill-rule="evenodd"/><path fill="#000000" fill-opacity="0.0" d="m102.40658 199.49986l234.2992 -42.61418" fill-rule="evenodd"/><path stroke="#000000" stroke-width="1.0" stroke-linejoin="round" stroke-linecap="butt" d="m102.40658 199.49986l234.2992 -42.61418" fill-rule="evenodd"/><path fill="#000000" fill-opacity="0.0" d="m102.39608 199.49986l186.77164 -42.61418" fill-rule="evenodd"/><path stroke="#000000" stroke-width="1.0" stroke-linejoin="round" stroke-linecap="butt" d="m102.39608 199.49986l186.77164 -42.61418" fill-rule="evenodd"/><path fill="#000000" fill-opacity="0.0" d="m102.40133 199.51561l139.24408 -42.61418" fill-rule="evenodd"/><path stroke="#000000" stroke-width="1.0" stroke-linejoin="round" stroke-linecap="butt" d="m102.40133 199.51561l139.24408 -42.61418" fill-rule="evenodd"/><path fill="#000000" fill-opacity="0.0" d="m59.781906 156.88568l112.220474 42.61418" fill-rule="evenodd"/><path stroke="#000000" stroke-width="1.0" stroke-linejoin="round" stroke-linecap="butt" d="m59.781906 156.88568l112.220474 42.61418" fill-rule="evenodd"/><path fill="#000000" fill-opacity="0.0" d="m59.781906 156.88568l181.85826 42.61418" fill-rule="evenodd"/><path stroke="#000000" stroke-width="1.0" stroke-linejoin="round" stroke-linecap="butt" d="m59.781906 156.88568l181.85826 42.61418" fill-rule="evenodd"/><path fill="#000000" fill-opacity="0.0" d="m59.77928 156.90143l251.46455 42.61418" fill-rule="evenodd"/><path stroke="#000000" stroke-width="1.0" stroke-linejoin="round" stroke-linecap="butt" d="m59.77928 156.90143l251.46455 42.61418" fill-rule="evenodd"/><path fill="#000000" fill-opacity="0.0" d="m59.787155 156.90143l321.07086 42.61418" fill-rule="evenodd"/><path stroke="#000000" stroke-width="1.0" stroke-linejoin="round" stroke-linecap="butt" d="m59.787155 156.90143l321.07086 42.61418" fill-rule="evenodd"/><path fill="#000000" fill-opacity="0.0" d="m103.16773 156.88568l68.850395 42.61418" fill-rule="evenodd"/><path stroke="#000000" stroke-width="1.0" stroke-linejoin="round" stroke-linecap="butt" d="m103.16773 156.88568l68.850395 42.61418" fill-rule="evenodd"/><path fill="#000000" fill-opacity="0.0" d="m103.16773 156.88568l138.4567 42.61418" fill-rule="evenodd"/><path stroke="#000000" stroke-width="1.0" stroke-linejoin="round" stroke-linecap="butt" d="m103.16773 156.88568l138.4567 42.61418" fill-rule="evenodd"/><path fill="#000000" fill-opacity="0.0" d="m103.180855 156.90143l208.06299 42.61418" fill-rule="evenodd"/><path stroke="#000000" stroke-width="1.0" stroke-linejoin="round" stroke-linecap="butt" d="m103.180855 156.90143l208.06299 42.61418" fill-rule="evenodd"/><path fill="#000000" fill-opacity="0.0" d="m103.157234 156.90143l277.7008 42.61418" fill-rule="evenodd"/><path stroke="#000000" stroke-width="1.0" stroke-linejoin="round" stroke-linecap="butt" d="m103.157234 156.90143l277.7008 42.61418" fill-rule="evenodd"/><path fill="#000000" fill-opacity="0.0" d="m146.55356 156.88568l25.448822 42.61418" fill-rule="evenodd"/><path stroke="#000000" stroke-width="1.0" stroke-linejoin="round" stroke-linecap="butt" d="m146.55356 156.88568l25.448822 42.61418" fill-rule="evenodd"/><path fill="#000000" fill-opacity="0.0" d="m146.55356 156.88568l95.08661 42.61418" fill-rule="evenodd"/><path stroke="#000000" stroke-width="1.0" stroke-linejoin="round" stroke-linecap="butt" d="m146.55356 156.88568l95.08661 42.61418" fill-rule="evenodd"/><path fill="#000000" fill-opacity="0.0" d="m146.55356 156.88568l164.6929 42.61418" fill-rule="evenodd"/><path stroke="#000000" stroke-width="1.0" stroke-linejoin="round" stroke-linecap="butt" d="m146.55356 156.88568l164.6929 42.61418" fill-rule="evenodd"/><path fill="#000000" fill-opacity="0.0" d="m146.55356 156.88568l234.29922 42.61418" fill-rule="evenodd"/><path stroke="#000000" stroke-width="1.0" stroke-linejoin="round" stroke-linecap="butt" d="m146.55356 156.88568l234.29922 42.61418" fill-rule="evenodd"/><path fill="#000000" fill-opacity="0.0" d="m172.0155 199.51561l22.078735 -42.61418" fill-rule="evenodd"/><path stroke="#000000" stroke-width="1.0" stroke-linejoin="round" stroke-linecap="butt" d="m172.0155 199.51561l22.078735 -42.61418" fill-rule="evenodd"/><path fill="#000000" fill-opacity="0.0" d="m172.0155 199.51561l69.60629 -42.61418" fill-rule="evenodd"/><path stroke="#000000" stroke-width="1.0" stroke-linejoin="round" stroke-linecap="butt" d="m172.0155 199.51561l69.60629 -42.61418" fill-rule="evenodd"/><path fill="#000000" fill-opacity="0.0" d="m172.0155 199.51561l117.165344 -42.61418" fill-rule="evenodd"/><path stroke="#000000" stroke-width="1.0" stroke-linejoin="round" stroke-linecap="butt" d="m172.0155 199.51561l117.165344 -42.61418" fill-rule="evenodd"/><path fill="#000000" fill-opacity="0.0" d="m172.01288 199.49986l164.6929 -42.61418" fill-rule="evenodd"/><path stroke="#000000" stroke-width="1.0" stroke-linejoin="round" stroke-linecap="butt" d="m172.01288 199.49986l164.6929 -42.61418" fill-rule="evenodd"/><path fill="#000000" fill-opacity="0.0" d="m172.0155 199.51561l212.22046 -42.61418" fill-rule="evenodd"/><path stroke="#000000" stroke-width="1.0" stroke-linejoin="round" stroke-linecap="butt" d="m172.0155 199.51561l212.22046 -42.61418" fill-rule="evenodd"/><path fill="#000000" fill-opacity="0.0" d="m172.00238 199.49986l259.7795 -42.61418" fill-rule="evenodd"/><path stroke="#000000" stroke-width="1.0" stroke-linejoin="round" stroke-linecap="butt" d="m172.00238 199.49986l259.7795 -42.61418" fill-rule="evenodd"/><path fill="#000000" fill-opacity="0.0" d="m241.62967 199.51561l-47.527557 -42.61418" fill-rule="evenodd"/><path stroke="#000000" stroke-width="1.0" stroke-linejoin="round" stroke-linecap="butt" d="m241.62967 199.51561l-47.527557 -42.61418" fill-rule="evenodd"/><path fill="#000000" fill-opacity="0.0" d="m241.62967 199.51561l0 -42.61418" fill-rule="evenodd"/><path stroke="#000000" stroke-width="1.0" stroke-linejoin="round" stroke-linecap="butt" d="m241.62967 199.51561l0 -42.61418" fill-rule="evenodd"/><path fill="#000000" fill-opacity="0.0" d="m241.62967 199.51561l47.527557 -42.61418" fill-rule="evenodd"/><path stroke="#000000" stroke-width="1.0" stroke-linejoin="round" stroke-linecap="butt" d="m241.62967 199.51561l47.527557 -42.61418" fill-rule="evenodd"/><path fill="#000000" fill-opacity="0.0" d="m241.62967 199.51561l95.08661 -42.61418" fill-rule="evenodd"/><path stroke="#000000" stroke-width="1.0" stroke-linejoin="round" stroke-linecap="butt" d="m241.62967 199.51561l95.08661 -42.61418" fill-rule="evenodd"/><path fill="#000000" fill-opacity="0.0" d="m241.62967 199.51561l142.61417 -42.61418" fill-rule="evenodd"/><path stroke="#000000" stroke-width="1.0" stroke-linejoin="round" stroke-linecap="butt" d="m241.62967 199.51561l142.61417 -42.61418" fill-rule="evenodd"/><path fill="#000000" fill-opacity="0.0" d="m241.64017 199.49986l190.14172 -42.61418" fill-rule="evenodd"/><path stroke="#000000" stroke-width="1.0" stroke-linejoin="round" stroke-linecap="butt" d="m241.64017 199.49986l190.14172 -42.61418" fill-rule="evenodd"/><path fill="#000000" fill-opacity="0.0" d="m311.24384 199.51561l-117.165344 -42.61418" fill-rule="evenodd"/><path stroke="#000000" stroke-width="1.0" stroke-linejoin="round" stroke-linecap="butt" d="m311.24384 199.51561l-117.165344 -42.61418" fill-rule="evenodd"/><path fill="#000000" fill-opacity="0.0" d="m311.24384 199.51561l-69.60629 -42.61418" fill-rule="evenodd"/><path stroke="#000000" stroke-width="1.0" stroke-linejoin="round" stroke-linecap="butt" d="m311.24384 199.51561l-69.60629 -42.61418" fill-rule="evenodd"/><path fill="#000000" fill-opacity="0.0" d="m311.24384 199.51561l-22.078735 -42.61418" fill-rule="evenodd"/><path stroke="#000000" stroke-width="1.0" stroke-linejoin="round" stroke-linecap="butt" d="m311.24384 199.51561l-22.078735 -42.61418" fill-rule="evenodd"/><path fill="#000000" fill-opacity="0.0" d="m311.24384 199.51561l25.448822 -42.61418" fill-rule="evenodd"/><path stroke="#000000" stroke-width="1.0" stroke-linejoin="round" stroke-linecap="butt" d="m311.24384 199.51561l25.448822 -42.61418" fill-rule="evenodd"/><path fill="#000000" fill-opacity="0.0" d="m311.24384 199.51561l73.00787 -42.61418" fill-rule="evenodd"/><path stroke="#000000" stroke-width="1.0" stroke-linejoin="round" stroke-linecap="butt" d="m311.24384 199.51561l73.00787 -42.61418" fill-rule="evenodd"/><path fill="#000000" fill-opacity="0.0" d="m311.24384 199.51561l120.53543 -42.61418" fill-rule="evenodd"/><path stroke="#000000" stroke-width="1.0" stroke-linejoin="round" stroke-linecap="butt" d="m311.24384 199.51561l120.53543 -42.61418" fill-rule="evenodd"/><path fill="#000000" fill-opacity="0.0" d="m380.85803 199.51561l-186.77167 -42.61418" fill-rule="evenodd"/><path stroke="#000000" stroke-width="1.0" stroke-linejoin="round" stroke-linecap="butt" d="m380.85803 199.51561l-186.77167 -42.61418" fill-rule="evenodd"/><path fill="#000000" fill-opacity="0.0" d="m380.85803 199.51561l-139.21262 -42.61418" fill-rule="evenodd"/><path stroke="#000000" stroke-width="1.0" stroke-linejoin="round" stroke-linecap="butt" d="m380.85803 199.51561l-139.21262 -42.61418" fill-rule="evenodd"/><path fill="#000000" fill-opacity="0.0" d="m385.0227 201.24068l-95.8425 -44.34645" fill-rule="evenodd"/><path stroke="#000000" stroke-width="1.0" stroke-linejoin="round" stroke-linecap="butt" d="m385.0227 201.24068l-95.8425 -44.34645" fill-rule="evenodd"/><path fill="#000000" fill-opacity="0.0" d="m380.85803 199.51561l-44.1575 -42.61418" fill-rule="evenodd"/><path stroke="#000000" stroke-width="1.0" stroke-linejoin="round" stroke-linecap="butt" d="m380.85803 199.51561l-44.1575 -42.61418" fill-rule="evenodd"/><path fill="#000000" fill-opacity="0.0" d="m380.85803 199.51561l3.4015503 -42.61418" fill-rule="evenodd"/><path stroke="#000000" stroke-width="1.0" stroke-linejoin="round" stroke-linecap="butt" d="m380.85803 199.51561l3.4015503 -42.61418" fill-rule="evenodd"/><path fill="#000000" fill-opacity="0.0" d="m380.85803 199.51561l50.929108 -42.61418" fill-rule="evenodd"/><path stroke="#000000" stroke-width="1.0" stroke-linejoin="round" stroke-linecap="butt" d="m380.85803 199.51561l50.929108 -42.61418" fill-rule="evenodd"/><path fill="#d9ead3" d="m474.53806 95.97385l0 0c0 -2.5744781 2.0870361 -4.6615143 4.661499 -4.6615143l40.2518 0c1.2363281 0 2.421997 0.491127 3.2962036 1.3653259c0.87420654 0.87420654 1.3652954 2.0598755 1.3652954 3.2961884l0 18.645485c0 2.5744781 -2.0870361 4.6615067 -4.661499 4.6615067l-40.2518 0c-2.574463 0 -4.661499 -2.0870285 -4.661499 -4.6615067z" fill-rule="evenodd"/><path stroke="#1a1a1a" stroke-width="1.0" stroke-linejoin="round" stroke-linecap="butt" d="m474.53806 95.97385l0 0c0 -2.5744781 2.0870361 -4.6615143 4.661499 -4.6615143l40.2518 0c1.2363281 0 2.421997 0.491127 3.2962036 1.3653259c0.87420654 0.87420654 1.3652954 2.0598755 1.3652954 3.2961884l0 18.645485c0 2.5744781 -2.0870361 4.6615067 -4.661499 4.6615067l-40.2518 0c-2.574463 0 -4.661499 -2.0870285 -4.661499 -4.6615067z" fill-rule="evenodd"/><path fill="#000000" d="m488.4607 109.03659l0 -6.984375l0.890625 0l0 6.234375l3.0625 0l0 0.75l-3.953125 0zm7.7571106 0.125q-0.65625 0 -1.203125 -0.25q-0.546875 -0.265625 -0.953125 -0.734375q-0.390625 -0.46875 -0.609375 -1.140625q-0.21875 -0.6875 -0.21875 -1.53125q0 -0.84375 0.21875 -1.5q0.21875 -0.671875 0.609375 -1.125q0.40625 -0.46875 0.953125 -0.71875q0.546875 -0.25 1.203125 -0.25q0.671875 0 1.21875 0.25q0.546875 0.25 0.9375 0.71875q0.40625 0.46875 0.625 1.140625q0.21875 0.65625 0.21875 1.484375q0 0.84375 -0.21875 1.53125q-0.21875 0.671875 -0.625 1.140625q-0.390625 0.46875 -0.9375 0.734375q-0.546875 0.25 -1.21875 0.25zm0 -0.78125q0.46875 0 0.84375 -0.203125q0.390625 -0.203125 0.65625 -0.578125q0.28125 -0.375 0.421875 -0.890625q0.15625 -0.53125 0.15625 -1.203125q0 -0.640625 -0.15625 -1.15625q-0.140625 -0.53125 -0.421875 -0.890625q-0.265625 -0.375 -0.65625 -0.5625q-0.375 -0.203125 -0.84375 -0.203125q-0.46875 0 -0.84375 0.203125q-0.375 0.1875 -0.65625 0.5625q-0.265625 0.359375 -0.421875 0.890625q-0.140625 0.515625 -0.140625 1.15625q0 0.671875 0.140625 1.203125q0.15625 0.515625 0.421875 0.890625q0.28125 0.375 0.65625 0.578125q0.375 0.203125 0.84375 0.203125zm6.4508057 0.78125q-0.75 0 -1.375 -0.265625q-0.625 -0.28125 -1.078125 -0.765625l0.53125 -0.625q0.375 0.40625 0.875 0.640625q0.5 0.234375 1.046875 0.234375q0.703125 0 1.078125 -0.3125q0.390625 -0.3125 0.390625 -0.828125q0 -0.265625 -0.09375 -0.4375q-0.09375 -0.1875 -0.25 -0.328125q-0.15625 -0.140625 -0.375 -0.234375q-0.203125 -0.109375 -0.453125 -0.234375l-1.0 -0.4375q-0.25 -0.09375 -0.5 -0.25q-0.25 -0.15625 -0.453125 -0.359375q-0.203125 -0.21875 -0.34375 -0.5q-0.125 -0.296875 -0.125 -0.6875q0 -0.390625 0.171875 -0.734375q0.171875 -0.34375 0.453125 -0.59375q0.296875 -0.25 0.6875 -0.390625q0.40625 -0.140625 0.890625 -0.140625q0.625 0 1.15625 0.25q0.53125 0.234375 0.90625 0.625l-0.46875 0.5625q-0.328125 -0.296875 -0.71875 -0.46875q-0.390625 -0.1875 -0.875 -0.1875q-0.59375 0 -0.953125 0.28125q-0.34375 0.265625 -0.34375 0.75q0 0.25 0.09375 0.4375q0.109375 0.171875 0.28125 0.3125q0.171875 0.125 0.359375 0.234375q0.203125 0.09375 0.421875 0.171875l1.0 0.421875q0.296875 0.125 0.5625 0.296875q0.265625 0.171875 0.453125 0.390625q0.1875 0.21875 0.296875 0.515625q0.125 0.28125 0.125 0.671875q0 0.40625 -0.171875 0.78125q-0.171875 0.359375 -0.484375 0.625q-0.296875 0.265625 -0.734375 0.421875q-0.4375 0.15625 -0.984375 0.15625zm5.6904907 0q-0.75 0 -1.375 -0.265625q-0.625 -0.28125 -1.078125 -0.765625l0.53125 -0.625q0.375 0.40625 0.875 0.640625q0.5 0.234375 1.046875 0.234375q0.703125 0 1.078125 -0.3125q0.390625 -0.3125 0.390625 -0.828125q0 -0.265625 -0.09375 -0.4375q-0.09375 -0.1875 -0.25 -0.328125q-0.15625 -0.140625 -0.375 -0.234375q-0.203125 -0.109375 -0.453125 -0.234375l-1.0 -0.4375q-0.25 -0.09375 -0.5 -0.25q-0.25 -0.15625 -0.453125 -0.359375q-0.203125 -0.21875 -0.34375 -0.5q-0.125 -0.296875 -0.125 -0.6875q0 -0.390625 0.171875 -0.734375q0.171875 -0.34375 0.453125 -0.59375q0.296875 -0.25 0.6875 -0.390625q0.40625 -0.140625 0.890625 -0.140625q0.625 0 1.15625 0.25q0.53125 0.234375 0.90625 0.625l-0.46875 0.5625q-0.328125 -0.296875 -0.71875 -0.46875q-0.390625 -0.1875 -0.875 -0.1875q-0.59375 0 -0.953125 0.28125q-0.34375 0.265625 -0.34375 0.75q0 0.25 0.09375 0.4375q0.109375 0.171875 0.28125 0.3125q0.171875 0.125 0.359375 0.234375q0.203125 0.09375 0.421875 0.171875l1.0 0.421875q0.296875 0.125 0.5625 0.296875q0.265625 0.171875 0.453125 0.390625q0.1875 0.21875 0.296875 0.515625q0.125 0.28125 0.125 0.671875q0 0.40625 -0.171875 0.78125q-0.171875 0.359375 -0.484375 0.625q-0.296875 0.265625 -0.734375 0.421875q-0.4375 0.15625 -0.984375 0.15625z" fill-rule="nonzero"/><path fill="#000000" fill-opacity="0.0" d="m241.62993 34.509186c0 -12.499872 64.425186 -32.102108 128.85039 -24.999746c64.4252 7.1023617 128.8504 40.909325 128.8504 81.81865" fill-rule="evenodd"/><path stroke="#595959" stroke-width="1.0" stroke-linejoin="round" stroke-linecap="butt" stroke-dasharray="4.0,3.0" d="m241.62993 34.509186c0 -12.499874 64.425186 -32.102108 128.85039 -24.999746c32.212585 3.5511818 64.4252 13.778513 88.584656 28.231714c12.079712 7.226597 22.146149 15.509666 29.192657 24.542915c3.5232544 4.5166283 6.291504 9.2207985 8.178955 14.07423c0.9437561 2.426712 1.6672974 4.8907394 2.1548767 7.3872986c0.060943604 0.31207275 0.1182251 0.6246567 0.17175293 0.9377289c0.026763916 0.15653992 0.052612305 0.3132019 0.077545166 0.4699936l0.029388428 0.19246674" fill-rule="evenodd"/><path fill="#595959" stroke="#595959" stroke-width="1.0" stroke-linecap="butt" d="m497.2233 85.47257l1.9952087 4.3979263l1.2984924 -4.651497z" fill-rule="evenodd"/><path fill="#000000" fill-opacity="0.0" d="m449.75027 265.28348c0 -36.501022 12.393707 -54.750076 24.787415 -73.002045c12.393707 -18.251968 24.787384 -36.506866 24.787384 -73.01372" fill-rule="evenodd"/><path stroke="#595959" stroke-width="1.0" stroke-linejoin="round" stroke-linecap="butt" stroke-dasharray="4.0,3.0" d="m449.75027 265.28348c0 -36.501038 12.393707 -54.750076 24.787415 -73.002045c6.1968384 -9.125977 12.393707 -18.2527 17.041351 -29.66127c2.3237915 -5.7043 4.260315 -11.97905 5.6158752 -19.109406c0.6777954 -3.5651855 1.2103577 -7.344269 1.5734253 -11.372894c0.18154907 -2.0143127 0.32073975 -4.0910034 0.41452026 -6.234543l0.02609253 -0.636734" fill-rule="evenodd"/><path fill="#595959" stroke="#595959" stroke-width="1.0" stroke-linecap="butt" d="m500.86038 125.29856l-1.5635986 -4.569214l-1.7392578 4.505272z" fill-rule="evenodd"/><path fill="#000000" fill-opacity="0.0" d="m63.946598 146.83122l177.32283 -35.653534" fill-rule="evenodd"/><path stroke="#000000" stroke-width="1.0" stroke-linejoin="round" stroke-linecap="butt" d="m63.946598 146.83122l177.32283 -35.653534" fill-rule="evenodd"/><path fill="#000000" fill-opacity="0.0" d="m107.33242 146.83122l133.92126 -35.653534" fill-rule="evenodd"/><path stroke="#000000" stroke-width="1.0" stroke-linejoin="round" stroke-linecap="butt" d="m107.33242 146.83122l133.92126 -35.653534" fill-rule="evenodd"/><path fill="#000000" fill-opacity="0.0" d="m380.07916 146.83122l-138.80316 -35.653534" fill-rule="evenodd"/><path stroke="#000000" stroke-width="1.0" stroke-linejoin="round" stroke-linecap="butt" d="m380.07916 146.83122l-138.80316 -35.653534" fill-rule="evenodd"/><path fill="#000000" fill-opacity="0.0" d="m427.61722 146.83122l-186.36221 -35.653534" fill-rule="evenodd"/><path stroke="#000000" stroke-width="1.0" stroke-linejoin="round" stroke-linecap="butt" d="m427.61722 146.83122l-186.36221 -35.653534" fill-rule="evenodd"/></g></svg>