<svg version="1.1" viewBox="0.0 0.0 817.3464566929134 369.9737532808399" fill="none" stroke="none" stroke-linecap="square" stroke-miterlimit="10" xmlns:xlink="http://www.w3.org/1999/xlink" xmlns="http://www.w3.org/2000/svg"><clipPath id="p.0"><path d="m0 0l817.34644 0l0 369.97375l-817.34644 0l0 -369.97375z" clip-rule="nonzero"/></clipPath><g clip-path="url(#p.0)"><path fill="#000000" fill-opacity="0.0" d="m0 0l817.34644 0l0 369.97375l-817.34644 0z" fill-rule="evenodd"/><path fill="#000000" fill-opacity="0.0" d="m375.82153 12.66151l0 0c0 -2.574481 2.0870056 -4.6615105 4.661499 -4.6615105l56.566742 0c1.2362976 0 2.421997 0.49112225 3.296173 1.365325c0.87420654 0.8742027 1.3653259 2.0598764 1.3653259 3.2961855l0 18.645483c0 2.57448 -2.0870056 4.6615086 -4.661499 4.6615086l-56.566742 0c-2.5744934 0 -4.661499 -2.0870285 -4.661499 -4.6615086z" fill-rule="evenodd"/><path stroke="#1a1a1a" stroke-width="1.0" stroke-linejoin="round" stroke-linecap="butt" d="m375.82153 12.66151l0 0c0 -2.574481 2.0870056 -4.6615105 4.661499 -4.6615105l56.566742 0c1.2362976 0 2.421997 0.49112225 3.296173 1.365325c0.87420654 0.8742027 1.3653259 2.0598764 1.3653259 3.2961855l0 18.645483c0 2.57448 -2.0870056 4.6615086 -4.661499 4.6615086l-56.566742 0c-2.5744934 0 -4.661499 -2.0870285 -4.661499 -4.6615086z" fill-rule="evenodd"/><path fill="#000000" d="m403.36023 25.724253l-1.875 -5.171875l0.90625 0l0.984375 2.9375q0.109375 0.375 0.234375 0.765625q0.125 0.375 0.25 0.75l0.03125 0q0.125 -0.375 0.234375 -0.75q0.125 -0.390625 0.234375 -0.765625l0.984375 -2.9375l0.859375 0l-1.828125 5.171875l-1.015625 0zm5.039032 0.125q-0.640625 0 -1.078125 -0.375q-0.4375 -0.390625 -0.4375 -1.09375q0 -0.84375 0.75 -1.296875q0.765625 -0.453125 2.4375 -0.640625q0 -0.25 -0.046875 -0.484375q-0.046875 -0.234375 -0.171875 -0.40625q-0.109375 -0.1875 -0.328125 -0.296875q-0.203125 -0.109375 -0.515625 -0.109375q-0.453125 0 -0.859375 0.171875q-0.390625 0.171875 -0.6875 0.375l-0.34375 -0.609375q0.359375 -0.234375 0.875 -0.453125q0.53125 -0.21875 1.15625 -0.21875q0.953125 0 1.375 0.59375q0.421875 0.578125 0.421875 1.546875l0 3.171875l-0.71875 0l-0.078125 -0.625l-0.03125 0q-0.375 0.3125 -0.796875 0.53125q-0.421875 0.21875 -0.921875 0.21875zm0.265625 -0.703125q0.375 0 0.703125 -0.171875q0.328125 -0.171875 0.703125 -0.515625l0 -1.4375q-0.65625 0.078125 -1.109375 0.203125q-0.4375 0.109375 -0.703125 0.28125q-0.265625 0.15625 -0.390625 0.359375q-0.125 0.203125 -0.125 0.453125q0 0.453125 0.265625 0.640625q0.265625 0.1875 0.65625 0.1875zm5.2770386 0.703125q-0.5625 0 -1.0625 -0.203125q-0.5 -0.203125 -0.875 -0.515625l0.4375 -0.578125q0.34375 0.28125 0.703125 0.453125q0.359375 0.171875 0.828125 0.171875q0.5 0 0.75 -0.234375q0.265625 -0.234375 0.265625 -0.578125q0 -0.203125 -0.109375 -0.34375q-0.109375 -0.15625 -0.28125 -0.265625q-0.15625 -0.125 -0.375 -0.203125q-0.203125 -0.09375 -0.421875 -0.171875q-0.265625 -0.09375 -0.546875 -0.21875q-0.28125 -0.125 -0.5 -0.296875q-0.21875 -0.171875 -0.359375 -0.40625q-0.140625 -0.234375 -0.140625 -0.578125q0 -0.296875 0.125 -0.5625q0.125 -0.28125 0.34375 -0.46875q0.234375 -0.203125 0.5625 -0.3125q0.34375 -0.125 0.75 -0.125q0.5 0 0.90625 0.171875q0.40625 0.171875 0.703125 0.421875l-0.40625 0.546875q-0.265625 -0.203125 -0.5625 -0.328125q-0.28125 -0.125 -0.625 -0.125q-0.484375 0 -0.71875 0.234375q-0.234375 0.21875 -0.234375 0.515625q0 0.171875 0.09375 0.3125q0.109375 0.125 0.265625 0.234375q0.15625 0.09375 0.359375 0.1875q0.21875 0.078125 0.4375 0.15625q0.28125 0.109375 0.5625 0.234375q0.28125 0.109375 0.5 0.28125q0.234375 0.171875 0.375 0.4375q0.140625 0.25 0.140625 0.609375q0 0.328125 -0.125 0.609375q-0.125 0.265625 -0.359375 0.484375q-0.234375 0.203125 -0.59375 0.328125q-0.359375 0.125 -0.8125 0.125z" fill-rule="nonzero"/><path fill="#000000" fill-opacity="0.0" d="m559.74805 142.65889l0 0c0 -2.5744781 2.0870361 -4.6615143 4.661499 -4.6615143l56.56671 0c1.2363281 0 2.421997 0.49111938 3.2962036 1.3653259c0.87420654 0.87420654 1.3653564 2.0598755 1.3653564 3.2961884l0 18.645477c0 2.5744781 -2.0870361 4.6615143 -4.66156 4.6615143l-56.56671 0c-2.574463 0 -4.661499 -2.0870361 -4.661499 -4.6615143z" fill-rule="evenodd"/><path stroke="#1a1a1a" stroke-width="1.0" stroke-linejoin="round" stroke-linecap="butt" d="m559.74805 142.65889l0 0c0 -2.5744781 2.0870361 -4.6615143 4.661499 -4.6615143l56.56671 0c1.2363281 0 2.421997 0.49111938 3.2962036 1.3653259c0.87420654 0.87420654 1.3653564 2.0598755 1.3653564 3.2961884l0 18.645477c0 2.5744781 -2.0870361 4.6615143 -4.66156 4.6615143l-56.56671 0c-2.574463 0 -4.661499 -2.0870361 -4.661499 -4.6615143z" fill-rule="evenodd"/><path fill="#000000" d="m590.49347 155.84663q-0.40625 0 -0.6875 -0.125q-0.28125 -0.125 -0.46875 -0.34375q-0.171875 -0.234375 -0.25 -0.546875q-0.078125 -0.328125 -0.078125 -0.703125l0 -2.875l-0.765625 0l0 -0.65625l0.8125 -0.046875l0.109375 -1.453125l0.734375 0l0 1.453125l1.390625 0l0 0.703125l-1.390625 0l0 2.875q0 0.484375 0.171875 0.75q0.1875 0.25 0.625 0.25q0.140625 0 0.296875 -0.03125q0.171875 -0.046875 0.296875 -0.09375l0.171875 0.65625q-0.21875 0.078125 -0.46875 0.125q-0.25 0.0625 -0.5 0.0625zm3.4924927 0q-0.828125 0 -1.21875 -0.5q-0.375 -0.515625 -0.375 -1.515625l0 -3.28125l0.890625 0l0 3.15625q0 0.734375 0.21875 1.0625q0.234375 0.328125 0.75 0.328125q0.40625 0 0.703125 -0.203125q0.3125 -0.21875 0.6875 -0.671875l0 -3.671875l0.875 0l0 5.171875l-0.71875 0l-0.078125 -0.8125l-0.03125 0q-0.359375 0.421875 -0.765625 0.6875q-0.390625 0.25 -0.9375 0.25z" fill-rule="nonzero"/><path fill="#000000" fill-opacity="0.0" d="m743.66406 214.65889l0 0c0 -2.5744781 2.0870361 -4.6615143 4.661499 -4.6615143l56.56671 0c1.2363281 0 2.421997 0.49111938 3.2962036 1.3653259c0.87420654 0.87420654 1.3653564 2.0598755 1.3653564 3.2961884l0 18.645477c0 2.5744781 -2.0870361 4.6615143 -4.66156 4.6615143l-56.56671 0c-2.574463 0 -4.661499 -2.0870361 -4.661499 -4.6615143z" fill-rule="evenodd"/><path stroke="#1a1a1a" stroke-width="1.0" stroke-linejoin="round" stroke-linecap="butt" d="m743.66406 214.65889l0 0c0 -2.5744781 2.0870361 -4.6615143 4.661499 -4.6615143l56.56671 0c1.2363281 0 2.421997 0.49111938 3.2962036 1.3653259c0.87420654 0.87420654 1.3653564 2.0598755 1.3653564 3.2961884l0 18.645477c0 2.5744781 -2.0870361 4.6615143 -4.66156 4.6615143l-56.56671 0c-2.574463 0 -4.661499 -2.0870361 -4.661499 -4.6615143z" fill-rule="evenodd"/><path fill="#000000" d="m767.0591 226.33101l-4.578125 -1.796875l0 -0.703125l4.578125 -1.796875l0 0.765625l-2.25 0.828125l-1.4375 0.53125l0 0.046875l1.4375 0.53125l2.25 0.828125l0 0.765625zm1.3118286 1.390625l0 -6.984375l4.03125 0l0 0.734375l-3.140625 0l0 2.203125l2.65625 0l0 0.75l-2.65625 0l0 2.546875l3.25 0l0 0.75l-4.140625 0zm8.194031 0.125q-0.65625 0 -1.203125 -0.25q-0.546875 -0.265625 -0.953125 -0.734375q-0.390625 -0.46875 -0.609375 -1.140625q-0.21875 -0.6875 -0.21875 -1.53125q0 -0.84375 0.21875 -1.5q0.21875 -0.671875 0.609375 -1.125q0.40625 -0.46875 0.953125 -0.71875q0.546875 -0.25 1.203125 -0.25q0.67193604 0 1.218811 0.25q0.546875 0.25 0.9375 0.71875q0.40625 0.46875 0.625 1.140625q0.21875 0.65625 0.21875 1.484375q0 0.84375 -0.21875 1.53125q-0.21875 0.671875 -0.625 1.140625q-0.390625 0.46875 -0.9375 0.734375q-0.546875 0.25 -1.218811 0.25zm0 -0.78125q0.46881104 0 0.84381104 -0.203125q0.390625 -0.203125 0.65625 -0.578125q0.28125 -0.375 0.421875 -0.890625q0.15625 -0.53125 0.15625 -1.203125q0 -0.640625 -0.15625 -1.15625q-0.140625 -0.53125 -0.421875 -0.890625q-0.265625 -0.375 -0.65625 -0.5625q-0.375 -0.203125 -0.84381104 -0.203125q-0.46875 0 -0.84375 0.203125q-0.375 0.1875 -0.65625 0.5625q-0.265625 0.359375 -0.421875 0.890625q-0.140625 0.515625 -0.140625 1.15625q0 0.671875 0.140625 1.203125q0.15625 0.515625 0.421875 0.890625q0.28125 0.375 0.65625 0.578125q0.375 0.203125 0.84375 0.203125zm6.4508667 0.78125q-0.75 0 -1.375 -0.265625q-0.625 -0.28125 -1.078125 -0.765625l0.53125 -0.625q0.375 0.40625 0.875 0.640625q0.5 0.234375 1.046875 0.234375q0.703125 0 1.078125 -0.3125q0.390625 -0.3125 0.390625 -0.828125q0 -0.265625 -0.09375 -0.4375q-0.09375 -0.1875 -0.25 -0.328125q-0.15625 -0.140625 -0.375 -0.234375q-0.203125 -0.109375 -0.453125 -0.234375l-1.0 -0.4375q-0.25 -0.09375 -0.5 -0.25q-0.25 -0.15625 -0.453125 -0.359375q-0.203125 -0.21875 -0.34375 -0.5q-0.125 -0.296875 -0.125 -0.6875q0 -0.390625 0.171875 -0.734375q0.171875 -0.34375 0.453125 -0.59375q0.296875 -0.25 0.6875 -0.390625q0.40625 -0.140625 0.890625 -0.140625q0.625 0 1.15625 0.25q0.53125 0.234375 0.90625 0.625l-0.46875 0.5625q-0.328125 -0.296875 -0.71875 -0.46875q-0.390625 -0.1875 -0.875 -0.1875q-0.59375 0 -0.953125 0.28125q-0.34375 0.265625 -0.34375 0.75q0 0.25 0.09375 0.4375q0.109375 0.171875 0.28125 0.3125q0.171875 0.125 0.359375 0.234375q0.203125 0.09375 0.421875 0.171875l1.0 0.421875q0.296875 0.125 0.5625 0.296875q0.265625 0.171875 0.453125 0.390625q0.1875 0.21875 0.296875 0.515625q0.125 0.28125 0.125 0.671875q0 0.40625 -0.171875 0.78125q-0.171875 0.359375 -0.484375 0.625q-0.296875 0.265625 -0.734375 0.421875q-0.4375 0.15625 -0.984375 0.15625zm3.1436157 -1.515625l0 -0.765625l2.25 -0.828125l1.421875 -0.53125l0 -0.046875l-1.421875 -0.53125l-2.25 -0.828125l0 -0.765625l4.578125 1.796875l0 0.703125l-4.578125 1.796875z" fill-rule="nonzero"/><path fill="#000000" fill-opacity="0.0" d="m7.9986877 214.65823l0 0c0 -2.5744781 2.0870295 -4.6615143 4.6615105 -4.6615143l56.566746 0c1.2363052 0 2.4219818 0.49111938 3.2961807 1.3653259c0.87420654 0.87420654 1.3653259 2.0598755 1.3653259 3.2961884l0 18.645477c0 2.5744781 -2.0870285 4.6615143 -4.6615067 4.6615143l-56.566746 0c-2.574481 0 -4.6615105 -2.0870361 -4.6615105 -4.6615143z" fill-rule="evenodd"/><path stroke="#1a1a1a" stroke-width="1.0" stroke-linejoin="round" stroke-linecap="butt" d="m7.9986877 214.65823l0 0c0 -2.5744781 2.0870295 -4.6615143 4.6615105 -4.6615143l56.566746 0c1.2363052 0 2.4219818 0.49111938 3.2961807 1.3653259c0.87420654 0.87420654 1.3653259 2.0598755 1.3653259 3.2961884l0 18.645477c0 2.5744781 -2.0870285 4.6615143 -4.6615067 4.6615143l-56.566746 0c-2.574481 0 -4.6615105 -2.0870361 -4.6615105 -4.6615143z" fill-rule="evenodd"/><path fill="#000000" d="m31.356466 226.33035l-4.578125 -1.796875l0 -0.703125l4.578125 -1.796875l0 0.765625l-2.25 0.828125l-1.4375 0.53125l0 0.046875l1.4375 0.53125l2.25 0.828125l0 0.765625zm3.2649517 1.515625q-0.75 0 -1.375 -0.265625q-0.625 -0.28125 -1.078125 -0.765625l0.53125 -0.625q0.375 0.40625 0.875 0.640625q0.5 0.234375 1.046875 0.234375q0.703125 0 1.078125 -0.3125q0.390625 -0.3125 0.390625 -0.828125q0 -0.265625 -0.09375 -0.4375q-0.09375 -0.1875 -0.25 -0.328125q-0.15625 -0.140625 -0.375 -0.234375q-0.203125 -0.109375 -0.453125 -0.234375l-1.0 -0.4375q-0.25 -0.09375 -0.5 -0.25q-0.25 -0.15625 -0.453125 -0.359375q-0.203125 -0.21875 -0.34375 -0.5q-0.125 -0.296875 -0.125 -0.6875q0 -0.390625 0.171875 -0.734375q0.171875 -0.34375 0.453125 -0.59375q0.296875 -0.25 0.6875 -0.390625q0.40625 -0.140625 0.890625 -0.140625q0.625 0 1.15625 0.25q0.53125 0.234375 0.90625 0.625l-0.46875 0.5625q-0.328125 -0.296875 -0.71875 -0.46875q-0.390625 -0.1875 -0.875 -0.1875q-0.59375 0 -0.953125 0.28125q-0.34375 0.265625 -0.34375 0.75q0 0.25 0.09375 0.4375q0.109375 0.171875 0.28125 0.3125q0.171875 0.125 0.359375 0.234375q0.203125 0.09375 0.421875 0.171875l1.0 0.421875q0.296875 0.125 0.5625 0.296875q0.265625 0.171875 0.453125 0.390625q0.1875 0.21875 0.296875 0.515625q0.125 0.28125 0.125 0.671875q0 0.40625 -0.171875 0.78125q-0.171875 0.359375 -0.484375 0.625q-0.296875 0.265625 -0.734375 0.421875q-0.4375 0.15625 -0.984375 0.15625zm6.3154907 0q-0.65625 0 -1.203125 -0.25q-0.546875 -0.265625 -0.953125 -0.734375q-0.390625 -0.46875 -0.609375 -1.140625q-0.21875 -0.6875 -0.21875 -1.53125q0 -0.84375 0.21875 -1.5q0.21875 -0.671875 0.609375 -1.125q0.40625 -0.46875 0.953125 -0.71875q0.546875 -0.25 1.203125 -0.25q0.6718788 0 1.2187538 0.25q0.546875 0.25 0.9375 0.71875q0.40625 0.46875 0.625 1.140625q0.21875 0.65625 0.21875 1.484375q0 0.84375 -0.21875 1.53125q-0.21875 0.671875 -0.625 1.140625q-0.390625 0.46875 -0.9375 0.734375q-0.546875 0.25 -1.2187538 0.25zm0 -0.78125q0.4687538 0 0.8437538 -0.203125q0.390625 -0.203125 0.65625 -0.578125q0.28125 -0.375 0.421875 -0.890625q0.15625 -0.53125 0.15625 -1.203125q0 -0.640625 -0.15625 -1.15625q-0.140625 -0.53125 -0.421875 -0.890625q-0.265625 -0.375 -0.65625 -0.5625q-0.375 -0.203125 -0.8437538 -0.203125q-0.46875 0 -0.84375 0.203125q-0.375 0.1875 -0.65625 0.5625q-0.265625 0.359375 -0.421875 0.890625q-0.140625 0.515625 -0.140625 1.15625q0 0.671875 0.140625 1.203125q0.15625 0.515625 0.421875 0.890625q0.28125 0.375 0.65625 0.578125q0.375 0.203125 0.84375 0.203125zm6.4508247 0.78125q-0.75 0 -1.375 -0.265625q-0.625 -0.28125 -1.078125 -0.765625l0.53125 -0.625q0.375 0.40625 0.875 0.640625q0.5 0.234375 1.046875 0.234375q0.703125 0 1.078125 -0.3125q0.390625 -0.3125 0.390625 -0.828125q0 -0.265625 -0.09375 -0.4375q-0.09375 -0.1875 -0.25 -0.328125q-0.15625 -0.140625 -0.375 -0.234375q-0.203125 -0.109375 -0.453125 -0.234375l-1.0 -0.4375q-0.25 -0.09375 -0.5 -0.25q-0.25 -0.15625 -0.453125 -0.359375q-0.203125 -0.21875 -0.34375 -0.5q-0.125 -0.296875 -0.125 -0.6875q0 -0.390625 0.171875 -0.734375q0.171875 -0.34375 0.453125 -0.59375q0.296875 -0.25 0.6875 -0.390625q0.40625 -0.140625 0.890625 -0.140625q0.625 0 1.15625 0.25q0.53125 0.234375 0.90625 0.625l-0.46875 0.5625q-0.328125 -0.296875 -0.71875 -0.46875q-0.390625 -0.1875 -0.875 -0.1875q-0.59375 0 -0.953125 0.28125q-0.34375 0.265625 -0.34375 0.75q0 0.25 0.09375 0.4375q0.109375 0.171875 0.28125 0.3125q0.171875 0.125 0.359375 0.234375q0.203125 0.09375 0.421875 0.171875l1.0 0.421875q0.296875 0.125 0.5625 0.296875q0.265625 0.171875 0.453125 0.390625q0.1875 0.21875 0.296875 0.515625q0.125 0.28125 0.125 0.671875q0 0.40625 -0.171875 0.78125q-0.171875 0.359375 -0.484375 0.625q-0.296875 0.265625 -0.734375 0.421875q-0.4375 0.15625 -0.984375 0.15625zm3.1436157 -1.515625l0 -0.765625l2.25 -0.828125l1.421875 -0.53125l0 -0.046875l-1.421875 -0.53125l-2.25 -0.828125l0 -0.765625l4.578125 1.796875l0 0.703125l-4.578125 1.796875z" fill-rule="nonzero"/><path fill="#000000" fill-opacity="0.0" d="m191.9147 94.65888l0 0c0 -2.5744781 2.0870209 -4.6615067 4.661499 -4.6615067l56.566742 0c1.2363129 0 2.421997 0.49111938 3.2962036 1.3653259c0.87420654 0.8741989 1.3653259 2.0598755 1.3653259 3.2961807l0 18.645485c0 2.5744858 -2.0870361 4.6615143 -4.6615295 4.6615143l-56.566742 0c-2.5744781 0 -4.661499 -2.0870285 -4.661499 -4.6615143z" fill-rule="evenodd"/><path stroke="#1a1a1a" stroke-width="1.0" stroke-linejoin="round" stroke-linecap="butt" d="m191.9147 94.65888l0 0c0 -2.5744781 2.0870209 -4.6615067 4.661499 -4.6615067l56.566742 0c1.2363129 0 2.421997 0.49111938 3.2962036 1.3653259c0.87420654 0.8741989 1.3653259 2.0598755 1.3653259 3.2961807l0 18.645485c0 2.5744858 -2.0870361 4.6615143 -4.6615295 4.6615143l-56.566742 0c-2.5744781 0 -4.661499 -2.0870285 -4.661499 -4.6615143z" fill-rule="evenodd"/><path fill="#000000" d="m206.27159 107.84663q-0.515625 0 -0.96875 -0.171875q-0.4375 -0.1875 -0.765625 -0.53125q-0.328125 -0.34375 -0.515625 -0.84375q-0.1875 -0.515625 -0.1875 -1.15625q0 -0.65625 0.203125 -1.15625q0.203125 -0.5 0.546875 -0.84375q0.34375 -0.359375 0.796875 -0.546875q0.453125 -0.1875 0.953125 -0.1875q0.515625 0 0.875 0.1875q0.359375 0.1875 0.640625 0.421875l-0.453125 0.578125q-0.21875 -0.203125 -0.46875 -0.328125q-0.25 -0.125 -0.5625 -0.125q-0.34375 0 -0.65625 0.140625q-0.296875 0.140625 -0.515625 0.40625q-0.203125 0.265625 -0.328125 0.640625q-0.125 0.359375 -0.125 0.8125q0 0.453125 0.109375 0.8125q0.125 0.359375 0.328125 0.625q0.21875 0.25 0.515625 0.40625q0.296875 0.140625 0.65625 0.140625q0.359375 0 0.65625 -0.15625q0.3125 -0.15625 0.546875 -0.375l0.390625 0.59375q-0.359375 0.3125 -0.78125 0.484375q-0.421875 0.171875 -0.890625 0.171875zm4.8280487 0q-0.484375 0 -0.921875 -0.171875q-0.421875 -0.1875 -0.75 -0.53125q-0.328125 -0.34375 -0.53125 -0.84375q-0.203125 -0.515625 -0.203125 -1.15625q0 -0.65625 0.203125 -1.15625q0.203125 -0.5 0.53125 -0.84375q0.328125 -0.359375 0.75 -0.546875q0.4375 -0.1875 0.921875 -0.1875q0.484375 0 0.90625 0.1875q0.4375 0.1875 0.765625 0.546875q0.328125 0.34375 0.515625 0.84375q0.203125 0.5 0.203125 1.15625q0 0.640625 -0.203125 1.15625q-0.1875 0.5 -0.515625 0.84375q-0.328125 0.34375 -0.765625 0.53125q-0.421875 0.171875 -0.90625 0.171875zm0 -0.71875q0.328125 0 0.59375 -0.140625q0.28125 -0.15625 0.484375 -0.40625q0.203125 -0.265625 0.296875 -0.625q0.109375 -0.359375 0.109375 -0.8125q0 -0.453125 -0.109375 -0.8125q-0.09375 -0.375 -0.296875 -0.640625q-0.203125 -0.265625 -0.484375 -0.40625q-0.265625 -0.140625 -0.59375 -0.140625q-0.328125 0 -0.609375 0.140625q-0.28125 0.140625 -0.484375 0.40625q-0.1875 0.265625 -0.296875 0.640625q-0.109375 0.359375 -0.109375 0.8125q0 0.453125 0.109375 0.8125q0.109375 0.359375 0.296875 0.625q0.203125 0.25 0.484375 0.40625q0.28125 0.140625 0.609375 0.140625zm3.7601166 0.59375l0 -5.171875l0.71875 0l0.078125 0.734375l0.03125 0q0.34375 -0.375 0.734375 -0.625q0.40625 -0.25 0.875 -0.25q0.59375 0 0.921875 0.265625q0.34375 0.265625 0.5 0.734375q0.40625 -0.453125 0.8125 -0.71875q0.421875 -0.28125 0.90625 -0.28125q0.796875 0 1.1875 0.515625q0.390625 0.515625 0.390625 1.515625l0 3.28125l-0.875 0l0 -3.171875q0 -0.734375 -0.234375 -1.046875q-0.234375 -0.328125 -0.734375 -0.328125q-0.578125 0 -1.296875 0.796875l0 3.75l-0.875 0l0 -3.171875q0 -0.734375 -0.234375 -1.046875q-0.234375 -0.328125 -0.734375 -0.328125q-0.578125 0 -1.296875 0.796875l0 3.75l-0.875 0zm8.834122 0l0 -5.171875l0.71875 0l0.078125 0.734375l0.03125 0q0.34375 -0.375 0.734375 -0.625q0.40626526 -0.25 0.87501526 -0.25q0.59375 0 0.921875 0.265625q0.34375 0.265625 0.5 0.734375q0.40625 -0.453125 0.8125 -0.71875q0.421875 -0.28125 0.90625 -0.28125q0.796875 0 1.1875 0.515625q0.390625 0.515625 0.390625 1.515625l0 3.28125l-0.875 0l0 -3.171875q0 -0.734375 -0.234375 -1.046875q-0.234375 -0.328125 -0.734375 -0.328125q-0.578125 0 -1.296875 0.796875l0 3.75l-0.875 0l0 -3.171875q0 -0.734375 -0.234375 -1.046875q-0.234375 -0.328125 -0.734375 -0.328125q-0.578125 0 -1.2968903 0.796875l0 3.75l-0.875 0zm10.927887 0.125q-0.515625 0 -0.96875 -0.1875q-0.453125 -0.1875 -0.796875 -0.53125q-0.328125 -0.34375 -0.53125 -0.84375q-0.1875 -0.5 -0.1875 -1.140625q0 -0.640625 0.203125 -1.140625q0.203125 -0.515625 0.515625 -0.859375q0.328125 -0.359375 0.734375 -0.546875q0.421875 -0.1875 0.875 -0.1875q0.484375 0 0.875 0.171875q0.390625 0.171875 0.65625 0.5q0.265625 0.3125 0.390625 0.765625q0.140625 0.4375 0.140625 1.0q0 0.140625 0 0.28125q0 0.125 -0.03125 0.21875l-3.484375 0q0.046875 0.828125 0.5 1.3125q0.46875 0.484375 1.21875 0.484375q0.375 0 0.6875 -0.109375q0.3125 -0.109375 0.609375 -0.296875l0.296875 0.578125q-0.328125 0.21875 -0.75 0.375q-0.421875 0.15625 -0.953125 0.15625zm-1.625 -3.125l2.765625 0q0 -0.796875 -0.34375 -1.203125q-0.328125 -0.40625 -0.9375 -0.40625q-0.265625 0 -0.515625 0.109375q-0.25 0.09375 -0.453125 0.3125q-0.203125 0.203125 -0.34375 0.5q-0.125 0.296875 -0.171875 0.6875zm4.816803 3.0l0 -5.171875l0.71875 0l0.078125 0.734375l0.03125 0q0.375 -0.375 0.78125 -0.625q0.421875 -0.25 0.953125 -0.25q0.828125 0 1.203125 0.515625q0.375 0.515625 0.375 1.515625l0 3.28125l-0.875 0l0 -3.171875q0 -0.734375 -0.234375 -1.046875q-0.234375 -0.328125 -0.734375 -0.328125q-0.40625 0 -0.71875 0.203125q-0.3125 0.203125 -0.703125 0.59375l0 3.75l-0.875 0zm7.4540253 0.125q-0.40625 0 -0.6875 -0.125q-0.28125 -0.125 -0.46875 -0.34375q-0.171875 -0.234375 -0.25 -0.546875q-0.078125 -0.328125 -0.078125 -0.703125l0 -2.875l-0.765625 0l0 -0.65625l0.8125 -0.046875l0.109375 -1.453125l0.734375 0l0 1.453125l1.390625 0l0 0.703125l-1.390625 0l0 2.875q0 0.484375 0.171875 0.75q0.1875 0.25 0.625 0.25q0.140625 0 0.296875 -0.03125q0.171875 -0.046875 0.296875 -0.09375l0.171875 0.65625q-0.21875 0.078125 -0.46875 0.125q-0.25 0.0625 -0.5 0.0625z" fill-rule="nonzero"/><path fill="#000000" fill-opacity="0.0" d="m73.88845 223.98097c29.506302 0 44.260628 -30.0 59.012596 -60.0c14.751968 -30.0 29.501572 -60.0 59.00316 -60.0" fill-rule="evenodd"/><path stroke="#eb5600" stroke-width="2.0" stroke-linejoin="round" stroke-linecap="butt" d="m73.88845 223.98097c29.506294 0 44.26062 -30.0 59.012596 -60.0c7.3759766 -15.0 14.751373 -30.0 23.970474 -41.25c4.609543 -5.625 9.680023 -10.3125 15.44194 -13.59375c1.4404907 -0.8203125 2.9241943 -1.552742 4.454712 -2.1899414c0.76527405 -0.31860352 1.5422363 -0.6134033 2.3313446 -0.8834915c0.19728088 -0.06751251 0.39530945 -0.13348389 0.59413147 -0.1979065l0.34284973 -0.10797119" fill-rule="evenodd"/><path fill="#eb5600" stroke="#eb5600" stroke-width="2.0" stroke-linecap="butt" d="m180.52567 109.024956l8.486969 -4.6110306l-9.465317 -1.9230576z" fill-rule="evenodd"/><path fill="#000000" fill-opacity="0.0" d="m257.80447 103.98163c29.504517 0 44.25708 -20.496063 59.009033 -40.992126c14.751984 -20.496063 29.503357 -40.992126 59.006714 -40.992126" fill-rule="evenodd"/><path stroke="#eb5600" stroke-width="2.0" stroke-linejoin="round" stroke-linecap="butt" d="m257.80447 103.98163c29.504517 0 44.25708 -20.496063 59.009064 -40.992126c7.3759766 -10.248032 14.751801 -20.496063 23.971558 -28.182087c4.6098633 -3.8430119 9.680756 -7.0455227 15.443085 -9.287279c1.4405823 -0.56043816 2.9243774 -1.0608311 4.455017 -1.4961739c0.7652893 -0.21767044 1.5423279 -0.41907692 2.331482 -0.60359764c0.19729614 -0.04612732 0.39538574 -0.09120369 0.59420776 -0.13521385l0.27438354 -0.05904007" fill-rule="evenodd"/><path fill="#eb5600" stroke="#eb5600" stroke-width="2.0" stroke-linecap="butt" d="m364.22153 26.512215l8.690247 -4.215458l-9.36676 -2.3567448z" fill-rule="evenodd"/><path fill="#000000" fill-opacity="0.0" d="m441.71127 21.984251c29.50946 0 44.263 32.496063 59.01892 64.99213c14.75589 32.496063 29.51419 64.99213 59.02835 64.99213" fill-rule="evenodd"/><path stroke="#eb5600" stroke-width="2.0" stroke-linejoin="round" stroke-linecap="butt" d="m441.71127 21.984251c29.50946 0 44.263 32.496063 59.01892 64.99213c7.37796 16.248032 14.7565 32.496063 23.979828 44.682083c4.6116943 6.0930176 9.684509 11.170517 15.449097 14.724777c1.4411011 0.88856506 2.925476 1.6819305 4.456726 2.3721466c0.76556396 0.3451233 1.5429077 0.66444397 2.3323975 0.95700073c0.19732666 0.073135376 0.39544678 0.14459229 0.59436035 0.21438599l0.369812 0.12608337" fill-rule="evenodd"/><path fill="#eb5600" stroke="#eb5600" stroke-width="2.0" stroke-linecap="butt" d="m547.3851 153.31395l9.487122 -1.8121948l-8.432434 -4.7100067z" fill-rule="evenodd"/><path fill="#000000" fill-opacity="0.0" d="m625.6483 151.98163c29.503906 0 44.25586 18.0 59.007874 36.0c14.751953 18.0 29.503906 36.0 59.007874 36.0" fill-rule="evenodd"/><path stroke="#eb5600" stroke-width="2.0" stroke-linejoin="round" stroke-linecap="butt" d="m625.6483 151.98163c29.503906 0 44.25586 18.0 59.007874 36.0c7.3759766 9.0 14.751953 18.0 23.971924 24.75c4.6099854 3.375 9.680969 6.1875 15.443481 8.15625c1.4406128 0.4921875 2.9244385 0.9316406 4.455139 1.3139496c0.7653198 0.19117737 1.5423584 0.36805725 2.331543 0.5301056c0.19726562 0.040512085 0.3953247 0.080093384 0.59417725 0.1187439l0.26049805 0.049209595" fill-rule="evenodd"/><path fill="#eb5600" stroke="#eb5600" stroke-width="2.0" stroke-linecap="butt" d="m731.4151 226.18991l9.337036 -2.4718475l-8.741455 -4.108185z" fill-rule="evenodd"/><path fill="#000000" fill-opacity="0.0" d="m191.9147 214.65889l0 0c0 -2.5744781 2.0870209 -4.6615143 4.661499 -4.6615143l56.566742 0c1.2363129 0 2.421997 0.49111938 3.2962036 1.3653259c0.87420654 0.87420654 1.3653259 2.0598755 1.3653259 3.2961884l0 18.645477c0 2.5744781 -2.0870361 4.6615143 -4.6615295 4.6615143l-56.566742 0c-2.5744781 0 -4.661499 -2.0870361 -4.661499 -4.6615143z" fill-rule="evenodd"/><path stroke="#1a1a1a" stroke-width="1.0" stroke-linejoin="round" stroke-linecap="butt" d="m191.9147 214.65889l0 0c0 -2.5744781 2.0870209 -4.6615143 4.661499 -4.6615143l56.566742 0c1.2363129 0 2.421997 0.49111938 3.2962036 1.3653259c0.87420654 0.87420654 1.3653259 2.0598755 1.3653259 3.2961884l0 18.645477c0 2.5744781 -2.0870361 4.6615143 -4.6615295 4.6615143l-56.566742 0c-2.5744781 0 -4.661499 -2.0870361 -4.661499 -4.6615143z" fill-rule="evenodd"/><path fill="#000000" d="m222.20757 227.84663q-0.265625 0 -0.453125 -0.1875q-0.1875 -0.1875 -0.1875 -0.46875q0 -0.3125 0.1875 -0.5q0.1875 -0.1875 0.453125 -0.1875q0.265625 0 0.4375 0.1875q0.1875 0.1875 0.1875 0.5q0 0.28125 -0.1875 0.46875q-0.171875 0.1875 -0.4375 0.1875zm2.6534271 0q-0.265625 0 -0.453125 -0.1875q-0.1875 -0.1875 -0.1875 -0.46875q0 -0.3125 0.1875 -0.5q0.1875 -0.1875 0.453125 -0.1875q0.265625 0 0.4375 0.1875q0.1875 0.1875 0.1875 0.5q0 0.28125 -0.1875 0.46875q-0.171875 0.1875 -0.4375 0.1875zm2.6534271 0q-0.265625 0 -0.453125 -0.1875q-0.1875 -0.1875 -0.1875 -0.46875q0 -0.3125 0.1875 -0.5q0.1875 -0.1875 0.453125 -0.1875q0.265625 0 0.4375 0.1875q0.1875 0.1875 0.1875 0.5q0 0.28125 -0.1875 0.46875q-0.171875 0.1875 -0.4375 0.1875z" fill-rule="nonzero"/><path fill="#000000" fill-opacity="0.0" d="m191.9147 154.65889l0 0c0 -2.5744781 2.0870209 -4.6615143 4.661499 -4.6615143l56.566742 0c1.2363129 0 2.421997 0.49111938 3.2962036 1.3653259c0.87420654 0.87420654 1.3653259 2.0598755 1.3653259 3.2961884l0 18.645477c0 2.5744781 -2.0870361 4.6615143 -4.6615295 4.6615143l-56.566742 0c-2.5744781 0 -4.661499 -2.0870361 -4.661499 -4.6615143z" fill-rule="evenodd"/><path stroke="#1a1a1a" stroke-width="1.0" stroke-linejoin="round" stroke-linecap="butt" d="m191.9147 154.65889l0 0c0 -2.5744781 2.0870209 -4.6615143 4.661499 -4.6615143l56.566742 0c1.2363129 0 2.421997 0.49111938 3.2962036 1.3653259c0.87420654 0.87420654 1.3653259 2.0598755 1.3653259 3.2961884l0 18.645477c0 2.5744781 -2.0870361 4.6615143 -4.6615295 4.6615143l-56.566742 0c-2.5744781 0 -4.661499 -2.0870361 -4.661499 -4.6615143z" fill-rule="evenodd"/><path fill="#000000" d="m222.20757 167.84663q-0.265625 0 -0.453125 -0.1875q-0.1875 -0.1875 -0.1875 -0.46875q0 -0.3125 0.1875 -0.5q0.1875 -0.1875 0.453125 -0.1875q0.265625 0 0.4375 0.1875q0.1875 0.1875 0.1875 0.5q0 0.28125 -0.1875 0.46875q-0.171875 0.1875 -0.4375 0.1875zm2.6534271 0q-0.265625 0 -0.453125 -0.1875q-0.1875 -0.1875 -0.1875 -0.46875q0 -0.3125 0.1875 -0.5q0.1875 -0.1875 0.453125 -0.1875q0.265625 0 0.4375 0.1875q0.1875 0.1875 0.1875 0.5q0 0.28125 -0.1875 0.46875q-0.171875 0.1875 -0.4375 0.1875zm2.6534271 0q-0.265625 0 -0.453125 -0.1875q-0.1875 -0.1875 -0.1875 -0.46875q0 -0.3125 0.1875 -0.5q0.1875 -0.1875 0.453125 -0.1875q0.265625 0 0.4375 0.1875q0.1875 0.1875 0.1875 0.5q0 0.28125 -0.1875 0.46875q-0.171875 0.1875 -0.4375 0.1875z" fill-rule="nonzero"/><path fill="#000000" fill-opacity="0.0" d="m191.9147 274.65887l0 0c0 -2.574463 2.0870209 -4.661499 4.661499 -4.661499l56.566742 0c1.2363129 0 2.421997 0.49111938 3.2962036 1.3653259c0.87420654 0.87420654 1.3653259 2.0598755 1.3653259 3.296173l0 18.645508c0 2.574463 -2.0870361 4.661499 -4.6615295 4.661499l-56.566742 0c-2.5744781 0 -4.661499 -2.0870361 -4.661499 -4.661499z" fill-rule="evenodd"/><path stroke="#1a1a1a" stroke-width="1.0" stroke-linejoin="round" stroke-linecap="butt" d="m191.9147 274.65887l0 0c0 -2.574463 2.0870209 -4.661499 4.661499 -4.661499l56.566742 0c1.2363129 0 2.421997 0.49111938 3.2962036 1.3653259c0.87420654 0.87420654 1.3653259 2.0598755 1.3653259 3.296173l0 18.645508c0 2.574463 -2.0870361 4.661499 -4.6615295 4.661499l-56.566742 0c-2.5744781 0 -4.661499 -2.0870361 -4.661499 -4.661499z" fill-rule="evenodd"/><path fill="#000000" d="m221.13658 287.84662q-0.265625 0 -0.453125 -0.1875q-0.1875 -0.1875 -0.1875 -0.46875q0 -0.3125 0.1875 -0.5q0.1875 -0.1875 0.453125 -0.1875q0.265625 0 0.4375 0.1875q0.1875 0.1875 0.1875 0.5q0 0.28125 -0.1875 0.46875q-0.171875 0.1875 -0.4375 0.1875zm4.0 0q-0.265625 0 -0.453125 -0.1875q-0.1875 -0.1875 -0.1875 -0.46875q0 -0.3125 0.1875 -0.5q0.1875 -0.1875 0.453125 -0.1875q0.26564026 0 0.43751526 0.1875q0.1875 0.1875 0.1875 0.5q0 0.28125 -0.1875 0.46875q-0.171875 0.1875 -0.43751526 0.1875zm3.0000153 0q-0.265625 0 -0.453125 -0.1875q-0.1875 -0.1875 -0.1875 -0.46875q0 -0.3125 0.1875 -0.5q0.1875 -0.1875 0.453125 -0.1875q0.265625 0 0.4375 0.1875q0.1875 0.1875 0.1875 0.5q0 0.28125 -0.1875 0.46875q-0.171875 0.1875 -0.4375 0.1875z" fill-rule="nonzero"/><path fill="#000000" fill-opacity="0.0" d="m191.9147 334.65887l0 0c0 -2.574463 2.0870209 -4.661499 4.661499 -4.661499l56.566742 0c1.2363129 0 2.421997 0.49111938 3.2962036 1.3653259c0.87420654 0.87420654 1.3653259 2.0598755 1.3653259 3.296173l0 18.645508c0 2.574463 -2.0870361 4.661499 -4.6615295 4.661499l-56.566742 0c-2.5744781 0 -4.661499 -2.0870361 -4.661499 -4.661499z" fill-rule="evenodd"/><path stroke="#1a1a1a" stroke-width="1.0" stroke-linejoin="round" stroke-linecap="butt" d="m191.9147 334.65887l0 0c0 -2.574463 2.0870209 -4.661499 4.661499 -4.661499l56.566742 0c1.2363129 0 2.421997 0.49111938 3.2962036 1.3653259c0.87420654 0.87420654 1.3653259 2.0598755 1.3653259 3.296173l0 18.645508c0 2.574463 -2.0870361 4.661499 -4.6615295 4.661499l-56.566742 0c-2.5744781 0 -4.661499 -2.0870361 -4.661499 -4.661499z" fill-rule="evenodd"/><path fill="#000000" d="m222.20757 347.84662q-0.265625 0 -0.453125 -0.1875q-0.1875 -0.1875 -0.1875 -0.46875q0 -0.3125 0.1875 -0.5q0.1875 -0.1875 0.453125 -0.1875q0.265625 0 0.4375 0.1875q0.1875 0.1875 0.1875 0.5q0 0.28125 -0.1875 0.46875q-0.171875 0.1875 -0.4375 0.1875zm2.6534271 0q-0.265625 0 -0.453125 -0.1875q-0.1875 -0.1875 -0.1875 -0.46875q0 -0.3125 0.1875 -0.5q0.1875 -0.1875 0.453125 -0.1875q0.265625 0 0.4375 0.1875q0.1875 0.1875 0.1875 0.5q0 0.28125 -0.1875 0.46875q-0.171875 0.1875 -0.4375 0.1875zm2.6534271 0q-0.265625 0 -0.453125 -0.1875q-0.1875 -0.1875 -0.1875 -0.46875q0 -0.3125 0.1875 -0.5q0.1875 -0.1875 0.453125 -0.1875q0.265625 0 0.4375 0.1875q0.1875 0.1875 0.1875 0.5q0 0.28125 -0.1875 0.46875q-0.171875 0.1875 -0.4375 0.1875z" fill-rule="nonzero"/><path fill="#000000" fill-opacity="0.0" d="m73.88845 223.98097c29.506302 0 44.260628 -15.0 59.012596 -30.0c14.751968 -15.0 29.501572 -30.0 59.00316 -30.0" fill-rule="evenodd"/><path stroke="#595959" stroke-width="2.0" stroke-linejoin="round" stroke-linecap="butt" d="m73.88845 223.98097c29.506294 0 44.26062 -15.0 59.012596 -30.0c7.3759766 -7.5 14.751373 -15.0 23.970474 -20.625c4.609543 -2.8125 9.680023 -5.15625 15.44194 -6.796875c1.4404907 -0.41015625 2.9241943 -0.7763672 4.454712 -1.0949707c0.76527405 -0.15930176 1.5422363 -0.30670166 2.3313446 -0.44174194c0.19728088 -0.0337677 0.39530945 -0.06674194 0.59413147 -0.098968506l0.24464417 -0.038513184" fill-rule="evenodd"/><path fill="#595959" stroke="#595959" stroke-width="2.0" stroke-linecap="butt" d="m180.18713 168.17899l8.801575 -3.977768l-9.299255 -2.6103973z" fill-rule="evenodd"/><path fill="#000000" fill-opacity="0.0" d="m73.89895 223.91864c29.503937 0 44.255905 0.01574707 59.00788 0.03149414c14.751968 0.01574707 29.503937 0.03149414 59.007874 0.03149414" fill-rule="evenodd"/><path stroke="#595959" stroke-width="2.0" stroke-linejoin="round" stroke-linecap="butt" d="m73.89895 223.91864c29.503937 0 44.255905 0.01574707 59.00788 0.03149414c7.3759766 0.007873535 14.751968 0.01574707 23.97194 0.021652222c4.6100006 0.0029449463 9.6809845 0.00541687 15.443466 0.0071411133l7.5924683 0.0010375977" fill-rule="evenodd"/><path fill="#595959" stroke="#595959" stroke-width="2.0" stroke-linecap="butt" d="m179.91425 227.28343l9.076645 -3.3022156l-9.075729 -3.304718z" fill-rule="evenodd"/><path fill="#000000" fill-opacity="0.0" d="m73.89895 223.98163c29.503937 0 44.255905 15.0 59.00788 30.0c14.751968 15.0 29.503937 30.0 59.007874 30.0" fill-rule="evenodd"/><path stroke="#595959" stroke-width="2.0" stroke-linejoin="round" stroke-linecap="butt" d="m73.89895 223.98163c29.503937 0 44.255905 15.0 59.00788 30.0c7.3759766 7.5 14.751968 15.0 23.97194 20.625c4.6100006 2.8125 9.6809845 5.15625 15.443466 6.796875c1.440628 0.41015625 2.924469 0.7763672 4.455124 1.0949707c0.7653351 0.15930176 1.5423737 0.30670166 2.3315582 0.44174194c0.1973114 0.03375244 0.39535522 0.06674194 0.5941925 0.09893799l0.2456665 0.03869629" fill-rule="evenodd"/><path fill="#595959" stroke="#595959" stroke-width="2.0" stroke-linecap="butt" d="m179.69998 286.37195l9.29921 -2.6105347l-8.801605 -3.9776306z" fill-rule="evenodd"/><path fill="#000000" fill-opacity="0.0" d="m73.88845 223.98097c29.506302 0 44.260628 30.0 59.012596 59.999985c14.751968 30.0 29.501572 60.0 59.00316 60.0" fill-rule="evenodd"/><path stroke="#595959" stroke-width="2.0" stroke-linejoin="round" stroke-linecap="butt" d="m73.88845 223.98097c29.506294 0 44.26062 30.0 59.012596 59.999985c7.3759766 15.0 14.751373 30.0 23.970474 41.25c4.609543 5.625 9.680023 10.3125 15.44194 13.59375c1.4404907 0.8203125 2.9241943 1.5527649 4.454712 2.1899414c0.76527405 0.31863403 1.5422363 0.61343384 2.3313446 0.8835144c0.19728088 0.06750488 0.39530945 0.13348389 0.59413147 0.1979065l0.34284973 0.10797119" fill-rule="evenodd"/><path fill="#595959" stroke="#595959" stroke-width="2.0" stroke-linecap="butt" d="m179.54732 345.47107l9.465317 -1.9230652l-8.486969 -4.611023z" fill-rule="evenodd"/><path fill="#000000" fill-opacity="0.0" d="m375.82153 49.32293l0 0c0 -2.574482 2.0870056 -4.6615105 4.661499 -4.6615105l56.566742 0c1.2362976 0 2.421997 0.49111938 3.296173 1.3653221c0.87420654 0.8742027 1.3653259 2.0598755 1.3653259 3.2961884l0 18.645485c0 2.5744781 -2.0870056 4.6615067 -4.661499 4.6615067l-56.566742 0c-2.5744934 0 -4.661499 -2.0870285 -4.661499 -4.6615067z" fill-rule="evenodd"/><path stroke="#1a1a1a" stroke-width="1.0" stroke-linejoin="round" stroke-linecap="butt" d="m375.82153 49.32293l0 0c0 -2.574482 2.0870056 -4.6615105 4.661499 -4.6615105l56.566742 0c1.2362976 0 2.421997 0.49111938 3.296173 1.3653221c0.87420654 0.8742027 1.3653259 2.0598755 1.3653259 3.2961884l0 18.645485c0 2.5744781 -2.0870056 4.6615067 -4.661499 4.6615067l-56.566742 0c-2.5744934 0 -4.661499 -2.0870285 -4.661499 -4.6615067z" fill-rule="evenodd"/><path fill="#000000" d="m400.5189 62.51067q-0.640625 0 -1.078125 -0.375q-0.4375 -0.390625 -0.4375 -1.09375q0 -0.84375 0.75 -1.296875q0.765625 -0.453125 2.4375 -0.640625q0 -0.25 -0.046875 -0.484375q-0.046875 -0.234375 -0.171875 -0.40625q-0.109375 -0.1875 -0.328125 -0.296875q-0.203125 -0.109375 -0.515625 -0.109375q-0.453125 0 -0.859375 0.171875q-0.390625 0.171875 -0.6875 0.375l-0.34375 -0.609375q0.359375 -0.234375 0.875 -0.453125q0.53125 -0.21875 1.15625 -0.21875q0.953125 0 1.375 0.59375q0.421875 0.578125 0.421875 1.546875l0 3.171875l-0.71875 0l-0.078125 -0.625l-0.03125 0q-0.375 0.3125 -0.796875 0.53125q-0.421875 0.21875 -0.921875 0.21875zm0.265625 -0.703125q0.375 0 0.703125 -0.171875q0.328125 -0.171875 0.703125 -0.515625l0 -1.4375q-0.65625 0.078125 -1.109375 0.203125q-0.4375 0.109375 -0.703125 0.28125q-0.265625 0.15625 -0.390625 0.359375q-0.125 0.203125 -0.125 0.453125q0 0.453125 0.265625 0.640625q0.265625 0.1875 0.65625 0.1875zm4.8395386 0.703125q-0.5 0 -0.71875 -0.296875q-0.203125 -0.296875 -0.203125 -0.875l0 -6.546875l0.875 0l0 6.609375q0 0.21875 0.0625 0.3125q0.078125 0.078125 0.1875 0.078125q0.03125 0 0.0625 0q0.046875 0 0.125 -0.03125l0.109375 0.671875q-0.078125 0.03125 -0.203125 0.046875q-0.109375 0.03125 -0.296875 0.03125zm2.7173767 0q-0.5 0 -0.71875 -0.296875q-0.203125 -0.296875 -0.203125 -0.875l0 -6.546875l0.875 0l0 6.609375q0 0.21875 0.0625 0.3125q0.078125 0.078125 0.1875 0.078125q0.03125 0 0.0625 0q0.046875 0 0.125 -0.03125l0.109375 0.671875q-0.078125 0.03125 -0.203125 0.046875q-0.109375 0.03125 -0.296875 0.03125zm3.8892517 0q-0.515625 0 -0.96875 -0.1875q-0.453125 -0.1875 -0.796875 -0.53125q-0.328125 -0.34375 -0.53125 -0.84375q-0.1875 -0.5 -0.1875 -1.140625q0 -0.640625 0.203125 -1.140625q0.203125 -0.515625 0.515625 -0.859375q0.328125 -0.359375 0.734375 -0.546875q0.421875 -0.1875 0.875 -0.1875q0.484375 0 0.875 0.171875q0.390625 0.171875 0.65625 0.5q0.265625 0.3125 0.390625 0.765625q0.140625 0.4375 0.140625 1.0q0 0.140625 0 0.28125q0 0.125 -0.03125 0.21875l-3.484375 0q0.046875 0.828125 0.5 1.3125q0.46875 0.484375 1.21875 0.484375q0.375 0 0.6875 -0.109375q0.3125 -0.109375 0.609375 -0.296875l0.296875 0.578125q-0.328125 0.21875 -0.75 0.375q-0.421875 0.15625 -0.953125 0.15625zm-1.625 -3.125l2.765625 0q0 -0.796875 -0.34375 -1.203125q-0.328125 -0.40625 -0.9375 -0.40625q-0.265625 0 -0.515625 0.109375q-0.25 0.09375 -0.453125 0.3125q-0.203125 0.203125 -0.34375 0.5q-0.125 0.296875 -0.171875 0.6875zm4.269928 3.0l0 -0.46875l2.734375 -4.0l-2.4375 0l0 -0.703125l3.546875 0l0 0.46875l-2.734375 3.984375l2.8125 0l0 0.71875l-3.921875 0z" fill-rule="nonzero"/><path fill="#000000" fill-opacity="0.0" d="m257.80447 103.98163c29.504517 0 44.25708 -11.330711 59.009033 -22.661415c14.751984 -11.330711 29.503357 -22.661419 59.006714 -22.661419" fill-rule="evenodd"/><path stroke="#595959" stroke-width="2.0" stroke-linejoin="round" stroke-linecap="butt" d="m257.80447 103.98163c29.504517 0 44.25708 -11.330711 59.009064 -22.661415c7.3759766 -5.6653595 14.751801 -11.330711 23.971558 -15.579727c4.6098633 -2.124508 9.680756 -3.8949318 15.443085 -5.1342278c1.4405823 -0.3098259 2.9243774 -0.58644867 4.455017 -0.82712173c0.7652893 -0.120334625 1.5423279 -0.23167038 2.331482 -0.3336792c0.19729614 -0.025505066 0.39538574 -0.05042267 0.59420776 -0.07475281l0.23083496 -0.02745819" fill-rule="evenodd"/><path fill="#595959" stroke="#595959" stroke-width="2.0" stroke-linecap="butt" d="m364.02817 62.641335l8.872986 -3.815773l-9.249817 -2.7804031z" fill-rule="evenodd"/><path fill="#000000" fill-opacity="0.0" d="m375.83072 131.51715l0 0c0 -2.5744781 2.0870056 -4.6615067 4.661499 -4.6615067l56.566742 0c1.2362976 0 2.421997 0.49111938 3.296173 1.3653183c0.87420654 0.87420654 1.3653259 2.0598755 1.3653259 3.2961884l0 18.645493c0 2.5744781 -2.0870056 4.661499 -4.661499 4.661499l-56.566742 0c-2.5744934 0 -4.661499 -2.0870209 -4.661499 -4.661499z" fill-rule="evenodd"/><path stroke="#1a1a1a" stroke-width="1.0" stroke-linejoin="round" stroke-linecap="butt" d="m375.83072 131.51715l0 0c0 -2.5744781 2.0870056 -4.6615067 4.661499 -4.6615067l56.566742 0c1.2362976 0 2.421997 0.49111938 3.296173 1.3653183c0.87420654 0.87420654 1.3653259 2.0598755 1.3653259 3.2961884l0 18.645493c0 2.5744781 -2.0870056 4.661499 -4.661499 4.661499l-56.566742 0c-2.5744934 0 -4.661499 -2.0870209 -4.661499 -4.661499z" fill-rule="evenodd"/><path fill="#000000" d="m406.12357 144.7049q-0.265625 0 -0.453125 -0.1875q-0.1875 -0.1875 -0.1875 -0.46875q0 -0.3125 0.1875 -0.5q0.1875 -0.1875 0.453125 -0.1875q0.265625 0 0.4375 0.1875q0.1875 0.1875 0.1875 0.5q0 0.28125 -0.1875 0.46875q-0.171875 0.1875 -0.4375 0.1875zm2.6534424 0q-0.265625 0 -0.453125 -0.1875q-0.1875 -0.1875 -0.1875 -0.46875q0 -0.3125 0.1875 -0.5q0.1875 -0.1875 0.453125 -0.1875q0.265625 0 0.4375 0.1875q0.1875 0.1875 0.1875 0.5q0 0.28125 -0.1875 0.46875q-0.171875 0.1875 -0.4375 0.1875zm2.6534119 0q-0.265625 0 -0.453125 -0.1875q-0.1875 -0.1875 -0.1875 -0.46875q0 -0.3125 0.1875 -0.5q0.1875 -0.1875 0.453125 -0.1875q0.265625 0 0.4375 0.1875q0.1875 0.1875 0.1875 0.5q0 0.28125 -0.1875 0.46875q-0.171875 0.1875 -0.4375 0.1875z" fill-rule="nonzero"/><path fill="#000000" fill-opacity="0.0" d="m375.82153 85.984344l0 0c0 -2.5744781 2.0870056 -4.6615067 4.661499 -4.6615067l56.566742 0c1.2362976 0 2.421997 0.49111938 3.296173 1.3653183c0.87420654 0.87420654 1.3653259 2.059883 1.3653259 3.2961884l0 18.645485c0 2.5744781 -2.0870056 4.6615067 -4.661499 4.6615067l-56.566742 0c-2.5744934 0 -4.661499 -2.0870285 -4.661499 -4.6615067z" fill-rule="evenodd"/><path stroke="#1a1a1a" stroke-width="1.0" stroke-linejoin="round" stroke-linecap="butt" d="m375.82153 85.984344l0 0c0 -2.5744781 2.0870056 -4.6615067 4.661499 -4.6615067l56.566742 0c1.2362976 0 2.421997 0.49111938 3.296173 1.3653183c0.87420654 0.87420654 1.3653259 2.059883 1.3653259 3.2961884l0 18.645485c0 2.5744781 -2.0870056 4.6615067 -4.661499 4.6615067l-56.566742 0c-2.5744934 0 -4.661499 -2.0870285 -4.661499 -4.6615067z" fill-rule="evenodd"/><path fill="#000000" d="m406.11438 99.17209q-0.265625 0 -0.453125 -0.1875q-0.1875 -0.1875 -0.1875 -0.46875q0 -0.3125 0.1875 -0.5q0.1875 -0.1875 0.453125 -0.1875q0.265625 0 0.4375 0.1875q0.1875 0.1875 0.1875 0.5q0 0.28125 -0.1875 0.46875q-0.171875 0.1875 -0.4375 0.1875zm2.6534424 0q-0.265625 0 -0.453125 -0.1875q-0.1875 -0.1875 -0.1875 -0.46875q0 -0.3125 0.1875 -0.5q0.1875 -0.1875 0.453125 -0.1875q0.265625 0 0.4375 0.1875q0.1875 0.1875 0.1875 0.5q0 0.28125 -0.1875 0.46875q-0.171875 0.1875 -0.4375 0.1875zm2.6534119 0q-0.265625 0 -0.453125 -0.1875q-0.1875 -0.1875 -0.1875 -0.46875q0 -0.3125 0.1875 -0.5q0.1875 -0.1875 0.453125 -0.1875q0.265625 0 0.4375 0.1875q0.1875 0.1875 0.1875 0.5q0 0.28125 -0.1875 0.46875q-0.171875 0.1875 -0.4375 0.1875z" fill-rule="nonzero"/><path fill="#000000" fill-opacity="0.0" d="m375.83072 165.80849l0 0c0 -2.5744781 2.0870056 -4.661499 4.661499 -4.661499l56.566742 0c1.2362976 0 2.421997 0.49111938 3.296173 1.3653259c0.87420654 0.8741913 1.3653259 2.0598755 1.3653259 3.296173l0 18.645493c0 2.5744781 -2.0870056 4.661499 -4.661499 4.661499l-56.566742 0c-2.5744934 0 -4.661499 -2.0870209 -4.661499 -4.661499z" fill-rule="evenodd"/><path stroke="#1a1a1a" stroke-width="1.0" stroke-linejoin="round" stroke-linecap="butt" d="m375.83072 165.80849l0 0c0 -2.5744781 2.0870056 -4.661499 4.661499 -4.661499l56.566742 0c1.2362976 0 2.421997 0.49111938 3.296173 1.3653259c0.87420654 0.8741913 1.3653259 2.0598755 1.3653259 3.296173l0 18.645493c0 2.5744781 -2.0870056 4.661499 -4.661499 4.661499l-56.566742 0c-2.5744934 0 -4.661499 -2.0870209 -4.661499 -4.661499z" fill-rule="evenodd"/><path fill="#000000" d="m406.12357 178.99623q-0.265625 0 -0.453125 -0.1875q-0.1875 -0.1875 -0.1875 -0.46875q0 -0.3125 0.1875 -0.5q0.1875 -0.1875 0.453125 -0.1875q0.265625 0 0.4375 0.1875q0.1875 0.1875 0.1875 0.5q0 0.28125 -0.1875 0.46875q-0.171875 0.1875 -0.4375 0.1875zm2.6534424 0q-0.265625 0 -0.453125 -0.1875q-0.1875 -0.1875 -0.1875 -0.46875q0 -0.3125 0.1875 -0.5q0.1875 -0.1875 0.453125 -0.1875q0.265625 0 0.4375 0.1875q0.1875 0.1875 0.1875 0.5q0 0.28125 -0.1875 0.46875q-0.171875 0.1875 -0.4375 0.1875zm2.6534119 0q-0.265625 0 -0.453125 -0.1875q-0.1875 -0.1875 -0.1875 -0.46875q0 -0.3125 0.1875 -0.5q0.1875 -0.1875 0.453125 -0.1875q0.265625 0 0.4375 0.1875q0.1875 0.1875 0.1875 0.5q0 0.28125 -0.1875 0.46875q-0.171875 0.1875 -0.4375 0.1875z" fill-rule="nonzero"/><path fill="#000000" fill-opacity="0.0" d="m375.83072 200.09984l0 0c0 -2.5744934 2.0870056 -4.6615143 4.661499 -4.6615143l56.566742 0c1.2362976 0 2.421997 0.49111938 3.296173 1.3653259c0.87420654 0.8741913 1.3653259 2.0598755 1.3653259 3.2961884l0 18.645477c0 2.5744781 -2.0870056 4.6615143 -4.661499 4.6615143l-56.566742 0c-2.5744934 0 -4.661499 -2.0870361 -4.661499 -4.6615143z" fill-rule="evenodd"/><path stroke="#1a1a1a" stroke-width="1.0" stroke-linejoin="round" stroke-linecap="butt" d="m375.83072 200.09984l0 0c0 -2.5744934 2.0870056 -4.6615143 4.661499 -4.6615143l56.566742 0c1.2362976 0 2.421997 0.49111938 3.296173 1.3653259c0.87420654 0.8741913 1.3653259 2.0598755 1.3653259 3.2961884l0 18.645477c0 2.5744781 -2.0870056 4.6615143 -4.661499 4.6615143l-56.566742 0c-2.5744934 0 -4.661499 -2.0870361 -4.661499 -4.6615143z" fill-rule="evenodd"/><path fill="#000000" d="m406.12357 213.28757q-0.265625 0 -0.453125 -0.1875q-0.1875 -0.1875 -0.1875 -0.46875q0 -0.3125 0.1875 -0.5q0.1875 -0.1875 0.453125 -0.1875q0.265625 0 0.4375 0.1875q0.1875 0.1875 0.1875 0.5q0 0.28125 -0.1875 0.46875q-0.171875 0.1875 -0.4375 0.1875zm2.6534424 0q-0.265625 0 -0.453125 -0.1875q-0.1875 -0.1875 -0.1875 -0.46875q0 -0.3125 0.1875 -0.5q0.1875 -0.1875 0.453125 -0.1875q0.265625 0 0.4375 0.1875q0.1875 0.1875 0.1875 0.5q0 0.28125 -0.1875 0.46875q-0.171875 0.1875 -0.4375 0.1875zm2.6534119 0q-0.265625 0 -0.453125 -0.1875q-0.1875 -0.1875 -0.1875 -0.46875q0 -0.3125 0.1875 -0.5q0.1875 -0.1875 0.453125 -0.1875q0.265625 0 0.4375 0.1875q0.1875 0.1875 0.1875 0.5q0 0.28125 -0.1875 0.46875q-0.171875 0.1875 -0.4375 0.1875z" fill-rule="nonzero"/><path fill="#000000" fill-opacity="0.0" d="m257.80447 163.98163c29.506287 0 44.26062 -5.7873993 59.012573 -11.574799c14.751984 -5.7874146 29.501587 -11.574814 59.003174 -11.574814" fill-rule="evenodd"/><path stroke="#595959" stroke-width="2.0" stroke-linejoin="round" stroke-linecap="butt" d="m257.80447 163.98163c29.506287 0 44.26062 -5.7873993 59.012573 -11.574799c7.3759766 -2.8937073 14.751404 -5.7874146 23.97049 -7.9576874c4.6095276 -1.0851288 9.680023 -1.9894104 15.441956 -2.622406c1.4404907 -0.1582489 2.9241638 -0.2995453 4.4546814 -0.4224701c0.7652588 -0.061462402 1.5422363 -0.11834717 2.3313599 -0.17044067l0.80981445 -0.050613403" fill-rule="evenodd"/><path fill="#595959" stroke="#595959" stroke-width="2.0" stroke-linecap="butt" d="m363.92203 144.48526l8.975616 -3.5676727l-9.168976 -3.0364227z" fill-rule="evenodd"/><path fill="#000000" fill-opacity="0.0" d="m257.80447 163.98163c29.506287 0 44.26062 2.7873993 59.012573 5.5747986c14.751984 2.7873993 29.501587 5.574814 59.003174 5.574814" fill-rule="evenodd"/><path stroke="#595959" stroke-width="2.0" stroke-linejoin="round" stroke-linecap="butt" d="m257.80447 163.98163c29.506287 0 44.26062 2.7873993 59.012573 5.5747986c7.3759766 1.3937073 14.751404 2.7873993 23.97049 3.8326874c4.6095276 0.5226288 9.680023 0.9581604 15.441956 1.263031c1.4404907 0.07621765 2.9241638 0.14427185 4.4546814 0.20347595c0.7652588 0.02961731 1.5422363 0.057006836 2.3313599 0.08207703l0.8058777 0.024261475" fill-rule="evenodd"/><path fill="#595959" stroke="#595959" stroke-width="2.0" stroke-linecap="butt" d="m363.7748 178.2651l9.121887 -3.1751099l-9.028687 -3.4311676z" fill-rule="evenodd"/><path fill="#000000" fill-opacity="0.0" d="m257.80447 163.98163c29.506287 0 44.26062 11.362198 59.012573 22.724411c14.751984 11.362198 29.501587 22.724411 59.003174 22.724411" fill-rule="evenodd"/><path stroke="#595959" stroke-width="2.0" stroke-linejoin="round" stroke-linecap="butt" d="m257.80447 163.98163c29.506287 0 44.26062 11.362198 59.012573 22.724411c7.3759766 5.6811066 14.751404 11.362198 23.97049 15.623032c4.6095276 2.1304169 9.680023 3.9057617 15.441956 5.1484985c1.4404907 0.31069946 2.9241638 0.588089 4.4546814 0.829422c0.7652588 0.120666504 1.5422363 0.23231506 2.3313599 0.33459473c0.19726562 0.02558899 0.3953247 0.050567627 0.5941162 0.07496643l0.23019409 0.02746582" fill-rule="evenodd"/><path fill="#595959" stroke="#595959" stroke-width="2.0" stroke-linecap="butt" d="m363.65088 212.04207l9.250305 -2.7788696l-8.872345 -3.8172455z" fill-rule="evenodd"/><path fill="#000000" fill-opacity="0.0" d="m257.80447 103.98163c29.504517 0 44.25708 -2.1653519 59.009033 -4.3307114c14.751984 -2.1653519 29.503357 -4.3307037 59.006714 -4.3307037" fill-rule="evenodd"/><path stroke="#595959" stroke-width="2.0" stroke-linejoin="round" stroke-linecap="butt" d="m257.80447 103.98163c29.504517 0 44.25708 -2.1653519 59.009064 -4.3307114c7.3759766 -1.0826721 14.751801 -2.1653519 23.971558 -2.9773636c4.6098633 -0.40599823 9.680756 -0.744339 15.443085 -0.98117065c1.4405823 -0.05921173 2.9243774 -0.112075806 4.455017 -0.1580658c0.7652893 -0.022994995 1.5423279 -0.044281006 2.331482 -0.06377411l0.8062744 -0.017784119" fill-rule="evenodd"/><path fill="#595959" stroke="#595959" stroke-width="2.0" stroke-linecap="butt" d="m363.85742 98.75601l9.039154 -3.403511l-9.112122 -3.2030106z" fill-rule="evenodd"/></g></svg>