<svg version="1.1" viewBox="0.0 0.0 581.6876640419947 518.2047244094488" fill="none" stroke="none" stroke-linecap="square" stroke-miterlimit="10" xmlns:xlink="http://www.w3.org/1999/xlink" xmlns="http://www.w3.org/2000/svg"><clipPath id="p.0"><path d="m0 0l581.6877 0l0 518.2047l-581.6877 0l0 -518.2047z" clip-rule="nonzero"/></clipPath><g clip-path="url(#p.0)"><path fill="#000000" fill-opacity="0.0" d="m0 0l581.6877 0l0 518.2047l-581.6877 0z" fill-rule="evenodd"/><path fill="#d9d2e9" d="m8.0 325.90585l0 0c0 -9.132446 7.4033136 -16.535767 16.535765 -16.535767l533.54266 0c4.385559 0 8.591492 1.742157 11.692505 4.8432007c3.1010742 3.1010742 4.8432617 7.307007 4.8432617 11.692566l0 66.14105c0 9.132446 -7.4033203 16.535767 -16.535767 16.535767l-533.54266 0c-9.132451 0 -16.535765 -7.4033203 -16.535765 -16.535767z" fill-rule="evenodd"/><path fill="#000000" d="m495.14325 391.97952l0 -6.984375l0.890625 0l0 2.921875l3.25 0l0 -2.921875l0.890625 0l0 6.984375l-0.890625 0l0 -3.296875l-3.25 0l0 3.296875l-0.890625 0zm6.8698425 0l0 -5.171875l0.875 0l0 5.171875l-0.875 0zm0.453125 -6.25q-0.265625 0 -0.4375 -0.15625q-0.171875 -0.15625 -0.171875 -0.40625q0 -0.25 0.171875 -0.40625q0.171875 -0.15625 0.4375 -0.15625q0.25 0 0.421875 0.15625q0.171875 0.15625 0.171875 0.40625q0 0.25 -0.171875 0.40625q-0.171875 0.15625 -0.421875 0.15625zm3.93396 6.375q-0.984375 0 -1.5625 -0.703125q-0.578125 -0.703125 -0.578125 -2.0q0 -0.625 0.1875 -1.125q0.1875 -0.515625 0.484375 -0.859375q0.3125 -0.359375 0.71875 -0.546875q0.40625 -0.203125 0.859375 -0.203125q0.453125 0 0.78125 0.171875q0.328125 0.15625 0.671875 0.4375l-0.046875 -0.890625l0 -2.0l0.890625 0l0 7.59375l-0.734375 0l-0.078125 -0.609375l-0.03125 0q-0.296875 0.296875 -0.703125 0.515625q-0.40625 0.21875 -0.859375 0.21875zm0.1875 -0.734375q0.375 0 0.6875 -0.171875q0.328125 -0.171875 0.640625 -0.546875l0 -2.703125q-0.328125 -0.296875 -0.640625 -0.421875q-0.296875 -0.125 -0.609375 -0.125q-0.3125 0 -0.59375 0.15625q-0.265625 0.140625 -0.46875 0.40625q-0.203125 0.25 -0.328125 0.625q-0.109375 0.359375 -0.109375 0.796875q0 0.9375 0.375 1.46875q0.375 0.515625 1.046875 0.515625zm5.726715 0.734375q-0.9843445 0 -1.5624695 -0.703125q-0.578125 -0.703125 -0.578125 -2.0q0 -0.625 0.1875 -1.125q0.1875 -0.515625 0.484375 -0.859375q0.3125 -0.359375 0.71875 -0.546875q0.40625 -0.203125 0.8593445 -0.203125q0.453125 0 0.78125 0.171875q0.328125 0.15625 0.671875 0.4375l-0.046875 -0.890625l0 -2.0l0.890625 0l0 7.59375l-0.734375 0l-0.078125 -0.609375l-0.03125 0q-0.296875 0.296875 -0.703125 0.515625q-0.40625 0.21875 -0.859375 0.21875zm0.1875 -0.734375q0.375 0 0.6875 -0.171875q0.328125 -0.171875 0.640625 -0.546875l0 -2.703125q-0.328125 -0.296875 -0.640625 -0.421875q-0.296875 -0.125 -0.609375 -0.125q-0.3125 0 -0.5937195 0.15625q-0.265625 0.140625 -0.46875 0.40625q-0.203125 0.25 -0.328125 0.625q-0.109375 0.359375 -0.109375 0.796875q0 0.9375 0.375 1.46875q0.375 0.515625 1.0468445 0.515625zm6.0549316 0.734375q-0.515625 0 -0.96875 -0.1875q-0.453125 -0.1875 -0.796875 -0.53125q-0.328125 -0.34375 -0.53125 -0.84375q-0.1875 -0.5 -0.1875 -1.140625q0 -0.640625 0.203125 -1.140625q0.203125 -0.515625 0.515625 -0.859375q0.328125 -0.359375 0.734375 -0.546875q0.421875 -0.1875 0.875 -0.1875q0.484375 0 0.875 0.171875q0.390625 0.171875 0.65625 0.5q0.265625 0.3125 0.390625 0.765625q0.140625 0.4375 0.140625 1.0q0 0.140625 0 0.28125q0 0.125 -0.03125 0.21875l-3.484375 0q0.046875 0.828125 0.5 1.3125q0.46875 0.484375 1.21875 0.484375q0.375 0 0.6875 -0.109375q0.3125 -0.109375 0.609375 -0.296875l0.296875 0.578125q-0.328125 0.21875 -0.75 0.375q-0.421875 0.15625 -0.953125 0.15625zm-1.625 -3.125l2.765625 0q0 -0.796875 -0.34375 -1.203125q-0.328125 -0.40625 -0.9375 -0.40625q-0.265625 0 -0.515625 0.109375q-0.25 0.09375 -0.453125 0.3125q-0.203125 0.203125 -0.34375 0.5q-0.125 0.296875 -0.171875 0.6875zm4.8167725 3.0l0 -5.171875l0.71875 0l0.078125 0.734375l0.03125 0q0.375 -0.375 0.78125 -0.625q0.421875 -0.25 0.953125 -0.25q0.828125 0 1.203125 0.515625q0.375 0.515625 0.375 1.515625l0 3.28125l-0.875 0l0 -3.171875q0 -0.734375 -0.234375 -1.046875q-0.234375 -0.328125 -0.734375 -0.328125q-0.40625 0 -0.71875 0.203125q-0.3125 0.203125 -0.703125 0.59375l0 3.75l-0.875 0zm8.038452 0l0 -6.984375l0.890625 0l0 6.234375l3.0625 0l0 0.75l-3.953125 0zm6.28833 0.125q-0.640625 0 -1.078125 -0.375q-0.4375 -0.390625 -0.4375 -1.09375q0 -0.84375 0.75 -1.296875q0.765625 -0.453125 2.4375 -0.640625q0 -0.25 -0.046875 -0.484375q-0.046875 -0.234375 -0.171875 -0.40625q-0.109375 -0.1875 -0.328125 -0.296875q-0.203125 -0.109375 -0.515625 -0.109375q-0.453125 0 -0.859375 0.171875q-0.390625 0.171875 -0.6875 0.375l-0.34375 -0.609375q0.359375 -0.234375 0.875 -0.453125q0.53125 -0.21875 1.15625 -0.21875q0.953125 0 1.375 0.59375q0.421875 0.578125 0.421875 1.546875l0 3.171875l-0.71875 0l-0.078125 -0.625l-0.03125 0q-0.375 0.3125 -0.796875 0.53125q-0.421875 0.21875 -0.921875 0.21875zm0.265625 -0.703125q0.375 0 0.703125 -0.171875q0.328125 -0.171875 0.703125 -0.515625l0 -1.4375q-0.65625 0.078125 -1.109375 0.203125q-0.4375 0.109375 -0.703125 0.28125q-0.265625 0.15625 -0.390625 0.359375q-0.125 0.203125 -0.125 0.453125q0 0.453125 0.265625 0.640625q0.265625 0.1875 0.65625 0.1875zm3.9957886 2.8125q-0.171875 0 -0.328125 -0.03125q-0.140625 -0.03125 -0.265625 -0.078125l0.15625 -0.703125q0.09375 0.03125 0.203125 0.046875q0.109375 0.03125 0.203125 0.03125q0.4375 0 0.71875 -0.3125q0.28125 -0.3125 0.453125 -0.796875l0.109375 -0.375l-2.078125 -5.1875l0.90625 0l1.0625 2.859375q0.109375 0.34375 0.234375 0.71875q0.140625 0.375 0.265625 0.734375l0.03125 0q0.125 -0.34375 0.234375 -0.71875q0.109375 -0.390625 0.203125 -0.734375l0.9375 -2.859375l0.84375 0l-1.9375 5.59375q-0.140625 0.390625 -0.3125 0.71875q-0.171875 0.328125 -0.40625 0.5625q-0.234375 0.25 -0.53125 0.390625q-0.296875 0.140625 -0.703125 0.140625zm6.9921875 -2.109375q-0.515625 0 -0.96875 -0.1875q-0.453125 -0.1875 -0.796875 -0.53125q-0.328125 -0.34375 -0.53125 -0.84375q-0.1875 -0.5 -0.1875 -1.140625q0 -0.640625 0.203125 -1.140625q0.203125 -0.515625 0.515625 -0.859375q0.328125 -0.359375 0.734375 -0.546875q0.421875 -0.1875 0.875 -0.1875q0.484375 0 0.875 0.171875q0.390625 0.171875 0.65625 0.5q0.265625 0.3125 0.390625 0.765625q0.140625 0.4375 0.140625 1.0q0 0.140625 0 0.28125q0 0.125 -0.03125 0.21875l-3.484375 0q0.046875 0.828125 0.5 1.3125q0.46875 0.484375 1.21875 0.484375q0.375 0 0.6875 -0.109375q0.3125 -0.109375 0.609375 -0.296875l0.296875 0.578125q-0.328125 0.21875 -0.75 0.375q-0.421875 0.15625 -0.953125 0.15625zm-1.625 -3.125l2.765625 0q0 -0.796875 -0.34375 -1.203125q-0.328125 -0.40625 -0.9375 -0.40625q-0.265625 0 -0.515625 0.109375q-0.25 0.09375 -0.453125 0.3125q-0.203125 0.203125 -0.34375 0.5q-0.125 0.296875 -0.171875 0.6875zm4.8167725 3.0l0 -5.171875l0.71875 0l0.078125 0.9375l0.03125 0q0.265625 -0.5 0.640625 -0.78125q0.390625 -0.296875 0.828125 -0.296875q0.3125 0 0.5625 0.109375l-0.171875 0.765625q-0.125 -0.03125 -0.234375 -0.046875q-0.109375 -0.03125 -0.265625 -0.03125q-0.328125 0 -0.6875 0.265625q-0.359375 0.265625 -0.625 0.921875l0 3.328125l-0.875 0zm5.7977905 0l0 -0.71875l1.546875 0l0 -5.015625l-1.234375 0l0 -0.5625q0.46875 -0.09375 0.8125 -0.203125q0.359375 -0.125 0.625 -0.296875l0.671875 0l0 6.078125l1.40625 0l0 0.71875l-3.828125 0z" fill-rule="nonzero"/><path fill="#cfe2f3" d="m8.0 24.535765l0 0c0 -9.132451 7.4033136 -16.535765 16.535765 -16.535765l533.54266 0c4.385559 0 8.591492 1.742156 11.692505 4.843213c3.1010742 3.101057 4.8432617 7.3069925 4.8432617 11.692552l0 66.14107c0 9.132454 -7.4033203 16.535767 -16.535767 16.535767l-533.54266 0c-9.132451 0 -16.535765 -7.4033127 -16.535765 -16.535767z" fill-rule="evenodd"/><path fill="#000000" d="m497.20987 90.734436q-0.65625 0 -1.203125 -0.25q-0.546875 -0.265625 -0.953125 -0.734375q-0.390625 -0.46875 -0.609375 -1.140625q-0.21875 -0.6875 -0.21875 -1.53125q0 -0.84375 0.21875 -1.5q0.21875 -0.671875 0.609375 -1.125q0.40625 -0.46875 0.953125 -0.71875q0.546875 -0.25 1.203125 -0.25q0.671875 0 1.21875 0.25q0.546875 0.25 0.9375 0.71875q0.40625 0.46875 0.625 1.140625q0.21875 0.65625 0.21875 1.484375q0 0.84375 -0.21875 1.53125q-0.21875 0.671875 -0.625 1.140625q-0.390625 0.46875 -0.9375 0.734375q-0.546875 0.25 -1.21875 0.25zm0 -0.78125q0.46875 0 0.84375 -0.203125q0.390625 -0.203125 0.65625 -0.578125q0.28125 -0.375 0.421875 -0.890625q0.15625 -0.53125 0.15625 -1.203125q0 -0.640625 -0.15625 -1.15625q-0.140625 -0.53125 -0.421875 -0.890625q-0.265625 -0.375 -0.65625 -0.5625q-0.375 -0.203125 -0.84375 -0.203125q-0.46875 0 -0.84375 0.203125q-0.375 0.1875 -0.65625 0.5625q-0.265625 0.359375 -0.421875 0.890625q-0.140625 0.515625 -0.140625 1.15625q0 0.671875 0.140625 1.203125q0.15625 0.515625 0.421875 0.890625q0.28125 0.375 0.65625 0.578125q0.375 0.203125 0.84375 0.203125zm5.9351807 0.78125q-0.828125 0 -1.21875 -0.5q-0.375 -0.515625 -0.375 -1.515625l0 -3.28125l0.890625 0l0 3.15625q0 0.734375 0.21875 1.0625q0.234375 0.328125 0.75 0.328125q0.40625 0 0.703125 -0.203125q0.3125 -0.21875 0.6875 -0.671875l0 -3.671875l0.875 0l0 5.171875l-0.71875 0l-0.078125 -0.8125l-0.03125 0q-0.359375 0.421875 -0.765625 0.6875q-0.390625 0.25 -0.9375 0.25zm5.906433 0q-0.40625 0 -0.6875 -0.125q-0.28125 -0.125 -0.46875 -0.34375q-0.171875 -0.234375 -0.25 -0.546875q-0.078125 -0.328125 -0.078125 -0.703125l0 -2.875l-0.765625 0l0 -0.65625l0.8125 -0.046875l0.109375 -1.453125l0.734375 0l0 1.453125l1.390625 0l0 0.703125l-1.390625 0l0 2.875q0 0.484375 0.171875 0.75q0.1875 0.25 0.625 0.25q0.140625 0 0.296875 -0.03125q0.171875 -0.046875 0.296875 -0.09375l0.171875 0.65625q-0.21875 0.078125 -0.46875 0.125q-0.25 0.0625 -0.5 0.0625zm1.9768677 2.0625l0 -7.359375l0.71875 0l0.078125 0.59375l0.03125 0q0.35934448 -0.296875 0.7812195 -0.515625q0.421875 -0.21875 0.875 -0.21875q0.5 0 0.875 0.1875q0.390625 0.1875 0.640625 0.546875q0.265625 0.34375 0.390625 0.828125q0.140625 0.484375 0.140625 1.078125q0 0.671875 -0.1875 1.1875q-0.171875 0.515625 -0.484375 0.875q-0.3125 0.359375 -0.71875 0.546875q-0.40625 0.1875 -0.84375 0.1875q-0.375 0 -0.734375 -0.15625q-0.34375 -0.15625 -0.7187195 -0.4375l0.03125 0.90625l0 1.75l-0.875 0zm2.1405945 -2.796875q0.3125 0 0.578125 -0.140625q0.28125 -0.140625 0.46875 -0.40625q0.203125 -0.265625 0.3125 -0.640625q0.125 -0.390625 0.125 -0.875q0 -0.421875 -0.078125 -0.765625q-0.078125 -0.359375 -0.25 -0.609375q-0.15625 -0.25 -0.421875 -0.390625q-0.25 -0.140625 -0.609375 -0.140625q-0.34375 0 -0.6875 0.1875q-0.328125 0.1875 -0.7030945 0.515625l0 2.71875q0.34371948 0.296875 0.6718445 0.421875q0.34375 0.125 0.59375 0.125zm5.2893066 0.734375q-0.828125 0 -1.21875 -0.5q-0.375 -0.515625 -0.375 -1.515625l0 -3.28125l0.890625 0l0 3.15625q0 0.734375 0.21875 1.0625q0.234375 0.328125 0.75 0.328125q0.40625 0 0.703125 -0.203125q0.3125 -0.21875 0.6875 -0.671875l0 -3.671875l0.875 0l0 5.171875l-0.71875 0l-0.078125 -0.8125l-0.03125 0q-0.359375 0.421875 -0.765625 0.6875q-0.390625 0.25 -0.9375 0.25zm5.906433 0q-0.40625 0 -0.6875 -0.125q-0.28125 -0.125 -0.46875 -0.34375q-0.171875 -0.234375 -0.25 -0.546875q-0.078125 -0.328125 -0.078125 -0.703125l0 -2.875l-0.765625 0l0 -0.65625l0.8125 -0.046875l0.109375 -1.453125l0.734375 0l0 1.453125l1.390564 0l0 0.703125l-1.390564 0l0 2.875q0 0.484375 0.171875 0.75q0.1875 0.25 0.625 0.25q0.140625 0 0.29681396 -0.03125q0.171875 -0.046875 0.296875 -0.09375l0.171875 0.65625q-0.21875 0.078125 -0.46875 0.125q-0.24993896 0.0625 -0.49993896 0.0625zm5.4674683 -0.125l-2.234375 -6.984375l0.953125 0l1.109375 3.765625q0.203125 0.625 0.34375 1.15625q0.140625 0.53125 0.34375 1.15625l0.046875 0q0.1875 -0.625 0.328125 -1.15625q0.15625 -0.53125 0.34375 -1.15625l1.109375 -3.765625l0.90625 0l-2.21875 6.984375l-1.03125 0zm6.222412 0.125q-0.515625 0 -0.96875 -0.1875q-0.453125 -0.1875 -0.796875 -0.53125q-0.328125 -0.34375 -0.53125 -0.84375q-0.1875 -0.5 -0.1875 -1.140625q0 -0.640625 0.203125 -1.140625q0.203125 -0.515625 0.515625 -0.859375q0.328125 -0.359375 0.734375 -0.546875q0.421875 -0.1875 0.875 -0.1875q0.484375 0 0.875 0.171875q0.390625 0.171875 0.65625 0.5q0.265625 0.3125 0.390625 0.765625q0.140625 0.4375 0.140625 1.0q0 0.140625 0 0.28125q0 0.125 -0.03125 0.21875l-3.484375 0q0.046875 0.828125 0.5 1.3125q0.46875 0.484375 1.21875 0.484375q0.375 0 0.6875 -0.109375q0.3125 -0.109375 0.609375 -0.296875l0.296875 0.578125q-0.328125 0.21875 -0.75 0.375q-0.421875 0.15625 -0.953125 0.15625zm-1.625 -3.125l2.765625 0q0 -0.796875 -0.34375 -1.203125q-0.328125 -0.40625 -0.9375 -0.40625q-0.265625 0 -0.515625 0.109375q-0.25 0.09375 -0.453125 0.3125q-0.203125 0.203125 -0.34375 0.5q-0.125 0.296875 -0.171875 0.6875zm6.8636475 3.125q-0.515625 0 -0.96875 -0.171875q-0.4375 -0.1875 -0.765625 -0.53125q-0.328125 -0.34375 -0.515625 -0.84375q-0.1875 -0.515625 -0.1875 -1.15625q0 -0.65625 0.203125 -1.15625q0.203125 -0.5 0.546875 -0.84375q0.34375 -0.359375 0.796875 -0.546875q0.453125 -0.1875 0.953125 -0.1875q0.515625 0 0.875 0.1875q0.359375 0.1875 0.640625 0.421875l-0.453125 0.578125q-0.21875 -0.203125 -0.46875 -0.328125q-0.25 -0.125 -0.5625 -0.125q-0.34375 0 -0.65625 0.140625q-0.296875 0.140625 -0.515625 0.40625q-0.203125 0.265625 -0.328125 0.640625q-0.125 0.359375 -0.125 0.8125q0 0.453125 0.109375 0.8125q0.125 0.359375 0.328125 0.625q0.21875 0.25 0.515625 0.40625q0.296875 0.140625 0.65625 0.140625q0.359375 0 0.65625 -0.15625q0.3125 -0.15625 0.546875 -0.375l0.390625 0.59375q-0.359375 0.3125 -0.78125 0.484375q-0.421875 0.171875 -0.890625 0.171875zm4.437439 0q-0.40625 0 -0.6875 -0.125q-0.28125 -0.125 -0.46875 -0.34375q-0.171875 -0.234375 -0.25 -0.546875q-0.078125 -0.328125 -0.078125 -0.703125l0 -2.875l-0.765625 0l0 -0.65625l0.8125 -0.046875l0.109375 -1.453125l0.734375 0l0 1.453125l1.390625 0l0 0.703125l-1.390625 0l0 2.875q0 0.484375 0.171875 0.75q0.1875 0.25 0.625 0.25q0.140625 0 0.296875 -0.03125q0.171875 -0.046875 0.296875 -0.09375l0.171875 0.65625q-0.21875 0.078125 -0.46875 0.125q-0.25 0.0625 -0.5 0.0625zm3.9924927 0q-0.484375 0 -0.921875 -0.171875q-0.421875 -0.1875 -0.75 -0.53125q-0.328125 -0.34375 -0.53125 -0.84375q-0.203125 -0.515625 -0.203125 -1.15625q0 -0.65625 0.203125 -1.15625q0.203125 -0.5 0.53125 -0.84375q0.328125 -0.359375 0.75 -0.546875q0.4375 -0.1875 0.921875 -0.1875q0.484375 0 0.90625 0.1875q0.4375 0.1875 0.765625 0.546875q0.328125 0.34375 0.515625 0.84375q0.203125 0.5 0.203125 1.15625q0 0.640625 -0.203125 1.15625q-0.1875 0.5 -0.515625 0.84375q-0.328125 0.34375 -0.765625 0.53125q-0.421875 0.171875 -0.90625 0.171875zm0 -0.71875q0.328125 0 0.59375 -0.140625q0.28125 -0.15625 0.484375 -0.40625q0.203125 -0.265625 0.296875 -0.625q0.109375 -0.359375 0.109375 -0.8125q0 -0.453125 -0.109375 -0.8125q-0.09375 -0.375 -0.296875 -0.640625q-0.203125 -0.265625 -0.484375 -0.40625q-0.265625 -0.140625 -0.59375 -0.140625q-0.328125 0 -0.609375 0.140625q-0.28125 0.140625 -0.484375 0.40625q-0.1875 0.265625 -0.296875 0.640625q-0.109375 0.359375 -0.109375 0.8125q0 0.453125 0.109375 0.8125q0.109375 0.359375 0.296875 0.625q0.203125 0.25 0.484375 0.40625q0.28125 0.140625 0.609375 0.140625zm3.7601318 0.59375l0 -5.171875l0.71875 0l0.078125 0.9375l0.03125 0q0.265625 -0.5 0.640625 -0.78125q0.390625 -0.296875 0.828125 -0.296875q0.3125 0 0.5625 0.109375l-0.171875 0.765625q-0.125 -0.03125 -0.234375 -0.046875q-0.109375 -0.03125 -0.265625 -0.03125q-0.328125 0 -0.6875 0.265625q-0.359375 0.265625 -0.625 0.921875l0 3.328125l-0.875 0zm5.057129 0.125q-0.5625 0 -1.0625 -0.203125q-0.5 -0.203125 -0.875 -0.515625l0.4375 -0.578125q0.34375 0.28125 0.703125 0.453125q0.359375 0.171875 0.828125 0.171875q0.5 0 0.75 -0.234375q0.265625 -0.234375 0.265625 -0.578125q0 -0.203125 -0.109375 -0.34375q-0.109375 -0.15625 -0.28125 -0.265625q-0.15625 -0.125 -0.375 -0.203125q-0.203125 -0.09375 -0.421875 -0.171875q-0.265625 -0.09375 -0.546875 -0.21875q-0.28125 -0.125 -0.5 -0.296875q-0.21875 -0.171875 -0.359375 -0.40625q-0.140625 -0.234375 -0.140625 -0.578125q0 -0.296875 0.125 -0.5625q0.125 -0.28125 0.34375 -0.46875q0.234375 -0.203125 0.5625 -0.3125q0.34375 -0.125 0.75 -0.125q0.5 0 0.90625 0.171875q0.40625 0.171875 0.703125 0.421875l-0.40625 0.546875q-0.265625 -0.203125 -0.5625 -0.328125q-0.28125 -0.125 -0.625 -0.125q-0.484375 0 -0.71875 0.234375q-0.234375 0.21875 -0.234375 0.515625q0 0.171875 0.09375 0.3125q0.109375 0.125 0.265625 0.234375q0.15625 0.09375 0.359375 0.1875q0.21875 0.078125 0.4375 0.15625q0.28125 0.109375 0.5625 0.234375q0.28125 0.109375 0.5 0.28125q0.234375 0.171875 0.375 0.4375q0.140625 0.25 0.140625 0.609375q0 0.328125 -0.125 0.609375q-0.125 0.265625 -0.359375 0.484375q-0.234375 0.203125 -0.59375 0.328125q-0.359375 0.125 -0.8125 0.125z" fill-rule="nonzero"/><path fill="#ead1dc" d="m8.0 426.36255l0 0c0 -9.132477 7.4033136 -16.535767 16.535765 -16.535767l533.54266 0c4.385559 0 8.591492 1.742157 11.692505 4.8432007c3.1010742 3.1010742 4.8432617 7.307007 4.8432617 11.692566l0 66.14105c0 9.132446 -7.4033203 16.535767 -16.535767 16.535767l-533.54266 0c-9.132451 0 -16.535765 -7.4033203 -16.535765 -16.535767z" fill-rule="evenodd"/><path fill="#000000" d="m502.47482 492.43622l0 -6.984375l0.890625 0l0 6.984375l-0.890625 0zm2.7244873 0l0 -5.171875l0.71875 0l0.078125 0.734375l0.03125 0q0.375 -0.375 0.78125 -0.625q0.421875 -0.25 0.953125 -0.25q0.828125 0 1.203125 0.515625q0.375 0.515625 0.375 1.515625l0 3.28125l-0.875 0l0 -3.171875q0 -0.734375 -0.234375 -1.046875q-0.234375 -0.328125 -0.734375 -0.328125q-0.40625 0 -0.71875 0.203125q-0.3125 0.203125 -0.703125 0.59375l0 3.75l-0.875 0zm5.8290405 2.1875l0 -7.359375l0.71875 0l0.078125 0.59375l0.03125 0q0.35934448 -0.296875 0.7812195 -0.515625q0.421875 -0.21875 0.875 -0.21875q0.5 0 0.875 0.1875q0.390625 0.1875 0.640625 0.546875q0.265625 0.34375 0.390625 0.828125q0.140625 0.484375 0.140625 1.078125q0 0.671875 -0.1875 1.1875q-0.171875 0.515625 -0.484375 0.875q-0.3125 0.359375 -0.71875 0.546875q-0.40625 0.1875 -0.84375 0.1875q-0.375 0 -0.734375 -0.15625q-0.34375 -0.15625 -0.7187195 -0.4375l0.03125 0.90625l0 1.75l-0.875 0zm2.1405945 -2.796875q0.3125 0 0.578125 -0.140625q0.28125 -0.140625 0.46875 -0.40625q0.203125 -0.265625 0.3125 -0.640625q0.125 -0.390625 0.125 -0.875q0 -0.421875 -0.078125 -0.765625q-0.078125 -0.359375 -0.25 -0.609375q-0.15625 -0.25 -0.421875 -0.390625q-0.25 -0.140625 -0.609375 -0.140625q-0.34375 0 -0.6875 0.1875q-0.328125 0.1875 -0.7030945 0.515625l0 2.71875q0.34371948 0.296875 0.6718445 0.421875q0.34375 0.125 0.59375 0.125zm5.2893066 0.734375q-0.828125 0 -1.21875 -0.5q-0.375 -0.515625 -0.375 -1.515625l0 -3.28125l0.890625 0l0 3.15625q0 0.734375 0.21875 1.0625q0.234375 0.328125 0.75 0.328125q0.40625 0 0.703125 -0.203125q0.3125 -0.21875 0.6875 -0.671875l0 -3.671875l0.875 0l0 5.171875l-0.71875 0l-0.078125 -0.8125l-0.03125 0q-0.359375 0.421875 -0.765625 0.6875q-0.390625 0.25 -0.9375 0.25zm5.906433 0q-0.40625 0 -0.6875 -0.125q-0.28125 -0.125 -0.46875 -0.34375q-0.171875 -0.234375 -0.25 -0.546875q-0.078125 -0.328125 -0.078125 -0.703125l0 -2.875l-0.765625 0l0 -0.65625l0.8125 -0.046875l0.109375 -1.453125l0.734375 0l0 1.453125l1.390564 0l0 0.703125l-1.390564 0l0 2.875q0 0.484375 0.171875 0.75q0.1875 0.25 0.625 0.25q0.140625 0 0.29681396 -0.03125q0.171875 -0.046875 0.296875 -0.09375l0.171875 0.65625q-0.21875 0.078125 -0.46875 0.125q-0.24993896 0.0625 -0.49993896 0.0625zm5.4674683 -0.125l-2.234375 -6.984375l0.953125 0l1.109375 3.765625q0.203125 0.625 0.34375 1.15625q0.140625 0.53125 0.34375 1.15625l0.046875 0q0.1875 -0.625 0.328125 -1.15625q0.15625 -0.53125 0.34375 -1.15625l1.109375 -3.765625l0.90625 0l-2.21875 6.984375l-1.03125 0zm6.222412 0.125q-0.515625 0 -0.96875 -0.1875q-0.453125 -0.1875 -0.796875 -0.53125q-0.328125 -0.34375 -0.53125 -0.84375q-0.1875 -0.5 -0.1875 -1.140625q0 -0.640625 0.203125 -1.140625q0.203125 -0.515625 0.515625 -0.859375q0.328125 -0.359375 0.734375 -0.546875q0.421875 -0.1875 0.875 -0.1875q0.484375 0 0.875 0.171875q0.390625 0.171875 0.65625 0.5q0.265625 0.3125 0.390625 0.765625q0.140625 0.4375 0.140625 1.0q0 0.140625 0 0.28125q0 0.125 -0.03125 0.21875l-3.484375 0q0.046875 0.828125 0.5 1.3125q0.46875 0.484375 1.21875 0.484375q0.375 0 0.6875 -0.109375q0.3125 -0.109375 0.609375 -0.296875l0.296875 0.578125q-0.328125 0.21875 -0.75 0.375q-0.421875 0.15625 -0.953125 0.15625zm-1.625 -3.125l2.765625 0q0 -0.796875 -0.34375 -1.203125q-0.328125 -0.40625 -0.9375 -0.40625q-0.265625 0 -0.515625 0.109375q-0.25 0.09375 -0.453125 0.3125q-0.203125 0.203125 -0.34375 0.5q-0.125 0.296875 -0.171875 0.6875zm6.8636475 3.125q-0.515625 0 -0.96875 -0.171875q-0.4375 -0.1875 -0.765625 -0.53125q-0.328125 -0.34375 -0.515625 -0.84375q-0.1875 -0.515625 -0.1875 -1.15625q0 -0.65625 0.203125 -1.15625q0.203125 -0.5 0.546875 -0.84375q0.34375 -0.359375 0.796875 -0.546875q0.453125 -0.1875 0.953125 -0.1875q0.515625 0 0.875 0.1875q0.359375 0.1875 0.640625 0.421875l-0.453125 0.578125q-0.21875 -0.203125 -0.46875 -0.328125q-0.25 -0.125 -0.5625 -0.125q-0.34375 0 -0.65625 0.140625q-0.296875 0.140625 -0.515625 0.40625q-0.203125 0.265625 -0.328125 0.640625q-0.125 0.359375 -0.125 0.8125q0 0.453125 0.109375 0.8125q0.125 0.359375 0.328125 0.625q0.21875 0.25 0.515625 0.40625q0.296875 0.140625 0.65625 0.140625q0.359375 0 0.65625 -0.15625q0.3125 -0.15625 0.546875 -0.375l0.390625 0.59375q-0.359375 0.3125 -0.78125 0.484375q-0.421875 0.171875 -0.890625 0.171875zm4.437439 0q-0.40625 0 -0.6875 -0.125q-0.28125 -0.125 -0.46875 -0.34375q-0.171875 -0.234375 -0.25 -0.546875q-0.078125 -0.328125 -0.078125 -0.703125l0 -2.875l-0.765625 0l0 -0.65625l0.8125 -0.046875l0.109375 -1.453125l0.734375 0l0 1.453125l1.390625 0l0 0.703125l-1.390625 0l0 2.875q0 0.484375 0.171875 0.75q0.1875 0.25 0.625 0.25q0.140625 0 0.296875 -0.03125q0.171875 -0.046875 0.296875 -0.09375l0.171875 0.65625q-0.21875 0.078125 -0.46875 0.125q-0.25 0.0625 -0.5 0.0625zm3.9924927 0q-0.484375 0 -0.921875 -0.171875q-0.421875 -0.1875 -0.75 -0.53125q-0.328125 -0.34375 -0.53125 -0.84375q-0.203125 -0.515625 -0.203125 -1.15625q0 -0.65625 0.203125 -1.15625q0.203125 -0.5 0.53125 -0.84375q0.328125 -0.359375 0.75 -0.546875q0.4375 -0.1875 0.921875 -0.1875q0.484375 0 0.90625 0.1875q0.4375 0.1875 0.765625 0.546875q0.328125 0.34375 0.515625 0.84375q0.203125 0.5 0.203125 1.15625q0 0.640625 -0.203125 1.15625q-0.1875 0.5 -0.515625 0.84375q-0.328125 0.34375 -0.765625 0.53125q-0.421875 0.171875 -0.90625 0.171875zm0 -0.71875q0.328125 0 0.59375 -0.140625q0.28125 -0.15625 0.484375 -0.40625q0.203125 -0.265625 0.296875 -0.625q0.109375 -0.359375 0.109375 -0.8125q0 -0.453125 -0.109375 -0.8125q-0.09375 -0.375 -0.296875 -0.640625q-0.203125 -0.265625 -0.484375 -0.40625q-0.265625 -0.140625 -0.59375 -0.140625q-0.328125 0 -0.609375 0.140625q-0.28125 0.140625 -0.484375 0.40625q-0.1875 0.265625 -0.296875 0.640625q-0.109375 0.359375 -0.109375 0.8125q0 0.453125 0.109375 0.8125q0.109375 0.359375 0.296875 0.625q0.203125 0.25 0.484375 0.40625q0.28125 0.140625 0.609375 0.140625zm3.7601318 0.59375l0 -5.171875l0.71875 0l0.078125 0.9375l0.03125 0q0.265625 -0.5 0.640625 -0.78125q0.390625 -0.296875 0.828125 -0.296875q0.3125 0 0.5625 0.109375l-0.171875 0.765625q-0.125 -0.03125 -0.234375 -0.046875q-0.109375 -0.03125 -0.265625 -0.03125q-0.328125 0 -0.6875 0.265625q-0.359375 0.265625 -0.625 0.921875l0 3.328125l-0.875 0zm5.057129 0.125q-0.5625 0 -1.0625 -0.203125q-0.5 -0.203125 -0.875 -0.515625l0.4375 -0.578125q0.34375 0.28125 0.703125 0.453125q0.359375 0.171875 0.828125 0.171875q0.5 0 0.75 -0.234375q0.265625 -0.234375 0.265625 -0.578125q0 -0.203125 -0.109375 -0.34375q-0.109375 -0.15625 -0.28125 -0.265625q-0.15625 -0.125 -0.375 -0.203125q-0.203125 -0.09375 -0.421875 -0.171875q-0.265625 -0.09375 -0.546875 -0.21875q-0.28125 -0.125 -0.5 -0.296875q-0.21875 -0.171875 -0.359375 -0.40625q-0.140625 -0.234375 -0.140625 -0.578125q0 -0.296875 0.125 -0.5625q0.125 -0.28125 0.34375 -0.46875q0.234375 -0.203125 0.5625 -0.3125q0.34375 -0.125 0.75 -0.125q0.5 0 0.90625 0.171875q0.40625 0.171875 0.703125 0.421875l-0.40625 0.546875q-0.265625 -0.203125 -0.5625 -0.328125q-0.28125 -0.125 -0.625 -0.125q-0.484375 0 -0.71875 0.234375q-0.234375 0.21875 -0.234375 0.515625q0 0.171875 0.09375 0.3125q0.109375 0.125 0.265625 0.234375q0.15625 0.09375 0.359375 0.1875q0.21875 0.078125 0.4375 0.15625q0.28125 0.109375 0.5625 0.234375q0.28125 0.109375 0.5 0.28125q0.234375 0.171875 0.375 0.4375q0.140625 0.25 0.140625 0.609375q0 0.328125 -0.125 0.609375q-0.125 0.265625 -0.359375 0.484375q-0.234375 0.203125 -0.59375 0.328125q-0.359375 0.125 -0.8125 0.125z" fill-rule="nonzero"/><path fill="#e9edee" d="m38.385826 343.73242l0 0c0 -4.2096252 3.4125748 -7.6221924 7.6222 -7.6221924l55.747726 0c2.0215302 0 3.960266 0.80307007 5.3897095 2.232483c1.4294434 1.4294434 2.2324905 3.3681946 2.2324905 5.3897095l0 30.487885c0 4.2096252 -3.4125748 7.622223 -7.6222 7.622223l-55.747726 0c-4.2096252 0 -7.6222 -3.4125977 -7.6222 -7.622223z" fill-rule="evenodd"/><path stroke="#000000" stroke-width="1.0" stroke-linejoin="round" stroke-linecap="butt" d="m38.385826 343.73242l0 0c0 -4.2096252 3.4125748 -7.6221924 7.6222 -7.6221924l55.747726 0c2.0215302 0 3.960266 0.80307007 5.3897095 2.232483c1.4294434 1.4294434 2.2324905 3.3681946 2.2324905 5.3897095l0 30.487885c0 4.2096252 -3.4125748 7.622223 -7.6222 7.622223l-55.747726 0c-4.2096252 0 -7.6222 -3.4125977 -7.6222 -7.622223z" fill-rule="evenodd"/><path fill="#000000" d="m64.908615 362.71637l0 -6.984375l2.1875 0q0.53125 0 0.984375 0.109375q0.453125 0.09375 0.78125 0.328125q0.328125 0.234375 0.5 0.609375q0.1875 0.359375 0.1875 0.90625q0 0.828125 -0.4375 1.3125q-0.421875 0.484375 -1.140625 0.671875l1.78125 3.046875l-1.0 0l-1.6875 -2.953125l-1.265625 0l0 2.953125l-0.890625 0zm0.890625 -3.671875l1.171875 0q0.828125 0 1.25 -0.328125q0.4375 -0.34375 0.4375 -1.03125q0 -0.6875 -0.4375 -0.96875q-0.421875 -0.28125 -1.25 -0.28125l-1.171875 0l0 2.609375zm5.1728363 3.671875l0 -6.984375l0.921875 0l2.53125 4.390625l0.75 1.4375l0.046875 0q-0.03125 -0.53125 -0.078125 -1.09375q-0.03125 -0.578125 -0.03125 -1.125l0 -3.609375l0.84375 0l0 6.984375l-0.921875 0l-2.53125 -4.40625l-0.765625 -1.4375l-0.03125 0q0.03125 0.53125 0.0625 1.09375q0.046875 0.546875 0.046875 1.09375l0 3.65625l-0.84375 0zm6.8946686 0l0 -6.984375l0.921875 0l2.53125 4.390625l0.75 1.4375l0.046875 0q-0.03125 -0.53125 -0.078125 -1.09375q-0.03125 -0.578125 -0.03125 -1.125l0 -3.609375l0.84375 0l0 6.984375l-0.921875 0l-2.53125 -4.40625l-0.765625 -1.4375l-0.03125 0q0.03125 0.53125 0.0625 1.09375q0.046875 0.546875 0.046875 1.09375l0 3.65625l-0.84375 0z" fill-rule="nonzero"/><path fill="#e9edee" d="m65.46488 424.55133l0 0c0 -1.5494995 1.2561111 -2.805603 2.8055954 -2.805603l11.222031 0l0 0c0.74409485 0 1.4577103 0.29559326 1.9838562 0.8217468c0.52615356 0.52615356 0.8217392 1.2397461 0.8217392 1.9838562l0 67.963684c0 1.549469 -1.2561035 2.8055725 -2.8055954 2.8055725l-11.222031 0c-1.5494843 0 -2.8055954 -1.2561035 -2.8055954 -2.8055725z" fill-rule="evenodd"/><path stroke="#1a1a1a" stroke-width="1.0" stroke-linejoin="round" stroke-linecap="butt" d="m65.46488 424.55133l0 0c0 -1.5494995 1.2561111 -2.805603 2.8055954 -2.805603l11.222031 0l0 0c0.74409485 0 1.4577103 0.29559326 1.9838562 0.8217468c0.52615356 0.52615356 0.8217392 1.2397461 0.8217392 1.9838562l0 67.963684c0 1.549469 -1.2561035 2.8055725 -2.8055954 2.8055725l-11.222031 0c-1.5494843 0 -2.8055954 -1.2561035 -2.8055954 -2.8055725z" fill-rule="evenodd"/><path fill="#ffffff" d="m67.99188 430.9342l0 0c0 -3.2527466 2.6368637 -5.889618 5.8896103 -5.889618l0 0c1.562027 0 3.0600662 0.6205139 4.164589 1.7250366c1.1045151 1.1044922 1.725029 2.602539 1.725029 4.1645813l0 0c0 3.2527466 -2.6368713 5.889618 -5.889618 5.889618l0 0c-3.2527466 0 -5.8896103 -2.6368713 -5.8896103 -5.889618z" fill-rule="evenodd"/><path stroke="#1a1a1a" stroke-width="1.0" stroke-linejoin="round" stroke-linecap="butt" d="m67.99188 430.9342l0 0c0 -3.2527466 2.6368637 -5.889618 5.8896103 -5.889618l0 0c1.562027 0 3.0600662 0.6205139 4.164589 1.7250366c1.1045151 1.1044922 1.725029 2.602539 1.725029 4.1645813l0 0c0 3.2527466 -2.6368713 5.889618 -5.889618 5.889618l0 0c-3.2527466 0 -5.8896103 -2.6368713 -5.8896103 -5.889618z" fill-rule="evenodd"/><path fill="#d9d9d9" d="m67.99188 467.7854l0 0c0 -3.2527466 2.6368637 -5.889618 5.8896103 -5.889618l0 0c1.562027 0 3.0600662 0.6205139 4.164589 1.7250366c1.1045151 1.1044922 1.725029 2.602539 1.725029 4.1645813l0 0c0 3.2527466 -2.6368713 5.889618 -5.889618 5.889618l0 0c-3.2527466 0 -5.8896103 -2.6368713 -5.8896103 -5.889618z" fill-rule="evenodd"/><path stroke="#1a1a1a" stroke-width="1.0" stroke-linejoin="round" stroke-linecap="butt" d="m67.99188 467.7854l0 0c0 -3.2527466 2.6368637 -5.889618 5.8896103 -5.889618l0 0c1.562027 0 3.0600662 0.6205139 4.164589 1.7250366c1.1045151 1.1044922 1.725029 2.602539 1.725029 4.1645813l0 0c0 3.2527466 -2.6368713 5.889618 -5.889618 5.889618l0 0c-3.2527466 0 -5.8896103 -2.6368713 -5.8896103 -5.889618z" fill-rule="evenodd"/><path fill="#666666" d="m67.99188 486.211l0 0c0 -3.2527466 2.6368637 -5.889618 5.8896103 -5.889618l0 0c1.562027 0 3.0600662 0.6205139 4.164589 1.7250366c1.1045151 1.1045227 1.725029 2.6025696 1.725029 4.1645813l0 0c0 3.2527466 -2.6368713 5.889618 -5.889618 5.889618l0 0c-3.2527466 0 -5.8896103 -2.6368713 -5.8896103 -5.889618z" fill-rule="evenodd"/><path stroke="#1a1a1a" stroke-width="1.0" stroke-linejoin="round" stroke-linecap="butt" d="m67.99188 486.211l0 0c0 -3.2527466 2.6368637 -5.889618 5.8896103 -5.889618l0 0c1.562027 0 3.0600662 0.6205139 4.164589 1.7250366c1.1045151 1.1045227 1.725029 2.6025696 1.725029 4.1645813l0 0c0 3.2527466 -2.6368713 5.889618 -5.889618 5.889618l0 0c-3.2527466 0 -5.8896103 -2.6368713 -5.8896103 -5.889618z" fill-rule="evenodd"/><path fill="#000000" d="m67.99188 449.3598l0 0c0 -3.2527466 2.6368637 -5.889618 5.8896103 -5.889618l0 0c1.562027 0 3.0600662 0.6205139 4.164589 1.7250366c1.1045151 1.1044922 1.725029 2.602539 1.725029 4.1645813l0 0c0 3.2527466 -2.6368713 5.889618 -5.889618 5.889618l0 0c-3.2527466 0 -5.8896103 -2.6368713 -5.8896103 -5.889618z" fill-rule="evenodd"/><path stroke="#1a1a1a" stroke-width="1.0" stroke-linejoin="round" stroke-linecap="butt" d="m67.99188 449.3598l0 0c0 -3.2527466 2.6368637 -5.889618 5.8896103 -5.889618l0 0c1.562027 0 3.0600662 0.6205139 4.164589 1.7250366c1.1045151 1.1044922 1.725029 2.602539 1.725029 4.1645813l0 0c0 3.2527466 -2.6368713 5.889618 -5.889618 5.889618l0 0c-3.2527466 0 -5.8896103 -2.6368713 -5.8896103 -5.889618z" fill-rule="evenodd"/><path fill="#e9edee" d="m417.57217 343.73242l0 0c0 -4.2096252 3.4125671 -7.6221924 7.6221924 -7.6221924l55.74774 0c2.021515 0 3.960266 0.80307007 5.3897095 2.232483c1.4294434 1.4294434 2.232483 3.3681946 2.232483 5.3897095l0 30.487885c0 4.2096252 -3.4125671 7.622223 -7.6221924 7.622223l-55.74774 0c-4.2096252 0 -7.6221924 -3.4125977 -7.6221924 -7.622223z" fill-rule="evenodd"/><path stroke="#000000" stroke-width="1.0" stroke-linejoin="round" stroke-linecap="butt" d="m417.57217 343.73242l0 0c0 -4.2096252 3.4125671 -7.6221924 7.6221924 -7.6221924l55.74774 0c2.021515 0 3.960266 0.80307007 5.3897095 2.232483c1.4294434 1.4294434 2.232483 3.3681946 2.232483 5.3897095l0 30.487885c0 4.2096252 -3.4125671 7.622223 -7.6221924 7.622223l-55.74774 0c-4.2096252 0 -7.6221924 -3.4125977 -7.6221924 -7.622223z" fill-rule="evenodd"/><path fill="#000000" d="m444.09497 362.71637l0 -6.984375l2.1875 0q0.53125 0 0.984375 0.109375q0.453125 0.09375 0.78125 0.328125q0.328125 0.234375 0.5 0.609375q0.1875 0.359375 0.1875 0.90625q0 0.828125 -0.4375 1.3125q-0.421875 0.484375 -1.140625 0.671875l1.78125 3.046875l-1.0 0l-1.6875 -2.953125l-1.265625 0l0 2.953125l-0.890625 0zm0.890625 -3.671875l1.171875 0q0.828125 0 1.25 -0.328125q0.4375 -0.34375 0.4375 -1.03125q0 -0.6875 -0.4375 -0.96875q-0.421875 -0.28125 -1.25 -0.28125l-1.171875 0l0 2.609375zm5.172821 3.671875l0 -6.984375l0.921875 0l2.53125 4.390625l0.75 1.4375l0.046875 0q-0.03125 -0.53125 -0.078125 -1.09375q-0.03125 -0.578125 -0.03125 -1.125l0 -3.609375l0.84375 0l0 6.984375l-0.921875 0l-2.53125 -4.40625l-0.765625 -1.4375l-0.03125 0q0.03125 0.53125 0.0625 1.09375q0.046875 0.546875 0.046875 1.09375l0 3.65625l-0.84375 0zm6.894684 0l0 -6.984375l0.921875 0l2.53125 4.390625l0.75 1.4375l0.046875 0q-0.03125 -0.53125 -0.078125 -1.09375q-0.03125 -0.578125 -0.03125 -1.125l0 -3.609375l0.84375 0l0 6.984375l-0.921875 0l-2.53125 -4.40625l-0.765625 -1.4375l-0.03125 0q0.03125 0.53125 0.0625 1.09375q0.046875 0.546875 0.046875 1.09375l0 3.65625l-0.84375 0z" fill-rule="nonzero"/><path fill="#e9edee" d="m444.65125 424.55133l0 0c0 -1.5494995 1.2561035 -2.805603 2.8055725 -2.805603l11.222046 0l0 0c0.7440796 0 1.4577026 0.29559326 1.9838562 0.8217468c0.52615356 0.52615356 0.8217468 1.2397461 0.8217468 1.9838562l0 67.963684c0 1.549469 -1.2561035 2.8055725 -2.805603 2.8055725l-11.222046 0c-1.549469 0 -2.8055725 -1.2561035 -2.8055725 -2.8055725z" fill-rule="evenodd"/><path stroke="#1a1a1a" stroke-width="1.0" stroke-linejoin="round" stroke-linecap="butt" d="m444.65125 424.55133l0 0c0 -1.5494995 1.2561035 -2.805603 2.8055725 -2.805603l11.222046 0l0 0c0.7440796 0 1.4577026 0.29559326 1.9838562 0.8217468c0.52615356 0.52615356 0.8217468 1.2397461 0.8217468 1.9838562l0 67.963684c0 1.549469 -1.2561035 2.8055725 -2.805603 2.8055725l-11.222046 0c-1.549469 0 -2.8055725 -1.2561035 -2.8055725 -2.8055725z" fill-rule="evenodd"/><path fill="#cccccc" d="m447.17822 430.9342l0 0c0 -3.2527466 2.6368713 -5.889618 5.889618 -5.889618l0 0c1.5620422 0 3.0600586 0.6205139 4.1645813 1.7250366c1.1045227 1.1044922 1.7250366 2.602539 1.7250366 4.1645813l0 0c0 3.2527466 -2.6368713 5.889618 -5.889618 5.889618l0 0c-3.2527466 0 -5.889618 -2.6368713 -5.889618 -5.889618z" fill-rule="evenodd"/><path stroke="#1a1a1a" stroke-width="1.0" stroke-linejoin="round" stroke-linecap="butt" d="m447.17822 430.9342l0 0c0 -3.2527466 2.6368713 -5.889618 5.889618 -5.889618l0 0c1.5620422 0 3.0600586 0.6205139 4.1645813 1.7250366c1.1045227 1.1044922 1.7250366 2.602539 1.7250366 4.1645813l0 0c0 3.2527466 -2.6368713 5.889618 -5.889618 5.889618l0 0c-3.2527466 0 -5.889618 -2.6368713 -5.889618 -5.889618z" fill-rule="evenodd"/><path fill="#ffffff" d="m447.17822 467.7854l0 0c0 -3.2527466 2.6368713 -5.889618 5.889618 -5.889618l0 0c1.5620422 0 3.0600586 0.6205139 4.1645813 1.7250366c1.1045227 1.1044922 1.7250366 2.602539 1.7250366 4.1645813l0 0c0 3.2527466 -2.6368713 5.889618 -5.889618 5.889618l0 0c-3.2527466 0 -5.889618 -2.6368713 -5.889618 -5.889618z" fill-rule="evenodd"/><path stroke="#1a1a1a" stroke-width="1.0" stroke-linejoin="round" stroke-linecap="butt" d="m447.17822 467.7854l0 0c0 -3.2527466 2.6368713 -5.889618 5.889618 -5.889618l0 0c1.5620422 0 3.0600586 0.6205139 4.1645813 1.7250366c1.1045227 1.1044922 1.7250366 2.602539 1.7250366 4.1645813l0 0c0 3.2527466 -2.6368713 5.889618 -5.889618 5.889618l0 0c-3.2527466 0 -5.889618 -2.6368713 -5.889618 -5.889618z" fill-rule="evenodd"/><path fill="#efefef" d="m447.17822 486.211l0 0c0 -3.2527466 2.6368713 -5.889618 5.889618 -5.889618l0 0c1.5620422 0 3.0600586 0.6205139 4.1645813 1.7250366c1.1045227 1.1045227 1.7250366 2.6025696 1.7250366 4.1645813l0 0c0 3.2527466 -2.6368713 5.889618 -5.889618 5.889618l0 0c-3.2527466 0 -5.889618 -2.6368713 -5.889618 -5.889618z" fill-rule="evenodd"/><path stroke="#1a1a1a" stroke-width="1.0" stroke-linejoin="round" stroke-linecap="butt" d="m447.17822 486.211l0 0c0 -3.2527466 2.6368713 -5.889618 5.889618 -5.889618l0 0c1.5620422 0 3.0600586 0.6205139 4.1645813 1.7250366c1.1045227 1.1045227 1.7250366 2.6025696 1.7250366 4.1645813l0 0c0 3.2527466 -2.6368713 5.889618 -5.889618 5.889618l0 0c-3.2527466 0 -5.889618 -2.6368713 -5.889618 -5.889618z" fill-rule="evenodd"/><path fill="#d9d9d9" d="m447.17822 449.3598l0 0c0 -3.2527466 2.6368713 -5.889618 5.889618 -5.889618l0 0c1.5620422 0 3.0600586 0.6205139 4.1645813 1.7250366c1.1045227 1.1044922 1.7250366 2.602539 1.7250366 4.1645813l0 0c0 3.2527466 -2.6368713 5.889618 -5.889618 5.889618l0 0c-3.2527466 0 -5.889618 -2.6368713 -5.889618 -5.889618z" fill-rule="evenodd"/><path stroke="#1a1a1a" stroke-width="1.0" stroke-linejoin="round" stroke-linecap="butt" d="m447.17822 449.3598l0 0c0 -3.2527466 2.6368713 -5.889618 5.889618 -5.889618l0 0c1.5620422 0 3.0600586 0.6205139 4.1645813 1.7250366c1.1045227 1.1044922 1.7250366 2.602539 1.7250366 4.1645813l0 0c0 3.2527466 -2.6368713 5.889618 -5.889618 5.889618l0 0c-3.2527466 0 -5.889618 -2.6368713 -5.889618 -5.889618z" fill-rule="evenodd"/><path fill="#e9edee" d="m444.6509 41.196445l0 0c0 -1.5494881 1.2561035 -2.8055954 2.805603 -2.8055954l11.222046 0l0 0c0.7440796 0 1.4577026 0.29558945 1.9838562 0.8217392c0.52612305 0.52615356 0.8217163 1.2397652 0.8217163 1.9838562l0 51.291546c0 1.5494843 -1.2561035 2.8055954 -2.8055725 2.8055954l-11.222046 0c-1.5494995 0 -2.805603 -1.2561111 -2.805603 -2.8055954z" fill-rule="evenodd"/><path stroke="#1a1a1a" stroke-width="1.0" stroke-linejoin="round" stroke-linecap="butt" d="m444.6509 41.196445l0 0c0 -1.5494881 1.2561035 -2.8055954 2.805603 -2.8055954l11.222046 0l0 0c0.7440796 0 1.4577026 0.29558945 1.9838562 0.8217392c0.52612305 0.52615356 0.8217163 1.2397652 0.8217163 1.9838562l0 51.291546c0 1.5494843 -1.2561035 2.8055954 -2.8055725 2.8055954l-11.222046 0c-1.5494995 0 -2.805603 -1.2561111 -2.805603 -2.8055954z" fill-rule="evenodd"/><path fill="#b7b7b7" d="m447.17822 67.757835l0 0c0 -3.2527466 2.6368713 -5.889614 5.889618 -5.889614l0 0c1.5620422 0 3.0600586 0.6205139 4.1645813 1.725029c1.1045227 1.1045189 1.7250366 2.6025658 1.7250366 4.164585l0 0c0 3.2527466 -2.6368713 5.889618 -5.889618 5.889618l0 0c-3.2527466 0 -5.889618 -2.6368713 -5.889618 -5.889618z" fill-rule="evenodd"/><path stroke="#1a1a1a" stroke-width="1.0" stroke-linejoin="round" stroke-linecap="butt" d="m447.17822 67.757835l0 0c0 -3.2527466 2.6368713 -5.889614 5.889618 -5.889614l0 0c1.5620422 0 3.0600586 0.6205139 4.1645813 1.725029c1.1045227 1.1045189 1.7250366 2.6025658 1.7250366 4.164585l0 0c0 3.2527466 -2.6368713 5.889618 -5.889618 5.889618l0 0c-3.2527466 0 -5.889618 -2.6368713 -5.889618 -5.889618z" fill-rule="evenodd"/><path fill="#b7b7b7" d="m447.17822 86.18343l0 0c0 -3.252739 2.6368713 -5.8896103 5.889618 -5.8896103l0 0c1.5620422 0 3.0600586 0.6205063 4.1645813 1.725029c1.1045227 1.1045151 1.7250366 2.602562 1.7250366 4.1645813l0 0c0 3.2527466 -2.6368713 5.889618 -5.889618 5.889618l0 0c-3.2527466 0 -5.889618 -2.6368713 -5.889618 -5.889618z" fill-rule="evenodd"/><path stroke="#1a1a1a" stroke-width="1.0" stroke-linejoin="round" stroke-linecap="butt" d="m447.17822 86.18343l0 0c0 -3.252739 2.6368713 -5.8896103 5.889618 -5.8896103l0 0c1.5620422 0 3.0600586 0.6205063 4.1645813 1.725029c1.1045227 1.1045151 1.7250366 2.602562 1.7250366 4.1645813l0 0c0 3.2527466 -2.6368713 5.889618 -5.889618 5.889618l0 0c-3.2527466 0 -5.889618 -2.6368713 -5.889618 -5.889618z" fill-rule="evenodd"/><path fill="#000000" d="m447.17822 49.332237l0 0c0 -3.2527428 2.6368713 -5.889614 5.889618 -5.889614l0 0c1.5620422 0 3.0600586 0.6205101 4.1645813 1.725029c1.1045227 1.1045151 1.7250366 2.602562 1.7250366 4.164585l0 0c0 3.2527428 -2.6368713 5.889614 -5.889618 5.889614l0 0c-3.2527466 0 -5.889618 -2.6368713 -5.889618 -5.889614z" fill-rule="evenodd"/><path stroke="#1a1a1a" stroke-width="1.0" stroke-linejoin="round" stroke-linecap="butt" d="m447.17822 49.332237l0 0c0 -3.2527428 2.6368713 -5.889614 5.889618 -5.889614l0 0c1.5620422 0 3.0600586 0.6205101 4.1645813 1.725029c1.1045227 1.1045151 1.7250366 2.602562 1.7250366 4.164585l0 0c0 3.2527428 -2.6368713 5.889614 -5.889618 5.889614l0 0c-3.2527466 0 -5.889618 -2.6368713 -5.889618 -5.889614z" fill-rule="evenodd"/><path fill="#e9edee" d="m227.979 343.73242l0 0c0 -4.2096252 3.4125671 -7.6221924 7.6221924 -7.6221924l55.74774 0c2.021515 0 3.960266 0.80307007 5.3897095 2.232483c1.4294434 1.4294434 2.232483 3.3681946 2.232483 5.3897095l0 30.487885c0 4.2096252 -3.4125671 7.622223 -7.6221924 7.622223l-55.74774 0c-4.2096252 0 -7.6221924 -3.4125977 -7.6221924 -7.622223z" fill-rule="evenodd"/><path stroke="#000000" stroke-width="1.0" stroke-linejoin="round" stroke-linecap="butt" d="m227.979 343.73242l0 0c0 -4.2096252 3.4125671 -7.6221924 7.6221924 -7.6221924l55.74774 0c2.021515 0 3.960266 0.80307007 5.3897095 2.232483c1.4294434 1.4294434 2.232483 3.3681946 2.232483 5.3897095l0 30.487885c0 4.2096252 -3.4125671 7.622223 -7.6221924 7.622223l-55.74774 0c-4.2096252 0 -7.6221924 -3.4125977 -7.6221924 -7.622223z" fill-rule="evenodd"/><path fill="#000000" d="m254.50179 362.71637l0 -6.984375l2.1875153 0q0.53125 0 0.984375 0.109375q0.453125 0.09375 0.78125 0.328125q0.328125 0.234375 0.5 0.609375q0.1875 0.359375 0.1875 0.90625q0 0.828125 -0.4375 1.3125q-0.421875 0.484375 -1.140625 0.671875l1.78125 3.046875l-1.0 0l-1.6875 -2.953125l-1.2656403 0l0 2.953125l-0.890625 0zm0.890625 -3.671875l1.1718903 0q0.828125 0 1.25 -0.328125q0.4375 -0.34375 0.4375 -1.03125q0 -0.6875 -0.4375 -0.96875q-0.421875 -0.28125 -1.25 -0.28125l-1.1718903 0l0 2.609375zm5.1728363 3.671875l0 -6.984375l0.921875 0l2.53125 4.390625l0.75 1.4375l0.046875 0q-0.03125 -0.53125 -0.078125 -1.09375q-0.03125 -0.578125 -0.03125 -1.125l0 -3.609375l0.84375 0l0 6.984375l-0.921875 0l-2.53125 -4.40625l-0.765625 -1.4375l-0.03125 0q0.03125 0.53125 0.0625 1.09375q0.046875 0.546875 0.046875 1.09375l0 3.65625l-0.84375 0zm6.894684 0l0 -6.984375l0.921875 0l2.53125 4.390625l0.75 1.4375l0.046875 0q-0.03125 -0.53125 -0.078125 -1.09375q-0.03125 -0.578125 -0.03125 -1.125l0 -3.609375l0.84375 0l0 6.984375l-0.921875 0l-2.53125 -4.40625l-0.765625 -1.4375l-0.03125 0q0.03125 0.53125 0.0625 1.09375q0.046875 0.546875 0.046875 1.09375l0 3.65625l-0.84375 0z" fill-rule="nonzero"/><path fill="#e9edee" d="m255.05806 424.55133l0 0c0 -1.5494995 1.2561188 -2.805603 2.8055878 -2.805603l11.222046 0l0 0c0.7440796 0 1.4577026 0.29559326 1.9838562 0.8217468c0.52615356 0.52615356 0.8217163 1.2397461 0.8217163 1.9838562l0 67.963684c0 1.549469 -1.2561035 2.8055725 -2.8055725 2.8055725l-11.222046 0c-1.549469 0 -2.8055878 -1.2561035 -2.8055878 -2.8055725z" fill-rule="evenodd"/><path stroke="#1a1a1a" stroke-width="1.0" stroke-linejoin="round" stroke-linecap="butt" d="m255.05806 424.55133l0 0c0 -1.5494995 1.2561188 -2.805603 2.8055878 -2.805603l11.222046 0l0 0c0.7440796 0 1.4577026 0.29559326 1.9838562 0.8217468c0.52615356 0.52615356 0.8217163 1.2397461 0.8217163 1.9838562l0 67.963684c0 1.549469 -1.2561035 2.8055725 -2.8055725 2.8055725l-11.222046 0c-1.549469 0 -2.8055878 -1.2561035 -2.8055878 -2.8055725z" fill-rule="evenodd"/><path fill="#000000" d="m257.58505 430.9342l0 0c0 -3.2527466 2.6368713 -5.889618 5.889618 -5.889618l0 0c1.5620117 0 3.0600586 0.6205139 4.1645813 1.7250366c1.1045227 1.1044922 1.7250366 2.602539 1.7250366 4.1645813l0 0c0 3.2527466 -2.6368713 5.889618 -5.889618 5.889618l0 0c-3.2527466 0 -5.889618 -2.6368713 -5.889618 -5.889618z" fill-rule="evenodd"/><path stroke="#1a1a1a" stroke-width="1.0" stroke-linejoin="round" stroke-linecap="butt" d="m257.58505 430.9342l0 0c0 -3.2527466 2.6368713 -5.889618 5.889618 -5.889618l0 0c1.5620117 0 3.0600586 0.6205139 4.1645813 1.7250366c1.1045227 1.1044922 1.7250366 2.602539 1.7250366 4.1645813l0 0c0 3.2527466 -2.6368713 5.889618 -5.889618 5.889618l0 0c-3.2527466 0 -5.889618 -2.6368713 -5.889618 -5.889618z" fill-rule="evenodd"/><path fill="#000000" d="m257.58505 467.7854l0 0c0 -3.2527466 2.6368713 -5.889618 5.889618 -5.889618l0 0c1.5620117 0 3.0600586 0.6205139 4.1645813 1.7250366c1.1045227 1.1044922 1.7250366 2.602539 1.7250366 4.1645813l0 0c0 3.2527466 -2.6368713 5.889618 -5.889618 5.889618l0 0c-3.2527466 0 -5.889618 -2.6368713 -5.889618 -5.889618z" fill-rule="evenodd"/><path stroke="#1a1a1a" stroke-width="1.0" stroke-linejoin="round" stroke-linecap="butt" d="m257.58505 467.7854l0 0c0 -3.2527466 2.6368713 -5.889618 5.889618 -5.889618l0 0c1.5620117 0 3.0600586 0.6205139 4.1645813 1.7250366c1.1045227 1.1044922 1.7250366 2.602539 1.7250366 4.1645813l0 0c0 3.2527466 -2.6368713 5.889618 -5.889618 5.889618l0 0c-3.2527466 0 -5.889618 -2.6368713 -5.889618 -5.889618z" fill-rule="evenodd"/><path fill="#ffffff" d="m257.58505 486.211l0 0c0 -3.2527466 2.6368713 -5.889618 5.889618 -5.889618l0 0c1.5620117 0 3.0600586 0.6205139 4.1645813 1.7250366c1.1045227 1.1045227 1.7250366 2.6025696 1.7250366 4.1645813l0 0c0 3.2527466 -2.6368713 5.889618 -5.889618 5.889618l0 0c-3.2527466 0 -5.889618 -2.6368713 -5.889618 -5.889618z" fill-rule="evenodd"/><path stroke="#1a1a1a" stroke-width="1.0" stroke-linejoin="round" stroke-linecap="butt" d="m257.58505 486.211l0 0c0 -3.2527466 2.6368713 -5.889618 5.889618 -5.889618l0 0c1.5620117 0 3.0600586 0.6205139 4.1645813 1.7250366c1.1045227 1.1045227 1.7250366 2.6025696 1.7250366 4.1645813l0 0c0 3.2527466 -2.6368713 5.889618 -5.889618 5.889618l0 0c-3.2527466 0 -5.889618 -2.6368713 -5.889618 -5.889618z" fill-rule="evenodd"/><path fill="#ffffff" d="m257.58505 449.3598l0 0c0 -3.2527466 2.6368713 -5.889618 5.889618 -5.889618l0 0c1.5620117 0 3.0600586 0.6205139 4.1645813 1.7250366c1.1045227 1.1044922 1.7250366 2.602539 1.7250366 4.1645813l0 0c0 3.2527466 -2.6368713 5.889618 -5.889618 5.889618l0 0c-3.2527466 0 -5.889618 -2.6368713 -5.889618 -5.889618z" fill-rule="evenodd"/><path stroke="#1a1a1a" stroke-width="1.0" stroke-linejoin="round" stroke-linecap="butt" d="m257.58505 449.3598l0 0c0 -3.2527466 2.6368713 -5.889618 5.889618 -5.889618l0 0c1.5620117 0 3.0600586 0.6205139 4.1645813 1.7250366c1.1045227 1.1044922 1.7250366 2.602539 1.7250366 4.1645813l0 0c0 3.2527466 -2.6368713 5.889618 -5.889618 5.889618l0 0c-3.2527466 0 -5.889618 -2.6368713 -5.889618 -5.889618z" fill-rule="evenodd"/><path fill="#e9edee" d="m255.05774 41.196453l0 0c0 -1.5494881 1.2561035 -2.8055954 2.805603 -2.8055954l11.222015 0l0 0c0.7441101 0 1.4577026 0.29558945 1.9838562 0.8217392c0.52615356 0.52615356 0.8217468 1.2397652 0.8217468 1.9838562l0 51.291546c0 1.5494843 -1.2561035 2.8055954 -2.805603 2.8055954l-11.222015 0c-1.5494995 0 -2.805603 -1.2561111 -2.805603 -2.8055954z" fill-rule="evenodd"/><path stroke="#1a1a1a" stroke-width="1.0" stroke-linejoin="round" stroke-linecap="butt" d="m255.05774 41.196453l0 0c0 -1.5494881 1.2561035 -2.8055954 2.805603 -2.8055954l11.222015 0l0 0c0.7441101 0 1.4577026 0.29558945 1.9838562 0.8217392c0.52615356 0.52615356 0.8217468 1.2397652 0.8217468 1.9838562l0 51.291546c0 1.5494843 -1.2561035 2.8055954 -2.805603 2.8055954l-11.222015 0c-1.5494995 0 -2.805603 -1.2561111 -2.805603 -2.8055954z" fill-rule="evenodd"/><path fill="#cccccc" d="m257.58505 67.757835l0 0c0 -3.2527466 2.6368713 -5.889614 5.889618 -5.889614l0 0c1.5620117 0 3.0600586 0.6205139 4.1645813 1.725029c1.1045227 1.1045189 1.7250366 2.6025658 1.7250366 4.164585l0 0c0 3.2527466 -2.6368713 5.889618 -5.889618 5.889618l0 0c-3.2527466 0 -5.889618 -2.6368713 -5.889618 -5.889618z" fill-rule="evenodd"/><path stroke="#1a1a1a" stroke-width="1.0" stroke-linejoin="round" stroke-linecap="butt" d="m257.58505 67.757835l0 0c0 -3.2527466 2.6368713 -5.889614 5.889618 -5.889614l0 0c1.5620117 0 3.0600586 0.6205139 4.1645813 1.725029c1.1045227 1.1045189 1.7250366 2.6025658 1.7250366 4.164585l0 0c0 3.2527466 -2.6368713 5.889618 -5.889618 5.889618l0 0c-3.2527466 0 -5.889618 -2.6368713 -5.889618 -5.889618z" fill-rule="evenodd"/><path fill="#999999" d="m257.58505 86.18343l0 0c0 -3.252739 2.6368713 -5.8896103 5.889618 -5.8896103l0 0c1.5620117 0 3.0600586 0.6205063 4.1645813 1.725029c1.1045227 1.1045151 1.7250366 2.602562 1.7250366 4.1645813l0 0c0 3.2527466 -2.6368713 5.889618 -5.889618 5.889618l0 0c-3.2527466 0 -5.889618 -2.6368713 -5.889618 -5.889618z" fill-rule="evenodd"/><path stroke="#1a1a1a" stroke-width="1.0" stroke-linejoin="round" stroke-linecap="butt" d="m257.58505 86.18343l0 0c0 -3.252739 2.6368713 -5.8896103 5.889618 -5.8896103l0 0c1.5620117 0 3.0600586 0.6205063 4.1645813 1.725029c1.1045227 1.1045151 1.7250366 2.602562 1.7250366 4.1645813l0 0c0 3.2527466 -2.6368713 5.889618 -5.889618 5.889618l0 0c-3.2527466 0 -5.889618 -2.6368713 -5.889618 -5.889618z" fill-rule="evenodd"/><path fill="#434343" d="m257.58505 49.332237l0 0c0 -3.2527428 2.6368713 -5.889614 5.889618 -5.889614l0 0c1.5620117 0 3.0600586 0.6205101 4.1645813 1.725029c1.1045227 1.1045151 1.7250366 2.602562 1.7250366 4.164585l0 0c0 3.2527428 -2.6368713 5.889614 -5.889618 5.889614l0 0c-3.2527466 0 -5.889618 -2.6368713 -5.889618 -5.889614z" fill-rule="evenodd"/><path stroke="#1a1a1a" stroke-width="1.0" stroke-linejoin="round" stroke-linecap="butt" d="m257.58505 49.332237l0 0c0 -3.2527428 2.6368713 -5.889614 5.889618 -5.889614l0 0c1.5620117 0 3.0600586 0.6205101 4.1645813 1.725029c1.1045227 1.1045151 1.7250366 2.602562 1.7250366 4.164585l0 0c0 3.2527428 -2.6368713 5.889614 -5.889618 5.889614l0 0c-3.2527466 0 -5.889618 -2.6368713 -5.889618 -5.889614z" fill-rule="evenodd"/><path fill="#000000" fill-opacity="0.0" d="m73.88189 421.74802l0 -39.905487" fill-rule="evenodd"/><path stroke="#1a1a1a" stroke-width="1.0" stroke-linejoin="round" stroke-linecap="butt" d="m73.88189 421.74802l0 -33.905487" fill-rule="evenodd"/><path fill="#1a1a1a" stroke="#1a1a1a" stroke-width="1.0" stroke-linecap="butt" d="m75.53362 387.84253l-1.6517334 -4.5381165l-1.6517334 4.5381165z" fill-rule="evenodd"/><path fill="#000000" fill-opacity="0.0" d="m109.37795 358.97638l118.614174 0" fill-rule="evenodd"/><path stroke="#1a1a1a" stroke-width="1.0" stroke-linejoin="round" stroke-linecap="butt" d="m109.37795 358.97638l112.614174 0" fill-rule="evenodd"/><path fill="#1a1a1a" stroke="#1a1a1a" stroke-width="1.0" stroke-linecap="butt" d="m221.99213 360.6281l4.538101 -1.6517334l-4.538101 -1.6517334z" fill-rule="evenodd"/><path fill="#000000" fill-opacity="0.0" d="m298.97113 358.97638l118.61417 0" fill-rule="evenodd"/><path stroke="#1a1a1a" stroke-width="1.0" stroke-linejoin="round" stroke-linecap="butt" d="m298.97113 358.97638l112.61417 0" fill-rule="evenodd"/><path fill="#1a1a1a" stroke="#1a1a1a" stroke-width="1.0" stroke-linecap="butt" d="m411.5853 360.6281l4.5381165 -1.6517334l-4.5381165 -1.6517334z" fill-rule="evenodd"/><path fill="#000000" fill-opacity="0.0" d="m453.06824 421.74802l0 -39.905487" fill-rule="evenodd"/><path stroke="#1a1a1a" stroke-width="1.0" stroke-linejoin="round" stroke-linecap="butt" d="m453.06824 421.74802l0 -33.905487" fill-rule="evenodd"/><path fill="#1a1a1a" stroke="#1a1a1a" stroke-width="1.0" stroke-linecap="butt" d="m454.71997 387.84253l-1.6517334 -4.5381165l-1.6517334 4.5381165z" fill-rule="evenodd"/><path fill="#000000" fill-opacity="0.0" d="m263.47507 421.74802l0 -39.905487" fill-rule="evenodd"/><path stroke="#1a1a1a" stroke-width="1.0" stroke-linejoin="round" stroke-linecap="butt" d="m263.47507 421.74802l0 -33.905487" fill-rule="evenodd"/><path fill="#1a1a1a" stroke="#1a1a1a" stroke-width="1.0" stroke-linecap="butt" d="m265.1268 387.84253l-1.6517334 -4.5381165l-1.6517334 4.5381165z" fill-rule="evenodd"/><path fill="#e9edee" d="m65.46457 41.19646l0 0c0 -1.5494881 1.2561035 -2.8055954 2.8055878 -2.8055954l11.222038 0l0 0c0.7440872 0 1.4577026 0.29558945 1.9838562 0.8217392c0.52614594 0.52615356 0.8217392 1.2397652 0.8217392 1.9838562l0 51.291546c0 1.5494843 -1.2561111 2.8055954 -2.8055954 2.8055954l-11.222038 0c-1.5494843 0 -2.8055878 -1.2561111 -2.8055878 -2.8055954z" fill-rule="evenodd"/><path stroke="#1a1a1a" stroke-width="1.0" stroke-linejoin="round" stroke-linecap="butt" d="m65.46457 41.19646l0 0c0 -1.5494881 1.2561035 -2.8055954 2.8055878 -2.8055954l11.222038 0l0 0c0.7440872 0 1.4577026 0.29558945 1.9838562 0.8217392c0.52614594 0.52615356 0.8217392 1.2397652 0.8217392 1.9838562l0 51.291546c0 1.5494843 -1.2561111 2.8055954 -2.8055954 2.8055954l-11.222038 0c-1.5494843 0 -2.8055878 -1.2561111 -2.8055878 -2.8055954z" fill-rule="evenodd"/><path fill="#666666" d="m67.99188 86.18343l0 0c0 -3.252739 2.6368637 -5.8896103 5.8896103 -5.8896103l0 0c1.562027 0 3.0600662 0.6205063 4.164589 1.725029c1.1045151 1.1045151 1.725029 2.602562 1.725029 4.1645813l0 0c0 3.2527466 -2.6368713 5.889618 -5.889618 5.889618l0 0c-3.2527466 0 -5.8896103 -2.6368713 -5.8896103 -5.889618z" fill-rule="evenodd"/><path stroke="#1a1a1a" stroke-width="1.0" stroke-linejoin="round" stroke-linecap="butt" d="m67.99188 86.18343l0 0c0 -3.252739 2.6368637 -5.8896103 5.8896103 -5.8896103l0 0c1.562027 0 3.0600662 0.6205063 4.164589 1.725029c1.1045151 1.1045151 1.725029 2.602562 1.725029 4.1645813l0 0c0 3.2527466 -2.6368713 5.889618 -5.889618 5.889618l0 0c-3.2527466 0 -5.8896103 -2.6368713 -5.8896103 -5.889618z" fill-rule="evenodd"/><path fill="#d9d9d9" d="m67.99188 67.757835l0 0c0 -3.2527466 2.6368637 -5.889614 5.8896103 -5.889614l0 0c1.562027 0 3.0600662 0.6205139 4.164589 1.725029c1.1045151 1.1045189 1.725029 2.6025658 1.725029 4.164585l0 0c0 3.2527466 -2.6368713 5.889618 -5.889618 5.889618l0 0c-3.2527466 0 -5.8896103 -2.6368713 -5.8896103 -5.889618z" fill-rule="evenodd"/><path stroke="#1a1a1a" stroke-width="1.0" stroke-linejoin="round" stroke-linecap="butt" d="m67.99188 67.757835l0 0c0 -3.2527466 2.6368637 -5.889614 5.8896103 -5.889614l0 0c1.562027 0 3.0600662 0.6205139 4.164589 1.725029c1.1045151 1.1045189 1.725029 2.6025658 1.725029 4.164585l0 0c0 3.2527466 -2.6368713 5.889618 -5.889618 5.889618l0 0c-3.2527466 0 -5.8896103 -2.6368713 -5.8896103 -5.889618z" fill-rule="evenodd"/><path fill="#000000" d="m67.99188 49.332237l0 0c0 -3.2527428 2.6368637 -5.889614 5.8896103 -5.889614l0 0c1.562027 0 3.0600662 0.6205101 4.164589 1.725029c1.1045151 1.1045151 1.725029 2.602562 1.725029 4.164585l0 0c0 3.2527428 -2.6368713 5.889614 -5.889618 5.889614l0 0c-3.2527466 0 -5.8896103 -2.6368713 -5.8896103 -5.889614z" fill-rule="evenodd"/><path stroke="#1a1a1a" stroke-width="1.0" stroke-linejoin="round" stroke-linecap="butt" d="m67.99188 49.332237l0 0c0 -3.2527428 2.6368637 -5.889614 5.8896103 -5.889614l0 0c1.562027 0 3.0600662 0.6205101 4.164589 1.725029c1.1045151 1.1045151 1.725029 2.602562 1.725029 4.164585l0 0c0 3.2527428 -2.6368713 5.889614 -5.889618 5.889614l0 0c-3.2527466 0 -5.8896103 -2.6368713 -5.8896103 -5.889614z" fill-rule="evenodd"/><path fill="#d9d2e9" d="m8.0 225.44783l0 0c0 -9.132446 7.4033136 -16.535751 16.535765 -16.535751l533.54266 0c4.385559 0 8.591492 1.742157 11.692505 4.8432007c3.1010742 3.101059 4.8432617 7.307007 4.8432617 11.692551l0 66.14107c0 9.132446 -7.4033203 16.535767 -16.535767 16.535767l-533.54266 0c-9.132451 0 -16.535765 -7.4033203 -16.535765 -16.535767z" fill-rule="evenodd"/><path fill="#000000" d="m495.14325 291.5215l0 -6.984375l0.890625 0l0 2.921875l3.25 0l0 -2.921875l0.890625 0l0 6.984375l-0.890625 0l0 -3.296875l-3.25 0l0 3.296875l-0.890625 0zm6.8698425 0l0 -5.171875l0.875 0l0 5.171875l-0.875 0zm0.453125 -6.25q-0.265625 0 -0.4375 -0.15625q-0.171875 -0.15625 -0.171875 -0.40625q0 -0.25 0.171875 -0.40625q0.171875 -0.15625 0.4375 -0.15625q0.25 0 0.421875 0.15625q0.171875 0.15625 0.171875 0.40625q0 0.25 -0.171875 0.40625q-0.171875 0.15625 -0.421875 0.15625zm3.93396 6.375q-0.984375 0 -1.5625 -0.703125q-0.578125 -0.703125 -0.578125 -2.0q0 -0.625 0.1875 -1.125q0.1875 -0.515625 0.484375 -0.859375q0.3125 -0.359375 0.71875 -0.546875q0.40625 -0.203125 0.859375 -0.203125q0.453125 0 0.78125 0.171875q0.328125 0.15625 0.671875 0.4375l-0.046875 -0.890625l0 -2.0l0.890625 0l0 7.59375l-0.734375 0l-0.078125 -0.609375l-0.03125 0q-0.296875 0.296875 -0.703125 0.515625q-0.40625 0.21875 -0.859375 0.21875zm0.1875 -0.734375q0.375 0 0.6875 -0.171875q0.328125 -0.171875 0.640625 -0.546875l0 -2.703125q-0.328125 -0.296875 -0.640625 -0.421875q-0.296875 -0.125 -0.609375 -0.125q-0.3125 0 -0.59375 0.15625q-0.265625 0.140625 -0.46875 0.40625q-0.203125 0.25 -0.328125 0.625q-0.109375 0.359375 -0.109375 0.796875q0 0.9375 0.375 1.46875q0.375 0.515625 1.046875 0.515625zm5.726715 0.734375q-0.9843445 0 -1.5624695 -0.703125q-0.578125 -0.703125 -0.578125 -2.0q0 -0.625 0.1875 -1.125q0.1875 -0.515625 0.484375 -0.859375q0.3125 -0.359375 0.71875 -0.546875q0.40625 -0.203125 0.8593445 -0.203125q0.453125 0 0.78125 0.171875q0.328125 0.15625 0.671875 0.4375l-0.046875 -0.890625l0 -2.0l0.890625 0l0 7.59375l-0.734375 0l-0.078125 -0.609375l-0.03125 0q-0.296875 0.296875 -0.703125 0.515625q-0.40625 0.21875 -0.859375 0.21875zm0.1875 -0.734375q0.375 0 0.6875 -0.171875q0.328125 -0.171875 0.640625 -0.546875l0 -2.703125q-0.328125 -0.296875 -0.640625 -0.421875q-0.296875 -0.125 -0.609375 -0.125q-0.3125 0 -0.5937195 0.15625q-0.265625 0.140625 -0.46875 0.40625q-0.203125 0.25 -0.328125 0.625q-0.109375 0.359375 -0.109375 0.796875q0 0.9375 0.375 1.46875q0.375 0.515625 1.0468445 0.515625zm6.0549316 0.734375q-0.515625 0 -0.96875 -0.1875q-0.453125 -0.1875 -0.796875 -0.53125q-0.328125 -0.34375 -0.53125 -0.84375q-0.1875 -0.5 -0.1875 -1.140625q0 -0.640625 0.203125 -1.140625q0.203125 -0.515625 0.515625 -0.859375q0.328125 -0.359375 0.734375 -0.546875q0.421875 -0.1875 0.875 -0.1875q0.484375 0 0.875 0.171875q0.390625 0.171875 0.65625 0.5q0.265625 0.3125 0.390625 0.765625q0.140625 0.4375 0.140625 1.0q0 0.140625 0 0.28125q0 0.125 -0.03125 0.21875l-3.484375 0q0.046875 0.828125 0.5 1.3125q0.46875 0.484375 1.21875 0.484375q0.375 0 0.6875 -0.109375q0.3125 -0.109375 0.609375 -0.296875l0.296875 0.578125q-0.328125 0.21875 -0.75 0.375q-0.421875 0.15625 -0.953125 0.15625zm-1.625 -3.125l2.765625 0q0 -0.796875 -0.34375 -1.203125q-0.328125 -0.40625 -0.9375 -0.40625q-0.265625 0 -0.515625 0.109375q-0.25 0.09375 -0.453125 0.3125q-0.203125 0.203125 -0.34375 0.5q-0.125 0.296875 -0.171875 0.6875zm4.8167725 3.0l0 -5.171875l0.71875 0l0.078125 0.734375l0.03125 0q0.375 -0.375 0.78125 -0.625q0.421875 -0.25 0.953125 -0.25q0.828125 0 1.203125 0.515625q0.375 0.515625 0.375 1.515625l0 3.28125l-0.875 0l0 -3.171875q0 -0.734375 -0.234375 -1.046875q-0.234375 -0.328125 -0.734375 -0.328125q-0.40625 0 -0.71875 0.203125q-0.3125 0.203125 -0.703125 0.59375l0 3.75l-0.875 0zm8.038452 0l0 -6.984375l0.890625 0l0 6.234375l3.0625 0l0 0.75l-3.953125 0zm6.28833 0.125q-0.640625 0 -1.078125 -0.375q-0.4375 -0.390625 -0.4375 -1.09375q0 -0.84375 0.75 -1.296875q0.765625 -0.453125 2.4375 -0.640625q0 -0.25 -0.046875 -0.484375q-0.046875 -0.234375 -0.171875 -0.40625q-0.109375 -0.1875 -0.328125 -0.296875q-0.203125 -0.109375 -0.515625 -0.109375q-0.453125 0 -0.859375 0.171875q-0.390625 0.171875 -0.6875 0.375l-0.34375 -0.609375q0.359375 -0.234375 0.875 -0.453125q0.53125 -0.21875 1.15625 -0.21875q0.953125 0 1.375 0.59375q0.421875 0.578125 0.421875 1.546875l0 3.171875l-0.71875 0l-0.078125 -0.625l-0.03125 0q-0.375 0.3125 -0.796875 0.53125q-0.421875 0.21875 -0.921875 0.21875zm0.265625 -0.703125q0.375 0 0.703125 -0.171875q0.328125 -0.171875 0.703125 -0.515625l0 -1.4375q-0.65625 0.078125 -1.109375 0.203125q-0.4375 0.109375 -0.703125 0.28125q-0.265625 0.15625 -0.390625 0.359375q-0.125 0.203125 -0.125 0.453125q0 0.453125 0.265625 0.640625q0.265625 0.1875 0.65625 0.1875zm3.9957886 2.8125q-0.171875 0 -0.328125 -0.03125q-0.140625 -0.03125 -0.265625 -0.078125l0.15625 -0.703125q0.09375 0.03125 0.203125 0.046875q0.109375 0.03125 0.203125 0.03125q0.4375 0 0.71875 -0.3125q0.28125 -0.3125 0.453125 -0.796875l0.109375 -0.375l-2.078125 -5.1875l0.90625 0l1.0625 2.859375q0.109375 0.34375 0.234375 0.71875q0.140625 0.375 0.265625 0.734375l0.03125 0q0.125 -0.34375 0.234375 -0.71875q0.109375 -0.390625 0.203125 -0.734375l0.9375 -2.859375l0.84375 0l-1.9375 5.59375q-0.140625 0.390625 -0.3125 0.71875q-0.171875 0.328125 -0.40625 0.5625q-0.234375 0.25 -0.53125 0.390625q-0.296875 0.140625 -0.703125 0.140625zm6.9921875 -2.109375q-0.515625 0 -0.96875 -0.1875q-0.453125 -0.1875 -0.796875 -0.53125q-0.328125 -0.34375 -0.53125 -0.84375q-0.1875 -0.5 -0.1875 -1.140625q0 -0.640625 0.203125 -1.140625q0.203125 -0.515625 0.515625 -0.859375q0.328125 -0.359375 0.734375 -0.546875q0.421875 -0.1875 0.875 -0.1875q0.484375 0 0.875 0.171875q0.390625 0.171875 0.65625 0.5q0.265625 0.3125 0.390625 0.765625q0.140625 0.4375 0.140625 1.0q0 0.140625 0 0.28125q0 0.125 -0.03125 0.21875l-3.484375 0q0.046875 0.828125 0.5 1.3125q0.46875 0.484375 1.21875 0.484375q0.375 0 0.6875 -0.109375q0.3125 -0.109375 0.609375 -0.296875l0.296875 0.578125q-0.328125 0.21875 -0.75 0.375q-0.421875 0.15625 -0.953125 0.15625zm-1.625 -3.125l2.765625 0q0 -0.796875 -0.34375 -1.203125q-0.328125 -0.40625 -0.9375 -0.40625q-0.265625 0 -0.515625 0.109375q-0.25 0.09375 -0.453125 0.3125q-0.203125 0.203125 -0.34375 0.5q-0.125 0.296875 -0.171875 0.6875zm4.8167725 3.0l0 -5.171875l0.71875 0l0.078125 0.9375l0.03125 0q0.265625 -0.5 0.640625 -0.78125q0.390625 -0.296875 0.828125 -0.296875q0.3125 0 0.5625 0.109375l-0.171875 0.765625q-0.125 -0.03125 -0.234375 -0.046875q-0.109375 -0.03125 -0.265625 -0.03125q-0.328125 0 -0.6875 0.265625q-0.359375 0.265625 -0.625 0.921875l0 3.328125l-0.875 0zm5.3759155 0l0 -0.515625q0.765625 -0.78125 1.359375 -1.390625q0.609375 -0.625 1.015625 -1.140625q0.40625 -0.53125 0.609375 -0.96875q0.21875 -0.453125 0.21875 -0.859375q0 -0.59375 -0.328125 -0.96875q-0.3125 -0.375 -0.96875 -0.375q-0.421875 0 -0.78125 0.25q-0.359375 0.234375 -0.65625 0.578125l-0.5 -0.5q0.421875 -0.46875 0.890625 -0.75q0.484375 -0.28125 1.15625 -0.28125q0.953125 0 1.484375 0.546875q0.546875 0.546875 0.546875 1.453125q0 0.484375 -0.203125 0.96875q-0.203125 0.484375 -0.578125 1.0q-0.359375 0.515625 -0.875 1.078125q-0.5 0.546875 -1.109375 1.1875q0.28125 -0.03125 0.578125 -0.046875q0.296875 -0.015625 0.5625 -0.015625l1.96875 0l0 0.75l-4.390625 0z" fill-rule="nonzero"/><path fill="#e9edee" d="m38.385826 243.27443l0 0c0 -4.2096252 3.4125748 -7.6221924 7.6222 -7.6221924l55.747726 0c2.0215302 0 3.960266 0.80303955 5.3897095 2.232483c1.4294434 1.4294434 2.2324905 3.3681793 2.2324905 5.3897095l0 30.4879c0 4.2096252 -3.4125748 7.6221924 -7.6222 7.6221924l-55.747726 0c-4.2096252 0 -7.6222 -3.4125671 -7.6222 -7.6221924z" fill-rule="evenodd"/><path stroke="#000000" stroke-width="1.0" stroke-linejoin="round" stroke-linecap="butt" d="m38.385826 243.27443l0 0c0 -4.2096252 3.4125748 -7.6221924 7.6222 -7.6221924l55.747726 0c2.0215302 0 3.960266 0.80303955 5.3897095 2.232483c1.4294434 1.4294434 2.2324905 3.3681793 2.2324905 5.3897095l0 30.4879c0 4.2096252 -3.4125748 7.6221924 -7.6222 7.6221924l-55.747726 0c-4.2096252 0 -7.6222 -3.4125671 -7.6222 -7.6221924z" fill-rule="evenodd"/><path fill="#000000" d="m64.908615 262.25836l0 -6.9843597l2.1875 0q0.53125 0 0.984375 0.109375q0.453125 0.09375 0.78125 0.328125q0.328125 0.234375 0.5 0.60935974q0.1875 0.359375 0.1875 0.90625q0 0.828125 -0.4375 1.3125q-0.421875 0.484375 -1.140625 0.671875l1.78125 3.046875l-1.0 0l-1.6875 -2.953125l-1.265625 0l0 2.953125l-0.890625 0zm0.890625 -3.671875l1.171875 0q0.828125 0 1.25 -0.328125q0.4375 -0.34375 0.4375 -1.03125q0 -0.6875 -0.4375 -0.96875q-0.421875 -0.28123474 -1.25 -0.28123474l-1.171875 0l0 2.6093597zm5.1728363 3.671875l0 -6.9843597l0.921875 0l2.53125 4.3906097l0.75 1.4375l0.046875 0q-0.03125 -0.53125 -0.078125 -1.09375q-0.03125 -0.578125 -0.03125 -1.125l0 -3.6093597l0.84375 0l0 6.9843597l-0.921875 0l-2.53125 -4.40625l-0.765625 -1.4375l-0.03125 0q0.03125 0.53125 0.0625 1.09375q0.046875 0.546875 0.046875 1.09375l0 3.65625l-0.84375 0zm6.8946686 0l0 -6.9843597l0.921875 0l2.53125 4.3906097l0.75 1.4375l0.046875 0q-0.03125 -0.53125 -0.078125 -1.09375q-0.03125 -0.578125 -0.03125 -1.125l0 -3.6093597l0.84375 0l0 6.9843597l-0.921875 0l-2.53125 -4.40625l-0.765625 -1.4375l-0.03125 0q0.03125 0.53125 0.0625 1.09375q0.046875 0.546875 0.046875 1.09375l0 3.65625l-0.84375 0z" fill-rule="nonzero"/><path fill="#e9edee" d="m417.57217 243.27443l0 0c0 -4.2096252 3.4125671 -7.6221924 7.6221924 -7.6221924l55.74774 0c2.021515 0 3.960266 0.80303955 5.3897095 2.232483c1.4294434 1.4294434 2.232483 3.3681793 2.232483 5.3897095l0 30.4879c0 4.2096252 -3.4125671 7.6221924 -7.6221924 7.6221924l-55.74774 0c-4.2096252 0 -7.6221924 -3.4125671 -7.6221924 -7.6221924z" fill-rule="evenodd"/><path stroke="#000000" stroke-width="1.0" stroke-linejoin="round" stroke-linecap="butt" d="m417.57217 243.27443l0 0c0 -4.2096252 3.4125671 -7.6221924 7.6221924 -7.6221924l55.74774 0c2.021515 0 3.960266 0.80303955 5.3897095 2.232483c1.4294434 1.4294434 2.232483 3.3681793 2.232483 5.3897095l0 30.4879c0 4.2096252 -3.4125671 7.6221924 -7.6221924 7.6221924l-55.74774 0c-4.2096252 0 -7.6221924 -3.4125671 -7.6221924 -7.6221924z" fill-rule="evenodd"/><path fill="#000000" d="m444.09497 262.25836l0 -6.9843597l2.1875 0q0.53125 0 0.984375 0.109375q0.453125 0.09375 0.78125 0.328125q0.328125 0.234375 0.5 0.60935974q0.1875 0.359375 0.1875 0.90625q0 0.828125 -0.4375 1.3125q-0.421875 0.484375 -1.140625 0.671875l1.78125 3.046875l-1.0 0l-1.6875 -2.953125l-1.265625 0l0 2.953125l-0.890625 0zm0.890625 -3.671875l1.171875 0q0.828125 0 1.25 -0.328125q0.4375 -0.34375 0.4375 -1.03125q0 -0.6875 -0.4375 -0.96875q-0.421875 -0.28123474 -1.25 -0.28123474l-1.171875 0l0 2.6093597zm5.172821 3.671875l0 -6.9843597l0.921875 0l2.53125 4.3906097l0.75 1.4375l0.046875 0q-0.03125 -0.53125 -0.078125 -1.09375q-0.03125 -0.578125 -0.03125 -1.125l0 -3.6093597l0.84375 0l0 6.9843597l-0.921875 0l-2.53125 -4.40625l-0.765625 -1.4375l-0.03125 0q0.03125 0.53125 0.0625 1.09375q0.046875 0.546875 0.046875 1.09375l0 3.65625l-0.84375 0zm6.894684 0l0 -6.9843597l0.921875 0l2.53125 4.3906097l0.75 1.4375l0.046875 0q-0.03125 -0.53125 -0.078125 -1.09375q-0.03125 -0.578125 -0.03125 -1.125l0 -3.6093597l0.84375 0l0 6.9843597l-0.921875 0l-2.53125 -4.40625l-0.765625 -1.4375l-0.03125 0q0.03125 0.53125 0.0625 1.09375q0.046875 0.546875 0.046875 1.09375l0 3.65625l-0.84375 0z" fill-rule="nonzero"/><path fill="#e9edee" d="m227.979 243.27443l0 0c0 -4.2096252 3.4125671 -7.6221924 7.6221924 -7.6221924l55.74774 0c2.021515 0 3.960266 0.80303955 5.3897095 2.232483c1.4294434 1.4294434 2.232483 3.3681793 2.232483 5.3897095l0 30.4879c0 4.2096252 -3.4125671 7.6221924 -7.6221924 7.6221924l-55.74774 0c-4.2096252 0 -7.6221924 -3.4125671 -7.6221924 -7.6221924z" fill-rule="evenodd"/><path stroke="#000000" stroke-width="1.0" stroke-linejoin="round" stroke-linecap="butt" d="m227.979 243.27443l0 0c0 -4.2096252 3.4125671 -7.6221924 7.6221924 -7.6221924l55.74774 0c2.021515 0 3.960266 0.80303955 5.3897095 2.232483c1.4294434 1.4294434 2.232483 3.3681793 2.232483 5.3897095l0 30.4879c0 4.2096252 -3.4125671 7.6221924 -7.6221924 7.6221924l-55.74774 0c-4.2096252 0 -7.6221924 -3.4125671 -7.6221924 -7.6221924z" fill-rule="evenodd"/><path fill="#000000" d="m254.50179 262.25836l0 -6.9843597l2.1875153 0q0.53125 0 0.984375 0.109375q0.453125 0.09375 0.78125 0.328125q0.328125 0.234375 0.5 0.60935974q0.1875 0.359375 0.1875 0.90625q0 0.828125 -0.4375 1.3125q-0.421875 0.484375 -1.140625 0.671875l1.78125 3.046875l-1.0 0l-1.6875 -2.953125l-1.2656403 0l0 2.953125l-0.890625 0zm0.890625 -3.671875l1.1718903 0q0.828125 0 1.25 -0.328125q0.4375 -0.34375 0.4375 -1.03125q0 -0.6875 -0.4375 -0.96875q-0.421875 -0.28123474 -1.25 -0.28123474l-1.1718903 0l0 2.6093597zm5.1728363 3.671875l0 -6.9843597l0.921875 0l2.53125 4.3906097l0.75 1.4375l0.046875 0q-0.03125 -0.53125 -0.078125 -1.09375q-0.03125 -0.578125 -0.03125 -1.125l0 -3.6093597l0.84375 0l0 6.9843597l-0.921875 0l-2.53125 -4.40625l-0.765625 -1.4375l-0.03125 0q0.03125 0.53125 0.0625 1.09375q0.046875 0.546875 0.046875 1.09375l0 3.65625l-0.84375 0zm6.894684 0l0 -6.9843597l0.921875 0l2.53125 4.3906097l0.75 1.4375l0.046875 0q-0.03125 -0.53125 -0.078125 -1.09375q-0.03125 -0.578125 -0.03125 -1.125l0 -3.6093597l0.84375 0l0 6.9843597l-0.921875 0l-2.53125 -4.40625l-0.765625 -1.4375l-0.03125 0q0.03125 0.53125 0.0625 1.09375q0.046875 0.546875 0.046875 1.09375l0 3.65625l-0.84375 0z" fill-rule="nonzero"/><path fill="#000000" fill-opacity="0.0" d="m109.37795 258.51837l118.614174 0" fill-rule="evenodd"/><path stroke="#1a1a1a" stroke-width="1.0" stroke-linejoin="round" stroke-linecap="butt" d="m109.37795 258.51837l112.614174 0" fill-rule="evenodd"/><path fill="#1a1a1a" stroke="#1a1a1a" stroke-width="1.0" stroke-linecap="butt" d="m221.99213 260.1701l4.538101 -1.6517334l-4.538101 -1.6517334z" fill-rule="evenodd"/><path fill="#000000" fill-opacity="0.0" d="m298.97113 258.51837l118.61417 0" fill-rule="evenodd"/><path stroke="#1a1a1a" stroke-width="1.0" stroke-linejoin="round" stroke-linecap="butt" d="m298.97113 258.51837l112.61417 0" fill-rule="evenodd"/><path fill="#1a1a1a" stroke="#1a1a1a" stroke-width="1.0" stroke-linecap="butt" d="m411.5853 260.1701l4.5381165 -1.6517334l-4.5381165 -1.6517334z" fill-rule="evenodd"/><path fill="#d9d2e9" d="m8.0 124.992455l0 0c0 -9.132446 7.4033136 -16.535759 16.535765 -16.535759l533.54266 0c4.385559 0 8.591492 1.742157 11.692505 4.8432083c3.1010742 3.101059 4.8432617 7.306999 4.8432617 11.692551l0 66.141075c0 9.132446 -7.4033203 16.535767 -16.535767 16.535767l-533.54266 0c-9.132451 0 -16.535765 -7.4033203 -16.535765 -16.535767z" fill-rule="evenodd"/><path fill="#000000" d="m495.14325 191.06613l0 -6.984375l0.890625 0l0 2.921875l3.25 0l0 -2.921875l0.890625 0l0 6.984375l-0.890625 0l0 -3.296875l-3.25 0l0 3.296875l-0.890625 0zm6.8698425 0l0 -5.171875l0.875 0l0 5.171875l-0.875 0zm0.453125 -6.25q-0.265625 0 -0.4375 -0.15625q-0.171875 -0.15625 -0.171875 -0.40625q0 -0.25 0.171875 -0.40625q0.171875 -0.15625 0.4375 -0.15625q0.25 0 0.421875 0.15625q0.171875 0.15625 0.171875 0.40625q0 0.25 -0.171875 0.40625q-0.171875 0.15625 -0.421875 0.15625zm3.93396 6.375q-0.984375 0 -1.5625 -0.703125q-0.578125 -0.703125 -0.578125 -2.0q0 -0.625 0.1875 -1.125q0.1875 -0.515625 0.484375 -0.859375q0.3125 -0.359375 0.71875 -0.546875q0.40625 -0.203125 0.859375 -0.203125q0.453125 0 0.78125 0.171875q0.328125 0.15625 0.671875 0.4375l-0.046875 -0.890625l0 -2.0l0.890625 0l0 7.59375l-0.734375 0l-0.078125 -0.609375l-0.03125 0q-0.296875 0.296875 -0.703125 0.515625q-0.40625 0.21875 -0.859375 0.21875zm0.1875 -0.734375q0.375 0 0.6875 -0.171875q0.328125 -0.171875 0.640625 -0.546875l0 -2.703125q-0.328125 -0.296875 -0.640625 -0.421875q-0.296875 -0.125 -0.609375 -0.125q-0.3125 0 -0.59375 0.15625q-0.265625 0.140625 -0.46875 0.40625q-0.203125 0.25 -0.328125 0.625q-0.109375 0.359375 -0.109375 0.796875q0 0.9375 0.375 1.46875q0.375 0.515625 1.046875 0.515625zm5.726715 0.734375q-0.9843445 0 -1.5624695 -0.703125q-0.578125 -0.703125 -0.578125 -2.0q0 -0.625 0.1875 -1.125q0.1875 -0.515625 0.484375 -0.859375q0.3125 -0.359375 0.71875 -0.546875q0.40625 -0.203125 0.8593445 -0.203125q0.453125 0 0.78125 0.171875q0.328125 0.15625 0.671875 0.4375l-0.046875 -0.890625l0 -2.0l0.890625 0l0 7.59375l-0.734375 0l-0.078125 -0.609375l-0.03125 0q-0.296875 0.296875 -0.703125 0.515625q-0.40625 0.21875 -0.859375 0.21875zm0.1875 -0.734375q0.375 0 0.6875 -0.171875q0.328125 -0.171875 0.640625 -0.546875l0 -2.703125q-0.328125 -0.296875 -0.640625 -0.421875q-0.296875 -0.125 -0.609375 -0.125q-0.3125 0 -0.5937195 0.15625q-0.265625 0.140625 -0.46875 0.40625q-0.203125 0.25 -0.328125 0.625q-0.109375 0.359375 -0.109375 0.796875q0 0.9375 0.375 1.46875q0.375 0.515625 1.0468445 0.515625zm6.0549316 0.734375q-0.515625 0 -0.96875 -0.1875q-0.453125 -0.1875 -0.796875 -0.53125q-0.328125 -0.34375 -0.53125 -0.84375q-0.1875 -0.5 -0.1875 -1.140625q0 -0.640625 0.203125 -1.140625q0.203125 -0.515625 0.515625 -0.859375q0.328125 -0.359375 0.734375 -0.546875q0.421875 -0.1875 0.875 -0.1875q0.484375 0 0.875 0.171875q0.390625 0.171875 0.65625 0.5q0.265625 0.3125 0.390625 0.765625q0.140625 0.4375 0.140625 1.0q0 0.140625 0 0.28125q0 0.125 -0.03125 0.21875l-3.484375 0q0.046875 0.828125 0.5 1.3125q0.46875 0.484375 1.21875 0.484375q0.375 0 0.6875 -0.109375q0.3125 -0.109375 0.609375 -0.296875l0.296875 0.578125q-0.328125 0.21875 -0.75 0.375q-0.421875 0.15625 -0.953125 0.15625zm-1.625 -3.125l2.765625 0q0 -0.796875 -0.34375 -1.203125q-0.328125 -0.40625 -0.9375 -0.40625q-0.265625 0 -0.515625 0.109375q-0.25 0.09375 -0.453125 0.3125q-0.203125 0.203125 -0.34375 0.5q-0.125 0.296875 -0.171875 0.6875zm4.8167725 3.0l0 -5.171875l0.71875 0l0.078125 0.734375l0.03125 0q0.375 -0.375 0.78125 -0.625q0.421875 -0.25 0.953125 -0.25q0.828125 0 1.203125 0.515625q0.375 0.515625 0.375 1.515625l0 3.28125l-0.875 0l0 -3.171875q0 -0.734375 -0.234375 -1.046875q-0.234375 -0.328125 -0.734375 -0.328125q-0.40625 0 -0.71875 0.203125q-0.3125 0.203125 -0.703125 0.59375l0 3.75l-0.875 0zm8.038452 0l0 -6.984375l0.890625 0l0 6.234375l3.0625 0l0 0.75l-3.953125 0zm6.28833 0.125q-0.640625 0 -1.078125 -0.375q-0.4375 -0.390625 -0.4375 -1.09375q0 -0.84375 0.75 -1.296875q0.765625 -0.453125 2.4375 -0.640625q0 -0.25 -0.046875 -0.484375q-0.046875 -0.234375 -0.171875 -0.40625q-0.109375 -0.1875 -0.328125 -0.296875q-0.203125 -0.109375 -0.515625 -0.109375q-0.453125 0 -0.859375 0.171875q-0.390625 0.171875 -0.6875 0.375l-0.34375 -0.609375q0.359375 -0.234375 0.875 -0.453125q0.53125 -0.21875 1.15625 -0.21875q0.953125 0 1.375 0.59375q0.421875 0.578125 0.421875 1.546875l0 3.171875l-0.71875 0l-0.078125 -0.625l-0.03125 0q-0.375 0.3125 -0.796875 0.53125q-0.421875 0.21875 -0.921875 0.21875zm0.265625 -0.703125q0.375 0 0.703125 -0.171875q0.328125 -0.171875 0.703125 -0.515625l0 -1.4375q-0.65625 0.078125 -1.109375 0.203125q-0.4375 0.109375 -0.703125 0.28125q-0.265625 0.15625 -0.390625 0.359375q-0.125 0.203125 -0.125 0.453125q0 0.453125 0.265625 0.640625q0.265625 0.1875 0.65625 0.1875zm3.9957886 2.8125q-0.171875 0 -0.328125 -0.03125q-0.140625 -0.03125 -0.265625 -0.078125l0.15625 -0.703125q0.09375 0.03125 0.203125 0.046875q0.109375 0.03125 0.203125 0.03125q0.4375 0 0.71875 -0.3125q0.28125 -0.3125 0.453125 -0.796875l0.109375 -0.375l-2.078125 -5.1875l0.90625 0l1.0625 2.859375q0.109375 0.34375 0.234375 0.71875q0.140625 0.375 0.265625 0.734375l0.03125 0q0.125 -0.34375 0.234375 -0.71875q0.109375 -0.390625 0.203125 -0.734375l0.9375 -2.859375l0.84375 0l-1.9375 5.59375q-0.140625 0.390625 -0.3125 0.71875q-0.171875 0.328125 -0.40625 0.5625q-0.234375 0.25 -0.53125 0.390625q-0.296875 0.140625 -0.703125 0.140625zm6.9921875 -2.109375q-0.515625 0 -0.96875 -0.1875q-0.453125 -0.1875 -0.796875 -0.53125q-0.328125 -0.34375 -0.53125 -0.84375q-0.1875 -0.5 -0.1875 -1.140625q0 -0.640625 0.203125 -1.140625q0.203125 -0.515625 0.515625 -0.859375q0.328125 -0.359375 0.734375 -0.546875q0.421875 -0.1875 0.875 -0.1875q0.484375 0 0.875 0.171875q0.390625 0.171875 0.65625 0.5q0.265625 0.3125 0.390625 0.765625q0.140625 0.4375 0.140625 1.0q0 0.140625 0 0.28125q0 0.125 -0.03125 0.21875l-3.484375 0q0.046875 0.828125 0.5 1.3125q0.46875 0.484375 1.21875 0.484375q0.375 0 0.6875 -0.109375q0.3125 -0.109375 0.609375 -0.296875l0.296875 0.578125q-0.328125 0.21875 -0.75 0.375q-0.421875 0.15625 -0.953125 0.15625zm-1.625 -3.125l2.765625 0q0 -0.796875 -0.34375 -1.203125q-0.328125 -0.40625 -0.9375 -0.40625q-0.265625 0 -0.515625 0.109375q-0.25 0.09375 -0.453125 0.3125q-0.203125 0.203125 -0.34375 0.5q-0.125 0.296875 -0.171875 0.6875zm4.8167725 3.0l0 -5.171875l0.71875 0l0.078125 0.9375l0.03125 0q0.265625 -0.5 0.640625 -0.78125q0.390625 -0.296875 0.828125 -0.296875q0.3125 0 0.5625 0.109375l-0.171875 0.765625q-0.125 -0.03125 -0.234375 -0.046875q-0.109375 -0.03125 -0.265625 -0.03125q-0.328125 0 -0.6875 0.265625q-0.359375 0.265625 -0.625 0.921875l0 3.328125l-0.875 0zm7.4696655 0.125q-0.40625 0 -0.75 -0.078125q-0.328125 -0.078125 -0.609375 -0.203125q-0.265625 -0.140625 -0.484375 -0.3125q-0.21875 -0.171875 -0.390625 -0.359375l0.4375 -0.578125q0.3125 0.3125 0.71875 0.5625q0.421875 0.25 1.03125 0.25q0.609375 0 1.0 -0.328125q0.40625 -0.34375 0.40625 -0.921875q0 -0.296875 -0.125 -0.546875q-0.109375 -0.25 -0.359375 -0.421875q-0.25 -0.1875 -0.671875 -0.28125q-0.421875 -0.109375 -1.03125 -0.109375l0 -0.671875q0.546875 0 0.90625 -0.09375q0.375 -0.09375 0.609375 -0.265625q0.234375 -0.171875 0.328125 -0.40625q0.09375 -0.234375 0.09375 -0.5q0 -0.5 -0.3125 -0.78125q-0.3125 -0.296875 -0.859375 -0.296875q-0.421875 0 -0.78125 0.203125q-0.359375 0.1875 -0.671875 0.5l-0.46875 -0.5625q0.390625 -0.375 0.859375 -0.609375q0.484375 -0.234375 1.09375 -0.234375q0.453125 0 0.8125 0.125q0.375 0.109375 0.640625 0.328125q0.28125 0.21875 0.421875 0.546875q0.15625 0.3125 0.15625 0.71875q0 0.625 -0.34375 1.015625q-0.328125 0.390625 -0.890625 0.609375l0 0.046875q0.3125 0.0625 0.578125 0.21875q0.265625 0.140625 0.46875 0.359375q0.203125 0.21875 0.3125 0.515625q0.109375 0.28125 0.109375 0.625q0 0.453125 -0.171875 0.8125q-0.171875 0.359375 -0.484375 0.609375q-0.296875 0.25 -0.703125 0.390625q-0.40625 0.125 -0.875 0.125z" fill-rule="nonzero"/><path fill="#e9edee" d="m38.385826 142.81905l0 0c0 -4.2096252 3.4125748 -7.6221924 7.6222 -7.6221924l55.747726 0c2.0215302 0 3.960266 0.8030548 5.3897095 2.232483c1.4294434 1.4294434 2.2324905 3.3681793 2.2324905 5.3897095l0 30.487885c0 4.2096252 -3.4125748 7.6222076 -7.6222 7.6222076l-55.747726 0c-4.2096252 0 -7.6222 -3.4125824 -7.6222 -7.6222076z" fill-rule="evenodd"/><path stroke="#000000" stroke-width="1.0" stroke-linejoin="round" stroke-linecap="butt" d="m38.385826 142.81905l0 0c0 -4.2096252 3.4125748 -7.6221924 7.6222 -7.6221924l55.747726 0c2.0215302 0 3.960266 0.8030548 5.3897095 2.232483c1.4294434 1.4294434 2.2324905 3.3681793 2.2324905 5.3897095l0 30.487885c0 4.2096252 -3.4125748 7.6222076 -7.6222 7.6222076l-55.747726 0c-4.2096252 0 -7.6222 -3.4125824 -7.6222 -7.6222076z" fill-rule="evenodd"/><path fill="#000000" d="m64.908615 161.803l0 -6.984375l2.1875 0q0.53125 0 0.984375 0.109375q0.453125 0.09375 0.78125 0.328125q0.328125 0.234375 0.5 0.609375q0.1875 0.359375 0.1875 0.90625q0 0.828125 -0.4375 1.3125q-0.421875 0.484375 -1.140625 0.671875l1.78125 3.046875l-1.0 0l-1.6875 -2.953125l-1.265625 0l0 2.953125l-0.890625 0zm0.890625 -3.671875l1.171875 0q0.828125 0 1.25 -0.328125q0.4375 -0.34375 0.4375 -1.03125q0 -0.6875 -0.4375 -0.96875q-0.421875 -0.28125 -1.25 -0.28125l-1.171875 0l0 2.609375zm5.1728363 3.671875l0 -6.984375l0.921875 0l2.53125 4.390625l0.75 1.4375l0.046875 0q-0.03125 -0.53125 -0.078125 -1.09375q-0.03125 -0.578125 -0.03125 -1.125l0 -3.609375l0.84375 0l0 6.984375l-0.921875 0l-2.53125 -4.40625l-0.765625 -1.4375l-0.03125 0q0.03125 0.53125 0.0625 1.09375q0.046875 0.546875 0.046875 1.09375l0 3.65625l-0.84375 0zm6.8946686 0l0 -6.984375l0.921875 0l2.53125 4.390625l0.75 1.4375l0.046875 0q-0.03125 -0.53125 -0.078125 -1.09375q-0.03125 -0.578125 -0.03125 -1.125l0 -3.609375l0.84375 0l0 6.984375l-0.921875 0l-2.53125 -4.40625l-0.765625 -1.4375l-0.03125 0q0.03125 0.53125 0.0625 1.09375q0.046875 0.546875 0.046875 1.09375l0 3.65625l-0.84375 0z" fill-rule="nonzero"/><path fill="#e9edee" d="m417.57217 142.81905l0 0c0 -4.2096252 3.4125671 -7.6221924 7.6221924 -7.6221924l55.74774 0c2.021515 0 3.960266 0.8030548 5.3897095 2.232483c1.4294434 1.4294434 2.232483 3.3681793 2.232483 5.3897095l0 30.487885c0 4.2096252 -3.4125671 7.6222076 -7.6221924 7.6222076l-55.74774 0c-4.2096252 0 -7.6221924 -3.4125824 -7.6221924 -7.6222076z" fill-rule="evenodd"/><path stroke="#000000" stroke-width="1.0" stroke-linejoin="round" stroke-linecap="butt" d="m417.57217 142.81905l0 0c0 -4.2096252 3.4125671 -7.6221924 7.6221924 -7.6221924l55.74774 0c2.021515 0 3.960266 0.8030548 5.3897095 2.232483c1.4294434 1.4294434 2.232483 3.3681793 2.232483 5.3897095l0 30.487885c0 4.2096252 -3.4125671 7.6222076 -7.6221924 7.6222076l-55.74774 0c-4.2096252 0 -7.6221924 -3.4125824 -7.6221924 -7.6222076z" fill-rule="evenodd"/><path fill="#000000" d="m444.09497 161.803l0 -6.984375l2.1875 0q0.53125 0 0.984375 0.109375q0.453125 0.09375 0.78125 0.328125q0.328125 0.234375 0.5 0.609375q0.1875 0.359375 0.1875 0.90625q0 0.828125 -0.4375 1.3125q-0.421875 0.484375 -1.140625 0.671875l1.78125 3.046875l-1.0 0l-1.6875 -2.953125l-1.265625 0l0 2.953125l-0.890625 0zm0.890625 -3.671875l1.171875 0q0.828125 0 1.25 -0.328125q0.4375 -0.34375 0.4375 -1.03125q0 -0.6875 -0.4375 -0.96875q-0.421875 -0.28125 -1.25 -0.28125l-1.171875 0l0 2.609375zm5.172821 3.671875l0 -6.984375l0.921875 0l2.53125 4.390625l0.75 1.4375l0.046875 0q-0.03125 -0.53125 -0.078125 -1.09375q-0.03125 -0.578125 -0.03125 -1.125l0 -3.609375l0.84375 0l0 6.984375l-0.921875 0l-2.53125 -4.40625l-0.765625 -1.4375l-0.03125 0q0.03125 0.53125 0.0625 1.09375q0.046875 0.546875 0.046875 1.09375l0 3.65625l-0.84375 0zm6.894684 0l0 -6.984375l0.921875 0l2.53125 4.390625l0.75 1.4375l0.046875 0q-0.03125 -0.53125 -0.078125 -1.09375q-0.03125 -0.578125 -0.03125 -1.125l0 -3.609375l0.84375 0l0 6.984375l-0.921875 0l-2.53125 -4.40625l-0.765625 -1.4375l-0.03125 0q0.03125 0.53125 0.0625 1.09375q0.046875 0.546875 0.046875 1.09375l0 3.65625l-0.84375 0z" fill-rule="nonzero"/><path fill="#e9edee" d="m227.979 142.81905l0 0c0 -4.2096252 3.4125671 -7.6221924 7.6221924 -7.6221924l55.74774 0c2.021515 0 3.960266 0.8030548 5.3897095 2.232483c1.4294434 1.4294434 2.232483 3.3681793 2.232483 5.3897095l0 30.487885c0 4.2096252 -3.4125671 7.6222076 -7.6221924 7.6222076l-55.74774 0c-4.2096252 0 -7.6221924 -3.4125824 -7.6221924 -7.6222076z" fill-rule="evenodd"/><path stroke="#000000" stroke-width="1.0" stroke-linejoin="round" stroke-linecap="butt" d="m227.979 142.81905l0 0c0 -4.2096252 3.4125671 -7.6221924 7.6221924 -7.6221924l55.74774 0c2.021515 0 3.960266 0.8030548 5.3897095 2.232483c1.4294434 1.4294434 2.232483 3.3681793 2.232483 5.3897095l0 30.487885c0 4.2096252 -3.4125671 7.6222076 -7.6221924 7.6222076l-55.74774 0c-4.2096252 0 -7.6221924 -3.4125824 -7.6221924 -7.6222076z" fill-rule="evenodd"/><path fill="#000000" d="m254.50179 161.803l0 -6.984375l2.1875153 0q0.53125 0 0.984375 0.109375q0.453125 0.09375 0.78125 0.328125q0.328125 0.234375 0.5 0.609375q0.1875 0.359375 0.1875 0.90625q0 0.828125 -0.4375 1.3125q-0.421875 0.484375 -1.140625 0.671875l1.78125 3.046875l-1.0 0l-1.6875 -2.953125l-1.2656403 0l0 2.953125l-0.890625 0zm0.890625 -3.671875l1.1718903 0q0.828125 0 1.25 -0.328125q0.4375 -0.34375 0.4375 -1.03125q0 -0.6875 -0.4375 -0.96875q-0.421875 -0.28125 -1.25 -0.28125l-1.1718903 0l0 2.609375zm5.1728363 3.671875l0 -6.984375l0.921875 0l2.53125 4.390625l0.75 1.4375l0.046875 0q-0.03125 -0.53125 -0.078125 -1.09375q-0.03125 -0.578125 -0.03125 -1.125l0 -3.609375l0.84375 0l0 6.984375l-0.921875 0l-2.53125 -4.40625l-0.765625 -1.4375l-0.03125 0q0.03125 0.53125 0.0625 1.09375q0.046875 0.546875 0.046875 1.09375l0 3.65625l-0.84375 0zm6.894684 0l0 -6.984375l0.921875 0l2.53125 4.390625l0.75 1.4375l0.046875 0q-0.03125 -0.53125 -0.078125 -1.09375q-0.03125 -0.578125 -0.03125 -1.125l0 -3.609375l0.84375 0l0 6.984375l-0.921875 0l-2.53125 -4.40625l-0.765625 -1.4375l-0.03125 0q0.03125 0.53125 0.0625 1.09375q0.046875 0.546875 0.046875 1.09375l0 3.65625l-0.84375 0z" fill-rule="nonzero"/><path fill="#000000" fill-opacity="0.0" d="m109.37795 158.06299l118.614174 0" fill-rule="evenodd"/><path stroke="#1a1a1a" stroke-width="1.0" stroke-linejoin="round" stroke-linecap="butt" d="m109.37795 158.06299l112.614174 0" fill-rule="evenodd"/><path fill="#1a1a1a" stroke="#1a1a1a" stroke-width="1.0" stroke-linecap="butt" d="m221.99213 159.71472l4.538101 -1.6517334l-4.538101 -1.6517334z" fill-rule="evenodd"/><path fill="#000000" fill-opacity="0.0" d="m298.97113 158.06299l118.61417 0" fill-rule="evenodd"/><path stroke="#1a1a1a" stroke-width="1.0" stroke-linejoin="round" stroke-linecap="butt" d="m298.97113 158.06299l112.61417 0" fill-rule="evenodd"/><path fill="#1a1a1a" stroke="#1a1a1a" stroke-width="1.0" stroke-linecap="butt" d="m411.5853 159.71472l4.5381165 -1.6517334l-4.5381165 -1.6517334z" fill-rule="evenodd"/><path fill="#000000" fill-opacity="0.0" d="m73.88189 336.11023l0 -54.740143" fill-rule="evenodd"/><path stroke="#000000" stroke-width="1.0" stroke-linejoin="round" stroke-linecap="butt" d="m73.88189 336.11023l0 -48.740143" fill-rule="evenodd"/><path fill="#000000" stroke="#000000" stroke-width="1.0" stroke-linecap="butt" d="m75.53362 287.3701l-1.6517334 -4.5381165l-1.6517334 4.5381165z" fill-rule="evenodd"/><path fill="#000000" fill-opacity="0.0" d="m73.88189 235.65224l0 -54.708664" fill-rule="evenodd"/><path stroke="#000000" stroke-width="1.0" stroke-linejoin="round" stroke-linecap="butt" d="m73.88189 235.65224l0 -48.708664" fill-rule="evenodd"/><path fill="#000000" stroke="#000000" stroke-width="1.0" stroke-linecap="butt" d="m75.53362 186.94357l-1.6517334 -4.538101l-1.6517334 4.538101z" fill-rule="evenodd"/><path fill="#000000" fill-opacity="0.0" d="m73.88189 135.19685l0 -39.905518" fill-rule="evenodd"/><path stroke="#000000" stroke-width="1.0" stroke-linejoin="round" stroke-linecap="butt" d="m73.88189 135.19685l0 -33.905518" fill-rule="evenodd"/><path fill="#000000" stroke="#000000" stroke-width="1.0" stroke-linecap="butt" d="m75.53362 101.291336l-1.6517334 -4.5380936l-1.6517334 4.5380936z" fill-rule="evenodd"/><path fill="#000000" fill-opacity="0.0" d="m263.47507 135.19685l0 -39.905518" fill-rule="evenodd"/><path stroke="#000000" stroke-width="1.0" stroke-linejoin="round" stroke-linecap="butt" d="m263.47507 135.19685l0 -33.905518" fill-rule="evenodd"/><path fill="#000000" stroke="#000000" stroke-width="1.0" stroke-linecap="butt" d="m265.1268 101.291336l-1.6517334 -4.5380936l-1.6517334 4.5380936z" fill-rule="evenodd"/><path fill="#000000" fill-opacity="0.0" d="m453.06824 135.19685l0 -39.905518" fill-rule="evenodd"/><path stroke="#000000" stroke-width="1.0" stroke-linejoin="round" stroke-linecap="butt" d="m453.06824 135.19685l0 -33.905518" fill-rule="evenodd"/><path fill="#000000" stroke="#000000" stroke-width="1.0" stroke-linecap="butt" d="m454.71997 101.291336l-1.6517334 -4.5380936l-1.6517334 4.5380936z" fill-rule="evenodd"/><path fill="#000000" fill-opacity="0.0" d="m263.47507 235.65224l0 -54.708664" fill-rule="evenodd"/><path stroke="#000000" stroke-width="1.0" stroke-linejoin="round" stroke-linecap="butt" d="m263.47507 235.65224l0 -48.708664" fill-rule="evenodd"/><path fill="#000000" stroke="#000000" stroke-width="1.0" stroke-linecap="butt" d="m265.1268 186.94357l-1.6517334 -4.538101l-1.6517334 4.538101z" fill-rule="evenodd"/><path fill="#000000" fill-opacity="0.0" d="m453.06824 235.65224l0 -54.708664" fill-rule="evenodd"/><path stroke="#000000" stroke-width="1.0" stroke-linejoin="round" stroke-linecap="butt" d="m453.06824 235.65224l0 -48.708664" fill-rule="evenodd"/><path fill="#000000" stroke="#000000" stroke-width="1.0" stroke-linecap="butt" d="m454.71997 186.94357l-1.6517334 -4.538101l-1.6517334 4.538101z" fill-rule="evenodd"/><path fill="#000000" fill-opacity="0.0" d="m263.47507 336.11023l0 -54.740143" fill-rule="evenodd"/><path stroke="#000000" stroke-width="1.0" stroke-linejoin="round" stroke-linecap="butt" d="m263.47507 336.11023l0 -48.740143" fill-rule="evenodd"/><path fill="#000000" stroke="#000000" stroke-width="1.0" stroke-linecap="butt" d="m265.1268 287.3701l-1.6517334 -4.5381165l-1.6517334 4.5381165z" fill-rule="evenodd"/><path fill="#000000" fill-opacity="0.0" d="m453.06824 336.11023l0 -54.740143" fill-rule="evenodd"/><path stroke="#000000" stroke-width="1.0" stroke-linejoin="round" stroke-linecap="butt" d="m453.06824 336.11023l0 -48.740143" fill-rule="evenodd"/><path fill="#000000" stroke="#000000" stroke-width="1.0" stroke-linecap="butt" d="m454.71997 287.3701l-1.6517334 -4.5381165l-1.6517334 4.5381165z" fill-rule="evenodd"/></g></svg>