<svg version="1.1" viewBox="0.0 0.0 833.2755905511812 369.25984251968504" fill="none" stroke="none" stroke-linecap="square" stroke-miterlimit="10" xmlns:xlink="http://www.w3.org/1999/xlink" xmlns="http://www.w3.org/2000/svg"><clipPath id="p.0"><path d="m0 0l833.2756 0l0 369.25986l-833.2756 0l0 -369.25986z" clip-rule="nonzero"/></clipPath><g clip-path="url(#p.0)"><path fill="#000000" fill-opacity="0.0" d="m0 0l833.2756 0l0 369.25986l-833.2756 0z" fill-rule="evenodd"/><path fill="#e6b8af" d="m811.35406 89.77935l0 0c7.1986694 0 13.034363 5.8356934 13.034363 13.034378l0 110.49818c0 3.4569244 -1.37323 6.772278 -3.817688 9.21669c-2.444397 2.4444275 -5.7597656 3.817688 -9.216675 3.817688l-52.135986 0c-7.1986694 0 -13.034363 -5.8356934 -13.034363 -13.034378l0 -110.49818c0 -7.1986847 5.8356934 -13.034378 13.034363 -13.034378z" fill-rule="evenodd"/><path fill="#000000" d="m801.3308 103.55012l6.984375 0l0 4.03125l-0.734375 0l0 -3.140625l-2.203125 0l0 2.65625l-0.75 0l0 -2.65625l-2.546875 0l0 3.25l-0.75 0l0 -4.140625zm0 5.537781l5.171875 0l0 0.71875l-0.734375 0.078125l0 0.03125q0.375 0.375 0.625 0.78125q0.25 0.421875 0.25 0.953125q0 0.828125 -0.515625 1.203125q-0.515625 0.375 -1.515625 0.375l-3.28125 0l0 -0.875l3.171875 0q0.734375 0 1.046875 -0.234375q0.328125 -0.234375 0.328125 -0.734375q0 -0.40625 -0.203125 -0.71875q-0.203125 -0.3125 -0.59375 -0.703125l-3.75 0l0 -0.875zm-0.125 7.8759003q0 -0.515625 0.171875 -0.96875q0.1875 -0.4375 0.53125 -0.765625q0.34375 -0.328125 0.84375 -0.515625q0.515625 -0.1875 1.15625 -0.1875q0.65625 0 1.15625 0.203125q0.5 0.203125 0.84375 0.546875q0.359375 0.34375 0.546875 0.796875q0.1875 0.453125 0.1875 0.953125q0 0.515625 -0.1875 0.875q-0.1875 0.359375 -0.421875 0.640625l-0.578125 -0.453125q0.203125 -0.21875 0.328125 -0.46875q0.125 -0.25 0.125 -0.5625q0 -0.34375 -0.140625 -0.65625q-0.140625 -0.296875 -0.40625 -0.515625q-0.265625 -0.203125 -0.640625 -0.328125q-0.359375 -0.125 -0.8125 -0.125q-0.453125 0 -0.8125 0.109375q-0.359375 0.125 -0.625 0.328125q-0.25 0.21875 -0.40625 0.515625q-0.140625 0.296875 -0.140625 0.65625q0 0.359375 0.15625 0.65625q0.15625 0.3125 0.375 0.546875l-0.59375 0.390625q-0.3125 -0.359375 -0.484375 -0.78125q-0.171875 -0.421875 -0.171875 -0.890625zm0 4.8280487q0 -0.484375 0.171875 -0.921875q0.1875 -0.421875 0.53125 -0.75q0.34375 -0.328125 0.84375 -0.53125q0.515625 -0.203125 1.15625 -0.203125q0.65625 0 1.15625 0.203125q0.5 0.203125 0.84375 0.53125q0.359375 0.328125 0.546875 0.75q0.1875 0.4375 0.1875 0.921875q0 0.484375 -0.1875 0.90625q-0.1875 0.4375 -0.546875 0.765625q-0.34375 0.328125 -0.84375 0.515625q-0.5 0.203125 -1.15625 0.203125q-0.640625 0 -1.15625 -0.203125q-0.5 -0.1875 -0.84375 -0.515625q-0.34375 -0.328125 -0.53125 -0.765625q-0.171875 -0.421875 -0.171875 -0.90625zm0.71875 0q0 0.328125 0.140625 0.59375q0.15625 0.28125 0.40625 0.484375q0.265625 0.203125 0.625 0.296875q0.359375 0.109375 0.8125 0.109375q0.453125 0 0.8125 -0.109375q0.375 -0.09375 0.640625 -0.296875q0.265625 -0.203125 0.40625 -0.484375q0.140625 -0.265625 0.140625 -0.59375q0 -0.328125 -0.140625 -0.609375q-0.140625 -0.28125 -0.40625 -0.484375q-0.265625 -0.1875 -0.640625 -0.296875q-0.359375 -0.109375 -0.8125 -0.109375q-0.453125 0 -0.8125 0.109375q-0.359375 0.109375 -0.625 0.296875q-0.25 0.203125 -0.40625 0.484375q-0.140625 0.28125 -0.140625 0.609375zm-0.71875 5.5257416q0 -0.984375 0.703125 -1.5625q0.703125 -0.578125 2.0 -0.578125q0.625 0 1.125 0.1875q0.515625 0.1875 0.859375 0.484375q0.359375 0.3125 0.546875 0.71875q0.203125 0.40625 0.203125 0.859375q0 0.453125 -0.171875 0.7812424q-0.15625 0.328125 -0.4375 0.671875l0.890625 -0.046875l2.0 0l0 0.890625l-7.59375 0l0 -0.734375l0.609375 -0.078125l0 -0.03125q-0.296875 -0.296875 -0.515625 -0.703125q-0.21875 -0.40624237 -0.21875 -0.8593674zm0.734375 0.1875q0 0.375 0.171875 0.6874924q0.171875 0.328125 0.546875 0.640625l2.703125 0q0.296875 -0.328125 0.421875 -0.640625q0.125 -0.29686737 0.125 -0.6093674q0 -0.3125 -0.15625 -0.59375q-0.140625 -0.265625 -0.40625 -0.46875q-0.25 -0.203125 -0.625 -0.328125q-0.359375 -0.109375 -0.796875 -0.109375q-0.9375 0 -1.46875 0.375q-0.515625 0.375 -0.515625 1.046875zm-0.734375 6.0548935q0 -0.515625 0.1875 -0.96875q0.1875 -0.453125 0.53125 -0.796875q0.34375 -0.328125 0.84375 -0.53125q0.5 -0.1875 1.140625 -0.1875q0.640625 0 1.140625 0.203125q0.515625 0.203125 0.859375 0.515625q0.359375 0.328125 0.546875 0.734375q0.1875 0.421875 0.1875 0.875q0 0.484375 -0.171875 0.875q-0.171875 0.390625 -0.5 0.65625q-0.3125 0.265625 -0.765625 0.390625q-0.4375 0.140625 -1.0 0.140625q-0.140625 0 -0.28125 0q-0.125 0 -0.21875 -0.03125l0 -3.484375q-0.828125 0.046875 -1.3125 0.5q-0.484375 0.46875 -0.484375 1.21875q0 0.375 0.109375 0.6875q0.109375 0.3125 0.296875 0.609375l-0.578125 0.296875q-0.21875 -0.328125 -0.375 -0.75q-0.15625 -0.421875 -0.15625 -0.953125zm3.125 -1.625l0 2.765625q0.796875 0 1.203125 -0.34375q0.40625 -0.328125 0.40625 -0.9375q0 -0.265625 -0.109375 -0.515625q-0.09375 -0.25 -0.3125 -0.453125q-0.203125 -0.203125 -0.5 -0.34375q-0.296875 -0.125 -0.6875 -0.171875zm-3.0 4.816803l5.171875 0l0 0.71875l-0.9375 0.078125l0 0.03125q0.5 0.265625 0.78125 0.640625q0.296875 0.390625 0.296875 0.828125q0 0.3125 -0.109375 0.5625l-0.765625 -0.171875q0.03125 -0.125 0.046875 -0.234375q0.03125 -0.109375 0.03125 -0.265625q0 -0.328125 -0.265625 -0.6875q-0.265625 -0.359375 -0.921875 -0.625l-3.328125 0l0 -0.875zm0 5.8290253l5.171875 0l0 0.71875l-0.9375 0.078125l0 0.03125q0.5 0.265625 0.78125 0.640625q0.296875 0.390625 0.296875 0.828125q0 0.3125 -0.109375 0.5625l-0.765625 -0.171875q0.03125 -0.125 0.046875 -0.234375q0.03125 -0.109375 0.03125 -0.265625q0 -0.328125 -0.265625 -0.6875q-0.265625 -0.359375 -0.921875 -0.625l-3.328125 0l0 -0.875zm-0.125 5.791504q0 -0.515625 0.1875 -0.96875q0.1875 -0.453125 0.53125 -0.796875q0.34375 -0.328125 0.84375 -0.53125q0.5 -0.1875 1.140625 -0.1875q0.640625 0 1.140625 0.203125q0.515625 0.203125 0.859375 0.515625q0.359375 0.328125 0.546875 0.734375q0.1875 0.421875 0.1875 0.875q0 0.484375 -0.171875 0.875q-0.171875 0.390625 -0.5 0.65625q-0.3125 0.265625 -0.765625 0.390625q-0.4375 0.140625 -1.0 0.140625q-0.140625 0 -0.28125 0q-0.125 0 -0.21875 -0.03125l0 -3.484375q-0.828125 0.046875 -1.3125 0.5q-0.484375 0.46875 -0.484375 1.21875q0 0.375 0.109375 0.6875q0.109375 0.3125 0.296875 0.609375l-0.578125 0.296875q-0.21875 -0.328125 -0.375 -0.75q-0.15625 -0.421875 -0.15625 -0.953125zm3.125 -1.625l0 2.765625q0.796875 0 1.203125 -0.34375q0.40625 -0.328125 0.40625 -0.9375q0 -0.265625 -0.109375 -0.515625q-0.09375 -0.25 -0.3125 -0.453125q-0.203125 -0.203125 -0.5 -0.34375q-0.296875 -0.125 -0.6875 -0.171875zm-5.1875 4.816803l7.359375 0l0 0.71875l-0.59375 0.078125l0 0.03125q0.296875 0.359375 0.515625 0.78125q0.21875 0.421875 0.21875 0.875q0 0.5 -0.1875 0.875q-0.1875 0.390625 -0.546875 0.640625q-0.34375 0.265625 -0.828125 0.390625q-0.484375 0.140625 -1.078125 0.140625q-0.671875 0 -1.1875 -0.1875q-0.515625 -0.171875 -0.875 -0.484375q-0.359375 -0.3125 -0.546875 -0.71875q-0.1875 -0.40625 -0.1875 -0.84375q0 -0.375 0.15625 -0.734375q0.15625 -0.34375 0.4375 -0.71875l-0.90625 0.03125l-1.75 0l0 -0.875zm2.796875 2.140625q0 0.3125 0.140625 0.578125q0.140625 0.28125 0.40625 0.46875q0.265625 0.203125 0.640625 0.3125q0.390625 0.125 0.875 0.125q0.421875 0 0.765625 -0.078125q0.359375 -0.078125 0.609375 -0.25q0.25 -0.15625 0.390625 -0.421875q0.140625 -0.25 0.140625 -0.609375q0 -0.34375 -0.1875 -0.6875q-0.1875 -0.328125 -0.515625 -0.703125l-2.71875 0q-0.296875 0.34375 -0.421875 0.671875q-0.125 0.34375 -0.125 0.59375zm-0.609375 3.7736511l5.171875 0l0 0.71875l-0.9375 0.078125l0 0.03125q0.5 0.265625 0.78125 0.640625q0.296875 0.390625 0.296875 0.828125q0 0.3125 -0.109375 0.5625l-0.765625 -0.171875q0.03125 -0.125 0.046875 -0.234375q0.03125 -0.109375 0.03125 -0.265625q0 -0.328125 -0.265625 -0.6875q-0.265625 -0.359375 -0.921875 -0.625l-3.328125 0l0 -0.875zm-0.125 5.791504q0 -0.515625 0.1875 -0.96875q0.1875 -0.453125 0.53125 -0.796875q0.34375 -0.328125 0.84375 -0.53125q0.5 -0.1875 1.140625 -0.1875q0.640625 0 1.140625 0.203125q0.515625 0.203125 0.859375 0.515625q0.359375 0.328125 0.546875 0.734375q0.1875 0.421875 0.1875 0.875q0 0.484375 -0.171875 0.875q-0.171875 0.390625 -0.5 0.65625q-0.3125 0.265625 -0.765625 0.390625q-0.4375 0.140625 -1.0 0.140625q-0.140625 0 -0.28125 0q-0.125 0 -0.21875 -0.03125l0 -3.484375q-0.828125 0.046875 -1.3125 0.5q-0.484375 0.46875 -0.484375 1.21875q0 0.375 0.109375 0.6875q0.109375 0.3125 0.296875 0.609375l-0.578125 0.296875q-0.21875 -0.328125 -0.375 -0.75q-0.15625 -0.421875 -0.15625 -0.953125zm3.125 -1.625l0 2.765625q0.796875 0 1.203125 -0.34375q0.40625 -0.328125 0.40625 -0.9375q0 -0.265625 -0.109375 -0.515625q-0.09375 -0.25 -0.3125 -0.453125q-0.203125 -0.203125 -0.5 -0.34375q-0.296875 -0.125 -0.6875 -0.171875zm-3.125 6.176178q0 -0.5625 0.203125 -1.0625q0.203125 -0.5 0.515625 -0.875l0.578125 0.4375q-0.28125 0.34375 -0.453125 0.703125q-0.171875 0.359375 -0.171875 0.828125q0 0.5 0.234375 0.75q0.234375 0.265625 0.578125 0.265625q0.203125 0 0.34375 -0.109375q0.15625 -0.109375 0.265625 -0.28125q0.125 -0.15625 0.203125 -0.375q0.09375 -0.203125 0.171875 -0.421875q0.09375 -0.265625 0.21875 -0.546875q0.125 -0.28125 0.296875 -0.5q0.171875 -0.21875 0.40625 -0.359375q0.234375 -0.140625 0.578125 -0.140625q0.296875 0 0.5625 0.125q0.28125 0.125 0.46875 0.34375q0.203125 0.234375 0.3125 0.5625q0.125 0.34375 0.125 0.75q0 0.5 -0.171875 0.90625q-0.171875 0.40625 -0.421875 0.703125l-0.546875 -0.40625q0.203125 -0.265625 0.328125 -0.5625q0.125 -0.28125 0.125 -0.625q0 -0.484375 -0.234375 -0.71875q-0.21875 -0.234375 -0.515625 -0.234375q-0.171875 0 -0.3125 0.09375q-0.125 0.109375 -0.234375 0.265625q-0.09375 0.15625 -0.1875 0.359375q-0.078125 0.21875 -0.15625 0.4375q-0.109375 0.28125 -0.234375 0.5625q-0.109375 0.28125 -0.28125 0.5q-0.171875 0.234375 -0.4375 0.375q-0.25 0.140625 -0.609375 0.140625q-0.328125 0 -0.609375 -0.125q-0.265625 -0.125 -0.484375 -0.359375q-0.203125 -0.234375 -0.328125 -0.59375q-0.125 -0.359375 -0.125 -0.8125zm0 5.1993866q0 -0.515625 0.1875 -0.96875q0.1875 -0.453125 0.53125 -0.796875q0.34375 -0.328125 0.84375 -0.53125q0.5 -0.1875 1.140625 -0.1875q0.640625 0 1.140625 0.203125q0.515625 0.203125 0.859375 0.515625q0.359375 0.328125 0.546875 0.734375q0.1875 0.421875 0.1875 0.875q0 0.484375 -0.171875 0.875q-0.171875 0.390625 -0.5 0.65625q-0.3125 0.265625 -0.765625 0.390625q-0.4375 0.140625 -1.0 0.140625q-0.140625 0 -0.28125 0q-0.125 0 -0.21875 -0.03125l0 -3.484375q-0.828125 0.046875 -1.3125 0.5q-0.484375 0.46875 -0.484375 1.21875q0 0.375 0.109375 0.6875q0.109375 0.3125 0.296875 0.609375l-0.578125 0.296875q-0.21875 -0.328125 -0.375 -0.75q-0.15625 -0.421875 -0.15625 -0.953125zm3.125 -1.625l0 2.765625q0.796875 0 1.203125 -0.34375q0.40625 -0.328125 0.40625 -0.9375q0 -0.265625 -0.109375 -0.515625q-0.09375 -0.25 -0.3125 -0.453125q-0.203125 -0.203125 -0.5 -0.34375q-0.296875 -0.125 -0.6875 -0.171875zm-3.0 4.816803l5.171875 0l0 0.71875l-0.734375 0.078125l0 0.03125q0.375 0.375 0.625 0.78125q0.25 0.421875 0.25 0.953125q0 0.828125 -0.515625 1.203125q-0.515625 0.375 -1.515625 0.375l-3.28125 0l0 -0.875l3.171875 0q0.734375 0 1.046875 -0.234375q0.328125 -0.234375 0.328125 -0.734375q0 -0.40625 -0.203125 -0.71875q-0.203125 -0.3125 -0.59375 -0.703125l-3.75 0l0 -0.875zm-0.125 7.4540253q0 -0.40625 0.125 -0.6875q0.125 -0.28125 0.34375 -0.46875q0.234375 -0.171875 0.546875 -0.25q0.328125 -0.078125 0.703125 -0.078125l2.875 0l0 -0.765625l0.65625 0l0.046875 0.8125l1.453125 0.109375l0 0.734375l-1.453125 0l0 1.390625l-0.703125 0l0 -1.390625l-2.875 0q-0.484375 0 -0.75 0.171875q-0.25 0.1875 -0.25 0.625q0 0.140625 0.03125 0.296875q0.046875 0.171875 0.09375 0.296875l-0.65625 0.171875q-0.078125 -0.21875 -0.125 -0.46875q-0.0625 -0.25 -0.0625 -0.5zm0 3.1643524q0 -0.640625 0.375 -1.078125q0.390625 -0.4375 1.09375 -0.4375q0.84375 0 1.296875 0.75q0.453125 0.765625 0.640625 2.4375q0.25 0 0.484375 -0.046875q0.234375 -0.046875 0.40625 -0.171875q0.1875 -0.109375 0.296875 -0.328125q0.109375 -0.203125 0.109375 -0.515625q0 -0.453125 -0.171875 -0.859375q-0.171875 -0.390625 -0.375 -0.6875l0.609375 -0.34375q0.234375 0.359375 0.453125 0.875q0.21875 0.53125 0.21875 1.15625q0 0.953125 -0.59375 1.375q-0.578125 0.421875 -1.546875 0.421875l-3.171875 0l0 -0.71875l0.625 -0.078125l0 -0.03125q-0.3125 -0.375 -0.53125 -0.796875q-0.21875 -0.421875 -0.21875 -0.921875zm0.703125 0.265625q0 0.375 0.171875 0.703125q0.171875 0.328125 0.515625 0.703125l1.4375 0q-0.078125 -0.65625 -0.203125 -1.109375q-0.109375 -0.4375 -0.28125 -0.703125q-0.15625 -0.265625 -0.359375 -0.390625q-0.203125 -0.125 -0.453125 -0.125q-0.453125 0 -0.640625 0.265625q-0.1875 0.265625 -0.1875 0.65625zm-0.703125 5.542679q0 -0.40625 0.125 -0.6875q0.125 -0.28125 0.34375 -0.46875q0.234375 -0.171875 0.546875 -0.25q0.328125 -0.078125 0.703125 -0.078125l2.875 0l0 -0.765625l0.65625 0l0.046875 0.8125l1.453125 0.109375l0 0.734375l-1.453125 0l0 1.390625l-0.703125 0l0 -1.390625l-2.875 0q-0.484375 0 -0.75 0.171875q-0.25 0.1875 -0.25 0.625q0 0.140625 0.03125 0.296875q0.046875 0.171875 0.09375 0.296875l-0.65625 0.171875q-0.078125 -0.21875 -0.125 -0.46875q-0.0625 -0.25 -0.0625 -0.5zm0.125 1.9768524l5.171875 0l0 0.875l-5.171875 0l0 -0.875zm6.25 0.453125q0 -0.265625 0.15625 -0.4375q0.15625 -0.171875 0.40625 -0.171875q0.25 0 0.40625 0.171875q0.15625 0.171875 0.15625 0.4375q0 0.25 -0.15625 0.421875q-0.15625 0.171875 -0.40625 0.171875q-0.25 0 -0.40625 -0.171875q-0.15625 -0.171875 -0.15625 -0.421875zm-6.375 4.18396q0 -0.484375 0.171875 -0.921875q0.1875 -0.421875 0.53125 -0.75q0.34375 -0.328125 0.84375 -0.53125q0.515625 -0.203125 1.15625 -0.203125q0.65625 0 1.15625 0.203125q0.5 0.203125 0.84375 0.53125q0.359375 0.328125 0.546875 0.75q0.1875 0.4375 0.1875 0.921875q0 0.484375 -0.1875 0.90625q-0.1875 0.4375 -0.546875 0.765625q-0.34375 0.328125 -0.84375 0.515625q-0.5 0.203125 -1.15625 0.203125q-0.640625 0 -1.15625 -0.203125q-0.5 -0.1875 -0.84375 -0.515625q-0.34375 -0.328125 -0.53125 -0.765625q-0.171875 -0.421875 -0.171875 -0.90625zm0.71875 0q0 0.328125 0.140625 0.59375q0.15625 0.28125 0.40625 0.484375q0.265625 0.203125 0.625 0.296875q0.359375 0.109375 0.8125 0.109375q0.453125 0 0.8125 -0.109375q0.375 -0.09375 0.640625 -0.296875q0.265625 -0.203125 0.40625 -0.484375q0.140625 -0.265625 0.140625 -0.59375q0 -0.328125 -0.140625 -0.609375q-0.140625 -0.28125 -0.40625 -0.484375q-0.265625 -0.1875 -0.640625 -0.296875q-0.359375 -0.109375 -0.8125 -0.109375q-0.453125 0 -0.8125 0.109375q-0.359375 0.109375 -0.625 0.296875q-0.25 0.203125 -0.40625 0.484375q-0.140625 0.28125 -0.140625 0.609375zm-0.59375 3.7601166l5.171875 0l0 0.71875l-0.734375 0.078125l0 0.03125q0.375 0.375 0.625 0.78125q0.25 0.421875 0.25 0.953125q0 0.828125 -0.515625 1.203125q-0.515625 0.375 -1.515625 0.375l-3.28125 0l0 -0.875l3.171875 0q0.734375 0 1.046875 -0.234375q0.328125 -0.234375 0.328125 -0.734375q0 -0.40625 -0.203125 -0.71875q-0.203125 -0.3125 -0.59375 -0.703125l-3.75 0l0 -0.875z" fill-rule="nonzero"/><path fill="#d9d2e9" d="m8.0 124.992455l0 0c0 -9.132446 7.4033136 -16.535759 16.535765 -16.535759l533.54266 0c4.385559 0 8.591492 1.742157 11.692505 4.8432083c3.1010742 3.101059 4.8432617 7.306999 4.8432617 11.692551l0 66.141075c0 9.132446 -7.4033203 16.535767 -16.535767 16.535767l-533.54266 0c-9.132451 0 -16.535765 -7.4033203 -16.535765 -16.535767z" fill-rule="evenodd"/><path fill="#cfe2f3" d="m8.0 24.535765l0 0c0 -9.132451 7.4033136 -16.535765 16.535765 -16.535765l533.54266 0c4.385559 0 8.591492 1.742156 11.692505 4.843213c3.1010742 3.101057 4.8432617 7.3069925 4.8432617 11.692552l0 66.14107c0 9.132454 -7.4033203 16.535767 -16.535767 16.535767l-533.54266 0c-9.132451 0 -16.535765 -7.4033127 -16.535765 -16.535767z" fill-rule="evenodd"/><path fill="#000000" d="m500.29025 90.609436l0 -6.984375l0.890625 0l0 2.921875l3.25 0l0 -2.921875l0.890625 0l0 6.984375l-0.890625 0l0 -3.296875l-3.25 0l0 3.296875l-0.890625 0zm6.869812 0l0 -5.171875l0.875 0l0 5.171875l-0.875 0zm0.453125 -6.25q-0.265625 0 -0.4375 -0.15625q-0.171875 -0.15625 -0.171875 -0.40625q0 -0.25 0.171875 -0.40625q0.171875 -0.15625 0.4375 -0.15625q0.25 0 0.421875 0.15625q0.171875 0.15625 0.171875 0.40625q0 0.25 -0.171875 0.40625q-0.171875 0.15625 -0.421875 0.15625zm3.93396 6.375q-0.984375 0 -1.5625 -0.703125q-0.578125 -0.703125 -0.578125 -2.0q0 -0.625 0.1875 -1.125q0.1875 -0.515625 0.484375 -0.859375q0.3125 -0.359375 0.71875 -0.546875q0.40625 -0.203125 0.859375 -0.203125q0.45309448 0 0.7812195 0.171875q0.328125 0.15625 0.671875 0.4375l-0.046875 -0.890625l0 -2.0l0.890625 0l0 7.59375l-0.734375 0l-0.078125 -0.609375l-0.03125 0q-0.296875 0.296875 -0.703125 0.515625q-0.40625 0.21875 -0.8593445 0.21875zm0.1875 -0.734375q0.37496948 0 0.6874695 -0.171875q0.328125 -0.171875 0.640625 -0.546875l0 -2.703125q-0.328125 -0.296875 -0.640625 -0.421875q-0.296875 -0.125 -0.6093445 -0.125q-0.3125 0 -0.59375 0.15625q-0.265625 0.140625 -0.46875 0.40625q-0.203125 0.25 -0.328125 0.625q-0.109375 0.359375 -0.109375 0.796875q0 0.9375 0.375 1.46875q0.375 0.515625 1.046875 0.515625zm5.726776 0.734375q-0.984375 0 -1.5625 -0.703125q-0.578125 -0.703125 -0.578125 -2.0q0 -0.625 0.1875 -1.125q0.1875 -0.515625 0.484375 -0.859375q0.3125 -0.359375 0.71875 -0.546875q0.40625 -0.203125 0.859375 -0.203125q0.453125 0 0.78125 0.171875q0.328125 0.15625 0.671875 0.4375l-0.046875 -0.890625l0 -2.0l0.890625 0l0 7.59375l-0.734375 0l-0.078125 -0.609375l-0.03125 0q-0.296875 0.296875 -0.703125 0.515625q-0.40625 0.21875 -0.859375 0.21875zm0.1875 -0.734375q0.375 0 0.6875 -0.171875q0.328125 -0.171875 0.640625 -0.546875l0 -2.703125q-0.328125 -0.296875 -0.640625 -0.421875q-0.296875 -0.125 -0.609375 -0.125q-0.3125 0 -0.59375 0.15625q-0.265625 0.140625 -0.46875 0.40625q-0.203125 0.25 -0.328125 0.625q-0.109375 0.359375 -0.109375 0.796875q0 0.9375 0.375 1.46875q0.375 0.515625 1.046875 0.515625zm6.0548706 0.734375q-0.515625 0 -0.96875 -0.1875q-0.453125 -0.1875 -0.796875 -0.53125q-0.328125 -0.34375 -0.53125 -0.84375q-0.1875 -0.5 -0.1875 -1.140625q0 -0.640625 0.203125 -1.140625q0.203125 -0.515625 0.515625 -0.859375q0.328125 -0.359375 0.734375 -0.546875q0.421875 -0.1875 0.875 -0.1875q0.484375 0 0.875 0.171875q0.390625 0.171875 0.65625 0.5q0.265625 0.3125 0.390625 0.765625q0.140625 0.4375 0.140625 1.0q0 0.140625 0 0.28125q0 0.125 -0.03125 0.21875l-3.484375 0q0.046875 0.828125 0.5 1.3125q0.46875 0.484375 1.21875 0.484375q0.375 0 0.6875 -0.109375q0.3125 -0.109375 0.609375 -0.296875l0.296875 0.578125q-0.328125 0.21875 -0.75 0.375q-0.421875 0.15625 -0.953125 0.15625zm-1.625 -3.125l2.765625 0q0 -0.796875 -0.34375 -1.203125q-0.328125 -0.40625 -0.9375 -0.40625q-0.265625 0 -0.515625 0.109375q-0.25 0.09375 -0.453125 0.3125q-0.203125 0.203125 -0.34375 0.5q-0.125 0.296875 -0.171875 0.6875zm4.8168335 3.0l0 -5.171875l0.71875 0l0.078125 0.734375l0.03125 0q0.375 -0.375 0.78125 -0.625q0.421875 -0.25 0.953125 -0.25q0.828125 0 1.203125 0.515625q0.375 0.515625 0.375 1.515625l0 3.28125l-0.875 0l0 -3.171875q0 -0.734375 -0.234375 -1.046875q-0.234375 -0.328125 -0.734375 -0.328125q-0.40625 0 -0.71875 0.203125q-0.3125 0.203125 -0.703125 0.59375l0 3.75l-0.875 0zm9.319641 0.125q-0.5625 0 -1.0625 -0.203125q-0.5 -0.203125 -0.875 -0.515625l0.4375 -0.578125q0.34375 0.28125 0.703125 0.453125q0.359375 0.171875 0.828125 0.171875q0.5 0 0.75 -0.234375q0.265625 -0.234375 0.265625 -0.578125q0 -0.203125 -0.109375 -0.34375q-0.109375 -0.15625 -0.28125 -0.265625q-0.15625 -0.125 -0.375 -0.203125q-0.203125 -0.09375 -0.421875 -0.171875q-0.265625 -0.09375 -0.546875 -0.21875q-0.28125 -0.125 -0.5 -0.296875q-0.21875 -0.171875 -0.359375 -0.40625q-0.140625 -0.234375 -0.140625 -0.578125q0 -0.296875 0.125 -0.5625q0.125 -0.28125 0.34375 -0.46875q0.234375 -0.203125 0.5625 -0.3125q0.34375 -0.125 0.75 -0.125q0.5 0 0.90625 0.171875q0.40625 0.171875 0.703125 0.421875l-0.40625 0.546875q-0.265625 -0.203125 -0.5625 -0.328125q-0.28125 -0.125 -0.625 -0.125q-0.484375 0 -0.71875 0.234375q-0.234375 0.21875 -0.234375 0.515625q0 0.171875 0.09375 0.3125q0.109375 0.125 0.265625 0.234375q0.15625 0.09375 0.359375 0.1875q0.21875 0.078125 0.4375 0.15625q0.28125 0.109375 0.5625 0.234375q0.28125 0.109375 0.5 0.28125q0.234375 0.171875 0.375 0.4375q0.140625 0.25 0.140625 0.609375q0 0.328125 -0.125 0.609375q-0.125 0.265625 -0.359375 0.484375q-0.234375 0.203125 -0.59375 0.328125q-0.359375 0.125 -0.8125 0.125zm4.730652 0q-0.40625 0 -0.6875 -0.125q-0.28125 -0.125 -0.46875 -0.34375q-0.171875 -0.234375 -0.25 -0.546875q-0.078125 -0.328125 -0.078125 -0.703125l0 -2.875l-0.765625 0l0 -0.65625l0.8125 -0.046875l0.109375 -1.453125l0.734375 0l0 1.453125l1.390625 0l0 0.703125l-1.390625 0l0 2.875q0 0.484375 0.171875 0.75q0.1875 0.25 0.625 0.25q0.140625 0 0.296875 -0.03125q0.171875 -0.046875 0.296875 -0.09375l0.171875 0.65625q-0.21875 0.078125 -0.46875 0.125q-0.25 0.0625 -0.5 0.0625zm3.1643677 0q-0.640625 0 -1.078125 -0.375q-0.4375 -0.390625 -0.4375 -1.09375q0 -0.84375 0.75 -1.296875q0.765625 -0.453125 2.4375 -0.640625q0 -0.25 -0.046875 -0.484375q-0.046875 -0.234375 -0.171875 -0.40625q-0.109375 -0.1875 -0.328125 -0.296875q-0.203125 -0.109375 -0.515625 -0.109375q-0.453125 0 -0.859375 0.171875q-0.390625 0.171875 -0.6875 0.375l-0.34375 -0.609375q0.359375 -0.234375 0.875 -0.453125q0.53125 -0.21875 1.15625 -0.21875q0.953125 0 1.375 0.59375q0.421875 0.578125 0.421875 1.546875l0 3.171875l-0.71875 0l-0.078125 -0.625l-0.03125 0q-0.375 0.3125 -0.796875 0.53125q-0.421875 0.21875 -0.921875 0.21875zm0.265625 -0.703125q0.375 0 0.703125 -0.171875q0.328125 -0.171875 0.703125 -0.515625l0 -1.4375q-0.65625 0.078125 -1.109375 0.203125q-0.4375 0.109375 -0.703125 0.28125q-0.265625 0.15625 -0.390625 0.359375q-0.125 0.203125 -0.125 0.453125q0 0.453125 0.265625 0.640625q0.265625 0.1875 0.65625 0.1875zm5.5426636 0.703125q-0.40625 0 -0.6875 -0.125q-0.28125 -0.125 -0.46875 -0.34375q-0.171875 -0.234375 -0.25 -0.546875q-0.078125 -0.328125 -0.078125 -0.703125l0 -2.875l-0.765625 0l0 -0.65625l0.8125 -0.046875l0.109375 -1.453125l0.734375 0l0 1.453125l1.390625 0l0 0.703125l-1.390625 0l0 2.875q0 0.484375 0.171875 0.75q0.1875 0.25 0.625 0.25q0.140625 0 0.296875 -0.03125q0.171875 -0.046875 0.296875 -0.09375l0.171875 0.65625q-0.21875 0.078125 -0.46875 0.125q-0.25 0.0625 -0.5 0.0625zm4.0706177 0q-0.515625 0 -0.96875 -0.1875q-0.453125 -0.1875 -0.796875 -0.53125q-0.328125 -0.34375 -0.53125 -0.84375q-0.1875 -0.5 -0.1875 -1.140625q0 -0.640625 0.203125 -1.140625q0.203125 -0.515625 0.515625 -0.859375q0.328125 -0.359375 0.734375 -0.546875q0.421875 -0.1875 0.875 -0.1875q0.484375 0 0.875 0.171875q0.390625 0.171875 0.65625 0.5q0.265625 0.3125 0.390625 0.765625q0.140625 0.4375 0.140625 1.0q0 0.140625 0 0.28125q0 0.125 -0.03125 0.21875l-3.484375 0q0.046875 0.828125 0.5 1.3125q0.46875 0.484375 1.21875 0.484375q0.375 0 0.6875 -0.109375q0.3125 -0.109375 0.609375 -0.296875l0.296875 0.578125q-0.328125 0.21875 -0.75 0.375q-0.421875 0.15625 -0.953125 0.15625zm-1.625 -3.125l2.765625 0q0 -0.796875 -0.34375 -1.203125q-0.328125 -0.40625 -0.9375 -0.40625q-0.265625 0 -0.515625 0.109375q-0.25 0.09375 -0.453125 0.3125q-0.203125 0.203125 -0.34375 0.5q-0.125 0.296875 -0.171875 0.6875zm6.1761475 3.125q-0.5625 0 -1.0625 -0.203125q-0.5 -0.203125 -0.875 -0.515625l0.4375 -0.578125q0.34375 0.28125 0.703125 0.453125q0.359375 0.171875 0.828125 0.171875q0.5 0 0.75 -0.234375q0.265625 -0.234375 0.265625 -0.578125q0 -0.203125 -0.109375 -0.34375q-0.109375 -0.15625 -0.28125 -0.265625q-0.15625 -0.125 -0.375 -0.203125q-0.203125 -0.09375 -0.421875 -0.171875q-0.265625 -0.09375 -0.546875 -0.21875q-0.28125 -0.125 -0.5 -0.296875q-0.21875 -0.171875 -0.359375 -0.40625q-0.140625 -0.234375 -0.140625 -0.578125q0 -0.296875 0.125 -0.5625q0.125 -0.28125 0.34375 -0.46875q0.234375 -0.203125 0.5625 -0.3125q0.34375 -0.125 0.75 -0.125q0.5 0 0.90625 0.171875q0.40625 0.171875 0.703125 0.421875l-0.40625 0.546875q-0.265625 -0.203125 -0.5625 -0.328125q-0.28125 -0.125 -0.625 -0.125q-0.484375 0 -0.71875 0.234375q-0.234375 0.21875 -0.234375 0.515625q0 0.171875 0.09375 0.3125q0.109375 0.125 0.265625 0.234375q0.15625 0.09375 0.359375 0.1875q0.21875 0.078125 0.4375 0.15625q0.28125 0.109375 0.5625 0.234375q0.28125 0.109375 0.5 0.28125q0.234375 0.171875 0.375 0.4375q0.140625 0.25 0.140625 0.609375q0 0.328125 -0.125 0.609375q-0.125 0.265625 -0.359375 0.484375q-0.234375 0.203125 -0.59375 0.328125q-0.359375 0.125 -0.8125 0.125z" fill-rule="nonzero"/><path fill="#ead1dc" d="m8.0 225.44914l0 0c0 -9.132446 7.4033136 -16.535751 16.535765 -16.535751l533.54266 0c4.385559 0 8.591492 1.742157 11.692505 4.8432007c3.1010742 3.101059 4.8432617 7.307007 4.8432617 11.692551l0 66.14107c0 9.132446 -7.4033203 16.535767 -16.535767 16.535767l-533.54266 0c-9.132451 0 -16.535765 -7.4033203 -16.535765 -16.535767z" fill-rule="evenodd"/><path fill="#000000" d="m538.7261 278.52283l-1.46875 -6.984375l0.90625 0l0.734375 3.796875q0.109375 0.578125 0.203125 1.140625q0.109375 0.546875 0.203125 1.125l0.046875 0q0.125 -0.578125 0.25 -1.140625q0.125 -0.5625 0.234375 -1.125l0.96875 -3.796875l0.8125 0l0.96875 3.796875q0.140625 0.5625 0.265625 1.125q0.125 0.5625 0.25 1.140625l0.046875 0q0.09375 -0.578125 0.1875 -1.140625q0.09375 -0.5625 0.203125 -1.125l0.734375 -3.796875l0.859375 0l-1.453125 6.984375l-1.0625 0l-1.0625 -4.203125q-0.09375 -0.40625 -0.171875 -0.796875q-0.078125 -0.390625 -0.171875 -0.796875l-0.03125 0q-0.09375 0.40625 -0.1875 0.796875q-0.078125 0.390625 -0.171875 0.796875l-1.03125 4.203125l-1.0625 0zm9.547791 0.125q-0.484375 0 -0.921875 -0.171875q-0.421875 -0.1875 -0.75 -0.53125q-0.328125 -0.34375 -0.53125 -0.84375q-0.203125 -0.515625 -0.203125 -1.15625q0 -0.65625 0.203125 -1.15625q0.203125 -0.5 0.53125 -0.84375q0.328125 -0.359375 0.75 -0.546875q0.4375 -0.1875 0.921875 -0.1875q0.484375 0 0.90625 0.1875q0.4375 0.1875 0.765625 0.546875q0.328125 0.34375 0.515625 0.84375q0.203125 0.5 0.203125 1.15625q0 0.640625 -0.203125 1.15625q-0.1875 0.5 -0.515625 0.84375q-0.328125 0.34375 -0.765625 0.53125q-0.421875 0.171875 -0.90625 0.171875zm0 -0.71875q0.328125 0 0.59375 -0.140625q0.28125 -0.15625 0.484375 -0.40625q0.203125 -0.265625 0.296875 -0.625q0.109375 -0.359375 0.109375 -0.8125q0 -0.453125 -0.109375 -0.8125q-0.09375 -0.375 -0.296875 -0.640625q-0.203125 -0.265625 -0.484375 -0.40625q-0.265625 -0.140625 -0.59375 -0.140625q-0.328125 0 -0.609375 0.140625q-0.28125 0.140625 -0.484375 0.40625q-0.1875 0.265625 -0.296875 0.640625q-0.109375 0.359375 -0.109375 0.8125q0 0.453125 0.109375 0.8125q0.109375 0.359375 0.296875 0.625q0.203125 0.25 0.484375 0.40625q0.28125 0.140625 0.609375 0.140625zm3.7600708 0.59375l0 -5.171875l0.71875 0l0.078125 0.9375l0.03125 0q0.265625 -0.5 0.640625 -0.78125q0.390625 -0.296875 0.828125 -0.296875q0.3125 0 0.5625 0.109375l-0.171875 0.765625q-0.125 -0.03125 -0.234375 -0.046875q-0.109375 -0.03125 -0.265625 -0.03125q-0.328125 0 -0.6875 0.265625q-0.359375 0.265625 -0.625 0.921875l0 3.328125l-0.875 0zm5.463379 0.125q-0.984375 0 -1.5625 -0.703125q-0.578125 -0.703125 -0.578125 -2.0q0 -0.625 0.1875 -1.125q0.1875 -0.515625 0.484375 -0.859375q0.3125 -0.359375 0.71875 -0.546875q0.40625 -0.203125 0.859375 -0.203125q0.453125 0 0.78125 0.171875q0.328125 0.15625 0.671875 0.4375l-0.046875 -0.890625l0 -2.0l0.890625 0l0 7.59375l-0.734375 0l-0.078125 -0.609375l-0.03125 0q-0.296875 0.296875 -0.703125 0.515625q-0.40625 0.21875 -0.859375 0.21875zm0.1875 -0.734375q0.375 0 0.6875 -0.171875q0.328125 -0.171875 0.640625 -0.546875l0 -2.703125q-0.328125 -0.296875 -0.640625 -0.421875q-0.296875 -0.125 -0.609375 -0.125q-0.3125 0 -0.59375 0.15625q-0.265625 0.140625 -0.46875 0.40625q-0.203125 0.25 -0.328125 0.625q-0.109375 0.359375 -0.109375 0.796875q0 0.9375 0.375 1.46875q0.375 0.515625 1.046875 0.515625z" fill-rule="nonzero"/><path fill="#000000" d="m505.98074 291.52283l0 -6.984375l4.03125 0l0 0.734375l-3.140625 0l0 2.203125l2.65625 0l0 0.75l-2.65625 0l0 2.546875l3.25 0l0 0.75l-4.140625 0zm5.537781 0l0 -5.171875l0.7187195 0l0.078125 0.734375l0.03125 0q0.34375 -0.375 0.734375 -0.625q0.40625 -0.25 0.875 -0.25q0.59375 0 0.921875 0.265625q0.34375 0.265625 0.5 0.734375q0.40625 -0.453125 0.8125 -0.71875q0.421875 -0.28125 0.90625 -0.28125q0.796875 0 1.1875 0.515625q0.390625 0.515625 0.390625 1.515625l0 3.28125l-0.875 0l0 -3.171875q0 -0.734375 -0.234375 -1.046875q-0.234375 -0.328125 -0.734375 -0.328125q-0.578125 0 -1.296875 0.796875l0 3.75l-0.875 0l0 -3.171875q0 -0.734375 -0.234375 -1.046875q-0.234375 -0.328125 -0.734375 -0.328125q-0.578125 0 -1.296875 0.796875l0 3.75l-0.8749695 0zm11.130951 0.125q-0.375 0 -0.765625 -0.171875q-0.375 -0.171875 -0.71875 -0.484375l-0.03125 0l-0.078125 0.53125l-0.703125 0l0 -7.59375l0.875 0l0 2.078125l-0.03125 0.9375q0.359375 -0.3125 0.765625 -0.515625q0.421875 -0.21875 0.859375 -0.21875q0.5 0 0.875 0.1875q0.390625 0.1875 0.65625 0.546875q0.265625 0.34375 0.390625 0.828125q0.140625 0.484375 0.140625 1.078125q0 0.65625 -0.1875 1.1875q-0.171875 0.515625 -0.484375 0.875q-0.3125 0.359375 -0.71875 0.546875q-0.40625 0.1875 -0.84375 0.1875zm-0.15625 -0.734375q0.3125 0 0.578125 -0.140625q0.28125 -0.140625 0.46875 -0.40625q0.203125 -0.265625 0.3125 -0.640625q0.125 -0.390625 0.125 -0.875q0 -0.421875 -0.078125 -0.765625q-0.078125 -0.359375 -0.25 -0.609375q-0.15625 -0.25 -0.421875 -0.390625q-0.25 -0.140625 -0.609375 -0.140625q-0.640625 0 -1.390625 0.703125l0 2.71875q0.34375 0.296875 0.671875 0.421875q0.34375 0.125 0.59375 0.125zm5.8461304 0.734375q-0.515625 0 -0.96875 -0.1875q-0.453125 -0.1875 -0.796875 -0.53125q-0.328125 -0.34375 -0.53125 -0.84375q-0.1875 -0.5 -0.1875 -1.140625q0 -0.640625 0.203125 -1.140625q0.203125 -0.515625 0.515625 -0.859375q0.328125 -0.359375 0.734375 -0.546875q0.421875 -0.1875 0.875 -0.1875q0.484375 0 0.875 0.171875q0.390625 0.171875 0.65625 0.5q0.265625 0.3125 0.390625 0.765625q0.140625 0.4375 0.140625 1.0q0 0.140625 0 0.28125q0 0.125 -0.03125 0.21875l-3.484375 0q0.046875 0.828125 0.5 1.3125q0.46875 0.484375 1.21875 0.484375q0.375 0 0.6875 -0.109375q0.3125 -0.109375 0.609375 -0.296875l0.296875 0.578125q-0.328125 0.21875 -0.75 0.375q-0.421875 0.15625 -0.953125 0.15625zm-1.625 -3.125l2.765625 0q0 -0.796875 -0.34375 -1.203125q-0.328125 -0.40625 -0.9375 -0.40625q-0.265625 0 -0.515625 0.109375q-0.25 0.09375 -0.453125 0.3125q-0.203125 0.203125 -0.34375 0.5q-0.125 0.296875 -0.171875 0.6875zm6.5823975 3.125q-0.984375 0 -1.5625 -0.703125q-0.578125 -0.703125 -0.578125 -2.0q0 -0.625 0.1875 -1.125q0.1875 -0.515625 0.484375 -0.859375q0.3125 -0.359375 0.71875 -0.546875q0.40625 -0.203125 0.859375 -0.203125q0.453125 0 0.78125 0.171875q0.328125 0.15625 0.671875 0.4375l-0.046875 -0.890625l0 -2.0l0.890625 0l0 7.59375l-0.734375 0l-0.078125 -0.609375l-0.03125 0q-0.296875 0.296875 -0.703125 0.515625q-0.40625 0.21875 -0.859375 0.21875zm0.1875 -0.734375q0.375 0 0.6875 -0.171875q0.328125 -0.171875 0.640625 -0.546875l0 -2.703125q-0.328125 -0.296875 -0.640625 -0.421875q-0.296875 -0.125 -0.609375 -0.125q-0.3125 0 -0.59375 0.15625q-0.265625 0.140625 -0.46875 0.40625q-0.203125 0.25 -0.328125 0.625q-0.109375 0.359375 -0.109375 0.796875q0 0.9375 0.375 1.46875q0.375 0.515625 1.046875 0.515625zm5.7268066 0.734375q-0.984375 0 -1.5625 -0.703125q-0.578125 -0.703125 -0.578125 -2.0q0 -0.625 0.1875 -1.125q0.1875 -0.515625 0.484375 -0.859375q0.3125 -0.359375 0.71875 -0.546875q0.40625 -0.203125 0.859375 -0.203125q0.453125 0 0.78125 0.171875q0.328125 0.15625 0.671875 0.4375l-0.046875 -0.890625l0 -2.0l0.890625 0l0 7.59375l-0.734375 0l-0.078125 -0.609375l-0.03125 0q-0.296875 0.296875 -0.703125 0.515625q-0.40625 0.21875 -0.859375 0.21875zm0.1875 -0.734375q0.375 0 0.6875 -0.171875q0.328125 -0.171875 0.640625 -0.546875l0 -2.703125q-0.328125 -0.296875 -0.640625 -0.421875q-0.296875 -0.125 -0.609375 -0.125q-0.3125 0 -0.59375 0.15625q-0.265625 0.140625 -0.46875 0.40625q-0.203125 0.25 -0.328125 0.625q-0.109375 0.359375 -0.109375 0.796875q0 0.9375 0.375 1.46875q0.375 0.515625 1.046875 0.515625zm3.9611206 0.609375l0 -5.171875l0.875 0l0 5.171875l-0.875 0zm0.453125 -6.25q-0.265625 0 -0.4375 -0.15625q-0.171875 -0.15625 -0.171875 -0.40625q0 -0.25 0.171875 -0.40625q0.171875 -0.15625 0.4375 -0.15625q0.25 0 0.421875 0.15625q0.171875 0.15625 0.171875 0.40625q0 0.25 -0.171875 0.40625q-0.171875 0.15625 -0.421875 0.15625zm2.168335 6.25l0 -5.171875l0.71875 0l0.078125 0.734375l0.03125 0q0.375 -0.375 0.78125 -0.625q0.421875 -0.25 0.953125 -0.25q0.828125 0 1.203125 0.515625q0.375 0.515625 0.375 1.515625l0 3.28125l-0.875 0l0 -3.171875q0 -0.734375 -0.234375 -1.046875q-0.234375 -0.328125 -0.734375 -0.328125q-0.40625 0 -0.71875 0.203125q-0.3125 0.203125 -0.703125 0.59375l0 3.75l-0.875 0zm7.5790405 2.390625q-0.484375 0 -0.875 -0.09375q-0.390625 -0.09375 -0.6875 -0.28125q-0.28125 -0.171875 -0.4375 -0.4375q-0.140625 -0.25 -0.140625 -0.59375q0 -0.328125 0.203125 -0.625q0.203125 -0.296875 0.546875 -0.546875l0 -0.03125q-0.1875 -0.125 -0.328125 -0.328125q-0.125 -0.203125 -0.125 -0.515625q0 -0.328125 0.171875 -0.578125q0.1875 -0.25 0.390625 -0.390625l0 -0.03125q-0.25 -0.21875 -0.46875 -0.578125q-0.203125 -0.359375 -0.203125 -0.828125q0 -0.421875 0.15625 -0.765625q0.15625 -0.34375 0.421875 -0.578125q0.265625 -0.234375 0.625 -0.359375q0.359375 -0.140625 0.75 -0.140625q0.203125 0 0.390625 0.046875q0.1875 0.03125 0.34375 0.09375l1.796875 0l0 0.671875l-1.0625 0q0.171875 0.171875 0.296875 0.453125q0.125 0.28125 0.125 0.609375q0 0.40625 -0.15625 0.75q-0.140625 0.328125 -0.40625 0.5625q-0.25 0.234375 -0.59375 0.359375q-0.34375 0.125 -0.734375 0.125q-0.203125 0 -0.40625 -0.046875q-0.1875 -0.046875 -0.375 -0.140625q-0.140625 0.125 -0.234375 0.265625q-0.09375 0.140625 -0.09375 0.359375q0 0.25 0.1875 0.40625q0.1875 0.15625 0.71875 0.15625l1.015625 0q0.90625 0 1.359375 0.296875q0.453125 0.296875 0.453125 0.9375q0 0.359375 -0.1875 0.6875q-0.1875 0.328125 -0.53125 0.5625q-0.328125 0.25 -0.8125 0.390625q-0.484375 0.15625 -1.09375 0.15625zm0 -4.625q0.21875 0 0.40625 -0.078125q0.203125 -0.078125 0.359375 -0.234375q0.15625 -0.171875 0.234375 -0.390625q0.09375 -0.234375 0.09375 -0.53125q0 -0.5625 -0.328125 -0.875q-0.3125 -0.328125 -0.765625 -0.328125q-0.46875 0 -0.78125 0.328125q-0.3125 0.3125 -0.3125 0.875q0 0.296875 0.078125 0.53125q0.078125 0.21875 0.234375 0.390625q0.15625 0.15625 0.34375 0.234375q0.203125 0.078125 0.4375 0.078125zm0.125 4.015625q0.375 0 0.671875 -0.09375q0.3125 -0.09375 0.515625 -0.234375q0.21875 -0.140625 0.328125 -0.34375q0.125 -0.1875 0.125 -0.390625q0 -0.359375 -0.265625 -0.5q-0.265625 -0.140625 -0.78125 -0.140625l-0.890625 0q-0.15625 0 -0.328125 -0.015625q-0.171875 -0.015625 -0.34375 -0.0625q-0.28125 0.203125 -0.40625 0.421875q-0.125 0.234375 -0.125 0.453125q0 0.421875 0.390625 0.65625q0.40625 0.25 1.109375 0.25zm4.8551636 -1.65625q-0.5625 0 -1.0625 -0.203125q-0.5 -0.203125 -0.875 -0.515625l0.4375 -0.578125q0.34375 0.28125 0.703125 0.453125q0.359375 0.171875 0.828125 0.171875q0.5 0 0.75 -0.234375q0.265625 -0.234375 0.265625 -0.578125q0 -0.203125 -0.109375 -0.34375q-0.109375 -0.15625 -0.28125 -0.265625q-0.15625 -0.125 -0.375 -0.203125q-0.203125 -0.09375 -0.421875 -0.171875q-0.265625 -0.09375 -0.546875 -0.21875q-0.28125 -0.125 -0.5 -0.296875q-0.21875 -0.171875 -0.359375 -0.40625q-0.140625 -0.234375 -0.140625 -0.578125q0 -0.296875 0.125 -0.5625q0.125 -0.28125 0.34375 -0.46875q0.234375 -0.203125 0.5625 -0.3125q0.34375 -0.125 0.75 -0.125q0.5 0 0.90625 0.171875q0.40625 0.171875 0.703125 0.421875l-0.40625 0.546875q-0.265625 -0.203125 -0.5625 -0.328125q-0.28125 -0.125 -0.625 -0.125q-0.484375 0 -0.71875 0.234375q-0.234375 0.21875 -0.234375 0.515625q0 0.171875 0.09375 0.3125q0.109375 0.125 0.265625 0.234375q0.15625 0.09375 0.359375 0.1875q0.21875 0.078125 0.4375 0.15625q0.28125 0.109375 0.5625 0.234375q0.28125 0.109375 0.5 0.28125q0.234375 0.171875 0.375 0.4375q0.140625 0.25 0.140625 0.609375q0 0.328125 -0.125 0.609375q-0.125 0.265625 -0.359375 0.484375q-0.234375 0.203125 -0.59375 0.328125q-0.359375 0.125 -0.8125 0.125z" fill-rule="nonzero"/><path fill="#e9edee" d="m38.385826 142.81905l0 0c0 -4.2096252 3.4125748 -7.6221924 7.6222 -7.6221924l55.747726 0c2.0215302 0 3.960266 0.8030548 5.3897095 2.232483c1.4294434 1.4294434 2.2324905 3.3681793 2.2324905 5.3897095l0 30.487885c0 4.2096252 -3.4125748 7.6222076 -7.6222 7.6222076l-55.747726 0c-4.2096252 0 -7.6222 -3.4125824 -7.6222 -7.6222076z" fill-rule="evenodd"/><path stroke="#000000" stroke-width="1.0" stroke-linejoin="round" stroke-linecap="butt" d="m38.385826 142.81905l0 0c0 -4.2096252 3.4125748 -7.6221924 7.6222 -7.6221924l55.747726 0c2.0215302 0 3.960266 0.8030548 5.3897095 2.232483c1.4294434 1.4294434 2.2324905 3.3681793 2.2324905 5.3897095l0 30.487885c0 4.2096252 -3.4125748 7.6222076 -7.6222 7.6222076l-55.747726 0c-4.2096252 0 -7.6222 -3.4125824 -7.6222 -7.6222076z" fill-rule="evenodd"/><path fill="#000000" d="m62.670784 161.803l0 -6.984375l0.890625 0l0 6.234375l3.0625 0l0 0.75l-3.953125 0zm7.1321106 0.125q-0.75 0 -1.375 -0.265625q-0.625 -0.28125 -1.078125 -0.765625l0.53125 -0.625q0.375 0.40625 0.875 0.640625q0.5 0.234375 1.046875 0.234375q0.703125 0 1.078125 -0.3125q0.390625 -0.3125 0.390625 -0.828125q0 -0.265625 -0.09375 -0.4375q-0.09375 -0.1875 -0.25 -0.328125q-0.15625 -0.140625 -0.375 -0.234375q-0.203125 -0.109375 -0.453125 -0.234375l-1.0 -0.4375q-0.25 -0.09375 -0.5 -0.25q-0.25 -0.15625 -0.453125 -0.359375q-0.203125 -0.21875 -0.34375 -0.5q-0.125 -0.296875 -0.125 -0.6875q0 -0.390625 0.171875 -0.734375q0.171875 -0.34375 0.453125 -0.59375q0.296875 -0.25 0.6875 -0.390625q0.40625 -0.140625 0.890625 -0.140625q0.625 0 1.15625 0.25q0.53125 0.234375 0.90625 0.625l-0.46875 0.5625q-0.328125 -0.296875 -0.71875 -0.46875q-0.390625 -0.1875 -0.875 -0.1875q-0.59375 0 -0.953125 0.28125q-0.34375 0.265625 -0.34375 0.75q0 0.25 0.09375 0.4375q0.109375 0.171875 0.28125 0.3125q0.171875 0.125 0.359375 0.234375q0.203125 0.09375 0.421875 0.171875l1.0 0.421875q0.296875 0.125 0.5625 0.296875q0.265625 0.171875 0.453125 0.390625q0.1875 0.21875 0.296875 0.515625q0.125 0.28125 0.125 0.671875q0 0.40625 -0.171875 0.78125q-0.171875 0.359375 -0.484375 0.625q-0.296875 0.265625 -0.734375 0.421875q-0.4375 0.15625 -0.984375 0.15625zm5.1904907 -0.125l0 -6.25l-2.109375 0l0 -0.734375l5.109375 0l0 0.734375l-2.109375 0l0 6.25l-0.890625 0zm4.2586823 0l0 -6.984375l1.078125 0l1.34375 3.71875q0.125 0.359375 0.234375 0.734375q0.125 0.375 0.265625 0.734375l0.03125 0q0.125 -0.359375 0.234375 -0.734375q0.125 -0.375 0.25 -0.734375l1.328125 -3.71875l1.0625 0l0 6.984375l-0.828125 0l0 -3.84375q0 -0.46875 0.046875 -1.03125q0.046875 -0.578125 0.078125 -1.046875l-0.046875 0l-0.546875 1.59375l-1.328125 3.625l-0.59375 0l-1.3125 -3.625l-0.5625 -1.59375l-0.03125 0q0.03125 0.46875 0.0625 1.046875q0.046875 0.5625 0.046875 1.03125l0 3.84375l-0.8125 0z" fill-rule="nonzero"/><path fill="#e9edee" d="m65.46488 223.63794l0 0c0 -1.5494843 1.2561111 -2.805603 2.8055954 -2.805603l11.222031 0l0 0c0.74409485 0 1.4577103 0.29559326 1.9838562 0.8217468c0.52615356 0.52615356 0.8217392 1.2397614 0.8217392 1.9838562l0 67.963684c0 1.549469 -1.2561035 2.805603 -2.8055954 2.805603l-11.222031 0c-1.5494843 0 -2.8055954 -1.256134 -2.8055954 -2.805603z" fill-rule="evenodd"/><path stroke="#1a1a1a" stroke-width="1.0" stroke-linejoin="round" stroke-linecap="butt" d="m65.46488 223.63794l0 0c0 -1.5494843 1.2561111 -2.805603 2.8055954 -2.805603l11.222031 0l0 0c0.74409485 0 1.4577103 0.29559326 1.9838562 0.8217468c0.52615356 0.52615356 0.8217392 1.2397614 0.8217392 1.9838562l0 67.963684c0 1.549469 -1.2561035 2.805603 -2.8055954 2.805603l-11.222031 0c-1.5494843 0 -2.8055954 -1.256134 -2.8055954 -2.805603z" fill-rule="evenodd"/><path fill="#ffffff" d="m67.99188 230.02081l0 0c0 -3.2527466 2.6368637 -5.889618 5.8896103 -5.889618l0 0c1.562027 0 3.0600662 0.6205139 4.164589 1.7250366c1.1045151 1.1045074 1.725029 2.6025543 1.725029 4.1645813l0 0c0 3.2527466 -2.6368713 5.889618 -5.889618 5.889618l0 0c-3.2527466 0 -5.8896103 -2.6368713 -5.8896103 -5.889618z" fill-rule="evenodd"/><path stroke="#1a1a1a" stroke-width="1.0" stroke-linejoin="round" stroke-linecap="butt" d="m67.99188 230.02081l0 0c0 -3.2527466 2.6368637 -5.889618 5.8896103 -5.889618l0 0c1.562027 0 3.0600662 0.6205139 4.164589 1.7250366c1.1045151 1.1045074 1.725029 2.6025543 1.725029 4.1645813l0 0c0 3.2527466 -2.6368713 5.889618 -5.889618 5.889618l0 0c-3.2527466 0 -5.8896103 -2.6368713 -5.8896103 -5.889618z" fill-rule="evenodd"/><path fill="#d9d9d9" d="m67.99188 266.872l0 0c0 -3.2527466 2.6368637 -5.889618 5.8896103 -5.889618l0 0c1.562027 0 3.0600662 0.6205139 4.164589 1.7250366c1.1045151 1.1045227 1.725029 2.6025696 1.725029 4.1645813l0 0c0 3.2527466 -2.6368713 5.889618 -5.889618 5.889618l0 0c-3.2527466 0 -5.8896103 -2.6368713 -5.8896103 -5.889618z" fill-rule="evenodd"/><path stroke="#1a1a1a" stroke-width="1.0" stroke-linejoin="round" stroke-linecap="butt" d="m67.99188 266.872l0 0c0 -3.2527466 2.6368637 -5.889618 5.8896103 -5.889618l0 0c1.562027 0 3.0600662 0.6205139 4.164589 1.7250366c1.1045151 1.1045227 1.725029 2.6025696 1.725029 4.1645813l0 0c0 3.2527466 -2.6368713 5.889618 -5.889618 5.889618l0 0c-3.2527466 0 -5.8896103 -2.6368713 -5.8896103 -5.889618z" fill-rule="evenodd"/><path fill="#666666" d="m67.99188 285.2976l0 0c0 -3.2527466 2.6368637 -5.889618 5.8896103 -5.889618l0 0c1.562027 0 3.0600662 0.6205139 4.164589 1.7250366c1.1045151 1.1045227 1.725029 2.6025696 1.725029 4.1645813l0 0c0 3.2527466 -2.6368713 5.889618 -5.889618 5.889618l0 0c-3.2527466 0 -5.8896103 -2.6368713 -5.8896103 -5.889618z" fill-rule="evenodd"/><path stroke="#1a1a1a" stroke-width="1.0" stroke-linejoin="round" stroke-linecap="butt" d="m67.99188 285.2976l0 0c0 -3.2527466 2.6368637 -5.889618 5.8896103 -5.889618l0 0c1.562027 0 3.0600662 0.6205139 4.164589 1.7250366c1.1045151 1.1045227 1.725029 2.6025696 1.725029 4.1645813l0 0c0 3.2527466 -2.6368713 5.889618 -5.889618 5.889618l0 0c-3.2527466 0 -5.8896103 -2.6368713 -5.8896103 -5.889618z" fill-rule="evenodd"/><path fill="#000000" d="m67.99188 248.44641l0 0c0 -3.2527466 2.6368637 -5.889618 5.8896103 -5.889618l0 0c1.562027 0 3.0600662 0.6205139 4.164589 1.7250366c1.1045151 1.1045074 1.725029 2.6025543 1.725029 4.1645813l0 0c0 3.2527466 -2.6368713 5.889618 -5.889618 5.889618l0 0c-3.2527466 0 -5.8896103 -2.6368713 -5.8896103 -5.889618z" fill-rule="evenodd"/><path stroke="#1a1a1a" stroke-width="1.0" stroke-linejoin="round" stroke-linecap="butt" d="m67.99188 248.44641l0 0c0 -3.2527466 2.6368637 -5.889618 5.8896103 -5.889618l0 0c1.562027 0 3.0600662 0.6205139 4.164589 1.7250366c1.1045151 1.1045074 1.725029 2.6025543 1.725029 4.1645813l0 0c0 3.2527466 -2.6368713 5.889618 -5.889618 5.889618l0 0c-3.2527466 0 -5.8896103 -2.6368713 -5.8896103 -5.889618z" fill-rule="evenodd"/><path fill="#e9edee" d="m65.46488 24.523762l0 0c0 -1.5494862 1.2561111 -2.8055935 2.8055954 -2.8055935l11.222031 0l0 0c0.74409485 0 1.4577103 0.29558945 1.9838562 0.8217392c0.52615356 0.52615166 0.8217392 1.2397652 0.8217392 1.9838543l0 67.963684c0 1.5494843 -1.2561035 2.8055878 -2.8055954 2.8055878l-11.222031 0c-1.5494843 0 -2.8055954 -1.2561035 -2.8055954 -2.8055878z" fill-rule="evenodd"/><path stroke="#1a1a1a" stroke-width="1.0" stroke-linejoin="round" stroke-linecap="butt" d="m65.46488 24.523762l0 0c0 -1.5494862 1.2561111 -2.8055935 2.8055954 -2.8055935l11.222031 0l0 0c0.74409485 0 1.4577103 0.29558945 1.9838562 0.8217392c0.52615356 0.52615166 0.8217392 1.2397652 0.8217392 1.9838543l0 67.963684c0 1.5494843 -1.2561035 2.8055878 -2.8055954 2.8055878l-11.222031 0c-1.5494843 0 -2.8055954 -1.2561035 -2.8055954 -2.8055878z" fill-rule="evenodd"/><path fill="#ffffff" d="m67.99188 30.906637l0 0c0 -3.2527428 2.6368637 -5.889614 5.8896103 -5.889614l0 0c1.562027 0 3.0600662 0.620512 4.164589 1.725029c1.1045151 1.104517 1.725029 2.6025639 1.725029 4.164585l0 0c0 3.2527447 -2.6368713 5.889616 -5.889618 5.889616l0 0c-3.2527466 0 -5.8896103 -2.6368713 -5.8896103 -5.889616z" fill-rule="evenodd"/><path stroke="#1a1a1a" stroke-width="1.0" stroke-linejoin="round" stroke-linecap="butt" d="m67.99188 30.906637l0 0c0 -3.2527428 2.6368637 -5.889614 5.8896103 -5.889614l0 0c1.562027 0 3.0600662 0.620512 4.164589 1.725029c1.1045151 1.104517 1.725029 2.6025639 1.725029 4.164585l0 0c0 3.2527447 -2.6368713 5.889616 -5.889618 5.889616l0 0c-3.2527466 0 -5.8896103 -2.6368713 -5.8896103 -5.889616z" fill-rule="evenodd"/><path fill="#d9d9d9" d="m67.99188 67.757835l0 0c0 -3.2527466 2.6368637 -5.889614 5.8896103 -5.889614l0 0c1.562027 0 3.0600662 0.6205139 4.164589 1.725029c1.1045151 1.1045189 1.725029 2.6025658 1.725029 4.164585l0 0c0 3.2527466 -2.6368713 5.889618 -5.889618 5.889618l0 0c-3.2527466 0 -5.8896103 -2.6368713 -5.8896103 -5.889618z" fill-rule="evenodd"/><path stroke="#1a1a1a" stroke-width="1.0" stroke-linejoin="round" stroke-linecap="butt" d="m67.99188 67.757835l0 0c0 -3.2527466 2.6368637 -5.889614 5.8896103 -5.889614l0 0c1.562027 0 3.0600662 0.6205139 4.164589 1.725029c1.1045151 1.1045189 1.725029 2.6025658 1.725029 4.164585l0 0c0 3.2527466 -2.6368713 5.889618 -5.889618 5.889618l0 0c-3.2527466 0 -5.8896103 -2.6368713 -5.8896103 -5.889618z" fill-rule="evenodd"/><path fill="#666666" d="m67.99188 86.18343l0 0c0 -3.252739 2.6368637 -5.8896103 5.8896103 -5.8896103l0 0c1.562027 0 3.0600662 0.6205063 4.164589 1.725029c1.1045151 1.1045151 1.725029 2.602562 1.725029 4.1645813l0 0c0 3.2527466 -2.6368713 5.889618 -5.889618 5.889618l0 0c-3.2527466 0 -5.8896103 -2.6368713 -5.8896103 -5.889618z" fill-rule="evenodd"/><path stroke="#1a1a1a" stroke-width="1.0" stroke-linejoin="round" stroke-linecap="butt" d="m67.99188 86.18343l0 0c0 -3.252739 2.6368637 -5.8896103 5.8896103 -5.8896103l0 0c1.562027 0 3.0600662 0.6205063 4.164589 1.725029c1.1045151 1.1045151 1.725029 2.602562 1.725029 4.1645813l0 0c0 3.2527466 -2.6368713 5.889618 -5.889618 5.889618l0 0c-3.2527466 0 -5.8896103 -2.6368713 -5.8896103 -5.889618z" fill-rule="evenodd"/><path fill="#000000" d="m67.99188 49.332237l0 0c0 -3.2527428 2.6368637 -5.889614 5.8896103 -5.889614l0 0c1.562027 0 3.0600662 0.6205101 4.164589 1.725029c1.1045151 1.1045151 1.725029 2.602562 1.725029 4.164585l0 0c0 3.2527428 -2.6368713 5.889614 -5.889618 5.889614l0 0c-3.2527466 0 -5.8896103 -2.6368713 -5.8896103 -5.889614z" fill-rule="evenodd"/><path stroke="#1a1a1a" stroke-width="1.0" stroke-linejoin="round" stroke-linecap="butt" d="m67.99188 49.332237l0 0c0 -3.2527428 2.6368637 -5.889614 5.8896103 -5.889614l0 0c1.562027 0 3.0600662 0.6205101 4.164589 1.725029c1.1045151 1.1045151 1.725029 2.602562 1.725029 4.164585l0 0c0 3.2527428 -2.6368713 5.889614 -5.889618 5.889614l0 0c-3.2527466 0 -5.8896103 -2.6368713 -5.8896103 -5.889614z" fill-rule="evenodd"/><path fill="#000000" fill-opacity="0.0" d="m51.692913 338.97385l0 0c0 -2.5744934 2.0870285 -4.661499 4.6615105 -4.661499l35.05493 0c1.2363129 0 2.4219818 0.49111938 3.2961884 1.3653259c0.8741989 0.874176 1.3653259 2.0598755 1.3653259 3.296173l0 18.645477c0 2.5744934 -2.0870361 4.6615295 -4.6615143 4.6615295l-35.05493 0c-2.574482 0 -4.6615105 -2.0870361 -4.6615105 -4.6615295z" fill-rule="evenodd"/><path stroke="#1a1a1a" stroke-width="1.0" stroke-linejoin="round" stroke-linecap="butt" d="m51.692913 338.97385l0 0c0 -2.5744934 2.0870285 -4.661499 4.6615105 -4.661499l35.05493 0c1.2363129 0 2.4219818 0.49111938 3.2961884 1.3653259c0.8741989 0.874176 1.3653259 2.0598755 1.3653259 3.296173l0 18.645477c0 2.5744934 -2.0870361 4.6615295 -4.6615143 4.6615295l-35.05493 0c-2.574482 0 -4.6615105 -2.0870361 -4.6615105 -4.6615295z" fill-rule="evenodd"/><path fill="#000000" d="m65.14486 352.0366l0 -7.59375l0.875 0l0 2.078125l-0.03125 1.0625q0.375 -0.359375 0.78125 -0.609375q0.40625 -0.25 0.9375 -0.25q0.828125 0 1.203125 0.515625q0.375 0.515625 0.375 1.515625l0 3.28125l-0.875 0l0 -3.171875q0 -0.734375 -0.234375 -1.046875q-0.234375 -0.328125 -0.734375 -0.328125q-0.40625 0 -0.71875 0.203125q-0.3125 0.203125 -0.703125 0.59375l0 3.75l-0.875 0zm7.812683 0.125q-0.484375 0 -0.921875 -0.171875q-0.421875 -0.1875 -0.75 -0.53125q-0.328125 -0.34375 -0.53125 -0.84375q-0.203125 -0.515625 -0.203125 -1.15625q0 -0.65625 0.203125 -1.15625q0.203125 -0.5 0.53125 -0.84375q0.328125 -0.359375 0.75 -0.546875q0.4375 -0.1875 0.921875 -0.1875q0.484375 0 0.90625 0.1875q0.4375 0.1875 0.765625 0.546875q0.328125 0.34375 0.515625 0.84375q0.203125 0.5 0.203125 1.15625q0 0.640625 -0.203125 1.15625q-0.1875 0.5 -0.515625 0.84375q-0.328125 0.34375 -0.765625 0.53125q-0.421875 0.171875 -0.90625 0.171875zm0 -0.71875q0.328125 0 0.59375 -0.140625q0.28125 -0.15625 0.484375 -0.40625q0.203125 -0.265625 0.296875 -0.625q0.109375 -0.359375 0.109375 -0.8125q0 -0.453125 -0.109375 -0.8125q-0.09375 -0.375 -0.296875 -0.640625q-0.203125 -0.265625 -0.484375 -0.40625q-0.265625 -0.140625 -0.59375 -0.140625q-0.328125 0 -0.609375 0.140625q-0.28125 0.140625 -0.484375 0.40625q-0.1875 0.265625 -0.296875 0.640625q-0.109375 0.359375 -0.109375 0.8125q0 0.453125 0.109375 0.8125q0.109375 0.359375 0.296875 0.625q0.203125 0.25 0.484375 0.40625q0.28125 0.140625 0.609375 0.140625zm4.5726166 0.59375l-1.4375 -5.171875l0.90625 0l0.765625 2.984375q0.078125 0.375 0.15625 0.734375q0.078125 0.34375 0.15625 0.703125l0.03125 0q0.09375 -0.359375 0.171875 -0.71875q0.09375 -0.359375 0.1875 -0.71875l0.796875 -2.984375l0.84375 0l0.8125 2.984375q0.09375 0.375 0.1875 0.734375q0.09375 0.34375 0.1875 0.703125l0.03125 0q0.09375 -0.359375 0.15625 -0.703125q0.078125 -0.359375 0.171875 -0.734375l0.75 -2.984375l0.828125 0l-1.375 5.171875l-1.078125 0l-0.734375 -2.78125q-0.09375 -0.375 -0.1875 -0.734375q-0.078125 -0.359375 -0.171875 -0.75l-0.046875 0q-0.078125 0.390625 -0.171875 0.765625q-0.078125 0.359375 -0.1875 0.734375l-0.71875 2.765625l-1.03125 0z" fill-rule="nonzero"/><path fill="#e9edee" d="m417.57217 142.81905l0 0c0 -4.2096252 3.4125671 -7.6221924 7.6221924 -7.6221924l55.74774 0c2.021515 0 3.960266 0.8030548 5.3897095 2.232483c1.4294434 1.4294434 2.232483 3.3681793 2.232483 5.3897095l0 30.487885c0 4.2096252 -3.4125671 7.6222076 -7.6221924 7.6222076l-55.74774 0c-4.2096252 0 -7.6221924 -3.4125824 -7.6221924 -7.6222076z" fill-rule="evenodd"/><path stroke="#000000" stroke-width="1.0" stroke-linejoin="round" stroke-linecap="butt" d="m417.57217 142.81905l0 0c0 -4.2096252 3.4125671 -7.6221924 7.6221924 -7.6221924l55.74774 0c2.021515 0 3.960266 0.8030548 5.3897095 2.232483c1.4294434 1.4294434 2.232483 3.3681793 2.232483 5.3897095l0 30.487885c0 4.2096252 -3.4125671 7.6222076 -7.6221924 7.6222076l-55.74774 0c-4.2096252 0 -7.6221924 -3.4125824 -7.6221924 -7.6222076z" fill-rule="evenodd"/><path fill="#000000" d="m441.85715 161.803l0 -6.984375l0.890625 0l0 6.234375l3.0625 0l0 0.75l-3.953125 0zm7.1321106 0.125q-0.75 0 -1.375 -0.265625q-0.625 -0.28125 -1.078125 -0.765625l0.53125 -0.625q0.375 0.40625 0.875 0.640625q0.5 0.234375 1.046875 0.234375q0.703125 0 1.078125 -0.3125q0.390625 -0.3125 0.390625 -0.828125q0 -0.265625 -0.09375 -0.4375q-0.09375 -0.1875 -0.25 -0.328125q-0.15625 -0.140625 -0.375 -0.234375q-0.203125 -0.109375 -0.453125 -0.234375l-1.0 -0.4375q-0.25 -0.09375 -0.5 -0.25q-0.25 -0.15625 -0.453125 -0.359375q-0.203125 -0.21875 -0.34375 -0.5q-0.125 -0.296875 -0.125 -0.6875q0 -0.390625 0.171875 -0.734375q0.171875 -0.34375 0.453125 -0.59375q0.296875 -0.25 0.6875 -0.390625q0.40625 -0.140625 0.890625 -0.140625q0.625 0 1.15625 0.25q0.53125 0.234375 0.90625 0.625l-0.46875 0.5625q-0.328125 -0.296875 -0.71875 -0.46875q-0.390625 -0.1875 -0.875 -0.1875q-0.59375 0 -0.953125 0.28125q-0.34375 0.265625 -0.34375 0.75q0 0.25 0.09375 0.4375q0.109375 0.171875 0.28125 0.3125q0.171875 0.125 0.359375 0.234375q0.203125 0.09375 0.421875 0.171875l1.0 0.421875q0.296875 0.125 0.5625 0.296875q0.265625 0.171875 0.453125 0.390625q0.1875 0.21875 0.296875 0.515625q0.125 0.28125 0.125 0.671875q0 0.40625 -0.171875 0.78125q-0.171875 0.359375 -0.484375 0.625q-0.296875 0.265625 -0.734375 0.421875q-0.4375 0.15625 -0.984375 0.15625zm5.1904907 -0.125l0 -6.25l-2.109375 0l0 -0.734375l5.109375 0l0 0.734375l-2.109375 0l0 6.25l-0.890625 0zm4.258667 0l0 -6.984375l1.078125 0l1.34375 3.71875q0.125 0.359375 0.234375 0.734375q0.125 0.375 0.265625 0.734375l0.03125 0q0.125 -0.359375 0.234375 -0.734375q0.125 -0.375 0.25 -0.734375l1.328125 -3.71875l1.0625 0l0 6.984375l-0.828125 0l0 -3.84375q0 -0.46875 0.046875 -1.03125q0.046875 -0.578125 0.078125 -1.046875l-0.046875 0l-0.546875 1.59375l-1.328125 3.625l-0.59375 0l-1.3125 -3.625l-0.5625 -1.59375l-0.03125 0q0.03125 0.46875 0.0625 1.046875q0.046875 0.5625 0.046875 1.03125l0 3.84375l-0.8125 0z" fill-rule="nonzero"/><path fill="#e9edee" d="m444.65125 223.63794l0 0c0 -1.5494843 1.2561035 -2.805603 2.8055725 -2.805603l11.222046 0l0 0c0.7440796 0 1.4577026 0.29559326 1.9838562 0.8217468c0.52615356 0.52615356 0.8217468 1.2397614 0.8217468 1.9838562l0 67.963684c0 1.549469 -1.2561035 2.805603 -2.805603 2.805603l-11.222046 0c-1.549469 0 -2.8055725 -1.256134 -2.8055725 -2.805603z" fill-rule="evenodd"/><path stroke="#1a1a1a" stroke-width="1.0" stroke-linejoin="round" stroke-linecap="butt" d="m444.65125 223.63794l0 0c0 -1.5494843 1.2561035 -2.805603 2.8055725 -2.805603l11.222046 0l0 0c0.7440796 0 1.4577026 0.29559326 1.9838562 0.8217468c0.52615356 0.52615356 0.8217468 1.2397614 0.8217468 1.9838562l0 67.963684c0 1.549469 -1.2561035 2.805603 -2.805603 2.805603l-11.222046 0c-1.549469 0 -2.8055725 -1.256134 -2.8055725 -2.805603z" fill-rule="evenodd"/><path fill="#cccccc" d="m447.17822 230.02081l0 0c0 -3.2527466 2.6368713 -5.889618 5.889618 -5.889618l0 0c1.5620422 0 3.0600586 0.6205139 4.1645813 1.7250366c1.1045227 1.1045074 1.7250366 2.6025543 1.7250366 4.1645813l0 0c0 3.2527466 -2.6368713 5.889618 -5.889618 5.889618l0 0c-3.2527466 0 -5.889618 -2.6368713 -5.889618 -5.889618z" fill-rule="evenodd"/><path stroke="#1a1a1a" stroke-width="1.0" stroke-linejoin="round" stroke-linecap="butt" d="m447.17822 230.02081l0 0c0 -3.2527466 2.6368713 -5.889618 5.889618 -5.889618l0 0c1.5620422 0 3.0600586 0.6205139 4.1645813 1.7250366c1.1045227 1.1045074 1.7250366 2.6025543 1.7250366 4.1645813l0 0c0 3.2527466 -2.6368713 5.889618 -5.889618 5.889618l0 0c-3.2527466 0 -5.889618 -2.6368713 -5.889618 -5.889618z" fill-rule="evenodd"/><path fill="#ffffff" d="m447.17822 266.872l0 0c0 -3.2527466 2.6368713 -5.889618 5.889618 -5.889618l0 0c1.5620422 0 3.0600586 0.6205139 4.1645813 1.7250366c1.1045227 1.1045227 1.7250366 2.6025696 1.7250366 4.1645813l0 0c0 3.2527466 -2.6368713 5.889618 -5.889618 5.889618l0 0c-3.2527466 0 -5.889618 -2.6368713 -5.889618 -5.889618z" fill-rule="evenodd"/><path stroke="#1a1a1a" stroke-width="1.0" stroke-linejoin="round" stroke-linecap="butt" d="m447.17822 266.872l0 0c0 -3.2527466 2.6368713 -5.889618 5.889618 -5.889618l0 0c1.5620422 0 3.0600586 0.6205139 4.1645813 1.7250366c1.1045227 1.1045227 1.7250366 2.6025696 1.7250366 4.1645813l0 0c0 3.2527466 -2.6368713 5.889618 -5.889618 5.889618l0 0c-3.2527466 0 -5.889618 -2.6368713 -5.889618 -5.889618z" fill-rule="evenodd"/><path fill="#efefef" d="m447.17822 285.2976l0 0c0 -3.2527466 2.6368713 -5.889618 5.889618 -5.889618l0 0c1.5620422 0 3.0600586 0.6205139 4.1645813 1.7250366c1.1045227 1.1045227 1.7250366 2.6025696 1.7250366 4.1645813l0 0c0 3.2527466 -2.6368713 5.889618 -5.889618 5.889618l0 0c-3.2527466 0 -5.889618 -2.6368713 -5.889618 -5.889618z" fill-rule="evenodd"/><path stroke="#1a1a1a" stroke-width="1.0" stroke-linejoin="round" stroke-linecap="butt" d="m447.17822 285.2976l0 0c0 -3.2527466 2.6368713 -5.889618 5.889618 -5.889618l0 0c1.5620422 0 3.0600586 0.6205139 4.1645813 1.7250366c1.1045227 1.1045227 1.7250366 2.6025696 1.7250366 4.1645813l0 0c0 3.2527466 -2.6368713 5.889618 -5.889618 5.889618l0 0c-3.2527466 0 -5.889618 -2.6368713 -5.889618 -5.889618z" fill-rule="evenodd"/><path fill="#d9d9d9" d="m447.17822 248.44641l0 0c0 -3.2527466 2.6368713 -5.889618 5.889618 -5.889618l0 0c1.5620422 0 3.0600586 0.6205139 4.1645813 1.7250366c1.1045227 1.1045074 1.7250366 2.6025543 1.7250366 4.1645813l0 0c0 3.2527466 -2.6368713 5.889618 -5.889618 5.889618l0 0c-3.2527466 0 -5.889618 -2.6368713 -5.889618 -5.889618z" fill-rule="evenodd"/><path stroke="#1a1a1a" stroke-width="1.0" stroke-linejoin="round" stroke-linecap="butt" d="m447.17822 248.44641l0 0c0 -3.2527466 2.6368713 -5.889618 5.889618 -5.889618l0 0c1.5620422 0 3.0600586 0.6205139 4.1645813 1.7250366c1.1045227 1.1045074 1.7250366 2.6025543 1.7250366 4.1645813l0 0c0 3.2527466 -2.6368713 5.889618 -5.889618 5.889618l0 0c-3.2527466 0 -5.889618 -2.6368713 -5.889618 -5.889618z" fill-rule="evenodd"/><path fill="#e9edee" d="m444.65125 24.523762l0 0c0 -1.5494862 1.2561035 -2.8055935 2.8055725 -2.8055935l11.222046 0l0 0c0.7440796 0 1.4577026 0.29558945 1.9838562 0.8217392c0.52615356 0.52615166 0.8217468 1.2397652 0.8217468 1.9838543l0 67.963684c0 1.5494843 -1.2561035 2.8055878 -2.805603 2.8055878l-11.222046 0c-1.549469 0 -2.8055725 -1.2561035 -2.8055725 -2.8055878z" fill-rule="evenodd"/><path stroke="#1a1a1a" stroke-width="1.0" stroke-linejoin="round" stroke-linecap="butt" d="m444.65125 24.523762l0 0c0 -1.5494862 1.2561035 -2.8055935 2.8055725 -2.8055935l11.222046 0l0 0c0.7440796 0 1.4577026 0.29558945 1.9838562 0.8217392c0.52615356 0.52615166 0.8217468 1.2397652 0.8217468 1.9838543l0 67.963684c0 1.5494843 -1.2561035 2.8055878 -2.805603 2.8055878l-11.222046 0c-1.549469 0 -2.8055725 -1.2561035 -2.8055725 -2.8055878z" fill-rule="evenodd"/><path fill="#d9d9d9" d="m447.17822 30.906637l0 0c0 -3.2527428 2.6368713 -5.889614 5.889618 -5.889614l0 0c1.5620422 0 3.0600586 0.620512 4.1645813 1.725029c1.1045227 1.104517 1.7250366 2.6025639 1.7250366 4.164585l0 0c0 3.2527447 -2.6368713 5.889616 -5.889618 5.889616l0 0c-3.2527466 0 -5.889618 -2.6368713 -5.889618 -5.889616z" fill-rule="evenodd"/><path stroke="#1a1a1a" stroke-width="1.0" stroke-linejoin="round" stroke-linecap="butt" d="m447.17822 30.906637l0 0c0 -3.2527428 2.6368713 -5.889614 5.889618 -5.889614l0 0c1.5620422 0 3.0600586 0.620512 4.1645813 1.725029c1.1045227 1.104517 1.7250366 2.6025639 1.7250366 4.164585l0 0c0 3.2527447 -2.6368713 5.889616 -5.889618 5.889616l0 0c-3.2527466 0 -5.889618 -2.6368713 -5.889618 -5.889616z" fill-rule="evenodd"/><path fill="#b7b7b7" d="m447.17822 67.757835l0 0c0 -3.2527466 2.6368713 -5.889614 5.889618 -5.889614l0 0c1.5620422 0 3.0600586 0.6205139 4.1645813 1.725029c1.1045227 1.1045189 1.7250366 2.6025658 1.7250366 4.164585l0 0c0 3.2527466 -2.6368713 5.889618 -5.889618 5.889618l0 0c-3.2527466 0 -5.889618 -2.6368713 -5.889618 -5.889618z" fill-rule="evenodd"/><path stroke="#1a1a1a" stroke-width="1.0" stroke-linejoin="round" stroke-linecap="butt" d="m447.17822 67.757835l0 0c0 -3.2527466 2.6368713 -5.889614 5.889618 -5.889614l0 0c1.5620422 0 3.0600586 0.6205139 4.1645813 1.725029c1.1045227 1.1045189 1.7250366 2.6025658 1.7250366 4.164585l0 0c0 3.2527466 -2.6368713 5.889618 -5.889618 5.889618l0 0c-3.2527466 0 -5.889618 -2.6368713 -5.889618 -5.889618z" fill-rule="evenodd"/><path fill="#b7b7b7" d="m447.17822 86.18343l0 0c0 -3.252739 2.6368713 -5.8896103 5.889618 -5.8896103l0 0c1.5620422 0 3.0600586 0.6205063 4.1645813 1.725029c1.1045227 1.1045151 1.7250366 2.602562 1.7250366 4.1645813l0 0c0 3.2527466 -2.6368713 5.889618 -5.889618 5.889618l0 0c-3.2527466 0 -5.889618 -2.6368713 -5.889618 -5.889618z" fill-rule="evenodd"/><path stroke="#1a1a1a" stroke-width="1.0" stroke-linejoin="round" stroke-linecap="butt" d="m447.17822 86.18343l0 0c0 -3.252739 2.6368713 -5.8896103 5.889618 -5.8896103l0 0c1.5620422 0 3.0600586 0.6205063 4.1645813 1.725029c1.1045227 1.1045151 1.7250366 2.602562 1.7250366 4.1645813l0 0c0 3.2527466 -2.6368713 5.889618 -5.889618 5.889618l0 0c-3.2527466 0 -5.889618 -2.6368713 -5.889618 -5.889618z" fill-rule="evenodd"/><path fill="#000000" d="m447.17822 49.332237l0 0c0 -3.2527428 2.6368713 -5.889614 5.889618 -5.889614l0 0c1.5620422 0 3.0600586 0.6205101 4.1645813 1.725029c1.1045227 1.1045151 1.7250366 2.602562 1.7250366 4.164585l0 0c0 3.2527428 -2.6368713 5.889614 -5.889618 5.889614l0 0c-3.2527466 0 -5.889618 -2.6368713 -5.889618 -5.889614z" fill-rule="evenodd"/><path stroke="#1a1a1a" stroke-width="1.0" stroke-linejoin="round" stroke-linecap="butt" d="m447.17822 49.332237l0 0c0 -3.2527428 2.6368713 -5.889614 5.889618 -5.889614l0 0c1.5620422 0 3.0600586 0.6205101 4.1645813 1.725029c1.1045227 1.1045151 1.7250366 2.602562 1.7250366 4.164585l0 0c0 3.2527428 -2.6368713 5.889614 -5.889618 5.889614l0 0c-3.2527466 0 -5.889618 -2.6368713 -5.889618 -5.889614z" fill-rule="evenodd"/><path fill="#000000" fill-opacity="0.0" d="m430.87927 338.97385l0 0c0 -2.5744934 2.0870361 -4.661499 4.661499 -4.661499l35.05493 0c1.2363281 0 2.421997 0.49111938 3.2962036 1.3653259c0.874176 0.874176 1.3653259 2.0598755 1.3653259 3.296173l0 18.645477c0 2.5744934 -2.0870361 4.6615295 -4.6615295 4.6615295l-35.05493 0c-2.574463 0 -4.661499 -2.0870361 -4.661499 -4.6615295z" fill-rule="evenodd"/><path stroke="#1a1a1a" stroke-width="1.0" stroke-linejoin="round" stroke-linecap="butt" d="m430.87927 338.97385l0 0c0 -2.5744934 2.0870361 -4.661499 4.661499 -4.661499l35.05493 0c1.2363281 0 2.421997 0.49111938 3.2962036 1.3653259c0.874176 0.874176 1.3653259 2.0598755 1.3653259 3.296173l0 18.645477c0 2.5744934 -2.0870361 4.6615295 -4.6615295 4.6615295l-35.05493 0c-2.574463 0 -4.661499 -2.0870361 -4.661499 -4.6615295z" fill-rule="evenodd"/><path fill="#000000" d="m445.7467 354.27097q-0.171875 0 -0.328125 -0.03125q-0.140625 -0.03125 -0.265625 -0.078125l0.15625 -0.703125q0.09375 0.03125 0.203125 0.046875q0.109375 0.03125 0.203125 0.03125q0.4375 0 0.71875 -0.3125q0.28125 -0.3125 0.453125 -0.796875l0.109375 -0.375l-2.078125 -5.1875l0.90625 0l1.0625 2.859375q0.109375 0.34375 0.234375 0.71875q0.140625 0.375 0.265625 0.734375l0.03125 0q0.125 -0.34375 0.234375 -0.71875q0.109375 -0.390625 0.203125 -0.734375l0.9375 -2.859375l0.84375 0l-1.9375 5.59375q-0.140625 0.390625 -0.3125 0.71875q-0.171875 0.328125 -0.40625 0.5625q-0.234375 0.25 -0.53125 0.390625q-0.296875 0.140625 -0.703125 0.140625zm6.914032 -2.109375q-0.484375 0 -0.921875 -0.171875q-0.421875 -0.1875 -0.75 -0.53125q-0.328125 -0.34375 -0.53125 -0.84375q-0.203125 -0.515625 -0.203125 -1.15625q0 -0.65625 0.203125 -1.15625q0.203125 -0.5 0.53125 -0.84375q0.328125 -0.359375 0.75 -0.546875q0.4375 -0.1875 0.921875 -0.1875q0.484375 0 0.90625 0.1875q0.4375 0.1875 0.765625 0.546875q0.328125 0.34375 0.515625 0.84375q0.203125 0.5 0.203125 1.15625q0 0.640625 -0.203125 1.15625q-0.1875 0.5 -0.515625 0.84375q-0.328125 0.34375 -0.765625 0.53125q-0.421875 0.171875 -0.90625 0.171875zm0 -0.71875q0.328125 0 0.59375 -0.140625q0.28125 -0.15625 0.484375 -0.40625q0.203125 -0.265625 0.296875 -0.625q0.109375 -0.359375 0.109375 -0.8125q0 -0.453125 -0.109375 -0.8125q-0.09375 -0.375 -0.296875 -0.640625q-0.203125 -0.265625 -0.484375 -0.40625q-0.265625 -0.140625 -0.59375 -0.140625q-0.328125 0 -0.609375 0.140625q-0.28125 0.140625 -0.484375 0.40625q-0.1875 0.265625 -0.296875 0.640625q-0.109375 0.359375 -0.109375 0.8125q0 0.453125 0.109375 0.8125q0.109375 0.359375 0.296875 0.625q0.203125 0.25 0.484375 0.40625q0.28125 0.140625 0.609375 0.140625zm5.2757263 0.71875q-0.828125 0 -1.21875 -0.5q-0.375 -0.515625 -0.375 -1.515625l0 -3.28125l0.890625 0l0 3.15625q0 0.734375 0.21875 1.0625q0.234375 0.328125 0.75 0.328125q0.40625 0 0.703125 -0.203125q0.3125 -0.21875 0.6875 -0.671875l0 -3.671875l0.875 0l0 5.171875l-0.71875 0l-0.078125 -0.8125l-0.03125 0q-0.359375 0.421875 -0.765625 0.6875q-0.390625 0.25 -0.9375 0.25z" fill-rule="nonzero"/><path fill="#e9edee" d="m227.979 142.81905l0 0c0 -4.2096252 3.4125671 -7.6221924 7.6221924 -7.6221924l55.74774 0c2.021515 0 3.960266 0.8030548 5.3897095 2.232483c1.4294434 1.4294434 2.232483 3.3681793 2.232483 5.3897095l0 30.487885c0 4.2096252 -3.4125671 7.6222076 -7.6221924 7.6222076l-55.74774 0c-4.2096252 0 -7.6221924 -3.4125824 -7.6221924 -7.6222076z" fill-rule="evenodd"/><path stroke="#000000" stroke-width="1.0" stroke-linejoin="round" stroke-linecap="butt" d="m227.979 142.81905l0 0c0 -4.2096252 3.4125671 -7.6221924 7.6221924 -7.6221924l55.74774 0c2.021515 0 3.960266 0.8030548 5.3897095 2.232483c1.4294434 1.4294434 2.232483 3.3681793 2.232483 5.3897095l0 30.487885c0 4.2096252 -3.4125671 7.6222076 -7.6221924 7.6222076l-55.74774 0c-4.2096252 0 -7.6221924 -3.4125824 -7.6221924 -7.6222076z" fill-rule="evenodd"/><path fill="#000000" d="m252.26396 161.803l0 -6.984375l0.890625 0l0 6.234375l3.0624847 0l0 0.75l-3.9531097 0zm7.1320953 0.125q-0.75 0 -1.375 -0.265625q-0.625 -0.28125 -1.078125 -0.765625l0.53125 -0.625q0.375 0.40625 0.875 0.640625q0.5 0.234375 1.046875 0.234375q0.703125 0 1.078125 -0.3125q0.390625 -0.3125 0.390625 -0.828125q0 -0.265625 -0.09375 -0.4375q-0.09375 -0.1875 -0.25 -0.328125q-0.15625 -0.140625 -0.375 -0.234375q-0.203125 -0.109375 -0.453125 -0.234375l-1.0 -0.4375q-0.25 -0.09375 -0.5 -0.25q-0.25 -0.15625 -0.453125 -0.359375q-0.203125 -0.21875 -0.34375 -0.5q-0.125 -0.296875 -0.125 -0.6875q0 -0.390625 0.171875 -0.734375q0.171875 -0.34375 0.453125 -0.59375q0.296875 -0.25 0.6875 -0.390625q0.40625 -0.140625 0.890625 -0.140625q0.625 0 1.15625 0.25q0.53125 0.234375 0.90625 0.625l-0.46875 0.5625q-0.328125 -0.296875 -0.71875 -0.46875q-0.390625 -0.1875 -0.875 -0.1875q-0.59375 0 -0.953125 0.28125q-0.34375 0.265625 -0.34375 0.75q0 0.25 0.09375 0.4375q0.109375 0.171875 0.28125 0.3125q0.171875 0.125 0.359375 0.234375q0.203125 0.09375 0.421875 0.171875l1.0 0.421875q0.296875 0.125 0.5625 0.296875q0.265625 0.171875 0.453125 0.390625q0.1875 0.21875 0.296875 0.515625q0.125 0.28125 0.125 0.671875q0 0.40625 -0.171875 0.78125q-0.171875 0.359375 -0.484375 0.625q-0.296875 0.265625 -0.734375 0.421875q-0.4375 0.15625 -0.984375 0.15625zm5.1904907 -0.125l0 -6.25l-2.109375 0l0 -0.734375l5.109375 0l0 0.734375l-2.109375 0l0 6.25l-0.890625 0zm4.2586975 0l0 -6.984375l1.078125 0l1.34375 3.71875q0.125 0.359375 0.234375 0.734375q0.125 0.375 0.265625 0.734375l0.03125 0q0.125 -0.359375 0.234375 -0.734375q0.125 -0.375 0.25 -0.734375l1.328125 -3.71875l1.0625 0l0 6.984375l-0.828125 0l0 -3.84375q0 -0.46875 0.046875 -1.03125q0.046875 -0.578125 0.078125 -1.046875l-0.046875 0l-0.546875 1.59375l-1.328125 3.625l-0.59375 0l-1.3125 -3.625l-0.5625 -1.59375l-0.03125 0q0.03125 0.46875 0.0625 1.046875q0.046875 0.5625 0.046875 1.03125l0 3.84375l-0.8125 0z" fill-rule="nonzero"/><path fill="#e9edee" d="m255.05806 223.63794l0 0c0 -1.5494843 1.2561188 -2.805603 2.8055878 -2.805603l11.222046 0l0 0c0.7440796 0 1.4577026 0.29559326 1.9838562 0.8217468c0.52615356 0.52615356 0.8217163 1.2397614 0.8217163 1.9838562l0 67.963684c0 1.549469 -1.2561035 2.805603 -2.8055725 2.805603l-11.222046 0c-1.549469 0 -2.8055878 -1.256134 -2.8055878 -2.805603z" fill-rule="evenodd"/><path stroke="#1a1a1a" stroke-width="1.0" stroke-linejoin="round" stroke-linecap="butt" d="m255.05806 223.63794l0 0c0 -1.5494843 1.2561188 -2.805603 2.8055878 -2.805603l11.222046 0l0 0c0.7440796 0 1.4577026 0.29559326 1.9838562 0.8217468c0.52615356 0.52615356 0.8217163 1.2397614 0.8217163 1.9838562l0 67.963684c0 1.549469 -1.2561035 2.805603 -2.8055725 2.805603l-11.222046 0c-1.549469 0 -2.8055878 -1.256134 -2.8055878 -2.805603z" fill-rule="evenodd"/><path fill="#000000" d="m257.58505 230.02081l0 0c0 -3.2527466 2.6368713 -5.889618 5.889618 -5.889618l0 0c1.5620117 0 3.0600586 0.6205139 4.1645813 1.7250366c1.1045227 1.1045074 1.7250366 2.6025543 1.7250366 4.1645813l0 0c0 3.2527466 -2.6368713 5.889618 -5.889618 5.889618l0 0c-3.2527466 0 -5.889618 -2.6368713 -5.889618 -5.889618z" fill-rule="evenodd"/><path stroke="#1a1a1a" stroke-width="1.0" stroke-linejoin="round" stroke-linecap="butt" d="m257.58505 230.02081l0 0c0 -3.2527466 2.6368713 -5.889618 5.889618 -5.889618l0 0c1.5620117 0 3.0600586 0.6205139 4.1645813 1.7250366c1.1045227 1.1045074 1.7250366 2.6025543 1.7250366 4.1645813l0 0c0 3.2527466 -2.6368713 5.889618 -5.889618 5.889618l0 0c-3.2527466 0 -5.889618 -2.6368713 -5.889618 -5.889618z" fill-rule="evenodd"/><path fill="#000000" d="m257.58505 266.872l0 0c0 -3.2527466 2.6368713 -5.889618 5.889618 -5.889618l0 0c1.5620117 0 3.0600586 0.6205139 4.1645813 1.7250366c1.1045227 1.1045227 1.7250366 2.6025696 1.7250366 4.1645813l0 0c0 3.2527466 -2.6368713 5.889618 -5.889618 5.889618l0 0c-3.2527466 0 -5.889618 -2.6368713 -5.889618 -5.889618z" fill-rule="evenodd"/><path stroke="#1a1a1a" stroke-width="1.0" stroke-linejoin="round" stroke-linecap="butt" d="m257.58505 266.872l0 0c0 -3.2527466 2.6368713 -5.889618 5.889618 -5.889618l0 0c1.5620117 0 3.0600586 0.6205139 4.1645813 1.7250366c1.1045227 1.1045227 1.7250366 2.6025696 1.7250366 4.1645813l0 0c0 3.2527466 -2.6368713 5.889618 -5.889618 5.889618l0 0c-3.2527466 0 -5.889618 -2.6368713 -5.889618 -5.889618z" fill-rule="evenodd"/><path fill="#ffffff" d="m257.58505 285.2976l0 0c0 -3.2527466 2.6368713 -5.889618 5.889618 -5.889618l0 0c1.5620117 0 3.0600586 0.6205139 4.1645813 1.7250366c1.1045227 1.1045227 1.7250366 2.6025696 1.7250366 4.1645813l0 0c0 3.2527466 -2.6368713 5.889618 -5.889618 5.889618l0 0c-3.2527466 0 -5.889618 -2.6368713 -5.889618 -5.889618z" fill-rule="evenodd"/><path stroke="#1a1a1a" stroke-width="1.0" stroke-linejoin="round" stroke-linecap="butt" d="m257.58505 285.2976l0 0c0 -3.2527466 2.6368713 -5.889618 5.889618 -5.889618l0 0c1.5620117 0 3.0600586 0.6205139 4.1645813 1.7250366c1.1045227 1.1045227 1.7250366 2.6025696 1.7250366 4.1645813l0 0c0 3.2527466 -2.6368713 5.889618 -5.889618 5.889618l0 0c-3.2527466 0 -5.889618 -2.6368713 -5.889618 -5.889618z" fill-rule="evenodd"/><path fill="#ffffff" d="m257.58505 248.44641l0 0c0 -3.2527466 2.6368713 -5.889618 5.889618 -5.889618l0 0c1.5620117 0 3.0600586 0.6205139 4.1645813 1.7250366c1.1045227 1.1045074 1.7250366 2.6025543 1.7250366 4.1645813l0 0c0 3.2527466 -2.6368713 5.889618 -5.889618 5.889618l0 0c-3.2527466 0 -5.889618 -2.6368713 -5.889618 -5.889618z" fill-rule="evenodd"/><path stroke="#1a1a1a" stroke-width="1.0" stroke-linejoin="round" stroke-linecap="butt" d="m257.58505 248.44641l0 0c0 -3.2527466 2.6368713 -5.889618 5.889618 -5.889618l0 0c1.5620117 0 3.0600586 0.6205139 4.1645813 1.7250366c1.1045227 1.1045074 1.7250366 2.6025543 1.7250366 4.1645813l0 0c0 3.2527466 -2.6368713 5.889618 -5.889618 5.889618l0 0c-3.2527466 0 -5.889618 -2.6368713 -5.889618 -5.889618z" fill-rule="evenodd"/><path fill="#e9edee" d="m255.05806 24.523762l0 0c0 -1.5494862 1.2561188 -2.8055935 2.8055878 -2.8055935l11.222046 0l0 0c0.7440796 0 1.4577026 0.29558945 1.9838562 0.8217392c0.52615356 0.52615166 0.8217163 1.2397652 0.8217163 1.9838543l0 67.963684c0 1.5494843 -1.2561035 2.8055878 -2.8055725 2.8055878l-11.222046 0c-1.549469 0 -2.8055878 -1.2561035 -2.8055878 -2.8055878z" fill-rule="evenodd"/><path stroke="#1a1a1a" stroke-width="1.0" stroke-linejoin="round" stroke-linecap="butt" d="m255.05806 24.523762l0 0c0 -1.5494862 1.2561188 -2.8055935 2.8055878 -2.8055935l11.222046 0l0 0c0.7440796 0 1.4577026 0.29558945 1.9838562 0.8217392c0.52615356 0.52615166 0.8217163 1.2397652 0.8217163 1.9838543l0 67.963684c0 1.5494843 -1.2561035 2.8055878 -2.8055725 2.8055878l-11.222046 0c-1.549469 0 -2.8055878 -1.2561035 -2.8055878 -2.8055878z" fill-rule="evenodd"/><path fill="#f3f3f3" d="m257.58505 30.906637l0 0c0 -3.2527428 2.6368713 -5.889614 5.889618 -5.889614l0 0c1.5620117 0 3.0600586 0.620512 4.1645813 1.725029c1.1045227 1.104517 1.7250366 2.6025639 1.7250366 4.164585l0 0c0 3.2527447 -2.6368713 5.889616 -5.889618 5.889616l0 0c-3.2527466 0 -5.889618 -2.6368713 -5.889618 -5.889616z" fill-rule="evenodd"/><path stroke="#1a1a1a" stroke-width="1.0" stroke-linejoin="round" stroke-linecap="butt" d="m257.58505 30.906637l0 0c0 -3.2527428 2.6368713 -5.889614 5.889618 -5.889614l0 0c1.5620117 0 3.0600586 0.620512 4.1645813 1.725029c1.1045227 1.104517 1.7250366 2.6025639 1.7250366 4.164585l0 0c0 3.2527447 -2.6368713 5.889616 -5.889618 5.889616l0 0c-3.2527466 0 -5.889618 -2.6368713 -5.889618 -5.889616z" fill-rule="evenodd"/><path fill="#cccccc" d="m257.58505 67.757835l0 0c0 -3.2527466 2.6368713 -5.889614 5.889618 -5.889614l0 0c1.5620117 0 3.0600586 0.6205139 4.1645813 1.725029c1.1045227 1.1045189 1.7250366 2.6025658 1.7250366 4.164585l0 0c0 3.2527466 -2.6368713 5.889618 -5.889618 5.889618l0 0c-3.2527466 0 -5.889618 -2.6368713 -5.889618 -5.889618z" fill-rule="evenodd"/><path stroke="#1a1a1a" stroke-width="1.0" stroke-linejoin="round" stroke-linecap="butt" d="m257.58505 67.757835l0 0c0 -3.2527466 2.6368713 -5.889614 5.889618 -5.889614l0 0c1.5620117 0 3.0600586 0.6205139 4.1645813 1.725029c1.1045227 1.1045189 1.7250366 2.6025658 1.7250366 4.164585l0 0c0 3.2527466 -2.6368713 5.889618 -5.889618 5.889618l0 0c-3.2527466 0 -5.889618 -2.6368713 -5.889618 -5.889618z" fill-rule="evenodd"/><path fill="#999999" d="m257.58505 86.18343l0 0c0 -3.252739 2.6368713 -5.8896103 5.889618 -5.8896103l0 0c1.5620117 0 3.0600586 0.6205063 4.1645813 1.725029c1.1045227 1.1045151 1.7250366 2.602562 1.7250366 4.1645813l0 0c0 3.2527466 -2.6368713 5.889618 -5.889618 5.889618l0 0c-3.2527466 0 -5.889618 -2.6368713 -5.889618 -5.889618z" fill-rule="evenodd"/><path stroke="#1a1a1a" stroke-width="1.0" stroke-linejoin="round" stroke-linecap="butt" d="m257.58505 86.18343l0 0c0 -3.252739 2.6368713 -5.8896103 5.889618 -5.8896103l0 0c1.5620117 0 3.0600586 0.6205063 4.1645813 1.725029c1.1045227 1.1045151 1.7250366 2.602562 1.7250366 4.1645813l0 0c0 3.2527466 -2.6368713 5.889618 -5.889618 5.889618l0 0c-3.2527466 0 -5.889618 -2.6368713 -5.889618 -5.889618z" fill-rule="evenodd"/><path fill="#434343" d="m257.58505 49.332237l0 0c0 -3.2527428 2.6368713 -5.889614 5.889618 -5.889614l0 0c1.5620117 0 3.0600586 0.6205101 4.1645813 1.725029c1.1045227 1.1045151 1.7250366 2.602562 1.7250366 4.164585l0 0c0 3.2527428 -2.6368713 5.889614 -5.889618 5.889614l0 0c-3.2527466 0 -5.889618 -2.6368713 -5.889618 -5.889614z" fill-rule="evenodd"/><path stroke="#1a1a1a" stroke-width="1.0" stroke-linejoin="round" stroke-linecap="butt" d="m257.58505 49.332237l0 0c0 -3.2527428 2.6368713 -5.889614 5.889618 -5.889614l0 0c1.5620117 0 3.0600586 0.6205101 4.1645813 1.725029c1.1045227 1.1045151 1.7250366 2.602562 1.7250366 4.164585l0 0c0 3.2527428 -2.6368713 5.889614 -5.889618 5.889614l0 0c-3.2527466 0 -5.889618 -2.6368713 -5.889618 -5.889614z" fill-rule="evenodd"/><path fill="#000000" fill-opacity="0.0" d="m241.28609 338.97385l0 0c0 -2.5744934 2.0870361 -4.661499 4.6615143 -4.661499l35.05493 0c1.2362976 0 2.4219666 0.49111938 3.296173 1.3653259c0.87420654 0.874176 1.3653259 2.0598755 1.3653259 3.296173l0 18.645477c0 2.5744934 -2.0870056 4.6615295 -4.661499 4.6615295l-35.05493 0c-2.5744781 0 -4.6615143 -2.0870361 -4.6615143 -4.6615295z" fill-rule="evenodd"/><path stroke="#1a1a1a" stroke-width="1.0" stroke-linejoin="round" stroke-linecap="butt" d="m241.28609 338.97385l0 0c0 -2.5744934 2.0870361 -4.661499 4.6615143 -4.661499l35.05493 0c1.2362976 0 2.4219666 0.49111938 3.296173 1.3653259c0.87420654 0.874176 1.3653259 2.0598755 1.3653259 3.296173l0 18.645477c0 2.5744934 -2.0870056 4.6615295 -4.661499 4.6615295l-35.05493 0c-2.5744781 0 -4.6615143 -2.0870361 -4.6615143 -4.6615295z" fill-rule="evenodd"/><path fill="#000000" d="m258.3605 352.1616q-0.640625 0 -1.078125 -0.375q-0.4375 -0.390625 -0.4375 -1.09375q0 -0.84375 0.75 -1.296875q0.765625 -0.453125 2.4375 -0.640625q0 -0.25 -0.046875 -0.484375q-0.046875 -0.234375 -0.171875 -0.40625q-0.109375 -0.1875 -0.328125 -0.296875q-0.203125 -0.109375 -0.515625 -0.109375q-0.453125 0 -0.859375 0.171875q-0.390625 0.171875 -0.6875 0.375l-0.34375 -0.609375q0.359375 -0.234375 0.875 -0.453125q0.53125 -0.21875 1.15625 -0.21875q0.953125 0 1.375 0.59375q0.421875 0.578125 0.421875 1.546875l0 3.171875l-0.71875 0l-0.078125 -0.625l-0.03125 0q-0.375 0.3125 -0.796875 0.53125q-0.421875 0.21875 -0.921875 0.21875zm0.265625 -0.703125q0.375 0 0.703125 -0.171875q0.328125 -0.171875 0.703125 -0.515625l0 -1.4375q-0.65625 0.078125 -1.109375 0.203125q-0.4375 0.109375 -0.703125 0.28125q-0.265625 0.15625 -0.390625 0.359375q-0.125 0.203125 -0.125 0.453125q0 0.453125 0.265625 0.640625q0.265625 0.1875 0.65625 0.1875zm3.917694 0.578125l0 -5.171875l0.71875 0l0.078125 0.9375l0.03125 0q0.265625 -0.5 0.640625 -0.78125q0.390625 -0.296875 0.828125 -0.296875q0.3125 0 0.5625 0.109375l-0.171875 0.765625q-0.125 -0.03125 -0.234375 -0.046875q-0.109375 -0.03125 -0.265625 -0.03125q-0.328125 0 -0.6875 0.265625q-0.359375 0.265625 -0.625 0.921875l0 3.328125l-0.875 0zm5.791504 0.125q-0.515625 0 -0.96875 -0.1875q-0.453125 -0.1875 -0.796875 -0.53125q-0.328125 -0.34375 -0.53125 -0.84375q-0.1875 -0.5 -0.1875 -1.140625q0 -0.640625 0.203125 -1.140625q0.203125 -0.515625 0.515625 -0.859375q0.328125 -0.359375 0.734375 -0.546875q0.421875 -0.1875 0.875 -0.1875q0.484375 0 0.875 0.171875q0.390625 0.171875 0.65625 0.5q0.265625 0.3125 0.390625 0.765625q0.140625 0.4375 0.140625 1.0q0 0.140625 0 0.28125q0 0.125 -0.03125 0.21875l-3.484375 0q0.046875 0.828125 0.5 1.3125q0.46875 0.484375 1.21875 0.484375q0.375 0 0.6875 -0.109375q0.3125 -0.109375 0.609375 -0.296875l0.296875 0.578125q-0.328125 0.21875 -0.75 0.375q-0.421875 0.15625 -0.953125 0.15625zm-1.625 -3.125l2.765625 0q0 -0.796875 -0.34375 -1.203125q-0.328125 -0.40625 -0.9375 -0.40625q-0.265625 0 -0.515625 0.109375q-0.25 0.09375 -0.453125 0.3125q-0.203125 0.203125 -0.34375 0.5q-0.125 0.296875 -0.171875 0.6875z" fill-rule="nonzero"/><path fill="#e9edee" d="m767.85596 124.08019l0 0c0 -1.5494843 1.2561035 -2.8055954 2.805603 -2.8055954l11.222046 0l0 0c0.7440796 0 1.4577026 0.29559326 1.9838257 0.8217392c0.5261841 0.52615356 0.82177734 1.239769 0.82177734 1.9838562l0 67.96369c0 1.5494843 -1.2561646 2.8055878 -2.805603 2.8055878l-11.222046 0c-1.5494995 0 -2.805603 -1.2561035 -2.805603 -2.8055878z" fill-rule="evenodd"/><path stroke="#1a1a1a" stroke-width="1.0" stroke-linejoin="round" stroke-linecap="butt" d="m767.85596 124.08019l0 0c0 -1.5494843 1.2561035 -2.8055954 2.805603 -2.8055954l11.222046 0l0 0c0.7440796 0 1.4577026 0.29559326 1.9838257 0.8217392c0.5261841 0.52615356 0.82177734 1.239769 0.82177734 1.9838562l0 67.96369c0 1.5494843 -1.2561646 2.8055878 -2.805603 2.8055878l-11.222046 0c-1.5494995 0 -2.805603 -1.2561035 -2.805603 -2.8055878z" fill-rule="evenodd"/><path fill="#d9d9d9" d="m770.38293 130.46307l0 0c0 -3.2527466 2.6369019 -5.889618 5.8896484 -5.889618l0 0c1.5620117 0 3.0600586 0.6205063 4.164551 1.725029c1.1045532 1.1045151 1.7250366 2.602562 1.7250366 4.164589l0 0c0 3.2527313 -2.6368408 5.8896027 -5.8895874 5.8896027l0 0c-3.2527466 0 -5.8896484 -2.6368713 -5.8896484 -5.8896027z" fill-rule="evenodd"/><path stroke="#1a1a1a" stroke-width="1.0" stroke-linejoin="round" stroke-linecap="butt" d="m770.38293 130.46307l0 0c0 -3.2527466 2.6369019 -5.889618 5.8896484 -5.889618l0 0c1.5620117 0 3.0600586 0.6205063 4.164551 1.725029c1.1045532 1.1045151 1.7250366 2.602562 1.7250366 4.164589l0 0c0 3.2527313 -2.6368408 5.8896027 -5.8895874 5.8896027l0 0c-3.2527466 0 -5.8896484 -2.6368713 -5.8896484 -5.8896027z" fill-rule="evenodd"/><path fill="#b7b7b7" d="m770.38293 167.31427l0 0c0 -3.2527466 2.6369019 -5.889618 5.8896484 -5.889618l0 0c1.5620117 0 3.0600586 0.6205139 4.164551 1.7250214c1.1045532 1.1045227 1.7250366 2.6025696 1.7250366 4.1645966l0 0c0 3.2527466 -2.6368408 5.889618 -5.8895874 5.889618l0 0c-3.2527466 0 -5.8896484 -2.6368713 -5.8896484 -5.889618z" fill-rule="evenodd"/><path stroke="#000000" stroke-width="1.0" stroke-linejoin="round" stroke-linecap="butt" d="m770.38293 167.31427l0 0c0 -3.2527466 2.6369019 -5.889618 5.8896484 -5.889618l0 0c1.5620117 0 3.0600586 0.6205139 4.164551 1.7250214c1.1045532 1.1045227 1.7250366 2.6025696 1.7250366 4.1645966l0 0c0 3.2527466 -2.6368408 5.889618 -5.8895874 5.889618l0 0c-3.2527466 0 -5.8896484 -2.6368713 -5.8896484 -5.889618z" fill-rule="evenodd"/><path fill="#b7b7b7" d="m770.38293 185.73987l0 0c0 -3.2527466 2.6369019 -5.889618 5.8896484 -5.889618l0 0c1.5620117 0 3.0600586 0.6205139 4.164551 1.7250366c1.1045532 1.1045074 1.7250366 2.6025543 1.7250366 4.1645813l0 0c0 3.2527466 -2.6368408 5.889618 -5.8895874 5.889618l0 0c-3.2527466 0 -5.8896484 -2.6368713 -5.8896484 -5.889618z" fill-rule="evenodd"/><path stroke="#1a1a1a" stroke-width="1.0" stroke-linejoin="round" stroke-linecap="butt" d="m770.38293 185.73987l0 0c0 -3.2527466 2.6369019 -5.889618 5.8896484 -5.889618l0 0c1.5620117 0 3.0600586 0.6205139 4.164551 1.7250366c1.1045532 1.1045074 1.7250366 2.6025543 1.7250366 4.1645813l0 0c0 3.2527466 -2.6368408 5.889618 -5.8895874 5.889618l0 0c-3.2527466 0 -5.8896484 -2.6368713 -5.8896484 -5.889618z" fill-rule="evenodd"/><path fill="#000000" d="m770.38293 148.88867l0 0c0 -3.2527466 2.6369019 -5.889618 5.8896484 -5.889618l0 0c1.5620117 0 3.0600586 0.6205139 4.164551 1.7250214c1.1045532 1.1045227 1.7250366 2.6025696 1.7250366 4.1645966l0 0c0 3.2527466 -2.6368408 5.8896027 -5.8895874 5.8896027l0 0c-3.2527466 0 -5.8896484 -2.636856 -5.8896484 -5.8896027z" fill-rule="evenodd"/><path stroke="#1a1a1a" stroke-width="1.0" stroke-linejoin="round" stroke-linecap="butt" d="m770.38293 148.88867l0 0c0 -3.2527466 2.6369019 -5.889618 5.8896484 -5.889618l0 0c1.5620117 0 3.0600586 0.6205139 4.164551 1.7250214c1.1045532 1.1045227 1.7250366 2.6025696 1.7250366 4.1645966l0 0c0 3.2527466 -2.6368408 5.8896027 -5.8895874 5.8896027l0 0c-3.2527466 0 -5.8896484 -2.636856 -5.8896484 -5.8896027z" fill-rule="evenodd"/><path fill="#000000" fill-opacity="0.0" d="m73.88189 220.83464l0 -39.905502" fill-rule="evenodd"/><path stroke="#1a1a1a" stroke-width="1.0" stroke-linejoin="round" stroke-linecap="butt" d="m73.88189 220.83464l0 -33.905502" fill-rule="evenodd"/><path fill="#1a1a1a" stroke="#1a1a1a" stroke-width="1.0" stroke-linecap="butt" d="m75.53362 186.92914l-1.6517334 -4.538101l-1.6517334 4.538101z" fill-rule="evenodd"/><path fill="#000000" fill-opacity="0.0" d="m73.88189 334.31235l0 -39.905518" fill-rule="evenodd"/><path stroke="#1a1a1a" stroke-width="1.0" stroke-linejoin="round" stroke-linecap="butt" d="m73.88189 334.31235l0 -33.905518" fill-rule="evenodd"/><path fill="#1a1a1a" stroke="#1a1a1a" stroke-width="1.0" stroke-linecap="butt" d="m75.53362 300.40683l-1.6517334 -4.5381165l-1.6517334 4.5381165z" fill-rule="evenodd"/><path fill="#000000" fill-opacity="0.0" d="m73.88189 135.19685l0 -39.905518" fill-rule="evenodd"/><path stroke="#1a1a1a" stroke-width="1.0" stroke-linejoin="round" stroke-linecap="butt" d="m73.88189 135.19685l0 -33.905518" fill-rule="evenodd"/><path fill="#1a1a1a" stroke="#1a1a1a" stroke-width="1.0" stroke-linecap="butt" d="m75.53362 101.291336l-1.6517334 -4.5380936l-1.6517334 4.5380936z" fill-rule="evenodd"/><path fill="#000000" fill-opacity="0.0" d="m461.48447 58.505604c76.5936 0 114.89194 24.889767 153.18723 49.77953c38.295288 24.889763 76.58746 49.779533 153.17499 49.779533" fill-rule="evenodd"/><path stroke="#1a1a1a" stroke-width="1.0" stroke-linejoin="round" stroke-linecap="butt" d="m461.48447 58.505604c76.5936 0 114.89194 24.889767 153.18723 49.77953c19.147644 12.444885 38.294495 24.889763 62.227905 34.223427c11.966736 4.6668243 25.130005 8.555862 40.08844 11.278168c7.479126 1.3611603 15.407043 2.4306488 23.858582 3.1598358c4.225708 0.36460876 8.5824585 0.64411926 13.079346 0.8325043c2.248413 0.094177246 4.5318604 0.16557312 6.8516235 0.21343994l1.0692749 0.019256592" fill-rule="evenodd"/><path fill="#1a1a1a" stroke="#1a1a1a" stroke-width="1.0" stroke-linecap="butt" d="m761.8323 159.66344l4.55249 -1.6116638l-4.5233765 -1.6916809z" fill-rule="evenodd"/><path fill="#000000" fill-opacity="0.0" d="m109.37795 158.06299l118.614174 0" fill-rule="evenodd"/><path stroke="#1a1a1a" stroke-width="1.0" stroke-linejoin="round" stroke-linecap="butt" d="m109.37795 158.06299l112.614174 0" fill-rule="evenodd"/><path fill="#1a1a1a" stroke="#1a1a1a" stroke-width="1.0" stroke-linecap="butt" d="m221.99213 159.71472l4.538101 -1.6517334l-4.538101 -1.6517334z" fill-rule="evenodd"/><path fill="#000000" fill-opacity="0.0" d="m298.97113 158.06299l118.61417 0" fill-rule="evenodd"/><path stroke="#1a1a1a" stroke-width="1.0" stroke-linejoin="round" stroke-linecap="butt" d="m298.97113 158.06299l112.61417 0" fill-rule="evenodd"/><path fill="#1a1a1a" stroke="#1a1a1a" stroke-width="1.0" stroke-linecap="butt" d="m411.5853 159.71472l4.5381165 -1.6517334l-4.5381165 -1.6517334z" fill-rule="evenodd"/><path fill="#000000" fill-opacity="0.0" d="m453.06824 135.19685l0 -39.905518" fill-rule="evenodd"/><path stroke="#1a1a1a" stroke-width="1.0" stroke-linejoin="round" stroke-linecap="butt" d="m453.06824 135.19685l0 -33.905518" fill-rule="evenodd"/><path fill="#1a1a1a" stroke="#1a1a1a" stroke-width="1.0" stroke-linecap="butt" d="m454.71997 101.291336l-1.6517334 -4.5380936l-1.6517334 4.5380936z" fill-rule="evenodd"/><path fill="#000000" fill-opacity="0.0" d="m263.47507 135.19685l0 -39.905518" fill-rule="evenodd"/><path stroke="#1a1a1a" stroke-width="1.0" stroke-linejoin="round" stroke-linecap="butt" d="m263.47507 135.19685l0 -33.905518" fill-rule="evenodd"/><path fill="#1a1a1a" stroke="#1a1a1a" stroke-width="1.0" stroke-linecap="butt" d="m265.1268 101.291336l-1.6517334 -4.5380936l-1.6517334 4.5380936z" fill-rule="evenodd"/><path fill="#000000" fill-opacity="0.0" d="m263.47507 334.31235l0 -39.905518" fill-rule="evenodd"/><path stroke="#1a1a1a" stroke-width="1.0" stroke-linejoin="round" stroke-linecap="butt" d="m263.47507 334.31235l0 -33.905518" fill-rule="evenodd"/><path fill="#1a1a1a" stroke="#1a1a1a" stroke-width="1.0" stroke-linecap="butt" d="m265.1268 300.40683l-1.6517334 -4.5381165l-1.6517334 4.5381165z" fill-rule="evenodd"/><path fill="#000000" fill-opacity="0.0" d="m453.06824 334.31235l0 -39.905518" fill-rule="evenodd"/><path stroke="#1a1a1a" stroke-width="1.0" stroke-linejoin="round" stroke-linecap="butt" d="m453.06824 334.31235l0 -33.905518" fill-rule="evenodd"/><path fill="#1a1a1a" stroke="#1a1a1a" stroke-width="1.0" stroke-linecap="butt" d="m454.71997 300.40683l-1.6517334 -4.5381165l-1.6517334 4.5381165z" fill-rule="evenodd"/><path fill="#000000" fill-opacity="0.0" d="m453.06824 220.83464l0 -39.905502" fill-rule="evenodd"/><path stroke="#1a1a1a" stroke-width="1.0" stroke-linejoin="round" stroke-linecap="butt" d="m453.06824 220.83464l0 -33.905502" fill-rule="evenodd"/><path fill="#1a1a1a" stroke="#1a1a1a" stroke-width="1.0" stroke-linecap="butt" d="m454.71997 186.92914l-1.6517334 -4.538101l-1.6517334 4.538101z" fill-rule="evenodd"/><path fill="#000000" fill-opacity="0.0" d="m263.47507 220.83464l0 -39.905502" fill-rule="evenodd"/><path stroke="#1a1a1a" stroke-width="1.0" stroke-linejoin="round" stroke-linecap="butt" d="m263.47507 220.83464l0 -33.905502" fill-rule="evenodd"/><path fill="#1a1a1a" stroke="#1a1a1a" stroke-width="1.0" stroke-linecap="butt" d="m265.1268 186.92914l-1.6517334 -4.538101l-1.6517334 4.538101z" fill-rule="evenodd"/></g></svg>