<svg version="1.1" viewBox="0.0 0.0 875.6509186351706 653.997375328084" fill="none" stroke="none" stroke-linecap="square" stroke-miterlimit="10" xmlns:xlink="http://www.w3.org/1999/xlink" xmlns="http://www.w3.org/2000/svg"><clipPath id="p.0"><path d="m0 0l875.65094 0l0 653.9974l-875.65094 0l0 -653.9974z" clip-rule="nonzero"/></clipPath><g clip-path="url(#p.0)"><path fill="#000000" fill-opacity="0.0" d="m0 0l875.65094 0l0 653.9974l-875.65094 0z" fill-rule="evenodd"/><path fill="#d9d2e9" d="m61.490814 93.68675l0 0c0 -47.323486 38.363266 -85.68675 85.68675 -85.68675l583.0517 0c22.725525 0 44.520325 9.027685 60.58972 25.097069c16.069336 16.069382 25.097046 37.864143 25.097046 60.589684l0 342.73676c0 47.323486 -38.36328 85.68674 -85.68677 85.68674l-583.0517 0c-47.323486 0 -85.68675 -38.36325 -85.68675 -85.68674z" fill-rule="evenodd"/><path fill="#000000" d="m649.69574 485.25345l0 -6.984375l0.890625 0l0 6.234375l3.0625 0l0 0.75l-3.953125 0zm7.116455 0.125q-0.484375 0 -0.921875 -0.171875q-0.421875 -0.1875 -0.75 -0.53125q-0.328125 -0.34375 -0.53125 -0.84375q-0.203125 -0.515625 -0.203125 -1.15625q0 -0.65625 0.203125 -1.15625q0.203125 -0.5 0.53125 -0.84375q0.328125 -0.359375 0.75 -0.546875q0.4375 -0.1875 0.921875 -0.1875q0.484375 0 0.90625 0.1875q0.4375 0.1875 0.765625 0.546875q0.328125 0.34375 0.515625 0.84375q0.203125 0.5 0.203125 1.15625q0 0.640625 -0.203125 1.15625q-0.1875 0.5 -0.515625 0.84375q-0.328125 0.34375 -0.765625 0.53125q-0.421875 0.171875 -0.90625 0.171875zm0 -0.71875q0.328125 0 0.59375 -0.140625q0.28125 -0.15625 0.484375 -0.40625q0.203125 -0.265625 0.296875 -0.625q0.109375 -0.359375 0.109375 -0.8125q0 -0.453125 -0.109375 -0.8125q-0.09375 -0.375 -0.296875 -0.640625q-0.203125 -0.265625 -0.484375 -0.40625q-0.265625 -0.140625 -0.59375 -0.140625q-0.328125 0 -0.609375 0.140625q-0.28125 0.140625 -0.484375 0.40625q-0.1875 0.265625 -0.296875 0.640625q-0.109375 0.359375 -0.109375 0.8125q0 0.453125 0.109375 0.8125q0.109375 0.359375 0.296875 0.625q0.203125 0.25 0.484375 0.40625q0.28125 0.140625 0.609375 0.140625zm3.7601318 0.59375l0 -5.171875l0.71875 0l0.078125 0.734375l0.03125 0q0.375 -0.375 0.78125 -0.625q0.421875 -0.25 0.953125 -0.25q0.828125 0 1.203125 0.515625q0.375 0.515625 0.375 1.515625l0 3.28125l-0.875 0l0 -3.171875q0 -0.734375 -0.234375 -1.046875q-0.234375 -0.328125 -0.734375 -0.328125q-0.40625 0 -0.71875 0.203125q-0.3125 0.203125 -0.703125 0.59375l0 3.75l-0.875 0zm7.5790405 2.390625q-0.484375 0 -0.875 -0.09375q-0.390625 -0.09375 -0.6875 -0.28125q-0.28125 -0.171875 -0.4375 -0.4375q-0.140625 -0.25 -0.140625 -0.59375q0 -0.328125 0.203125 -0.625q0.203125 -0.296875 0.546875 -0.546875l0 -0.03125q-0.1875 -0.125 -0.328125 -0.328125q-0.125 -0.203125 -0.125 -0.515625q0 -0.328125 0.171875 -0.578125q0.1875 -0.25 0.390625 -0.390625l0 -0.03125q-0.25 -0.21875 -0.46875 -0.578125q-0.203125 -0.359375 -0.203125 -0.828125q0 -0.421875 0.15625 -0.765625q0.15625 -0.34375 0.421875 -0.578125q0.265625 -0.234375 0.625 -0.359375q0.359375 -0.140625 0.75 -0.140625q0.203125 0 0.390625 0.046875q0.1875 0.03125 0.34375 0.09375l1.796875 0l0 0.671875l-1.0625 0q0.171875 0.171875 0.296875 0.453125q0.125 0.28125 0.125 0.609375q0 0.40625 -0.15625 0.75q-0.140625 0.328125 -0.40625 0.5625q-0.25 0.234375 -0.59375 0.359375q-0.34375 0.125 -0.734375 0.125q-0.203125 0 -0.40625 -0.046875q-0.1875 -0.046875 -0.375 -0.140625q-0.140625 0.125 -0.234375 0.265625q-0.09375 0.140625 -0.09375 0.359375q0 0.25 0.1875 0.40625q0.1875 0.15625 0.71875 0.15625l1.015625 0q0.90625 0 1.359375 0.296875q0.453125 0.296875 0.453125 0.9375q0 0.359375 -0.1875 0.6875q-0.1875 0.328125 -0.53125 0.5625q-0.328125 0.25 -0.8125 0.390625q-0.484375 0.15625 -1.09375 0.15625zm0 -4.625q0.21875 0 0.40625 -0.078125q0.203125 -0.078125 0.359375 -0.234375q0.15625 -0.171875 0.234375 -0.390625q0.09375 -0.234375 0.09375 -0.53125q0 -0.5625 -0.328125 -0.875q-0.3125 -0.328125 -0.765625 -0.328125q-0.46875 0 -0.78125 0.328125q-0.3125 0.3125 -0.3125 0.875q0 0.296875 0.078125 0.53125q0.078125 0.21875 0.234375 0.390625q0.15625 0.15625 0.34375 0.234375q0.203125 0.078125 0.4375 0.078125zm0.125 4.015625q0.375 0 0.671875 -0.09375q0.3125 -0.09375 0.515625 -0.234375q0.21875 -0.140625 0.328125 -0.34375q0.125 -0.1875 0.125 -0.390625q0 -0.359375 -0.265625 -0.5q-0.265625 -0.140625 -0.78125 -0.140625l-0.890625 0q-0.15625 0 -0.328125 -0.015625q-0.171875 -0.015625 -0.34375 -0.0625q-0.28125 0.203125 -0.40625 0.421875q-0.125 0.234375 -0.125 0.453125q0 0.421875 0.390625 0.65625q0.40625 0.25 1.109375 0.25zm7.658325 -1.65625q-0.75 0 -1.375 -0.265625q-0.625 -0.28125 -1.078125 -0.765625l0.53125 -0.625q0.375 0.40625 0.875 0.640625q0.5 0.234375 1.046875 0.234375q0.703125 0 1.078125 -0.3125q0.390625 -0.3125 0.390625 -0.828125q0 -0.265625 -0.09375 -0.4375q-0.09375 -0.1875 -0.25 -0.328125q-0.15625 -0.140625 -0.375 -0.234375q-0.203125 -0.109375 -0.453125 -0.234375l-1.0 -0.4375q-0.25 -0.09375 -0.5 -0.25q-0.25 -0.15625 -0.453125 -0.359375q-0.203125 -0.21875 -0.34375 -0.5q-0.125 -0.296875 -0.125 -0.6875q0 -0.390625 0.171875 -0.734375q0.171875 -0.34375 0.453125 -0.59375q0.296875 -0.25 0.6875 -0.390625q0.40625 -0.140625 0.890625 -0.140625q0.625 0 1.15625 0.25q0.53125 0.234375 0.90625 0.625l-0.46875 0.5625q-0.328125 -0.296875 -0.71875 -0.46875q-0.390625 -0.1875 -0.875 -0.1875q-0.59375 0 -0.953125 0.28125q-0.34375 0.265625 -0.34375 0.75q0 0.25 0.09375 0.4375q0.109375 0.171875 0.28125 0.3125q0.171875 0.125 0.359375 0.234375q0.203125 0.09375 0.421875 0.171875l1.0 0.421875q0.296875 0.125 0.5625 0.296875q0.265625 0.171875 0.453125 0.390625q0.1875 0.21875 0.296875 0.515625q0.125 0.28125 0.125 0.671875q0 0.40625 -0.171875 0.78125q-0.171875 0.359375 -0.484375 0.625q-0.296875 0.265625 -0.734375 0.421875q-0.4375 0.15625 -0.984375 0.15625zm3.6592407 -0.125l0 -7.59375l0.875 0l0 2.078125l-0.03125 1.0625q0.375 -0.359375 0.78125 -0.609375q0.40625 -0.25 0.9375 -0.25q0.828125 0 1.203125 0.515625q0.375 0.515625 0.375 1.515625l0 3.28125l-0.875 0l0 -3.171875q0 -0.734375 -0.234375 -1.046875q-0.234375 -0.328125 -0.734375 -0.328125q-0.40625 0 -0.71875 0.203125q-0.3125 0.203125 -0.703125 0.59375l0 3.75l-0.875 0zm7.812683 0.125q-0.484375 0 -0.921875 -0.171875q-0.421875 -0.1875 -0.75 -0.53125q-0.328125 -0.34375 -0.53125 -0.84375q-0.203125 -0.515625 -0.203125 -1.15625q0 -0.65625 0.203125 -1.15625q0.203125 -0.5 0.53125 -0.84375q0.328125 -0.359375 0.75 -0.546875q0.4375 -0.1875 0.921875 -0.1875q0.484375 0 0.90625 0.1875q0.4375 0.1875 0.765625 0.546875q0.328125 0.34375 0.515625 0.84375q0.203125 0.5 0.203125 1.15625q0 0.640625 -0.203125 1.15625q-0.1875 0.5 -0.515625 0.84375q-0.328125 0.34375 -0.765625 0.53125q-0.421875 0.171875 -0.90625 0.171875zm0 -0.71875q0.328125 0 0.59375 -0.140625q0.28125 -0.15625 0.484375 -0.40625q0.203125 -0.265625 0.296875 -0.625q0.109375 -0.359375 0.109375 -0.8125q0 -0.453125 -0.109375 -0.8125q-0.09375 -0.375 -0.296875 -0.640625q-0.203125 -0.265625 -0.484375 -0.40625q-0.265625 -0.140625 -0.59375 -0.140625q-0.328125 0 -0.609375 0.140625q-0.28125 0.140625 -0.484375 0.40625q-0.1875 0.265625 -0.296875 0.640625q-0.109375 0.359375 -0.109375 0.8125q0 0.453125 0.109375 0.8125q0.109375 0.359375 0.296875 0.625q0.203125 0.25 0.484375 0.40625q0.28125 0.140625 0.609375 0.140625zm3.7601318 0.59375l0 -5.171875l0.71875 0l0.078125 0.9375l0.03125 0q0.265625 -0.5 0.640625 -0.78125q0.390625 -0.296875 0.828125 -0.296875q0.3125 0 0.5625 0.109375l-0.171875 0.765625q-0.125 -0.03125 -0.234375 -0.046875q-0.109375 -0.03125 -0.265625 -0.03125q-0.328125 0 -0.6875 0.265625q-0.359375 0.265625 -0.625 0.921875l0 3.328125l-0.875 0zm5.322754 0.125q-0.40625 0 -0.6875 -0.125q-0.28125 -0.125 -0.46875 -0.34375q-0.171875 -0.234375 -0.25 -0.546875q-0.078125 -0.328125 -0.078125 -0.703125l0 -2.875l-0.765625 0l0 -0.65625l0.8125 -0.046875l0.109375 -1.453125l0.734375 0l0 1.453125l1.390625 0l0 0.703125l-1.390625 0l0 2.875q0 0.484375 0.171875 0.75q0.1875 0.25 0.625 0.25q0.140625 0 0.296875 -0.03125q0.171875 -0.046875 0.296875 -0.09375l0.171875 0.65625q-0.21875 0.078125 -0.46875 0.125q-0.25 0.0625 -0.5 0.0625zm1.5393677 -2.453125l0 -0.671875l2.453125 0l0 0.671875l-2.453125 0zm5.282837 2.328125l0 -6.25l-2.109375 0l0 -0.734375l5.109375 0l0 0.734375l-2.109375 0l0 6.25l-0.890625 0zm6.274292 0.125q-0.515625 0 -0.96875 -0.1875q-0.453125 -0.1875 -0.796875 -0.53125q-0.328125 -0.34375 -0.53125 -0.84375q-0.1875 -0.5 -0.1875 -1.140625q0 -0.640625 0.203125 -1.140625q0.203125 -0.515625 0.515625 -0.859375q0.328125 -0.359375 0.734375 -0.546875q0.421875 -0.1875 0.875 -0.1875q0.484375 0 0.875 0.171875q0.390625 0.171875 0.65625 0.5q0.265625 0.3125 0.390625 0.765625q0.140625 0.4375 0.140625 1.0q0 0.140625 0 0.28125q0 0.125 -0.03125 0.21875l-3.484375 0q0.046875 0.828125 0.5 1.3125q0.46875 0.484375 1.21875 0.484375q0.375 0 0.6875 -0.109375q0.3125 -0.109375 0.609375 -0.296875l0.296875 0.578125q-0.328125 0.21875 -0.75 0.375q-0.421875 0.15625 -0.953125 0.15625zm-1.625 -3.125l2.765625 0q0 -0.796875 -0.34375 -1.203125q-0.328125 -0.40625 -0.9375 -0.40625q-0.265625 0 -0.515625 0.109375q-0.25 0.09375 -0.453125 0.3125q-0.203125 0.203125 -0.34375 0.5q-0.125 0.296875 -0.171875 0.6875zm4.8168335 3.0l0 -5.171875l0.71875 0l0.078125 0.9375l0.03125 0q0.265625 -0.5 0.640625 -0.78125q0.390625 -0.296875 0.828125 -0.296875q0.3125 0 0.5625 0.109375l-0.171875 0.765625q-0.125 -0.03125 -0.234375 -0.046875q-0.109375 -0.03125 -0.265625 -0.03125q-0.328125 0 -0.6875 0.265625q-0.359375 0.265625 -0.625 0.921875l0 3.328125l-0.875 0zm3.697754 0l0 -5.171875l0.71875 0l0.078125 0.734375l0.03125 0q0.34375 -0.375 0.734375 -0.625q0.40625 -0.25 0.875 -0.25q0.59375 0 0.921875 0.265625q0.34375 0.265625 0.5 0.734375q0.40625 -0.453125 0.8125 -0.71875q0.421875 -0.28125 0.90625 -0.28125q0.796875 0 1.1875 0.515625q0.390625 0.515625 0.390625 1.515625l0 3.28125l-0.875 0l0 -3.171875q0 -0.734375 -0.234375 -1.046875q-0.234375 -0.328125 -0.734375 -0.328125q-0.578125 0 -1.296875 0.796875l0 3.75l-0.875 0l0 -3.171875q0 -0.734375 -0.234375 -1.046875q-0.234375 -0.328125 -0.734375 -0.328125q-0.578125 0 -1.296875 0.796875l0 3.75l-0.875 0zm11.043518 0l0 -6.984375l1.078125 0l1.34375 3.71875q0.125 0.359375 0.234375 0.734375q0.125 0.375 0.265625 0.734375l0.03125 0q0.125 -0.359375 0.234375 -0.734375q0.125 -0.375 0.25 -0.734375l1.328125 -3.71875l1.0625 0l0 6.984375l-0.828125 0l0 -3.84375q0 -0.46875 0.046875 -1.03125q0.046875 -0.578125 0.078125 -1.046875l-0.046875 0l-0.546875 1.59375l-1.328125 3.625l-0.59375 0l-1.3125 -3.625l-0.5625 -1.59375l-0.03125 0q0.03125 0.46875 0.0625 1.046875q0.046875 0.5625 0.046875 1.03125l0 3.84375l-0.8125 0zm9.762817 0.125q-0.515625 0 -0.96875 -0.1875q-0.453125 -0.1875 -0.796875 -0.53125q-0.328125 -0.34375 -0.53125 -0.84375q-0.1875 -0.5 -0.1875 -1.140625q0 -0.640625 0.203125 -1.140625q0.203125 -0.515625 0.515625 -0.859375q0.328125 -0.359375 0.734375 -0.546875q0.421875 -0.1875 0.875 -0.1875q0.484375 0 0.875 0.171875q0.390625 0.171875 0.65625 0.5q0.265625 0.3125 0.390625 0.765625q0.140625 0.4375 0.140625 1.0q0 0.140625 0 0.28125q0 0.125 -0.03125 0.21875l-3.484375 0q0.046875 0.828125 0.5 1.3125q0.46875 0.484375 1.21875 0.484375q0.375 0 0.6875 -0.109375q0.3125 -0.109375 0.609375 -0.296875l0.296875 0.578125q-0.328125 0.21875 -0.75 0.375q-0.421875 0.15625 -0.953125 0.15625zm-1.625 -3.125l2.765625 0q0 -0.796875 -0.34375 -1.203125q-0.328125 -0.40625 -0.9375 -0.40625q-0.265625 0 -0.515625 0.109375q-0.25 0.09375 -0.453125 0.3125q-0.203125 0.203125 -0.34375 0.5q-0.125 0.296875 -0.171875 0.6875zm4.8167725 3.0l0 -5.171875l0.71875 0l0.078125 0.734375l0.03125 0q0.34375 -0.375 0.734375 -0.625q0.40625 -0.25 0.875 -0.25q0.59375 0 0.921875 0.265625q0.34375 0.265625 0.5 0.734375q0.40625 -0.453125 0.8125 -0.71875q0.421875 -0.28125 0.90625 -0.28125q0.796875 0 1.1875 0.515625q0.390625 0.515625 0.390625 1.515625l0 3.28125l-0.875 0l0 -3.171875q0 -0.734375 -0.234375 -1.046875q-0.234375 -0.328125 -0.734375 -0.328125q-0.578125 0 -1.296875 0.796875l0 3.75l-0.875 0l0 -3.171875q0 -0.734375 -0.234375 -1.046875q-0.234375 -0.328125 -0.734375 -0.328125q-0.578125 0 -1.296875 0.796875l0 3.75l-0.875 0zm10.849731 0.125q-0.484375 0 -0.921875 -0.171875q-0.421875 -0.1875 -0.75 -0.53125q-0.328125 -0.34375 -0.53125 -0.84375q-0.203125 -0.515625 -0.203125 -1.15625q0 -0.65625 0.203125 -1.15625q0.203125 -0.5 0.53125 -0.84375q0.328125 -0.359375 0.75 -0.546875q0.4375 -0.1875 0.921875 -0.1875q0.484375 0 0.90625 0.1875q0.4375 0.1875 0.765625 0.546875q0.328125 0.34375 0.515625 0.84375q0.203125 0.5 0.203125 1.15625q0 0.640625 -0.203125 1.15625q-0.1875 0.5 -0.515625 0.84375q-0.328125 0.34375 -0.765625 0.53125q-0.421875 0.171875 -0.90625 0.171875zm0 -0.71875q0.328125 0 0.59375 -0.140625q0.28125 -0.15625 0.484375 -0.40625q0.203125 -0.265625 0.296875 -0.625q0.109375 -0.359375 0.109375 -0.8125q0 -0.453125 -0.109375 -0.8125q-0.09375 -0.375 -0.296875 -0.640625q-0.203125 -0.265625 -0.484375 -0.40625q-0.265625 -0.140625 -0.59375 -0.140625q-0.328125 0 -0.609375 0.140625q-0.28125 0.140625 -0.484375 0.40625q-0.1875 0.265625 -0.296875 0.640625q-0.109375 0.359375 -0.109375 0.8125q0 0.453125 0.109375 0.8125q0.109375 0.359375 0.296875 0.625q0.203125 0.25 0.484375 0.40625q0.28125 0.140625 0.609375 0.140625zm3.7601318 0.59375l0 -5.171875l0.71875 0l0.078125 0.9375l0.03125 0q0.265625 -0.5 0.640625 -0.78125q0.390625 -0.296875 0.828125 -0.296875q0.3125 0 0.5625 0.109375l-0.171875 0.765625q-0.125 -0.03125 -0.234375 -0.046875q-0.109375 -0.03125 -0.265625 -0.03125q-0.328125 0 -0.6875 0.265625q-0.359375 0.265625 -0.625 0.921875l0 3.328125l-0.875 0zm3.775879 2.234375q-0.171875 0 -0.328125 -0.03125q-0.140625 -0.03125 -0.265625 -0.078125l0.15625 -0.703125q0.09375 0.03125 0.203125 0.046875q0.109375 0.03125 0.203125 0.03125q0.4375 0 0.71875 -0.3125q0.28125 -0.3125 0.453125 -0.796875l0.109375 -0.375l-2.078125 -5.1875l0.90625 0l1.0625 2.859375q0.109375 0.34375 0.234375 0.71875q0.140625 0.375 0.265625 0.734375l0.03125 0q0.125 -0.34375 0.234375 -0.71875q0.109375 -0.390625 0.203125 -0.734375l0.9375 -2.859375l0.84375 0l-1.9375 5.59375q-0.140625 0.390625 -0.3125 0.71875q-0.171875 0.328125 -0.40625 0.5625q-0.234375 0.25 -0.53125 0.390625q-0.296875 0.140625 -0.703125 0.140625zm9.764038 -2.109375q-0.671875 0 -1.234375 -0.234375q-0.546875 -0.25 -0.953125 -0.71875q-0.40625 -0.46875 -0.640625 -1.140625q-0.234375 -0.671875 -0.234375 -1.53125q0 -0.84375 0.234375 -1.515625q0.234375 -0.671875 0.65625 -1.140625q0.421875 -0.46875 0.984375 -0.71875q0.5625 -0.25 1.234375 -0.25q0.640625 0 1.125 0.265625q0.484375 0.265625 0.796875 0.609375l-0.484375 0.5625q-0.28125 -0.296875 -0.640625 -0.46875q-0.34375 -0.1875 -0.78125 -0.1875q-0.5 0 -0.90625 0.203125q-0.40625 0.1875 -0.703125 0.5625q-0.28125 0.359375 -0.4375 0.890625q-0.15625 0.515625 -0.15625 1.171875q0 0.65625 0.15625 1.1875q0.15625 0.53125 0.421875 0.90625q0.28125 0.359375 0.6875 0.5625q0.40625 0.203125 0.90625 0.203125q0.5 0 0.875 -0.203125q0.390625 -0.203125 0.734375 -0.578125l0.5 0.546875q-0.421875 0.484375 -0.953125 0.75q-0.515625 0.265625 -1.1875 0.265625zm5.444153 0q-0.515625 0 -0.96875 -0.1875q-0.453125 -0.1875 -0.796875 -0.53125q-0.328125 -0.34375 -0.53125 -0.84375q-0.1875 -0.5 -0.1875 -1.140625q0 -0.640625 0.203125 -1.140625q0.203125 -0.515625 0.515625 -0.859375q0.328125 -0.359375 0.734375 -0.546875q0.421875 -0.1875 0.875 -0.1875q0.484375 0 0.875 0.171875q0.390625 0.171875 0.65625 0.5q0.265625 0.3125 0.390625 0.765625q0.140625 0.4375 0.140625 1.0q0 0.140625 0 0.28125q0 0.125 -0.03125 0.21875l-3.484375 0q0.046875 0.828125 0.5 1.3125q0.46875 0.484375 1.21875 0.484375q0.375 0 0.6875 -0.109375q0.3125 -0.109375 0.609375 -0.296875l0.296875 0.578125q-0.328125 0.21875 -0.75 0.375q-0.421875 0.15625 -0.953125 0.15625zm-1.625 -3.125l2.765625 0q0 -0.796875 -0.34375 -1.203125q-0.328125 -0.40625 -0.9375 -0.40625q-0.265625 0 -0.515625 0.109375q-0.25 0.09375 -0.453125 0.3125q-0.203125 0.203125 -0.34375 0.5q-0.125 0.296875 -0.171875 0.6875zm5.7387085 3.125q-0.5 0 -0.71875 -0.296875q-0.203125 -0.296875 -0.203125 -0.875l0 -6.546875l0.875 0l0 6.609375q0 0.21875 0.0625 0.3125q0.078125 0.078125 0.1875 0.078125q0.03125 0 0.0625 0q0.046875 0 0.125 -0.03125l0.109375 0.671875q-0.078125 0.03125 -0.203125 0.046875q-0.109375 0.03125 -0.296875 0.03125zm2.7173462 0q-0.5 0 -0.71875 -0.296875q-0.203125 -0.296875 -0.203125 -0.875l0 -6.546875l0.875 0l0 6.609375q0 0.21875 0.0625 0.3125q0.078125 0.078125 0.1875 0.078125q0.03125 0 0.0625 0q0.046875 0 0.125 -0.03125l0.109375 0.671875q-0.078125 0.03125 -0.203125 0.046875q-0.109375 0.03125 -0.296875 0.03125z" fill-rule="nonzero"/><path fill="#cfe2f3" d="m622.0551 205.07109l0 0c0 -6.073807 4.923767 -10.997604 10.99762 -10.997604l43.989014 0l0 0c2.916748 0 5.7140503 1.1586761 7.7764893 3.2211304c2.062439 2.062439 3.2211304 4.859726 3.2211304 7.776474l0 60.335526c0 6.0737915 -4.923767 10.997589 -10.99762 10.997589l-43.989014 0c-6.0738525 0 -10.99762 -4.9237976 -10.99762 -10.997589z" fill-rule="evenodd"/><path fill="#000000" d="m670.5302 261.54813q-0.484375 0 -0.921875 -0.171875q-0.421875 -0.1875 -0.75 -0.53125q-0.328125 -0.34375 -0.53125 -0.84375q-0.203125 -0.515625 -0.203125 -1.15625q0 -0.65625 0.203125 -1.15625q0.203125 -0.5 0.53125 -0.84375q0.328125 -0.359375 0.75 -0.546875q0.4375 -0.1875 0.921875 -0.1875q0.484375 0 0.90625 0.1875q0.4375 0.1875 0.765625 0.546875q0.328125 0.34375 0.515625 0.84375q0.203125 0.5 0.203125 1.15625q0 0.640625 -0.203125 1.15625q-0.1875 0.5 -0.515625 0.84375q-0.328125 0.34375 -0.765625 0.53125q-0.421875 0.171875 -0.90625 0.171875zm0 -0.71875q0.328125 0 0.59375 -0.140625q0.28125 -0.15625 0.484375 -0.40625q0.203125 -0.265625 0.296875 -0.625q0.109375 -0.359375 0.109375 -0.8125q0 -0.453125 -0.109375 -0.8125q-0.09375 -0.375 -0.296875 -0.640625q-0.203125 -0.265625 -0.484375 -0.40625q-0.265625 -0.140625 -0.59375 -0.140625q-0.328125 0 -0.609375 0.140625q-0.28125 0.140625 -0.484375 0.40625q-0.1875 0.265625 -0.296875 0.640625q-0.109375 0.359375 -0.109375 0.8125q0 0.453125 0.109375 0.8125q0.109375 0.359375 0.296875 0.625q0.203125 0.25 0.484375 0.40625q0.28125 0.140625 0.609375 0.140625z" fill-rule="nonzero"/><path fill="#000000" d="m675.0872 265.50125q-0.28125 0 -0.46875 -0.078125q-0.1875 -0.078125 -0.3125 -0.234375q-0.109375 -0.15625 -0.15625 -0.359375q-0.046875 -0.21875 -0.046875 -0.46875l0 -1.921875l-0.515625 0l0 -0.4375l0.546875 -0.03125l0.0625 -0.96875l0.484375 0l0 0.96875l0.9375 0l0 0.46875l-0.9375 0l0 1.921875q0 0.328125 0.109375 0.5q0.125 0.171875 0.4375 0.171875q0.078125 0 0.1875 -0.03125q0.109375 -0.03125 0.203125 -0.0625l0.109375 0.4375q-0.140625 0.046875 -0.3125 0.078125q-0.171875 0.046875 -0.328125 0.046875z" fill-rule="nonzero"/><path fill="#cfe2f3" d="m450.02362 205.19707l0 0c0 -6.073807 4.9237976 -10.997589 10.997589 -10.997589l43.989075 0l0 0c2.916748 0 5.71402 1.1586761 7.7764587 3.221115c2.062439 2.0624542 3.2211304 4.859726 3.2211304 7.776474l0 60.335526c0 6.0737915 -4.9237976 10.997589 -10.997589 10.997589l-43.989075 0c-6.0737915 0 -10.997589 -4.9237976 -10.997589 -10.997589z" fill-rule="evenodd"/><path fill="#000000" d="m498.63803 263.93973q-0.484375 0 -0.875 -0.09375q-0.390625 -0.09375 -0.6875 -0.28125q-0.28125 -0.171875 -0.4375 -0.4375q-0.140625 -0.25 -0.140625 -0.59375q0 -0.328125 0.203125 -0.625q0.203125 -0.296875 0.546875 -0.546875l0 -0.03125q-0.1875 -0.125 -0.328125 -0.328125q-0.125 -0.203125 -0.125 -0.515625q0 -0.328125 0.171875 -0.578125q0.1875 -0.25 0.390625 -0.390625l0 -0.03125q-0.25 -0.21875 -0.46875 -0.578125q-0.203125 -0.359375 -0.203125 -0.828125q0 -0.421875 0.15625 -0.765625q0.15625 -0.34375 0.421875 -0.578125q0.265625 -0.234375 0.625 -0.359375q0.359375 -0.140625 0.75 -0.140625q0.203125 0 0.390625 0.046875q0.1875 0.03125 0.34375 0.09375l1.796875 0l0 0.671875l-1.0625 0q0.171875 0.171875 0.296875 0.453125q0.125 0.28125 0.125 0.609375q0 0.40625 -0.15625 0.75q-0.140625 0.328125 -0.40625 0.5625q-0.25 0.234375 -0.59375 0.359375q-0.34375 0.125 -0.734375 0.125q-0.203125 0 -0.40625 -0.046875q-0.1875 -0.046875 -0.375 -0.140625q-0.140625 0.125 -0.234375 0.265625q-0.09375 0.140625 -0.09375 0.359375q0 0.25 0.1875 0.40625q0.1875 0.15625 0.71875 0.15625l1.015625 0q0.90625 0 1.359375 0.296875q0.453125 0.296875 0.453125 0.9375q0 0.359375 -0.1875 0.6875q-0.1875 0.328125 -0.53125 0.5625q-0.328125 0.25 -0.8125 0.390625q-0.484375 0.15625 -1.09375 0.15625zm0 -4.625q0.21875 0 0.40625 -0.078125q0.203125 -0.078125 0.359375 -0.234375q0.15625 -0.171875 0.234375 -0.390625q0.09375 -0.234375 0.09375 -0.53125q0 -0.5625 -0.328125 -0.875q-0.3125 -0.328125 -0.765625 -0.328125q-0.46875 0 -0.78125 0.328125q-0.3125 0.3125 -0.3125 0.875q0 0.296875 0.078125 0.53125q0.078125 0.21875 0.234375 0.390625q0.15625 0.15625 0.34375 0.234375q0.203125 0.078125 0.4375 0.078125zm0.125 4.015625q0.375 0 0.671875 -0.09375q0.3125 -0.09375 0.515625 -0.234375q0.21875 -0.140625 0.328125 -0.34375q0.125 -0.1875 0.125 -0.390625q0 -0.359375 -0.265625 -0.5q-0.265625 -0.140625 -0.78125 -0.140625l-0.890625 0q-0.15625 0 -0.328125 -0.015625q-0.171875 -0.015625 -0.34375 -0.0625q-0.28125 0.203125 -0.40625 0.421875q-0.125 0.234375 -0.125 0.453125q0 0.421875 0.390625 0.65625q0.40625 0.25 1.109375 0.25z" fill-rule="nonzero"/><path fill="#000000" d="m503.05573 265.62723q-0.28125 0 -0.46875 -0.078125q-0.1875 -0.078125 -0.3125 -0.234375q-0.109375 -0.15625 -0.15625 -0.359375q-0.046875 -0.21875 -0.046875 -0.46875l0 -1.921875l-0.515625 0l0 -0.4375l0.546875 -0.03125l0.0625 -0.96875l0.484375 0l0 0.96875l0.9375 0l0 0.46875l-0.9375 0l0 1.921875q0 0.328125 0.109375 0.5q0.125 0.171875 0.4375 0.171875q0.078125 0 0.1875 -0.03125q0.109375 -0.03125 0.203125 -0.0625l0.109375 0.4375q-0.140625 0.046875 -0.3125 0.078125q-0.171875 0.046875 -0.328125 0.046875z" fill-rule="nonzero"/><path fill="#cfe2f3" d="m278.59448 205.19707l0 0c0 -6.073807 4.9237976 -10.997589 10.997589 -10.997589l43.989075 0l0 0c2.916748 0 5.71402 1.1586761 7.7764587 3.221115c2.0624695 2.0624542 3.2211304 4.859726 3.2211304 7.776474l0 60.335526c0 6.0737915 -4.9237976 10.997589 -10.997589 10.997589l-43.989075 0c-6.0737915 0 -10.997589 -4.9237976 -10.997589 -10.997589z" fill-rule="evenodd"/><path fill="#000000" d="m328.20825 261.5491l0 -5.171875l0.875 0l0 5.171875l-0.875 0zm0.453125 -6.25q-0.265625 0 -0.4375 -0.15625q-0.171875 -0.15625 -0.171875 -0.40625q0 -0.25 0.171875 -0.40625q0.171875 -0.15625 0.4375 -0.15625q0.25 0 0.421875 0.15625q0.171875 0.15625 0.171875 0.40625q0 0.25 -0.171875 0.40625q-0.171875 0.15625 -0.421875 0.15625z" fill-rule="nonzero"/><path fill="#000000" d="m331.6266 265.62723q-0.28125 0 -0.46875 -0.078125q-0.1875 -0.078125 -0.3125 -0.234375q-0.109375 -0.15625 -0.15625 -0.359375q-0.046875 -0.21875 -0.046875 -0.46875l0 -1.921875l-0.515625 0l0 -0.4375l0.546875 -0.03125l0.0625 -0.96875l0.484375 0l0 0.96875l0.9375 0l0 0.46875l-0.9375 0l0 1.921875q0 0.328125 0.109375 0.5q0.125 0.171875 0.4375 0.171875q0.078125 0 0.1875 -0.03125q0.109375 -0.03125 0.203125 -0.0625l0.109375 0.4375q-0.140625 0.046875 -0.3125 0.078125q-0.171875 0.046875 -0.328125 0.046875z" fill-rule="nonzero"/><path fill="#cfe2f3" d="m109.58268 205.07109l0 0c0 -6.073807 4.92379 -10.997604 10.997589 -10.997604l43.989067 0l0 0c2.916748 0 5.71402 1.1586761 7.776474 3.2211304c2.0624542 2.062439 3.221115 4.859726 3.221115 7.776474l0 60.335526c0 6.0737915 -4.9237823 10.997589 -10.997589 10.997589l-43.989067 0c-6.073799 0 -10.997589 -4.9237976 -10.997589 -10.997589z" fill-rule="evenodd"/><path fill="#000000" d="m158.84686 261.42313l0 -4.46875l-0.703125 0l0 -0.65625l0.703125 -0.046875l0 -0.82814026q0 -0.796875 0.375 -1.25q0.375 -0.46875 1.140625 -0.46875q0.25 0 0.46875 0.046875q0.21875 0.046875 0.40625 0.125l-0.203125 0.671875q-0.28125 -0.125 -0.578125 -0.125q-0.734375 0 -0.734375 1.0l0 0.82814026l1.109375 0l0 0.703125l-1.109375 0l0 4.46875l-0.875 0z" fill-rule="nonzero"/><path fill="#000000" d="m162.61478 265.50125q-0.28125 0 -0.46875 -0.078125q-0.1875 -0.078125 -0.3125 -0.234375q-0.109375 -0.15625 -0.15625 -0.359375q-0.046875 -0.21875 -0.046875 -0.46875l0 -1.921875l-0.515625 0l0 -0.4375l0.546875 -0.03125l0.0625 -0.96875l0.484375 0l0 0.96875l0.9375 0l0 0.46875l-0.9375 0l0 1.921875q0 0.328125 0.109375 0.5q0.125 0.171875 0.4375 0.171875q0.078125 0 0.1875 -0.03125q0.109375 -0.03125 0.203125 -0.0625l0.109375 0.4375q-0.140625 0.046875 -0.3125 0.078125q-0.171875 0.046875 -0.328125 0.046875z" fill-rule="nonzero"/><path fill="#cfe2f3" d="m360.85828 315.81384l0 0c0 -5.502655 4.460785 -9.96344 9.96344 -9.96344l39.85263 0l0 0c2.642456 0 5.176697 1.0497131 7.045227 2.918213c1.8684998 1.8685303 2.918213 4.402771 2.918213 7.045227l0 172.10458c0 5.5026855 -4.460785 9.96347 -9.96344 9.96347l-39.85263 0c-5.502655 0 -9.96344 -4.460785 -9.96344 -9.96347z" fill-rule="evenodd"/><path fill="#000000" d="m375.5768 484.8287l0 -9.171875l1.90625 0l0 0.5l-1.25 0l0 8.171875l1.25 0l0 0.5l-1.90625 0zm3.1038818 -1.625l0 -7.59375l0.875 0l0 2.078125l-0.03125 1.0625q0.375 -0.359375 0.78125 -0.609375q0.40625 -0.25 0.9375 -0.25q0.828125 0 1.203125 0.515625q0.375 0.515625 0.375 1.515625l0 3.28125l-0.875 0l0 -3.171875q0 -0.734375 -0.234375 -1.046875q-0.234375 -0.328125 -0.734375 -0.328125q-0.40625 0 -0.71875 0.203125q-0.3125 0.203125 -0.703125 0.59375l0 3.75l-0.875 0z" fill-rule="nonzero"/><path fill="#000000" d="m385.27463 487.28183q-0.28125 0 -0.46875 -0.078125q-0.1875 -0.078125 -0.3125 -0.234375q-0.109375 -0.15625 -0.15625 -0.359375q-0.046875 -0.21875 -0.046875 -0.46875l0 -1.921875l-0.515625 0l0 -0.4375l0.546875 -0.03125l0.0625 -0.96875l0.484375 0l0 0.96875l0.9375 0l0 0.46875l-0.9375 0l0 1.921875q0 0.328125 0.109375 0.5q0.125 0.171875 0.4375 0.171875q0.078125 0 0.1875 -0.03125q0.109375 -0.03125 0.203125 -0.0625l0.109375 0.4375q-0.140625 0.046875 -0.3125 0.078125q-0.171875 0.046875 -0.328125 0.046875zm1.0279236 -1.640625l0 -0.4375l1.625 0l0 0.4375l-1.625 0zm2.4766235 1.5625l0 -0.484375l1.03125 0l0 -3.34375l-0.8125 0l0 -0.375q0.3125 -0.0625 0.53125 -0.140625q0.234375 -0.078125 0.421875 -0.1875l0.453125 0l0 4.046875l0.9375 0l0 0.484375l-2.5625 0z" fill-rule="nonzero"/><path fill="#000000" d="m393.07812 479.3287q-0.265625 0 -0.453125 -0.1875q-0.1875 -0.1875 -0.1875 -0.46875q0 -0.3125 0.1875 -0.5q0.1875 -0.1875 0.453125 -0.1875q0.265625 0 0.4375 0.1875q0.1875 0.1875 0.1875 0.5q0 0.28125 -0.1875 0.46875q-0.171875 0.1875 -0.4375 0.1875zm-0.609375 5.6875l-0.21875 -0.515625q0.453125 -0.203125 0.703125 -0.546875q0.265625 -0.328125 0.25 -0.75q-0.03125 0.015625 -0.09375 0.015625q-0.265625 0 -0.453125 -0.15625q-0.1875 -0.15625 -0.1875 -0.453125q0 -0.296875 0.1875 -0.453125q0.203125 -0.171875 0.46875 -0.171875q0.34375 0 0.53125 0.28125q0.203125 0.28125 0.203125 0.75q0 0.703125 -0.375 1.203125q-0.375 0.515625 -1.015625 0.796875zm4.2221985 -1.8125l1.6875 -2.703125l-1.5625 -2.46875l0.9375 0l0.703125 1.140625q0.109375 0.203125 0.234375 0.421875q0.140625 0.21875 0.265625 0.4375l0.046875 0q0.125 -0.21875 0.234375 -0.4375q0.125 -0.21875 0.234375 -0.421875l0.625 -1.140625l0.921875 0l-1.5625 2.5625l1.6875 2.609375l-0.953125 0l-0.75 -1.203125q-0.140625 -0.234375 -0.28125 -0.46875q-0.140625 -0.234375 -0.296875 -0.453125l-0.03125 0q-0.140625 0.21875 -0.28125 0.453125q-0.125 0.21875 -0.25 0.46875l-0.703125 1.203125l-0.90625 0z" fill-rule="nonzero"/><path fill="#000000" d="m402.95932 487.28183q-0.28125 0 -0.46875 -0.078125q-0.1875 -0.078125 -0.3125 -0.234375q-0.109375 -0.15625 -0.15625 -0.359375q-0.046875 -0.21875 -0.046875 -0.46875l0 -1.921875l-0.515625 0l0 -0.4375l0.546875 -0.03125l0.0625 -0.96875l0.484375 0l0 0.96875l0.9375 0l0 0.46875l-0.9375 0l0 1.921875q0 0.328125 0.109375 0.5q0.125 0.171875 0.4375 0.171875q0.078125 0 0.1875 -0.03125q0.109375 -0.03125 0.203125 -0.0625l0.109375 0.4375q-0.140625 0.046875 -0.3125 0.078125q-0.171875 0.046875 -0.328125 0.046875z" fill-rule="nonzero"/><path fill="#000000" d="m404.0185 484.8287l0 -0.5l1.234375 0l0 -8.171875l-1.234375 0l0 -0.5l1.90625 0l0 9.171875l-1.90625 0z" fill-rule="nonzero"/><path fill="#ead1dc" d="m367.04724 538.00934l0 0c0 -4.3632812 3.53714 -7.9003906 7.900421 -7.9003906l31.600739 0l0 0c2.0953064 0 4.104828 0.8323364 5.586426 2.3139648c1.4816284 1.4816284 2.3139954 3.4910889 2.3139954 5.586426l0 101.711c0 4.3632812 -3.53714 7.9003906 -7.900421 7.9003906l-31.600739 0c-4.3632812 0 -7.900421 -3.5371094 -7.900421 -7.9003906z" fill-rule="evenodd"/><path fill="#000000" d="m387.32645 633.54675l1.6875 -2.703125l-1.5625 -2.46875l0.9375 0l0.703125 1.140625q0.109375 0.203125 0.234375 0.421875q0.140625 0.21875 0.265625 0.4375l0.046875 0q0.125 -0.21875 0.234375 -0.4375q0.125 -0.21875 0.234375 -0.421875l0.625 -1.140625l0.921875 0l-1.5625 2.5625l1.6875 2.609375l-0.953125 0l-0.75 -1.203125q-0.140625 -0.234375 -0.28125 -0.46875q-0.140625 -0.234375 -0.296875 -0.453125l-0.03125 0q-0.140625 0.21875 -0.28125 0.453125q-0.125 0.21875 -0.25 0.46875l-0.703125 1.203125l-0.90625 0z" fill-rule="nonzero"/><path fill="#000000" d="m393.5948 637.6249q-0.28125 0 -0.46875 -0.078125q-0.1875 -0.078125 -0.3125 -0.234375q-0.109375 -0.15625 -0.15625 -0.359375q-0.046875 -0.21875 -0.046875 -0.46875l0 -1.921875l-0.515625 0l0 -0.4375l0.546875 -0.03125l0.0625 -0.96875l0.484375 0l0 0.96875l0.9375 0l0 0.46875l-0.9375 0l0 1.921875q0 0.328125 0.109375 0.5q0.125 0.171875 0.4375 0.171875q0.078125 0 0.1875 -0.03125q0.109375 -0.03125 0.203125 -0.0625l0.109375 0.4375q-0.140625 0.046875 -0.3125 0.078125q-0.171875 0.046875 -0.328125 0.046875z" fill-rule="nonzero"/><path fill="#ead1dc" d="m8.0 351.00934l0 0c0 -4.3632812 3.537139 -7.900421 7.90042 -7.900421l31.600735 0l0 0c2.0953217 0 4.104824 0.83236694 5.586441 2.3139954c1.4816132 1.4815979 2.3139763 3.4911194 2.3139763 5.586426l0 101.71097c0 4.3632812 -3.537136 7.900421 -7.9004173 7.900421l-31.600735 0c-4.3632812 0 -7.90042 -3.53714 -7.90042 -7.900421z" fill-rule="evenodd"/><path fill="#000000" d="m25.603628 446.54678l0 -7.59375l0.8749981 0l0 2.078125l-0.03125 1.0625q0.375 -0.359375 0.78125 -0.609375q0.40625 -0.25 0.9375 -0.25q0.828125 0 1.203125 0.515625q0.375 0.515625 0.375 1.515625l0 3.28125l-0.875 0l0 -3.171875q0 -0.734375 -0.234375 -1.046875q-0.234375 -0.328125 -0.734375 -0.328125q-0.40625 0 -0.71875 0.203125q-0.3125 0.203125 -0.703125 0.59375l0 3.75l-0.8749981 0z" fill-rule="nonzero"/><path fill="#000000" d="m32.19756 450.6249q-0.28125 0 -0.46875 -0.078125q-0.1875 -0.078125 -0.3125 -0.234375q-0.109375 -0.15625 -0.15625 -0.359375q-0.046875 -0.21875 -0.046875 -0.46875l0 -1.921875l-0.515625 0l0 -0.4375l0.546875 -0.03125l0.0625 -0.96875l0.484375 0l0 0.96875l0.9375 0l0 0.46875l-0.9375 0l0 1.921875q0 0.328125 0.109375 0.5q0.125 0.171875 0.4375 0.171875q0.078125 0 0.1875 -0.03125q0.109375 -0.03125 0.203125 -0.0625l0.109375 0.4375q-0.140625 0.046875 -0.3125 0.078125q-0.171875 0.046875 -0.328125 0.046875zm1.0279503 -1.640625l0 -0.4375l1.625 0l0 0.4375l-1.625 0zm2.4766197 1.5625l0 -0.484375l1.03125 0l0 -3.34375l-0.8125 0l0 -0.375q0.3125 -0.0625 0.53125 -0.140625q0.234375 -0.078125 0.421875 -0.1875l0.453125 0l0 4.046875l0.9375 0l0 0.484375l-2.5625 0z" fill-rule="nonzero"/><path fill="#ead1dc" d="m8.0 15.899108l0 0c0 -4.3632812 3.537139 -7.90042 7.90042 -7.90042l31.600735 0l0 0c2.0953217 0 4.104824 0.8323631 5.586441 2.3139791c1.4816132 1.481617 2.3139763 3.4911194 2.3139763 5.586441l0 101.71097c0 4.3632812 -3.537136 7.900421 -7.9004173 7.900421l-31.600735 0c-4.3632812 0 -7.90042 -3.53714 -7.90042 -7.900421z" fill-rule="evenodd"/><path fill="#000000" d="m28.194141 111.56155q-0.671875 0 -1.234375 -0.234375q-0.546875 -0.25 -0.9531231 -0.71875q-0.40625 -0.46875 -0.640625 -1.140625q-0.234375 -0.671875 -0.234375 -1.53125q0 -0.84375 0.234375 -1.515625q0.234375 -0.671875 0.65625 -1.140625q0.4218731 -0.46875 0.9843731 -0.71875q0.5625 -0.25 1.234375 -0.25q0.640625 0 1.125 0.265625q0.484375 0.265625 0.796875 0.609375l-0.484375 0.5625q-0.28125 -0.296875 -0.640625 -0.46875q-0.34375 -0.1875 -0.78125 -0.1875q-0.5 0 -0.90625 0.203125q-0.40625 0.1875 -0.703125 0.5625q-0.28125 0.359375 -0.4374981 0.890625q-0.15625 0.515625 -0.15625 1.171875q0 0.65625 0.15625 1.1875q0.1562481 0.53125 0.4218731 0.90625q0.28125 0.359375 0.6875 0.5625q0.40625 0.203125 0.90625 0.203125q0.5 0 0.875 -0.203125q0.390625 -0.203125 0.734375 -0.578125l0.5 0.546875q-0.421875 0.484375 -0.953125 0.75q-0.515625 0.265625 -1.1875 0.265625z" fill-rule="nonzero"/><path fill="#000000" d="m32.34142 115.51467q-0.28125 0 -0.46875 -0.078125q-0.1875 -0.078125 -0.3125 -0.234375q-0.109375 -0.15625 -0.15625 -0.359375q-0.046875 -0.21875 -0.046875 -0.46875l0 -1.921875l-0.515625 0l0 -0.4375l0.546875 -0.03125l0.0625 -0.96875l0.484375 0l0 0.96875l0.9375 0l0 0.46875l-0.9375 0l0 1.921875q0 0.328125 0.109375 0.5q0.125 0.171875 0.4375 0.171875q0.078125 0 0.1875 -0.03125q0.109375 -0.03125 0.203125 -0.0625l0.109375 0.4375q-0.140625 0.046875 -0.3125 0.078125q-0.171875 0.046875 -0.328125 0.046875zm1.0279503 -1.640625l0 -0.4375l1.625 0l0 0.4375l-1.625 0zm2.4766197 1.5625l0 -0.484375l1.03125 0l0 -3.34375l-0.8125 0l0 -0.375q0.3125 -0.0625 0.53125 -0.140625q0.234375 -0.078125 0.421875 -0.1875l0.453125 0l0 4.046875l0.9375 0l0 0.484375l-2.5625 0z" fill-rule="nonzero"/><path fill="#e9edee" d="m23.28378 20.82035l0 0c0 -1.5494881 1.2561073 -2.8055935 2.8055935 -2.8055935l11.222036 0l0 0c0.74409103 0 1.4577026 0.29558754 1.9838524 0.8217392c0.52615356 0.52614975 0.8217392 1.2397633 0.8217392 1.9838543l0 67.963684c0 1.5494843 -1.2561035 2.8055954 -2.8055916 2.8055954l-11.222036 0c-1.5494862 0 -2.8055935 -1.2561111 -2.8055935 -2.8055954z" fill-rule="evenodd"/><path stroke="#1a1a1a" stroke-width="1.0" stroke-linejoin="round" stroke-linecap="butt" d="m23.28378 20.82035l0 0c0 -1.5494881 1.2561073 -2.8055935 2.8055935 -2.8055935l11.222036 0l0 0c0.74409103 0 1.4577026 0.29558754 1.9838524 0.8217392c0.52615356 0.52614975 0.8217392 1.2397633 0.8217392 1.9838543l0 67.963684c0 1.5494843 -1.2561035 2.8055954 -2.8055916 2.8055954l-11.222036 0c-1.5494862 0 -2.8055935 -1.2561111 -2.8055935 -2.8055954z" fill-rule="evenodd"/><path fill="#ffffff" d="m25.810778 27.203226l0 0c0 -3.2527447 2.6368694 -5.889614 5.889614 -5.889614l0 0c1.5620213 0 3.0600681 0.6205101 4.164587 1.7250271c1.1045151 1.104517 1.7250252 2.6025639 1.7250252 4.164587l0 0c0 3.2527447 -2.6368675 5.889612 -5.889612 5.889612l0 0c-3.2527447 0 -5.889614 -2.6368675 -5.889614 -5.889612z" fill-rule="evenodd"/><path stroke="#1a1a1a" stroke-width="1.0" stroke-linejoin="round" stroke-linecap="butt" d="m25.810778 27.203226l0 0c0 -3.2527447 2.6368694 -5.889614 5.889614 -5.889614l0 0c1.5620213 0 3.0600681 0.6205101 4.164587 1.7250271c1.1045151 1.104517 1.7250252 2.6025639 1.7250252 4.164587l0 0c0 3.2527447 -2.6368675 5.889612 -5.889612 5.889612l0 0c-3.2527447 0 -5.889614 -2.6368675 -5.889614 -5.889612z" fill-rule="evenodd"/><path fill="#d9d9d9" d="m25.810778 64.05443l0 0c0 -3.2527466 2.6368694 -5.889618 5.889614 -5.889618l0 0c1.5620213 0 3.0600681 0.6205101 4.164587 1.725029c1.1045151 1.1045151 1.7250252 2.602562 1.7250252 4.164589l0 0c0 3.252739 -2.6368675 5.8896103 -5.889612 5.8896103l0 0c-3.2527447 0 -5.889614 -2.6368713 -5.889614 -5.8896103z" fill-rule="evenodd"/><path stroke="#1a1a1a" stroke-width="1.0" stroke-linejoin="round" stroke-linecap="butt" d="m25.810778 64.05443l0 0c0 -3.2527466 2.6368694 -5.889618 5.889614 -5.889618l0 0c1.5620213 0 3.0600681 0.6205101 4.164587 1.725029c1.1045151 1.1045151 1.7250252 2.602562 1.7250252 4.164589l0 0c0 3.252739 -2.6368675 5.8896103 -5.889612 5.8896103l0 0c-3.2527447 0 -5.889614 -2.6368713 -5.889614 -5.8896103z" fill-rule="evenodd"/><path fill="#666666" d="m25.810778 82.48003l0 0c0 -3.2527466 2.6368694 -5.889618 5.889614 -5.889618l0 0c1.5620213 0 3.0600681 0.6205139 4.164587 1.725029c1.1045151 1.1045151 1.7250252 2.602562 1.7250252 4.164589l0 0c0 3.252739 -2.6368675 5.8896103 -5.889612 5.8896103l0 0c-3.2527447 0 -5.889614 -2.6368713 -5.889614 -5.8896103z" fill-rule="evenodd"/><path stroke="#1a1a1a" stroke-width="1.0" stroke-linejoin="round" stroke-linecap="butt" d="m25.810778 82.48003l0 0c0 -3.2527466 2.6368694 -5.889618 5.889614 -5.889618l0 0c1.5620213 0 3.0600681 0.6205139 4.164587 1.725029c1.1045151 1.1045151 1.7250252 2.602562 1.7250252 4.164589l0 0c0 3.252739 -2.6368675 5.8896103 -5.889612 5.8896103l0 0c-3.2527447 0 -5.889614 -2.6368713 -5.889614 -5.8896103z" fill-rule="evenodd"/><path fill="#000000" d="m25.810778 45.628826l0 0c0 -3.2527466 2.6368694 -5.889614 5.889614 -5.889614l0 0c1.5620213 0 3.0600681 0.6205101 4.164587 1.7250252c1.1045151 1.1045189 1.7250252 2.6025658 1.7250252 4.164589l0 0c0 3.2527428 -2.6368675 5.889614 -5.889612 5.889614l0 0c-3.2527447 0 -5.889614 -2.6368713 -5.889614 -5.889614z" fill-rule="evenodd"/><path stroke="#1a1a1a" stroke-width="1.0" stroke-linejoin="round" stroke-linecap="butt" d="m25.810778 45.628826l0 0c0 -3.2527466 2.6368694 -5.889614 5.889614 -5.889614l0 0c1.5620213 0 3.0600681 0.6205101 4.164587 1.7250252c1.1045151 1.1045189 1.7250252 2.6025658 1.7250252 4.164589l0 0c0 3.2527428 -2.6368675 5.889614 -5.889612 5.889614l0 0c-3.2527447 0 -5.889614 -2.6368713 -5.889614 -5.889614z" fill-rule="evenodd"/><path fill="#e9edee" d="m23.28378 356.62744l0 0c0 -1.5494995 1.2561073 -2.805603 2.8055935 -2.805603l11.222036 0l0 0c0.74409103 0 1.4577026 0.29559326 1.9838524 0.8217468c0.52615356 0.52615356 0.8217392 1.2397766 0.8217392 1.9838562l0 67.963684c0 1.549469 -1.2561035 2.805603 -2.8055916 2.805603l-11.222036 0c-1.5494862 0 -2.8055935 -1.256134 -2.8055935 -2.805603z" fill-rule="evenodd"/><path stroke="#1a1a1a" stroke-width="1.0" stroke-linejoin="round" stroke-linecap="butt" d="m23.28378 356.62744l0 0c0 -1.5494995 1.2561073 -2.805603 2.8055935 -2.805603l11.222036 0l0 0c0.74409103 0 1.4577026 0.29559326 1.9838524 0.8217468c0.52615356 0.52615356 0.8217392 1.2397766 0.8217392 1.9838562l0 67.963684c0 1.549469 -1.2561035 2.805603 -2.8055916 2.805603l-11.222036 0c-1.5494862 0 -2.8055935 -1.256134 -2.8055935 -2.805603z" fill-rule="evenodd"/><path fill="#000000" d="m25.810778 363.0103l0 0c0 -3.2527466 2.6368694 -5.889618 5.889614 -5.889618l0 0c1.5620213 0 3.0600681 0.6205139 4.164587 1.7250366c1.1045151 1.1045227 1.7250252 2.6025696 1.7250252 4.1645813l0 0c0 3.2527466 -2.6368675 5.889618 -5.889612 5.889618l0 0c-3.2527447 0 -5.889614 -2.6368713 -5.889614 -5.889618z" fill-rule="evenodd"/><path stroke="#1a1a1a" stroke-width="1.0" stroke-linejoin="round" stroke-linecap="butt" d="m25.810778 363.0103l0 0c0 -3.2527466 2.6368694 -5.889618 5.889614 -5.889618l0 0c1.5620213 0 3.0600681 0.6205139 4.164587 1.7250366c1.1045151 1.1045227 1.7250252 2.6025696 1.7250252 4.1645813l0 0c0 3.2527466 -2.6368675 5.889618 -5.889612 5.889618l0 0c-3.2527447 0 -5.889614 -2.6368713 -5.889614 -5.889618z" fill-rule="evenodd"/><path fill="#666666" d="m25.810778 399.8615l0 0c0 -3.2527466 2.6368694 -5.889618 5.889614 -5.889618l0 0c1.5620213 0 3.0600681 0.6205139 4.164587 1.7250366c1.1045151 1.1045227 1.7250252 2.6025696 1.7250252 4.1645813l0 0c0 3.2527466 -2.6368675 5.889618 -5.889612 5.889618l0 0c-3.2527447 0 -5.889614 -2.6368713 -5.889614 -5.889618z" fill-rule="evenodd"/><path stroke="#1a1a1a" stroke-width="1.0" stroke-linejoin="round" stroke-linecap="butt" d="m25.810778 399.8615l0 0c0 -3.2527466 2.6368694 -5.889618 5.889614 -5.889618l0 0c1.5620213 0 3.0600681 0.6205139 4.164587 1.7250366c1.1045151 1.1045227 1.7250252 2.6025696 1.7250252 4.1645813l0 0c0 3.2527466 -2.6368675 5.889618 -5.889612 5.889618l0 0c-3.2527447 0 -5.889614 -2.6368713 -5.889614 -5.889618z" fill-rule="evenodd"/><path fill="#999999" d="m25.810778 418.2871l0 0c0 -3.2527466 2.6368694 -5.889618 5.889614 -5.889618l0 0c1.5620213 0 3.0600681 0.6205139 4.164587 1.7250366c1.1045151 1.1045227 1.7250252 2.6025696 1.7250252 4.1645813l0 0c0 3.2527466 -2.6368675 5.889618 -5.889612 5.889618l0 0c-3.2527447 0 -5.889614 -2.6368713 -5.889614 -5.889618z" fill-rule="evenodd"/><path stroke="#1a1a1a" stroke-width="1.0" stroke-linejoin="round" stroke-linecap="butt" d="m25.810778 418.2871l0 0c0 -3.2527466 2.6368694 -5.889618 5.889614 -5.889618l0 0c1.5620213 0 3.0600681 0.6205139 4.164587 1.7250366c1.1045151 1.1045227 1.7250252 2.6025696 1.7250252 4.1645813l0 0c0 3.2527466 -2.6368675 5.889618 -5.889612 5.889618l0 0c-3.2527447 0 -5.889614 -2.6368713 -5.889614 -5.889618z" fill-rule="evenodd"/><path fill="#434343" d="m25.810778 381.4359l0 0c0 -3.2527466 2.6368694 -5.889618 5.889614 -5.889618l0 0c1.5620213 0 3.0600681 0.6205139 4.164587 1.7250366c1.1045151 1.1045227 1.7250252 2.6025696 1.7250252 4.1645813l0 0c0 3.2527466 -2.6368675 5.889618 -5.889612 5.889618l0 0c-3.2527447 0 -5.889614 -2.6368713 -5.889614 -5.889618z" fill-rule="evenodd"/><path stroke="#1a1a1a" stroke-width="1.0" stroke-linejoin="round" stroke-linecap="butt" d="m25.810778 381.4359l0 0c0 -3.2527466 2.6368694 -5.889618 5.889614 -5.889618l0 0c1.5620213 0 3.0600681 0.6205139 4.164587 1.7250366c1.1045151 1.1045227 1.7250252 2.6025696 1.7250252 4.1645813l0 0c0 3.2527466 -2.6368675 5.889618 -5.889612 5.889618l0 0c-3.2527447 0 -5.889614 -2.6368713 -5.889614 -5.889618z" fill-rule="evenodd"/><path fill="#000000" fill-opacity="0.0" d="m371.9134 142.93272l0 0c0 -2.5744781 2.0870361 -4.6615143 4.661499 -4.6615143l28.409271 0c1.2362976 0 2.4219666 0.49113464 3.296173 1.3653259c0.87420654 0.87420654 1.3653259 2.0598755 1.3653259 3.2961884l0 18.645493c0 2.5744781 -2.0870056 4.661499 -4.661499 4.661499l-28.409271 0c-2.574463 0 -4.661499 -2.0870209 -4.661499 -4.661499z" fill-rule="evenodd"/><path stroke="#1a1a1a" stroke-width="1.0" stroke-linejoin="round" stroke-linecap="butt" d="m371.9134 142.93272l0 0c0 -2.5744781 2.0870361 -4.6615143 4.661499 -4.6615143l28.409271 0c1.2362976 0 2.4219666 0.49113464 3.296173 1.3653259c0.87420654 0.87420654 1.3653259 2.0598755 1.3653259 3.2961884l0 18.645493c0 2.5744781 -2.0870056 4.661499 -4.661499 4.661499l-28.409271 0c-2.574463 0 -4.661499 -2.0870209 -4.661499 -4.661499z" fill-rule="evenodd"/><path fill="#000000" d="m391.15454 152.74046q-0.125 0.125 -0.375 0.125q-0.25 0 -0.375 -0.125q-0.125 -0.125 -0.125 -0.375q0 -0.25 0.125 -0.375q0.125 -0.125 0.375 -0.125q0.25 0 0.375 0.125q0.125 0.125 0.125 0.375q0 0.25 -0.125 0.375zm-0.375 2.6875q1.25 0 2.1875 -0.9375q0.875 -0.875 0.875 -2.125q0 -1.25 -0.875 -2.125q-0.9375 -0.9375 -2.1875 -0.9375q-1.25 0 -2.1875 0.9375q-0.875 0.875 -0.875 2.125q0 1.25 0.875 2.125q0.9375 0.9375 2.1875 0.9375zm2.5625 -0.6875q-1.125 1.125 -2.5625 1.125q-1.4375 0 -2.5 -1.0625q-1.0 -1.0 -1.0 -2.4375q0 -1.4375 0.9375 -2.375q1.125 -1.125 2.5625 -1.125q1.4375 0 2.5 1.0625q1.0 1.0 1.0 2.4375q0 1.4375 -0.9375 2.375z" fill-rule="nonzero"/><path fill="#000000" fill-opacity="0.0" d="m371.8819 45.540775l0 0c0 -2.574482 2.0870361 -4.6615105 4.661499 -4.6615105l28.409271 0c1.2362976 0 2.4219666 0.4911232 3.296173 1.3653259c0.87420654 0.8742027 1.3653259 2.0598755 1.3653259 3.2961845l0 18.645481c0 2.5744858 -2.0870361 4.6615143 -4.661499 4.6615143l-28.409271 0c-2.574463 0 -4.661499 -2.0870285 -4.661499 -4.6615143z" fill-rule="evenodd"/><path stroke="#1a1a1a" stroke-width="1.0" stroke-linejoin="round" stroke-linecap="butt" d="m371.8819 45.540775l0 0c0 -2.574482 2.0870361 -4.6615105 4.661499 -4.6615105l28.409271 0c1.2362976 0 2.4219666 0.4911232 3.296173 1.3653259c0.87420654 0.8742027 1.3653259 2.0598755 1.3653259 3.2961845l0 18.645481c0 2.5744858 -2.0870361 4.6615143 -4.661499 4.6615143l-28.409271 0c-2.574463 0 -4.661499 -2.0870285 -4.661499 -4.6615143z" fill-rule="evenodd"/><path fill="#000000" d="m390.22516 59.06727l0 -3.125l-2.90625 0l0 -1.0l2.90625 0l0 -3.109375l1.046875 0l0 3.109375l2.90625 0l0 1.0l-2.90625 0l0 3.125l-1.046875 0z" fill-rule="nonzero"/><path fill="#e9edee" d="m382.33102 542.62744l0 0c0 -1.5494995 1.2561035 -2.805603 2.805603 -2.805603l11.222015 0l0 0c0.7441101 0 1.4577026 0.29559326 1.9838562 0.8217163c0.52615356 0.5261841 0.8217468 1.2398071 0.8217468 1.9838867l0 67.963684c0 1.5494995 -1.2561035 2.805603 -2.805603 2.805603l-11.222015 0c-1.5494995 0 -2.805603 -1.2561035 -2.805603 -2.805603z" fill-rule="evenodd"/><path stroke="#1a1a1a" stroke-width="1.0" stroke-linejoin="round" stroke-linecap="butt" d="m382.33102 542.62744l0 0c0 -1.5494995 1.2561035 -2.805603 2.805603 -2.805603l11.222015 0l0 0c0.7441101 0 1.4577026 0.29559326 1.9838562 0.8217163c0.52615356 0.5261841 0.8217468 1.2398071 0.8217468 1.9838867l0 67.963684c0 1.5494995 -1.2561035 2.805603 -2.805603 2.805603l-11.222015 0c-1.5494995 0 -2.805603 -1.2561035 -2.805603 -2.805603z" fill-rule="evenodd"/><path fill="#ffffff" d="m384.85803 549.0103l0 0c0 -3.2527466 2.6368713 -5.8895874 5.889618 -5.8895874l0 0c1.5620117 0 3.0600586 0.6204834 4.1645813 1.7249756c1.1044922 1.1045532 1.7250061 2.6026 1.7250061 4.164612l0 0c0 3.2527466 -2.6368713 5.8895874 -5.8895874 5.8895874l0 0c-3.2527466 0 -5.889618 -2.6368408 -5.889618 -5.8895874z" fill-rule="evenodd"/><path stroke="#1a1a1a" stroke-width="1.0" stroke-linejoin="round" stroke-linecap="butt" d="m384.85803 549.0103l0 0c0 -3.2527466 2.6368713 -5.8895874 5.889618 -5.8895874l0 0c1.5620117 0 3.0600586 0.6204834 4.1645813 1.7249756c1.1044922 1.1045532 1.7250061 2.6026 1.7250061 4.164612l0 0c0 3.2527466 -2.6368713 5.8895874 -5.8895874 5.8895874l0 0c-3.2527466 0 -5.889618 -2.6368408 -5.889618 -5.8895874z" fill-rule="evenodd"/><path fill="#d9d9d9" d="m384.85803 585.8615l0 0c0 -3.2527466 2.6368713 -5.8895874 5.889618 -5.8895874l0 0c1.5620117 0 3.0600586 0.6204834 4.1645813 1.7249756c1.1044922 1.1045532 1.7250061 2.6026 1.7250061 4.164612l0 0c0 3.2527466 -2.6368713 5.8895874 -5.8895874 5.8895874l0 0c-3.2527466 0 -5.889618 -2.6368408 -5.889618 -5.8895874z" fill-rule="evenodd"/><path stroke="#1a1a1a" stroke-width="1.0" stroke-linejoin="round" stroke-linecap="butt" d="m384.85803 585.8615l0 0c0 -3.2527466 2.6368713 -5.8895874 5.889618 -5.8895874l0 0c1.5620117 0 3.0600586 0.6204834 4.1645813 1.7249756c1.1044922 1.1045532 1.7250061 2.6026 1.7250061 4.164612l0 0c0 3.2527466 -2.6368713 5.8895874 -5.8895874 5.8895874l0 0c-3.2527466 0 -5.889618 -2.6368408 -5.889618 -5.8895874z" fill-rule="evenodd"/><path fill="#666666" d="m384.85803 604.2871l0 0c0 -3.2527466 2.6368713 -5.8895874 5.889618 -5.8895874l0 0c1.5620117 0 3.0600586 0.6204834 4.1645813 1.7249756c1.1044922 1.1045532 1.7250061 2.6026 1.7250061 4.164612l0 0c0 3.2527466 -2.6368713 5.8895874 -5.8895874 5.8895874l0 0c-3.2527466 0 -5.889618 -2.6368408 -5.889618 -5.8895874z" fill-rule="evenodd"/><path stroke="#1a1a1a" stroke-width="1.0" stroke-linejoin="round" stroke-linecap="butt" d="m384.85803 604.2871l0 0c0 -3.2527466 2.6368713 -5.8895874 5.889618 -5.8895874l0 0c1.5620117 0 3.0600586 0.6204834 4.1645813 1.7249756c1.1044922 1.1045532 1.7250061 2.6026 1.7250061 4.164612l0 0c0 3.2527466 -2.6368713 5.8895874 -5.8895874 5.8895874l0 0c-3.2527466 0 -5.889618 -2.6368408 -5.889618 -5.8895874z" fill-rule="evenodd"/><path fill="#000000" d="m384.85803 567.4359l0 0c0 -3.2527466 2.6368713 -5.8895874 5.889618 -5.8895874l0 0c1.5620117 0 3.0600586 0.6204834 4.1645813 1.7249756c1.1044922 1.1045532 1.7250061 2.6026 1.7250061 4.164612l0 0c0 3.2527466 -2.6368713 5.8895874 -5.8895874 5.8895874l0 0c-3.2527466 0 -5.889618 -2.6368408 -5.889618 -5.8895874z" fill-rule="evenodd"/><path stroke="#1a1a1a" stroke-width="1.0" stroke-linejoin="round" stroke-linecap="butt" d="m384.85803 567.4359l0 0c0 -3.2527466 2.6368713 -5.8895874 5.889618 -5.8895874l0 0c1.5620117 0 3.0600586 0.6204834 4.1645813 1.7249756c1.1044922 1.1045532 1.7250061 2.6026 1.7250061 4.164612l0 0c0 3.2527466 -2.6368713 5.8895874 -5.8895874 5.8895874l0 0c-3.2527466 0 -5.889618 -2.6368408 -5.889618 -5.8895874z" fill-rule="evenodd"/><path fill="#e9edee" d="m382.33102 318.3387l0 0c0 -1.549469 1.2561035 -2.8055725 2.805603 -2.8055725l11.222015 0l0 0c0.7441101 0 1.4577026 0.29556274 1.9838562 0.8217163c0.52615356 0.52615356 0.8217468 1.2397766 0.8217468 1.9838562l0 67.963684c0 1.5494995 -1.2561035 2.805603 -2.805603 2.805603l-11.222015 0c-1.5494995 0 -2.805603 -1.2561035 -2.805603 -2.805603z" fill-rule="evenodd"/><path stroke="#1a1a1a" stroke-width="1.0" stroke-linejoin="round" stroke-linecap="butt" d="m382.33102 318.3387l0 0c0 -1.549469 1.2561035 -2.8055725 2.805603 -2.8055725l11.222015 0l0 0c0.7441101 0 1.4577026 0.29556274 1.9838562 0.8217163c0.52615356 0.52615356 0.8217468 1.2397766 0.8217468 1.9838562l0 67.963684c0 1.5494995 -1.2561035 2.805603 -2.805603 2.805603l-11.222015 0c-1.5494995 0 -2.805603 -1.2561035 -2.805603 -2.805603z" fill-rule="evenodd"/><path fill="#000000" d="m384.85803 324.7216l0 0c0 -3.2527466 2.6368713 -5.889618 5.889618 -5.889618l0 0c1.5620117 0 3.0600586 0.6205139 4.1645813 1.7250366c1.1044922 1.1045227 1.7250061 2.6025696 1.7250061 4.1645813l0 0c0 3.2527466 -2.6368713 5.889618 -5.8895874 5.889618l0 0c-3.2527466 0 -5.889618 -2.6368713 -5.889618 -5.889618z" fill-rule="evenodd"/><path stroke="#1a1a1a" stroke-width="1.0" stroke-linejoin="round" stroke-linecap="butt" d="m384.85803 324.7216l0 0c0 -3.2527466 2.6368713 -5.889618 5.889618 -5.889618l0 0c1.5620117 0 3.0600586 0.6205139 4.1645813 1.7250366c1.1044922 1.1045227 1.7250061 2.6025696 1.7250061 4.1645813l0 0c0 3.2527466 -2.6368713 5.889618 -5.8895874 5.889618l0 0c-3.2527466 0 -5.889618 -2.6368713 -5.889618 -5.889618z" fill-rule="evenodd"/><path fill="#666666" d="m384.85803 361.57278l0 0c0 -3.2527466 2.6368713 -5.8895874 5.889618 -5.8895874l0 0c1.5620117 0 3.0600586 0.6204834 4.1645813 1.7250061c1.1044922 1.1045227 1.7250061 2.6025696 1.7250061 4.1645813l0 0c0 3.2527466 -2.6368713 5.889618 -5.8895874 5.889618l0 0c-3.2527466 0 -5.889618 -2.6368713 -5.889618 -5.889618z" fill-rule="evenodd"/><path stroke="#1a1a1a" stroke-width="1.0" stroke-linejoin="round" stroke-linecap="butt" d="m384.85803 361.57278l0 0c0 -3.2527466 2.6368713 -5.8895874 5.889618 -5.8895874l0 0c1.5620117 0 3.0600586 0.6204834 4.1645813 1.7250061c1.1044922 1.1045227 1.7250061 2.6025696 1.7250061 4.1645813l0 0c0 3.2527466 -2.6368713 5.889618 -5.8895874 5.889618l0 0c-3.2527466 0 -5.889618 -2.6368713 -5.889618 -5.889618z" fill-rule="evenodd"/><path fill="#999999" d="m384.85803 379.99838l0 0c0 -3.252716 2.6368713 -5.8895874 5.889618 -5.8895874l0 0c1.5620117 0 3.0600586 0.6204834 4.1645813 1.7250061c1.1044922 1.1045227 1.7250061 2.6025696 1.7250061 4.1645813l0 0c0 3.2527466 -2.6368713 5.889618 -5.8895874 5.889618l0 0c-3.2527466 0 -5.889618 -2.6368713 -5.889618 -5.889618z" fill-rule="evenodd"/><path stroke="#1a1a1a" stroke-width="1.0" stroke-linejoin="round" stroke-linecap="butt" d="m384.85803 379.99838l0 0c0 -3.252716 2.6368713 -5.8895874 5.889618 -5.8895874l0 0c1.5620117 0 3.0600586 0.6204834 4.1645813 1.7250061c1.1044922 1.1045227 1.7250061 2.6025696 1.7250061 4.1645813l0 0c0 3.2527466 -2.6368713 5.889618 -5.8895874 5.889618l0 0c-3.2527466 0 -5.889618 -2.6368713 -5.889618 -5.889618z" fill-rule="evenodd"/><path fill="#434343" d="m384.85803 343.1472l0 0c0 -3.2527466 2.6368713 -5.8895874 5.889618 -5.8895874l0 0c1.5620117 0 3.0600586 0.6204834 4.1645813 1.7250061c1.1044922 1.1045227 1.7250061 2.6025696 1.7250061 4.1645813l0 0c0 3.2527466 -2.6368713 5.889618 -5.8895874 5.889618l0 0c-3.2527466 0 -5.889618 -2.6368713 -5.889618 -5.889618z" fill-rule="evenodd"/><path stroke="#1a1a1a" stroke-width="1.0" stroke-linejoin="round" stroke-linecap="butt" d="m384.85803 343.1472l0 0c0 -3.2527466 2.6368713 -5.8895874 5.889618 -5.8895874l0 0c1.5620117 0 3.0600586 0.6204834 4.1645813 1.7250061c1.1044922 1.1045227 1.7250061 2.6025696 1.7250061 4.1645813l0 0c0 3.2527466 -2.6368713 5.889618 -5.8895874 5.889618l0 0c-3.2527466 0 -5.889618 -2.6368713 -5.889618 -5.889618z" fill-rule="evenodd"/><path fill="#e9edee" d="m382.33102 391.9135l0 0c0 -1.549469 1.2561035 -2.8055725 2.805603 -2.8055725l11.222015 0l0 0c0.7441101 0 1.4577026 0.29559326 1.9838562 0.8217163c0.52615356 0.52615356 0.8217468 1.2397766 0.8217468 1.9838562l0 67.963684c0 1.5494995 -1.2561035 2.805603 -2.805603 2.805603l-11.222015 0c-1.5494995 0 -2.805603 -1.2561035 -2.805603 -2.805603z" fill-rule="evenodd"/><path stroke="#1a1a1a" stroke-width="1.0" stroke-linejoin="round" stroke-linecap="butt" d="m382.33102 391.9135l0 0c0 -1.549469 1.2561035 -2.8055725 2.805603 -2.8055725l11.222015 0l0 0c0.7441101 0 1.4577026 0.29559326 1.9838562 0.8217163c0.52615356 0.52615356 0.8217468 1.2397766 0.8217468 1.9838562l0 67.963684c0 1.5494995 -1.2561035 2.805603 -2.805603 2.805603l-11.222015 0c-1.5494995 0 -2.805603 -1.2561035 -2.805603 -2.805603z" fill-rule="evenodd"/><path fill="#ffffff" d="m384.85803 398.2964l0 0c0 -3.252716 2.6368713 -5.8895874 5.889618 -5.8895874l0 0c1.5620117 0 3.0600586 0.6205139 4.1645813 1.7250061c1.1044922 1.1045227 1.7250061 2.6025696 1.7250061 4.1645813l0 0c0 3.2527466 -2.6368713 5.889618 -5.8895874 5.889618l0 0c-3.2527466 0 -5.889618 -2.6368713 -5.889618 -5.889618z" fill-rule="evenodd"/><path stroke="#1a1a1a" stroke-width="1.0" stroke-linejoin="round" stroke-linecap="butt" d="m384.85803 398.2964l0 0c0 -3.252716 2.6368713 -5.8895874 5.889618 -5.8895874l0 0c1.5620117 0 3.0600586 0.6205139 4.1645813 1.7250061c1.1044922 1.1045227 1.7250061 2.6025696 1.7250061 4.1645813l0 0c0 3.2527466 -2.6368713 5.889618 -5.8895874 5.889618l0 0c-3.2527466 0 -5.889618 -2.6368713 -5.889618 -5.889618z" fill-rule="evenodd"/><path fill="#d9d9d9" d="m384.85803 435.1476l0 0c0 -3.2527466 2.6368713 -5.889618 5.889618 -5.889618l0 0c1.5620117 0 3.0600586 0.6205139 4.1645813 1.7250061c1.1044922 1.1045227 1.7250061 2.6025696 1.7250061 4.164612l0 0c0 3.252716 -2.6368713 5.8895874 -5.8895874 5.8895874l0 0c-3.2527466 0 -5.889618 -2.6368713 -5.889618 -5.8895874z" fill-rule="evenodd"/><path stroke="#1a1a1a" stroke-width="1.0" stroke-linejoin="round" stroke-linecap="butt" d="m384.85803 435.1476l0 0c0 -3.2527466 2.6368713 -5.889618 5.889618 -5.889618l0 0c1.5620117 0 3.0600586 0.6205139 4.1645813 1.7250061c1.1044922 1.1045227 1.7250061 2.6025696 1.7250061 4.164612l0 0c0 3.252716 -2.6368713 5.8895874 -5.8895874 5.8895874l0 0c-3.2527466 0 -5.889618 -2.6368713 -5.889618 -5.8895874z" fill-rule="evenodd"/><path fill="#666666" d="m384.85803 453.5732l0 0c0 -3.2527466 2.6368713 -5.889618 5.889618 -5.889618l0 0c1.5620117 0 3.0600586 0.6205139 4.1645813 1.7250061c1.1044922 1.1045227 1.7250061 2.6025696 1.7250061 4.164612l0 0c0 3.2527466 -2.6368713 5.8895874 -5.8895874 5.8895874l0 0c-3.2527466 0 -5.889618 -2.6368408 -5.889618 -5.8895874z" fill-rule="evenodd"/><path stroke="#1a1a1a" stroke-width="1.0" stroke-linejoin="round" stroke-linecap="butt" d="m384.85803 453.5732l0 0c0 -3.2527466 2.6368713 -5.889618 5.889618 -5.889618l0 0c1.5620117 0 3.0600586 0.6205139 4.1645813 1.7250061c1.1044922 1.1045227 1.7250061 2.6025696 1.7250061 4.164612l0 0c0 3.2527466 -2.6368713 5.8895874 -5.8895874 5.8895874l0 0c-3.2527466 0 -5.889618 -2.6368408 -5.889618 -5.8895874z" fill-rule="evenodd"/><path fill="#000000" d="m384.85803 416.72202l0 0c0 -3.2527466 2.6368713 -5.889618 5.889618 -5.889618l0 0c1.5620117 0 3.0600586 0.6205139 4.1645813 1.7250061c1.1044922 1.1045227 1.7250061 2.6025696 1.7250061 4.164612l0 0c0 3.252716 -2.6368713 5.8895874 -5.8895874 5.8895874l0 0c-3.2527466 0 -5.889618 -2.6368713 -5.889618 -5.8895874z" fill-rule="evenodd"/><path stroke="#1a1a1a" stroke-width="1.0" stroke-linejoin="round" stroke-linecap="butt" d="m384.85803 416.72202l0 0c0 -3.2527466 2.6368713 -5.889618 5.889618 -5.889618l0 0c1.5620117 0 3.0600586 0.6205139 4.1645813 1.7250061c1.1044922 1.1045227 1.7250061 2.6025696 1.7250061 4.164612l0 0c0 3.252716 -2.6368713 5.8895874 -5.8895874 5.8895874l0 0c-3.2527466 0 -5.889618 -2.6368713 -5.889618 -5.8895874z" fill-rule="evenodd"/><path fill="#000000" fill-opacity="0.0" d="m460.52667 214.1882l0 0c0 -2.5744934 2.0870361 -4.6615143 4.6615295 -4.6615143l35.65335 0c1.2362976 0 2.421997 0.49111938 3.296173 1.3653259c0.87420654 0.8741913 1.3653259 2.0598755 1.3653259 3.2961884l0 18.645477c0 2.5744781 -2.0870056 4.6615143 -4.661499 4.6615143l-35.65335 0c-2.5744934 0 -4.6615295 -2.0870361 -4.6615295 -4.6615143z" fill-rule="evenodd"/><path stroke="#1a1a1a" stroke-width="1.0" stroke-linejoin="round" stroke-linecap="butt" d="m460.52667 214.1882l0 0c0 -2.5744934 2.0870361 -4.6615143 4.6615295 -4.6615143l35.65335 0c1.2362976 0 2.421997 0.49111938 3.296173 1.3653259c0.87420654 0.8741913 1.3653259 2.0598755 1.3653259 3.2961884l0 18.645477c0 2.5744781 -2.0870056 4.6615143 -4.661499 4.6615143l-35.65335 0c-2.5744934 0 -4.6615295 -2.0870361 -4.6615295 -4.6615143z" fill-rule="evenodd"/><path fill="#000000" d="m475.2155 227.37593q-0.40625 0 -0.6875 -0.125q-0.28125 -0.125 -0.46875 -0.34375q-0.171875 -0.234375 -0.25 -0.546875q-0.078125 -0.328125 -0.078125 -0.703125l0 -2.875l-0.765625 0l0 -0.65625l0.8125 -0.046875l0.109375 -1.453125l0.734375 0l0 1.453125l1.390625 0l0 0.703125l-1.390625 0l0 2.875q0 0.484375 0.171875 0.75q0.1875 0.25 0.625 0.25q0.140625 0 0.296875 -0.03125q0.171875 -0.046875 0.296875 -0.09375l0.171875 0.65625q-0.21875 0.078125 -0.46875 0.125q-0.25 0.0625 -0.5 0.0625zm3.1643372 0q-0.640625 0 -1.078125 -0.375q-0.4375 -0.390625 -0.4375 -1.09375q0 -0.84375 0.75 -1.296875q0.765625 -0.453125 2.4375 -0.640625q0 -0.25 -0.046875 -0.484375q-0.046875 -0.234375 -0.171875 -0.40625q-0.109375 -0.1875 -0.328125 -0.296875q-0.203125 -0.109375 -0.515625 -0.109375q-0.453125 0 -0.859375 0.171875q-0.390625 0.171875 -0.6875 0.375l-0.34375 -0.609375q0.359375 -0.234375 0.875 -0.453125q0.53125 -0.21875 1.15625 -0.21875q0.953125 0 1.375 0.59375q0.421875 0.578125 0.421875 1.546875l0 3.171875l-0.71875 0l-0.078125 -0.625l-0.03125 0q-0.375 0.3125 -0.796875 0.53125q-0.421875 0.21875 -0.921875 0.21875zm0.265625 -0.703125q0.375 0 0.703125 -0.171875q0.328125 -0.171875 0.703125 -0.515625l0 -1.4375q-0.65625 0.078125 -1.109375 0.203125q-0.4375 0.109375 -0.703125 0.28125q-0.265625 0.15625 -0.390625 0.359375q-0.125 0.203125 -0.125 0.453125q0 0.453125 0.265625 0.640625q0.265625 0.1875 0.65625 0.1875zm3.917694 0.578125l0 -5.171875l0.71875 0l0.078125 0.734375l0.03125 0q0.375 -0.375 0.78125 -0.625q0.421875 -0.25 0.953125 -0.25q0.828125 0 1.203125 0.515625q0.375 0.515625 0.375 1.515625l0 3.28125l-0.875 0l0 -3.171875q0 -0.734375 -0.234375 -1.046875q-0.234375 -0.328125 -0.734375 -0.328125q-0.40625 0 -0.71875 0.203125q-0.3125 0.203125 -0.703125 0.59375l0 3.75l-0.875 0zm5.82901 0l0 -7.59375l0.875 0l0 2.078125l-0.03125 1.0625q0.375 -0.359375 0.78125 -0.609375q0.40625 -0.25 0.9375 -0.25q0.828125 0 1.203125 0.515625q0.375 0.515625 0.375 1.515625l0 3.28125l-0.875 0l0 -3.171875q0 -0.734375 -0.234375 -1.046875q-0.234375 -0.328125 -0.734375 -0.328125q-0.40625 0 -0.71875 0.203125q-0.3125 0.203125 -0.703125 0.59375l0 3.75l-0.875 0z" fill-rule="nonzero"/><path fill="#000000" fill-opacity="0.0" d="m123.708664 214.18427l0 0c0 -2.5744934 2.0870285 -4.6615143 4.6615143 -4.6615143l28.409256 0c1.2363129 0 2.4219818 0.49111938 3.2961884 1.3653259c0.87420654 0.8741913 1.3653259 2.0598755 1.3653259 3.2961884l0 18.645477c0 2.5744781 -2.0870361 4.6615143 -4.6615143 4.6615143l-28.409256 0c-2.5744858 0 -4.6615143 -2.0870361 -4.6615143 -4.6615143z" fill-rule="evenodd"/><path stroke="#1a1a1a" stroke-width="1.0" stroke-linejoin="round" stroke-linecap="butt" d="m123.708664 214.18427l0 0c0 -2.5744934 2.0870285 -4.6615143 4.6615143 -4.6615143l28.409256 0c1.2363129 0 2.4219818 0.49111938 3.2961884 1.3653259c0.87420654 0.8741913 1.3653259 2.0598755 1.3653259 3.2961884l0 18.645477c0 2.5744781 -2.0870361 4.6615143 -4.6615143 4.6615143l-28.409256 0c-2.5744858 0 -4.6615143 -2.0870361 -4.6615143 -4.6615143z" fill-rule="evenodd"/><path fill="#000000" d="m142.42554 229.5545q-0.703125 0 -1.34375 -0.265625q-0.625 -0.265625 -1.109375 -0.765625q-0.46875 -0.5 -0.75 -1.25q-0.28125 -0.75 -0.28125 -1.71875q0 -1.015625 0.296875 -1.75q0.296875 -0.75 0.78125 -1.234375q0.5 -0.5 1.140625 -0.734375q0.640625 -0.25 1.328125 -0.25l4.265625 0l0 1.125q-0.671875 -0.046875 -1.234375 -0.078125q-0.5625 -0.03125 -1.234375 -0.046875l0 0.0625q0.71875 0.421875 1.125 1.203125q0.40625 0.78125 0.40625 1.890625q0 0.90625 -0.265625 1.609375q-0.25 0.703125 -0.71875 1.203125q-0.453125 0.5 -1.078125 0.75q-0.609375 0.25 -1.328125 0.25zm0.015625 -1.078125q0.453125 0 0.84375 -0.203125q0.390625 -0.203125 0.65625 -0.5625q0.28125 -0.375 0.4375 -0.90625q0.171875 -0.53125 0.171875 -1.1875q0 -0.5625 -0.140625 -1.09375q-0.140625 -0.546875 -0.40625 -0.953125q-0.265625 -0.40625 -0.65625 -0.640625q-0.390625 -0.25 -0.890625 -0.25q-0.921875 0 -1.546875 0.71875q-0.609375 0.703125 -0.609375 2.15625q0 0.671875 0.15625 1.21875q0.171875 0.53125 0.453125 0.921875q0.28125 0.375 0.671875 0.578125q0.40625 0.203125 0.859375 0.203125z" fill-rule="nonzero"/><path fill="#000000" fill-opacity="0.0" d="m292.11768 214.1882l0 0c0 -2.5744934 2.0870361 -4.6615143 4.661499 -4.6615143l28.409271 0c1.2362976 0 2.421997 0.49111938 3.296173 1.3653259c0.87420654 0.8741913 1.3653259 2.0598755 1.3653259 3.2961884l0 18.645477c0 2.5744781 -2.0870056 4.6615143 -4.661499 4.6615143l-28.409271 0c-2.574463 0 -4.661499 -2.0870361 -4.661499 -4.6615143z" fill-rule="evenodd"/><path stroke="#1a1a1a" stroke-width="1.0" stroke-linejoin="round" stroke-linecap="butt" d="m292.11768 214.1882l0 0c0 -2.5744934 2.0870361 -4.6615143 4.661499 -4.6615143l28.409271 0c1.2362976 0 2.421997 0.49111938 3.296173 1.3653259c0.87420654 0.8741913 1.3653259 2.0598755 1.3653259 3.2961884l0 18.645477c0 2.5744781 -2.0870056 4.6615143 -4.661499 4.6615143l-28.409271 0c-2.574463 0 -4.661499 -2.0870361 -4.661499 -4.6615143z" fill-rule="evenodd"/><path fill="#000000" d="m310.83456 229.55844q-0.703125 0 -1.34375 -0.265625q-0.625 -0.265625 -1.109375 -0.765625q-0.46875 -0.5 -0.75 -1.25q-0.28125 -0.75 -0.28125 -1.71875q0 -1.015625 0.296875 -1.75q0.296875 -0.75 0.78125 -1.234375q0.5 -0.5 1.140625 -0.734375q0.640625 -0.25 1.328125 -0.25l4.265625 0l0 1.125q-0.671875 -0.046875 -1.234375 -0.078125q-0.5625 -0.03125 -1.234375 -0.046875l0 0.0625q0.71875 0.421875 1.125 1.203125q0.40625 0.78125 0.40625 1.890625q0 0.90625 -0.265625 1.609375q-0.25 0.703125 -0.71875 1.203125q-0.453125 0.5 -1.078125 0.75q-0.609375 0.25 -1.328125 0.25zm0.015625 -1.078125q0.453125 0 0.84375 -0.203125q0.390625 -0.203125 0.65625 -0.5625q0.28125 -0.375 0.4375 -0.90625q0.171875 -0.53125 0.171875 -1.1875q0 -0.5625 -0.140625 -1.09375q-0.140625 -0.546875 -0.40625 -0.953125q-0.265625 -0.40625 -0.65625 -0.640625q-0.390625 -0.25 -0.890625 -0.25q-0.921875 0 -1.546875 0.71875q-0.609375 0.703125 -0.609375 2.15625q0 0.671875 0.15625 1.21875q0.171875 0.53125 0.453125 0.921875q0.28125 0.375 0.671875 0.578125q0.40625 0.203125 0.859375 0.203125z" fill-rule="nonzero"/><path fill="#000000" fill-opacity="0.0" d="m636.1798 214.1882l0 0c0 -2.5744934 2.0870361 -4.6615143 4.661499 -4.6615143l28.40924 0c1.2363281 0 2.421997 0.49111938 3.2962036 1.3653259c0.87420654 0.8741913 1.3652954 2.0598755 1.3652954 3.2961884l0 18.645477c0 2.5744781 -2.086975 4.6615143 -4.661499 4.6615143l-28.40924 0c-2.574463 0 -4.661499 -2.0870361 -4.661499 -4.6615143z" fill-rule="evenodd"/><path stroke="#1a1a1a" stroke-width="1.0" stroke-linejoin="round" stroke-linecap="butt" d="m636.1798 214.1882l0 0c0 -2.5744934 2.0870361 -4.6615143 4.661499 -4.6615143l28.40924 0c1.2363281 0 2.421997 0.49111938 3.2962036 1.3653259c0.87420654 0.8741913 1.3652954 2.0598755 1.3652954 3.2961884l0 18.645477c0 2.5744781 -2.086975 4.6615143 -4.661499 4.6615143l-28.40924 0c-2.574463 0 -4.661499 -2.0870361 -4.661499 -4.6615143z" fill-rule="evenodd"/><path fill="#000000" d="m654.89667 229.55844q-0.703125 0 -1.34375 -0.265625q-0.625 -0.265625 -1.109375 -0.765625q-0.46875 -0.5 -0.75 -1.25q-0.28125 -0.75 -0.28125 -1.71875q0 -1.015625 0.296875 -1.75q0.296875 -0.75 0.78125 -1.234375q0.5 -0.5 1.140625 -0.734375q0.640625 -0.25 1.328125 -0.25l4.265625 0l0 1.125q-0.671875 -0.046875 -1.234375 -0.078125q-0.5625 -0.03125 -1.234375 -0.046875l0 0.0625q0.71875 0.421875 1.125 1.203125q0.40625 0.78125 0.40625 1.890625q0 0.90625 -0.265625 1.609375q-0.25 0.703125 -0.71875 1.203125q-0.453125 0.5 -1.078125 0.75q-0.609375 0.25 -1.328125 0.25zm0.015625 -1.078125q0.453125 0 0.84375 -0.203125q0.390625 -0.203125 0.65625 -0.5625q0.28125 -0.375 0.4375 -0.90625q0.171875 -0.53125 0.171875 -1.1875q0 -0.5625 -0.140625 -1.09375q-0.140625 -0.546875 -0.40625 -0.953125q-0.265625 -0.40625 -0.65625 -0.640625q-0.390625 -0.25 -0.890625 -0.25q-0.921875 0 -1.546875 0.71875q-0.609375 0.703125 -0.609375 2.15625q0 0.671875 0.15625 1.21875q0.171875 0.53125 0.453125 0.921875q0.28125 0.375 0.671875 0.578125q0.40625 0.203125 0.859375 0.203125z" fill-rule="nonzero"/><path fill="#000000" fill-opacity="0.0" d="m632.55774 94.23806l0 0c0 -2.5744781 2.0870361 -4.6615067 4.661499 -4.6615067l35.65338 0c1.2363281 0 2.421997 0.49111938 3.2962036 1.3653259c0.8741455 0.8741989 1.3652954 2.0598755 1.3652954 3.2961807l0 18.645485c0 2.5744858 -2.0870361 4.6615143 -4.661499 4.6615143l-35.65338 0c-2.574463 0 -4.661499 -2.0870285 -4.661499 -4.6615143z" fill-rule="evenodd"/><path stroke="#1a1a1a" stroke-width="1.0" stroke-linejoin="round" stroke-linecap="butt" d="m632.55774 94.23806l0 0c0 -2.5744781 2.0870361 -4.6615067 4.661499 -4.6615067l35.65338 0c1.2363281 0 2.421997 0.49111938 3.2962036 1.3653259c0.8741455 0.8741989 1.3652954 2.0598755 1.3652954 3.2961807l0 18.645485c0 2.5744858 -2.0870361 4.6615143 -4.661499 4.6615143l-35.65338 0c-2.574463 0 -4.661499 -2.0870285 -4.661499 -4.6615143z" fill-rule="evenodd"/><path fill="#000000" d="m647.2466 107.425804q-0.40625 0 -0.6875 -0.125q-0.28125 -0.125 -0.46875 -0.34375q-0.171875 -0.234375 -0.25 -0.546875q-0.078125 -0.328125 -0.078125 -0.703125l0 -2.875l-0.765625 0l0 -0.65625l0.8125 -0.046875l0.109375 -1.453125l0.734375 0l0 1.453125l1.390625 0l0 0.703125l-1.390625 0l0 2.875q0 0.484375 0.171875 0.75q0.1875 0.25 0.625 0.25q0.140625 0 0.296875 -0.03125q0.171875 -0.046875 0.296875 -0.09375l0.171875 0.65625q-0.21875 0.078125 -0.46875 0.125q-0.25 0.0625 -0.5 0.0625zm3.1643066 0q-0.640625 0 -1.078125 -0.375q-0.4375 -0.390625 -0.4375 -1.09375q0 -0.84375 0.75 -1.296875q0.765625 -0.453125 2.4375 -0.640625q0 -0.25 -0.046875 -0.484375q-0.046875 -0.234375 -0.171875 -0.40625q-0.109375 -0.1875 -0.328125 -0.296875q-0.203125 -0.109375 -0.515625 -0.109375q-0.453125 0 -0.859375 0.171875q-0.390625 0.171875 -0.6875 0.375l-0.34375 -0.609375q0.359375 -0.234375 0.875 -0.453125q0.53125 -0.21875 1.15625 -0.21875q0.953125 0 1.375 0.59375q0.421875 0.578125 0.421875 1.546875l0 3.171875l-0.71875 0l-0.078125 -0.625l-0.03125 0q-0.375 0.3125 -0.796875 0.53125q-0.421875 0.21875 -0.921875 0.21875zm0.265625 -0.703125q0.375 0 0.703125 -0.171875q0.328125 -0.171875 0.703125 -0.515625l0 -1.4375q-0.65625 0.078125 -1.109375 0.203125q-0.4375 0.109375 -0.703125 0.28125q-0.265625 0.15625 -0.390625 0.359375q-0.125 0.203125 -0.125 0.453125q0 0.453125 0.265625 0.640625q0.265625 0.1875 0.65625 0.1875zm3.9177246 0.578125l0 -5.171875l0.71875 0l0.078125 0.734375l0.03125 0q0.375 -0.375 0.78125 -0.625q0.421875 -0.25 0.953125 -0.25q0.828125 0 1.203125 0.515625q0.375 0.515625 0.375 1.515625l0 3.28125l-0.875 0l0 -3.171875q0 -0.734375 -0.234375 -1.046875q-0.234375 -0.328125 -0.734375 -0.328125q-0.40625 0 -0.71875 0.203125q-0.3125 0.203125 -0.703125 0.59375l0 3.75l-0.875 0zm5.8289795 0l0 -7.59375l0.875 0l0 2.078125l-0.03125 1.0625q0.375 -0.359375 0.78125 -0.609375q0.40625 -0.25 0.9375 -0.25q0.828125 0 1.203125 0.515625q0.375 0.515625 0.375 1.515625l0 3.28125l-0.875 0l0 -3.171875q0 -0.734375 -0.234375 -1.046875q-0.234375 -0.328125 -0.734375 -0.328125q-0.40625 0 -0.71875 0.203125q-0.3125 0.203125 -0.703125 0.59375l0 3.75l-0.875 0z" fill-rule="nonzero"/><path fill="#000000" fill-opacity="0.0" d="m729.5656 170.89249l0 0c0 -2.5744934 2.0870361 -4.6615143 4.661499 -4.6615143l28.409302 0c1.2362671 0 2.421936 0.49111938 3.2961426 1.3653259c0.87420654 0.87420654 1.3653564 2.0598755 1.3653564 3.2961884l0 18.645477c0 2.5744781 -2.0870361 4.6615143 -4.661499 4.6615143l-28.409302 0c-2.574463 0 -4.661499 -2.0870361 -4.661499 -4.6615143z" fill-rule="evenodd"/><path stroke="#1a1a1a" stroke-width="1.0" stroke-linejoin="round" stroke-linecap="butt" d="m729.5656 170.89249l0 0c0 -2.5744934 2.0870361 -4.6615143 4.661499 -4.6615143l28.409302 0c1.2362671 0 2.421936 0.49111938 3.2961426 1.3653259c0.87420654 0.87420654 1.3653564 2.0598755 1.3653564 3.2961884l0 18.645477c0 2.5744781 -2.0870361 4.6615143 -4.661499 4.6615143l-28.409302 0c-2.574463 0 -4.661499 -2.0870361 -4.661499 -4.6615143z" fill-rule="evenodd"/><path fill="#000000" d="m748.80676 180.70023q-0.125 0.125 -0.375 0.125q-0.25 0 -0.375 -0.125q-0.125 -0.125 -0.125 -0.375q0 -0.25 0.125 -0.375q0.125 -0.125 0.375 -0.125q0.25 0 0.375 0.125q0.125 0.125 0.125 0.375q0 0.25 -0.125 0.375zm-0.375 2.6875q1.25 0 2.1875 -0.9375q0.875 -0.875 0.875 -2.125q0 -1.25 -0.875 -2.125q-0.9375 -0.9375 -2.1875 -0.9375q-1.25 0 -2.1875 0.9375q-0.875 0.875 -0.875 2.125q0 1.25 0.875 2.125q0.9375 0.9375 2.1875 0.9375zm2.5625 -0.6875q-1.125 1.125 -2.5625 1.125q-1.4375 0 -2.5 -1.0625q-1.0 -1.0 -1.0 -2.4375q0 -1.4375 0.9375 -2.375q1.125 -1.125 2.5625 -1.125q1.4375 0 2.5 1.0625q1.0 1.0 1.0 2.4375q0 1.4375 -0.9375 2.375z" fill-rule="nonzero"/><path fill="#000000" fill-opacity="0.0" d="m390.74765 315.53314l0 -39.0213l-248.1575 0l0 -39.025955" fill-rule="evenodd"/><path stroke="#000000" stroke-width="1.0" stroke-linejoin="round" stroke-linecap="butt" d="m390.74762 315.53314l0 -39.0213l-248.15747 0l0 -33.025955" fill-rule="evenodd"/><path fill="#000000" stroke="#000000" stroke-width="1.0" stroke-linecap="butt" d="m144.24188 243.48589l-1.6517334 -4.538086l-1.6517334 4.538086z" fill-rule="evenodd"/><path fill="#000000" fill-opacity="0.0" d="m390.74765 315.53314l0 -39.01895l-79.77954 0l0 -39.028305" fill-rule="evenodd"/><path stroke="#000000" stroke-width="1.0" stroke-linejoin="round" stroke-linecap="butt" d="m390.74762 315.53314l0 -39.01895l-79.77951 0l0 -33.028305" fill-rule="evenodd"/><path fill="#000000" stroke="#000000" stroke-width="1.0" stroke-linecap="butt" d="m312.61984 243.48589l-1.6517334 -4.538086l-1.6517334 4.538086z" fill-rule="evenodd"/><path fill="#000000" fill-opacity="0.0" d="m390.74765 315.53314l0 -39.01895l92.25195 0l0 -39.028305" fill-rule="evenodd"/><path stroke="#000000" stroke-width="1.0" stroke-linejoin="round" stroke-linecap="butt" d="m390.74762 315.53314l0 -39.01895l92.25198 0l0 -33.028305" fill-rule="evenodd"/><path fill="#000000" stroke="#000000" stroke-width="1.0" stroke-linecap="butt" d="m484.65134 243.48589l-1.6517334 -4.538086l-1.6517334 4.538086z" fill-rule="evenodd"/><path fill="#000000" fill-opacity="0.0" d="m390.74765 315.53314l0 -39.01895l264.28348 0l0 -39.028305" fill-rule="evenodd"/><path stroke="#000000" stroke-width="1.0" stroke-linejoin="round" stroke-linecap="butt" d="m390.74762 315.53314l0 -39.01895l264.28345 0l0 -33.028305" fill-rule="evenodd"/><path fill="#000000" stroke="#000000" stroke-width="1.0" stroke-linecap="butt" d="m656.6828 243.48589l-1.6517334 -4.538086l-1.6517334 4.538086z" fill-rule="evenodd"/><path fill="#000000" fill-opacity="0.0" d="m123.708664 45.537712l0 0c0 -2.5744781 2.0870285 -4.6615105 4.6615143 -4.6615105l28.409256 0c1.2363129 0 2.4219818 0.4911232 3.2961884 1.3653259c0.87420654 0.8742027 1.3653259 2.0598755 1.3653259 3.2961845l0 18.645485c0 2.5744781 -2.0870361 4.6615067 -4.6615143 4.6615067l-28.409256 0c-2.5744858 0 -4.6615143 -2.0870285 -4.6615143 -4.6615067z" fill-rule="evenodd"/><path stroke="#1a1a1a" stroke-width="1.0" stroke-linejoin="round" stroke-linecap="butt" d="m123.708664 45.537712l0 0c0 -2.5744781 2.0870285 -4.6615105 4.6615143 -4.6615105l28.409256 0c1.2363129 0 2.4219818 0.4911232 3.2961884 1.3653259c0.87420654 0.8742027 1.3653259 2.0598755 1.3653259 3.2961845l0 18.645485c0 2.5744781 -2.0870361 4.6615067 -4.6615143 4.6615067l-28.409256 0c-2.5744858 0 -4.6615143 -2.0870285 -4.6615143 -4.6615067z" fill-rule="evenodd"/><path fill="#000000" d="m142.9498 55.345455q-0.125 0.125 -0.375 0.125q-0.25 0 -0.375 -0.125q-0.125 -0.125 -0.125 -0.375q0 -0.25 0.125 -0.375q0.125 -0.125 0.375 -0.125q0.25 0 0.375 0.125q0.125 0.125 0.125 0.375q0 0.25 -0.125 0.375zm-0.375 2.6875q1.25 0 2.1875 -0.9375q0.875 -0.875 0.875 -2.125q0 -1.25 -0.875 -2.125q-0.9375 -0.9375 -2.1875 -0.9375q-1.25 0 -2.1875 0.9375q-0.875 0.875 -0.875 2.125q0 1.25 0.875 2.125q0.9375 0.9375 2.1875 0.9375zm2.5625 -0.6875q-1.125 1.125 -2.5625 1.125q-1.4375 0 -2.5 -1.0625q-1.0 -1.0 -1.0 -2.4375q0 -1.4375 0.9375 -2.375q1.125 -1.125 2.5625 -1.125q1.4375 0 2.5 1.0625q1.0 1.0 1.0 2.4375q0 1.4375 -0.9375 2.375z" fill-rule="nonzero"/><path fill="#000000" fill-opacity="0.0" d="m142.5748 209.52275l0 -70.33943l0.06300354 0l0 -70.353485" fill-rule="evenodd"/><path stroke="#000000" stroke-width="1.0" stroke-linejoin="round" stroke-linecap="butt" d="m142.5748 209.52274l0 -70.3394l0.06300354 0l0 -64.3535" fill-rule="evenodd"/><path fill="#000000" stroke="#000000" stroke-width="1.0" stroke-linecap="butt" d="m144.28952 74.829834l-1.6517181 -4.538101l-1.6517334 4.538101z" fill-rule="evenodd"/><path fill="#000000" fill-opacity="0.0" d="m40.117 54.802193l41.796116 0l0 0.062992096l41.794434 0" fill-rule="evenodd"/><path stroke="#000000" stroke-width="1.0" stroke-linejoin="round" stroke-linecap="butt" d="m40.117004 54.802193l41.796112 0l0 0.062992096l35.79444 0" fill-rule="evenodd"/><path fill="#000000" stroke="#000000" stroke-width="1.0" stroke-linecap="butt" d="m117.70756 56.516914l4.5380936 -1.6517296l-4.5380936 -1.6517334z" fill-rule="evenodd"/><path fill="#000000" fill-opacity="0.0" d="m161.44095 54.860455l105.21991 0l0 0.062992096l105.236786 0" fill-rule="evenodd"/><path stroke="#000000" stroke-width="1.0" stroke-linejoin="round" stroke-linecap="butt" d="m161.44095 54.86046l105.21991 0l0 0.062992096l99.236786 0" fill-rule="evenodd"/><path fill="#000000" stroke="#000000" stroke-width="1.0" stroke-linecap="butt" d="m365.89764 56.57518l4.538086 -1.6517296l-4.538086 -1.6517334z" fill-rule="evenodd"/><path fill="#000000" fill-opacity="0.0" d="m310.98383 209.52669l0 -57.259842l60.944885 0" fill-rule="evenodd"/><path stroke="#000000" stroke-width="1.0" stroke-linejoin="round" stroke-linecap="butt" d="m310.98383 209.52667l0 -57.259827l54.944855 0" fill-rule="evenodd"/><path fill="#000000" stroke="#000000" stroke-width="1.0" stroke-linecap="butt" d="m365.92868 153.91858l4.538086 -1.6517334l-4.538086 -1.6517334z" fill-rule="evenodd"/><path fill="#000000" fill-opacity="0.0" d="m483.01486 209.52669l0 -57.259842l-73.35431 0" fill-rule="evenodd"/><path stroke="#000000" stroke-width="1.0" stroke-linejoin="round" stroke-linecap="butt" d="m483.0149 209.52667l0 -57.259827l-67.35434 0" fill-rule="evenodd"/><path fill="#000000" stroke="#000000" stroke-width="1.0" stroke-linecap="butt" d="m415.66055 150.61511l-4.538086 1.6517334l4.538086 1.6517334z" fill-rule="evenodd"/><path fill="#000000" fill-opacity="0.0" d="m390.77954 138.27121l0 -34.711433l0.06298828 0l0 -34.705887" fill-rule="evenodd"/><path stroke="#000000" stroke-width="1.0" stroke-linejoin="round" stroke-linecap="butt" d="m390.77954 138.27121l0 -34.711433l0.06298828 0l0 -28.70588" fill-rule="evenodd"/><path fill="#000000" stroke="#000000" stroke-width="1.0" stroke-linecap="butt" d="m392.49426 74.8539l-1.6517334 -4.538101l-1.6517334 4.538101z" fill-rule="evenodd"/><path fill="#000000" fill-opacity="0.0" d="m655.04596 209.52669l0 -29.322845l74.51965 0" fill-rule="evenodd"/><path stroke="#000000" stroke-width="1.0" stroke-linejoin="round" stroke-linecap="butt" d="m655.04596 209.52667l0 -29.32283l68.51965 0" fill-rule="evenodd"/><path fill="#000000" stroke="#000000" stroke-width="1.0" stroke-linecap="butt" d="m723.5656 181.85558l4.538086 -1.6517334l-4.538086 -1.6517334z" fill-rule="evenodd"/><path fill="#000000" fill-opacity="0.0" d="m655.04596 117.54506l0 24.343048l93.3858 0l0 24.349869" fill-rule="evenodd"/><path stroke="#000000" stroke-width="1.0" stroke-linejoin="round" stroke-linecap="butt" d="m655.04596 117.54506l0 24.343048l93.3858 0l0 18.349869" fill-rule="evenodd"/><path fill="#000000" stroke="#000000" stroke-width="1.0" stroke-linecap="butt" d="m746.78 160.23798l1.6517334 4.538101l1.6517334 -4.538101z" fill-rule="evenodd"/><path fill="#000000" fill-opacity="0.0" d="m409.61417 54.863518l245.41733 0l0 34.708664" fill-rule="evenodd"/><path stroke="#000000" stroke-width="1.0" stroke-linejoin="round" stroke-linecap="butt" d="m409.61417 54.863518l245.41733 0l0 28.708664" fill-rule="evenodd"/><path fill="#000000" stroke="#000000" stroke-width="1.0" stroke-linecap="butt" d="m653.37976 83.57218l1.6517334 4.5380936l1.6517334 -4.5380936z" fill-rule="evenodd"/><path fill="#ead1dc" d="m822.0026 15.899108l0 0c0 -4.3632812 3.5371094 -7.90042 7.9003906 -7.90042l31.600769 0l0 0c2.095337 0 4.1047974 0.8323631 5.586426 2.3139791c1.4816284 1.481617 2.3139648 3.4911194 2.3139648 5.586441l0 101.71097c0 4.3632812 -3.5371094 7.900421 -7.9003906 7.900421l-31.600769 0c-4.3632812 0 -7.9003906 -3.53714 -7.9003906 -7.900421z" fill-rule="evenodd"/><path fill="#000000" d="m845.0689 111.56155q-0.671875 0 -1.234375 -0.234375q-0.546875 -0.25 -0.953125 -0.71875q-0.40625 -0.46875 -0.640625 -1.140625q-0.234375 -0.671875 -0.234375 -1.53125q0 -0.84375 0.234375 -1.515625q0.234375 -0.671875 0.65625 -1.140625q0.421875 -0.46875 0.984375 -0.71875q0.5625 -0.25 1.234375 -0.25q0.640625 0 1.125 0.265625q0.484375 0.265625 0.796875 0.609375l-0.484375 0.5625q-0.28125 -0.296875 -0.640625 -0.46875q-0.34375 -0.1875 -0.78125 -0.1875q-0.5 0 -0.90625 0.203125q-0.40625 0.1875 -0.703125 0.5625q-0.28125 0.359375 -0.4375 0.890625q-0.15625 0.515625 -0.15625 1.171875q0 0.65625 0.15625 1.1875q0.15625 0.53125 0.421875 0.90625q0.28125 0.359375 0.6875 0.5625q0.40625 0.203125 0.90625 0.203125q0.5 0 0.875 -0.203125q0.390625 -0.203125 0.734375 -0.578125l0.5 0.546875q-0.421875 0.484375 -0.953125 0.75q-0.515625 0.265625 -1.1875 0.265625z" fill-rule="nonzero"/><path fill="#000000" d="m849.2162 115.51467q-0.28125 0 -0.46875 -0.078125q-0.1875 -0.078125 -0.3125 -0.234375q-0.109375 -0.15625 -0.15625 -0.359375q-0.046875 -0.21875 -0.046875 -0.46875l0 -1.921875l-0.515625 0l0 -0.4375l0.546875 -0.03125l0.0625 -0.96875l0.484375 0l0 0.96875l0.9375 0l0 0.46875l-0.9375 0l0 1.921875q0 0.328125 0.109375 0.5q0.125 0.171875 0.4375 0.171875q0.078125 0 0.1875 -0.03125q0.109375 -0.03125 0.203125 -0.0625l0.109375 0.4375q-0.140625 0.046875 -0.3125 0.078125q-0.171875 0.046875 -0.328125 0.046875z" fill-rule="nonzero"/><path fill="#e9edee" d="m837.2864 20.82035l0 0c0 -1.5494881 1.2561646 -2.8055935 2.805603 -2.8055935l11.222046 0l0 0c0.7440796 0 1.4577026 0.29558754 1.9838867 0.8217392c0.52612305 0.52614975 0.8217163 1.2397633 0.8217163 1.9838543l0 67.963684c0 1.5494843 -1.2561035 2.8055954 -2.805603 2.8055954l-11.222046 0c-1.5494385 0 -2.805603 -1.2561111 -2.805603 -2.8055954z" fill-rule="evenodd"/><path stroke="#1a1a1a" stroke-width="1.0" stroke-linejoin="round" stroke-linecap="butt" d="m837.2864 20.82035l0 0c0 -1.5494881 1.2561646 -2.8055935 2.805603 -2.8055935l11.222046 0l0 0c0.7440796 0 1.4577026 0.29558754 1.9838867 0.8217392c0.52612305 0.52614975 0.8217163 1.2397633 0.8217163 1.9838543l0 67.963684c0 1.5494843 -1.2561035 2.8055954 -2.805603 2.8055954l-11.222046 0c-1.5494385 0 -2.805603 -1.2561111 -2.805603 -2.8055954z" fill-rule="evenodd"/><path fill="#ffffff" d="m839.8134 27.203226l0 0c0 -3.2527447 2.6368408 -5.889614 5.8895874 -5.889614l0 0c1.5620117 0 3.0600586 0.6205101 4.164612 1.7250271c1.1044922 1.104517 1.7250366 2.6025639 1.7250366 4.164587l0 0c0 3.2527447 -2.6369019 5.889612 -5.8896484 5.889612l0 0c-3.2527466 0 -5.8895874 -2.6368675 -5.8895874 -5.889612z" fill-rule="evenodd"/><path stroke="#1a1a1a" stroke-width="1.0" stroke-linejoin="round" stroke-linecap="butt" d="m839.8134 27.203226l0 0c0 -3.2527447 2.6368408 -5.889614 5.8895874 -5.889614l0 0c1.5620117 0 3.0600586 0.6205101 4.164612 1.7250271c1.1044922 1.104517 1.7250366 2.6025639 1.7250366 4.164587l0 0c0 3.2527447 -2.6369019 5.889612 -5.8896484 5.889612l0 0c-3.2527466 0 -5.8895874 -2.6368675 -5.8895874 -5.889612z" fill-rule="evenodd"/><path fill="#d9d9d9" d="m839.8134 64.05443l0 0c0 -3.2527466 2.6368408 -5.889618 5.8895874 -5.889618l0 0c1.5620117 0 3.0600586 0.6205101 4.164612 1.725029c1.1044922 1.1045151 1.7250366 2.602562 1.7250366 4.164589l0 0c0 3.252739 -2.6369019 5.8896103 -5.8896484 5.8896103l0 0c-3.2527466 0 -5.8895874 -2.6368713 -5.8895874 -5.8896103z" fill-rule="evenodd"/><path stroke="#1a1a1a" stroke-width="1.0" stroke-linejoin="round" stroke-linecap="butt" d="m839.8134 64.05443l0 0c0 -3.2527466 2.6368408 -5.889618 5.8895874 -5.889618l0 0c1.5620117 0 3.0600586 0.6205101 4.164612 1.725029c1.1044922 1.1045151 1.7250366 2.602562 1.7250366 4.164589l0 0c0 3.252739 -2.6369019 5.8896103 -5.8896484 5.8896103l0 0c-3.2527466 0 -5.8895874 -2.6368713 -5.8895874 -5.8896103z" fill-rule="evenodd"/><path fill="#666666" d="m839.8134 82.48003l0 0c0 -3.2527466 2.6368408 -5.889618 5.8895874 -5.889618l0 0c1.5620117 0 3.0600586 0.6205139 4.164612 1.725029c1.1044922 1.1045151 1.7250366 2.602562 1.7250366 4.164589l0 0c0 3.252739 -2.6369019 5.8896103 -5.8896484 5.8896103l0 0c-3.2527466 0 -5.8895874 -2.6368713 -5.8895874 -5.8896103z" fill-rule="evenodd"/><path stroke="#1a1a1a" stroke-width="1.0" stroke-linejoin="round" stroke-linecap="butt" d="m839.8134 82.48003l0 0c0 -3.2527466 2.6368408 -5.889618 5.8895874 -5.889618l0 0c1.5620117 0 3.0600586 0.6205139 4.164612 1.725029c1.1044922 1.1045151 1.7250366 2.602562 1.7250366 4.164589l0 0c0 3.252739 -2.6369019 5.8896103 -5.8896484 5.8896103l0 0c-3.2527466 0 -5.8895874 -2.6368713 -5.8895874 -5.8896103z" fill-rule="evenodd"/><path fill="#000000" d="m839.8134 45.628826l0 0c0 -3.2527466 2.6368408 -5.889614 5.8895874 -5.889614l0 0c1.5620117 0 3.0600586 0.6205101 4.164612 1.7250252c1.1044922 1.1045189 1.7250366 2.6025658 1.7250366 4.164589l0 0c0 3.2527428 -2.6369019 5.889614 -5.8896484 5.889614l0 0c-3.2527466 0 -5.8895874 -2.6368713 -5.8895874 -5.889614z" fill-rule="evenodd"/><path stroke="#1a1a1a" stroke-width="1.0" stroke-linejoin="round" stroke-linecap="butt" d="m839.8134 45.628826l0 0c0 -3.2527466 2.6368408 -5.889614 5.8895874 -5.889614l0 0c1.5620117 0 3.0600586 0.6205101 4.164612 1.7250252c1.1044922 1.1045189 1.7250366 2.6025658 1.7250366 4.164589l0 0c0 3.2527428 -2.6369019 5.889614 -5.8896484 5.889614l0 0c-3.2527466 0 -5.8895874 -2.6368713 -5.8895874 -5.889614z" fill-rule="evenodd"/><path fill="#000000" fill-opacity="0.0" d="m409.61417 54.863518l213.83823 0l0 -0.062992096l213.8468 0" fill-rule="evenodd"/><path stroke="#000000" stroke-width="1.0" stroke-linejoin="round" stroke-linecap="butt" d="m409.61417 54.863518l213.83829 0l0 -0.062992096l207.84674 0" fill-rule="evenodd"/><path fill="#000000" stroke="#000000" stroke-width="1.0" stroke-linecap="butt" d="m831.2992 56.45226l4.538086 -1.6517334l-4.538086 -1.6517334z" fill-rule="evenodd"/><path fill="#000000" fill-opacity="0.0" d="m390.7548 539.81665l0 -38.566925l33.409485 0l0 -75.35437l-25.00003 0" fill-rule="evenodd"/><path stroke="#000000" stroke-width="1.0" stroke-linejoin="round" stroke-linecap="butt" d="m390.7548 539.81665l0 -38.566925l33.409485 0l0 -75.35434l-19.00003 0" fill-rule="evenodd"/><path fill="#000000" stroke="#000000" stroke-width="1.0" stroke-linecap="butt" d="m405.16425 424.24365l-4.538086 1.6517334l4.538086 1.6517334z" fill-rule="evenodd"/><path fill="#000000" fill-opacity="0.0" d="m40.117 390.60928l171.10579 0l0 -38.299225l171.09892 0" fill-rule="evenodd"/><path stroke="#000000" stroke-width="1.0" stroke-linejoin="round" stroke-linecap="butt" d="m40.117004 390.60928l171.10579 0l0 -38.299194l165.09892 0" fill-rule="evenodd"/><path fill="#000000" stroke="#000000" stroke-width="1.0" stroke-linecap="butt" d="m376.32172 353.96182l4.5381165 -1.6517334l-4.5381165 -1.6517334z" fill-rule="evenodd"/><path fill="#ead1dc" d="m822.0026 351.00934l0 0c0 -4.3632812 3.5371094 -7.900421 7.9003906 -7.900421l31.600769 0l0 0c2.095337 0 4.1047974 0.83236694 5.586426 2.3139954c1.4816284 1.4815979 2.3139648 3.4911194 2.3139648 5.586426l0 101.71097c0 4.3632812 -3.5371094 7.900421 -7.9003906 7.900421l-31.600769 0c-4.3632812 0 -7.9003906 -3.53714 -7.9003906 -7.900421z" fill-rule="evenodd"/><path fill="#000000" d="m842.4784 446.54678l0 -7.59375l0.875 0l0 2.078125l-0.03125 1.0625q0.375 -0.359375 0.78125 -0.609375q0.40625 -0.25 0.9375 -0.25q0.828125 0 1.203125 0.515625q0.375 0.515625 0.375 1.515625l0 3.28125l-0.875 0l0 -3.171875q0 -0.734375 -0.234375 -1.046875q-0.234375 -0.328125 -0.734375 -0.328125q-0.40625 0 -0.71875 0.203125q-0.3125 0.203125 -0.703125 0.59375l0 3.75l-0.875 0z" fill-rule="nonzero"/><path fill="#000000" d="m849.0723 450.6249q-0.28125 0 -0.46875 -0.078125q-0.1875 -0.078125 -0.3125 -0.234375q-0.109375 -0.15625 -0.15625 -0.359375q-0.046875 -0.21875 -0.046875 -0.46875l0 -1.921875l-0.515625 0l0 -0.4375l0.546875 -0.03125l0.0625 -0.96875l0.484375 0l0 0.96875l0.9375 0l0 0.46875l-0.9375 0l0 1.921875q0 0.328125 0.109375 0.5q0.125 0.171875 0.4375 0.171875q0.078125 0 0.1875 -0.03125q0.109375 -0.03125 0.203125 -0.0625l0.109375 0.4375q-0.140625 0.046875 -0.3125 0.078125q-0.171875 0.046875 -0.328125 0.046875z" fill-rule="nonzero"/><path fill="#e9edee" d="m837.2864 356.62744l0 0c0 -1.5494995 1.2561646 -2.805603 2.805603 -2.805603l11.222046 0l0 0c0.7440796 0 1.4577026 0.29559326 1.9838867 0.8217468c0.52612305 0.52615356 0.8217163 1.2397766 0.8217163 1.9838562l0 67.963684c0 1.549469 -1.2561035 2.805603 -2.805603 2.805603l-11.222046 0c-1.5494385 0 -2.805603 -1.256134 -2.805603 -2.805603z" fill-rule="evenodd"/><path stroke="#1a1a1a" stroke-width="1.0" stroke-linejoin="round" stroke-linecap="butt" d="m837.2864 356.62744l0 0c0 -1.5494995 1.2561646 -2.805603 2.805603 -2.805603l11.222046 0l0 0c0.7440796 0 1.4577026 0.29559326 1.9838867 0.8217468c0.52612305 0.52615356 0.8217163 1.2397766 0.8217163 1.9838562l0 67.963684c0 1.549469 -1.2561035 2.805603 -2.805603 2.805603l-11.222046 0c-1.5494385 0 -2.805603 -1.256134 -2.805603 -2.805603z" fill-rule="evenodd"/><path fill="#000000" d="m839.8134 363.0103l0 0c0 -3.2527466 2.6368408 -5.889618 5.8895874 -5.889618l0 0c1.5620117 0 3.0600586 0.6205139 4.164612 1.7250366c1.1044922 1.1045227 1.7250366 2.6025696 1.7250366 4.1645813l0 0c0 3.2527466 -2.6369019 5.889618 -5.8896484 5.889618l0 0c-3.2527466 0 -5.8895874 -2.6368713 -5.8895874 -5.889618z" fill-rule="evenodd"/><path stroke="#1a1a1a" stroke-width="1.0" stroke-linejoin="round" stroke-linecap="butt" d="m839.8134 363.0103l0 0c0 -3.2527466 2.6368408 -5.889618 5.8895874 -5.889618l0 0c1.5620117 0 3.0600586 0.6205139 4.164612 1.7250366c1.1044922 1.1045227 1.7250366 2.6025696 1.7250366 4.1645813l0 0c0 3.2527466 -2.6369019 5.889618 -5.8896484 5.889618l0 0c-3.2527466 0 -5.8895874 -2.6368713 -5.8895874 -5.889618z" fill-rule="evenodd"/><path fill="#666666" d="m839.8134 399.8615l0 0c0 -3.2527466 2.6368408 -5.889618 5.8895874 -5.889618l0 0c1.5620117 0 3.0600586 0.6205139 4.164612 1.7250366c1.1044922 1.1045227 1.7250366 2.6025696 1.7250366 4.1645813l0 0c0 3.2527466 -2.6369019 5.889618 -5.8896484 5.889618l0 0c-3.2527466 0 -5.8895874 -2.6368713 -5.8895874 -5.889618z" fill-rule="evenodd"/><path stroke="#1a1a1a" stroke-width="1.0" stroke-linejoin="round" stroke-linecap="butt" d="m839.8134 399.8615l0 0c0 -3.2527466 2.6368408 -5.889618 5.8895874 -5.889618l0 0c1.5620117 0 3.0600586 0.6205139 4.164612 1.7250366c1.1044922 1.1045227 1.7250366 2.6025696 1.7250366 4.1645813l0 0c0 3.2527466 -2.6369019 5.889618 -5.8896484 5.889618l0 0c-3.2527466 0 -5.8895874 -2.6368713 -5.8895874 -5.889618z" fill-rule="evenodd"/><path fill="#999999" d="m839.8134 418.2871l0 0c0 -3.2527466 2.6368408 -5.889618 5.8895874 -5.889618l0 0c1.5620117 0 3.0600586 0.6205139 4.164612 1.7250366c1.1044922 1.1045227 1.7250366 2.6025696 1.7250366 4.1645813l0 0c0 3.2527466 -2.6369019 5.889618 -5.8896484 5.889618l0 0c-3.2527466 0 -5.8895874 -2.6368713 -5.8895874 -5.889618z" fill-rule="evenodd"/><path stroke="#1a1a1a" stroke-width="1.0" stroke-linejoin="round" stroke-linecap="butt" d="m839.8134 418.2871l0 0c0 -3.2527466 2.6368408 -5.889618 5.8895874 -5.889618l0 0c1.5620117 0 3.0600586 0.6205139 4.164612 1.7250366c1.1044922 1.1045227 1.7250366 2.6025696 1.7250366 4.1645813l0 0c0 3.2527466 -2.6369019 5.889618 -5.8896484 5.889618l0 0c-3.2527466 0 -5.8895874 -2.6368713 -5.8895874 -5.889618z" fill-rule="evenodd"/><path fill="#434343" d="m839.8134 381.4359l0 0c0 -3.2527466 2.6368408 -5.889618 5.8895874 -5.889618l0 0c1.5620117 0 3.0600586 0.6205139 4.164612 1.7250366c1.1044922 1.1045227 1.7250366 2.6025696 1.7250366 4.1645813l0 0c0 3.2527466 -2.6369019 5.889618 -5.8896484 5.889618l0 0c-3.2527466 0 -5.8895874 -2.6368713 -5.8895874 -5.889618z" fill-rule="evenodd"/><path stroke="#1a1a1a" stroke-width="1.0" stroke-linejoin="round" stroke-linecap="butt" d="m839.8134 381.4359l0 0c0 -3.2527466 2.6368408 -5.889618 5.8895874 -5.889618l0 0c1.5620117 0 3.0600586 0.6205139 4.164612 1.7250366c1.1044922 1.1045227 1.7250366 2.6025696 1.7250366 4.1645813l0 0c0 3.2527466 -2.6369019 5.889618 -5.8896484 5.889618l0 0c-3.2527466 0 -5.8895874 -2.6368713 -5.8895874 -5.889618z" fill-rule="evenodd"/><path fill="#000000" fill-opacity="0.0" d="m748.43176 194.19948l0 196.40944l88.8504 0" fill-rule="evenodd"/><path stroke="#000000" stroke-width="1.0" stroke-linejoin="round" stroke-linecap="butt" d="m748.43176 194.19948l0 196.40944l82.8504 0" fill-rule="evenodd"/><path fill="#000000" stroke="#000000" stroke-width="1.0" stroke-linecap="butt" d="m831.28217 392.26065l4.538086 -1.6517334l-4.538086 -1.6517334z" fill-rule="evenodd"/></g></svg>