<svg version="1.1" viewBox="0.0 0.0 260.76377952755905 199.40682414698162" fill="none" stroke="none" stroke-linecap="square" stroke-miterlimit="10" xmlns:xlink="http://www.w3.org/1999/xlink" xmlns="http://www.w3.org/2000/svg"><clipPath id="p.0"><path d="m0 0l260.7638 0l0 199.40683l-260.7638 0l0 -199.40683z" clip-rule="nonzero"/></clipPath><g clip-path="url(#p.0)"><path fill="#000000" fill-opacity="0.0" d="m0 0l260.7638 0l0 199.40683l-260.7638 0z" fill-rule="evenodd"/><path fill="#eeeeee" d="m7.998984 8.001024l61.72422 0l0 61.72422l-61.72422 0z" fill-rule="evenodd"/><path stroke="#595959" stroke-width="1.0" stroke-linejoin="round" stroke-linecap="butt" d="m7.998984 8.001024l61.72422 0l0 61.72422l-61.72422 0z" fill-rule="evenodd"/><path fill="#eeeeee" d="m69.723206 8.001024l61.724213 0l0 61.72422l-61.724213 0z" fill-rule="evenodd"/><path stroke="#595959" stroke-width="1.0" stroke-linejoin="round" stroke-linecap="butt" d="m69.723206 8.001024l61.724213 0l0 61.72422l-61.724213 0z" fill-rule="evenodd"/><path fill="#eeeeee" d="m131.44742 8.001024l61.724228 0l0 61.72422l-61.724228 0z" fill-rule="evenodd"/><path stroke="#595959" stroke-width="1.0" stroke-linejoin="round" stroke-linecap="butt" d="m131.44742 8.001024l61.724228 0l0 61.72422l-61.724228 0z" fill-rule="evenodd"/><path fill="#1a9988" d="m193.17165 8.001024l61.724213 0l0 61.72422l-61.724213 0z" fill-rule="evenodd"/><path stroke="#595959" stroke-width="1.0" stroke-linejoin="round" stroke-linecap="butt" d="m193.17165 8.001024l61.724213 0l0 61.72422l-61.724213 0z" fill-rule="evenodd"/><path fill="#eeeeee" d="m7.998984 69.72524l61.72422 0l0 61.72422l-61.72422 0z" fill-rule="evenodd"/><path stroke="#595959" stroke-width="1.0" stroke-linejoin="round" stroke-linecap="butt" d="m7.998984 69.72524l61.72422 0l0 61.72422l-61.72422 0z" fill-rule="evenodd"/><path fill="#eeeeee" d="m7.998984 131.44946l61.72422 0l0 61.724228l-61.72422 0z" fill-rule="evenodd"/><path stroke="#595959" stroke-width="1.0" stroke-linejoin="round" stroke-linecap="butt" d="m7.998984 131.44946l61.72422 0l0 61.724228l-61.72422 0z" fill-rule="evenodd"/><path fill="#595959" d="m69.723206 69.72524l61.724213 0l0 61.72422l-61.724213 0z" fill-rule="evenodd"/><path stroke="#595959" stroke-width="1.0" stroke-linejoin="round" stroke-linecap="butt" d="m69.723206 69.72524l61.724213 0l0 61.72422l-61.724213 0z" fill-rule="evenodd"/><path fill="#eeeeee" d="m131.44742 69.72524l61.724228 0l0 61.72422l-61.724228 0z" fill-rule="evenodd"/><path stroke="#595959" stroke-width="1.0" stroke-linejoin="round" stroke-linecap="butt" d="m131.44742 69.72524l61.724228 0l0 61.72422l-61.724228 0z" fill-rule="evenodd"/><path fill="#eb5600" d="m193.17165 69.72524l61.724213 0l0 61.72422l-61.724213 0z" fill-rule="evenodd"/><path stroke="#595959" stroke-width="1.0" stroke-linejoin="round" stroke-linecap="butt" d="m193.17165 69.72524l61.724213 0l0 61.72422l-61.724213 0z" fill-rule="evenodd"/><path fill="#eeeeee" d="m193.17165 131.44946l61.724213 0l0 61.724228l-61.724213 0z" fill-rule="evenodd"/><path stroke="#595959" stroke-width="1.0" stroke-linejoin="round" stroke-linecap="butt" d="m193.17165 131.44946l61.724213 0l0 61.724228l-61.724213 0z" fill-rule="evenodd"/><path fill="#eeeeee" d="m131.44742 131.44946l61.724228 0l0 61.724228l-61.724228 0z" fill-rule="evenodd"/><path stroke="#595959" stroke-width="1.0" stroke-linejoin="round" stroke-linecap="butt" d="m131.44742 131.44946l61.724228 0l0 61.724228l-61.724228 0z" fill-rule="evenodd"/><path fill="#eeeeee" d="m69.723206 131.44946l61.724213 0l0 61.724228l-61.724213 0z" fill-rule="evenodd"/><path stroke="#595959" stroke-width="1.0" stroke-linejoin="round" stroke-linecap="butt" d="m69.723206 131.44946l61.724213 0l0 61.724228l-61.724213 0z" fill-rule="evenodd"/><path fill="#999999" d="m31.303825 172.79654l5.70747 0l0 15.992218l-5.70747 0z" fill-rule="evenodd"/><path stroke="#595959" stroke-width="1.0" stroke-linejoin="round" stroke-linecap="butt" d="m31.303825 172.79654l5.70747 0l0 15.992218l-5.70747 0z" fill-rule="evenodd"/><path fill="#999999" d="m40.00834 172.79654l5.70747 0l0 15.992218l-5.70747 0z" fill-rule="evenodd"/><path stroke="#595959" stroke-width="1.0" stroke-linejoin="round" stroke-linecap="butt" d="m40.00834 172.79654l5.70747 0l0 15.992218l-5.70747 0z" fill-rule="evenodd"/><path fill="#999999" d="m45.742306 151.09392l0 0c3.7958107 0.11817932 7.379593 1.7425995 9.928753 4.5003815c2.54916 2.7577972 3.8447685 6.412094 3.5894432 10.124161l-5.2829514 -0.34875488l0 0c0.16088104 -2.2802277 -0.644001 -4.5256805 -2.2296295 -6.2201843c-1.5856285 -1.6945038 -3.8155975 -2.692276 -6.1772957 -2.7639618z" fill-rule="evenodd"/><path stroke="#595959" stroke-width="1.0" stroke-linejoin="round" stroke-linecap="butt" d="m45.742306 151.09392l0 0c3.7958107 0.11817932 7.379593 1.7425995 9.928753 4.5003815c2.54916 2.7577972 3.8447685 6.412094 3.5894432 10.124161l-5.2829514 -0.34875488l0 0c0.16088104 -2.2802277 -0.644001 -4.5256805 -2.2296295 -6.2201843c-1.5856285 -1.6945038 -3.8155975 -2.692276 -6.1772957 -2.7639618z" fill-rule="evenodd"/><path fill="#999999" d="m18.294083 164.46793l0 0c0.087911606 -3.8158417 1.6999226 -7.429413 4.462414 -10.003174c2.7624931 -2.5737457 6.435629 -3.8842316 10.168083 -3.6277313l-0.34882355 5.2841187l0 0c-2.292572 -0.16152954 -4.5493984 0.6522827 -6.2467175 2.2525635c-1.697319 1.6002808 -2.6875496 3.8478851 -2.7408829 6.2212067z" fill-rule="evenodd"/><path stroke="#595959" stroke-width="1.0" stroke-linejoin="round" stroke-linecap="butt" d="m18.294083 164.46793l0 0c0.087911606 -3.8158417 1.6999226 -7.429413 4.462414 -10.003174c2.7624931 -2.5737457 6.435629 -3.8842316 10.168083 -3.6277313l-0.34882355 5.2841187l0 0c-2.292572 -0.16152954 -4.5493984 0.6522827 -6.2467175 2.2525635c-1.697319 1.6002808 -2.6875496 3.8478851 -2.7408829 6.2212067z" fill-rule="evenodd"/><path fill="#999999" d="m29.435926 153.5703l0 0c0 -1.6825409 1.3639717 -3.046524 3.0465145 -3.046524l12.185703 0l0 0c0.8079834 0 1.5828781 0.32096863 2.154213 0.89230347c0.571331 0.57133484 0.89230347 1.3462372 0.89230347 2.1542206l0 18.18431c0 1.6825409 -1.3639717 3.0465088 -3.0465164 3.0465088l-12.185703 0c-1.6825428 0 -3.0465145 -1.3639679 -3.0465145 -3.0465088z" fill-rule="evenodd"/><path stroke="#595959" stroke-width="1.0" stroke-linejoin="round" stroke-linecap="butt" d="m29.435926 153.5703l0 0c0 -1.6825409 1.3639717 -3.046524 3.0465145 -3.046524l12.185703 0l0 0c0.8079834 0 1.5828781 0.32096863 2.154213 0.89230347c0.571331 0.57133484 0.89230347 1.3462372 0.89230347 2.1542206l0 18.18431c0 1.6825409 -1.3639717 3.0465088 -3.0465164 3.0465088l-12.185703 0c-1.6825428 0 -3.0465145 -1.3639679 -3.0465145 -3.0465088z" fill-rule="evenodd"/><path fill="#999999" d="m33.631287 141.76723l0 0c0 -0.9019928 0.7312126 -1.6332092 1.6332092 -1.6332092l6.5326424 0l0 0c0.43315506 0 0.84856796 0.17207336 1.1548538 0.47836304c0.30628967 0.30628967 0.47835922 0.72169495 0.47835922 1.1548462l0 7.123337c0 0.9019928 -0.7312126 1.6332092 -1.633213 1.6332092l-6.5326424 0c-0.9019966 0 -1.6332092 -0.73121643 -1.6332092 -1.6332092z" fill-rule="evenodd"/><path stroke="#595959" stroke-width="1.0" stroke-linejoin="round" stroke-linecap="butt" d="m33.631287 141.76723l0 0c0 -0.9019928 0.7312126 -1.6332092 1.6332092 -1.6332092l6.5326424 0l0 0c0.43315506 0 0.84856796 0.17207336 1.1548538 0.47836304c0.30628967 0.30628967 0.47835922 0.72169495 0.47835922 1.1548462l0 7.123337c0 0.9019928 -0.7312126 1.6332092 -1.633213 1.6332092l-6.5326424 0c-0.9019966 0 -1.6332092 -0.73121643 -1.6332092 -1.6332092z" fill-rule="evenodd"/><path fill="#ffff00" d="m36.388664 135.10219l0 0c0 -1.1828308 0.9590759 -2.141693 2.1421547 -2.141693l0 0c0.5681343 0 1.112999 0.22564697 1.5147324 0.6272888c0.4017334 0.40164185 0.62742233 0.9463806 0.62742233 1.5144043l0 0c0 1.1828156 -0.9590759 2.1416779 -2.1421547 2.1416779l0 0c-1.1830788 0 -2.1421547 -0.9588623 -2.1421547 -2.1416779z" fill-rule="evenodd"/><path stroke="#595959" stroke-width="1.0" stroke-linejoin="round" stroke-linecap="butt" d="m36.388664 135.10219l0 0c0 -1.1828308 0.9590759 -2.141693 2.1421547 -2.141693l0 0c0.5681343 0 1.112999 0.22564697 1.5147324 0.6272888c0.4017334 0.40164185 0.62742233 0.9463806 0.62742233 1.5144043l0 0c0 1.1828156 -0.9590759 2.1416779 -2.1421547 2.1416779l0 0c-1.1830788 0 -2.1421547 -0.9588623 -2.1421547 -2.1416779z" fill-rule="evenodd"/><path fill="#000000" fill-opacity="0.0" d="m38.53082 140.13402l0 -2.9049683" fill-rule="evenodd"/><path stroke="#595959" stroke-width="1.0" stroke-linejoin="round" stroke-linecap="butt" d="m38.53082 140.13402l0 -2.9049683" fill-rule="evenodd"/><path fill="#999999" d="m30.592245 188.58643l0 0c0 -1.6985016 1.5962467 -3.0754242 3.5653172 -3.0754242l0 0c1.9690704 0 3.5653152 1.3769226 3.5653152 3.0754242l0 0c0 1.6985168 -1.5962448 3.0754242 -3.5653152 3.0754242l0 0c-1.9690704 0 -3.5653172 -1.3769073 -3.5653172 -3.0754242z" fill-rule="evenodd"/><path stroke="#595959" stroke-width="1.0" stroke-linejoin="round" stroke-linecap="butt" d="m30.592245 188.58643l0 0c0 -1.6985016 1.5962467 -3.0754242 3.5653172 -3.0754242l0 0c1.9690704 0 3.5653152 1.3769226 3.5653152 3.0754242l0 0c0 1.6985168 -1.5962448 3.0754242 -3.5653152 3.0754242l0 0c-1.9690704 0 -3.5653172 -1.3769073 -3.5653172 -3.0754242z" fill-rule="evenodd"/><path fill="#999999" d="m39.296757 188.58643l0 0c0 -1.6985016 1.5962448 -3.0754242 3.5653152 -3.0754242l0 0c1.9690704 0 3.565319 1.3769226 3.565319 3.0754242l0 0c0 1.6985168 -1.5962486 3.0754242 -3.565319 3.0754242l0 0c-1.9690704 0 -3.5653152 -1.3769073 -3.5653152 -3.0754242z" fill-rule="evenodd"/><path stroke="#595959" stroke-width="1.0" stroke-linejoin="round" stroke-linecap="butt" d="m39.296757 188.58643l0 0c0 -1.6985016 1.5962448 -3.0754242 3.5653152 -3.0754242l0 0c1.9690704 0 3.565319 1.3769226 3.565319 3.0754242l0 0c0 1.6985168 -1.5962486 3.0754242 -3.565319 3.0754242l0 0c-1.9690704 0 -3.5653152 -1.3769073 -3.5653152 -3.0754242z" fill-rule="evenodd"/><path fill="#999999" d="m17.43343 166.1578l0 0c0 -1.6985168 1.5962467 -3.0754395 3.5653172 -3.0754395l0 0c1.9690704 0 3.5653172 1.3769226 3.5653172 3.0754395l0 0c0 1.6985016 -1.5962467 3.0754242 -3.5653172 3.0754242l0 0c-1.9690704 0 -3.5653172 -1.3769226 -3.5653172 -3.0754242z" fill-rule="evenodd"/><path stroke="#595959" stroke-width="1.0" stroke-linejoin="round" stroke-linecap="butt" d="m17.43343 166.1578l0 0c0 -1.6985168 1.5962467 -3.0754395 3.5653172 -3.0754395l0 0c1.9690704 0 3.5653172 1.3769226 3.5653172 3.0754395l0 0c0 1.6985016 -1.5962467 3.0754242 -3.5653172 3.0754242l0 0c-1.9690704 0 -3.5653172 -1.3769226 -3.5653172 -3.0754242z" fill-rule="evenodd"/><path fill="#999999" d="m53.158745 166.1578l0 0c0 -1.6985168 1.5962486 -3.0754395 3.565319 -3.0754395l0 0c1.9690704 0 3.5653152 1.3769226 3.5653152 3.0754395l0 0c0 1.6985016 -1.5962448 3.0754242 -3.5653152 3.0754242l0 0c-1.9690704 0 -3.565319 -1.3769226 -3.565319 -3.0754242z" fill-rule="evenodd"/><path stroke="#595959" stroke-width="1.0" stroke-linejoin="round" stroke-linecap="butt" d="m53.158745 166.1578l0 0c0 -1.6985168 1.5962486 -3.0754395 3.565319 -3.0754395l0 0c1.9690704 0 3.5653152 1.3769226 3.5653152 3.0754395l0 0c0 1.6985016 -1.5962448 3.0754242 -3.5653152 3.0754242l0 0c-1.9690704 0 -3.565319 -1.3769226 -3.565319 -3.0754242z" fill-rule="evenodd"/><path fill="#783f04" d="m245.4252 23.075699l0 0c4.908844 3.4046974 6.1570435 10.129147 2.797058 15.06871c-3.35997 4.9395676 -10.072815 6.2487755 -15.042679 2.9337883l6.0410614 -9.056854z" fill-rule="evenodd"/><path stroke="#595959" stroke-width="1.0" stroke-linejoin="round" stroke-linecap="butt" d="m245.4252 23.075699l0 0c4.908844 3.4046974 6.1570435 10.129147 2.797058 15.06871c-3.35997 4.9395676 -10.072815 6.2487755 -15.042679 2.9337883l6.0410614 -9.056854z" fill-rule="evenodd"/><path fill="#f1c232" d="m214.40056 40.21147l0 0c-0.16325378 -1.2565079 0.37277222 -2.5003738 1.3806458 -3.2037811c1.0078735 -0.7034073 2.3108368 -0.7429924 3.3559875 -0.101955414l0 0c0.370224 -0.730587 1.0478363 -1.2350082 1.8278809 -1.3606834c0.78004456 -0.1256752 1.5708923 0.1421547 2.1333313 0.72247696l0 0c0.3153839 -0.6623955 0.9346466 -1.107441 1.638031 -1.1772118c0.7033844 -0.06977081 1.3913727 0.24560928 1.8197937 0.8342285l0 0c0.56977844 -0.7021408 1.4763184 -0.9977684 2.327362 -0.75896835c0.85102844 0.23880005 1.4936981 0.9691391 1.6499176 1.8749924l0 0c0.6980896 0.1994133 1.2795715 0.7063408 1.594223 1.3898087c0.31466675 0.6834717 0.33161926 1.4764366 0.04649353 2.1740227l0 0c0.68740845 0.9369354 0.84820557 2.1853905 0.4223938 3.279461c-0.42581177 1.0940742 -1.3742676 1.8693924 -2.4914093 2.036621c-0.007873535 1.026825 -0.5456085 1.9690285 -1.4059448 2.4634438c-0.86032104 0.49441528 -1.908905 0.46383286 -2.7415771 -0.07995224c-0.3546753 1.2298012 -1.352951 2.134678 -2.5635529 2.3236885c-1.2105865 0.18901062 -2.4164734 -0.371727 -3.0966644 -1.4399529c-0.83377075 0.5265312 -1.8342285 0.6782074 -2.7756958 0.4208145c-0.9414673 -0.25739288 -1.7446136 -0.9021759 -2.228302 -1.7888985l0 0c-0.852005 0.10441589 -1.6757812 -0.357872 -2.0624847 -1.1574249c-0.38671875 -0.79955673 -0.25402832 -1.7661743 0.3321991 -2.420124l0 0c-0.76000977 -0.46846008 -1.1478271 -1.3980408 -0.9611969 -2.3040009c0.18663025 -0.9059601 0.90541077 -1.5830078 1.7815094 -1.6780853z" fill-rule="evenodd"/><path fill="#000000" fill-opacity="0.0" d="m213.5634 44.241985l0 0c0.35865784 0.22106934 0.77297974 0.3213501 1.1873627 0.28738022m0.54273987 3.2902527c0.17819214 -0.021839142 0.3528595 -0.06808472 0.51950073 -0.13754272m4.4842377 1.5055656c-0.12532043 -0.19683075 -0.23025513 -0.4071617 -0.31300354 -0.6274071m5.9734497 -0.25636292l0 0c0.06466675 -0.22421265 0.106552124 -0.45497513 0.12498474 -0.6884346m4.0223694 -1.6949692c0.008392334 -1.093216 -0.58451843 -2.0941734 -1.5240479 -2.572937m3.593048 -2.7430305c-0.15214539 0.37226105 -0.38442993 0.70248795 -0.6786194 0.96479034m-0.9619446 -4.528721l0 0c0.025924683 0.15032959 0.03791809 0.30291367 0.035827637 0.4556465m-4.0130463 -1.5716248l0 0c-0.14213562 0.17514801 -0.25923157 0.3708725 -0.34765625 0.5810814m-3.110199 -0.23817444l0 0c-0.07574463 0.15908432 -0.13230896 0.3274269 -0.16838074 0.5011406m-3.7928925 0.13707733l0 0c0.22114563 0.135643 0.42575073 0.2989006 0.60928345 0.4861946m-5.3458557 2.819561l0 0c0.022506714 0.17317963 0.058059692 0.34422302 0.1063385 0.51153183" fill-rule="evenodd"/><path fill="#783f04" d="m211.81886 41.01431l21.757141 0l0 15.578175l-21.757141 0z" fill-rule="evenodd"/><path stroke="#595959" stroke-width="1.0" stroke-linejoin="round" stroke-linecap="butt" d="m211.81886 41.01431l21.757141 0l0 15.578175l-21.757141 0z" fill-rule="evenodd"/><path fill="#cc0000" d="m209.74231 117.25396l0 0c-6.2157135 -5.579239 -6.731674 -15.140938 -1.15242 -21.356644q7.3053894 -8.138771 9.587769 -20.786217q3.6300964 12.3284 11.768875 19.63379l0 0c6.2156982 5.5792465 6.731659 15.140938 1.15242 21.356651l0 0c-5.579239 6.215706 -15.14093 6.7316666 -21.356644 1.15242z" fill-rule="evenodd"/><path fill="#cc0000" d="m216.22455 114.87912l0 0c-4.906662 -6.7573776 -3.4063568 -16.21296 3.3510284 -21.119621q9.093231 -6.602768 13.865219 -19.15667q0.65164185 13.414467 7.2543945 22.507698l0 0c4.9066772 6.7573776 3.406372 16.21296 -3.3510132 21.119621l0 0c-6.7573853 4.906662 -16.212967 3.4063568 -21.119629 -3.3510284z" fill-rule="evenodd"/><path fill="#cc0000" d="m210.98552 114.64619l0 0c-4.9066772 -6.7573853 -3.406372 -16.21296 3.3510132 -21.119621q9.093231 -6.602768 13.865234 -19.156677q0.6516266 13.414467 7.2543945 22.507698l0 0c4.906662 6.7573853 3.4063568 16.21296 -3.3510284 21.119621l0 0c-6.7573853 4.906662 -16.212952 3.4063644 -21.119614 -3.3510208z" fill-rule="evenodd"/><path fill="#ff9900" d="m214.58208 112.03847l0 0c-3.4667206 -4.771248 -2.4091797 -11.449432 2.3620605 -14.916145q6.420532 -4.665062 9.787979 -13.532097q0.46310425 9.473625 5.1281586 15.894165l0 0c3.4667206 4.77124 2.4091797 11.449425 -2.3620605 14.916138l0 0c-4.77124 3.466713 -11.449432 2.4091797 -14.916138 -2.3620605z" fill-rule="evenodd"/></g></svg>