<svg version="1.1" viewBox="0.0 0.0 494.3543307086614 373.3963254593176" fill="none" stroke="none" stroke-linecap="square" stroke-miterlimit="10" xmlns:xlink="http://www.w3.org/1999/xlink" xmlns="http://www.w3.org/2000/svg"><clipPath id="p.0"><path d="m0 0l494.35434 0l0 373.39633l-494.35434 0l0 -373.39633z" clip-rule="nonzero"/></clipPath><g clip-path="url(#p.0)"><path fill="#000000" fill-opacity="0.0" d="m0 0l494.35434 0l0 373.39633l-494.35434 0z" fill-rule="evenodd"/><path fill="#eeeeee" d="m8.0 8.0l118.92913 0l0 118.92913l-118.92913 0z" fill-rule="evenodd"/><path stroke="#595959" stroke-width="1.0" stroke-linejoin="round" stroke-linecap="butt" d="m8.0 8.0l118.92913 0l0 118.92913l-118.92913 0z" fill-rule="evenodd"/><path fill="#eeeeee" d="m126.92913 8.0l118.92913 0l0 118.92913l-118.92913 0z" fill-rule="evenodd"/><path stroke="#595959" stroke-width="1.0" stroke-linejoin="round" stroke-linecap="butt" d="m126.92913 8.0l118.92913 0l0 118.92913l-118.92913 0z" fill-rule="evenodd"/><path fill="#eeeeee" d="m245.85826 8.0l118.92915 0l0 118.92913l-118.92915 0z" fill-rule="evenodd"/><path stroke="#595959" stroke-width="1.0" stroke-linejoin="round" stroke-linecap="butt" d="m245.85826 8.0l118.92915 0l0 118.92913l-118.92915 0z" fill-rule="evenodd"/><path fill="#1a9988" d="m364.7874 8.0l118.92911 0l0 118.92913l-118.92911 0z" fill-rule="evenodd"/><path stroke="#595959" stroke-width="1.0" stroke-linejoin="round" stroke-linecap="butt" d="m364.7874 8.0l118.92911 0l0 118.92913l-118.92911 0z" fill-rule="evenodd"/><path fill="#eeeeee" d="m8.0 126.92913l118.92913 0l0 118.92913l-118.92913 0z" fill-rule="evenodd"/><path stroke="#595959" stroke-width="1.0" stroke-linejoin="round" stroke-linecap="butt" d="m8.0 126.92913l118.92913 0l0 118.92913l-118.92913 0z" fill-rule="evenodd"/><path fill="#eeeeee" d="m8.0 245.85826l118.92913 0l0 118.92915l-118.92913 0z" fill-rule="evenodd"/><path stroke="#595959" stroke-width="1.0" stroke-linejoin="round" stroke-linecap="butt" d="m8.0 245.85826l118.92913 0l0 118.92915l-118.92913 0z" fill-rule="evenodd"/><path fill="#595959" d="m126.92913 126.92913l118.92913 0l0 118.92913l-118.92913 0z" fill-rule="evenodd"/><path stroke="#595959" stroke-width="1.0" stroke-linejoin="round" stroke-linecap="butt" d="m126.92913 126.92913l118.92913 0l0 118.92913l-118.92913 0z" fill-rule="evenodd"/><path fill="#eeeeee" d="m245.85826 126.92913l118.92915 0l0 118.92913l-118.92915 0z" fill-rule="evenodd"/><path stroke="#595959" stroke-width="1.0" stroke-linejoin="round" stroke-linecap="butt" d="m245.85826 126.92913l118.92915 0l0 118.92913l-118.92915 0z" fill-rule="evenodd"/><path fill="#eb5600" d="m364.7874 126.92913l118.92911 0l0 118.92913l-118.92911 0z" fill-rule="evenodd"/><path stroke="#595959" stroke-width="1.0" stroke-linejoin="round" stroke-linecap="butt" d="m364.7874 126.92913l118.92911 0l0 118.92913l-118.92911 0z" fill-rule="evenodd"/><path fill="#eeeeee" d="m364.7874 245.85826l118.92911 0l0 118.92915l-118.92911 0z" fill-rule="evenodd"/><path stroke="#595959" stroke-width="1.0" stroke-linejoin="round" stroke-linecap="butt" d="m364.7874 245.85826l118.92911 0l0 118.92915l-118.92911 0z" fill-rule="evenodd"/><path fill="#eeeeee" d="m245.85826 245.85826l118.92915 0l0 118.92915l-118.92915 0z" fill-rule="evenodd"/><path stroke="#595959" stroke-width="1.0" stroke-linejoin="round" stroke-linecap="butt" d="m245.85826 245.85826l118.92915 0l0 118.92915l-118.92915 0z" fill-rule="evenodd"/><path fill="#eeeeee" d="m126.92913 245.85826l118.92913 0l0 118.92915l-118.92913 0z" fill-rule="evenodd"/><path stroke="#595959" stroke-width="1.0" stroke-linejoin="round" stroke-linecap="butt" d="m126.92913 245.85826l118.92913 0l0 118.92915l-118.92913 0z" fill-rule="evenodd"/><path fill="#783f04" d="m465.46863 37.045616l0 0c9.458282 6.560112 11.863281 19.516659 5.3893433 29.034126c-6.4739685 9.517464 -19.408142 12.040031 -28.984009 5.652771l11.639832 -17.450584z" fill-rule="evenodd"/><path stroke="#595959" stroke-width="1.0" stroke-linejoin="round" stroke-linecap="butt" d="m465.46863 37.045616l0 0c9.458282 6.560112 11.863281 19.516659 5.3893433 29.034126c-6.4739685 9.517464 -19.408142 12.040031 -28.984009 5.652771l11.639832 -17.450584z" fill-rule="evenodd"/><path fill="#f1c232" d="m405.69092 70.06252l0 0c-0.3146057 -2.4210205 0.7182312 -4.8176804 2.6601868 -6.1729927c1.9419556 -1.3553123 4.452484 -1.4315834 6.4662476 -0.19644928l0 0c0.7133484 -1.4076805 2.0189514 -2.3795853 3.5219421 -2.6217346c1.5029602 -0.24214935 3.026764 0.27389908 4.1104736 1.3920517l0 0c0.607666 -1.2762947 1.8008423 -2.1338005 3.156128 -2.2682304c1.3552551 -0.13442993 2.6808472 0.4732399 3.5063171 1.6073761l0 0c1.0978699 -1.3528671 2.844574 -1.9224815 4.484314 -1.4623642c1.6397705 0.46011353 2.8780518 1.8673172 3.1790466 3.6127052l0 0c1.3450623 0.38422012 2.465454 1.3609581 3.0717468 2.6778603c0.6062622 1.3168945 0.638916 2.8447723 0.08956909 4.1888657l0 0c1.3244629 1.8052673 1.6343079 4.2107697 0.8138428 6.3188095c-0.8204346 2.1080322 -2.6478882 3.6019058 -4.8003845 3.9241257c-0.015167236 1.9784698 -1.0512695 3.7938843 -2.7089539 4.7465134c-1.6576843 0.9526291 -3.67807 0.8937073 -5.2824097 -0.1540451c-0.6833801 2.3695526 -2.6068726 4.1130524 -4.9394226 4.4772415c-2.33255 0.36418152 -4.6560364 -0.7162399 -5.966614 -2.7744827c-1.6065063 1.0145111 -3.5341492 1.3067627 -5.3481445 0.81082153c-1.8139954 -0.49594116 -3.3615112 -1.7382965 -4.293457 -3.4468155l0 0c-1.6416321 0.2011795 -3.2288818 -0.6895447 -3.9739685 -2.2301102c-0.7451172 -1.5405655 -0.48944092 -3.4030304 0.6400757 -4.6630554l0 0c-1.464386 -0.9026184 -2.2115784 -2.6937103 -1.8519897 -4.4393005c0.35958862 -1.7455902 1.7445068 -3.0501099 3.4325867 -3.233307z" fill-rule="evenodd"/><path fill="#000000" fill-opacity="0.0" d="m404.07788 77.828445l0 0c0.69104004 0.4259491 1.4893799 0.61917114 2.2877808 0.55371857m1.0457458 6.3395996c0.34335327 -0.04208374 0.6799011 -0.13117981 1.000946 -0.26501465m8.640167 2.9008942c-0.2414856 -0.37924957 -0.44366455 -0.78450775 -0.6031189 -1.2088776m11.509552 -0.49395752l0 0c0.12460327 -0.43200684 0.20532227 -0.8766327 0.24084473 -1.3264618m7.750244 -3.2658386c0.016143799 -2.1063843 -1.1262512 -4.0350113 -2.9365234 -4.9574814m6.923004 -5.285225c-0.29315186 0.71726227 -0.74072266 1.3535385 -1.3075562 1.8589325m-1.8534546 -8.725849l0 0c0.049957275 0.28964615 0.07305908 0.58364487 0.06903076 0.8779259m-7.7322693 -3.0281792l0 0c-0.27383423 0.337471 -0.4994812 0.7145958 -0.6698303 1.1196213m-5.9927063 -0.4589157l0 0c-0.14593506 0.30652618 -0.25491333 0.63088226 -0.32443237 0.96559525m-7.308075 0.26411438l0 0c0.42611694 0.26135635 0.8203125 0.5759201 1.1739807 0.93679047m-10.300293 5.432686l0 0c0.04333496 0.3336792 0.111846924 0.66324615 0.2048645 0.98561096" fill-rule="evenodd"/><path fill="#783f04" d="m400.71652 71.60941l41.921265 0l0 30.015747l-41.921265 0z" fill-rule="evenodd"/><path stroke="#595959" stroke-width="1.0" stroke-linejoin="round" stroke-linecap="butt" d="m400.71652 71.60941l41.921265 0l0 30.015747l-41.921265 0z" fill-rule="evenodd"/><path fill="#cc0000" d="m396.71545 218.50662l0 0c-11.976318 -10.749985 -12.970459 -29.173279 -2.220459 -41.149597q14.075897 -15.681656 18.473541 -40.05052q6.9944153 23.75415 22.676056 37.830048l0 0c11.976318 10.749985 12.970459 29.173279 2.2204895 41.149597l0 0c-10.75 11.976318 -29.17331 12.970459 -41.149628 2.2204742z" fill-rule="evenodd"/><path fill="#cc0000" d="m409.20532 213.93083l0 0c-9.454071 -13.020004 -6.5632935 -31.238846 6.4566956 -40.692917q17.52069 -12.722092 26.715271 -36.910736q1.2555542 25.846756 13.977661 43.36743l0 0c9.454071 13.020004 6.5632935 31.238846 -6.4566956 40.692917l0 0c-13.02002 9.454071 -31.238861 6.5633087 -40.692932 -6.4566956z" fill-rule="evenodd"/><path fill="#cc0000" d="m399.11084 213.48201l0 0c-9.454071 -13.020004 -6.5632935 -31.238846 6.4566956 -40.692917q17.52069 -12.722092 26.715271 -36.910736q1.2555542 25.846756 13.977631 43.36743l0 0c9.454071 13.020004 6.563324 31.238846 -6.456665 40.692917l0 0c-13.02002 9.454071 -31.238861 6.5633087 -40.692932 -6.4566956z" fill-rule="evenodd"/><path fill="#ff9900" d="m406.04065 208.4575l0 0c-6.6796265 -9.193161 -4.641968 -22.060562 4.551178 -28.740158q12.370972 -8.988571 18.859314 -26.073425q0.89227295 18.253616 9.880829 30.624603l0 0c6.679596 9.193146 4.641968 22.060547 -4.551178 28.740158l0 0c-9.193146 6.679596 -22.060547 4.641968 -28.740143 -4.551178z" fill-rule="evenodd"/><path fill="#38761d" d="m50.17323 226.4591l17.29134 -23.215012l17.291336 23.215012l-8.645668 0l0 59.084198l-17.29134 0l0 -59.084198z" fill-rule="evenodd"/><path stroke="#595959" stroke-width="1.0" stroke-linejoin="round" stroke-linecap="butt" d="m50.17323 226.4591l17.29134 -23.215012l17.291336 23.215012l-8.645668 0l0 59.084198l-17.29134 0l0 -59.084198z" fill-rule="evenodd"/><path fill="#000000" fill-opacity="0.0" d="m52.40945 287.6719l30.110233 0l0 20.346466l-30.110233 0z" fill-rule="evenodd"/><path fill="#000000" d="m67.45359 302.8014q-0.6875 0 -1.3125 -0.25q-0.625 -0.25 -1.09375 -0.640625l0.546875 -0.734375q0.421875 0.34375 0.859375 0.5625q0.453125 0.21875 1.046875 0.21875q0.640625 0 0.953125 -0.296875q0.328125 -0.296875 0.328125 -0.71875q0 -0.25 -0.140625 -0.4375q-0.125 -0.1875 -0.34375 -0.328125q-0.203125 -0.140625 -0.46875 -0.25q-0.265625 -0.109375 -0.53125 -0.21875q-0.34375 -0.109375 -0.6875 -0.265625q-0.34375 -0.15625 -0.625 -0.375q-0.265625 -0.21875 -0.453125 -0.515625q-0.171875 -0.296875 -0.171875 -0.703125q0 -0.390625 0.15625 -0.71875q0.15625 -0.34375 0.4375 -0.59375q0.296875 -0.25 0.703125 -0.390625q0.421875 -0.140625 0.9375 -0.140625q0.609375 0 1.125 0.21875q0.515625 0.21875 0.890625 0.515625l-0.53125 0.6875q-0.328125 -0.25 -0.6875 -0.40625q-0.359375 -0.15625 -0.78125 -0.15625q-0.625 0 -0.90625 0.28125q-0.28125 0.28125 -0.28125 0.65625q0 0.21875 0.109375 0.390625q0.125 0.15625 0.328125 0.296875q0.203125 0.125 0.453125 0.21875q0.265625 0.09375 0.546875 0.203125q0.34375 0.140625 0.6875 0.28125q0.359375 0.140625 0.640625 0.375q0.28125 0.21875 0.453125 0.546875q0.1875 0.3125 0.1875 0.765625q0 0.390625 -0.15625 0.734375q-0.15625 0.34375 -0.453125 0.625q-0.296875 0.265625 -0.75 0.40625q-0.4375 0.15625 -1.015625 0.15625z" fill-rule="nonzero"/><path fill="#000000" fill-opacity="0.0" d="m52.40945 176.22572l30.110233 0l0 20.34645l-30.110233 0z" fill-rule="evenodd"/><path fill="#000000" d="m65.79424 191.3552q-0.6875 0 -1.3125 -0.25q-0.625 -0.25 -1.09375 -0.640625l0.546875 -0.734375q0.421875 0.34375 0.859375 0.5625q0.453125 0.21875 1.046875 0.21875q0.640625 0 0.953125 -0.296875q0.328125 -0.296875 0.328125 -0.71875q0 -0.25 -0.140625 -0.4375q-0.125 -0.1875 -0.34375 -0.328125q-0.203125 -0.140625 -0.46875 -0.25q-0.265625 -0.109375 -0.53125 -0.21875q-0.34375 -0.109375 -0.6875 -0.265625q-0.34375 -0.15625 -0.625 -0.375q-0.265625 -0.21875 -0.453125 -0.515625q-0.171875 -0.296875 -0.171875 -0.703125q0 -0.390625 0.15625 -0.71875q0.15625 -0.34375 0.4375 -0.59375q0.296875 -0.25 0.703125 -0.390625q0.421875 -0.140625 0.9375 -0.140625q0.609375 0 1.125 0.21875q0.515625 0.21875 0.890625 0.515625l-0.53125 0.6875q-0.328125 -0.25 -0.6875 -0.40625q-0.359375 -0.15625 -0.78125 -0.15625q-0.625 0 -0.90625 0.28125q-0.28125 0.28125 -0.28125 0.65625q0 0.21875 0.109375 0.390625q0.125 0.15625 0.328125 0.296875q0.203125 0.125 0.453125 0.21875q0.265625 0.09375 0.546875 0.203125q0.34375 0.140625 0.6875 0.28125q0.359375 0.140625 0.640625 0.375q0.28125 0.21875 0.453125 0.546875q0.1875 0.3125 0.1875 0.765625q0 0.390625 -0.15625 0.734375q-0.15625 0.34375 -0.453125 0.625q-0.296875 0.265625 -0.75 0.40625q-0.4375 0.15625 -1.015625 0.15625zm3.9438324 -5.90625l-0.296875 -0.5q0.5 -0.328125 0.75 -0.703125q0.25 -0.390625 0.25 -0.96875q-0.046875 0.015625 -0.109375 0.015625q-0.28125 0 -0.5 -0.171875q-0.203125 -0.171875 -0.203125 -0.484375q0 -0.359375 0.1875 -0.546875q0.203125 -0.203125 0.515625 -0.203125q0.390625 0 0.609375 0.3125q0.234375 0.3125 0.234375 0.890625q0 0.8125 -0.375 1.390625q-0.359375 0.578125 -1.0625 0.96875z" fill-rule="nonzero"/><path fill="#000000" fill-opacity="0.0" d="m30.076115 245.85828l30.110237 0l0 20.346466l-30.110237 0z" fill-rule="evenodd"/><path fill="#000000" d="m44.350685 260.98776q-0.8125 0 -1.359375 -0.46875q-0.53125 -0.484375 -0.53125 -1.359375q0 -1.078125 0.9375 -1.640625q0.953125 -0.5625 3.046875 -0.796875q0 -0.296875 -0.0625 -0.59375q-0.0625 -0.29689026 -0.21875 -0.51564026q-0.140625 -0.234375 -0.40625 -0.375q-0.25 -0.140625 -0.65625 -0.140625q-0.5625 0 -1.0625 0.21875q-0.484375 0.21875 -0.859375 0.484375l-0.4375 -0.765625q0.453125 -0.296875 1.109375 -0.5625q0.65625 -0.28125 1.4375 -0.28125q1.1875 0 1.71875 0.734375q0.53125 0.71875 0.53125 1.9375153l0 3.96875l-0.90625 0l-0.09375 -0.765625l-0.03125 0q-0.46875 0.375 -1.0 0.65625q-0.53125 0.265625 -1.15625 0.265625zm0.328125 -0.875q0.46875 0 0.875 -0.21875q0.421875 -0.21875 0.890625 -0.65625l0 -1.796875q-0.8125 0.109375 -1.375 0.265625q-0.546875 0.140625 -0.890625 0.34375q-0.34375 0.203125 -0.5 0.46875q-0.140625 0.25 -0.140625 0.546875q0 0.5625 0.328125 0.8125q0.328125 0.234375 0.8125 0.234375z" fill-rule="nonzero"/><path fill="#38761d" d="m60.18635 169.55643l0 -61.37992l0 0c0 -28.082657 22.765491 -50.84815 50.84815 -50.84815l229.50658 0l0 -6.7010612l24.243713 14.380913l-24.243713 14.380913l0 -6.701065l-229.50658 0l0 0c-19.599731 0 -35.48845 15.888718 -35.48845 35.48845l0 61.37992z" fill-rule="evenodd"/><path stroke="#595959" stroke-width="1.0" stroke-linejoin="round" stroke-linecap="butt" d="m60.18635 169.55643l0 -61.37992l0 0c0 -28.082657 22.765491 -50.84815 50.84815 -50.84815l229.50658 0l0 -6.7010612l24.243713 14.380913l-24.243713 14.380913l0 -6.701065l-229.50658 0l0 0c-19.599731 0 -35.48845 15.888718 -35.48845 35.48845l0 61.37992z" fill-rule="evenodd"/><path fill="#000000" fill-opacity="0.0" d="m66.779526 253.97113l69.16536 0l0 33.700775l-69.16536 0z" fill-rule="evenodd"/><path fill="#000000" d="m78.309616 275.62152l0 -8.6875l3.125 0q0.6875 0 1.296875 0.140625q0.609375 0.125 1.0625 0.4375q0.453125 0.3125 0.71875 0.84375q0.265625 0.515625 0.265625 1.28125q0 0.953125 -0.421875 1.578125q-0.421875 0.625 -1.125 0.921875l1.984375 3.484375l-2.203125 0l-1.671875 -3.125l-1.078125 0l0 3.125l-1.953125 0zm1.953125 -4.6875l1.015625 0q0.765625 0 1.171875 -0.328125q0.40625 -0.328125 0.40625 -0.96875q0 -0.640625 -0.40625 -0.890625q-0.40625 -0.25 -1.171875 -0.25l-1.015625 0l0 2.4375zm7.90448 7.078125q-0.84375 -1.375 -1.3125 -2.859375q-0.453125 -1.484375 -0.453125 -3.234375q0 -1.765625 0.453125 -3.234375q0.46875 -1.484375 1.3125 -2.859375l1.21875 0.5q-0.71875 1.3125 -1.0625 2.75q-0.328125 1.421875 -0.328125 2.84375q0 1.421875 0.328125 2.859375q0.34375 1.421875 1.0625 2.71875l-1.21875 0.515625zm4.678604 -2.234375q-0.65625 0 -1.34375 -0.25q-0.6875 -0.25 -1.1875 -0.671875l0.875 -1.21875q0.453125 0.34375 0.859375 0.515625q0.421875 0.171875 0.84375 0.171875q0.453125 0 0.640625 -0.140625q0.203125 -0.15625 0.203125 -0.421875q0 -0.15625 -0.109375 -0.28125q-0.109375 -0.125 -0.3125 -0.234375q-0.1875 -0.109375 -0.4375 -0.1875q-0.234375 -0.09375 -0.484375 -0.203125q-0.3125 -0.109375 -0.625 -0.265625q-0.296875 -0.171875 -0.546875 -0.40625q-0.25 -0.234375 -0.421875 -0.546875q-0.15625 -0.3125 -0.15625 -0.71875q0 -0.453125 0.171875 -0.84375q0.1875 -0.390625 0.515625 -0.65625q0.34375 -0.265625 0.8125 -0.40625q0.46875 -0.15625 1.03125 -0.15625q0.765625 0 1.328125 0.265625q0.578125 0.25 1.015625 0.5625l-0.890625 1.171875q-0.359375 -0.265625 -0.703125 -0.40625q-0.34375 -0.140625 -0.6875 -0.140625q-0.75 0 -0.75 0.515625q0 0.15625 0.109375 0.28125q0.109375 0.109375 0.28125 0.203125q0.1875 0.09375 0.40625 0.1875q0.234375 0.078125 0.5 0.171875q0.3125 0.109375 0.625 0.265625q0.3125 0.15625 0.578125 0.390625q0.265625 0.21875 0.421875 0.546875q0.15625 0.328125 0.15625 0.78125q0 0.453125 -0.171875 0.84375q-0.171875 0.375 -0.53125 0.671875q-0.34375 0.28125 -0.84375 0.453125q-0.5 0.15625 -1.171875 0.15625zm4.1074677 2.421875l-0.40625 -1.03125q0.75 -0.265625 1.125 -0.703125q0.390625 -0.421875 0.390625 -0.921875l-0.109375 0q-0.46875 0 -0.828125 -0.28125q-0.359375 -0.296875 -0.359375 -0.828125q0 -0.5 0.359375 -0.8125q0.359375 -0.3125 0.859375 -0.3125q0.671875 0 1.015625 0.5q0.34375 0.484375 0.34375 1.359375q0 1.109375 -0.609375 1.890625q-0.609375 0.796875 -1.78125 1.140625zm5.5140533 -2.421875q-0.453125 0 -0.828125 -0.15625q-0.359375 -0.140625 -0.609375 -0.40625q-0.25 -0.28125 -0.390625 -0.640625q-0.140625 -0.359375 -0.140625 -0.796875q0 -1.03125 0.875 -1.609375q0.875 -0.59375 2.84375 -0.796875q-0.03125 -0.4375 -0.265625 -0.703125q-0.234375 -0.265625 -0.78125 -0.265625q-0.421875 0 -0.84375 0.171875q-0.421875 0.15625 -0.890625 0.4375l-0.71875 -1.296875q0.640625 -0.390625 1.34375 -0.625q0.703125 -0.234375 1.484375 -0.234375q1.28125 0 1.953125 0.734375q0.671875 0.71875 0.671875 2.25l0 3.78125l-1.59375 0l-0.140625 -0.6875l-0.046875 0q-0.421875 0.375 -0.890625 0.609375q-0.46875 0.234375 -1.03125 0.234375zm0.671875 -1.515625q0.328125 0 0.5625 -0.140625q0.25 -0.15625 0.515625 -0.421875l0 -1.15625q-1.046875 0.140625 -1.453125 0.421875q-0.390625 0.28125 -0.390625 0.671875q0 0.3125 0.203125 0.46875q0.21875 0.15625 0.5625 0.15625zm4.8363953 3.9375l-0.40625 -1.03125q0.75 -0.265625 1.125 -0.703125q0.390625 -0.421875 0.390625 -0.921875l-0.109375 0q-0.46875 0 -0.828125 -0.28125q-0.359375 -0.296875 -0.359375 -0.828125q0 -0.5 0.359375 -0.8125q0.359375 -0.3125 0.859375 -0.3125q0.671875 0 1.015625 0.5q0.34375 0.484375 0.34375 1.359375q0 1.109375 -0.609375 1.890625q-0.609375 0.796875 -1.78125 1.140625zm5.7953033 -2.421875q-0.65625 0 -1.34375 -0.25q-0.6875 -0.25 -1.1875 -0.671875l0.875 -1.21875q0.453125 0.34375 0.859375 0.515625q0.421875 0.171875 0.84375 0.171875q0.453125 0 0.640625 -0.140625q0.203125 -0.15625 0.203125 -0.421875q0 -0.15625 -0.109375 -0.28125q-0.109375 -0.125 -0.3125 -0.234375q-0.1875 -0.109375 -0.4375 -0.1875q-0.234375 -0.09375 -0.484375 -0.203125q-0.3125 -0.109375 -0.625 -0.265625q-0.296875 -0.171875 -0.546875 -0.40625q-0.25 -0.234375 -0.421875 -0.546875q-0.15625 -0.3125 -0.15625 -0.71875q0 -0.453125 0.171875 -0.84375q0.1875 -0.390625 0.515625 -0.65625q0.34375 -0.265625 0.8125 -0.40625q0.46875 -0.15625 1.03125 -0.15625q0.765625 0 1.328125 0.265625q0.578125 0.25 1.015625 0.5625l-0.890625 1.171875q-0.359375 -0.265625 -0.703125 -0.40625q-0.34375 -0.140625 -0.6875 -0.140625q-0.75 0 -0.75 0.515625q0 0.15625 0.109375 0.28125q0.109375 0.109375 0.28125 0.203125q0.1875 0.09375 0.40625 0.1875q0.234375 0.078125 0.5 0.171875q0.3125 0.109375 0.625 0.265625q0.3125 0.15625 0.578125 0.390625q0.265625 0.21875 0.421875 0.546875q0.15625 0.328125 0.15625 0.78125q0 0.453125 -0.171875 0.84375q-0.171875 0.375 -0.53125 0.671875q-0.34375 0.28125 -0.84375 0.453125q-0.5 0.15625 -1.171875 0.15625zm4.4668427 -4.84375l-0.421875 -0.859375q0.59375 -0.296875 0.890625 -0.6875q0.296875 -0.40625 0.296875 -1.0q-0.03125 0.015625 -0.109375 0.015625q-0.4375 0 -0.734375 -0.265625q-0.296875 -0.265625 -0.296875 -0.71875q0 -0.5 0.28125 -0.796875q0.296875 -0.296875 0.75 -0.296875q0.609375 0 0.921875 0.453125q0.328125 0.453125 0.328125 1.296875q0 0.953125 -0.484375 1.671875q-0.46875 0.71875 -1.421875 1.1875zm4.4828033 7.078125l-1.21875 -0.515625q0.75 -1.296875 1.078125 -2.71875q0.328125 -1.4375 0.328125 -2.859375q0 -1.421875 -0.328125 -2.84375q-0.328125 -1.4375 -1.078125 -2.75l1.21875 -0.5q0.84375 1.375 1.296875 2.859375q0.46875 1.46875 0.46875 3.234375q0 1.75 -0.46875 3.234375q-0.453125 1.484375 -1.296875 2.859375z" fill-rule="nonzero"/><path fill="#000000" fill-opacity="0.0" d="m15.280326 131.38583l57.732285 0l0 33.700775l-57.732285 0z" fill-rule="evenodd"/><path fill="#000000" d="m31.408384 153.03622l-2.625 -8.6875l2.078125 0l1.046875 4.046875q0.1875019 0.71875 0.3437519 1.390625q0.15625 0.671875 0.359375 1.390625l0.046875 0q0.1875 -0.71875 0.34375 -1.390625q0.171875 -0.671875 0.359375 -1.390625l1.015625 -4.046875l2.0 0l-2.609375 8.6875l-2.359377 0z" fill-rule="nonzero"/><path fill="#000000" d="m37.60005 144.94247l-0.546875 -0.390625l0.53125 -0.921875l-0.953125 -0.4375l0.203125 -0.640625l1.03125 0.21875l0.109375 -1.046875l0.6875 0l0.109375 1.046875l1.015625 -0.21875l0.21875 0.640625l-0.953125 0.4375l0.515625 0.921875l-0.53125 0.390625l-0.71875 -0.796875l-0.71875 0.796875z" fill-rule="nonzero"/><path fill="#000000" d="m43.062073 155.42685q-0.84375 -1.375 -1.3125 -2.859375q-0.453125 -1.484375 -0.453125 -3.234375q0 -1.765625 0.453125 -3.234375q0.46875 -1.484375 1.3125 -2.859375l1.21875 0.5q-0.71875 1.3125 -1.0625 2.75q-0.328125 1.421875 -0.328125 2.84375q0 1.421875 0.328125 2.859375q0.34375 1.421875 1.0625 2.71875l-1.21875 0.515625zm4.678604 -2.234375q-0.65625 0 -1.34375 -0.25q-0.6875 -0.25 -1.1875 -0.671875l0.875 -1.21875q0.453125 0.34375 0.859375 0.515625q0.421875 0.171875 0.84375 0.171875q0.453125 0 0.640625 -0.140625q0.203125 -0.15625 0.203125 -0.421875q0 -0.15625 -0.109375 -0.28125q-0.109375 -0.125 -0.3125 -0.234375q-0.1875 -0.109375 -0.4375 -0.1875q-0.234375 -0.09375 -0.484375 -0.203125q-0.3125 -0.109375 -0.625 -0.265625q-0.296875 -0.171875 -0.546875 -0.40625q-0.25 -0.234375 -0.421875 -0.546875q-0.15625 -0.3125 -0.15625 -0.71875q0 -0.453125 0.171875 -0.84375q0.1875 -0.390625 0.515625 -0.65625q0.34375 -0.265625 0.8125 -0.40625q0.46875 -0.15625 1.03125 -0.15625q0.765625 0 1.328125 0.265625q0.578125 0.25 1.015625 0.5625l-0.890625 1.171875q-0.359375 -0.265625 -0.703125 -0.40625q-0.34375 -0.140625 -0.6875 -0.140625q-0.75 0 -0.75 0.515625q0 0.15625 0.109375 0.28125q0.109375 0.109375 0.28125 0.203125q0.1875 0.09375 0.40625 0.1875q0.234375 0.078125 0.5 0.171875q0.3125 0.109375 0.625 0.265625q0.3125 0.15625 0.578125 0.390625q0.265625 0.21875 0.421875 0.546875q0.15625 0.328125 0.15625 0.78125q0 0.453125 -0.171875 0.84375q-0.171875 0.375 -0.53125 0.671875q-0.34375 0.28125 -0.84375 0.453125q-0.5 0.15625 -1.171875 0.15625zm4.4668427 -4.84375l-0.421875 -0.859375q0.59375 -0.296875 0.890625 -0.6875q0.296875 -0.40625 0.296875 -1.0q-0.03125 0.015625 -0.109375 0.015625q-0.4375 0 -0.734375 -0.265625q-0.296875 -0.265625 -0.296875 -0.71875q0 -0.5 0.28125 -0.796875q0.296875 -0.296875 0.75 -0.296875q0.609375 0 0.921875 0.453125q0.328125 0.453125 0.328125 1.296875q0 0.953125 -0.484375 1.671875q-0.46875 0.71875 -1.421875 1.1875zm4.4828033 7.078125l-1.21875 -0.515625q0.75 -1.296875 1.078125 -2.71875q0.328125 -1.4375 0.328125 -2.859375q0 -1.421875 -0.328125 -2.84375q-0.328125 -1.4375 -1.078125 -2.75l1.21875 -0.5q0.84375 1.375 1.296875 2.859375q0.46875 1.46875 0.46875 3.234375q0 1.75 -0.46875 3.234375q-0.453125 1.484375 -1.296875 2.859375z" fill-rule="nonzero"/></g></svg>