<svg version="1.1" viewBox="0.0 0.0 494.3543307086614 373.3963254593176" fill="none" stroke="none" stroke-linecap="square" stroke-miterlimit="10" xmlns:xlink="http://www.w3.org/1999/xlink" xmlns="http://www.w3.org/2000/svg"><clipPath id="p.0"><path d="m0 0l494.35434 0l0 373.39633l-494.35434 0l0 -373.39633z" clip-rule="nonzero"/></clipPath><g clip-path="url(#p.0)"><path fill="#000000" fill-opacity="0.0" d="m0 0l494.35434 0l0 373.39633l-494.35434 0z" fill-rule="evenodd"/><path fill="#eeeeee" d="m8.0 8.0l118.92913 0l0 118.92913l-118.92913 0z" fill-rule="evenodd"/><path stroke="#595959" stroke-width="1.0" stroke-linejoin="round" stroke-linecap="butt" d="m8.0 8.0l118.92913 0l0 118.92913l-118.92913 0z" fill-rule="evenodd"/><path fill="#eeeeee" d="m126.92913 8.0l118.92913 0l0 118.92913l-118.92913 0z" fill-rule="evenodd"/><path stroke="#595959" stroke-width="1.0" stroke-linejoin="round" stroke-linecap="butt" d="m126.92913 8.0l118.92913 0l0 118.92913l-118.92913 0z" fill-rule="evenodd"/><path fill="#eeeeee" d="m245.85826 8.0l118.92915 0l0 118.92913l-118.92915 0z" fill-rule="evenodd"/><path stroke="#595959" stroke-width="1.0" stroke-linejoin="round" stroke-linecap="butt" d="m245.85826 8.0l118.92915 0l0 118.92913l-118.92915 0z" fill-rule="evenodd"/><path fill="#1a9988" d="m364.7874 8.0l118.92911 0l0 118.92913l-118.92911 0z" fill-rule="evenodd"/><path stroke="#595959" stroke-width="1.0" stroke-linejoin="round" stroke-linecap="butt" d="m364.7874 8.0l118.92911 0l0 118.92913l-118.92911 0z" fill-rule="evenodd"/><path fill="#eeeeee" d="m8.0 126.92913l118.92913 0l0 118.92913l-118.92913 0z" fill-rule="evenodd"/><path stroke="#595959" stroke-width="1.0" stroke-linejoin="round" stroke-linecap="butt" d="m8.0 126.92913l118.92913 0l0 118.92913l-118.92913 0z" fill-rule="evenodd"/><path fill="#eeeeee" d="m8.0 245.85826l118.92913 0l0 118.92915l-118.92913 0z" fill-rule="evenodd"/><path stroke="#595959" stroke-width="1.0" stroke-linejoin="round" stroke-linecap="butt" d="m8.0 245.85826l118.92913 0l0 118.92915l-118.92913 0z" fill-rule="evenodd"/><path fill="#595959" d="m126.92913 126.92913l118.92913 0l0 118.92913l-118.92913 0z" fill-rule="evenodd"/><path stroke="#595959" stroke-width="1.0" stroke-linejoin="round" stroke-linecap="butt" d="m126.92913 126.92913l118.92913 0l0 118.92913l-118.92913 0z" fill-rule="evenodd"/><path fill="#eeeeee" d="m245.85826 126.92913l118.92915 0l0 118.92913l-118.92915 0z" fill-rule="evenodd"/><path stroke="#595959" stroke-width="1.0" stroke-linejoin="round" stroke-linecap="butt" d="m245.85826 126.92913l118.92915 0l0 118.92913l-118.92915 0z" fill-rule="evenodd"/><path fill="#eb5600" d="m364.7874 126.92913l118.92911 0l0 118.92913l-118.92911 0z" fill-rule="evenodd"/><path stroke="#595959" stroke-width="1.0" stroke-linejoin="round" stroke-linecap="butt" d="m364.7874 126.92913l118.92911 0l0 118.92913l-118.92911 0z" fill-rule="evenodd"/><path fill="#eeeeee" d="m364.7874 245.85826l118.92911 0l0 118.92915l-118.92911 0z" fill-rule="evenodd"/><path stroke="#595959" stroke-width="1.0" stroke-linejoin="round" stroke-linecap="butt" d="m364.7874 245.85826l118.92911 0l0 118.92915l-118.92911 0z" fill-rule="evenodd"/><path fill="#eeeeee" d="m245.85826 245.85826l118.92915 0l0 118.92915l-118.92915 0z" fill-rule="evenodd"/><path stroke="#595959" stroke-width="1.0" stroke-linejoin="round" stroke-linecap="butt" d="m245.85826 245.85826l118.92915 0l0 118.92915l-118.92915 0z" fill-rule="evenodd"/><path fill="#eeeeee" d="m126.92913 245.85826l118.92913 0l0 118.92915l-118.92913 0z" fill-rule="evenodd"/><path stroke="#595959" stroke-width="1.0" stroke-linejoin="round" stroke-linecap="butt" d="m126.92913 245.85826l118.92913 0l0 118.92915l-118.92913 0z" fill-rule="evenodd"/><path fill="#783f04" d="m465.46863 37.045616l0 0c9.458282 6.560112 11.863281 19.516659 5.3893433 29.034126c-6.4739685 9.517464 -19.408142 12.040031 -28.984009 5.652771l11.639832 -17.450584z" fill-rule="evenodd"/><path stroke="#595959" stroke-width="1.0" stroke-linejoin="round" stroke-linecap="butt" d="m465.46863 37.045616l0 0c9.458282 6.560112 11.863281 19.516659 5.3893433 29.034126c-6.4739685 9.517464 -19.408142 12.040031 -28.984009 5.652771l11.639832 -17.450584z" fill-rule="evenodd"/><path fill="#f1c232" d="m405.69092 70.06252l0 0c-0.3146057 -2.4210205 0.7182312 -4.8176804 2.6601868 -6.1729927c1.9419556 -1.3553123 4.452484 -1.4315834 6.4662476 -0.19644928l0 0c0.7133484 -1.4076805 2.0189514 -2.3795853 3.5219421 -2.6217346c1.5029602 -0.24214935 3.026764 0.27389908 4.1104736 1.3920517l0 0c0.607666 -1.2762947 1.8008423 -2.1338005 3.156128 -2.2682304c1.3552551 -0.13442993 2.6808472 0.4732399 3.5063171 1.6073761l0 0c1.0978699 -1.3528671 2.844574 -1.9224815 4.484314 -1.4623642c1.6397705 0.46011353 2.8780518 1.8673172 3.1790466 3.6127052l0 0c1.3450623 0.38422012 2.465454 1.3609581 3.0717468 2.6778603c0.6062622 1.3168945 0.638916 2.8447723 0.08956909 4.1888657l0 0c1.3244629 1.8052673 1.6343079 4.2107697 0.8138428 6.3188095c-0.8204346 2.1080322 -2.6478882 3.6019058 -4.8003845 3.9241257c-0.015167236 1.9784698 -1.0512695 3.7938843 -2.7089539 4.7465134c-1.6576843 0.9526291 -3.67807 0.8937073 -5.2824097 -0.1540451c-0.6833801 2.3695526 -2.6068726 4.1130524 -4.9394226 4.4772415c-2.33255 0.36418152 -4.6560364 -0.7162399 -5.966614 -2.7744827c-1.6065063 1.0145111 -3.5341492 1.3067627 -5.3481445 0.81082153c-1.8139954 -0.49594116 -3.3615112 -1.7382965 -4.293457 -3.4468155l0 0c-1.6416321 0.2011795 -3.2288818 -0.6895447 -3.9739685 -2.2301102c-0.7451172 -1.5405655 -0.48944092 -3.4030304 0.6400757 -4.6630554l0 0c-1.464386 -0.9026184 -2.2115784 -2.6937103 -1.8519897 -4.4393005c0.35958862 -1.7455902 1.7445068 -3.0501099 3.4325867 -3.233307z" fill-rule="evenodd"/><path fill="#000000" fill-opacity="0.0" d="m404.07788 77.828445l0 0c0.69104004 0.4259491 1.4893799 0.61917114 2.2877808 0.55371857m1.0457458 6.3395996c0.34335327 -0.04208374 0.6799011 -0.13117981 1.000946 -0.26501465m8.640167 2.9008942c-0.2414856 -0.37924957 -0.44366455 -0.78450775 -0.6031189 -1.2088776m11.509552 -0.49395752l0 0c0.12460327 -0.43200684 0.20532227 -0.8766327 0.24084473 -1.3264618m7.750244 -3.2658386c0.016143799 -2.1063843 -1.1262512 -4.0350113 -2.9365234 -4.9574814m6.923004 -5.285225c-0.29315186 0.71726227 -0.74072266 1.3535385 -1.3075562 1.8589325m-1.8534546 -8.725849l0 0c0.049957275 0.28964615 0.07305908 0.58364487 0.06903076 0.8779259m-7.7322693 -3.0281792l0 0c-0.27383423 0.337471 -0.4994812 0.7145958 -0.6698303 1.1196213m-5.9927063 -0.4589157l0 0c-0.14593506 0.30652618 -0.25491333 0.63088226 -0.32443237 0.96559525m-7.308075 0.26411438l0 0c0.42611694 0.26135635 0.8203125 0.5759201 1.1739807 0.93679047m-10.300293 5.432686l0 0c0.04333496 0.3336792 0.111846924 0.66324615 0.2048645 0.98561096" fill-rule="evenodd"/><path fill="#783f04" d="m400.71652 71.60941l41.921265 0l0 30.015747l-41.921265 0z" fill-rule="evenodd"/><path stroke="#595959" stroke-width="1.0" stroke-linejoin="round" stroke-linecap="butt" d="m400.71652 71.60941l41.921265 0l0 30.015747l-41.921265 0z" fill-rule="evenodd"/><path fill="#cc0000" d="m396.71545 218.50662l0 0c-11.976318 -10.749985 -12.970459 -29.173279 -2.220459 -41.149597q14.075897 -15.681656 18.473541 -40.05052q6.9944153 23.75415 22.676056 37.830048l0 0c11.976318 10.749985 12.970459 29.173279 2.2204895 41.149597l0 0c-10.75 11.976318 -29.17331 12.970459 -41.149628 2.2204742z" fill-rule="evenodd"/><path fill="#cc0000" d="m409.20532 213.93083l0 0c-9.454071 -13.020004 -6.5632935 -31.238846 6.4566956 -40.692917q17.52069 -12.722092 26.715271 -36.910736q1.2555542 25.846756 13.977661 43.36743l0 0c9.454071 13.020004 6.5632935 31.238846 -6.4566956 40.692917l0 0c-13.02002 9.454071 -31.238861 6.5633087 -40.692932 -6.4566956z" fill-rule="evenodd"/><path fill="#cc0000" d="m399.11084 213.48201l0 0c-9.454071 -13.020004 -6.5632935 -31.238846 6.4566956 -40.692917q17.52069 -12.722092 26.715271 -36.910736q1.2555542 25.846756 13.977631 43.36743l0 0c9.454071 13.020004 6.563324 31.238846 -6.456665 40.692917l0 0c-13.02002 9.454071 -31.238861 6.5633087 -40.692932 -6.4566956z" fill-rule="evenodd"/><path fill="#ff9900" d="m406.04065 208.4575l0 0c-6.6796265 -9.193161 -4.641968 -22.060562 4.551178 -28.740158q12.370972 -8.988571 18.859314 -26.073425q0.89227295 18.253616 9.880829 30.624603l0 0c6.679596 9.193146 4.641968 22.060547 -4.551178 28.740158l0 0c-9.193146 6.679596 -22.060547 4.641968 -28.740143 -4.551178z" fill-rule="evenodd"/><path fill="#cfe2f3" d="m350.2467 292.01837l14.566956 14.566925l-14.566956 14.566925l0 -7.2834473l-52.015747 0l0 -14.566925l52.015747 0z" fill-rule="evenodd"/><path stroke="#595959" stroke-width="1.0" stroke-linejoin="round" stroke-linecap="butt" d="m350.2467 292.01837l14.566956 14.566925l-14.566956 14.566925l0 -7.2834473l-52.015747 0l0 -14.566925l52.015747 0z" fill-rule="evenodd"/><path fill="#cfe2f3" d="m261.04987 321.15222l-14.566925 -14.566925l14.566925 -14.566925l0 7.283478l51.385834 0l0 14.566925l-51.385834 0z" fill-rule="evenodd"/><path stroke="#595959" stroke-width="1.0" stroke-linejoin="round" stroke-linecap="butt" d="m261.04987 321.15222l-14.566925 -14.566925l14.566925 -14.566925l0 7.283478l51.385834 0l0 14.566925l-51.385834 0z" fill-rule="evenodd"/><path fill="#3d85c6" d="m290.75592 198.79265l14.566925 -14.566925l14.566925 14.566925l-7.283478 0l0 115.03938l-14.566925 0l0 -115.03938z" fill-rule="evenodd"/><path stroke="#595959" stroke-width="1.0" stroke-linejoin="round" stroke-linecap="butt" d="m290.75592 198.79265l14.566925 -14.566925l14.566925 14.566925l-7.283478 0l0 115.03938l-14.566925 0l0 -115.03938z" fill-rule="evenodd"/><path fill="#000000" fill-opacity="0.0" d="m260.95538 222.67717l37.007874 0l0 23.181091l-37.007874 0z" fill-rule="evenodd"/><path fill="#000000" d="m274.4884 239.22397q-1.28125 0 -2.0 -1.140625q-0.71875 -1.140625 -0.71875 -3.296875q0 -2.140625 0.71875 -3.25q0.71875 -1.125 2.0 -1.125q1.28125 0 2.0 1.125q0.71875 1.109375 0.71875 3.25q0 2.15625 -0.71875 3.296875q-0.71875 1.140625 -2.0 1.140625zm0 -0.875q0.375 0 0.671875 -0.203125q0.3125 -0.21875 0.53125 -0.640625q0.21875 -0.4375 0.328125 -1.109375q0.125 -0.671875 0.125 -1.609375q0 -0.9375 -0.125 -1.59375q-0.109375 -0.671875 -0.328125 -1.09375q-0.21875 -0.421875 -0.53125 -0.609375q-0.296875 -0.203125 -0.671875 -0.203125q-0.359375 0 -0.671875 0.203125q-0.3125 0.1875 -0.53125 0.609375q-0.21875 0.421875 -0.34375 1.09375q-0.109375 0.65625 -0.109375 1.59375q0 1.875 0.453125 2.71875q0.46875 0.84375 1.203125 0.84375zm4.983429 0.875q-0.34375 0 -0.578125 -0.234375q-0.234375 -0.234375 -0.234375 -0.59375q0 -0.375 0.234375 -0.609375q0.234375 -0.234375 0.578125 -0.234375q0.3125 0 0.546875 0.234375q0.234375 0.234375 0.234375 0.609375q0 0.359375 -0.234375 0.59375q-0.234375 0.234375 -0.546875 0.234375zm4.974945 0q-0.59375 0 -1.109375 -0.171875q-0.515625 -0.171875 -0.890625 -0.484375q-0.359375 -0.3125 -0.578125 -0.734375q-0.203125 -0.4375 -0.203125 -0.9375q0 -0.40625 0.140625 -0.765625q0.140625 -0.359375 0.359375 -0.640625q0.21875 -0.28125 0.5 -0.5q0.296875 -0.234375 0.59375 -0.390625l0 -0.046875q-0.46875 -0.328125 -0.828125 -0.796875q-0.359375 -0.484375 -0.359375 -1.171875q0 -0.484375 0.1875 -0.875q0.1875 -0.40625 0.5 -0.6875q0.328125 -0.296875 0.765625 -0.453125q0.453125 -0.15625 0.96875 -0.15625q0.5625 0 1.0 0.171875q0.4375 0.15625 0.75 0.453125q0.3125 0.296875 0.46875 0.71875q0.171875 0.421875 0.171875 0.921875q0 0.328125 -0.109375 0.640625q-0.109375 0.296875 -0.28125 0.5625q-0.15625 0.265625 -0.375 0.484375q-0.203125 0.21875 -0.40625 0.359375l0 0.046875q0.28125 0.171875 0.546875 0.375q0.265625 0.203125 0.46875 0.46875q0.21875 0.25 0.34375 0.59375q0.125 0.328125 0.125 0.75q0 0.484375 -0.203125 0.90625q-0.203125 0.40625 -0.5625 0.71875q-0.359375 0.296875 -0.875 0.46875q-0.5 0.171875 -1.109375 0.171875zm0.609375 -4.796875q0.421875 -0.390625 0.65625 -0.8125q0.234375 -0.421875 0.234375 -0.890625q0 -0.640625 -0.390625 -1.0625q-0.390625 -0.4375 -1.09375 -0.4375q-0.59375 0 -0.984375 0.375q-0.390625 0.359375 -0.390625 0.984375q0 0.390625 0.15625 0.671875q0.171875 0.265625 0.4375 0.484375q0.28125 0.203125 0.625 0.375q0.359375 0.171875 0.75 0.3125zm-0.578125 3.984375q0.75 0 1.203125 -0.40625q0.46875 -0.421875 0.46875 -1.078125q0 -0.421875 -0.1875 -0.703125q-0.1875 -0.296875 -0.515625 -0.515625q-0.3125 -0.21875 -0.734375 -0.390625q-0.421875 -0.1875 -0.875 -0.375q-0.5 0.34375 -0.84375 0.8125q-0.34375 0.453125 -0.34375 1.03125q0 0.359375 0.140625 0.65625q0.140625 0.296875 0.390625 0.515625q0.25 0.21875 0.578125 0.34375q0.328125 0.109375 0.71875 0.109375z" fill-rule="nonzero"/><path fill="#000000" fill-opacity="0.0" d="m260.95538 313.83203l37.007874 0l0 23.181091l-37.007874 0z" fill-rule="evenodd"/><path fill="#000000" d="m274.4884 330.3788q-1.28125 0 -2.0 -1.140625q-0.71875 -1.140625 -0.71875 -3.296875q0 -2.140625 0.71875 -3.25q0.71875 -1.125 2.0 -1.125q1.28125 0 2.0 1.125q0.71875 1.109375 0.71875 3.25q0 2.15625 -0.71875 3.296875q-0.71875 1.140625 -2.0 1.140625zm0 -0.875q0.375 0 0.671875 -0.203125q0.3125 -0.21875 0.53125 -0.640625q0.21875 -0.4375 0.328125 -1.109375q0.125 -0.671875 0.125 -1.609375q0 -0.9375 -0.125 -1.59375q-0.109375 -0.671875 -0.328125 -1.09375q-0.21875 -0.421875 -0.53125 -0.609375q-0.296875 -0.203125 -0.671875 -0.203125q-0.359375 0 -0.671875 0.203125q-0.3125 0.1875 -0.53125 0.609375q-0.21875 0.421875 -0.34375 1.09375q-0.109375 0.65625 -0.109375 1.59375q0 1.875 0.453125 2.71875q0.46875 0.84375 1.203125 0.84375zm4.983429 0.875q-0.34375 0 -0.578125 -0.234375q-0.234375 -0.234375 -0.234375 -0.59375q0 -0.375 0.234375 -0.609375q0.234375 -0.234375 0.578125 -0.234375q0.3125 0 0.546875 0.234375q0.234375 0.234375 0.234375 0.609375q0 0.359375 -0.234375 0.59375q-0.234375 0.234375 -0.546875 0.234375zm2.693695 -0.15625l0 -0.90625l1.953125 0l0 -6.265625l-1.546875 0l0 -0.703125q0.59375 -0.109375 1.015625 -0.265625q0.4375 -0.15625 0.78125 -0.359375l0.84375 0l0 7.59375l1.75 0l0 0.90625l-4.796875 0z" fill-rule="nonzero"/><path fill="#000000" fill-opacity="0.0" d="m312.8714 313.83203l37.007874 0l0 23.181091l-37.007874 0z" fill-rule="evenodd"/><path fill="#000000" d="m326.40442 330.3788q-1.28125 0 -2.0 -1.140625q-0.71875 -1.140625 -0.71875 -3.296875q0 -2.140625 0.71875 -3.25q0.71875 -1.125 2.0 -1.125q1.28125 0 2.0 1.125q0.71875 1.109375 0.71875 3.25q0 2.15625 -0.71875 3.296875q-0.71875 1.140625 -2.0 1.140625zm0 -0.875q0.375 0 0.671875 -0.203125q0.3125 -0.21875 0.53125 -0.640625q0.21875 -0.4375 0.328125 -1.109375q0.125 -0.671875 0.125 -1.609375q0 -0.9375 -0.125 -1.59375q-0.109375 -0.671875 -0.328125 -1.09375q-0.21875 -0.421875 -0.53125 -0.609375q-0.296875 -0.203125 -0.671875 -0.203125q-0.359375 0 -0.671875 0.203125q-0.3125 0.1875 -0.53125 0.609375q-0.21875 0.421875 -0.34375 1.09375q-0.109375 0.65625 -0.109375 1.59375q0 1.875 0.453125 2.71875q0.46875 0.84375 1.203125 0.84375zm4.983429 0.875q-0.34375 0 -0.578125 -0.234375q-0.234375 -0.234375 -0.234375 -0.59375q0 -0.375 0.234375 -0.609375q0.234375 -0.234375 0.578125 -0.234375q0.3125 0 0.546875 0.234375q0.234375 0.234375 0.234375 0.609375q0 0.359375 -0.234375 0.59375q-0.234375 0.234375 -0.546875 0.234375zm2.693695 -0.15625l0 -0.90625l1.953125 0l0 -6.265625l-1.546875 0l0 -0.703125q0.59375 -0.109375 1.015625 -0.265625q0.4375 -0.15625 0.78125 -0.359375l0.84375 0l0 7.59375l1.75 0l0 0.90625l-4.796875 0z" fill-rule="nonzero"/><path fill="#000000" fill-opacity="0.0" d="m312.4357 257.34647l29.13385 0l0 23.181091l-29.13385 0z" fill-rule="evenodd"/><path fill="#000000" d="m326.0219 273.89325q-0.453125 0 -0.828125 -0.15625q-0.359375 -0.140625 -0.609375 -0.40625q-0.25 -0.28125 -0.390625 -0.640625q-0.140625 -0.359375 -0.140625 -0.796875q0 -1.03125 0.875 -1.609375q0.875 -0.59375 2.84375 -0.796875q-0.03125 -0.4375 -0.265625 -0.703125q-0.234375 -0.265625 -0.78125 -0.265625q-0.421875 0 -0.84375 0.171875q-0.421875 0.15625 -0.890625 0.4375l-0.71875 -1.296875q0.640625 -0.390625 1.34375 -0.625q0.703125 -0.234375 1.484375 -0.234375q1.28125 0 1.953125 0.734375q0.671875 0.71875 0.671875 2.25l0 3.78125l-1.59375 0l-0.140625 -0.6875l-0.046875 0q-0.421875 0.375 -0.890625 0.609375q-0.46875 0.234375 -1.03125 0.234375zm0.671875 -1.515625q0.328125 0 0.5625 -0.140625q0.25 -0.15625 0.515625 -0.421875l0 -1.15625q-1.046875 0.140625 -1.453125 0.421875q-0.390625 0.28125 -0.390625 0.671875q0 0.3125 0.203125 0.46875q0.21875 0.15625 0.5625 0.15625z" fill-rule="nonzero"/></g></svg>