<svg version="1.1" viewBox="0.0 0.0 494.3543307086614 373.3963254593176" fill="none" stroke="none" stroke-linecap="square" stroke-miterlimit="10" xmlns:xlink="http://www.w3.org/1999/xlink" xmlns="http://www.w3.org/2000/svg"><clipPath id="p.0"><path d="m0 0l494.35434 0l0 373.39633l-494.35434 0l0 -373.39633z" clip-rule="nonzero"/></clipPath><g clip-path="url(#p.0)"><path fill="#000000" fill-opacity="0.0" d="m0 0l494.35434 0l0 373.39633l-494.35434 0z" fill-rule="evenodd"/><path fill="#eeeeee" d="m8.0 8.0l118.92913 0l0 118.92913l-118.92913 0z" fill-rule="evenodd"/><path stroke="#595959" stroke-width="1.0" stroke-linejoin="round" stroke-linecap="butt" d="m8.0 8.0l118.92913 0l0 118.92913l-118.92913 0z" fill-rule="evenodd"/><path fill="#eeeeee" d="m126.92913 8.0l118.92913 0l0 118.92913l-118.92913 0z" fill-rule="evenodd"/><path stroke="#595959" stroke-width="1.0" stroke-linejoin="round" stroke-linecap="butt" d="m126.92913 8.0l118.92913 0l0 118.92913l-118.92913 0z" fill-rule="evenodd"/><path fill="#eeeeee" d="m245.85826 8.0l118.92915 0l0 118.92913l-118.92915 0z" fill-rule="evenodd"/><path stroke="#595959" stroke-width="1.0" stroke-linejoin="round" stroke-linecap="butt" d="m245.85826 8.0l118.92915 0l0 118.92913l-118.92915 0z" fill-rule="evenodd"/><path fill="#1a9988" d="m364.7874 8.0l118.92911 0l0 118.92913l-118.92911 0z" fill-rule="evenodd"/><path stroke="#595959" stroke-width="1.0" stroke-linejoin="round" stroke-linecap="butt" d="m364.7874 8.0l118.92911 0l0 118.92913l-118.92911 0z" fill-rule="evenodd"/><path fill="#eeeeee" d="m8.0 126.92913l118.92913 0l0 118.92913l-118.92913 0z" fill-rule="evenodd"/><path stroke="#595959" stroke-width="1.0" stroke-linejoin="round" stroke-linecap="butt" d="m8.0 126.92913l118.92913 0l0 118.92913l-118.92913 0z" fill-rule="evenodd"/><path fill="#eeeeee" d="m8.0 245.85826l118.92913 0l0 118.92915l-118.92913 0z" fill-rule="evenodd"/><path stroke="#595959" stroke-width="1.0" stroke-linejoin="round" stroke-linecap="butt" d="m8.0 245.85826l118.92913 0l0 118.92915l-118.92913 0z" fill-rule="evenodd"/><path fill="#595959" d="m126.92913 126.92913l118.92913 0l0 118.92913l-118.92913 0z" fill-rule="evenodd"/><path stroke="#595959" stroke-width="1.0" stroke-linejoin="round" stroke-linecap="butt" d="m126.92913 126.92913l118.92913 0l0 118.92913l-118.92913 0z" fill-rule="evenodd"/><path fill="#eeeeee" d="m245.85826 126.92913l118.92915 0l0 118.92913l-118.92915 0z" fill-rule="evenodd"/><path stroke="#595959" stroke-width="1.0" stroke-linejoin="round" stroke-linecap="butt" d="m245.85826 126.92913l118.92915 0l0 118.92913l-118.92915 0z" fill-rule="evenodd"/><path fill="#eb5600" d="m364.7874 126.92913l118.92911 0l0 118.92913l-118.92911 0z" fill-rule="evenodd"/><path stroke="#595959" stroke-width="1.0" stroke-linejoin="round" stroke-linecap="butt" d="m364.7874 126.92913l118.92911 0l0 118.92913l-118.92911 0z" fill-rule="evenodd"/><path fill="#eeeeee" d="m364.7874 245.85826l118.92911 0l0 118.92915l-118.92911 0z" fill-rule="evenodd"/><path stroke="#595959" stroke-width="1.0" stroke-linejoin="round" stroke-linecap="butt" d="m364.7874 245.85826l118.92911 0l0 118.92915l-118.92911 0z" fill-rule="evenodd"/><path fill="#eeeeee" d="m245.85826 245.85826l118.92915 0l0 118.92915l-118.92915 0z" fill-rule="evenodd"/><path stroke="#595959" stroke-width="1.0" stroke-linejoin="round" stroke-linecap="butt" d="m245.85826 245.85826l118.92915 0l0 118.92915l-118.92915 0z" fill-rule="evenodd"/><path fill="#eeeeee" d="m126.92913 245.85826l118.92913 0l0 118.92915l-118.92913 0z" fill-rule="evenodd"/><path stroke="#595959" stroke-width="1.0" stroke-linejoin="round" stroke-linecap="butt" d="m126.92913 245.85826l118.92913 0l0 118.92915l-118.92913 0z" fill-rule="evenodd"/><path fill="#000000" fill-opacity="0.0" d="m246.49344 8.0l30.11023 0l0 20.346457l-30.11023 0z" fill-rule="evenodd"/><path fill="#000000" d="m261.40887 23.129477q-0.65625 0 -1.34375 -0.25q-0.6875 -0.25 -1.1875 -0.671875l0.875 -1.21875q0.453125 0.34375 0.859375 0.515625q0.421875 0.171875 0.84375 0.171875q0.453125 0 0.640625 -0.140625q0.203125 -0.15625 0.203125 -0.421875q0 -0.15625 -0.109375 -0.28125q-0.109375 -0.125 -0.3125 -0.234375q-0.1875 -0.109375 -0.4375 -0.1875q-0.234375 -0.09375 -0.484375 -0.203125q-0.3125 -0.109375 -0.625 -0.2656231q-0.296875 -0.171875 -0.546875 -0.40625q-0.25 -0.234375 -0.421875 -0.546875q-0.15625 -0.3125 -0.15625 -0.71875q0 -0.453125 0.171875 -0.84375q0.1875 -0.390625 0.515625 -0.65625q0.34375 -0.265625 0.8125 -0.40625q0.46875 -0.15625 1.03125 -0.15625q0.765625 0 1.328125 0.265625q0.578125 0.25 1.015625 0.5625l-0.890625 1.171875q-0.359375 -0.265625 -0.703125 -0.40625q-0.34375 -0.140625 -0.6875 -0.140625q-0.75 0 -0.75 0.515625q0 0.15625 0.109375 0.28125q0.109375 0.109375 0.28125 0.203125q0.1875 0.09375 0.40625 0.1875q0.234375 0.078125 0.5 0.171875q0.3125 0.109375 0.625 0.265625q0.3125 0.15625 0.578125 0.390625q0.265625 0.21875 0.421875 0.5468731q0.15625 0.328125 0.15625 0.78125q0 0.453125 -0.171875 0.84375q-0.171875 0.375 -0.53125 0.671875q-0.34375 0.28125 -0.84375 0.453125q-0.5 0.15625 -1.171875 0.15625z" fill-rule="nonzero"/><path fill="#cfe2f3" d="m335.26248 112.062996l-14.566956 14.566925l-14.566925 -14.566925l7.283478 0l0 -52.01575l14.566925 0l0 52.01575z" fill-rule="evenodd"/><path stroke="#595959" stroke-width="1.0" stroke-linejoin="round" stroke-linecap="butt" d="m335.26248 112.062996l-14.566956 14.566925l-14.566925 -14.566925l7.283478 0l0 -52.01575l14.566925 0l0 52.01575z" fill-rule="evenodd"/><path fill="#cfe2f3" d="m306.1286 22.866142l14.566925 -14.56693l14.566956 14.56693l-7.283478 0l0 51.385826l-14.566925 0l0 -51.385826z" fill-rule="evenodd"/><path stroke="#595959" stroke-width="1.0" stroke-linejoin="round" stroke-linecap="butt" d="m306.1286 22.866142l14.566925 -14.56693l14.566956 14.56693l-7.283478 0l0 51.385826l-14.566925 0l0 -51.385826z" fill-rule="evenodd"/><path fill="#3d85c6" d="m428.4882 52.572178l14.566925 14.566929l-14.566925 14.566933l0 -7.28347l-115.03937 0l0 -14.566925l115.03937 0z" fill-rule="evenodd"/><path stroke="#595959" stroke-width="1.0" stroke-linejoin="round" stroke-linecap="butt" d="m428.4882 52.572178l14.566925 14.566929l-14.566925 14.566933l0 -7.28347l-115.03937 0l0 -14.566925l115.03937 0z" fill-rule="evenodd"/><path fill="#000000" fill-opacity="0.0" d="m374.5092 29.68504l37.007874 0l0 23.181103l-37.007874 0z" fill-rule="evenodd"/><path fill="#000000" d="m388.04224 46.23184q-1.28125 0 -2.0 -1.140625q-0.71875 -1.140625 -0.71875 -3.296875q0 -2.140625 0.71875 -3.25q0.71875 -1.125 2.0 -1.125q1.28125 0 2.0 1.125q0.71875 1.109375 0.71875 3.25q0 2.15625 -0.71875 3.296875q-0.71875 1.140625 -2.0 1.140625zm0 -0.875q0.375 0 0.671875 -0.203125q0.3125 -0.21875 0.53125 -0.640625q0.21875 -0.4375 0.328125 -1.109375q0.125 -0.671875 0.125 -1.609375q0 -0.9375 -0.125 -1.59375q-0.109375 -0.671875 -0.328125 -1.09375q-0.21875 -0.421875 -0.53125 -0.609375q-0.296875 -0.203125 -0.671875 -0.203125q-0.359375 0 -0.671875 0.203125q-0.3125 0.1875 -0.53125 0.609375q-0.21875 0.421875 -0.34375 1.09375q-0.109375 0.65625 -0.109375 1.59375q0 1.875 0.453125 2.71875q0.46875 0.84375 1.203125 0.84375zm4.983429 0.875q-0.34375 0 -0.578125 -0.234375q-0.234375 -0.234375 -0.234375 -0.59375q0 -0.375 0.234375 -0.609375q0.234375 -0.234375 0.578125 -0.234375q0.3125 0 0.546875 0.234375q0.234375 0.234375 0.234375 0.609375q0 0.359375 -0.234375 0.59375q-0.234375 0.234375 -0.546875 0.234375zm4.974945 0q-0.59375 0 -1.109375 -0.171875q-0.515625 -0.171875 -0.890625 -0.484375q-0.359375 -0.3125 -0.578125 -0.734375q-0.203125 -0.4375 -0.203125 -0.9375q0 -0.40625 0.140625 -0.765625q0.140625 -0.359375 0.359375 -0.640625q0.21875 -0.28125 0.5 -0.5q0.296875 -0.234375 0.59375 -0.390625l0 -0.046875q-0.46875 -0.328125 -0.828125 -0.796875q-0.359375 -0.484375 -0.359375 -1.171875q0 -0.484375 0.1875 -0.875q0.1875 -0.40625 0.5 -0.6875q0.328125 -0.296875 0.765625 -0.453125q0.453125 -0.15625 0.96875 -0.15625q0.5625 0 1.0 0.171875q0.4375 0.15625 0.75 0.453125q0.3125 0.296875 0.46875 0.71875q0.171875 0.421875 0.171875 0.921875q0 0.328125 -0.109375 0.640625q-0.109375 0.296875 -0.28125 0.5625q-0.15625 0.265625 -0.375 0.484375q-0.203125 0.21875 -0.40625 0.359375l0 0.046875q0.28125 0.171875 0.546875 0.375q0.265625 0.203125 0.46875 0.46875q0.21875 0.25 0.34375 0.59375q0.125 0.328125 0.125 0.75q0 0.484375 -0.203125 0.90625q-0.203125 0.40625 -0.5625 0.71875q-0.359375 0.296875 -0.875 0.46875q-0.5 0.171875 -1.109375 0.171875zm0.609375 -4.796875q0.421875 -0.390625 0.65625 -0.8125q0.234375 -0.421875 0.234375 -0.890625q0 -0.640625 -0.390625 -1.0625q-0.390625 -0.4375 -1.09375 -0.4375q-0.59375 0 -0.984375 0.375q-0.390625 0.359375 -0.390625 0.984375q0 0.390625 0.15625 0.671875q0.171875 0.265625 0.4375 0.484375q0.28125 0.203125 0.625 0.375q0.359375 0.171875 0.75 0.3125zm-0.578125 3.984375q0.75 0 1.203125 -0.40625q0.46875 -0.421875 0.46875 -1.078125q0 -0.421875 -0.1875 -0.703125q-0.1875 -0.296875 -0.515625 -0.515625q-0.3125 -0.21875 -0.734375 -0.390625q-0.421875 -0.1875 -0.875 -0.375q-0.5 0.34375 -0.84375 0.8125q-0.34375 0.453125 -0.34375 1.03125q0 0.359375 0.140625 0.65625q0.140625 0.296875 0.390625 0.515625q0.25 0.21875 0.578125 0.34375q0.328125 0.109375 0.71875 0.109375z" fill-rule="nonzero"/><path fill="#000000" fill-opacity="0.0" d="m283.35434 29.68504l37.007874 0l0 23.181103l-37.007874 0z" fill-rule="evenodd"/><path fill="#000000" d="m296.88736 46.23184q-1.28125 0 -2.0 -1.140625q-0.71875 -1.140625 -0.71875 -3.296875q0 -2.140625 0.71875 -3.25q0.71875 -1.125 2.0 -1.125q1.28125 0 2.0 1.125q0.71875 1.109375 0.71875 3.25q0 2.15625 -0.71875 3.296875q-0.71875 1.140625 -2.0 1.140625zm0 -0.875q0.375 0 0.671875 -0.203125q0.3125 -0.21875 0.53125 -0.640625q0.21875 -0.4375 0.328125 -1.109375q0.125 -0.671875 0.125 -1.609375q0 -0.9375 -0.125 -1.59375q-0.109375 -0.671875 -0.328125 -1.09375q-0.21875 -0.421875 -0.53125 -0.609375q-0.296875 -0.203125 -0.671875 -0.203125q-0.359375 0 -0.671875 0.203125q-0.3125 0.1875 -0.53125 0.609375q-0.21875 0.421875 -0.34375 1.09375q-0.109375 0.65625 -0.109375 1.59375q0 1.875 0.453125 2.71875q0.46875 0.84375 1.203125 0.84375zm4.983429 0.875q-0.34375 0 -0.578125 -0.234375q-0.234375 -0.234375 -0.234375 -0.59375q0 -0.375 0.234375 -0.609375q0.234375 -0.234375 0.578125 -0.234375q0.3125 0 0.546875 0.234375q0.234375 0.234375 0.234375 0.609375q0 0.359375 -0.234375 0.59375q-0.234375 0.234375 -0.546875 0.234375zm2.693695 -0.15625l0 -0.90625l1.953125 0l0 -6.265625l-1.546875 0l0 -0.703125q0.59375 -0.109375 1.015625 -0.265625q0.4375 -0.15625 0.78125 -0.359375l0.84375 0l0 7.59375l1.75 0l0 0.90625l-4.796875 0z" fill-rule="nonzero"/><path fill="#000000" fill-opacity="0.0" d="m283.35434 81.60105l37.007874 0l0 23.181099l-37.007874 0z" fill-rule="evenodd"/><path fill="#000000" d="m296.88736 98.14785q-1.28125 0 -2.0 -1.140625q-0.71875 -1.140625 -0.71875 -3.296875q0 -2.140625 0.71875 -3.25q0.71875 -1.125 2.0 -1.125q1.28125 0 2.0 1.125q0.71875 1.109375 0.71875 3.25q0 2.15625 -0.71875 3.296875q-0.71875 1.140625 -2.0 1.140625zm0 -0.875q0.375 0 0.671875 -0.203125q0.3125 -0.21875 0.53125 -0.640625q0.21875 -0.4375 0.328125 -1.109375q0.125 -0.671875 0.125 -1.609375q0 -0.9375 -0.125 -1.59375q-0.109375 -0.671875 -0.328125 -1.09375q-0.21875 -0.421875 -0.53125 -0.609375q-0.296875 -0.203125 -0.671875 -0.203125q-0.359375 0 -0.671875 0.203125q-0.3125 0.1875 -0.53125 0.609375q-0.21875 0.421875 -0.34375 1.09375q-0.109375 0.65625 -0.109375 1.59375q0 1.875 0.453125 2.71875q0.46875 0.84375 1.203125 0.84375zm4.983429 0.875q-0.34375 0 -0.578125 -0.234375q-0.234375 -0.234375 -0.234375 -0.59375q0 -0.375 0.234375 -0.609375q0.234375 -0.234375 0.578125 -0.234375q0.3125 0 0.546875 0.234375q0.234375 0.234375 0.234375 0.609375q0 0.359375 -0.234375 0.59375q-0.234375 0.234375 -0.546875 0.234375zm2.693695 -0.15625l0 -0.90625l1.953125 0l0 -6.265625l-1.546875 0l0 -0.703125q0.59375 -0.109375 1.015625 -0.265625q0.4375 -0.15625 0.78125 -0.359375l0.84375 0l0 7.59375l1.75 0l0 0.90625l-4.796875 0z" fill-rule="nonzero"/><path fill="#000000" fill-opacity="0.0" d="m343.77692 77.22835l29.13385 0l0 23.181099l-29.13385 0z" fill-rule="evenodd"/><path fill="#000000" d="m357.36313 93.77515q-0.453125 0 -0.828125 -0.15625q-0.359375 -0.140625 -0.609375 -0.40625q-0.25 -0.28125 -0.390625 -0.640625q-0.140625 -0.359375 -0.140625 -0.796875q0 -1.03125 0.875 -1.609375q0.875 -0.59375 2.84375 -0.796875q-0.03125 -0.4375 -0.265625 -0.703125q-0.234375 -0.265625 -0.78125 -0.265625q-0.421875 0 -0.84375 0.171875q-0.421875 0.15625 -0.890625 0.4375l-0.71875 -1.296875q0.640625 -0.390625 1.34375 -0.625q0.703125 -0.234375 1.484375 -0.234375q1.28125 0 1.953125 0.734375q0.671875 0.71875 0.671875 2.25l0 3.78125l-1.59375 0l-0.140625 -0.6875l-0.046875 0q-0.421875 0.375 -0.890625 0.609375q-0.46875 0.234375 -1.03125 0.234375zm0.671875 -1.515625q0.328125 0 0.5625 -0.140625q0.25 -0.15625 0.515625 -0.421875l0 -1.15625q-1.046875 0.140625 -1.453125 0.421875q-0.390625 0.28125 -0.390625 0.671875q0 0.3125 0.203125 0.46875q0.21875 0.15625 0.5625 0.15625z" fill-rule="nonzero"/><path fill="#000000" fill-opacity="0.0" d="m281.90552 126.62992l46.834625 0l0 40.787407l-46.834625 0z" fill-rule="evenodd"/><path fill="#000000" d="m299.3632 153.07112q-1.546875 0 -2.421875 -1.375q-0.859375 -1.375 -0.859375 -3.953125q0 -2.578125 0.859375 -3.921875q0.875 -1.34375 2.421875 -1.34375q1.53125 0 2.390625 1.34375q0.875 1.34375 0.875 3.921875q0 2.578125 -0.875 3.953125q-0.859375 1.375 -2.390625 1.375zm0 -1.046875q0.453125 0 0.8125 -0.25q0.359375 -0.25 0.625 -0.765625q0.265625 -0.53125 0.40625 -1.328125q0.140625 -0.8125 0.140625 -1.9375q0 -1.109375 -0.140625 -1.90625q-0.140625 -0.8125 -0.40625 -1.3125q-0.265625 -0.5 -0.625 -0.734375q-0.359375 -0.25 -0.8125 -0.25q-0.453125 0 -0.828125 0.25q-0.359375 0.234375 -0.625 0.734375q-0.265625 0.5 -0.40625 1.3125q-0.140625 0.796875 -0.140625 1.90625q0 2.25 0.546875 3.265625q0.5625 1.015625 1.453125 1.015625zm5.9676514 1.046875q-0.40625 0 -0.6875 -0.28125q-0.265625 -0.28125 -0.265625 -0.703125q0 -0.46875 0.265625 -0.75q0.28125 -0.28125 0.6875 -0.28125q0.390625 0 0.65625 0.28125q0.28125 0.28125 0.28125 0.75q0 0.421875 -0.28125 0.703125q-0.265625 0.28125 -0.65625 0.28125zm5.968384 0q-1.546875 0 -2.421875 -1.375q-0.859375 -1.375 -0.859375 -3.953125q0 -2.578125 0.859375 -3.921875q0.875 -1.34375 2.421875 -1.34375q1.53125 0 2.390625 1.34375q0.875 1.34375 0.875 3.921875q0 2.578125 -0.875 3.953125q-0.859375 1.375 -2.390625 1.375zm0 -1.046875q0.453125 0 0.8125 -0.25q0.359375 -0.25 0.625 -0.765625q0.265625 -0.53125 0.40625 -1.328125q0.140625 -0.8125 0.140625 -1.9375q0 -1.109375 -0.140625 -1.90625q-0.140625 -0.8125 -0.40625 -1.3125q-0.265625 -0.5 -0.625 -0.734375q-0.359375 -0.25 -0.8125 -0.25q-0.453125 0 -0.828125 0.25q-0.359375 0.234375 -0.625 0.734375q-0.265625 0.5 -0.40625 1.3125q-0.140625 0.796875 -0.140625 1.90625q0 2.25 0.546875 3.265625q0.5625 1.015625 1.453125 1.015625z" fill-rule="nonzero"/><path fill="#000000" fill-opacity="0.0" d="m400.83466 83.92388l46.834625 0l0 40.787407l-46.834625 0z" fill-rule="evenodd"/><path fill="#000000" d="m415.57358 110.17758l0 -1.09375l2.328125 0l0 -7.515625l-1.84375 0l0 -0.84375q0.703125 -0.125 1.21875 -0.3125q0.515625 -0.1875 0.9375 -0.4375l1.0 0l0 9.109375l2.125 0l0 1.09375l-5.765625 0zm8.686401 0.1875q-0.40625 0 -0.6875 -0.28125q-0.265625 -0.28125 -0.265625 -0.703125q0 -0.46875 0.265625 -0.75q0.28125 -0.28125 0.6875 -0.28125q0.390625 0 0.65625 0.28125q0.28125 0.28125 0.28125 0.75q0 0.421875 -0.28125 0.703125q-0.265625 0.28125 -0.65625 0.28125zm5.968384 0q-1.546875 0 -2.421875 -1.375q-0.859375 -1.375 -0.859375 -3.953125q0 -2.578125 0.859375 -3.921875q0.875 -1.34375 2.421875 -1.34375q1.53125 0 2.390625 1.34375q0.875 1.34375 0.875 3.921875q0 2.578125 -0.875 3.953125q-0.859375 1.375 -2.390625 1.375zm0 -1.046875q0.453125 0 0.8125 -0.25q0.359375 -0.25 0.625 -0.765625q0.265625 -0.53125 0.40625 -1.328125q0.140625 -0.8125 0.140625 -1.9375q0 -1.109375 -0.140625 -1.90625q-0.140625 -0.8125 -0.40625 -1.3125q-0.265625 -0.5 -0.625 -0.734375q-0.359375 -0.25 -0.8125 -0.25q-0.453125 0 -0.828125 0.25q-0.359375 0.234375 -0.625 0.734375q-0.265625 0.5 -0.40625 1.3125q-0.140625 0.796875 -0.140625 1.90625q0 2.25 0.546875 3.265625q0.5625 1.015625 1.453125 1.015625z" fill-rule="nonzero"/><path fill="#000000" fill-opacity="0.0" d="m400.83466 128.9685l46.834625 0l0 40.7874l-46.834625 0z" fill-rule="evenodd"/><path fill="#000000" d="m412.4762 151.7222l0 -1.015625l3.6875 0l0 1.015625l-3.6875 0zm5.585388 3.5l0 -1.09375l2.328125 0l0 -7.515625l-1.84375 0l0 -0.84375q0.703125 -0.125 1.21875 -0.3125q0.515625 -0.1875 0.9375 -0.4375l1.0 0l0 9.109375l2.125 0l0 1.09375l-5.765625 0zm8.686401 0.1875q-0.40625 0 -0.6875 -0.28125q-0.265625 -0.28125 -0.265625 -0.703125q0 -0.46875 0.265625 -0.75q0.28125 -0.28125 0.6875 -0.28125q0.390625 0 0.65625 0.28125q0.28125 0.28125 0.28125 0.75q0 0.421875 -0.28125 0.703125q-0.265625 0.28125 -0.65625 0.28125zm5.968384 0q-1.546875 0 -2.421875 -1.375q-0.859375 -1.375 -0.859375 -3.953125q0 -2.578125 0.859375 -3.921875q0.875 -1.34375 2.421875 -1.34375q1.53125 0 2.390625 1.34375q0.875 1.34375 0.875 3.921875q0 2.578125 -0.875 3.953125q-0.859375 1.375 -2.390625 1.375zm0 -1.046875q0.453125 0 0.8125 -0.25q0.359375 -0.25 0.625 -0.765625q0.265625 -0.53125 0.40625 -1.328125q0.140625 -0.8125 0.140625 -1.9375q0 -1.109375 -0.140625 -1.90625q-0.140625 -0.8125 -0.40625 -1.3125q-0.265625 -0.5 -0.625 -0.734375q-0.359375 -0.25 -0.8125 -0.25q-0.453125 0 -0.828125 0.25q-0.359375 0.234375 -0.625 0.734375q-0.265625 0.5 -0.40625 1.3125q-0.140625 0.796875 -0.140625 1.90625q0 2.25 0.546875 3.265625q0.5625 1.015625 1.453125 1.015625z" fill-rule="nonzero"/><path fill="#000000" fill-opacity="0.0" d="m364.7874 8.0l30.11023 0l0 20.346457l-30.11023 0z" fill-rule="evenodd"/><path fill="#000000" d="m377.70364 23.129478q-0.65625 0 -1.34375 -0.25q-0.6875 -0.25 -1.1875 -0.671875l0.875 -1.21875q0.453125 0.34375 0.859375 0.515625q0.421875 0.171875 0.84375 0.171875q0.453125 0 0.640625 -0.140625q0.203125 -0.15625 0.203125 -0.421875q0 -0.15625 -0.109375 -0.28125q-0.109375 -0.125 -0.3125 -0.234375q-0.1875 -0.109375 -0.4375 -0.1875q-0.234375 -0.09375 -0.484375 -0.203125q-0.3125 -0.109375 -0.625 -0.265625q-0.296875 -0.171875 -0.546875 -0.40625q-0.25 -0.234375 -0.421875 -0.546875q-0.15625 -0.3125 -0.15625 -0.71875q0 -0.453125 0.171875 -0.84375q0.1875 -0.390625 0.515625 -0.65625q0.34375 -0.265625 0.8125 -0.40625q0.46875 -0.15625 1.03125 -0.15625q0.765625 0 1.328125 0.265625q0.578125 0.25 1.015625 0.5625l-0.890625 1.171875q-0.359375 -0.265625 -0.703125 -0.40625q-0.34375 -0.140625 -0.6875 -0.140625q-0.75 0 -0.75 0.515625q0 0.15625 0.109375 0.28125q0.109375 0.109375 0.28125 0.203125q0.1875 0.09375 0.40625 0.1875q0.234375 0.078125 0.5 0.171875q0.3125 0.109375 0.625 0.265625q0.3125 0.15625 0.578125 0.390625q0.265625 0.21875 0.421875 0.546875q0.15625 0.328125 0.15625 0.78125q0 0.453125 -0.171875 0.84375q-0.171875 0.375 -0.53125 0.671875q-0.34375 0.28125 -0.84375 0.453125q-0.5 0.15625 -1.171875 0.15625zm4.4668274 -4.84375l-0.421875 -0.859375q0.59375 -0.296875 0.890625 -0.6875q0.296875 -0.40625 0.296875 -1.000001q-0.03125 0.015625 -0.109375 0.015625q-0.4375 0 -0.734375 -0.265625q-0.296875 -0.265625 -0.296875 -0.71875q0 -0.5 0.28125 -0.796875q0.296875 -0.296875 0.75 -0.296875q0.609375 0 0.921875 0.453125q0.328125 0.453125 0.328125 1.296875q0 0.95312595 -0.484375 1.671876q-0.46875 0.71875 -1.421875 1.1875z" fill-rule="nonzero"/></g></svg>