<?xml version="1.0" encoding="UTF-8" standalone="no"?>
<svg
   xmlns:dc="http://purl.org/dc/elements/1.1/"
   xmlns:cc="http://creativecommons.org/ns#"
   xmlns:rdf="http://www.w3.org/1999/02/22-rdf-syntax-ns#"
   xmlns:svg="http://www.w3.org/2000/svg"
   xmlns="http://www.w3.org/2000/svg"
   viewBox="0 0 339.92841 328.49799"
   height="328.49799"
   width="339.92841"
   xml:space="preserve"
   id="svg2"
   version="1.1"><metadata
     id="metadata8"><rdf:RDF><cc:Work
         rdf:about=""><dc:format>image/svg+xml</dc:format><dc:type
           rdf:resource="http://purl.org/dc/dcmitype/StillImage" /></cc:Work></rdf:RDF></metadata><defs
     id="defs6"><clipPath
       id="clipPath14"
       clipPathUnits="userSpaceOnUse"><path
         id="path12"
         d="M 0,0 H 612 V 792 H 0 Z" /></clipPath><clipPath
       id="clipPath24"
       clipPathUnits="userSpaceOnUse"><path
         id="path22"
         d="M 0,0 H 612 V 792 H 0 Z" /></clipPath><clipPath
       id="clipPath116"
       clipPathUnits="userSpaceOnUse"><path
         id="path114"
         d="m 59.14286,72 h 493.7143 V 720 H 59.14286 Z" /></clipPath><clipPath
       id="clipPath126"
       clipPathUnits="userSpaceOnUse"><path
         id="path124"
         d="M 0,0 H 612 V 792 H 0 Z" /></clipPath><clipPath
       id="clipPath136"
       clipPathUnits="userSpaceOnUse"><path
         id="path134"
         d="m 59.14286,72 h 493.7143 V 720 H 59.14286 Z" /></clipPath><clipPath
       id="clipPath146"
       clipPathUnits="userSpaceOnUse"><path
         id="path144"
         d="M 0,0 H 612 V 792 H 0 Z" /></clipPath><clipPath
       id="clipPath156"
       clipPathUnits="userSpaceOnUse"><path
         id="path154"
         d="m 59.14286,72 h 493.7143 V 720 H 59.14286 Z" /></clipPath><clipPath
       id="clipPath166"
       clipPathUnits="userSpaceOnUse"><path
         id="path164"
         d="M 0,0 H 612 V 792 H 0 Z" /></clipPath><clipPath
       id="clipPath176"
       clipPathUnits="userSpaceOnUse"><path
         id="path174"
         d="m 59.14286,72 h 493.7143 V 720 H 59.14286 Z" /></clipPath><clipPath
       id="clipPath186"
       clipPathUnits="userSpaceOnUse"><path
         id="path184"
         d="M 0,0 H 612 V 792 H 0 Z" /></clipPath><clipPath
       id="clipPath196"
       clipPathUnits="userSpaceOnUse"><path
         id="path194"
         d="m 59.14286,72 h 493.7143 V 720 H 59.14286 Z" /></clipPath><clipPath
       id="clipPath206"
       clipPathUnits="userSpaceOnUse"><path
         id="path204"
         d="M 0,0 H 612 V 792 H 0 Z" /></clipPath><clipPath
       id="clipPath216"
       clipPathUnits="userSpaceOnUse"><path
         id="path214"
         d="m 59.14286,72 h 493.7143 V 720 H 59.14286 Z" /></clipPath></defs><g
     clip-path="url(#clipPath14)"
     transform="matrix(1.3333333,0,0,-1.3333333,-213.644,881.0792)"
     id="g10"><g
       id="g16" /><g
       id="g18"><g
         clip-path="url(#clipPath24)"
         id="g20"><g
           transform="matrix(0.8456908,0,0,0.8456908,72,720)"
           id="g26"><text
             id="text30"
             style="font-variant:normal;font-weight:normal;font-size:19px;writing-mode:lr-tb;fill:#000000;fill-opacity:0;fill-rule:nonzero;stroke:none"
             transform="matrix(1,0,0,-1,242.9148,-89.6222)"><tspan
               id="tspan28"
               y="0"
               x="0">y</tspan></text>
</g><g
           transform="matrix(0.8456908,0,0,0.8456908,72,720)"
           id="g32"><text
             id="text36"
             style="font-variant:normal;font-weight:normal;font-size:22px;writing-mode:lr-tb;fill:#000000;fill-opacity:0;fill-rule:nonzero;stroke:none"
             transform="matrix(1,0,0,-1,291.3804,-134.1232)"><tspan
               id="tspan34"
               y="0"
               x="0">V</tspan></text>
</g><g
           transform="matrix(0.8456908,0,0,0.8456908,72,720)"
           id="g38"><text
             id="text42"
             style="font-variant:normal;font-weight:normal;font-size:19px;writing-mode:lr-tb;fill:#000000;fill-opacity:0;fill-rule:nonzero;stroke:none"
             transform="matrix(1,0,0,-1,222.498,-151.0675)"><tspan
               id="tspan40"
               y="0"
               x="0">Y</tspan></text>
</g><g
           transform="matrix(0.8456908,0,0,0.8456908,72,720)"
           id="g44"><text
             id="text48"
             style="font-variant:normal;font-weight:normal;font-size:19px;writing-mode:lr-tb;fill:#000000;fill-opacity:0;fill-rule:nonzero;stroke:none"
             transform="matrix(1,0,0,-1,272.2964,-156.505)"><tspan
               id="tspan46"
               y="0"
               x="0 9.6766996">za</tspan></text>
</g><g
           transform="matrix(0.8456908,0,0,0.8456908,72,720)"
           id="g50"><text
             id="text54"
             style="font-variant:normal;font-weight:normal;font-size:17px;writing-mode:lr-tb;fill:#000000;fill-opacity:0;fill-rule:nonzero;stroke:none"
             transform="matrix(1,0,0,-1,370.4233,-151.3585)"><tspan
               id="tspan52"
               y="0"
               x="0">y</tspan></text>
</g><g
           transform="matrix(0.8456908,0,0,0.8456908,72,720)"
           id="g56"><text
             id="text60"
             style="font-variant:normal;font-weight:normal;font-size:13px;writing-mode:lr-tb;fill:#000000;fill-opacity:0;fill-rule:nonzero;stroke:none"
             transform="matrix(1,0,0,-1,198.4609,-188.3077)"><tspan
               id="tspan58"
               y="0"
               x="0">X</tspan></text>
</g><g
           transform="matrix(0.8456908,0,0,0.8456908,72,720)"
           id="g62"><text
             id="text66"
             style="font-variant:normal;font-weight:normal;font-size:13px;writing-mode:lr-tb;fill:#000000;fill-opacity:0;fill-rule:nonzero;stroke:none"
             transform="matrix(1,0,0,-1,225.9263,-181.3742)"><tspan
               id="tspan64"
               y="0"
               x="0">I</tspan></text>
</g><g
           transform="matrix(0.8456908,0,0,0.8456908,72,720)"
           id="g68"><text
             id="text72"
             style="font-variant:normal;font-weight:normal;font-size:17px;writing-mode:lr-tb;fill:#000000;fill-opacity:0;fill-rule:nonzero;stroke:none"
             transform="matrix(1,0,0,-1,290.2402,-182.757)"><tspan
               id="tspan70"
               y="0"
               x="0">l</tspan></text>
</g><g
           transform="matrix(0.8456908,0,0,0.8456908,72,720)"
           id="g74"><text
             id="text78"
             style="font-variant:normal;font-weight:normal;font-size:28px;writing-mode:lr-tb;fill:#000000;fill-opacity:0;fill-rule:nonzero;stroke:none"
             transform="matrix(1,0,0,-1,308.688,-195.3048)"><tspan
               id="tspan76"
               y="0"
               x="0 6.0984001">ly</tspan></text>
</g><g
           transform="matrix(0.8456908,0,0,0.8456908,72,720)"
           id="g80"><text
             id="text84"
             style="font-variant:normal;font-weight:normal;font-size:14px;writing-mode:lr-tb;fill:#000000;fill-opacity:0;fill-rule:nonzero;stroke:none"
             transform="matrix(1,0,0,-1,289.021,-198.631)"><tspan
               id="tspan82"
               y="0"
               x="0">I</tspan></text>
</g><g
           transform="matrix(0.8456908,0,0,0.8456908,72,720)"
           id="g86"><text
             id="text90"
             style="font-variant:normal;font-weight:normal;font-size:19px;writing-mode:lr-tb;fill:#000000;fill-opacity:0;fill-rule:nonzero;stroke:none"
             transform="matrix(1,0,0,-1,285.7783,-223.3488)"><tspan
               id="tspan88"
               y="0"
               x="0">1</tspan></text>
</g><g
           transform="matrix(0.8456908,0,0,0.8456908,72,720)"
           id="g92"><text
             id="text96"
             style="font-variant:normal;font-weight:normal;font-size:15px;writing-mode:lr-tb;fill:#000000;fill-opacity:0;fill-rule:nonzero;stroke:none"
             transform="matrix(1,0,0,-1,394.2803,-220.8136)"><tspan
               id="tspan94"
               y="0"
               x="0">x</tspan></text>
</g><g
           transform="matrix(0.8456908,0,0,0.8456908,72,720)"
           id="g98"><text
             id="text102"
             style="font-variant:normal;font-weight:normal;font-size:16px;writing-mode:lr-tb;fill:#000000;fill-opacity:0;fill-rule:nonzero;stroke:none"
             transform="matrix(1,0,0,-1,285.8931,-239.8478)"><tspan
               id="tspan100"
               y="0"
               x="0">x</tspan></text>
</g><g
           transform="matrix(0.8456908,0,0,0.8456908,72,720)"
           id="g104"><text
             id="text108"
             style="font-variant:normal;font-weight:normal;font-size:15px;writing-mode:lr-tb;fill:#000000;fill-opacity:0;fill-rule:nonzero;stroke:none"
             transform="matrix(1,0,0,-1,301.4678,-364.1808)"><tspan
               id="tspan106"
               y="0"
               x="0">x</tspan></text>
</g></g></g><g
       id="g110"><g
         clip-path="url(#clipPath116)"
         id="g112"><path
           id="path118"
           style="fill:#000000;fill-opacity:1;fill-rule:nonzero;stroke:none"
           d="m 162.4229,539.8883 c -0.5325,0 -0.9642,0.4317 -0.9642,0.9643 0,0.5325 0.4317,0.9643 0.9642,0.9643 h 219.448 c 0.5326,0 0.9643,-0.4318 0.9643,-0.9643 0,-0.5326 -0.4317,-0.9643 -0.9643,-0.9643 z" /></g></g><g
       id="g120"><g
         clip-path="url(#clipPath126)"
         id="g122"><path
           id="path128"
           style="fill:#000000;fill-opacity:1;fill-rule:nonzero;stroke:none"
           d="m 381.8709,546.3628 12.6735,-5.5102 -12.6735,-5.5102 z" /></g></g><g
       id="g130"><g
         clip-path="url(#clipPath136)"
         id="g132"><path
           id="path138"
           style="fill:#000000;fill-opacity:1;fill-rule:nonzero;stroke:none"
           d="m 278.9658,437.2936 c 0,-0.5325 -0.4317,-0.9643 -0.9643,-0.9643 -0.5325,0 -0.9643,0.4318 -0.9643,0.9643 v 195.4088 c 0,0.5325 0.4318,0.9643 0.9643,0.9643 0.5326,0 0.9643,-0.4318 0.9643,-0.9643 z" /></g></g><g
       id="g140"><g
         clip-path="url(#clipPath146)"
         id="g142"><path
           id="path148"
           style="fill:#000000;fill-opacity:1;fill-rule:nonzero;stroke:none"
           d="m 272.4913,632.7024 5.5102,12.6734 5.5102,-12.6734 z" /></g></g><g
       id="g150"><g
         clip-path="url(#clipPath156)"
         id="g152"><path
           id="path158"
           style="fill:#1749b3;fill-opacity:1;fill-rule:nonzero;stroke:none"
           d="m 223.8344,648.736 c -0.236,0.4774 -0.0403,1.0557 0.4371,1.2917 0.4774,0.2361 1.0557,0.0404 1.2918,-0.437 l 101.952,-206.2225 c 0.236,-0.4774 0.0403,-1.0558 -0.4371,-1.2918 -0.4774,-0.236 -1.0557,-0.0403 -1.2918,0.4371 z" /></g></g><g
       id="g160"><g
         clip-path="url(#clipPath166)"
         id="g162"><path
           id="path168"
           style="fill:#1749b3;fill-opacity:1;fill-rule:nonzero;stroke:none"
           d="m 331.5916,445.3803 0.6771,-13.8029 -10.5561,8.9189 z" /></g></g><g
       id="g170"><g
         clip-path="url(#clipPath176)"
         id="g172"><path
           id="path178"
           style="fill:#1749b3;fill-opacity:1;fill-rule:nonzero;stroke:none"
           d="m 171.5561,481.7233 c -0.4672,-0.2556 -1.0532,-0.0842 -1.3089,0.383 -0.2556,0.4672 -0.0841,1.0532 0.3831,1.3088 l 203.6613,111.4463 c 0.4672,0.2557 1.0532,0.0842 1.3088,-0.383 0.2557,-0.4672 0.0842,-1.0532 -0.383,-1.3088 z" /></g></g><g
       id="g180"><g
         clip-path="url(#clipPath186)"
         id="g182"><path
           id="path188"
           style="fill:#1749b3;fill-opacity:1;fill-rule:nonzero;stroke:none"
           d="m 372.1115,598.8504 13.7629,1.25 -8.4727,-10.9176 z" /></g></g><g
       id="g190"><g
         clip-path="url(#clipPath196)"
         id="g192"><path
           id="path198"
           style="fill:#ed3624;fill-opacity:1;fill-rule:nonzero;stroke:none"
           d="m 278.7997,540.3115 c -0.2989,-0.4408 -0.8985,-0.5559 -1.3393,-0.2571 -0.4408,0.2989 -0.5559,0.8985 -0.257,1.3393 l 35.9228,52.9862 c 0.2988,0.4408 0.8984,0.5559 1.3392,0.2571 0.4408,-0.2989 0.5559,-0.8985 0.2571,-1.3393 z" /></g></g><g
       id="g200"><g
         clip-path="url(#clipPath206)"
         id="g202"><path
           id="path208"
           style="fill:#ed3624;fill-opacity:1;fill-rule:nonzero;stroke:none"
           d="m 309.3642,596.9319 11.6726,7.3979 -2.5509,-13.582 z" /></g></g><g
       id="g210"><g
         clip-path="url(#clipPath216)"
         id="g212"><path
           id="path218"
           style="fill:#000000;fill-opacity:1;fill-rule:nonzero;stroke:none"
           d="m 404.0307,543.4023 c -0.0367,0.0311 0.475,-0.289 1.313,-0.889 v 0 c 0.3832,-0.2546 0.9001,-0.1504 1.1547,0.2327 v 0 c 0.2547,0.3831 0.1505,0.9001 -0.2326,1.1547 v 0 c -0.3832,0.2546 -0.9001,0.1504 -1.1547,-0.2327 v 0 c -0.2546,-0.3831 -0.1505,-0.9001 0.2326,-1.1547 0.8436,-0.6024 1.8878,-1.4274 2.9716,-2.3355 v 0 c 0.4054,-0.3228 0.9958,-0.2558 1.3187,0.1496 v 0 c 0.3228,0.4055 0.2558,0.9958 -0.1496,1.3187 v 0 c -0.4055,0.3228 -0.9959,0.2559 -1.3187,-0.1496 v 0 c -0.3228,-0.4054 -0.2559,-0.9958 0.1496,-1.3187 1.0411,-0.8509 2.1012,-1.7222 2.9479,-2.3476 v 0 c 0.4452,-0.3174 1.0634,-0.2138 1.3808,0.2314 v 0 c 0.3174,0.4451 0.2138,1.0633 -0.2314,1.3807 v 0 c -0.4452,0.3174 -1.0634,0.2139 -1.3808,-0.2313 v 0 c -0.3174,-0.4452 -0.2138,-1.0634 0.2314,-1.3808 0.4566,-0.3244 0.8799,-0.5742 1.1519,-0.7399 0.1738,-0.1031 0.3359,-0.1972 0.4515,-0.2564 0.0838,3e-4 0.2449,-0.025 0.4831,-0.0315 v 0 c 0.4764,-0.034 0.8901,0.3246 0.9241,0.8009 v 0 c 0.034,0.4763 -0.3245,0.89 -0.8009,0.9241 v 0 c -0.4763,0.034 -0.89,-0.3246 -0.924,-0.8009 v 0 c -0.0341,-0.4763 0.3245,-0.8901 0.8008,-0.9241 0.2881,0.0462 0.8908,0.9488 0.7987,1.2082 v 0 c -0.1864,0.4041 -0.6652,0.5807 -1.0693,0.3943 v 0 c -0.4042,-0.1864 -0.5807,-0.6652 -0.3943,-1.0694 v 0 c 0.1864,-0.4041 0.6651,-0.5807 1.0693,-0.3943 v 0 c 0.4042,0.1864 0.5807,0.6652 0.3943,1.0694 -0.0793,0.1031 -0.1693,0.1876 -0.2156,0.2083 v 0 c -0.2858,0.2976 -0.7587,0.3072 -1.0564,0.0214 v 0 c -0.2976,-0.2858 -0.3072,-0.7588 -0.0214,-1.0564 v 0 c 0.2859,-0.2976 0.7588,-0.3072 1.0564,-0.0214 v 0 c 0.2976,0.2858 0.3072,0.7588 0.0214,1.0564 -0.1408,0.0312 -0.3466,0.1031 -0.6383,0.2354 v 0 c -0.2211,0.1762 -0.5433,0.1398 -0.7195,-0.0814 v 0 c -0.1762,-0.2211 -0.1398,-0.5433 0.0814,-0.7195 0.1839,-0.2468 0.2398,-0.3966 0.1979,-0.4687 -0.0205,-0.006 -0.0957,0.0597 -0.1695,0.1508 -0.0866,0.2475 0.5123,1.1448 0.7845,1.1921 0.2173,-0.005 0.3199,-0.004 0.3179,0.0417 -0.0565,0.0321 -0.1761,0.1069 -0.3418,0.2108 -0.288,0.1757 -0.6434,0.3834 -1.0328,0.6622 -0.8164,0.5604 -1.8633,1.3779 -2.9282,2.2038 -1.1487,0.8695 -2.2914,1.68 -3.2186,2.2546 -0.9329,0.5769 -1.7759,0.975 -2.3808,0.949 v 0 c -0.3997,-0.0402 -0.6911,-0.3969 -0.6509,-0.7966 v 0 c 0.0403,-0.3997 0.3969,-0.6911 0.7966,-0.6508" /><path
           id="path220"
           style="fill:#000000;fill-opacity:1;fill-rule:nonzero;stroke:none"
           d="m 412.8188,543.4395 c -1.5915,0.0616 -3.4133,-1.1126 -5.0495,-2.2938 v 0 c -0.3674,-0.2749 -0.4423,-0.7956 -0.1674,-1.1629 v 0 c 0.2749,-0.3674 0.7955,-0.4423 1.1629,-0.1674 v 0 c 0.3674,0.2749 0.4423,0.7956 0.1674,1.1629 v 0 c -0.2749,0.3674 -0.7956,0.4423 -1.1629,0.1674 -0.8915,-0.6453 -1.7837,-1.3217 -2.4773,-1.85 v 0 c -0.3821,-0.3033 -0.4459,-0.859 -0.1426,-1.241 v 0 c 0.3034,-0.3821 0.859,-0.4459 1.2411,-0.1426 v 0 c 0.3821,0.3033 0.4459,0.859 0.1426,1.2411 v 0 c -0.3034,0.382 -0.859,0.4459 -1.2411,0.1425 -0.544,-0.437 -1.0406,-0.8864 -1.2685,-1.2135 v 0 c -0.2636,-0.4032 -0.1504,-0.9436 0.2528,-1.2071 v 0 c 0.4031,-0.2635 0.9435,-0.1504 1.207,0.2528 v 0 c 0.2636,0.4031 0.1504,0.9435 -0.2528,1.2071 v 0 c -0.4031,0.2635 -0.9435,0.1503 -1.207,-0.2528 -0.0307,-0.0766 -0.0893,-0.2336 -0.1112,-0.3607 -0.0107,-0.1605 0.0922,-0.5897 0.2668,-0.7979 v 0 c 0.3091,-0.3017 0.8042,-0.2957 1.1059,0.0134 v 0 c 0.3017,0.3091 0.2957,0.8042 -0.0134,1.1059 v 0 c -0.3091,0.3017 -0.8042,0.2957 -1.1059,-0.0134 v 0 c -0.3017,-0.3091 -0.2957,-0.8042 0.0134,-1.1059 0.1968,-0.128 0.4978,-0.2042 0.6149,-0.1927 v 0 c 0.407,0.006 0.732,0.3408 0.726,0.7478 v 0 c -0.006,0.407 -0.3408,0.7321 -0.7479,0.7261 v 0 c -0.407,-0.006 -0.732,-0.3409 -0.726,-0.7479 v 0 c 0.006,-0.407 0.3408,-0.7321 0.7479,-0.726 0.0903,0.019 0.2079,0.0535 0.2787,0.0873 v 0 c 0.3693,0.0987 0.5886,0.4781 0.4899,0.8473 v 0 c -0.0987,0.3692 -0.478,0.5886 -0.8472,0.4899 v 0 c -0.3693,-0.0987 -0.5886,-0.478 -0.4899,-0.8473 v 0 c 0.0987,-0.3692 0.478,-0.5885 0.8472,-0.4899 0.2311,0.1274 0.5983,0.3545 1.1197,0.6961 v 0 c 0.2503,0.1316 0.3466,0.4411 0.2151,0.6915 v 0 c -0.1315,0.2503 -0.4411,0.3466 -0.6914,0.215 -0.5509,-0.2218 -0.8611,-0.2935 -1.0009,-0.2655 -0.0217,0.009 0.0223,0.0312 0.0569,0.0495 0.0613,0.0106 0.3244,-0.0549 0.4995,-0.1619 0.1531,-0.1871 0.2508,-0.5848 0.2495,-0.7059 -0.0118,-0.0846 -0.0455,-0.1913 -0.0381,-0.2096 0.0286,0.0653 0.3938,0.382 0.9075,0.7847 0.6667,0.5517 1.5188,1.2412 2.3743,1.9033 1.568,1.2167 2.9724,2.2498 3.9756,2.1714 v 0 c 0.4011,-0.0217 0.7439,0.286 0.7655,0.6871 v 0 c 0.0217,0.4012 -0.286,0.7439 -0.6871,0.7656 z" /><path
           id="path222"
           style="fill:#000000;fill-opacity:1;fill-rule:nonzero;stroke:none"
           d="m 278.8696,659.3493 c -0.0356,0.1278 -0.0984,0.2875 -0.1626,0.3975 v 0 c -0.2044,0.3405 -0.646,0.4509 -0.9865,0.2465 v 0 c -0.3405,-0.2043 -0.4509,-0.646 -0.2465,-0.9865 v 0 c 0.2043,-0.3405 0.646,-0.4508 0.9865,-0.2465 v 0 c 0.3405,0.2044 0.4508,0.646 0.2465,0.9865 -0.0436,0.0658 -0.1556,0.1913 -0.2477,0.2617 v 0 c -0.3251,0.2241 -0.7702,0.1422 -0.9942,-0.1829 v 0 c -0.2241,-0.325 -0.1422,-0.7702 0.1829,-0.9942 v 0 c 0.325,-0.224 0.7702,-0.1422 0.9942,0.1829 v 0 c 0.224,0.3251 0.1421,0.7702 -0.1829,0.9942 -0.1247,0.0702 -0.4345,0.1344 -0.6014,0.1121 v 0 c -0.3824,-0.0881 -0.621,-0.4696 -0.5329,-0.852 v 0 c 0.0881,-0.3825 0.4696,-0.621 0.8521,-0.5329 v 0 c 0.3824,0.0881 0.621,0.4696 0.5329,0.852 v 0 c -0.0882,0.3825 -0.4696,0.6211 -0.8521,0.5329 -0.2673,-0.1162 -0.4855,-0.3521 -0.5408,-0.4639 -0.0409,-0.0967 -0.0806,-0.2291 -0.1011,-0.3297 -0.0865,-0.3729 -0.146,-1.1144 -0.0177,-1.8136 0.2078,-0.9302 0.8571,-1.8104 1.5874,-2.3773 0.737,-0.5554 1.7114,-0.9515 2.5632,-1.0431 0.553,-0.0509 1.2265,-0.0218 1.7559,0.1678 0.8742,0.4027 1.3604,1.4204 1.6313,2.2243 0.1019,0.3018 0.1844,0.6067 0.2531,0.8873 0.0981,0.3691 0.1763,0.7026 0.2445,0.8776 -0.007,-0.009 -0.133,-0.1793 -0.2601,-0.275 -0.0996,-0.0361 -0.3599,-0.055 -0.4808,-0.031 -0.1024,0.0458 -0.2625,0.169 -0.3062,0.2165 0.007,0.1139 -0.0265,-0.2339 0.0213,-0.7062 0.1443,-1.4355 0.4245,-3.2686 0.2367,-4.9777 -0.0809,-0.8759 -0.3677,-1.6393 -0.8363,-2.3105 -0.4539,-0.6734 -0.9432,-1.0882 -1.5618,-1.2623 v 0 c -0.4099,-0.1273 -0.6391,-0.5629 -0.5118,-0.9729 v 0 c 0.1274,-0.41 0.5629,-0.6391 0.9729,-0.5118 v 0 c 0.41,0.1273 0.6391,0.5629 0.5118,0.9729 v 0 c -0.1273,0.4099 -0.5629,0.6391 -0.9729,0.5118 -0.6718,-0.2736 -1.4347,-0.2334 -1.999,0.0688 v 0 c -0.3071,0.1801 -0.7021,0.0772 -0.8822,-0.2299 v 0 c -0.1802,-0.3071 -0.0773,-0.7021 0.2298,-0.8822 v 0 c 0.3071,-0.1802 0.7021,-0.0773 0.8823,0.2298 v 0 c 0.1801,0.3071 0.0772,0.7021 -0.2299,0.8823 -0.2869,0.136 -0.4244,0.2387 -0.5061,0.4521 v 0 c -0.1043,0.3019 -0.4336,0.4621 -0.7355,0.3577 v 0 c -0.3019,-0.1043 -0.4621,-0.4336 -0.3577,-0.7355 v 0 c 0.1043,-0.3019 0.4336,-0.4621 0.7355,-0.3577 v 0 c 0.3019,0.1043 0.4621,0.4336 0.3577,0.7355 -0.1118,0.2174 -0.1254,0.3974 0.0562,0.7765 v 0 c 0.1303,0.251 0.0324,0.5601 -0.2185,0.6904 v 0 c -0.251,0.1303 -0.5601,0.0324 -0.6904,-0.2186 -0.2935,-0.5359 -0.3637,-1.1634 -0.2405,-1.6261 0.1533,-0.4667 0.5424,-0.9168 0.9468,-1.1864 0.8186,-0.509 2.0977,-0.6917 3.1126,-0.4414 0.914,0.3018 1.7967,1.0304 2.3802,1.8693 0.5689,0.8414 0.9848,1.9593 1.0979,3.0351 0.1718,1.9106 -0.1439,3.8974 -0.3058,5.2901 -0.0415,0.3521 -0.0316,0.917 -0.2948,1.4073 -0.0787,0.0962 -0.2782,0.2506 -0.422,0.3105 -0.1624,0.038 -0.4661,0.0159 -0.6069,-0.0395 -0.2137,-0.1363 -0.4218,-0.4143 -0.4855,-0.5975 -0.0773,-0.2711 -0.1468,-0.6463 -0.2226,-0.9989 -0.0628,-0.2653 -0.1271,-0.5123 -0.214,-0.7738 -0.249,-0.7463 -0.456,-1.3211 -0.8095,-1.3779 -0.2936,-0.1184 -0.6755,-0.1204 -1.1371,-0.0695 -0.639,0.0581 -1.2718,0.3201 -1.8472,0.7735 -0.5819,0.4418 -0.95,0.9212 -1.0534,1.5439 -0.1126,0.5025 -0.072,0.981 -0.0177,1.2279 0.0131,0.0473 0.0121,0.0368 0.0135,0.0281 -0.0132,-0.0244 -0.1857,-0.2068 -0.404,-0.3116 -0.1447,-0.0172 -0.4305,0.0418 -0.5293,0.0943 -0.0691,0.0546 -0.1565,0.1517 -0.1753,0.1763 -0.015,0.0279 -0.0284,0.0547 -0.0161,-0.009 v 0 c 0.0972,-0.3898 0.492,-0.627 0.8818,-0.5298 v 0 c 0.3897,0.0972 0.627,0.492 0.5298,0.8818 z" /><path
           id="path224"
           style="fill:#000000;fill-opacity:1;fill-rule:nonzero;stroke:none"
           d="m 320.1136,602.4909 c -0.0176,0.0384 -0.1465,-0.4691 -0.2855,-1.1788 v 0 c -0.0689,-0.4435 0.2349,-0.8589 0.6784,-0.9277 v 0 c 0.4435,-0.0688 0.8588,0.2349 0.9277,0.6784 v 0 c 0.0688,0.4435 -0.235,0.8589 -0.6785,0.9277 v 0 c -0.4435,0.0688 -0.8588,-0.2349 -0.9276,-0.6784 -0.0906,-0.4419 -0.1861,-0.973 -0.2598,-1.5112 v 0 c -0.0463,-0.4827 0.3075,-0.9115 0.7902,-0.9578 v 0 c 0.4828,-0.0463 0.9116,0.3075 0.9579,0.7902 v 0 c 0.0463,0.4827 -0.3075,0.9115 -0.7902,0.9578 v 0 c -0.4828,0.0463 -0.9116,-0.3075 -0.9579,-0.7902 -0.006,-0.7067 0.0227,-1.4785 0.1422,-2.1209 v 0 c 0.0359,-0.3821 0.3749,-0.6628 0.757,-0.6269 v 0 c 0.3822,0.0359 0.6629,0.3748 0.627,0.757 v 0 c -0.0359,0.3822 -0.3749,0.6629 -0.757,0.627 v 0 c -0.3822,-0.036 -0.6629,-0.3749 -0.627,-0.7571 0.124,-0.6414 0.3929,-1.2971 0.83,-1.6404 v 0 c 0.2124,-0.1867 0.536,-0.1659 0.7227,0.0465 v 0 c 0.1867,0.2123 0.1659,0.5359 -0.0465,0.7226 -0.1206,0.147 -0.1349,0.4586 -0.1222,1.0014 0.008,0.5419 0.0978,1.1713 0.2219,1.8232 0.0265,0.5068 0.0724,0.9953 0.1178,1.4295 0.0784,0.6919 0.153,1.2185 0.1341,1.4389 v 0 c -0.003,0.4017 -0.331,0.7249 -0.7327,0.722 v 0 c -0.4017,-0.003 -0.725,-0.331 -0.722,-0.7328" /><path
           id="path226"
           style="fill:#000000;fill-opacity:1;fill-rule:nonzero;stroke:none"
           d="m 319.8427,591.8511 c -0.0503,-1.0484 -0.1363,-2.1681 -0.2631,-3.3348 v 0 c -0.0397,-0.432 0.2783,-0.8144 0.7103,-0.8541 v 0 c 0.432,-0.0398 0.8144,0.2783 0.8541,0.7103 v 0 c 0.0398,0.432 -0.2782,0.8144 -0.7103,0.8541 v 0 c -0.432,0.0397 -0.8144,-0.2783 -0.8541,-0.7103 -0.0651,-0.6814 -0.1431,-1.3674 -0.2363,-2.0635 v 0 c -0.0565,-0.4344 0.2498,-0.8323 0.6842,-0.8888 v 0 c 0.4343,-0.0565 0.8322,0.2498 0.8888,0.6841 v 0 c 0.0565,0.4344 -0.2498,0.8323 -0.6842,0.8888 v 0 c -0.4343,0.0565 -0.8323,-0.2498 -0.8888,-0.6841 0.0151,-0.6099 0.0203,-1.2179 0.0132,-1.8299 v 0 c -0.0465,-0.279 0.142,-0.5428 0.4209,-0.5893 v 0 c 0.279,-0.0465 0.5428,0.142 0.5893,0.4209 0.1937,0.5925 0.3773,1.1962 0.5495,1.7936 0.0901,0.7123 0.1664,1.4284 0.2278,2.1244 0.0903,1.1944 0.1404,2.3629 0.1528,3.4356 v 0 c 0.0119,0.4015 -0.304,0.7367 -0.7055,0.7486 v 0 c -0.4016,0.0118 -0.7367,-0.3041 -0.7486,-0.7056" /><path
           id="path228"
           style="fill:#000000;fill-opacity:1;fill-rule:nonzero;stroke:none"
           d="m 318.9455,578.4401 c 0.0947,-0.7029 -0.2534,-1.9065 -0.6309,-3.3241 v 0 c -0.1069,-0.4322 0.1569,-0.8692 0.5892,-0.9761 v 0 c 0.4323,-0.1069 0.8693,0.1569 0.9761,0.5892 v 0 c 0.1069,0.4323 -0.1569,0.8693 -0.5892,0.9761 v 0 c -0.4322,0.1069 -0.8693,-0.1569 -0.9761,-0.5892 -0.1548,-0.5013 -0.3142,-1.03 -0.4536,-1.5556 v 0 c -0.1001,-0.4847 0.2116,-0.9588 0.6963,-1.059 v 0 c 0.4847,-0.1002 0.9588,0.2116 1.0589,0.6963 v 0 c 0.1002,0.4847 -0.2115,0.9588 -0.6962,1.0589 v 0 c -0.4847,0.1002 -0.9588,-0.2115 -1.059,-0.6962 -0.1044,-0.4227 -0.2,-0.8679 -0.2696,-1.292 v 0 c -0.0641,-0.5188 0.3046,-0.9913 0.8234,-1.0553 v 0 c 0.5188,-0.0641 0.9913,0.3046 1.0553,0.8234 v 0 c 0.0641,0.5188 -0.3046,0.9913 -0.8234,1.0553 v 0 c -0.5188,0.0641 -0.9913,-0.3046 -1.0553,-0.8234 0.0148,-1.0779 0.1938,-2.1969 0.7019,-3.0251 v 0 c 0.1141,-0.2587 0.4164,-0.3759 0.6751,-0.2618 v 0 c 0.2588,0.1142 0.3759,0.4165 0.2618,0.6752 -0.159,0.6836 -0.0228,1.4494 0.2399,2.3798 0.0296,0.3792 0.0797,0.7571 0.1461,1.1611 0.0743,0.508 0.1678,1.0187 0.2637,1.5315 0.3245,1.4221 0.6603,2.8598 0.5061,3.9149 v 0 c -0.0563,0.3978 -0.4244,0.6746 -0.8222,0.6183 v 0 c -0.3978,-0.0563 -0.6746,-0.4244 -0.6183,-0.8222 z" /><path
           id="path230"
           style="fill:#000000;fill-opacity:1;fill-rule:nonzero;stroke:none"
           d="m 317.605,561.9867 c 0.0144,-0.8864 -0.4388,-1.923 -0.723,-3.2068 v 0 c -0.0865,-0.4192 0.1832,-0.8291 0.6024,-0.9156 v 0 c 0.4192,-0.0865 0.8291,0.1832 0.9156,0.6024 v 0 c 0.0865,0.4192 -0.1832,0.8291 -0.6024,0.9156 v 0 c -0.4192,0.0865 -0.8292,-0.1832 -0.9156,-0.6024 -0.0827,-0.84 -0.0792,-1.8086 0.2032,-2.7649 v 0 c 0.0576,-0.2769 0.3288,-0.4546 0.6056,-0.397 v 0 c 0.2769,0.0577 0.4546,0.3288 0.397,0.6057 -0.0879,0.8223 0.0713,1.5144 0.3122,2.243 0.2191,1.1561 0.6759,2.3364 0.6596,3.5412 v 0 c -0.006,0.4017 -0.3362,0.7226 -0.7379,0.7167 v 0 c -0.4017,-0.006 -0.7226,-0.3363 -0.7167,-0.7379 z" /><path
           id="path232"
           style="fill:#000000;fill-opacity:1;fill-rule:nonzero;stroke:none"
           d="m 316.7009,546.2368 c 0.0364,-0.4775 -0.0537,-0.802 -0.1081,-1.5691 v 0 c -0.037,-0.3533 0.2193,-0.6697 0.5725,-0.7067 v 0 c 0.3532,-0.0371 0.6696,0.2192 0.7067,0.5724 v 0 c 0.0371,0.3533 -0.2192,0.6697 -0.5725,0.7067 v 0 c -0.3532,0.0371 -0.6696,-0.2192 -0.7067,-0.5724 -0.1923,-1.2531 -0.1887,-3.3095 -0.3054,-5.0242 v 0 c -0.0143,-0.4596 0.3467,-0.8436 0.8063,-0.8579 v 0 c 0.4595,-0.0142 0.8436,0.3468 0.8578,0.8064 v 0 c 0.0142,0.4595 -0.3468,0.8436 -0.8063,0.8578 v 0 c -0.4595,0.0142 -0.8436,-0.3468 -0.8578,-0.8063 -0.0527,-1.1574 -0.1199,-2.1744 -0.166,-2.9803 v 0 c -0.0177,-0.4873 0.363,-0.8967 0.8504,-0.9144 v 0 c 0.4873,-0.0177 0.8967,0.363 0.9144,0.8503 v 0 c 0.0177,0.4874 -0.363,0.8968 -0.8503,0.9145 v 0 c -0.4874,0.0177 -0.8968,-0.363 -0.9145,-0.8504 0.0618,-0.6955 0.1395,-1.2583 0.258,-1.6115 v 0 c 0.0319,-0.3421 0.3351,-0.5936 0.6773,-0.5617 v 0 c 0.3421,0.0319 0.5935,0.3351 0.5616,0.6772 0.0603,0.2716 0.1563,0.7557 0.2679,1.4319 0.012,0.7944 0.0458,1.8198 0.0653,2.9929 -0.009,1.7714 -0.1388,3.7969 -0.0795,4.9414 0.095,0.6564 0.2521,1.0447 0.2837,1.7096 v 0 c -0.002,0.4017 -0.3288,0.726 -0.7305,0.7243 v 0 c -0.4017,-0.002 -0.726,-0.3288 -0.7243,-0.7305 z" /><path
           id="path234"
           style="fill:#000000;fill-opacity:1;fill-rule:nonzero;stroke:none"
           d="m 314.2883,528.5252 c 0.1191,-0.2099 0.2746,-0.5005 0.4724,-0.8628 v 0 c 0.2723,-0.3905 0.8096,-0.4863 1.2001,-0.2141 v 0 c 0.3906,0.2723 0.4864,0.8097 0.2142,1.2002 v 0 c -0.2723,0.3905 -0.8097,0.4864 -1.2002,0.2141 v 0 c -0.3905,-0.2723 -0.4864,-0.8096 -0.2141,-1.2002 0.2698,-0.4379 0.5875,-0.964 0.9333,-1.5149 v 0 c 0.2985,-0.4312 0.89,-0.5387 1.3212,-0.2403 v 0 c 0.4311,0.2985 0.5387,0.89 0.2403,1.3212 v 0 c -0.2985,0.4312 -0.89,0.5388 -1.3212,0.2403 v 0 c -0.4312,-0.2985 -0.5388,-0.89 -0.2403,-1.3212 0.3558,-0.5441 0.7485,-1.1246 1.1435,-1.6563 v 0 c 0.3414,-0.4349 0.9707,-0.5109 1.4057,-0.1695 v 0 c 0.435,0.3413 0.5109,0.9707 0.1695,1.4057 v 0 c -0.3413,0.4349 -0.9706,0.5109 -1.4056,0.1695 v 0 c -0.435,-0.3413 -0.5109,-0.9707 -0.1696,-1.4057 0.4134,-0.5192 0.868,-1.0328 1.2988,-1.4221 v 0 c 0.4032,-0.3676 1.0281,-0.3387 1.3957,0.0646 v 0 c 0.3676,0.4032 0.3387,1.0281 -0.0646,1.3957 v 0 c -0.4032,0.3676 -1.0281,0.3387 -1.3957,-0.0646 v 0 c -0.3676,-0.4032 -0.3387,-1.0281 0.0646,-1.3957 0.4875,-0.3338 1.081,-0.6191 1.5969,-0.6653 v 0 c 0.4054,-0.0853 0.8031,0.1741 0.8884,0.5794 v 0 c 0.0853,0.4054 -0.1741,0.8031 -0.5794,0.8884 v 0 c -0.4054,0.0853 -0.8031,-0.1741 -0.8884,-0.5795 v 0 c -0.0853,-0.4053 0.1741,-0.803 0.5794,-0.8883 0.521,-0.006 1.1578,0.3037 1.4461,0.7989 v 0 c 0.1667,0.2285 0.1165,0.5488 -0.1119,0.7154 v 0 c -0.2285,0.1667 -0.5488,0.1165 -0.7155,-0.1119 -0.2015,-0.1765 -0.1631,-0.0689 -0.3097,0.0654 -0.1517,0.0943 -0.2951,0.2923 -0.5748,0.6578 -0.3365,0.3101 -0.6794,0.712 -1.0546,1.1979 -0.3938,0.4734 -0.781,0.9876 -1.1573,1.5011 -0.3863,0.5067 -0.7529,1.0011 -1.0805,1.4201 -0.2802,0.3232 -0.547,0.6133 -0.7746,0.8146 v 0 c -0.259,0.3071 -0.7179,0.3461 -1.025,0.0871 v 0 c -0.3071,-0.259 -0.3461,-0.7179 -0.0871,-1.025" /><path
           id="path236"
           style="fill:#000000;fill-opacity:1;fill-rule:nonzero;stroke:none"
           d="m 320.2323,528.0367 c -0.7166,-0.0977 -2.5208,-1.3793 -3.9841,-2.521 v 0 c -0.3722,-0.3064 -0.4255,-0.8565 -0.1191,-1.2287 v 0 c 0.3064,-0.3722 0.8566,-0.4255 1.2288,-0.1191 v 0 c 0.3722,0.3064 0.4255,0.8566 0.119,1.2288 v 0 c -0.3064,0.3722 -0.8565,0.4255 -1.2287,0.119 -0.5437,-0.4206 -1.0417,-0.8262 -1.4767,-1.2102 v 0 c -0.3746,-0.3559 -0.3898,-0.9481 -0.0339,-1.3228 v 0 c 0.3559,-0.3746 0.9481,-0.3898 1.3228,-0.0339 v 0 c 0.3746,0.3559 0.3898,0.9481 0.0339,1.3227 v 0 c -0.3559,0.3747 -0.9481,0.3899 -1.3228,0.034 -0.5145,-0.515 -0.9718,-1.0402 -1.3324,-1.5474 v 0 c -0.2926,-0.3881 -0.2151,-0.9398 0.1729,-1.2324 v 0 c 0.3881,-0.2925 0.9398,-0.2151 1.2323,0.173 v 0 c 0.2926,0.388 0.2152,0.9397 -0.1729,1.2323 v 0 c -0.388,0.2925 -0.9398,0.2151 -1.2323,-0.1729 -0.1331,-0.2115 -0.2646,-0.4396 -0.3736,-0.6541 v 0 c -0.2382,-0.3834 -0.1205,-0.8873 0.2629,-1.1255 v 0 c 0.3835,-0.2382 0.8874,-0.1205 1.1256,0.2629 v 0 c 0.2382,0.3834 0.1205,0.8873 -0.263,1.1255 v 0 c -0.3834,0.2382 -0.8873,0.1205 -1.1255,-0.2629 0.0239,-0.1545 0.0481,-0.314 0.0807,-0.4647 v 0 c -0.1374,-0.2472 -0.0484,-0.559 0.1988,-0.6963 v 0 c 0.2472,-0.1374 0.5589,-0.0484 0.6963,0.1988 0.1379,0.0388 0.2727,0.0672 0.4127,0.0996 0.1232,0.1592 0.2457,0.3005 0.3903,0.4572 0.3336,0.4136 0.7174,0.8028 1.216,1.2501 0.3755,0.3859 0.7981,0.781 1.2976,1.2192 1.3683,1.1898 2.9844,2.4577 2.9919,2.4187 v 0 c 0.4004,0.0324 0.6987,0.3833 0.6663,0.7838 v 0 c -0.0325,0.4004 -0.3834,0.6987 -0.7838,0.6663" /><path
           id="path238"
           style="fill:#000000;fill-opacity:1;fill-rule:nonzero;stroke:none"
           d="m 276.4008,602.9108 c 0.3574,-1.0492 0.5336,-1.0943 0.5797,-1.0991 v 0 c 0.3977,-0.046 0.7574,0.2389 0.8035,0.6366 v 0 c 0.046,0.3976 -0.239,0.7573 -0.6366,0.8034 v 0 c -0.3976,0.0461 -0.7573,-0.2389 -0.8034,-0.6365 v 0 c -0.0461,-0.3977 0.2389,-0.7574 0.6365,-0.8035 0.0382,-0.003 0.0904,-0.007 0.1442,-0.0102 v 0 c 0.3978,-0.0294 0.7441,0.2692 0.7735,0.667 v 0 c 0.0294,0.3978 -0.2693,0.7441 -0.6671,0.7734 v 0 c -0.3977,0.0294 -0.744,-0.2692 -0.7734,-0.667 v 0 c -0.0294,-0.3978 0.2692,-0.744 0.667,-0.7734 0.106,-0.006 0.2578,-0.0132 0.4355,-0.0201 v 0 c 0.3956,-0.0192 0.7318,0.2859 0.751,0.6815 v 0 c 0.0191,0.3955 -0.2859,0.7317 -0.6815,0.7509 v 0 c -0.3955,0.0192 -0.7317,-0.2859 -0.7509,-0.6815 v 0 c -0.0192,-0.3955 0.2859,-0.7317 0.6814,-0.7509 0.3541,-0.0136 0.8368,-0.0278 1.3347,-0.0347 v 0 c 0.3902,-0.008 0.7131,0.3016 0.7212,0.6918 v 0 c 0.008,0.3902 -0.3016,0.7131 -0.6918,0.7212 v 0 c -0.3902,0.008 -0.7131,-0.3017 -0.7212,-0.6919 v 0 c -0.008,-0.3902 0.3017,-0.713 0.6918,-0.7211 2.5326,0.0134 5.3869,0.3314 7.7199,-0.0345 v 0 c 0.2782,-0.0508 0.5449,0.1336 0.5957,0.4118 v 0 c 0.0507,0.2782 -0.1336,0.5448 -0.4118,0.5956 -2.4766,0.5116 -5.4191,0.3232 -7.8744,0.4401 -0.4868,0.0135 -0.9507,0.034 -1.2947,0.0541 -0.1711,0.01 -0.3062,0.0196 -0.3988,0.0282 -0.0451,0.004 -0.0699,0.007 -0.0834,0.01 -0.005,0.001 0.1444,-0.0386 0.5043,-1.0837 v 0 c 0.2051,0.3455 0.0913,0.7918 -0.2541,0.9969 v 0 c -0.3454,0.2051 -0.7917,0.0913 -0.9968,-0.2541 z" /><path
           id="path240"
           style="fill:#000000;fill-opacity:1;fill-rule:nonzero;stroke:none"
           d="m 296.2109,601.426 c 0.7412,0.2372 1.4648,0.3577 2.2581,0.4068 v 0 c 0.4607,0.051 0.7928,0.4658 0.7419,0.9264 v 0 c -0.051,0.4607 -0.4658,0.7929 -0.9265,0.7419 v 0 c -0.4606,-0.051 -0.7928,-0.4658 -0.7418,-0.9264 v 0 c 0.051,-0.4607 0.4657,-0.7929 0.9264,-0.7419 0.8868,0.0863 1.7681,0.0672 2.7139,-0.0238 v 0 c 0.4837,-0.0395 0.9078,0.3207 0.9473,0.8044 v 0 c 0.0395,0.4837 -0.3206,0.9079 -0.8044,0.9473 v 0 c -0.4837,0.0395 -0.9079,-0.3206 -0.9473,-0.8044 v 0 c -0.0395,-0.4837 0.3206,-0.9078 0.8044,-0.9473 1.5963,-0.006 3.2449,-0.2167 4.9278,-0.4803 v 0 c 0.2755,-0.0637 0.5505,0.1081 0.6142,0.3836 v 0 c 0.0637,0.2755 -0.1081,0.5505 -0.3836,0.6142 -1.6447,0.5056 -3.348,0.9741 -5.0155,1.2342 -1.0125,0.0688 -2.0577,0.061 -3.0413,-0.0596 -0.8694,-0.1348 -1.764,-0.3707 -2.5797,-0.7111 v 0 c -0.3766,-0.1398 -0.5687,-0.5584 -0.4289,-0.9351 v 0 c 0.1398,-0.3766 0.5584,-0.5686 0.935,-0.4289" /><path
           id="path242"
           style="fill:#000000;fill-opacity:1;fill-rule:nonzero;stroke:none"
           d="m 314.4695,601.4564 c 0.5567,-0.0373 1.6104,0.0514 2.7843,0.0695 v 0 c 0.4423,0.0163 0.7877,0.388 0.7714,0.8303 v 0 c -0.0163,0.4423 -0.388,0.7876 -0.8303,0.7714 v 0 c -0.4423,-0.0163 -0.7876,-0.388 -0.7714,-0.8303 v 0 c 0.0163,-0.4423 0.388,-0.7877 0.8303,-0.7714 0.5343,0.003 1.076,-0.008 1.6198,-0.0502 v 0 c 0.4694,-0.0221 0.868,0.3405 0.8901,0.8099 v 0 c 0.0222,0.4695 -0.3404,0.868 -0.8099,0.8902 v 0 c -0.4694,0.0221 -0.8679,-0.3405 -0.8901,-0.8099 v 0 c -0.0222,-0.4695 0.3404,-0.868 0.8099,-0.8902 0.8807,0.0723 1.6853,0.0752 2.3649,-0.0804 v 0 c 0.2626,-0.105 0.5606,0.0228 0.6655,0.2854 v 0 c 0.105,0.2626 -0.0228,0.5606 -0.2854,0.6655 -0.7489,0.4154 -1.726,0.6713 -2.6647,0.8296 -0.5934,0.0111 -1.2036,-0.0113 -1.759,-0.0482 -1.2234,-0.0701 -2.2656,-0.2075 -2.684,-0.217 v 0 c -0.4015,0.0114 -0.7363,-0.3048 -0.7478,-0.7064 v 0 c -0.0114,-0.4015 0.3049,-0.7364 0.7064,-0.7478 z" /><path
           id="path244"
           style="fill:#000000;fill-opacity:1;fill-rule:nonzero;stroke:none"
           d="m 263.8392,607.2636 c 2e-4,0.0805 0,0.1357 -4e-4,0.1693 v 0 c 0.007,0.4 -0.3118,0.7299 -0.7119,0.7368 v 0 c -0.4,0.007 -0.7299,-0.3119 -0.7367,-0.7119 v 0 c -0.007,-0.4001 0.3118,-0.7299 0.7118,-0.7368 v 0 c 0.4001,-0.007 0.73,0.3118 0.7368,0.7119 -4e-4,0.0331 -0.002,0.0165 -1.4446,0.0374 v 0 c 0.01,-0.3984 0.3403,-0.7136 0.7387,-0.704 v 0 c 0.3983,0.01 0.7135,0.3403 0.7039,0.7386 v 0 c -0.01,0.3984 -0.3402,0.7136 -0.7386,0.704 v 0 c -0.3984,-0.01 -0.7135,-0.3403 -0.704,-0.7386 0.002,0.008 0.003,-0.0737 0.005,-0.2073 v 0 c -0.002,-0.3952 0.3166,-0.7173 0.7118,-0.7194 v 0 c 0.3952,-0.002 0.7173,0.3166 0.7194,0.7118 v 0 c 0.002,0.3952 -0.3166,0.7173 -0.7118,0.7194 v 0 c -0.3952,0.002 -0.7173,-0.3166 -0.7194,-0.7118 0.002,-0.2669 0.004,-0.7328 0.009,-1.1984 -1e-4,-0.6313 0.0148,-1.338 0.1841,-1.9297 0.1764,-0.5365 0.601,-1.0714 1.0889,-1.3495 0.5672,-0.2985 1.3175,-0.3734 1.868,-0.3555 0.2082,0.004 0.5644,-0.0635 0.9961,0.0233 0.4238,0.1594 0.7811,0.5422 0.9444,0.8172 0.1563,0.2738 0.2724,0.5653 0.3581,0.7499 0.1369,0.3143 0.2491,0.5555 0.3122,0.661 -0.0158,-0.011 -0.1005,-0.102 -0.1671,-0.1529 -0.1018,-0.0516 -0.4558,-0.1188 -0.6548,-0.0778 -0.162,0.0909 -0.3525,0.2954 -0.3853,0.3633 -0.0109,0.0481 -0.024,0.1253 -0.0192,0.1216 0.006,-0.1254 -0.0232,-0.3611 -0.0685,-0.6724 -0.1478,-1.2979 -0.6515,-3.2382 -1.2101,-5.0307 -0.2823,-0.9189 -0.448,-1.5905 -0.8334,-1.9545 -0.1944,-0.2358 -0.3754,-0.2982 -0.6839,-0.3202 v 0 c -0.4237,-0.0362 -0.7379,-0.4091 -0.7016,-0.8329 v 0 c 0.0362,-0.4237 0.4091,-0.7378 0.8329,-0.7016 v 0 c 0.4237,0.0363 0.7378,0.4092 0.7016,0.8329 v 0 c -0.0363,0.4238 -0.4092,0.7379 -0.8329,0.7016 -0.302,-0.0396 -0.4776,-0.003 -0.6248,0.1102 v 0 c -0.3466,0.2343 -0.8174,0.1434 -1.0518,-0.2032 v 0 c -0.2343,-0.3465 -0.1433,-0.8174 0.2032,-1.0517 v 0 c 0.3466,-0.2343 0.8174,-0.1433 1.0517,0.2032 v 0 c 0.2344,0.3465 0.1434,0.8174 -0.2031,1.0517 -0.1058,0.015 -0.1123,-0.0468 -0.1505,-0.0231 v 0 c -0.1154,0.331 -0.4773,0.5057 -0.8083,0.3903 v 0 c -0.331,-0.1155 -0.5058,-0.4774 -0.3903,-0.8084 v 0 c 0.1154,-0.331 0.4774,-0.5057 0.8084,-0.3903 v 0 c 0.331,0.1155 0.5057,0.4774 0.3902,0.8084 -0.0659,0.0312 -0.1114,-0.0118 -0.0933,0.1052 v 0 c 0.1173,0.2573 0.004,0.561 -0.2534,0.6783 v 0 c -0.2573,0.1174 -0.561,0.004 -0.6784,-0.2534 -0.1579,-0.2688 -0.2164,-0.6675 -0.1735,-0.9483 0.0706,-0.2881 0.2948,-0.6179 0.5005,-0.8136 0.4135,-0.2659 1.0608,-0.4225 1.6047,-0.3898 0.5374,0.0505 1.2253,0.3258 1.6838,0.7727 0.6301,0.6978 0.9234,1.676 1.2007,2.5754 0.5571,1.8339 1.0762,3.896 1.2307,5.3233 0.0271,0.3413 0.0415,0.7112 0.007,0.9885 -0.005,0.0952 -0.0372,0.2495 -0.0736,0.3534 -0.0579,0.123 -0.2801,0.3614 -0.4761,0.4641 -0.2368,0.054 -0.6306,-0.0222 -0.7752,-0.1052 -0.107,-0.0804 -0.2349,-0.2231 -0.293,-0.3068 -0.1075,-0.1877 -0.2516,-0.4959 -0.3961,-0.8277 -0.0951,-0.2304 -0.1713,-0.4524 -0.2618,-0.6173 -0.0838,-0.1641 -0.0279,-0.1455 -0.003,-0.1023 -0.0441,-0.0515 -0.2603,-0.012 -0.6458,-0.0412 -0.4532,-0.0386 -0.8485,-0.0353 -1.1156,0.119 -0.2546,0.125 -0.3229,0.2194 -0.4026,0.5271 -0.1255,0.3801 -0.1294,0.8995 -0.1323,1.5216 0.003,0.4604 0.009,0.9209 0.0144,1.1876 0.003,0.1332 0.005,0.2199 0.007,0.2514 -1.4426,0.0297 -1.4451,-0.013 -1.4467,-0.0493 -0.002,-0.0352 -0.003,-0.092 -0.006,-0.1727 v 0 c -0.006,-0.4017 0.315,-0.732 0.7167,-0.7379 v 0 c 0.4017,-0.006 0.7321,0.315 0.7379,0.7167" /><path
           id="path246"
           style="fill:#1749b3;fill-opacity:1;fill-rule:nonzero;stroke:none"
           d="m 319.0928,602.9366 c -3.367,-0.5784 -6.3155,-3.6793 -8.0439,-4.8261 v 0 c -0.2404,-0.149 -0.3144,-0.4647 -0.1655,-0.705 v 0 c 0.149,-0.2404 0.4646,-0.3145 0.705,-0.1655 1.955,1.1362 4.7812,3.9759 7.7011,4.2552 v 0 c 0.398,0.0543 0.6766,0.421 0.6223,0.819 v 0 c -0.0543,0.398 -0.421,0.6767 -0.819,0.6224 z" /><path
           id="path248"
           style="fill:#1749b3;fill-opacity:1;fill-rule:nonzero;stroke:none"
           d="m 307.6409,596.4478 c -0.9277,-0.5718 -2.0386,-0.8716 -3.3252,-1.3956 v 0 c -0.392,-0.1646 -0.5762,-0.6159 -0.4115,-1.0078 v 0 c 0.1646,-0.392 0.6159,-0.5762 1.0078,-0.4115 v 0 c 0.392,0.1646 0.5762,0.6159 0.4115,1.0078 v 0 c -0.1646,0.392 -0.6159,0.5762 -1.0078,0.4115 -0.7008,-0.2879 -1.5243,-0.6679 -2.1117,-1.116 v 0 c -0.3415,-0.27 -0.3994,-0.7657 -0.1294,-1.1071 v 0 c 0.27,-0.3414 0.7656,-0.3993 1.1071,-0.1294 v 0 c 0.3414,0.27 0.3993,0.7657 0.1293,1.1071 v 0 c -0.27,0.3414 -0.7656,0.3993 -1.107,0.1294 -0.6095,-0.6748 -0.4848,-1.1792 -1.1502,-1.777 v 0 c -0.2237,-0.1729 -0.265,-0.4945 -0.092,-0.7182 v 0 c 0.1729,-0.2238 0.4944,-0.265 0.7182,-0.0921 1.0228,0.7066 1.1454,1.2619 1.5017,1.3509 0.4105,0.341 1.0618,0.6457 1.7303,0.933 1.1978,0.5199 2.4045,0.8884 3.5001,1.5814 v 0 c 0.3406,0.2129 0.4441,0.6617 0.2312,1.0023 v 0 c -0.213,0.3407 -0.6617,0.4442 -1.0024,0.2313 z" /><path
           id="path250"
           style="fill:#1749b3;fill-opacity:1;fill-rule:nonzero;stroke:none"
           d="m 296.4025,590.0837 c -0.9322,-0.3325 -2.2591,-0.6943 -3.5837,-1.2164 v 0 c -0.3988,-0.1633 -0.5898,-0.619 -0.4265,-1.0178 v 0 c 0.1633,-0.3988 0.619,-0.5898 1.0178,-0.4265 v 0 c 0.3989,0.1633 0.5898,0.619 0.4265,1.0178 v 0 c -0.1633,0.3989 -0.619,0.5898 -1.0178,0.4265 -1.1851,-0.5827 -2.4117,-1.339 -3.2605,-2.3196 v 0 c -0.1982,-0.2018 -0.1953,-0.526 0.006,-0.7241 v 0 c 0.2018,-0.1982 0.526,-0.1953 0.7241,0.006 0.83,0.7284 1.9312,1.2033 3.1213,1.593 1.2334,0.5253 2.5196,0.9107 3.5044,1.299 v 0 c 0.376,0.1414 0.5662,0.5609 0.4248,0.9369 v 0 c -0.1414,0.376 -0.5608,0.5662 -0.9368,0.4248" /><path
           id="path252"
           style="fill:#1749b3;fill-opacity:1;fill-rule:nonzero;stroke:none"
           d="m 283.1919,583.6593 c -1.1134,-0.5796 -2.15,-0.946 -3.2684,-1.5305 v 0 c -0.3766,-0.2035 -0.5169,-0.6738 -0.3133,-1.0504 v 0 c 0.2035,-0.3766 0.6738,-0.5169 1.0504,-0.3133 v 0 c 0.3766,0.2035 0.5169,0.6738 0.3133,1.0504 v 0 c -0.2035,0.3766 -0.6738,0.5169 -1.0504,0.3133 -0.7848,-0.5247 -1.6229,-1.1863 -2.4984,-2.1101 v 0 c -0.208,-0.1916 -0.2212,-0.5155 -0.0296,-0.7235 v 0 c 0.1916,-0.208 0.5155,-0.2212 0.7235,-0.0296 0.9296,0.7393 1.7286,1.1605 2.5416,1.4995 1.0119,0.567 2.0358,0.9625 3.2178,1.6115 v 0 c 0.3542,0.1896 0.4876,0.6304 0.2981,0.9846 v 0 c -0.1896,0.3542 -0.6304,0.4876 -0.9846,0.2981" /><path
           id="path254"
           style="fill:#1749b3;fill-opacity:1;fill-rule:nonzero;stroke:none"
           d="m 269.7404,576.0975 c -0.872,-0.0392 -3.0316,-0.6202 -5.3434,-1.6712 v 0 c -0.3895,-0.1806 -0.5588,-0.6428 -0.3782,-1.0323 v 0 c 0.1806,-0.3895 0.6427,-0.5589 1.0323,-0.3783 v 0 c 0.3895,0.1806 0.5588,0.6428 0.3782,1.0323 v 0 c -0.1806,0.3895 -0.6427,0.5589 -1.0323,0.3783 -0.9549,-0.4447 -2.0047,-0.971 -2.8912,-1.4322 v 0 c -0.3789,-0.1964 -0.5268,-0.6627 -0.3304,-1.0415 v 0 c 0.1963,-0.3789 0.6626,-0.5268 1.0415,-0.3304 v 0 c 0.3788,0.1963 0.5268,0.6626 0.3304,1.0415 v 0 c -0.1964,0.3788 -0.6627,0.5268 -1.0415,0.3304 -0.488,-0.2562 -0.9156,-0.4987 -1.3077,-0.717 v 0 c -0.3701,-0.203 -0.5055,-0.6675 -0.3025,-1.0375 v 0 c 0.2029,-0.3701 0.6674,-0.5055 1.0375,-0.3026 v 0 c 0.37,0.203 0.5055,0.6675 0.3025,1.0376 v 0 c -0.203,0.37 -0.6675,0.5055 -1.0375,0.3025 -0.4677,-0.3045 -0.882,-0.5933 -1.061,-0.7202 v 0 c -0.3204,-0.147 -0.4608,-0.5258 -0.3139,-0.8461 v 0 c 0.147,-0.3203 0.5259,-0.4608 0.8462,-0.3138 v 0 c 0.3203,0.147 0.4608,0.5258 0.3138,0.8461 v 0 c -0.147,0.3203 -0.5258,0.4608 -0.8461,0.3138 -0.039,-0.0297 -0.0218,-0.0353 0.0147,-0.0352 v 0 c -0.3286,-0.065 -0.5424,-0.3841 -0.4774,-0.7127 v 0 c 0.0649,-0.3287 0.384,-0.5424 0.7127,-0.4775 v 0 c 0.3286,0.065 0.5424,0.3841 0.4774,0.7127 v 0 c -0.0649,0.3287 -0.384,0.5424 -0.7127,0.4775 0.0881,-0.005 0.6323,-0.4165 0.6356,-0.7232 v 0 c 0.0817,0.3069 -0.1008,0.6219 -0.4077,0.7036 v 0 c -0.3069,0.0818 -0.622,-0.1008 -0.7037,-0.4077 v 0 c -0.0817,-0.3069 0.1008,-0.622 0.4077,-0.7037 v 0 c 0.3069,-0.0817 0.622,0.1008 0.7037,0.4078 -0.0938,-0.1338 -0.085,-0.0963 0.0716,0.0772 v 0 c 0.2074,0.1922 0.2197,0.5162 0.0274,0.7236 v 0 c -0.1922,0.2074 -0.5162,0.2196 -0.7236,0.0274 -0.2093,-0.1658 -0.3719,-0.3193 -0.4868,-0.5323 -0.007,-0.3464 0.5639,-0.7698 0.7121,-0.7627 0.0945,0.0116 0.2027,0.0411 0.2812,0.0652 0.2909,0.0888 0.7699,0.3172 1.2638,0.5402 0.4008,0.2166 0.8139,0.4447 1.2838,0.6851 0.877,0.4527 1.8995,0.962 2.8342,1.3935 2.191,1.0367 4.1318,1.5881 4.7666,1.6291 v 0 c 0.4012,0.0213 0.709,0.3638 0.6877,0.765 v 0 c -0.0214,0.4012 -0.3639,0.709 -0.765,0.6877 z" /><path
           id="path256"
           style="fill:#1749b3;fill-opacity:1;fill-rule:nonzero;stroke:none"
           d="m 320.8603,601.738 c 0.6693,-1.0023 1.5513,-2.7949 2.5718,-4.2073 v 0 c 0.2348,-0.3241 0.6879,-0.3965 1.012,-0.1617 v 0 c 0.324,0.2348 0.3964,0.6879 0.1616,1.012 v 0 c -0.2348,0.324 -0.6878,0.3964 -1.0119,0.1616 v 0 c -0.3241,-0.2348 -0.3965,-0.6878 -0.1617,-1.0119 0.4475,-0.4959 0.9415,-0.9616 1.4303,-1.2754 v 0 c 0.2183,-0.1797 0.541,-0.1484 0.7207,0.0699 v 0 c 0.1797,0.2184 0.1484,0.5411 -0.0699,0.7208 -0.3185,0.3506 -0.6059,0.7971 -0.9075,1.335 -0.9454,1.3012 -1.8058,3.0599 -2.5335,4.1617 v 0 c -0.2222,0.3347 -0.6736,0.4259 -1.0083,0.2036 v 0 c -0.3347,-0.2222 -0.4258,-0.6736 -0.2036,-1.0083 z" /><path
           id="path258"
           style="fill:#1749b3;fill-opacity:1;fill-rule:nonzero;stroke:none"
           d="m 327.1484,591.7803 c 0.4648,-1.1098 1.4081,-2.5069 2.2959,-3.82 v 0 c 0.2425,-0.3514 0.724,-0.4396 1.0754,-0.1971 v 0 c 0.3514,0.2426 0.4397,0.7241 0.1971,1.0755 v 0 c -0.2425,0.3514 -0.724,0.4396 -1.0754,0.197 v 0 c -0.3514,-0.2425 -0.4397,-0.724 -0.1971,-1.0754 0.8595,-1.0919 1.6802,-2.126 2.1448,-2.899 v 0 c 0.1224,-0.2549 0.4282,-0.3624 0.6832,-0.2401 v 0 c 0.255,0.1224 0.3625,0.4282 0.2401,0.6832 -0.3599,0.9453 -1.0793,2.1434 -1.7956,3.3343 -0.913,1.2958 -1.8171,2.574 -2.2313,3.5147 v 0 c -0.1582,0.3693 -0.5859,0.5403 -0.9551,0.382 v 0 c -0.3692,-0.1583 -0.5403,-0.5859 -0.382,-0.9551" /><path
           id="path260"
           style="fill:#1749b3;fill-opacity:1;fill-rule:nonzero;stroke:none"
           d="m 335.8431,578.8282 c 0.2313,-1.1554 0.76,-2.2942 1.1621,-3.1915 v 0 c 0.175,-0.3801 0.625,-0.5463 1.0051,-0.3713 v 0 c 0.38,0.1751 0.5462,0.625 0.3712,1.0051 v 0 c -0.175,0.38 -0.625,0.5462 -1.0051,0.3712 v 0 c -0.38,-0.175 -0.5462,-0.625 -0.3712,-1.005 0.1779,-0.3754 0.3008,-0.7925 0.5255,-1.2332 v 0 c 0.189,-0.3685 0.6409,-0.5142 1.0095,-0.3253 v 0 c 0.3685,0.1889 0.5142,0.6409 0.3253,1.0094 v 0 c -0.1889,0.3686 -0.6409,0.5143 -1.0094,0.3253 v 0 c -0.3686,-0.1889 -0.5143,-0.6408 -0.3254,-1.0094 0.1399,-0.2523 0.3238,-0.5101 0.5238,-0.7632 v 0 c 0.2411,-0.3207 0.6965,-0.3851 1.0171,-0.144 v 0 c 0.3207,0.2411 0.3852,0.6965 0.144,1.0172 v 0 c -0.2411,0.3206 -0.6965,0.3851 -1.0171,0.144 v 0 c -0.3207,-0.2412 -0.3852,-0.6966 -0.144,-1.0172 0.1498,-0.1367 0.3361,-0.3116 0.655,-0.6294 v 0 c 0.2194,-0.2584 0.6068,-0.29 0.8653,-0.0706 v 0 c 0.2584,0.2194 0.29,0.6068 0.0706,0.8652 v 0 c -0.2194,0.2585 -0.6068,0.2901 -0.8652,0.0707 v 0 c -0.2585,-0.2194 -0.2901,-0.6068 -0.0707,-0.8653 0.1782,-0.1574 0.4083,-0.3736 0.7098,-0.6776 v 0 c 0.1827,-0.2159 0.5057,-0.2428 0.7216,-0.0602 v 0 c 0.216,0.1826 0.2429,0.5057 0.0603,0.7216 -0.2517,0.3502 -0.4314,0.6119 -0.5557,0.8108 -0.2518,0.3544 -0.3511,0.5407 -0.4299,0.708 -0.1692,0.2378 -0.2702,0.3977 -0.3502,0.5742 -0.1594,0.3088 -0.2685,0.7042 -0.4839,1.1828 -0.4256,0.9 -0.9112,1.8785 -1.1129,2.8482 v 0 c -0.0802,0.3936 -0.4644,0.6477 -0.858,0.5675 v 0 c -0.3937,-0.0802 -0.6477,-0.4643 -0.5675,-0.858" /><path
           id="path262"
           style="fill:#1749b3;fill-opacity:1;fill-rule:nonzero;stroke:none"
           d="m 387.0065,605.5073 c -0.0325,0.0549 -0.138,0.1905 -0.3082,0.3207 v 0 c -0.3465,0.1988 -0.7886,0.079 -0.9874,-0.2675 v 0 c -0.1988,-0.3465 -0.079,-0.7886 0.2675,-0.9874 v 0 c 0.3465,-0.1988 0.7886,-0.0791 0.9874,0.2674 v 0 c 0.1988,0.3466 0.0791,0.7887 -0.2675,0.9875 -0.5034,0.0851 -1.0776,-0.4939 -1.0893,-0.6257 v 0 c -0.01,-0.3971 0.3045,-0.7269 0.7017,-0.7366 v 0 c 0.3971,-0.01 0.7269,0.3045 0.7366,0.7016 v 0 c 0.01,0.3972 -0.3045,0.727 -0.7016,0.7366 v 0 c -0.3972,0.01 -0.727,-0.3044 -0.7367,-0.7016 0.007,-0.1327 0.0358,-0.2723 0.0676,-0.3788 v 0 c 0.1046,-0.3786 0.4964,-0.6008 0.875,-0.4962 v 0 c 0.3787,0.1047 0.6008,0.4964 0.4962,0.8751 v 0 c -0.1046,0.3786 -0.4964,0.6007 -0.875,0.4961 v 0 c -0.3787,-0.1046 -0.6008,-0.4963 -0.4962,-0.875 0.0606,-0.1964 0.1794,-0.5122 0.3349,-0.8264 0.396,-0.8075 1.2024,-1.7347 2.0768,-2.1945 0.6577,-0.3118 1.4754,-0.3263 1.984,-0.2276 0.468,0.1224 0.8631,0.4966 1.0491,0.7784 0.1721,0.2654 0.4065,0.6179 0.5742,0.9864 0.1328,0.2602 0.2294,0.5314 0.2905,0.6926 0.031,0.0824 0.0532,0.1346 0.068,0.1483 0.005,10e-4 -0.0121,-0.0595 -0.0417,-0.1323 -0.0809,-0.124 -0.967,-0.3851 -1.357,-0.1332 v 0 c 0.3005,-0.3569 0.8333,-0.4026 1.1902,-0.1022 v 0 c 0.3569,0.3005 0.4027,0.8334 0.1022,1.1903 v 0 c -0.3004,0.3568 -0.8333,0.4026 -1.1902,0.1022 v 0 c -0.3569,-0.3005 -0.4026,-0.8334 -0.1022,-1.1903 -0.1142,0.2897 -0.1325,0.2632 -0.1481,-0.008 -0.0153,-0.2755 -0.0497,-0.654 -0.0505,-1.0231 -0.004,-1.739 0.4854,-3.7861 0.393,-5.2098 -0.0173,-0.298 -0.0532,-0.4032 -0.156,-0.5346 -0.077,-0.1319 -0.0732,-0.1184 -0.2354,-0.1599 -0.246,-0.1021 -0.5395,-0.1347 -0.824,-0.1158 -0.1209,-0.0299 -0.163,-0.0595 -0.2115,-0.0767 -0.0399,-0.0289 0.1047,-0.1809 0.1821,-0.3384 v 0 c -0.1631,0.3633 -0.5898,0.5257 -0.9532,0.3626 v 0 c -0.3633,-0.163 -0.5257,-0.5898 -0.3626,-0.9531 v 0 c 0.163,-0.3634 0.5898,-0.5257 0.9531,-0.3627 v 0 c 0.3634,0.1631 0.5257,0.5898 0.3627,0.9532 0.0117,-0.0978 0.005,-0.3257 -0.0256,-0.396 v 0 c 0.1142,0.3513 -0.0781,0.7286 -0.4294,0.8428 v 0 c -0.3513,0.1141 -0.7287,-0.0782 -0.8428,-0.4295 v 0 c -0.1141,-0.3513 0.0782,-0.7286 0.4295,-0.8428 v 0 c 0.3513,-0.1141 0.7286,0.0782 0.8427,0.4295 -0.0389,-0.042 -0.1039,-0.112 -0.1091,-0.0956 v 0 c 0.2363,0.2451 0.2292,0.6355 -0.016,0.8718 v 0 c -0.2452,0.2363 -0.6355,0.2292 -0.8718,-0.016 v 0 c -0.2364,-0.2452 -0.2292,-0.6355 0.016,-0.8718 v 0 c 0.2451,-0.2364 0.6355,-0.2292 0.8718,0.016 0.008,0.0651 0.0644,0.1447 0.2567,0.2771 v 0 c 0.2538,0.1247 0.3584,0.4316 0.2337,0.6854 v 0 c -0.1248,0.2538 -0.4317,0.3584 -0.6854,0.2336 -0.2776,-0.0985 -0.527,-0.2251 -0.6928,-0.3403 -0.0922,-0.0739 -0.2113,-0.2277 -0.2753,-0.3469 -0.0557,-0.1476 -0.0585,-0.4461 -0.0179,-0.6081 0.1347,-0.2851 0.4363,-0.5382 0.621,-0.6405 0.1754,-0.0903 0.4249,-0.1653 0.6304,-0.2116 0.4622,-0.0188 1.0983,0.062 1.5796,0.2371 0.4162,0.1789 0.8722,0.5622 1.1122,0.9405 0.214,0.3784 0.3597,0.9235 0.3798,1.4065 0.0574,1.7119 -0.4603,3.7875 -0.4658,5.2951 -10e-4,0.2873 0.0301,0.618 0.0477,0.9268 0.0174,0.3127 -7e-4,0.7453 -0.246,1.1909 -0.3989,0.2625 -1.2939,-0.003 -1.3845,-0.1448 -0.0394,-0.0903 -0.0676,-0.1817 -0.0743,-0.2216 -0.01,-0.07 -0.0171,-0.1455 -0.0258,-0.2209 -0.0183,-0.1542 -0.0403,-0.3185 -0.0984,-0.4978 -0.103,-0.2546 -0.2766,-0.5207 -0.4503,-0.8038 -0.1133,-0.1931 -0.0445,-0.1794 -0.1261,-0.1708 -0.3473,-0.0787 -0.7346,-0.0973 -1.0747,0.0959 -0.6229,0.298 -1.1566,0.9293 -1.4487,1.5587 -0.1175,0.2556 -0.1853,0.4652 -0.2177,0.6048 -0.0145,0.0614 -0.009,0.0425 -4e-4,-0.0352 -0.011,-0.1042 -0.5785,-0.672 -1.0678,-0.5948 -0.1582,0.1233 -0.2447,0.2327 -0.2516,0.2407 v 0 c 0.1917,-0.353 0.6333,-0.4839 0.9863,-0.2922 v 0 c 0.3531,0.1916 0.4839,0.6332 0.2923,0.9863" /><path
           id="path264"
           style="fill:#1749b3;fill-opacity:1;fill-rule:nonzero;stroke:none"
           d="m 394.4089,606.9596 c 0.6564,-0.2798 0.4853,-1.7112 1.1927,-3.5508 v 0 c 0.1367,-0.3539 0.5343,-0.5301 0.8882,-0.3934 v 0 c 0.3539,0.1366 0.5301,0.5343 0.3934,0.8882 v 0 c -0.1366,0.3539 -0.5343,0.53 -0.8882,0.3934 v 0 c -0.3539,-0.1366 -0.53,-0.5343 -0.3934,-0.8882 0.1478,-0.2204 0.317,-0.4572 0.4976,-0.6761 v 0 c 0.1315,-0.2504 0.4411,-0.3467 0.6914,-0.2152 v 0 c 0.2503,0.1316 0.3467,0.4411 0.2151,0.6915 -0.0608,0.2405 -0.0953,0.4619 -0.1225,0.6946 -0.6046,1.5584 -0.4683,3.2421 -1.6375,4.246 v 0 c -0.3286,0.2311 -0.7824,0.152 -1.0134,-0.1766 v 0 c -0.2311,-0.3286 -0.152,-0.7823 0.1766,-1.0134" /><path
           id="path266"
           style="fill:#1749b3;fill-opacity:1;fill-rule:nonzero;stroke:none"
           d="m 327.6302,422.2346 c -0.0521,-0.0719 -0.2002,-0.1389 -0.2052,-0.2079 v 0 c 0.4942,-0.1156 0.9886,0.1913 1.1042,0.6856 v 0 c 0.1157,0.4942 -0.1913,0.9886 -0.6855,1.1042 v 0 c -0.4942,0.1156 -0.9886,-0.1913 -1.1042,-0.6855 v 0 c -0.1156,-0.4942 0.1913,-0.9886 0.6855,-1.1043 0.1074,-0.0272 0.4175,-0.2946 0.9123,-0.7676 v 0 c 0.421,-0.3667 1.0596,-0.3227 1.4264,0.0983 v 0 c 0.3667,0.421 0.3227,1.0596 -0.0983,1.4263 v 0 c -0.421,0.3668 -1.0596,0.3228 -1.4263,-0.0982 v 0 c -0.3668,-0.421 -0.3228,-1.0596 0.0982,-1.4264 0.869,-0.6634 1.9088,-1.6666 2.7937,-2.5145 v 0 c 0.3028,-0.3248 0.8115,-0.3426 1.1362,-0.0398 v 0 c 0.3247,0.3027 0.3425,0.8114 0.0398,1.1361 v 0 c -0.3028,0.3248 -0.8115,0.3426 -1.1362,0.0398 v 0 c -0.3247,-0.3027 -0.3425,-0.8114 -0.0398,-1.1361 0.4426,-0.424 0.8446,-0.8075 1.1607,-1.0832 v 0 c 0.2696,-0.2773 0.713,-0.2835 0.9903,-0.0138 v 0 c 0.2773,0.2696 0.2835,0.713 0.0139,0.9903 v 0 c -0.2696,0.2773 -0.713,0.2835 -0.9903,0.0138 v 0 c -0.2773,-0.2696 -0.2835,-0.713 -0.0139,-0.9903 0.3184,-0.2777 0.6113,-0.4968 0.9787,-0.5864 v 0 c 0.3274,-0.0379 0.6235,0.1968 0.6614,0.5242 v 0 c 0.0379,0.3274 -0.1968,0.6236 -0.5242,0.6615 0.2372,-0.0745 0.1383,0.0704 -0.1117,0.3772 -0.2522,0.3088 -0.5951,0.7301 -0.989,1.2031 -0.7876,0.946 -1.7864,2.1045 -2.6416,2.9428 -0.6022,0.4827 -1.2619,0.9036 -1.8213,1.0326 -0.1959,-0.0243 -0.5099,-0.09 -0.6991,-0.2104 v 0 c -0.3787,-0.134 -0.5771,-0.5497 -0.4431,-0.9284 v 0 c 0.1341,-0.3787 0.5497,-0.5771 0.9284,-0.443" /><path
           id="path268"
           style="fill:#1749b3;fill-opacity:1;fill-rule:nonzero;stroke:none"
           d="m 334.3267,421.712 c -0.1094,0.2452 -0.4143,0.5408 -0.6433,0.6453 v 0 c -0.3919,0.1373 -0.8208,-0.069 -0.9581,-0.4608 v 0 c -0.1373,-0.3919 0.069,-0.8208 0.4608,-0.9581 v 0 c 0.3918,-0.1373 0.8208,0.069 0.9581,0.4608 v 0 c 0.1373,0.3918 -0.069,0.8208 -0.4608,0.9581 -0.23,0.0756 -0.5504,0.0872 -0.7544,0.0566 v 0 c -0.4197,-0.0871 -0.6894,-0.4979 -0.6024,-0.9176 v 0 c 0.087,-0.4197 0.4978,-0.6894 0.9175,-0.6023 v 0 c 0.4197,0.087 0.6894,0.4978 0.6024,0.9175 v 0 c -0.087,0.4197 -0.4978,0.6894 -0.9175,0.6024 -0.3824,-0.072 -0.8295,-0.2768 -1.1808,-0.487 v 0 c -0.3806,-0.2503 -0.4862,-0.7617 -0.2359,-1.1423 v 0 c 0.2503,-0.3806 0.7617,-0.4863 1.1424,-0.236 v 0 c 0.3806,0.2503 0.4862,0.7618 0.2359,1.1424 v 0 c -0.2503,0.3806 -0.7618,0.4862 -1.1424,0.2359 -1.0578,-0.6478 -2.1083,-1.5782 -3.196,-2.4881 -0.5812,-0.539 -1.2298,-1.0749 -1.7289,-1.5889 -0.2005,-0.2278 -0.4045,-0.4675 -0.5514,-0.6828 v 0 c -0.2917,-0.3654 -0.2319,-0.8981 0.1335,-1.1898 v 0 c 0.3655,-0.2916 0.8982,-0.2318 1.1899,0.1336 v 0 c 0.2916,0.3655 0.2318,0.8982 -0.1336,1.1898 v 0 c -0.3655,0.2917 -0.8982,0.2319 -1.1898,-0.1336 -0.1517,-0.227 -0.3241,-0.6239 -0.3141,-1.0233 v 0 c 0.0489,-0.4303 0.4374,-0.7396 0.8677,-0.6907 v 0 c 0.4303,0.0488 0.7396,0.4373 0.6907,0.8677 v 0 c -0.0488,0.4303 -0.4373,0.7396 -0.8676,0.6907 v 0 c -0.4304,-0.0489 -0.7396,-0.4373 -0.6908,-0.8677 0.0775,-0.1693 0.2711,-0.4332 0.4249,-0.5164 v 0 c 0.2761,-0.2279 0.6846,-0.1888 0.9125,0.0872 v 0 c 0.2278,0.2761 0.1888,0.6846 -0.0873,0.9124 v 0 c -0.276,0.2279 -0.6845,0.1888 -0.9124,-0.0872 v 0 c -0.2279,-0.2761 -0.1888,-0.6846 0.0872,-0.9124 0.1396,-0.0471 0.3325,-0.0834 0.4577,-0.0666 v 0 c 0.2762,-0.0609 0.5494,0.1136 0.6103,0.3898 v 0 c 0.0608,0.2762 -0.1137,0.5494 -0.3899,0.6102 -0.0134,0.0474 0.0774,0.0557 0.1469,0.0664 0.0843,-0.0258 0.2403,-0.2193 0.3085,-0.3063 -0.0132,-0.1945 -0.0329,-0.3135 0.0792,-0.2098 0.1166,0.1149 0.2872,0.2586 0.507,0.447 0.4391,0.415 1.0792,0.9021 1.7215,1.4526 1.0495,0.9933 1.9541,1.9137 2.8307,2.5379 0.2581,0.1906 0.4442,0.3079 0.5895,0.3454 0.0599,0.0241 -0.023,0.0371 -0.058,0.0444 -0.034,0.0361 -0.1864,0.1933 -0.202,0.2135 v 0 c 0.1547,-0.3708 0.5806,-0.5459 0.9514,-0.3912 v 0 c 0.3707,0.1546 0.5459,0.5806 0.3912,0.9513" /><path
           id="path270"
           style="fill:#1749b3;fill-opacity:1;fill-rule:nonzero;stroke:none"
           d="m 339.1542,421.3739 c 0.0469,0.4396 0.4267,0.7335 1.2011,1.2981 v 0 c 0.3317,0.2457 0.4013,0.7137 0.1556,1.0453 v 0 c -0.2457,0.3316 -0.7137,0.4012 -1.0453,0.1556 v 0 c -0.3316,-0.2457 -0.4013,-0.7137 -0.1556,-1.0454 v 0 c 0.2457,-0.3316 0.7137,-0.4012 1.0453,-0.1555 0.3524,0.2602 0.7653,0.5454 1.2211,0.8785 v 0 c 0.3338,0.2446 0.4061,0.7136 0.1615,1.0475 v 0 c -0.2447,0.3338 -0.7137,0.4061 -1.0475,0.1614 v 0 c -0.3339,-0.2446 -0.4062,-0.7136 -0.1615,-1.0474 v 0 c 0.2447,-0.3339 0.7136,-0.4062 1.0475,-0.1615 0.1349,0.197 0.2785,0.4032 0.423,0.615 v 0 c 0.2237,0.173 0.2647,0.4946 0.0917,0.7183 v 0 c -0.173,0.2237 -0.4946,0.2647 -0.7183,0.0917 -0.2336,-0.0808 -0.4592,-0.1505 -0.6826,-0.2162 -0.4394,-0.323 -0.8528,-0.6103 -1.2245,-0.8864 -0.8188,-0.6158 -1.5376,-1.3283 -1.7415,-2.232 v 0 c -0.0738,-0.3949 0.1866,-0.7748 0.5815,-0.8485 v 0 c 0.3949,-0.0737 0.7748,0.1866 0.8485,0.5815" /><path
           id="path272"
           style="fill:#1749b3;fill-opacity:1;fill-rule:nonzero;stroke:none"
           d="m 340.3736,565.2002 c -0.1097,0.0866 -0.2067,0.1419 -0.2823,0.1556 v 0 c -0.159,0.2617 -0.5,0.345 -0.7618,0.1861 v 0 c -0.2617,-0.159 -0.3451,-0.5 -0.1861,-0.7618 v 0 c 0.159,-0.2618 0.5,-0.3451 0.7618,-0.1861 v 0 c 0.2617,0.159 0.3451,0.5 0.1861,0.7618 -0.0141,0.0327 -0.087,0.133 -1.0602,-0.2566 v 0 c -0.004,-0.3148 0.2473,-0.5735 0.5621,-0.5779 v 0 c 0.3148,-0.004 0.5735,0.2473 0.5779,0.5621 v 0 c 0.004,0.3148 -0.2473,0.5735 -0.5621,0.5779 v 0 c -0.3148,0.004 -0.5735,-0.2473 -0.5779,-0.5621 0.0367,-0.2256 0.0617,-0.2913 0.074,-0.3243 v 0 c 0.157,-0.2827 0.5135,-0.3846 0.7962,-0.2275 v 0 c 0.2827,0.157 0.3846,0.5135 0.2275,0.7962 v 0 c -0.157,0.2827 -0.5135,0.3846 -0.7962,0.2275 v 0 c -0.2827,-0.157 -0.3846,-0.5135 -0.2275,-0.7962 0.0184,-0.0544 0.0653,-0.1522 0.1267,-0.2616 0.1191,-0.2123 0.3466,-0.5454 0.6407,-0.8709 0.2649,-0.2657 0.5836,-0.4862 0.806,-0.6621 0.2024,-0.1556 0.4269,-0.378 0.7536,-0.5684 0.4561,-0.2459 1.1196,-0.4272 1.677,-0.3981 0.5168,0.072 1.0275,0.4671 1.2632,0.85 0.2137,0.3793 0.3543,0.8965 0.3989,1.3429 0.0446,0.4911 0.007,1.0357 -0.0513,1.3975 -0.0561,0.2938 -0.2294,0.6091 -0.3628,0.7638 -0.077,0.0817 -0.2032,0.1827 -0.2938,0.2373 -0.0535,0.0286 -0.1617,0.0715 -0.2364,0.0912 -0.0956,0.0164 -0.3359,10e-4 -0.4984,-0.0571 -0.3266,-0.3193 -0.4062,-0.6684 -0.401,-0.7501 0.007,-0.0573 0.0208,-0.1278 0.0305,-0.1682 0.0185,-0.0743 0.0479,-0.1685 0.0769,-0.2544 0.0573,-0.169 0.1373,-0.378 0.2037,-0.5468 0.3803,-0.9188 1.125,-2.0153 1.6539,-2.9053 0.2528,-0.4104 0.4871,-0.8096 0.6738,-1.1873 0.143,-0.2845 0.2221,-0.356 0.1938,-0.3601 0.0408,-0.2431 0.0556,-0.3557 -7e-4,-0.4592 0.0402,-0.0456 0.0365,-0.0578 -0.1381,-0.1685 -0.1794,-0.1228 -0.3648,-0.1966 -0.5665,-0.2422 v 0 c -0.359,-0.0426 -0.6156,-0.3681 -0.573,-0.7272 v 0 c 0.0426,-0.359 0.3681,-0.6156 0.7272,-0.573 v 0 c 0.359,0.0426 0.6156,0.3681 0.573,0.7272 v 0 c -0.0426,0.359 -0.3681,0.6156 -0.7272,0.573 -0.1944,-0.0501 -0.2107,-0.082 -0.0986,-0.1457 v 0 c -0.2408,0.2141 -0.6095,0.1924 -0.8236,-0.0483 v 0 c -0.2141,-0.2408 -0.1925,-0.6095 0.0483,-0.8236 v 0 c 0.2407,-0.2141 0.6094,-0.1924 0.8235,0.0483 v 0 c 0.2141,0.2407 0.1925,0.6095 -0.0482,0.8236 0.0591,-0.1037 0.1088,-0.4401 0.0839,-0.513 v 0 c 0.1302,0.273 0.0144,0.5999 -0.2586,0.7301 v 0 c -0.273,0.1302 -0.5999,0.0145 -0.7301,-0.2586 v 0 c -0.1302,-0.273 -0.0144,-0.5999 0.2586,-0.7301 v 0 c 0.273,-0.1302 0.5999,-0.0144 0.7301,0.2586 -0.0277,-0.0104 -0.0431,-0.0106 0.0483,0.0705 v 0 c 0.2267,0.169 0.2735,0.4898 0.1045,0.7166 v 0 c -0.1691,0.2267 -0.4899,0.2734 -0.7166,0.1044 -0.1672,-0.1117 -0.3331,-0.2752 -0.425,-0.4201 -0.0889,-0.207 -0.0168,-0.649 0.1293,-0.83 0.2867,-0.219 0.7039,-0.2943 1.0284,-0.2829 0.3172,0.016 0.7363,0.1085 1.0734,0.2497 0.3417,0.1534 0.7663,0.503 0.9733,0.91 0.1355,0.4171 0.1299,0.9205 0.0746,1.2665 -0.0938,0.3974 -0.2784,0.6584 -0.3486,0.8046 -0.2128,0.4293 -0.4811,0.8893 -0.7425,1.315 -0.5818,0.9159 -1.3048,1.9189 -1.6307,2.6599 -0.0711,0.1544 -0.1484,0.3301 -0.205,0.4695 -0.028,0.0684 -0.0448,0.1094 -0.0539,0.1347 -0.004,0.008 10e-4,-0.022 0.005,-0.0517 0.002,-0.0512 -0.0757,-0.3825 -0.3931,-0.6972 -0.1462,-0.0503 -0.3636,-0.0644 -0.4289,-0.0544 -0.0499,0.0144 -0.1258,0.0447 -0.1445,0.0545 -0.0191,0.0159 -0.0622,0.0525 -0.0562,0.046 0.0314,-0.0207 0.0209,0.0248 0.0214,-0.0249 0.0485,-0.2885 0.0775,-0.6686 0.0391,-1.04 -0.0304,-0.3324 -0.0927,-0.574 -0.2178,-0.7704 -0.1032,-0.1928 -0.0673,-0.1903 -0.1692,-0.1644 -0.2952,-0.0346 -0.5995,0.0559 -0.8995,0.2275 -0.1661,0.0817 -0.3128,0.2358 -0.5874,0.4453 -0.2654,0.1977 -0.5216,0.3606 -0.6854,0.5244 -0.2659,0.2349 -0.4494,0.4464 -0.5798,0.6027 -0.0632,0.0747 -0.1006,0.1172 -0.1239,0.1384 -0.009,0.006 0.005,-0.0375 0.0416,-0.2673 -0.973,-0.378 -1.0351,-0.2925 -1.0276,-0.2953 -0.0369,-0.0499 -0.0609,-0.1245 -0.062,-0.248 v 0 c 0.1844,-0.3569 0.6233,-0.4966 0.9802,-0.3121 v 0 c 0.3568,0.1844 0.4966,0.6233 0.3121,0.9801" /><path
           id="path274"
           style="fill:#1749b3;fill-opacity:1;fill-rule:nonzero;stroke:none"
           d="m 345.0255,567.8773 c -0.001,10e-4 0.0626,0.1025 0.1627,0.208 v 0 c -0.3168,-0.2541 -0.3676,-0.7168 -0.1135,-1.0336 v 0 c 0.254,-0.3168 0.7168,-0.3676 1.0336,-0.1136 v 0 c 0.3168,0.2541 0.3676,0.7169 0.1136,1.0337 v 0 c -0.2541,0.3168 -0.7169,0.3676 -1.0337,0.1135 0.2778,0.1359 1.0617,-0.1713 1.1445,-0.3327 v 0 c -0.1274,0.3902 -0.5469,0.6034 -0.9371,0.4761 v 0 c -0.3902,-0.1273 -0.6034,-0.5469 -0.4761,-0.9371 v 0 c 0.1273,-0.3902 0.5469,-0.6034 0.9371,-0.4761 v 0 c 0.3902,0.1274 0.6034,0.5469 0.4761,0.9371 0.0296,-0.1378 0.0368,-0.1814 0.0506,-0.1075 v 0 c 0.0448,0.4168 -0.2567,0.791 -0.6735,0.8359 v 0 c -0.4168,0.0448 -0.791,-0.2567 -0.8359,-0.6735 v 0 c -0.0448,-0.4168 0.2567,-0.791 0.6735,-0.8359 v 0 c 0.4168,-0.0448 0.7911,0.2567 0.8359,0.6735 0.0278,0.1682 0.0904,0.4454 0.1949,0.7888 v 0 c 0.1141,0.4215 -0.1351,0.8557 -0.5567,0.9698 v 0 c -0.4215,0.1141 -0.8557,-0.1351 -0.9698,-0.5566 v 0 c -0.114,-0.4215 0.1352,-0.8557 0.5567,-0.9698 v 0 c 0.4215,-0.1141 0.8557,0.1351 0.9698,0.5566 0.1004,0.7312 0.2995,1.5287 0.5941,1.8278 v 0 c 0.2248,0.1716 0.2679,0.4929 0.0963,0.7177 v 0 c -0.1715,0.2248 -0.4929,0.2679 -0.7176,0.0963 -0.6834,-0.4472 -1.1949,-1.465 -1.4992,-2.2286 -0.098,-0.4041 -0.1611,-0.7942 -0.1779,-1.0396 -0.008,-0.1328 -0.003,-0.3199 0.0458,-0.5165 0.092,-0.1898 0.8907,-0.5049 1.1904,-0.3514 0.1184,0.1201 0.2075,0.2614 0.2371,0.3298 v 0 c 0.1679,0.365 0.008,0.797 -0.3569,0.9648 v 0 c -0.365,0.1679 -0.7969,0.008 -0.9648,-0.3569" /><path
           id="path276"
           style="fill:#1749b3;fill-opacity:1;fill-rule:nonzero;stroke:none"
           d="m 242.3782,569.845 c -0.0109,0.0421 8e-4,-0.0255 0.004,-0.1155 v 0 c 0.0374,0.4032 -0.2592,0.7603 -0.6623,0.7976 v 0 c -0.4031,0.0374 -0.7602,-0.2591 -0.7976,-0.6623 v 0 c -0.0374,-0.4031 0.2592,-0.7602 0.6623,-0.7976 v 0 c 0.4032,-0.0373 0.7603,0.2592 0.7976,0.6623 -0.0522,-0.1937 -0.7072,-0.6307 -0.9477,-0.5949 v 0 c 0.3824,-0.1423 0.8077,0.0523 0.95,0.4347 v 0 c 0.1423,0.3824 -0.0523,0.8078 -0.4347,0.95 v 0 c -0.3824,0.1423 -0.8078,-0.0523 -0.9501,-0.4347 v 0 c -0.1422,-0.3824 0.0524,-0.8077 0.4348,-0.95 -0.1608,0.0961 -0.175,0.0979 -0.0859,-0.0193 v 0 c 0.2602,-0.3224 0.7325,-0.3729 1.0549,-0.1127 v 0 c 0.3224,0.2602 0.3728,0.7325 0.1126,1.0549 v 0 c -0.2601,0.3224 -0.7324,0.3728 -1.0548,0.1126 v 0 c -0.3224,-0.2602 -0.3728,-0.7324 -0.1127,-1.0548 0.1912,-0.2475 0.4867,-0.6898 0.7886,-1.1531 v 0 c 0.238,-0.3544 0.7182,-0.4488 1.0726,-0.2108 v 0 c 0.3543,0.2379 0.4487,0.7181 0.2108,1.0725 v 0 c -0.2379,0.3544 -0.7181,0.4488 -1.0725,0.2108 v 0 c -0.3544,-0.2379 -0.4488,-0.7181 -0.2109,-1.0725 0.6093,-0.8295 1.3118,-1.7838 2.0171,-2.4152 v 0 c 0.2545,-0.2473 0.6612,-0.2416 0.9085,0.0128 v 0 c 0.2474,0.2544 0.2416,0.6612 -0.0128,0.9085 v 0 c -0.2544,0.2474 -0.6612,0.2416 -0.9085,-0.0128 v 0 c -0.2473,-0.2544 -0.2416,-0.6612 0.0128,-0.9085 0.3582,-0.3158 0.7947,-0.5959 1.2001,-0.7055 v 0 c 0.3053,-0.092 0.6273,0.0809 0.7193,0.3862 v 0 c 0.0919,0.3053 -0.081,0.6273 -0.3862,0.7192 v 0 c -0.3053,0.092 -0.6273,-0.0809 -0.7193,-0.3862 v 0 c -0.0919,-0.3052 0.081,-0.6273 0.3862,-0.7192 0.4193,-0.091 0.9816,0.0205 1.3502,0.3298 v 0 c 0.2186,0.1793 0.2506,0.5019 0.0713,0.7206 v 0 c -0.1793,0.2187 -0.5019,0.2506 -0.7206,0.0713 -0.1734,-0.135 -0.1892,-0.1055 -0.3678,-0.0163 -0.1926,0.0705 -0.374,0.2328 -0.6375,0.5214 -0.5381,0.5774 -1.0941,1.4803 -1.6294,2.3556 -0.32,0.4629 -0.6588,0.9401 -0.9045,1.2337 -0.1292,0.1532 -0.3123,0.3309 -0.5657,0.4615 -0.2877,0.0534 -0.9704,-0.4016 -1.0281,-0.6542 -0.002,-0.1491 0.0263,-0.3167 0.0576,-0.4217 v 0 c 0.111,-0.3861 0.5139,-0.6091 0.9,-0.4982 v 0 c 0.3861,0.111 0.6092,0.5139 0.4982,0.9" /><path
           id="path278"
           style="fill:#1749b3;fill-opacity:1;fill-rule:nonzero;stroke:none"
           d="m 245.9035,569.7876 c -1.0552,-0.0973 -2.6078,-1.2741 -3.7907,-2.1831 v 0 c -0.3686,-0.3014 -0.4231,-0.8445 -0.1218,-1.2131 v 0 c 0.3014,-0.3687 0.8445,-0.4232 1.2132,-0.1218 v 0 c 0.3686,0.3013 0.4231,0.8445 0.1217,1.2131 v 0 c -0.3013,0.3686 -0.8445,0.4231 -1.2131,0.1218 -0.797,-0.727 -1.6185,-1.4968 -1.9288,-2.0743 v 0 c -0.2002,-0.3224 -0.1012,-0.746 0.2211,-0.9462 v 0 c 0.3224,-0.2002 0.746,-0.1012 0.9462,0.2212 v 0 c 0.2002,0.3223 0.1012,0.7459 -0.2212,0.9461 v 0 c -0.3223,0.2002 -0.7459,0.1012 -0.9461,-0.2211 -0.0836,-0.1678 -0.1652,-0.4688 -0.1401,-0.718 v 0 c 0.0503,-0.3517 0.3761,-0.5962 0.7278,-0.5459 v 0 c 0.3518,0.0502 0.5962,0.376 0.546,0.7277 v 0 c -0.0503,0.3518 -0.3761,0.5962 -0.7278,0.546 v 0 c -0.3518,-0.0502 -0.5962,-0.3761 -0.546,-0.7278 0.087,-0.265 0.419,-0.5766 0.6426,-0.6358 v 0 c 0.3196,-0.0868 0.6489,0.1019 0.7357,0.4215 v 0 c 0.0867,0.3196 -0.102,0.6489 -0.4216,0.7357 v 0 c -0.3195,0.0867 -0.6489,-0.102 -0.7356,-0.4215 v 0 c -0.0868,-0.3196 0.1019,-0.649 0.4215,-0.7357 0.3432,-0.0465 0.8593,0.0294 1.5428,0.2246 v 0 c 0.2748,0.0667 0.4435,0.3436 0.3768,0.6184 v 0 c -0.0667,0.2748 -0.3435,0.4435 -0.6183,0.3768 -0.6408,-0.1264 -0.9257,-0.126 -0.9872,-0.0626 0.0214,-0.004 0.2502,-0.2146 0.317,-0.3394 0.005,-0.1093 -0.0132,-0.2313 0.0337,-0.1891 0.2118,0.2632 0.9896,0.8341 1.8529,1.4645 1.1205,0.9741 2.3913,2.0689 2.7936,2.0663 v 0 c 0.4009,0.026 0.7047,0.3721 0.6787,0.773 v 0 c -0.0261,0.4009 -0.3721,0.7047 -0.773,0.6787 z" /><path
           id="path280"
           style="fill:#1749b3;fill-opacity:1;fill-rule:nonzero;stroke:none"
           d="m 250.9792,572.7938 c 0.0149,0.1637 0.0132,0.3629 -0.0492,0.594 v 0 c -0.1362,0.3622 -0.5401,0.5453 -0.9022,0.4092 v 0 c -0.3621,-0.1362 -0.5453,-0.5401 -0.4091,-0.9022 v 0 c 0.1361,-0.3621 0.54,-0.5453 0.9021,-0.4091 v 0 c 0.3622,0.1361 0.5453,0.54 0.4092,0.9021 -0.627,0.47 -1.2602,0.1289 -1.3172,0.009 v 0 c -0.1752,-0.3281 -0.0511,-0.7362 0.277,-0.9114 v 0 c 0.3282,-0.1751 0.7362,-0.0511 0.9114,0.2771 v 0 c 0.1752,0.3281 0.0512,0.7362 -0.277,0.9113 v 0 c -0.3282,0.1752 -0.7362,0.0512 -0.9114,-0.277 -0.0757,-0.1847 -0.1821,-0.5086 -0.2954,-0.8784 v 0 c -0.1153,-0.3223 0.0525,-0.677 0.3747,-0.7923 v 0 c 0.3223,-0.1153 0.677,0.0525 0.7923,0.3747 v 0 c 0.1153,0.3223 -0.0525,0.677 -0.3747,0.7923 v 0 c -0.3223,0.1153 -0.677,-0.0525 -0.7923,-0.3747 -0.225,-0.7355 -0.5182,-1.7525 -0.6811,-2.3567 v 0 c -0.0892,-0.2684 0.0561,-0.5582 0.3245,-0.6474 v 0 c 0.2683,-0.0892 0.5582,0.0561 0.6473,0.3245 0.2324,0.5856 0.5902,1.5693 0.8763,2.262 0.1422,0.3444 0.2564,0.5915 0.3167,0.6616 0.0112,0.007 -0.5751,-0.2852 -1.1823,0.1322 -0.0429,0.1794 -0.0523,0.2258 -0.0784,0.1145 v 0 c -0.0594,-0.3974 0.2145,-0.7676 0.6118,-0.827 v 0 c 0.3973,-0.0594 0.7676,0.2146 0.827,0.6119 z" /><path
           id="path282"
           style="fill:#ed3624;fill-opacity:1;fill-rule:nonzero;stroke:none"
           d="m 318.9317,621.4824 c -0.0213,0.1149 -0.0964,0.0327 -0.1721,-0.0204 v 0 c 0.2602,0.2272 0.2869,0.6223 0.0597,0.8825 v 0 c -0.2273,0.2602 -0.6224,0.287 -0.8826,0.0597 v 0 c -0.2602,-0.2272 -0.2869,-0.6223 -0.0597,-0.8825 v 0 c 0.2272,-0.2602 0.6224,-0.2869 0.8826,-0.0597 -0.0606,-0.104 -0.3532,-0.2247 -0.4519,-0.2777 v 0 c 0.4324,-0.1171 0.8778,0.1385 0.9948,0.5708 v 0 c 0.1171,0.4323 -0.1384,0.8777 -0.5707,0.9948 v 0 c -0.4324,0.1171 -0.8778,-0.1384 -0.9949,-0.5708 v 0 c -0.117,-0.4323 0.1385,-0.8777 0.5708,-0.9948 -0.0833,-0.0297 -0.2066,-0.0302 -0.2181,-0.1051 v 0 c 0.4166,-0.3596 1.0459,-0.3133 1.4055,0.1033 v 0 c 0.3596,0.4167 0.3133,1.0459 -0.1033,1.4055 v 0 c -0.4166,0.3596 -1.0459,0.3134 -1.4055,-0.1033 v 0 c -0.3596,-0.4166 -0.3134,-1.0459 0.1033,-1.4055 0.1466,-0.1879 0.4403,-0.7656 0.8079,-1.5596 0.8395,-1.6127 1.9896,-3.5131 2.8467,-5.1726 0.5304,-1.0055 0.8219,-2.0051 1.0867,-2.8144 0.0698,-0.1798 0.1378,-0.4492 0.2882,-0.7856 0.1596,-0.3359 0.4735,-0.7555 0.7446,-0.9973 0.3139,-0.24 1.0241,-0.4889 1.5719,-0.4603 0.4208,0.1268 0.8928,0.4675 1.0418,0.6468 0.1202,0.1655 0.2415,0.3833 0.3033,0.5188 0.1144,0.2596 0.2021,0.5188 0.2723,0.6955 0.1749,0.4309 0.5272,0.9914 0.9296,1.9033 0.687,1.6433 1.4291,4.1462 2.1026,6.0255 0.3219,0.8738 0.6057,1.5487 0.853,2.1238 0.2001,0.4575 0.378,0.8526 0.521,1.2058 v 0 c 0.2742,0.6754 -0.0511,1.4451 -0.7264,1.7193 v 0 c -0.6753,0.2741 -1.4451,-0.0511 -1.7192,-0.7264 v 0 c -0.2742,-0.6753 0.051,-1.4451 0.7263,-1.7193 v 0 c 0.6754,-0.2741 1.4451,0.0511 1.7193,0.7264 0.1021,0.2709 0.2004,0.5674 0.2622,0.826 v 0 c 0.1814,0.694 -0.2341,1.4036 -0.9281,1.5849 v 0 c -0.6939,0.1814 -1.4035,-0.2341 -1.5849,-0.9281 v 0 c -0.1814,-0.6939 0.2341,-1.4035 0.9281,-1.5849 v 0 c 0.6939,-0.1814 1.4035,0.2342 1.5849,0.9281 0.021,0.1809 0.0386,0.4137 0.0314,0.5965 v 0 c 0.0593,0.6737 -0.4388,1.268 -1.1125,1.3273 v 0 c -0.6737,0.0594 -1.268,-0.4387 -1.3273,-1.1124 v 0 c -0.0594,-0.6738 0.4387,-1.268 1.1124,-1.3274 v 0 c 0.6738,-0.0593 1.268,0.4388 1.3274,1.1125 -0.1813,0.3638 -0.4412,0.7676 -0.7474,1.0148 v 0 c -0.1146,0.313 -0.4613,0.4738 -0.7743,0.3592 v 0 c -0.3131,-0.1147 -0.4739,-0.4613 -0.3592,-0.7744 -0.1328,-0.2263 -0.3354,-0.2691 -0.5589,-0.3847 -0.0283,-0.057 -0.0567,-0.0721 -0.1046,-0.1546 -0.0414,-0.1365 -0.0979,-0.2703 -0.1948,-0.4899 -0.1225,-0.3006 -0.2891,-0.6665 -0.496,-1.136 -0.2617,-0.5842 -0.5845,-1.3282 -0.9349,-2.2492 -0.7584,-1.9441 -1.5381,-4.3776 -2.2065,-5.8169 -0.3278,-0.7489 -0.6702,-1.2836 -0.9537,-1.9362 -0.1122,-0.2542 -0.1921,-0.4673 -0.2532,-0.5809 -0.0263,-0.0519 0.005,0.004 0.0308,0.0492 0.054,0.0589 0.4265,0.3216 0.7405,0.43 0.2791,-0.0178 0.6923,-0.1554 0.7287,-0.1718 -0.006,-0.0183 0.05,-0.102 0.0202,-0.0348 -0.0286,0.0444 -0.0622,0.2188 -0.1789,0.5517 -0.2987,0.7406 -0.7265,1.9388 -1.4144,3.1391 -0.9903,1.6854 -2.2318,3.5386 -3.1198,5.0304 -0.5161,0.7939 -1.0843,1.5414 -1.5847,1.9118 -0.1732,0.0646 -0.4447,0.1556 -0.6594,0.1616 -0.231,-0.0172 -0.6391,-0.1579 -0.7954,-0.3454 -0.2038,-0.165 -0.3723,-0.4721 -0.4451,-0.7141 v 0 c -0.0573,-0.3976 0.2185,-0.7665 0.6161,-0.8239 v 0 c 0.3976,-0.0574 0.7664,0.2184 0.8238,0.616 z" /></g></g></g></svg>