<?xml version="1.0" encoding="UTF-8" standalone="no"?>
<svg
   xmlns:dc="http://purl.org/dc/elements/1.1/"
   xmlns:cc="http://creativecommons.org/ns#"
   xmlns:rdf="http://www.w3.org/1999/02/22-rdf-syntax-ns#"
   xmlns:svg="http://www.w3.org/2000/svg"
   xmlns="http://www.w3.org/2000/svg"
   viewBox="0 0 639.13416 617.15918"
   height="617.15918"
   width="639.13416"
   xml:space="preserve"
   id="svg2"
   version="1.1"><metadata
     id="metadata8"><rdf:RDF><cc:Work
         rdf:about=""><dc:format>image/svg+xml</dc:format><dc:type
           rdf:resource="http://purl.org/dc/dcmitype/StillImage" /></cc:Work></rdf:RDF></metadata><defs
     id="defs6"><clipPath
       id="clipPath14"
       clipPathUnits="userSpaceOnUse"><path
         id="path12"
         d="M 0,0 H 612 V 792 H 0 Z" /></clipPath><clipPath
       id="clipPath24"
       clipPathUnits="userSpaceOnUse"><path
         id="path22"
         d="M 0,0 H 612 V 792 H 0 Z" /></clipPath><clipPath
       id="clipPath86"
       clipPathUnits="userSpaceOnUse"><path
         id="path84"
         d="m 59.14286,72 h 493.7143 V 720 H 59.14286 Z" /></clipPath><clipPath
       id="clipPath96"
       clipPathUnits="userSpaceOnUse"><path
         id="path94"
         d="M 0,0 H 612 V 792 H 0 Z" /></clipPath><clipPath
       id="clipPath106"
       clipPathUnits="userSpaceOnUse"><path
         id="path104"
         d="m 59.14286,72 h 493.7143 V 720 H 59.14286 Z" /></clipPath><clipPath
       id="clipPath116"
       clipPathUnits="userSpaceOnUse"><path
         id="path114"
         d="M 0,0 H 612 V 792 H 0 Z" /></clipPath><clipPath
       id="clipPath126"
       clipPathUnits="userSpaceOnUse"><path
         id="path124"
         d="m 59.14286,72 h 493.7143 V 720 H 59.14286 Z" /></clipPath><clipPath
       id="clipPath136"
       clipPathUnits="userSpaceOnUse"><path
         id="path134"
         d="M 0,0 H 612 V 792 H 0 Z" /></clipPath><clipPath
       id="clipPath146"
       clipPathUnits="userSpaceOnUse"><path
         id="path144"
         d="m 59.14286,72 h 493.7143 V 720 H 59.14286 Z" /></clipPath><clipPath
       id="clipPath156"
       clipPathUnits="userSpaceOnUse"><path
         id="path154"
         d="M 0,0 H 612 V 792 H 0 Z" /></clipPath><clipPath
       id="clipPath166"
       clipPathUnits="userSpaceOnUse"><path
         id="path164"
         d="m 59.14286,72 h 493.7143 V 720 H 59.14286 Z" /></clipPath><clipPath
       id="clipPath192"
       clipPathUnits="userSpaceOnUse"><path
         id="path190"
         d="M 0,0 H 612 V 792 H 0 Z" /></clipPath><clipPath
       id="clipPath202"
       clipPathUnits="userSpaceOnUse"><path
         id="path200"
         d="m 59.14286,72 h 493.7143 V 720 H 59.14286 Z" /></clipPath><clipPath
       id="clipPath212"
       clipPathUnits="userSpaceOnUse"><path
         id="path210"
         d="M 0,0 H 612 V 792 H 0 Z" /></clipPath><clipPath
       id="clipPath222"
       clipPathUnits="userSpaceOnUse"><path
         id="path220"
         d="m 59.14286,72 h 493.7143 V 720 H 59.14286 Z" /></clipPath><clipPath
       id="clipPath232"
       clipPathUnits="userSpaceOnUse"><path
         id="path230"
         d="M 0,0 H 612 V 792 H 0 Z" /></clipPath><clipPath
       id="clipPath242"
       clipPathUnits="userSpaceOnUse"><path
         id="path240"
         d="m 59.14286,72 h 493.7143 V 720 H 59.14286 Z" /></clipPath><clipPath
       id="clipPath252"
       clipPathUnits="userSpaceOnUse"><path
         id="path250"
         d="M 0,0 H 612 V 792 H 0 Z" /></clipPath><clipPath
       id="clipPath262"
       clipPathUnits="userSpaceOnUse"><path
         id="path260"
         d="m 59.14286,72 h 493.7143 V 720 H 59.14286 Z" /></clipPath><clipPath
       id="clipPath272"
       clipPathUnits="userSpaceOnUse"><path
         id="path270"
         d="M 0,0 H 612 V 792 H 0 Z" /></clipPath><clipPath
       id="clipPath282"
       clipPathUnits="userSpaceOnUse"><path
         id="path280"
         d="m 59.14286,72 h 493.7143 V 720 H 59.14286 Z" /></clipPath><clipPath
       id="clipPath292"
       clipPathUnits="userSpaceOnUse"><path
         id="path290"
         d="M 0,0 H 612 V 792 H 0 Z" /></clipPath><clipPath
       id="clipPath302"
       clipPathUnits="userSpaceOnUse"><path
         id="path300"
         d="m 59.14286,72 h 493.7143 V 720 H 59.14286 Z" /></clipPath><clipPath
       id="clipPath312"
       clipPathUnits="userSpaceOnUse"><path
         id="path310"
         d="M 0,0 H 612 V 792 H 0 Z" /></clipPath><clipPath
       id="clipPath322"
       clipPathUnits="userSpaceOnUse"><path
         id="path320"
         d="m 59.14286,72 h 493.7143 V 720 H 59.14286 Z" /></clipPath><clipPath
       id="clipPath332"
       clipPathUnits="userSpaceOnUse"><path
         id="path330"
         d="M 0,0 H 612 V 792 H 0 Z" /></clipPath><clipPath
       id="clipPath342"
       clipPathUnits="userSpaceOnUse"><path
         id="path340"
         d="m 59.14286,72 h 493.7143 V 720 H 59.14286 Z" /></clipPath><clipPath
       id="clipPath352"
       clipPathUnits="userSpaceOnUse"><path
         id="path350"
         d="M 0,0 H 612 V 792 H 0 Z" /></clipPath><clipPath
       id="clipPath362"
       clipPathUnits="userSpaceOnUse"><path
         id="path360"
         d="m 59.14286,72 h 493.7143 V 720 H 59.14286 Z" /></clipPath><clipPath
       id="clipPath372"
       clipPathUnits="userSpaceOnUse"><path
         id="path370"
         d="M 0,0 H 612 V 792 H 0 Z" /></clipPath><clipPath
       id="clipPath382"
       clipPathUnits="userSpaceOnUse"><path
         id="path380"
         d="m 59.14286,72 h 493.7143 V 720 H 59.14286 Z" /></clipPath><clipPath
       id="clipPath392"
       clipPathUnits="userSpaceOnUse"><path
         id="path390"
         d="M 0,0 H 612 V 792 H 0 Z" /></clipPath><clipPath
       id="clipPath402"
       clipPathUnits="userSpaceOnUse"><path
         id="path400"
         d="m 59.14286,72 h 493.7143 V 720 H 59.14286 Z" /></clipPath><clipPath
       id="clipPath412"
       clipPathUnits="userSpaceOnUse"><path
         id="path410"
         d="M 0,0 H 612 V 792 H 0 Z" /></clipPath><clipPath
       id="clipPath422"
       clipPathUnits="userSpaceOnUse"><path
         id="path420"
         d="m 59.14286,72 h 493.7143 V 720 H 59.14286 Z" /></clipPath><clipPath
       id="clipPath432"
       clipPathUnits="userSpaceOnUse"><path
         id="path430"
         d="M 0,0 H 612 V 792 H 0 Z" /></clipPath><clipPath
       id="clipPath442"
       clipPathUnits="userSpaceOnUse"><path
         id="path440"
         d="m 59.14286,72 h 493.7143 V 720 H 59.14286 Z" /></clipPath><clipPath
       id="clipPath452"
       clipPathUnits="userSpaceOnUse"><path
         id="path450"
         d="M 0,0 H 612 V 792 H 0 Z" /></clipPath><clipPath
       id="clipPath462"
       clipPathUnits="userSpaceOnUse"><path
         id="path460"
         d="m 59.14286,72 h 493.7143 V 720 H 59.14286 Z" /></clipPath><clipPath
       id="clipPath488"
       clipPathUnits="userSpaceOnUse"><path
         id="path486"
         d="M 0,0 H 612 V 792 H 0 Z" /></clipPath><clipPath
       id="clipPath498"
       clipPathUnits="userSpaceOnUse"><path
         id="path496"
         d="m 59.14286,72 h 493.7143 V 720 H 59.14286 Z" /></clipPath><clipPath
       id="clipPath508"
       clipPathUnits="userSpaceOnUse"><path
         id="path506"
         d="M 0,0 H 612 V 792 H 0 Z" /></clipPath><clipPath
       id="clipPath518"
       clipPathUnits="userSpaceOnUse"><path
         id="path516"
         d="m 59.14286,72 h 493.7143 V 720 H 59.14286 Z" /></clipPath><clipPath
       id="clipPath528"
       clipPathUnits="userSpaceOnUse"><path
         id="path526"
         d="M 0,0 H 612 V 792 H 0 Z" /></clipPath><clipPath
       id="clipPath538"
       clipPathUnits="userSpaceOnUse"><path
         id="path536"
         d="m 59.14286,72 h 493.7143 V 720 H 59.14286 Z" /></clipPath><clipPath
       id="clipPath548"
       clipPathUnits="userSpaceOnUse"><path
         id="path546"
         d="M 0,0 H 612 V 792 H 0 Z" /></clipPath><clipPath
       id="clipPath558"
       clipPathUnits="userSpaceOnUse"><path
         id="path556"
         d="m 59.14286,72 h 493.7143 V 720 H 59.14286 Z" /></clipPath><clipPath
       id="clipPath568"
       clipPathUnits="userSpaceOnUse"><path
         id="path566"
         d="M 0,0 H 612 V 792 H 0 Z" /></clipPath><clipPath
       id="clipPath578"
       clipPathUnits="userSpaceOnUse"><path
         id="path576"
         d="m 59.14286,72 h 493.7143 V 720 H 59.14286 Z" /></clipPath><clipPath
       id="clipPath588"
       clipPathUnits="userSpaceOnUse"><path
         id="path586"
         d="M 0,0 H 612 V 792 H 0 Z" /></clipPath><clipPath
       id="clipPath598"
       clipPathUnits="userSpaceOnUse"><path
         id="path596"
         d="m 59.14286,72 h 493.7143 V 720 H 59.14286 Z" /></clipPath><clipPath
       id="clipPath608"
       clipPathUnits="userSpaceOnUse"><path
         id="path606"
         d="M 0,0 H 612 V 792 H 0 Z" /></clipPath><clipPath
       id="clipPath618"
       clipPathUnits="userSpaceOnUse"><path
         id="path616"
         d="m 59.14286,72 h 493.7143 V 720 H 59.14286 Z" /></clipPath><clipPath
       id="clipPath628"
       clipPathUnits="userSpaceOnUse"><path
         id="path626"
         d="M 0,0 H 612 V 792 H 0 Z" /></clipPath><clipPath
       id="clipPath638"
       clipPathUnits="userSpaceOnUse"><path
         id="path636"
         d="m 59.14286,72 h 493.7143 V 720 H 59.14286 Z" /></clipPath><clipPath
       id="clipPath648"
       clipPathUnits="userSpaceOnUse"><path
         id="path646"
         d="M 0,0 H 612 V 792 H 0 Z" /></clipPath><clipPath
       id="clipPath658"
       clipPathUnits="userSpaceOnUse"><path
         id="path656"
         d="m 59.14286,72 h 493.7143 V 720 H 59.14286 Z" /></clipPath><clipPath
       id="clipPath668"
       clipPathUnits="userSpaceOnUse"><path
         id="path666"
         d="M 0,0 H 612 V 792 H 0 Z" /></clipPath><clipPath
       id="clipPath678"
       clipPathUnits="userSpaceOnUse"><path
         id="path676"
         d="m 59.14286,72 h 493.7143 V 720 H 59.14286 Z" /></clipPath><clipPath
       id="clipPath688"
       clipPathUnits="userSpaceOnUse"><path
         id="path686"
         d="M 0,0 H 612 V 792 H 0 Z" /></clipPath><clipPath
       id="clipPath698"
       clipPathUnits="userSpaceOnUse"><path
         id="path696"
         d="m 59.14286,72 h 493.7143 V 720 H 59.14286 Z" /></clipPath><clipPath
       id="clipPath708"
       clipPathUnits="userSpaceOnUse"><path
         id="path706"
         d="M 0,0 H 612 V 792 H 0 Z" /></clipPath><clipPath
       id="clipPath718"
       clipPathUnits="userSpaceOnUse"><path
         id="path716"
         d="m 59.14286,72 h 493.7143 V 720 H 59.14286 Z" /></clipPath></defs><g
     clip-path="url(#clipPath14)"
     transform="matrix(1.3333333,0,0,-1.3333333,-85.035707,954.85307)"
     id="g10"><g
       id="g16" /><g
       id="g18"><g
         clip-path="url(#clipPath24)"
         id="g20"><g
           transform="matrix(0.8456908,0,0,0.8456908,72,720)"
           id="g26"><text
             id="text30"
             style="font-variant:normal;font-weight:normal;font-size:13px;writing-mode:lr-tb;fill:#000000;fill-opacity:0;fill-rule:nonzero;stroke:none"
             transform="matrix(1,0,0,-1,242.3155,-30.7304)"><tspan
               id="tspan28"
               y="0"
               x="0">x</tspan></text>
</g><g
           transform="matrix(0.8456908,0,0,0.8456908,72,720)"
           id="g32"><text
             id="text36"
             style="font-variant:normal;font-weight:normal;font-size:12px;writing-mode:lr-tb;fill:#000000;fill-opacity:0;fill-rule:nonzero;stroke:none"
             transform="matrix(1,0,0,-1,449.3414,-27.79778)"><tspan
               id="tspan34"
               y="0"
               x="0">n</tspan></text>
</g><g
           transform="matrix(0.8456908,0,0,0.8456908,72,720)"
           id="g38"><text
             id="text42"
             style="font-variant:normal;font-weight:normal;font-size:19px;writing-mode:lr-tb;fill:#000000;fill-opacity:0;fill-rule:nonzero;stroke:none"
             transform="matrix(1,0,0,-1,227.0289,-41.43352)"><tspan
               id="tspan40"
               y="0"
               x="0">E</tspan></text>
</g><g
           transform="matrix(0.8456908,0,0,0.8456908,72,720)"
           id="g44"><text
             id="text48"
             style="font-variant:normal;font-weight:normal;font-size:21px;writing-mode:lr-tb;fill:#000000;fill-opacity:0;fill-rule:nonzero;stroke:none"
             transform="matrix(1,0,0,-1,444.4254,-44.33977)"><tspan
               id="tspan46"
               y="0"
               x="0 11.1657 16.7034">e's</tspan></text>
</g><g
           transform="matrix(0.8456908,0,0,0.8456908,72,720)"
           id="g50"><text
             id="text54"
             style="font-variant:normal;font-weight:normal;font-size:12px;writing-mode:lr-tb;fill:#000000;fill-opacity:0;fill-rule:nonzero;stroke:none"
             transform="matrix(1,0,0,-1,232.6695,-306.4365)"><tspan
               id="tspan52"
               y="0"
               x="0">n</tspan></text>
</g><g
           transform="matrix(0.8456908,0,0,0.8456908,72,720)"
           id="g56"><text
             id="text60"
             style="font-variant:normal;font-weight:normal;font-size:12px;writing-mode:lr-tb;fill:#000000;fill-opacity:0;fill-rule:nonzero;stroke:none"
             transform="matrix(1,0,0,-1,453.2867,-304.6161)"><tspan
               id="tspan58"
               y="0"
               x="0">n</tspan></text>
</g><g
           transform="matrix(0.8456908,0,0,0.8456908,72,720)"
           id="g62"><text
             id="text66"
             style="font-variant:normal;font-weight:normal;font-size:22px;writing-mode:lr-tb;fill:#000000;fill-opacity:0;fill-rule:nonzero;stroke:none"
             transform="matrix(1,0,0,-1,226.7193,-326.3095)"><tspan
               id="tspan64"
               y="0"
               x="0 12.342">EX</tspan></text>
</g><g
           transform="matrix(0.8456908,0,0,0.8456908,72,720)"
           id="g68"><text
             id="text72"
             style="font-variant:normal;font-weight:normal;font-size:19px;writing-mode:lr-tb;fill:#000000;fill-opacity:0;fill-rule:nonzero;stroke:none"
             transform="matrix(1,0,0,-1,451.7354,-321.5507)"><tspan
               id="tspan70"
               y="0"
               x="0 10.7996">EY</tspan></text>
</g><g
           transform="matrix(0.8456908,0,0,0.8456908,72,720)"
           id="g74"><text
             id="text78"
             style="font-variant:normal;font-weight:normal;font-size:26px;writing-mode:lr-tb;fill:#000000;fill-opacity:0;fill-rule:nonzero;stroke:none"
             transform="matrix(1,0,0,-1,431.6256,-419.454)"><tspan
               id="tspan76"
               y="0"
               x="0 14.677">Ey</tspan></text>
</g></g></g><g
       id="g80"><g
         clip-path="url(#clipPath86)"
         id="g82"><path
           id="path88"
           style="fill:#000000;fill-opacity:1;fill-rule:nonzero;stroke:none"
           d="m 66.40399,609.5943 c -0.53256,0 -0.96428,0.4318 -0.96428,0.9643 0,0.5326 0.43172,0.9643 0.96428,0.9643 H 285.852 c 0.5325,0 0.9642,-0.4317 0.9642,-0.9643 0,-0.5325 -0.4317,-0.9643 -0.9642,-0.9643 z" /></g></g><g
       id="g90"><g
         clip-path="url(#clipPath96)"
         id="g92"><path
           id="path98"
           style="fill:#000000;fill-opacity:1;fill-rule:nonzero;stroke:none"
           d="m 285.852,616.0688 12.6734,-5.5102 -12.6734,-5.5102 z" /></g></g><g
       id="g100"><g
         clip-path="url(#clipPath106)"
         id="g102"><path
           id="path108"
           style="fill:#000000;fill-opacity:1;fill-rule:nonzero;stroke:none"
           d="m 182.9469,506.9997 c 0,-0.5326 -0.4318,-0.9643 -0.9643,-0.9643 -0.5326,0 -0.9643,0.4317 -0.9643,0.9643 v 195.4087 c 0,0.5326 0.4317,0.9643 0.9643,0.9643 0.5325,0 0.9643,-0.4317 0.9643,-0.9643 z" /></g></g><g
       id="g110"><g
         clip-path="url(#clipPath116)"
         id="g112"><path
           id="path118"
           style="fill:#000000;fill-opacity:1;fill-rule:nonzero;stroke:none"
           d="m 176.4724,702.4084 5.5102,12.6735 5.5102,-12.6735 z" /></g></g><g
       id="g120"><g
         clip-path="url(#clipPath126)"
         id="g122"><path
           id="path128"
           style="fill:#000000;fill-opacity:1;fill-rule:nonzero;stroke:none"
           d="m 310.8184,609.5943 c -0.5325,0 -0.9643,0.4318 -0.9643,0.9643 0,0.5326 0.4318,0.9643 0.9643,0.9643 h 219.448 c 0.5326,0 0.9643,-0.4317 0.9643,-0.9643 0,-0.5325 -0.4317,-0.9643 -0.9643,-0.9643 z" /></g></g><g
       id="g130"><g
         clip-path="url(#clipPath136)"
         id="g132"><path
           id="path138"
           style="fill:#000000;fill-opacity:1;fill-rule:nonzero;stroke:none"
           d="m 530.2664,616.0688 12.6735,-5.5102 -12.6735,-5.5102 z" /></g></g><g
       id="g140"><g
         clip-path="url(#clipPath146)"
         id="g142"><path
           id="path148"
           style="fill:#000000;fill-opacity:1;fill-rule:nonzero;stroke:none"
           d="m 427.3613,506.9997 c 0,-0.5326 -0.4317,-0.9643 -0.9643,-0.9643 -0.5326,0 -0.9643,0.4317 -0.9643,0.9643 v 195.4087 c 0,0.5326 0.4317,0.9643 0.9643,0.9643 0.5326,0 0.9643,-0.4317 0.9643,-0.9643 z" /></g></g><g
       id="g150"><g
         clip-path="url(#clipPath156)"
         id="g152"><path
           id="path158"
           style="fill:#000000;fill-opacity:1;fill-rule:nonzero;stroke:none"
           d="m 420.8868,702.4084 5.5102,12.6735 5.5102,-12.6735 z" /></g></g><g
       id="g160"><g
         clip-path="url(#clipPath166)"
         id="g162"><path
           id="path168"
           style="fill:#1749b3;fill-opacity:1;fill-rule:nonzero;stroke:none"
           d="m 214.9365,709.5379 c 0,0.5326 0.4317,0.9643 0.9643,0.9643 0.5325,0 0.9643,-0.4317 0.9643,-0.9643 V 502.7613 c 0,-0.5326 -0.4318,-0.9643 -0.9643,-0.9643 -0.5326,0 -0.9643,0.4317 -0.9643,0.9643 z" /><path
           id="path170"
           style="fill:#1749b3;fill-opacity:1;fill-rule:nonzero;stroke:none"
           d="m 148.5312,709.5379 c 0,0.5326 0.4317,0.9643 0.9643,0.9643 0.5325,0 0.9643,-0.4317 0.9643,-0.9643 V 502.7613 c 0,-0.5326 -0.4318,-0.9643 -0.9643,-0.9643 -0.5326,0 -0.9643,0.4317 -0.9643,0.9643 z" /><path
           id="path172"
           style="fill:#1749b3;fill-opacity:1;fill-rule:nonzero;stroke:none"
           d="m 117.6449,709.5379 c 0,0.5326 0.4317,0.9643 0.9643,0.9643 0.5326,0 0.9643,-0.4317 0.9643,-0.9643 V 502.7613 c 0,-0.5326 -0.4317,-0.9643 -0.9643,-0.9643 -0.5326,0 -0.9643,0.4317 -0.9643,0.9643 z" /><path
           id="path174"
           style="fill:#1749b3;fill-opacity:1;fill-rule:nonzero;stroke:none"
           d="m 249.8501,709.5379 c 0,0.5326 0.4317,0.9643 0.9643,0.9643 0.5325,0 0.9643,-0.4317 0.9643,-0.9643 V 502.7613 c 0,-0.5326 -0.4318,-0.9643 -0.9643,-0.9643 -0.5326,0 -0.9643,0.4317 -0.9643,0.9643 z" /><path
           id="path176"
           style="fill:#1749b3;fill-opacity:1;fill-rule:nonzero;stroke:none"
           d="m 534.42,643.2407 c 0.5325,0.008 0.9705,-0.4177 0.9782,-0.9502 0.008,-0.5325 -0.4177,-0.9704 -0.9502,-0.9782 l -216.074,-3.1332 c -0.5325,-0.008 -0.9705,0.4177 -0.9782,0.9502 -0.008,0.5326 0.4177,0.9705 0.9502,0.9782 z" /><path
           id="path178"
           style="fill:#1749b3;fill-opacity:1;fill-rule:nonzero;stroke:none"
           d="m 534.42,676.4949 c 0.5325,0.008 0.9705,-0.4177 0.9782,-0.9502 0.008,-0.5325 -0.4177,-0.9704 -0.9502,-0.9781 l -216.074,-3.1332 c -0.5325,-0.008 -0.9705,0.4177 -0.9782,0.9502 -0.008,0.5325 0.4177,0.9704 0.9502,0.9781 z" /><path
           id="path180"
           style="fill:#1749b3;fill-opacity:1;fill-rule:nonzero;stroke:none"
           d="m 534.42,583.6566 c 0.5325,0.008 0.9705,-0.4177 0.9782,-0.9502 0.008,-0.5325 -0.4177,-0.9704 -0.9502,-0.9781 l -216.074,-3.1332 c -0.5325,-0.008 -0.9705,0.4177 -0.9782,0.9502 -0.008,0.5325 0.4177,0.9704 0.9502,0.9781 z" /><path
           id="path182"
           style="fill:#1749b3;fill-opacity:1;fill-rule:nonzero;stroke:none"
           d="m 534.42,549.4247 c 0.5325,0.008 0.9705,-0.4177 0.9782,-0.9502 0.008,-0.5325 -0.4177,-0.9704 -0.9502,-0.9781 l -216.074,-3.1332 c -0.5325,-0.008 -0.9705,0.4177 -0.9782,0.9502 -0.008,0.5325 0.4177,0.9704 0.9502,0.9781 z" /><path
           id="path184"
           style="fill:#1749b3;fill-opacity:1;fill-rule:nonzero;stroke:none"
           d="m 181.9826,660.4816 c -0.5326,0 -0.9643,0.4317 -0.9643,0.9642 0,0.5326 0.4317,0.9643 0.9643,0.9643 h 9.5171 c 0.5326,0 0.9643,-0.4317 0.9643,-0.9643 0,-0.5325 -0.4317,-0.9642 -0.9643,-0.9642 z" /></g></g><g
       id="g186"><g
         clip-path="url(#clipPath192)"
         id="g188"><path
           id="path194"
           style="fill:#1749b3;fill-opacity:1;fill-rule:nonzero;stroke:none"
           d="m 191.4997,666.9561 12.6735,-5.5103 -12.6735,-5.5102 z" /></g></g><g
       id="g196"><g
         clip-path="url(#clipPath202)"
         id="g198"><path
           id="path204"
           style="fill:#1749b3;fill-opacity:1;fill-rule:nonzero;stroke:none"
           d="m 215.9008,660.4816 c -0.5326,0 -0.9643,0.4317 -0.9643,0.9642 0,0.5326 0.4317,0.9643 0.9643,0.9643 h 9.5171 c 0.5326,0 0.9643,-0.4317 0.9643,-0.9643 0,-0.5325 -0.4317,-0.9642 -0.9643,-0.9642 z" /></g></g><g
       id="g206"><g
         clip-path="url(#clipPath212)"
         id="g208"><path
           id="path214"
           style="fill:#1749b3;fill-opacity:1;fill-rule:nonzero;stroke:none"
           d="m 225.4179,666.9561 12.6735,-5.5103 -12.6735,-5.5102 z" /></g></g><g
       id="g216"><g
         clip-path="url(#clipPath222)"
         id="g218"><path
           id="path224"
           style="fill:#1749b3;fill-opacity:1;fill-rule:nonzero;stroke:none"
           d="m 250.8144,660.4816 c -0.5326,0 -0.9643,0.4317 -0.9643,0.9642 0,0.5326 0.4317,0.9643 0.9643,0.9643 h 9.5171 c 0.5326,0 0.9643,-0.4317 0.9643,-0.9643 0,-0.5325 -0.4317,-0.9642 -0.9643,-0.9642 z" /></g></g><g
       id="g226"><g
         clip-path="url(#clipPath232)"
         id="g228"><path
           id="path234"
           style="fill:#1749b3;fill-opacity:1;fill-rule:nonzero;stroke:none"
           d="m 260.3315,666.9561 12.6735,-5.5103 -12.6735,-5.5102 z" /></g></g><g
       id="g236"><g
         clip-path="url(#clipPath242)"
         id="g238"><path
           id="path244"
           style="fill:#1749b3;fill-opacity:1;fill-rule:nonzero;stroke:none"
           d="m 149.4955,660.4816 c -0.5326,0 -0.9643,0.4317 -0.9643,0.9642 0,0.5326 0.4317,0.9643 0.9643,0.9643 h 9.5171 c 0.5326,0 0.9643,-0.4317 0.9643,-0.9643 0,-0.5325 -0.4317,-0.9642 -0.9643,-0.9642 z" /></g></g><g
       id="g246"><g
         clip-path="url(#clipPath252)"
         id="g248"><path
           id="path254"
           style="fill:#1749b3;fill-opacity:1;fill-rule:nonzero;stroke:none"
           d="m 159.0126,666.9561 12.6735,-5.5103 -12.6735,-5.5102 z" /></g></g><g
       id="g256"><g
         clip-path="url(#clipPath262)"
         id="g258"><path
           id="path264"
           style="fill:#1749b3;fill-opacity:1;fill-rule:nonzero;stroke:none"
           d="m 118.6092,660.4816 c -0.5326,0 -0.9643,0.4317 -0.9643,0.9642 0,0.5326 0.4317,0.9643 0.9643,0.9643 h 9.5172 c 0.5325,0 0.9642,-0.4317 0.9642,-0.9643 0,-0.5325 -0.4317,-0.9642 -0.9642,-0.9642 z" /></g></g><g
       id="g266"><g
         clip-path="url(#clipPath272)"
         id="g268"><path
           id="path274"
           style="fill:#1749b3;fill-opacity:1;fill-rule:nonzero;stroke:none"
           d="m 128.1264,666.9561 12.6734,-5.5103 -12.6734,-5.5102 z" /></g></g><g
       id="g276"><g
         clip-path="url(#clipPath282)"
         id="g278"><path
           id="path284"
           style="fill:#1749b3;fill-opacity:1;fill-rule:nonzero;stroke:none"
           d="m 377.6259,610.5586 c 0,-0.5325 -0.4318,-0.9643 -0.9643,-0.9643 -0.5326,0 -0.9643,0.4318 -0.9643,0.9643 v 8.8075 c 0,0.5325 0.4317,0.9642 0.9643,0.9642 0.5325,0 0.9643,-0.4317 0.9643,-0.9642 z" /></g></g><g
       id="g286"><g
         clip-path="url(#clipPath292)"
         id="g288"><path
           id="path294"
           style="fill:#1749b3;fill-opacity:1;fill-rule:nonzero;stroke:none"
           d="m 371.1514,619.3661 5.5102,12.6734 5.5102,-12.6734 z" /></g></g><g
       id="g296"><g
         clip-path="url(#clipPath302)"
         id="g298"><path
           id="path304"
           style="fill:#1749b3;fill-opacity:1;fill-rule:nonzero;stroke:none"
           d="m 378.1609,639.9965 c 0,-0.5326 -0.4317,-0.9643 -0.9643,-0.9643 -0.5325,0 -0.9643,0.4317 -0.9643,0.9643 v 8.8074 c 0,0.5326 0.4318,0.9643 0.9643,0.9643 0.5326,0 0.9643,-0.4317 0.9643,-0.9643 z" /></g></g><g
       id="g306"><g
         clip-path="url(#clipPath312)"
         id="g308"><path
           id="path314"
           style="fill:#1749b3;fill-opacity:1;fill-rule:nonzero;stroke:none"
           d="m 371.6864,648.8039 5.5102,12.6735 5.5102,-12.6735 z" /></g></g><g
       id="g316"><g
         clip-path="url(#clipPath322)"
         id="g318"><path
           id="path324"
           style="fill:#1749b3;fill-opacity:1;fill-rule:nonzero;stroke:none"
           d="m 377.5068,580.4029 c 0,-0.5325 -0.4317,-0.9642 -0.9643,-0.9642 -0.5325,0 -0.9643,0.4317 -0.9643,0.9642 v 8.8075 c 0,0.5325 0.4318,0.9643 0.9643,0.9643 0.5326,0 0.9643,-0.4318 0.9643,-0.9643 z" /></g></g><g
       id="g326"><g
         clip-path="url(#clipPath332)"
         id="g328"><path
           id="path334"
           style="fill:#1749b3;fill-opacity:1;fill-rule:nonzero;stroke:none"
           d="m 371.0323,589.2104 5.5102,12.6734 5.5102,-12.6734 z" /></g></g><g
       id="g336"><g
         clip-path="url(#clipPath342)"
         id="g338"><path
           id="path344"
           style="fill:#1749b3;fill-opacity:1;fill-rule:nonzero;stroke:none"
           d="m 377.1673,546.1661 c 0,-0.5326 -0.4317,-0.9643 -0.9643,-0.9643 -0.5326,0 -0.9643,0.4317 -0.9643,0.9643 v 8.8074 c 0,0.5326 0.4317,0.9643 0.9643,0.9643 0.5326,0 0.9643,-0.4317 0.9643,-0.9643 z" /></g></g><g
       id="g346"><g
         clip-path="url(#clipPath352)"
         id="g348"><path
           id="path354"
           style="fill:#1749b3;fill-opacity:1;fill-rule:nonzero;stroke:none"
           d="m 370.6928,554.9735 5.5102,12.6735 5.5102,-12.6735 z" /></g></g><g
       id="g356"><g
         clip-path="url(#clipPath362)"
         id="g358"><path
           id="path364"
           style="fill:#1749b3;fill-opacity:1;fill-rule:nonzero;stroke:none"
           d="m 377.3855,673.2395 c 0,-0.5326 -0.4318,-0.9643 -0.9643,-0.9643 -0.5326,0 -0.9643,0.4317 -0.9643,0.9643 v 8.8074 c 0,0.5326 0.4317,0.9643 0.9643,0.9643 0.5325,0 0.9643,-0.4317 0.9643,-0.9643 z" /></g></g><g
       id="g366"><g
         clip-path="url(#clipPath372)"
         id="g368"><path
           id="path374"
           style="fill:#1749b3;fill-opacity:1;fill-rule:nonzero;stroke:none"
           d="m 370.911,682.0469 5.5102,12.6735 5.5102,-12.6735 z" /></g></g><g
       id="g376"><g
         clip-path="url(#clipPath382)"
         id="g378"><path
           id="path384"
           style="fill:#000000;fill-opacity:1;fill-rule:nonzero;stroke:none"
           d="m 66.40399,363.1178 c -0.53256,0 -0.96428,0.4317 -0.96428,0.9642 0,0.5326 0.43172,0.9643 0.96428,0.9643 H 285.852 c 0.5325,0 0.9642,-0.4317 0.9642,-0.9643 0,-0.5325 -0.4317,-0.9642 -0.9642,-0.9642 z" /></g></g><g
       id="g386"><g
         clip-path="url(#clipPath392)"
         id="g388"><path
           id="path394"
           style="fill:#000000;fill-opacity:1;fill-rule:nonzero;stroke:none"
           d="m 285.852,369.5922 12.6734,-5.5102 -12.6734,-5.5102 z" /></g></g><g
       id="g396"><g
         clip-path="url(#clipPath402)"
         id="g398"><path
           id="path404"
           style="fill:#000000;fill-opacity:1;fill-rule:nonzero;stroke:none"
           d="m 182.9469,260.5231 c 0,-0.5326 -0.4318,-0.9643 -0.9643,-0.9643 -0.5326,0 -0.9643,0.4317 -0.9643,0.9643 v 195.4087 c 0,0.5326 0.4317,0.9643 0.9643,0.9643 0.5325,0 0.9643,-0.4317 0.9643,-0.9643 z" /></g></g><g
       id="g406"><g
         clip-path="url(#clipPath412)"
         id="g408"><path
           id="path414"
           style="fill:#000000;fill-opacity:1;fill-rule:nonzero;stroke:none"
           d="m 176.4724,455.9318 5.5102,12.6735 5.5102,-12.6735 z" /></g></g><g
       id="g416"><g
         clip-path="url(#clipPath422)"
         id="g418"><path
           id="path424"
           style="fill:#000000;fill-opacity:1;fill-rule:nonzero;stroke:none"
           d="m 310.8184,363.1178 c -0.5325,0 -0.9643,0.4317 -0.9643,0.9642 0,0.5326 0.4318,0.9643 0.9643,0.9643 h 219.448 c 0.5326,0 0.9643,-0.4317 0.9643,-0.9643 0,-0.5325 -0.4317,-0.9642 -0.9643,-0.9642 z" /></g></g><g
       id="g426"><g
         clip-path="url(#clipPath432)"
         id="g428"><path
           id="path434"
           style="fill:#000000;fill-opacity:1;fill-rule:nonzero;stroke:none"
           d="m 530.2664,369.5922 12.6735,-5.5102 -12.6735,-5.5102 z" /></g></g><g
       id="g436"><g
         clip-path="url(#clipPath442)"
         id="g438"><path
           id="path444"
           style="fill:#000000;fill-opacity:1;fill-rule:nonzero;stroke:none"
           d="m 427.3613,260.5231 c 0,-0.5326 -0.4317,-0.9643 -0.9643,-0.9643 -0.5326,0 -0.9643,0.4317 -0.9643,0.9643 v 195.4087 c 0,0.5326 0.4317,0.9643 0.9643,0.9643 0.5326,0 0.9643,-0.4317 0.9643,-0.9643 z" /></g></g><g
       id="g446"><g
         clip-path="url(#clipPath452)"
         id="g448"><path
           id="path454"
           style="fill:#000000;fill-opacity:1;fill-rule:nonzero;stroke:none"
           d="m 420.8868,455.9318 5.5102,12.6735 5.5102,-12.6735 z" /></g></g><g
       id="g456"><g
         clip-path="url(#clipPath462)"
         id="g458"><path
           id="path464"
           style="fill:#1749b3;fill-opacity:1;fill-rule:nonzero;stroke:none"
           d="m 214.9365,463.0613 c 0,0.5326 0.4317,0.9643 0.9643,0.9643 0.5325,0 0.9643,-0.4317 0.9643,-0.9643 V 256.2847 c 0,-0.5326 -0.4318,-0.9643 -0.9643,-0.9643 -0.5326,0 -0.9643,0.4317 -0.9643,0.9643 z" /><path
           id="path466"
           style="fill:#1749b3;fill-opacity:1;fill-rule:nonzero;stroke:none"
           d="m 148.5312,463.0613 c 0,0.5326 0.4317,0.9643 0.9643,0.9643 0.5325,0 0.9643,-0.4317 0.9643,-0.9643 V 256.2847 c 0,-0.5326 -0.4318,-0.9643 -0.9643,-0.9643 -0.5326,0 -0.9643,0.4317 -0.9643,0.9643 z" /><path
           id="path468"
           style="fill:#1749b3;fill-opacity:1;fill-rule:nonzero;stroke:none"
           d="m 117.6449,463.0613 c 0,0.5326 0.4317,0.9643 0.9643,0.9643 0.5326,0 0.9643,-0.4317 0.9643,-0.9643 V 256.2847 c 0,-0.5326 -0.4317,-0.9643 -0.9643,-0.9643 -0.5326,0 -0.9643,0.4317 -0.9643,0.9643 z" /><path
           id="path470"
           style="fill:#1749b3;fill-opacity:1;fill-rule:nonzero;stroke:none"
           d="m 249.8501,463.0613 c 0,0.5326 0.4317,0.9643 0.9643,0.9643 0.5325,0 0.9643,-0.4317 0.9643,-0.9643 V 256.2847 c 0,-0.5326 -0.4318,-0.9643 -0.9643,-0.9643 -0.5326,0 -0.9643,0.4317 -0.9643,0.9643 z" /><path
           id="path472"
           style="fill:#1749b3;fill-opacity:1;fill-rule:nonzero;stroke:none"
           d="m 534.42,396.7641 c 0.5325,0.008 0.9705,-0.4177 0.9782,-0.9502 0.008,-0.5325 -0.4177,-0.9704 -0.9502,-0.9781 l -216.074,-3.1332 c -0.5325,-0.008 -0.9705,0.4177 -0.9782,0.9502 -0.008,0.5325 0.4177,0.9704 0.9502,0.9781 z" /><path
           id="path474"
           style="fill:#1749b3;fill-opacity:1;fill-rule:nonzero;stroke:none"
           d="m 534.42,430.0183 c 0.5325,0.008 0.9705,-0.4177 0.9782,-0.9502 0.008,-0.5325 -0.4177,-0.9704 -0.9502,-0.9781 l -216.074,-3.1332 c -0.5325,-0.008 -0.9705,0.4177 -0.9782,0.9502 -0.008,0.5325 0.4177,0.9704 0.9502,0.9781 z" /><path
           id="path476"
           style="fill:#1749b3;fill-opacity:1;fill-rule:nonzero;stroke:none"
           d="m 534.42,337.1801 c 0.5325,0.008 0.9705,-0.4177 0.9782,-0.9502 0.008,-0.5326 -0.4177,-0.9705 -0.9502,-0.9782 l -216.074,-3.1332 c -0.5325,-0.008 -0.9705,0.4177 -0.9782,0.9502 -0.008,0.5325 0.4177,0.9704 0.9502,0.9782 z" /><path
           id="path478"
           style="fill:#1749b3;fill-opacity:1;fill-rule:nonzero;stroke:none"
           d="m 534.42,302.9481 c 0.5325,0.008 0.9705,-0.4177 0.9782,-0.9502 0.008,-0.5325 -0.4177,-0.9704 -0.9502,-0.9781 l -216.074,-3.1332 c -0.5325,-0.008 -0.9705,0.4177 -0.9782,0.9502 -0.008,0.5325 0.4177,0.9704 0.9502,0.9781 z" /><path
           id="path480"
           style="fill:#1749b3;fill-opacity:1;fill-rule:nonzero;stroke:none"
           d="m 181.9826,414.005 c -0.5326,0 -0.9643,0.4317 -0.9643,0.9643 0,0.5325 0.4317,0.9642 0.9643,0.9642 h 9.5171 c 0.5326,0 0.9643,-0.4317 0.9643,-0.9642 0,-0.5326 -0.4317,-0.9643 -0.9643,-0.9643 z" /></g></g><g
       id="g482"><g
         clip-path="url(#clipPath488)"
         id="g484"><path
           id="path490"
           style="fill:#1749b3;fill-opacity:1;fill-rule:nonzero;stroke:none"
           d="m 191.4997,420.4795 12.6735,-5.5102 -12.6735,-5.5102 z" /></g></g><g
       id="g492"><g
         clip-path="url(#clipPath498)"
         id="g494"><path
           id="path500"
           style="fill:#1749b3;fill-opacity:1;fill-rule:nonzero;stroke:none"
           d="m 215.9008,414.005 c -0.5326,0 -0.9643,0.4317 -0.9643,0.9643 0,0.5325 0.4317,0.9642 0.9643,0.9642 h 9.5171 c 0.5326,0 0.9643,-0.4317 0.9643,-0.9642 0,-0.5326 -0.4317,-0.9643 -0.9643,-0.9643 z" /></g></g><g
       id="g502"><g
         clip-path="url(#clipPath508)"
         id="g504"><path
           id="path510"
           style="fill:#1749b3;fill-opacity:1;fill-rule:nonzero;stroke:none"
           d="m 225.4179,420.4795 12.6735,-5.5102 -12.6735,-5.5102 z" /></g></g><g
       id="g512"><g
         clip-path="url(#clipPath518)"
         id="g514"><path
           id="path520"
           style="fill:#1749b3;fill-opacity:1;fill-rule:nonzero;stroke:none"
           d="m 250.8144,414.005 c -0.5326,0 -0.9643,0.4317 -0.9643,0.9643 0,0.5325 0.4317,0.9642 0.9643,0.9642 h 9.5171 c 0.5326,0 0.9643,-0.4317 0.9643,-0.9642 0,-0.5326 -0.4317,-0.9643 -0.9643,-0.9643 z" /></g></g><g
       id="g522"><g
         clip-path="url(#clipPath528)"
         id="g524"><path
           id="path530"
           style="fill:#1749b3;fill-opacity:1;fill-rule:nonzero;stroke:none"
           d="m 260.3315,420.4795 12.6735,-5.5102 -12.6735,-5.5102 z" /></g></g><g
       id="g532"><g
         clip-path="url(#clipPath538)"
         id="g534"><path
           id="path540"
           style="fill:#1749b3;fill-opacity:1;fill-rule:nonzero;stroke:none"
           d="m 149.4955,414.005 c -0.5326,0 -0.9643,0.4317 -0.9643,0.9643 0,0.5325 0.4317,0.9642 0.9643,0.9642 h 9.5171 c 0.5326,0 0.9643,-0.4317 0.9643,-0.9642 0,-0.5326 -0.4317,-0.9643 -0.9643,-0.9643 z" /></g></g><g
       id="g542"><g
         clip-path="url(#clipPath548)"
         id="g544"><path
           id="path550"
           style="fill:#1749b3;fill-opacity:1;fill-rule:nonzero;stroke:none"
           d="m 159.0126,420.4795 12.6735,-5.5102 -12.6735,-5.5102 z" /></g></g><g
       id="g552"><g
         clip-path="url(#clipPath558)"
         id="g554"><path
           id="path560"
           style="fill:#1749b3;fill-opacity:1;fill-rule:nonzero;stroke:none"
           d="m 118.6092,414.005 c -0.5326,0 -0.9643,0.4317 -0.9643,0.9643 0,0.5325 0.4317,0.9642 0.9643,0.9642 h 9.5172 c 0.5325,0 0.9642,-0.4317 0.9642,-0.9642 0,-0.5326 -0.4317,-0.9643 -0.9642,-0.9643 z" /></g></g><g
       id="g562"><g
         clip-path="url(#clipPath568)"
         id="g564"><path
           id="path570"
           style="fill:#1749b3;fill-opacity:1;fill-rule:nonzero;stroke:none"
           d="m 128.1264,420.4795 12.6734,-5.5102 -12.6734,-5.5102 z" /></g></g><g
       id="g572"><g
         clip-path="url(#clipPath578)"
         id="g574"><path
           id="path580"
           style="fill:#1749b3;fill-opacity:1;fill-rule:nonzero;stroke:none"
           d="m 377.6259,364.082 c 0,-0.5325 -0.4318,-0.9642 -0.9643,-0.9642 -0.5326,0 -0.9643,0.4317 -0.9643,0.9642 v 8.8075 c 0,0.5325 0.4317,0.9643 0.9643,0.9643 0.5325,0 0.9643,-0.4318 0.9643,-0.9643 z" /></g></g><g
       id="g582"><g
         clip-path="url(#clipPath588)"
         id="g584"><path
           id="path590"
           style="fill:#1749b3;fill-opacity:1;fill-rule:nonzero;stroke:none"
           d="m 371.1514,372.8895 5.5102,12.6734 5.5102,-12.6734 z" /></g></g><g
       id="g592"><g
         clip-path="url(#clipPath598)"
         id="g594"><path
           id="path600"
           style="fill:#1749b3;fill-opacity:1;fill-rule:nonzero;stroke:none"
           d="m 378.1609,393.5199 c 0,-0.5326 -0.4317,-0.9643 -0.9643,-0.9643 -0.5325,0 -0.9643,0.4317 -0.9643,0.9643 v 8.8074 c 0,0.5326 0.4318,0.9643 0.9643,0.9643 0.5326,0 0.9643,-0.4317 0.9643,-0.9643 z" /></g></g><g
       id="g602"><g
         clip-path="url(#clipPath608)"
         id="g604"><path
           id="path610"
           style="fill:#1749b3;fill-opacity:1;fill-rule:nonzero;stroke:none"
           d="m 371.6864,402.3273 5.5102,12.6735 5.5102,-12.6735 z" /></g></g><g
       id="g612"><g
         clip-path="url(#clipPath618)"
         id="g614"><path
           id="path620"
           style="fill:#1749b3;fill-opacity:1;fill-rule:nonzero;stroke:none"
           d="m 377.5068,333.9264 c 0,-0.5326 -0.4317,-0.9643 -0.9643,-0.9643 -0.5325,0 -0.9643,0.4317 -0.9643,0.9643 v 8.8074 c 0,0.5325 0.4318,0.9643 0.9643,0.9643 0.5326,0 0.9643,-0.4318 0.9643,-0.9643 z" /></g></g><g
       id="g622"><g
         clip-path="url(#clipPath628)"
         id="g624"><path
           id="path630"
           style="fill:#1749b3;fill-opacity:1;fill-rule:nonzero;stroke:none"
           d="m 371.0323,342.7338 5.5102,12.6735 5.5102,-12.6735 z" /></g></g><g
       id="g632"><g
         clip-path="url(#clipPath638)"
         id="g634"><path
           id="path640"
           style="fill:#1749b3;fill-opacity:1;fill-rule:nonzero;stroke:none"
           d="m 377.1673,299.6895 c 0,-0.5325 -0.4317,-0.9643 -0.9643,-0.9643 -0.5326,0 -0.9643,0.4318 -0.9643,0.9643 v 8.8074 c 0,0.5326 0.4317,0.9643 0.9643,0.9643 0.5326,0 0.9643,-0.4317 0.9643,-0.9643 z" /></g></g><g
       id="g642"><g
         clip-path="url(#clipPath648)"
         id="g644"><path
           id="path650"
           style="fill:#1749b3;fill-opacity:1;fill-rule:nonzero;stroke:none"
           d="m 370.6928,308.4969 5.5102,12.6735 5.5102,-12.6735 z" /></g></g><g
       id="g652"><g
         clip-path="url(#clipPath658)"
         id="g654"><path
           id="path660"
           style="fill:#1749b3;fill-opacity:1;fill-rule:nonzero;stroke:none"
           d="m 377.3855,426.7629 c 0,-0.5326 -0.4318,-0.9643 -0.9643,-0.9643 -0.5326,0 -0.9643,0.4317 -0.9643,0.9643 v 8.8074 c 0,0.5326 0.4317,0.9643 0.9643,0.9643 0.5325,0 0.9643,-0.4317 0.9643,-0.9643 z" /></g></g><g
       id="g662"><g
         clip-path="url(#clipPath668)"
         id="g664"><path
           id="path670"
           style="fill:#1749b3;fill-opacity:1;fill-rule:nonzero;stroke:none"
           d="m 370.911,435.5703 5.5102,12.6735 5.5102,-12.6735 z" /></g></g><g
       id="g672"><g
         clip-path="url(#clipPath678)"
         id="g674"><path
           id="path680"
           style="fill:#000000;fill-opacity:1;fill-rule:nonzero;stroke:none"
           d="m 181.9826,363.1178 c -0.5326,0 -0.9643,0.4317 -0.9643,0.9642 0,0.5326 0.4317,0.9643 0.9643,0.9643 h 21.2447 c 0.5326,0 0.9643,-0.4317 0.9643,-0.9643 0,-0.5325 -0.4317,-0.9642 -0.9643,-0.9642 z" /></g></g><g
       id="g682"><g
         clip-path="url(#clipPath688)"
         id="g684"><path
           id="path690"
           style="fill:#000000;fill-opacity:1;fill-rule:nonzero;stroke:none"
           d="m 203.2273,369.5922 12.6735,-5.5102 -12.6735,-5.5102 z" /></g></g><g
       id="g692"><g
         clip-path="url(#clipPath698)"
         id="g694"><path
           id="path700"
           style="fill:#000000;fill-opacity:1;fill-rule:nonzero;stroke:none"
           d="m 427.3613,364.082 c 0,-0.5325 -0.4317,-0.9642 -0.9643,-0.9642 -0.5326,0 -0.9643,0.4317 -0.9643,0.9642 v 17.4779 c 0,0.5325 0.4317,0.9643 0.9643,0.9643 0.5326,0 0.9643,-0.4318 0.9643,-0.9643 z" /></g></g><g
       id="g702"><g
         clip-path="url(#clipPath708)"
         id="g704"><path
           id="path710"
           style="fill:#000000;fill-opacity:1;fill-rule:nonzero;stroke:none"
           d="m 420.8868,381.5599 5.5102,12.6734 5.5102,-12.6734 z" /></g></g><g
       id="g712"><g
         clip-path="url(#clipPath718)"
         id="g714"><path
           id="path720"
           style="fill:#000000;fill-opacity:1;fill-rule:nonzero;stroke:none"
           d="m 190.9332,346.1582 c -0.2285,-0.0454 -0.5777,-1.1399 -0.3993,-1.3405 v 0 c 0.326,-0.2557 0.7975,-0.1987 1.0532,0.1273 v 0 c 0.2557,0.326 0.1987,0.7975 -0.1273,1.0532 v 0 c -0.326,0.2557 -0.7975,0.1987 -1.0532,-0.1273 v 0 c -0.2557,-0.326 -0.1987,-0.7975 0.1273,-1.0532 0.0986,-0.0781 0.2138,-0.1447 0.2913,-0.1844 v 0 c 0.3962,-0.1588 0.8462,0.0337 1.005,0.4299 v 0 c 0.1588,0.3962 -0.0337,0.8462 -0.4299,1.005 v 0 c -0.3962,0.1588 -0.8462,-0.0337 -1.005,-0.4299 v 0 c -0.1588,-0.3962 0.0337,-0.8462 0.4299,-1.005 0.1422,-0.0723 0.3653,-0.1598 0.6102,-0.2413 v 0 c 0.4366,-0.117 0.8854,0.1421 1.0024,0.5786 v 0 c 0.117,0.4366 -0.1421,0.8854 -0.5787,1.0024 v 0 c -0.4366,0.117 -0.8853,-0.1421 -1.0023,-0.5787 v 0 c -0.117,-0.4366 0.142,-0.8853 0.5786,-1.0023 0.4846,-0.1605 1.1974,-0.336 1.8612,-0.4145 0.4496,-0.0378 0.9661,-0.0119 1.4185,0.0847 0.8808,0.2583 1.8205,0.9567 2.3077,1.7505 0.3036,0.522 0.4531,1.2232 0.4284,1.7475 -0.0505,0.5381 -0.418,1.1382 -0.8083,1.4317 -0.3912,0.2612 -0.9655,0.4448 -1.4744,0.4982 -0.9964,0.0837 -2.3206,-0.2022 -3.347,-0.8339 -1.8084,-1.1592 -3.421,-3.5275 -3.8527,-5.5087 -0.1523,-0.7053 -0.183,-1.6448 0.1741,-2.4135 0.5126,-0.796 1.5415,-1.3068 2.4783,-1.5442 0.9274,-0.2279 2.017,-0.3407 2.9373,-0.4108 v 0 c 0.6022,-0.0398 1.1227,0.4161 1.1625,1.0184 v 0 c 0.0398,0.6022 -0.4161,1.1226 -1.0183,1.1625 v 0 c -0.6022,0.0398 -1.1227,-0.4161 -1.1625,-1.0184 v 0 c -0.0398,-0.6022 0.4161,-1.1226 1.0183,-1.1625 0.8742,-0.0457 1.6613,-0.0775 2.3244,-0.0612 v 0 c 0.5837,0.005 1.0533,0.4812 1.0488,1.0649 v 0 c -0.004,0.5837 -0.4812,1.0533 -1.0648,1.0488 v 0 c -0.5837,-0.004 -1.0533,-0.4811 -1.0489,-1.0648 v 0 c 0.004,-0.5837 0.4812,-1.0533 1.0649,-1.0489 0.669,0.037 1.3213,0.1387 1.809,0.3315 v 0 c 0.503,0.1741 0.7697,0.723 0.5956,1.226 v 0 c -0.1741,0.503 -0.723,0.7697 -1.226,0.5956 v 0 c -0.5031,-0.1741 -0.7697,-0.723 -0.5956,-1.226 v 0 c 0.1741,-0.503 0.723,-0.7697 1.226,-0.5956 0.4475,0.3262 0.8513,0.8759 0.8969,1.3952 v 0 c 0.0934,0.2669 -0.0473,0.559 -0.3143,0.6524 v 0 c -0.2669,0.0934 -0.559,-0.0474 -0.6524,-0.3143 -0.1758,-0.1137 -0.2612,0.021 -0.5611,0.0881 -0.2588,-0.0655 -0.6111,-0.0667 -1.1941,-0.0392 -0.5891,0.007 -1.3015,0.0593 -2.1643,0.1284 -0.8909,0.0497 -1.8145,0.1244 -2.5858,0.3027 -0.7623,0.1686 -1.1179,0.283 -1.1593,0.4818 -0.1843,0.2037 -0.159,0.4576 -0.0669,1.0377 0.243,1.5684 1.4525,3.4384 2.8973,4.3708 0.7323,0.4989 1.5282,0.6764 2.2297,0.6117 0.3397,-0.0208 0.5085,-0.064 0.6566,-0.1753 0.1497,-0.0793 0.1182,0.002 0.1023,-0.1171 0.0179,-0.2884 -0.0276,-0.5068 -0.2043,-0.7543 -0.3028,-0.4724 -0.7494,-0.7543 -1.2936,-0.8384 -0.294,-0.0826 -0.524,-0.1042 -0.856,-0.0875 -0.5475,0.005 -1.1203,0.0933 -1.5638,0.1811 -0.2185,0.0426 -0.3698,0.0753 -0.4597,0.0955 -0.0367,0.006 -0.001,-0.0212 0.0605,-0.0702 0.1418,-0.1719 -0.2016,-1.2474 -0.3749,-1.2871 v 0 c 0.3995,0.0419 0.6895,0.3997 0.6477,0.7992 v 0 c -0.0419,0.3996 -0.3997,0.6896 -0.7992,0.6477" /><path
           id="path722"
           style="fill:#000000;fill-opacity:1;fill-rule:nonzero;stroke:none"
           d="m 191.1286,351.9733 c 0.0236,0.2056 1.1129,1.2719 1.9848,2.3142 v 0 c 0.2869,0.3634 0.225,0.8907 -0.1384,1.1777 v 0 c -0.3634,0.2869 -0.8906,0.225 -1.1776,-0.1384 v 0 c -0.287,-0.3634 -0.2251,-0.8906 0.1383,-1.1776 v 0 c 0.3634,-0.287 0.8907,-0.2251 1.1777,0.1383 0.317,0.4039 0.5819,0.7922 0.8231,1.1604 v 0 c 0.2537,0.3853 0.1469,0.9033 -0.2383,1.157 v 0 c -0.3853,0.2536 -0.9033,0.1469 -1.157,-0.2384 v 0 c -0.2537,-0.3853 -0.147,-0.9032 0.2383,-1.1569 v 0 c 0.3853,-0.2537 0.9033,-0.147 1.157,0.2383 0.3377,0.493 0.5013,0.9111 0.5627,0.8881 v 0 c 0.3648,0.3258 0.3964,0.8856 0.0706,1.2504 v 0 c -0.3257,0.3648 -0.8856,0.3964 -1.2504,0.0707 v 0 c -0.3647,-0.3258 -0.3964,-0.8856 -0.0706,-1.2504 v 0 c 0.3258,-0.3648 0.8856,-0.3964 1.2504,-0.0707 -0.1398,-0.0861 -0.5776,-0.1601 -0.6751,-0.1534 -0.0485,0.0233 -0.0964,0.0442 -0.0276,-0.0388 v 0 c 0.3638,-0.3661 0.9554,-0.3679 1.3215,-0.004 v 0 c 0.366,0.3638 0.3678,0.9555 0.004,1.3215 v 0 c -0.3638,0.366 -0.9554,0.3678 -1.3215,0.004 v 0 c -0.366,-0.3638 -0.3678,-0.9554 -0.004,-1.3214 0.3073,-0.3148 0.7246,-0.8435 1.1011,-1.382 v 0 c 0.305,-0.4278 0.899,-0.5273 1.3268,-0.2223 v 0 c 0.4278,0.305 0.5273,0.899 0.2223,1.3268 v 0 c -0.305,0.4278 -0.899,0.5273 -1.3268,0.2223 v 0 c -0.4278,-0.305 -0.5273,-0.899 -0.2223,-1.3268 0.4633,-0.5369 0.8216,-0.8475 1.0781,-1.5506 v 0 c 0.1142,-0.4014 0.5322,-0.6341 0.9336,-0.5199 v 0 c 0.4013,0.1143 0.6341,0.5323 0.5198,0.9336 v 0 c -0.1142,0.4014 -0.5322,0.6341 -0.9336,0.5199 v 0 c -0.4013,-0.1143 -0.6341,-0.5322 -0.5198,-0.9336 0.1143,-0.1044 0.2228,-0.2095 0.3311,-0.3445 v 0 c 0.053,-0.2777 0.3212,-0.4599 0.599,-0.4068 v 0 c 0.2777,0.053 0.4599,0.3212 0.4069,0.599 0.046,0.1908 0.0825,0.388 0.1165,0.5659 -0.2259,0.9913 -0.6522,1.6655 -0.9826,2.2416 -0.4192,0.5776 -0.9286,1.2014 -1.3243,1.5945 -0.1588,0.146 -0.4124,0.3258 -0.6428,0.4196 -0.2825,0.0779 -0.8816,-0.0135 -1.1603,-0.2236 -0.3785,-0.4159 -0.5664,-0.9484 -0.7781,-1.2906 -0.2347,-0.3546 -0.4579,-0.6799 -0.7438,-1.0395 -0.7576,-1.0211 -1.87,-2.233 -2.0833,-3.0139 v 0 c -0.0938,-0.3906 0.1469,-0.7833 0.5375,-0.8771 v 0 c 0.3906,-0.0938 0.7833,0.1469 0.8771,0.5375 z" /><path
           id="path724"
           style="fill:#000000;fill-opacity:1;fill-rule:nonzero;stroke:none"
           d="m 199.5119,341.3251 c -0.1031,-0.1106 -0.3545,-0.2473 -0.4455,-0.2704 v 0 c 0.4044,0.0451 0.6956,0.4094 0.6506,0.8138 v 0 c -0.0451,0.4044 -0.4094,0.6957 -0.8138,0.6506 v 0 c -0.4044,-0.0451 -0.6956,-0.4094 -0.6506,-0.8138 v 0 c 0.0451,-0.4043 0.4094,-0.6956 0.8138,-0.6506 -0.0662,-0.004 -0.1688,0.003 -0.177,3e-4 v 0 c 0.3982,-0.1059 0.8068,0.1311 0.9126,0.5293 v 0 c 0.1059,0.3982 -0.1311,0.8068 -0.5293,0.9127 v 0 c -0.3981,0.1058 -0.8067,-0.1312 -0.9126,-0.5294 v 0 c -0.1059,-0.3981 0.1311,-0.8067 0.5293,-0.9126 0.004,-0.004 0.0205,-0.0194 0.1108,-0.0776 v 0 c 0.3684,-0.2064 0.8344,-0.0751 1.0408,0.2933 v 0 c 0.2064,0.3684 0.0751,0.8344 -0.2933,1.0408 v 0 c -0.3685,0.2065 -0.8345,0.0751 -1.0409,-0.2933 v 0 c -0.2064,-0.3684 -0.075,-0.8344 0.2934,-1.0408 0.1921,-0.1206 0.4552,-0.3184 0.7813,-0.5783 v 0 c 0.3545,-0.2655 0.8571,-0.1933 1.1226,0.1611 v 0 c 0.2655,0.3545 0.1933,0.8571 -0.1612,1.1226 v 0 c -0.3544,0.2655 -0.857,0.1933 -1.1225,-0.1611 v 0 c -0.2655,-0.3545 -0.1934,-0.8571 0.1611,-1.1226 0.3621,-0.2912 0.7653,-0.6345 1.1708,-0.9893 v 0 c 0.3625,-0.2985 0.8984,-0.2466 1.1969,0.116 v 0 c 0.2985,0.3625 0.2465,0.8984 -0.116,1.1969 v 0 c -0.3625,0.2984 -0.8984,0.2465 -1.1969,-0.116 v 0 c -0.2985,-0.3626 -0.2466,-0.8984 0.116,-1.1969 0.8212,-0.5298 1.6228,-1.0752 2.109,-1.3424 v 0 c 0.215,-0.1838 0.5382,-0.1585 0.7219,0.0565 v 0 c 0.1837,0.215 0.1584,0.5382 -0.0566,0.7219 -0.3356,0.4352 -1.0015,1.1612 -1.6935,1.8769 -0.435,0.3372 -0.8865,0.6778 -1.2901,0.9601 -0.3631,0.2562 -0.7173,0.4858 -0.9953,0.6287 -0.1449,0.0735 -0.3267,0.1487 -0.475,0.1855 -0.0843,0.0176 -0.2515,0.0328 -0.3753,0.0214 -0.1371,-0.0282 -0.4277,-0.1847 -0.5561,-0.3295 v 0 c -0.2385,-0.3233 -0.1698,-0.7787 0.1534,-1.0172 v 0 c 0.3233,-0.2385 0.7787,-0.1699 1.0172,0.1534" /><path
           id="path726"
           style="fill:#000000;fill-opacity:1;fill-rule:nonzero;stroke:none"
           d="m 202.8548,343.1504 c -0.809,-0.2566 -1.6678,-1.0423 -2.375,-1.8815 v 0 c -0.2838,-0.3598 -0.2222,-0.8816 0.1376,-1.1654 v 0 c 0.3598,-0.2838 0.8816,-0.2222 1.1654,0.1376 v 0 c 0.2838,0.3598 0.2222,0.8816 -0.1376,1.1654 v 0 c -0.3598,0.2838 -0.8816,0.2222 -1.1654,-0.1376 -0.2769,-0.3059 -0.555,-0.6419 -0.8106,-0.966 v 0 c -0.2847,-0.417 -0.1776,-0.9858 0.2394,-1.2706 v 0 c 0.4169,-0.2847 0.9858,-0.1776 1.2705,0.2394 v 0 c 0.2848,0.4169 0.1776,0.9858 -0.2393,1.2705 v 0 c -0.417,0.2848 -0.9858,0.1776 -1.2706,-0.2393 -0.3811,-0.5721 -0.7321,-1.1567 -1.0057,-1.6425 v 0 c -0.2474,-0.4257 -0.1028,-0.9713 0.3229,-1.2187 v 0 c 0.4257,-0.2473 0.9713,-0.1028 1.2187,0.323 v 0 c 0.2474,0.4257 0.1028,0.9713 -0.3229,1.2187 v 0 c -0.4257,0.2473 -0.9714,0.1028 -1.2187,-0.323 -0.1708,-0.5458 -0.2774,-1.0147 -0.2791,-1.3041 v 0 c -0.1249,-0.2537 -0.0206,-0.5607 0.2331,-0.6856 v 0 c 0.2537,-0.1249 0.5607,-0.0206 0.6856,0.2331 0.2169,0.1545 0.525,0.464 0.902,0.8609 0.2742,0.4569 0.6041,0.979 0.9741,1.5071 0.1951,0.3356 0.3929,0.657 0.6036,0.9693 0.5932,0.8093 1.1177,1.392 1.5176,1.5244 v 0 c 0.3824,0.1231 0.5927,0.5328 0.4696,0.9153 v 0 c -0.1231,0.3824 -0.5328,0.5926 -0.9152,0.4696 z" /><path
           id="path728"
           style="fill:#000000;fill-opacity:1;fill-rule:nonzero;stroke:none"
           d="m 444.2897,378.3111 c 0.0113,-0.1215 -0.0666,-0.443 -0.1518,-0.5732 v 0 c 0.2672,0.3034 0.2378,0.7659 -0.0655,1.033 v 0 c -0.3034,0.2671 -0.7659,0.2378 -1.033,-0.0656 v 0 c -0.2671,-0.3034 -0.2378,-0.7658 0.0656,-1.033 v 0 c 0.3033,-0.2671 0.7658,-0.2377 1.0329,0.0656 -0.0966,-0.0886 -0.2666,-0.183 -0.3084,-0.1988 v 0 c 0.3941,0.1005 0.6321,0.5014 0.5316,0.8955 v 0 c -0.1006,0.3941 -0.5015,0.632 -0.8956,0.5315 v 0 c -0.394,-0.1005 -0.632,-0.5014 -0.5315,-0.8955 v 0 c 0.1005,-0.3941 0.5015,-0.6321 0.8955,-0.5315 -0.0537,-0.009 -0.0906,-0.014 -0.0257,-0.0246 v 0 c 0.4094,-0.0425 0.7758,0.2549 0.8184,0.6644 v 0 c 0.0425,0.4094 -0.2549,0.7758 -0.6644,0.8183 v 0 c -0.4094,0.0426 -0.7758,-0.2548 -0.8184,-0.6643 v 0 c -0.0425,-0.4094 0.2549,-0.7758 0.6644,-0.8184 0.1453,-0.0194 0.3633,-0.076 0.6292,-0.1568 0.5172,-0.1566 1.1178,-0.4565 1.82,-0.6425 1.2314,-0.2226 2.8262,0.4097 3.5629,1.3642 0.4249,0.6413 0.5232,1.5236 0.4621,2.0771 -0.0412,0.4076 -0.2796,0.8817 -0.5538,1.1608 -0.2811,0.2606 -0.7166,0.4902 -1.1184,0.6081 -0.7901,0.2126 -1.8934,0.184 -2.9388,-0.1176 -1.9898,-0.5945 -4.3768,-2.5729 -5.2491,-4.3207 -0.3065,-0.7047 -0.4219,-1.7335 -0.0722,-2.5491 0.4257,-0.7274 1.2832,-1.3081 2.0884,-1.6367 0.7969,-0.3167 1.7616,-0.5503 2.6098,-0.6958 v 0 c 0.5824,-0.1007 1.1361,0.2898 1.2368,0.8721 v 0 c 0.1007,0.5823 -0.2898,1.136 -0.8721,1.2367 v 0 c -0.5823,0.1007 -1.136,-0.2897 -1.2367,-0.872 v 0 c -0.1007,-0.5824 0.2897,-1.1361 0.872,-1.2368 1.5657,-0.2206 3.0294,-0.3008 4.0325,0.0367 v 0 c 0.4866,0.1536 0.7565,0.6726 0.6029,1.1592 v 0 c -0.1536,0.4866 -0.6726,0.7565 -1.1592,0.6029 v 0 c -0.4866,-0.1536 -0.7566,-0.6726 -0.603,-1.1592 v 0 c 0.1537,-0.4866 0.6726,-0.7565 1.1593,-0.6029 0.3861,0.2012 0.8114,0.569 1.0048,0.9534 v 0 c 0.2197,0.3301 0.1302,0.7758 -0.1999,0.9955 v 0 c -0.3302,0.2197 -0.7759,0.1302 -0.9955,-0.2 v 0 c -0.2197,-0.3301 -0.1302,-0.7758 0.1999,-0.9955 v 0 c 0.3301,-0.2196 0.7758,-0.1301 0.9955,0.2 0.1507,0.3738 0.1917,0.8878 0.0844,1.3331 v 0 c -0.0277,0.2814 -0.2782,0.4872 -0.5596,0.4596 v 0 c -0.2815,-0.0276 -0.4872,-0.2782 -0.4596,-0.5596 -0.0341,-0.3013 -0.1168,-0.3683 -0.2608,-0.4379 -0.1009,-0.0579 -0.1411,0.005 -0.3657,0.0135 -0.5665,-0.158 -1.6312,0.004 -3.1113,0.31 -0.7754,0.1353 -1.5309,0.318 -2.1677,0.5811 -0.6281,0.2515 -0.9174,0.415 -0.9688,0.6241 -0.1622,0.1891 -0.1205,0.2685 0.0784,0.7296 0.4617,1.329 2.2924,2.9967 3.8363,3.5313 0.8308,0.2975 1.4986,0.3518 2.0369,0.2299 0.2617,-0.0496 0.3795,-0.0918 0.4984,-0.195 0.1264,-0.0851 0.1352,-0.0673 0.1461,-0.1957 0.0306,-0.3908 -0.003,-0.7952 -0.246,-1.0508 -0.4081,-0.582 -1.3189,-0.9156 -1.9968,-0.6848 -0.547,0.1105 -1.1248,0.3717 -1.7808,0.5438 -0.304,0.0786 -0.6346,0.1472 -0.886,0.1694 -0.1346,0.0101 -0.3325,0.005 -0.493,-0.0311 -0.0953,-0.0295 -0.3052,-0.1441 -0.4297,-0.2648 -0.106,-0.1538 -0.1927,-0.5108 -0.1726,-0.6761 v 0 c 0.0789,-0.3939 0.4622,-0.6492 0.8561,-0.5703 v 0 c 0.3939,0.079 0.6492,0.4623 0.5703,0.8562" /><path
           id="path730"
           style="fill:#000000;fill-opacity:1;fill-rule:nonzero;stroke:none"
           d="m 443.4225,384.5345 c 0.757,0.2325 1.5555,0.6146 2.214,0.9615 v 0 c 0.3906,0.2265 0.5236,0.7268 0.297,1.1174 v 0 c -0.2265,0.3906 -0.7268,0.5236 -1.1174,0.2971 v 0 c -0.3906,-0.2265 -0.5236,-0.7268 -0.2971,-1.1174 v 0 c 0.2266,-0.3906 0.7268,-0.5236 1.1175,-0.2971 0.3494,0.2041 0.7562,0.414 1.1154,0.6954 v 0 c 0.352,0.2809 0.4097,0.794 0.1288,1.146 v 0 c -0.2809,0.352 -0.7939,0.4097 -1.146,0.1289 v 0 c -0.352,-0.2809 -0.4097,-0.794 -0.1288,-1.146 v 0 c 0.2808,-0.3521 0.7939,-0.4098 1.146,-0.1289 0.3491,0.2983 0.5196,0.5993 0.6156,0.6723 v 0 c 0.3263,0.3172 0.3337,0.8387 0.0165,1.165 v 0 c -0.3172,0.3263 -0.8388,0.3336 -1.165,0.0165 v 0 c -0.3263,-0.3172 -0.3337,-0.8388 -0.0165,-1.165 v 0 c 0.3172,-0.3263 0.8388,-0.3337 1.165,-0.0165 0.126,0.1114 0.2054,0.1793 0.2723,0.2125 0.052,0.0314 -0.132,-0.0284 -0.2744,-0.0507 -0.236,0.0901 -0.469,0.2876 -0.4821,0.2984 v 0 c 0.2425,-0.4163 0.7766,-0.5571 1.1929,-0.3145 v 0 c 0.4162,0.2426 0.5571,0.7766 0.3145,1.1929 v 0 c -0.2426,0.4163 -0.7767,0.5571 -1.1929,0.3145 v 0 c -0.4163,-0.2426 -0.5571,-0.7766 -0.3145,-1.1929 0.005,-0.003 0.01,-0.0204 0.0377,-0.1087 v 0 c 0.1504,-0.4585 0.6441,-0.7082 1.1026,-0.5577 v 0 c 0.4585,0.1504 0.7082,0.6441 0.5578,1.1026 v 0 c -0.1505,0.4585 -0.6441,0.7082 -1.1027,0.5578 v 0 c -0.4585,-0.1505 -0.7082,-0.6442 -0.5577,-1.1027 0.0599,-0.1827 0.126,-0.4598 0.2147,-0.7354 v 0 c 0.1511,-0.4599 0.6465,-0.7102 1.1064,-0.5591 v 0 c 0.4599,0.1511 0.7103,0.6465 0.5591,1.1064 v 0 c -0.1511,0.4599 -0.6465,0.7103 -1.1064,0.5591 v 0 c -0.4599,-0.1511 -0.7102,-0.6464 -0.5591,-1.1064 0.5815,-1.3546 1.7421,-2.9189 2.3671,-3.1614 v 0 c 0.253,-0.1262 0.5605,-0.0234 0.6867,0.2297 v 0 c 0.1262,0.2531 0.0234,0.5605 -0.2297,0.6867 -0.0895,0.1139 -0.8931,1.5682 -1.1585,2.7922 -0.0689,0.204 -0.1359,0.4773 -0.22,0.7332 -0.0437,0.1309 -0.1141,0.3051 -0.1905,0.4419 -0.095,0.1514 -0.4169,0.438 -0.755,0.5441 -0.3603,0.0121 -0.7749,-0.1435 -0.9604,-0.2764 -0.1706,-0.1312 -0.3355,-0.2962 -0.4563,-0.4245 -0.2745,-0.2872 -0.3844,-0.5189 -0.4845,-0.5792 -0.2168,-0.1781 -0.5282,-0.3303 -0.9188,-0.5558 -0.5966,-0.3809 -1.2424,-0.7549 -1.8689,-1.001 v 0 c -0.3796,-0.1313 -0.5809,-0.5456 -0.4496,-0.9252 v 0 c 0.1313,-0.3797 0.5456,-0.581 0.9252,-0.4496 z" /><path
           id="path732"
           style="fill:#000000;fill-opacity:1;fill-rule:nonzero;stroke:none"
           d="m 453.0016,375.2394 c 0.0361,0.286 0.0554,0.5232 0.0603,0.6855 v 0 c -0.0105,0.4152 -0.3556,0.7433 -0.7709,0.7329 v 0 c -0.4152,-0.0105 -0.7433,-0.3557 -0.7329,-0.7709 v 0 c 0.0105,-0.4152 0.3556,-0.7434 0.7709,-0.7329 v 0 c 0.4152,0.0105 0.7434,0.3556 0.7329,0.7709 0.002,0.0884 -0.006,0.2031 -0.0175,0.2867 v 0 c -0.0874,0.4131 -0.493,0.6772 -0.9061,0.5899 v 0 c -0.4131,-0.0874 -0.6772,-0.493 -0.5898,-0.9061 v 0 c 0.0873,-0.4131 0.4929,-0.6772 0.906,-0.5898 v 0 c 0.4131,0.0873 0.6772,0.4929 0.5899,0.906 -0.022,0.1067 -0.1699,0.3886 -0.4089,0.5862 v 0 c -0.378,0.203 -0.849,0.061 -1.0519,-0.3169 v 0 c -0.203,-0.378 -0.0611,-0.849 0.3169,-1.0519 v 0 c 0.378,-0.203 0.849,-0.0611 1.0519,0.3169 v 0 c 0.203,0.378 0.0611,0.8489 -0.3169,1.0519 -0.392,0.1028 -0.9203,-0.1038 -1.0278,-0.2162 -0.0663,-0.0849 -0.1346,-0.2038 -0.1681,-0.2731 -0.058,-0.1248 -0.1193,-0.306 -0.1654,-0.4785 -0.0741,-0.3149 -0.1515,-0.7951 -0.15,-1.2522 0.054,-0.7395 0.5571,-1.5611 1.2033,-1.8941 0.6747,-0.2474 1.5472,-0.1386 2.1285,0.0498 0.5331,0.1887 0.9887,0.5872 1.2668,0.9044 0.4765,0.554 0.7063,1.1954 0.7504,1.1971 v 0 c 0.2802,0.2825 0.2783,0.7388 -0.004,1.0191 v 0 c -0.2825,0.2803 -0.7388,0.2784 -1.0191,-0.004 v 0 c -0.2802,-0.2826 -0.2784,-0.7389 0.004,-1.0191 v 0 c 0.2826,-0.2803 0.7389,-0.2784 1.0192,0.004 -0.2916,-0.1771 -1.112,0.1235 -1.1841,0.2572 -0.0226,0.0673 -0.0369,0.125 -0.0418,0.1081 -0.007,-0.0492 -0.0205,-0.1364 -0.0426,-0.2826 -0.0441,-0.2992 -0.1179,-0.6988 -0.2303,-1.1259 -0.3008,-1.3865 -0.4279,-2.6547 -1.0916,-3.3674 -0.2557,-0.3328 -0.5521,-0.5045 -0.9101,-0.5873 v 0 c -0.4619,-0.1154 -0.7428,-0.5834 -0.6274,-1.0452 v 0 c 0.1154,-0.4619 0.5834,-0.7428 1.0453,-0.6274 v 0 c 0.4619,0.1153 0.7427,0.5833 0.6274,1.0452 v 0 c -0.1154,0.4619 -0.5834,0.7428 -1.0453,0.6274 -0.3011,-0.1709 -0.5095,-0.157 -0.739,0.072 v 0 c -0.2452,0.2896 -0.6787,0.3255 -0.9683,0.0803 v 0 c -0.2895,-0.2452 -0.3255,-0.6787 -0.0802,-0.9683 v 0 c 0.2452,-0.2895 0.6787,-0.3255 0.9683,-0.0803 v 0 c 0.2895,0.2453 0.3254,0.6788 0.0802,0.9683 -0.1394,0.1089 -0.2044,0.1754 -0.2429,0.372 v 0 c -0.0292,0.3299 -0.3203,0.5735 -0.6501,0.5443 v 0 c -0.3298,-0.0292 -0.5735,-0.3203 -0.5443,-0.6501 v 0 c 0.0293,-0.3298 0.3203,-0.5735 0.6501,-0.5443 v 0 c 0.3299,0.0293 0.5735,0.3203 0.5443,0.6501 -0.0542,0.214 -0.05,0.407 0.0811,0.7217 v 0 c 0.1273,0.2525 0.0258,0.5604 -0.2267,0.6877 v 0 c -0.2525,0.1273 -0.5604,0.0258 -0.6877,-0.2267 -0.2381,-0.4174 -0.3598,-0.9037 -0.3611,-1.2884 0.0146,-0.4018 0.1815,-0.8536 0.3886,-1.1541 0.4642,-0.59 1.4083,-0.9606 2.2057,-0.8568 0.6138,0.16 1.3534,0.5936 1.8321,1.1384 0.9287,1.1896 1.1407,2.8284 1.4093,4.1388 0.0828,0.4966 0.1289,1.0014 0.1356,1.3545 0.003,0.1801 -0.002,0.3564 -0.0177,0.4787 -0.009,0.0684 -0.0317,0.1893 -0.068,0.2959 -0.0833,0.1667 -0.9202,0.4768 -1.2326,0.2786 -0.3172,-0.3624 -0.5118,-0.9161 -0.8161,-1.218 -0.2388,-0.2499 -0.3863,-0.3931 -0.6164,-0.4332 -0.4571,-0.123 -0.8444,-0.1756 -1.0058,-0.0364 -0.2052,0.0608 -0.2258,0.1279 -0.1978,0.4571 -0.0171,0.306 0.0251,0.5995 0.076,0.8613 0.0185,0.1263 0.0273,0.1867 0.0351,0.2238 -0.001,0.01 -0.0379,-0.0487 -0.0772,-0.0997 -0.0761,-0.0724 -0.5778,-0.2654 -0.9567,-0.1699 -0.206,0.1798 -0.3345,0.4228 -0.3422,0.4619 0.003,0.0145 0.005,0.0319 0.01,-0.01 0.0114,-0.0973 0.0126,-0.249 -0.004,-0.5056 v 0 c -0.0392,-0.3998 0.2532,-0.7557 0.6531,-0.7948 v 0 c 0.3998,-0.0392 0.7556,0.2532 0.7948,0.6531" /><path
           id="path734"
           style="fill:#1749b3;fill-opacity:1;fill-rule:nonzero;stroke:none"
           d="m 271.1444,697.4326 c 0.3188,-0.0213 0.7552,0.1204 0.9887,0.2944 v 0 c 0.3141,0.2912 0.3327,0.7819 0.0415,1.096 v 0 c -0.2912,0.3141 -0.7818,0.3327 -1.096,0.0415 v 0 c -0.3141,-0.2912 -0.3326,-0.7819 -0.0415,-1.096 v 0 c 0.2912,-0.3141 0.7819,-0.3327 1.096,-0.0415 0.2171,0.2008 0.4114,0.5637 0.4773,0.8249 v 0 c 0.0721,0.4491 -0.2335,0.8717 -0.6827,0.9438 v 0 c -0.4491,0.0721 -0.8717,-0.2335 -0.9438,-0.6826 v 0 c -0.0721,-0.4492 0.2335,-0.8717 0.6826,-0.9439 v 0 c 0.4492,-0.0721 0.8717,0.2335 0.9439,0.6827 0.0898,0.5111 -0.0938,1.2648 -0.4711,1.7547 v 0 c -0.3464,0.3716 -0.9285,0.392 -1.3001,0.0455 v 0 c -0.3716,-0.3464 -0.392,-0.9285 -0.0455,-1.3001 v 0 c 0.3465,-0.3716 0.9286,-0.392 1.3002,-0.0455 v 0 c 0.3716,0.3465 0.3919,0.9286 0.0454,1.3001 -0.6443,0.6197 -1.7574,0.8417 -2.6414,0.7987 -0.5533,-0.0382 -1.2834,-0.2017 -1.9553,-0.5599 -1.74,-0.9986 -3.4027,-3.3968 -4.0737,-4.95 -0.2415,-0.6426 -0.3398,-1.4727 -0.14,-2.1044 0.1534,-0.336 0.5166,-0.745 0.8153,-0.9313 0.2888,-0.1568 0.7092,-0.2861 1.0538,-0.3321 1.1636,-0.1179 2.7365,0.2762 3.863,0.6399 0.6455,0.2133 1.2229,0.5156 1.5312,0.7115 0.2412,0.1484 0.5476,0.4802 0.6863,0.798 0.0496,0.2309 -0.0454,0.7759 -0.2272,1.0431 -0.2126,0.1883 -0.6107,0.3491 -0.8,0.3689 -0.6774,-0.005 -1.4334,-0.3376 -2.026,-0.5996 -0.6633,-0.3234 -1.2957,-0.8498 -1.7588,-1.2718 -0.9312,-0.865 -1.4282,-2.0424 -1.5637,-2.821 -0.0483,-0.3917 -0.083,-1.15 0.3293,-1.822 v 0 c 0.3795,-0.4767 1.0735,-0.5554 1.5502,-0.1759 v 0 c 0.4766,0.3795 0.5554,1.0735 0.1759,1.5501 v 0 c -0.3795,0.4767 -1.0736,0.5554 -1.5502,0.1759 v 0 c -0.4766,-0.3795 -0.5554,-1.0735 -0.1759,-1.5501 0.7965,-0.7225 2.0148,-0.8531 2.8421,-0.9352 v 0 c 0.5506,-0.0761 1.0586,0.3085 1.1347,0.8591 v 0 c 0.0761,0.5506 -0.3085,1.0586 -0.859,1.1347 v 0 c -0.5506,0.0761 -1.0586,-0.3085 -1.1347,-0.8591 v 0 c -0.0761,-0.5505 0.3085,-1.0585 0.859,-1.1347 0.8355,-0.0308 1.7189,-0.1778 2.5872,-0.1048 v 0 c 0.4193,-7e-4 0.7597,0.3386 0.7604,0.7579 v 0 c 7e-4,0.4193 -0.3386,0.7598 -0.7579,0.7605 v 0 c -0.4193,7e-4 -0.7598,-0.3387 -0.7605,-0.758 v 0 c -6e-4,-0.4193 0.3387,-0.7597 0.758,-0.7604 0.8541,0.0886 1.795,0.4983 2.4519,1.4028 v 0 c 0.1791,0.2188 0.1469,0.5414 -0.0719,0.7205 v 0 c -0.2188,0.1791 -0.5414,0.147 -0.7205,-0.0718 -0.5743,-0.5995 -1.0063,-0.6242 -1.657,-0.5331 -0.6366,0.0754 -1.3901,0.3674 -2.3138,0.5802 -0.8604,0.1513 -1.5268,0.2077 -1.3922,0.316 0.0154,-0.1735 0.0981,-0.2923 0.1639,0.1407 0.041,0.4987 0.1887,1.0184 0.7867,1.5577 0.4297,0.3982 0.8228,0.7472 1.2241,0.9282 0.5881,0.2981 1.0075,0.5387 1.0291,0.5008 -0.0886,0.0155 -0.4191,0.1499 -0.5968,0.2993 -0.1402,0.2214 -0.2262,0.7087 -0.197,0.8708 0.0985,0.1837 0.2479,0.3421 0.2164,0.3286 -0.2493,-0.1356 -0.6248,-0.3177 -1.1212,-0.4537 -1.0754,-0.3102 -2.2959,-0.6029 -2.9619,-0.4603 -0.1799,0.0285 -0.1879,0.0354 -0.2264,0.0759 -0.0302,0.0115 0.1052,-0.138 0.1363,-0.153 -0.0418,0.002 -0.008,0.0407 0.1764,0.4627 0.4791,1.3182 1.7499,3.3103 2.9778,4.0021 0.4133,0.2593 0.6925,0.3226 1.1035,0.3673 0.6514,0.0888 1.0557,0.082 1.1246,-0.064 0.1713,-0.0984 0.2008,-0.1264 0.1905,-0.2392 0.0158,-0.0506 0.0817,0.0398 0.0948,0.0514 0.0294,-0.0151 0.1862,0.0204 0.1524,0.0203 v 0 c -0.401,0.0239 -0.7455,-0.2817 -0.7694,-0.6828 v 0 c -0.024,-0.401 0.2817,-0.7455 0.6827,-0.7694" /><path
           id="path736"
           style="fill:#1749b3;fill-opacity:1;fill-rule:nonzero;stroke:none"
           d="m 266.4595,704.3977 c -0.0728,-0.0509 0.6726,0.3869 1.5451,1.1861 v 0 c 0.3547,0.3639 0.3472,0.9464 -0.0167,1.3011 v 0 c -0.3639,0.3547 -0.9465,0.3472 -1.3011,-0.0167 v 0 c -0.3547,-0.3639 -0.3472,-0.9465 0.0167,-1.3012 v 0 c 0.3639,-0.3547 0.9465,-0.3472 1.3011,0.0168 0.5063,0.5082 0.9664,1.149 1.2852,1.6305 v 0 c 0.2821,0.4455 0.1497,1.0353 -0.2957,1.3174 v 0 c -0.4455,0.2821 -1.0353,0.1497 -1.3174,-0.2957 v 0 c -0.2821,-0.4455 -0.1497,-1.0353 0.2957,-1.3174 v 0 c 0.4455,-0.2822 1.0353,-0.1497 1.3174,0.2957 0.2228,0.3382 0.3634,0.6966 0.4404,0.8749 v 0 c 0.1807,0.5202 -0.0945,1.0884 -0.6147,1.2691 v 0 c -0.5202,0.1807 -1.0884,-0.0945 -1.2691,-0.6147 v 0 c -0.1807,-0.5202 0.0945,-1.0884 0.6147,-1.2691 v 0 c 0.5202,-0.1807 1.0884,0.0945 1.2691,0.6147 0.0381,0.0882 0.0438,0.0911 0.0387,0.0585 -0.0132,-0.0268 -0.1047,-0.1482 -0.1772,-0.2234 -0.1062,-0.0776 -0.4304,-0.2037 -0.6057,-0.2247 -0.301,0.0621 -0.6083,0.2479 -0.6332,0.2644 6e-4,0.002 -10e-4,-0.002 0.0401,-0.0885 0.0909,-0.1834 0.1922,-0.4516 0.3103,-0.7698 0.1617,-0.4229 0.392,-0.8446 0.6111,-1.168 v 0 c 0.3388,-0.4872 1.0084,-0.6074 1.4956,-0.2686 v 0 c 0.4871,0.3388 0.6074,1.0084 0.2686,1.4955 v 0 c -0.3389,0.4872 -1.0084,0.6074 -1.4956,0.2686 v 0 c -0.4871,-0.3388 -0.6074,-1.0084 -0.2686,-1.4955 0.1676,-0.2413 0.3631,-0.4834 0.54,-0.6853 v 0 c 0.3938,-0.4458 1.0744,-0.4879 1.5202,-0.0942 v 0 c 0.4457,0.3938 0.4879,1.0744 0.0942,1.5202 v 0 c -0.3938,0.4458 -1.0744,0.488 -1.5202,0.0942 v 0 c -0.4458,-0.3938 -0.488,-1.0744 -0.0942,-1.5202 0.1926,-0.1868 0.3915,-0.3658 0.5776,-0.5313 v 0 c 0.3871,-0.4059 1.0299,-0.4212 1.4359,-0.0341 v 0 c 0.4059,0.3871 0.4211,1.03 0.034,1.4359 v 0 c -0.3871,0.4059 -1.0299,0.4212 -1.4358,0.0341 v 0 c -0.406,-0.3871 -0.4212,-1.03 -0.0341,-1.4359 0.4066,-0.1834 0.7921,-0.3442 1.1702,-0.5639 v 0 c 0.1717,-0.2247 0.4931,-0.2676 0.7178,-0.0959 v 0 c 0.2246,0.1717 0.2676,0.4931 0.0958,0.7178 -0.1559,0.4789 -0.3487,0.9272 -0.5136,1.3435 -0.1572,0.1945 -0.2989,0.3722 -0.4334,0.5558 -0.1503,0.1685 -0.2686,0.3113 -0.39,0.4859 -0.1668,0.2315 -0.2787,0.4205 -0.3896,0.7058 -0.1298,0.326 -0.2768,0.6822 -0.4232,0.9629 -0.0772,0.1453 -0.195,0.3334 -0.3071,0.4705 -0.1357,0.1496 -0.5506,0.4117 -0.9507,0.475 -0.2233,-0.0205 -0.5875,-0.1627 -0.7251,-0.2661 -0.1147,-0.1101 -0.2398,-0.2761 -0.2845,-0.3579 -0.0704,-0.1477 -0.1233,-0.3063 -0.1523,-0.4115 -0.0565,-0.2059 -0.0822,-0.3555 -0.1695,-0.5071 -0.2766,-0.4587 -0.6094,-0.9658 -0.99,-1.3678 -0.6796,-0.7934 -1.4756,-1.4607 -1.6641,-2.2432 v 0 c -0.0627,-0.3968 0.2081,-0.7694 0.6049,-0.8321 v 0 c 0.3968,-0.0627 0.7693,0.2081 0.832,0.6049 z" /><path
           id="path738"
           style="fill:#1749b3;fill-opacity:1;fill-rule:nonzero;stroke:none"
           d="m 278.5336,702.7902 c -0.003,-0.0511 -0.0472,-0.2035 -0.0863,-0.2872 v 0 c 0.2191,0.3456 0.1166,0.8034 -0.229,1.0225 v 0 c -0.3456,0.2192 -0.8034,0.1167 -1.0225,-0.2289 v 0 c -0.2192,-0.3456 -0.1167,-0.8034 0.2289,-1.0226 v 0 c 0.3456,-0.2191 0.8034,-0.1166 1.0226,0.229 -0.0566,-0.0818 -0.2319,-0.2333 -0.319,-0.282 v 0 c 0.3867,0.1553 0.5744,0.5946 0.4191,0.9814 v 0 c -0.1552,0.3867 -0.5946,0.5743 -0.9813,0.4191 v 0 c -0.3867,-0.1553 -0.5743,-0.5946 -0.4191,-0.9813 v 0 c 0.1552,-0.3868 0.5946,-0.5744 0.9813,-0.4192 -0.1663,-0.0489 -0.3877,-0.0495 -0.4267,-0.0507 v 0 c 0.4115,-0.1304 0.8509,0.0975 0.9813,0.509 v 0 c 0.1304,0.4116 -0.0975,0.8509 -0.5091,0.9813 v 0 c -0.4115,0.1304 -0.8508,-0.0975 -0.9813,-0.509 v 0 c -0.1304,-0.4115 0.0975,-0.8509 0.5091,-0.9813 -0.0286,-0.002 -0.0201,-0.0307 0.0809,-0.1231 0.167,-0.1568 0.402,-0.3896 0.6957,-0.6736 0.3911,-0.3267 0.8564,-0.7203 1.3328,-1.0937 v 0 c 0.4206,-0.3223 1.0228,-0.2427 1.3452,0.1778 v 0 c 0.3223,0.4206 0.2427,1.0228 -0.1778,1.3451 v 0 c -0.4206,0.3224 -1.0228,0.2428 -1.3452,-0.1778 v 0 c -0.3223,-0.4205 -0.2427,-1.0228 0.1778,-1.3451 0.3867,-0.292 0.8062,-0.5886 1.1955,-0.8231 v 0 c 0.4476,-0.273 1.0318,-0.1315 1.3049,0.3161 v 0 c 0.273,0.4476 0.1315,1.0318 -0.3161,1.3049 v 0 c -0.4476,0.2731 -1.0318,0.1316 -1.3049,-0.3161 v 0 c -0.273,-0.4476 -0.1315,-1.0318 0.3161,-1.3049 0.407,-0.2111 0.8733,-0.4009 1.269,-0.4709 v 0 c 0.4603,-0.1104 0.9229,0.1732 1.0333,0.6335 v 0 c 0.1103,0.4603 -0.1733,0.9229 -0.6336,1.0333 v 0 c -0.4603,0.1104 -0.9229,-0.1733 -1.0333,-0.6335 v 0 c -0.1104,-0.4603 0.1733,-0.9229 0.6336,-1.0333 0.322,0.0456 0.7343,0.1712 0.9711,0.3947 v 0 c 0.2543,0.1235 0.3604,0.4299 0.2369,0.6843 v 0 c -0.1236,0.2543 -0.4299,0.3604 -0.6843,0.2369 -0.0583,0.0802 -0.0185,0.2025 -0.1234,0.3508 -0.1749,0.0668 -0.3761,0.2024 -0.6805,0.4252 -0.3221,0.1996 -0.658,0.4455 -1.0169,0.725 -0.4557,0.341 -0.9071,0.7068 -1.3128,1.0289 -0.3436,0.235 -0.6692,0.4502 -0.9324,0.5908 -0.1677,0.0934 -0.3771,0.1918 -0.5594,0.2381 -0.1159,0.0232 -0.3982,0.0272 -0.6077,-0.0391 -0.1086,-0.0573 -0.3012,-0.2229 -0.374,-0.3307 -0.048,-0.0978 -0.0996,-0.2757 -0.1063,-0.3591 v 0 c -0.0391,-0.3998 0.2533,-0.7556 0.6531,-0.7947 v 0 c 0.3999,-0.0391 0.7557,0.2534 0.7947,0.6532 z" /><path
           id="path740"
           style="fill:#1749b3;fill-opacity:1;fill-rule:nonzero;stroke:none"
           d="m 281.8112,703.884 c -0.5984,-0.0988 -1.2425,-0.3234 -1.8082,-0.602 v 0 c -0.4007,-0.2276 -0.5409,-0.7369 -0.3133,-1.1375 v 0 c 0.2276,-0.4006 0.7369,-0.5408 1.1375,-0.3132 v 0 c 0.4006,0.2276 0.5408,0.7368 0.3132,1.1374 v 0 c -0.2276,0.4007 -0.7368,0.5409 -1.1374,0.3133 -0.4516,-0.2278 -0.9196,-0.5249 -1.3327,-0.8336 v 0 c -0.3873,-0.322 -0.4403,-0.8969 -0.1184,-1.2842 v 0 c 0.3219,-0.3873 0.8969,-0.4403 1.2842,-0.1184 v 0 c 0.3873,0.3219 0.4403,0.8969 0.1184,1.2842 v 0 c -0.3219,0.3873 -0.8969,0.4403 -1.2842,0.1184 -0.3122,-0.2295 -0.6318,-0.4966 -0.9156,-0.7589 v 0 c -0.375,-0.3917 -0.3614,-1.0133 0.0304,-1.3882 v 0 c 0.3917,-0.375 1.0133,-0.3614 1.3882,0.0304 v 0 c 0.375,0.3917 0.3614,1.0133 -0.0304,1.3883 v 0 c -0.3917,0.3749 -1.0133,0.3613 -1.3882,-0.0305 -0.2733,-0.2733 -0.5476,-0.58 -0.7843,-0.8738 v 0 c -0.3389,-0.4417 -0.2554,-1.0746 0.1864,-1.4134 v 0 c 0.4418,-0.3388 1.0746,-0.2553 1.4134,0.1865 v 0 c 0.3388,0.4418 0.2554,1.0746 -0.1864,1.4134 v 0 c -0.4418,0.3388 -1.0746,0.2553 -1.4134,-0.1865 -0.2903,-0.4114 -0.5644,-0.8666 -0.7724,-1.2889 v 0 c -0.2501,-0.4611 -0.079,-1.0377 0.3821,-1.2878 v 0 c 0.4611,-0.2501 1.0377,-0.0791 1.2878,0.3821 v 0 c 0.2502,0.4611 0.0791,1.0377 -0.382,1.2878 v 0 c -0.4612,0.2501 -1.0377,0.0791 -1.2879,-0.3821 -0.1152,-0.3373 -0.2162,-0.7001 -0.2732,-1.0252 v 0 c -0.147,-0.4005 0.0586,-0.8443 0.4591,-0.9913 v 0 c 0.4005,-0.147 0.8443,0.0586 0.9913,0.4591 v 0 c 0.1469,0.4005 -0.0586,0.8443 -0.4591,0.9913 v 0 c -0.4005,0.1469 -0.8443,-0.0586 -0.9913,-0.4591 0.0448,-0.1302 0.0909,-0.2657 0.1443,-0.3885 v 0 c -0.082,-0.2707 0.071,-0.5566 0.3416,-0.6385 v 0 c 0.2706,-0.082 0.5565,0.0709 0.6385,0.3415 0.1075,0.0556 0.2142,0.101 0.326,0.1533 0.1439,0.2224 0.3007,0.4229 0.4926,0.6515 0.2019,0.3331 0.4252,0.6394 0.7024,0.9679 0.1889,0.2613 0.3795,0.4972 0.6031,0.7429 0.213,0.2567 0.422,0.4843 0.6625,0.7138 0.3245,0.3044 0.6371,0.556 0.9912,0.7856 0.4418,0.2939 0.8448,0.4987 1.2982,0.6324 v 0 c 0.3922,0.0867 0.6399,0.475 0.5532,0.8672 v 0 c -0.0867,0.3923 -0.4749,0.64 -0.8672,0.5533 z" /><path
           id="path742"
           style="fill:#1749b3;fill-opacity:1;fill-rule:nonzero;stroke:none"
           d="m 457.2537,694.1551 c 0.256,0.3681 0.5207,0.9403 0.6455,1.4918 v 0 c 0.0887,0.3753 -0.1437,0.7515 -0.5191,0.8401 v 0 c -0.3753,0.0887 -0.7514,-0.1437 -0.8401,-0.519 v 0 c -0.0887,-0.3754 0.1437,-0.7515 0.5191,-0.8402 v 0 c 0.3753,-0.0886 0.7514,0.1438 0.8401,0.5191 0.0852,0.1958 0.2095,0.5511 0.1914,0.9527 v 0 c -0.092,0.4394 -0.5228,0.721 -0.9622,0.6291 v 0 c -0.4394,-0.092 -0.7211,-0.5228 -0.6291,-0.9622 v 0 c 0.092,-0.4394 0.5228,-0.7211 0.9622,-0.6291 v 0 c 0.4394,0.092 0.7211,0.5227 0.6291,0.9622 -0.0473,0.3149 -0.2626,0.7124 -0.4638,0.9355 v 0 c -0.388,0.3224 -0.964,0.2693 -1.2864,-0.1188 v 0 c -0.3224,-0.388 -0.2693,-0.9639 0.1188,-1.2863 v 0 c 0.388,-0.3225 0.9639,-0.2693 1.2863,0.1187 v 0 c 0.3225,0.388 0.2693,0.964 -0.1187,1.2864 -0.213,0.2091 -0.5814,0.4171 -0.8774,0.5176 -0.8345,0.1234 -1.8792,-0.2059 -2.7279,-0.6594 -0.8389,-0.4554 -1.735,-1.1141 -2.3908,-1.7224 -0.5153,-0.5221 -0.9493,-1.1676 -1.1758,-1.7097 -0.2208,-0.5643 -0.293,-1.3095 -0.1202,-1.8438 0.1242,-0.2733 0.4128,-0.5901 0.6181,-0.7192 0.1984,-0.1093 0.4703,-0.2049 0.6793,-0.25 0.4032,-0.0793 0.9008,-0.1015 1.346,-0.0938 0.6784,-10e-4 1.4235,0.0582 1.9675,0.1397 0.3392,0.0496 0.6626,0.1364 0.858,0.2034 0.1057,0.0371 0.2198,0.0852 0.2931,0.122 0.0451,0.0239 0.16,0.1002 0.2696,0.2014 0.1792,0.289 -0.3973,1.4209 -0.6384,1.4528 -0.4855,0.002 -1.191,-0.1764 -1.8306,-0.3617 -0.6481,-0.2005 -1.2849,-0.5991 -1.7575,-0.9178 -1.1398,-0.8249 -1.6798,-2.1746 -1.6928,-3.0921 0.0782,-0.7767 0.6308,-1.5286 1.176,-1.9137 v 0 c 0.4321,-0.3018 1.027,-0.1961 1.3288,0.236 v 0 c 0.3017,0.4321 0.1961,1.027 -0.236,1.3287 v 0 c -0.4321,0.3018 -1.027,0.1961 -1.3288,-0.236 v 0 c -0.3018,-0.4321 -0.1961,-1.027 0.236,-1.3287 0.541,-0.3616 1.2523,-0.6409 1.8563,-0.8051 v 0 c 0.498,-0.1393 1.0147,0.1515 1.154,0.6495 v 0 c 0.1394,0.498 -0.1514,1.0147 -0.6494,1.154 v 0 c -0.4981,0.1394 -1.0147,-0.1514 -1.1541,-0.6495 v 0 c -0.1393,-0.498 0.1515,-1.0147 0.6495,-1.154 0.6484,-0.1533 1.3855,-0.3222 2.1231,-0.2545 v 0 c 0.471,0.035 0.8244,0.4451 0.7894,0.9161 v 0 c -0.0349,0.4709 -0.445,0.8243 -0.916,0.7894 v 0 c -0.4709,-0.035 -0.8244,-0.4451 -0.7894,-0.916 v 0 c 0.0349,-0.471 0.4451,-0.8244 0.916,-0.7895 0.5839,0.1663 1.2359,0.5392 1.7539,1.1229 v 0 c 0.215,0.1837 0.2404,0.5069 0.0567,0.7219 v 0 c -0.1836,0.215 -0.5069,0.2404 -0.7219,0.0567 -0.5154,-0.2991 -0.8303,-0.29 -1.2156,-0.196 -0.4247,-0.0186 -0.8531,0.1457 -1.4916,0.3525 -0.5045,0.146 -0.9364,0.3183 -1.2681,0.5663 -0.3276,0.2244 -0.3771,0.2397 -0.3252,0.4032 -0.0526,0.5038 0.0807,1.043 0.8082,1.5241 0.4393,0.3193 0.8377,0.6026 1.2259,0.7216 0.6081,0.1996 1.1157,0.3556 1.2932,0.3503 -0.2126,0.0318 -0.7854,1.1576 -0.6146,1.4374 0.0981,0.0889 0.1895,0.1499 0.2022,0.1571 -0.003,-0.003 -0.0105,-0.007 -0.0686,-0.0268 -0.1293,-0.0463 -0.2949,-0.0941 -0.5347,-0.1275 -0.4787,-0.065 -1.1047,-0.1077 -1.7086,-0.0973 -0.3973,0.0151 -0.7098,0.045 -0.9425,0.1165 -0.1079,0.0304 -0.1099,0.0351 -0.1248,0.0578 -0.006,0.002 0.1319,-0.1518 0.1849,-0.2238 -0.0303,0.0399 0.005,0.0921 0.1729,0.4003 0.1624,0.3305 0.3987,0.6331 0.8061,0.9859 0.5447,0.5302 1.2309,1.0533 1.9304,1.4433 0.6895,0.3917 1.1388,0.572 1.3284,0.4893 0.0911,0.0224 0.0632,0.0723 0.1102,0.0655 0.0586,0.007 0.0226,0.1309 0.0401,0.1364 0.0624,0.0172 0.0618,-0.0442 0.0407,-0.2984 -0.0992,-0.3966 -0.2676,-0.7172 -0.4544,-0.9458 v 0 c -0.2395,-0.3226 -0.1721,-0.7782 0.1505,-1.0176 v 0 c 0.3226,-0.2395 0.7782,-0.1721 1.0176,0.1505" /><path
           id="path744"
           style="fill:#1749b3;fill-opacity:1;fill-rule:nonzero;stroke:none"
           d="m 451.5167,701.6181 c -0.0164,-0.0577 -0.0345,-0.1212 -0.042,-0.1725 v 0 c -0.1785,-0.3251 -0.0596,-0.7333 0.2655,-0.9117 v 0 c 0.3251,-0.1784 0.7333,-0.0596 0.9117,0.2655 v 0 c 0.1785,0.3251 0.0596,0.7333 -0.2655,0.9117 v 0 c -0.3251,0.1785 -0.7333,0.0596 -0.9117,-0.2655 -0.007,-0.0321 -0.0283,-0.1033 -0.0401,-0.1683 v 0 c -0.0971,-0.3419 0.1013,-0.6977 0.4431,-0.7948 v 0 c 0.3419,-0.0972 0.6978,0.1012 0.7949,0.4431 v 0 c 0.0971,0.3419 -0.1013,0.6977 -0.4431,0.7949 v 0 c -0.3419,0.0971 -0.6978,-0.1013 -0.7949,-0.4432 -0.008,-0.0544 -0.015,-0.2137 0.008,-0.3337 v 0 c 0.0843,-0.3373 0.4261,-0.5423 0.7634,-0.458 v 0 c 0.3373,0.0843 0.5424,0.4261 0.458,0.7634 v 0 c -0.0843,0.3373 -0.4261,0.5423 -0.7633,0.458 v 0 c -0.3373,-0.0843 -0.5424,-0.4261 -0.4581,-0.7634 0.1154,-0.2289 0.4887,-0.4566 0.6131,-0.4643 0.267,0.0459 0.4017,0.114 0.439,0.1287 0.0382,0.0168 0.0777,0.0369 0.1101,0.0515 0.0633,0.0281 0.1401,0.0723 0.2228,0.1233 0.1657,0.1023 0.3723,0.2497 0.6061,0.4176 0.2317,0.2267 0.5738,0.4931 0.9371,0.8289 0.3997,0.3911 0.7236,0.8103 0.9636,1.0748 0.1895,0.1986 0.3113,0.3401 0.3912,0.401 0.0586,0.0531 -0.2284,-0.051 -0.4315,-0.0712 -0.1755,0.083 -0.3216,0.1836 -0.275,0.0968 0.0556,-0.0909 0.1155,-0.2281 0.1994,-0.398 0.1213,-0.212 0.1974,-0.5002 0.3106,-0.8862 v 0 c 0.1563,-0.5239 0.7077,-0.822 1.2316,-0.6658 v 0 c 0.5239,0.1563 0.822,0.7076 0.6658,1.2316 v 0 c -0.1563,0.5239 -0.7077,0.822 -1.2316,0.6657 v 0 c -0.5239,-0.1562 -0.822,-0.7076 -0.6658,-1.2315 0.0888,-0.2883 0.1991,-0.6349 0.3428,-0.9532 v 0 c 0.2223,-0.4946 0.8035,-0.7154 1.2982,-0.4931 v 0 c 0.4947,0.2223 0.7155,0.8035 0.4932,1.2982 v 0 c -0.2223,0.4947 -0.8036,0.7155 -1.2983,0.4932 v 0 c -0.4946,-0.2223 -0.7154,-0.8036 -0.4931,-1.2983 0.1748,-0.3045 0.4596,-0.6842 0.7779,-0.9339 v 0 c 0.3668,-0.3227 0.9258,-0.2869 1.2485,0.0799 v 0 c 0.3227,0.3668 0.287,0.9258 -0.0799,1.2485 v 0 c -0.3668,0.3227 -0.9258,0.287 -1.2485,-0.0799 v 0 c -0.3227,-0.3668 -0.287,-0.9258 0.0799,-1.2485 0.2744,-0.0713 0.6228,-0.1316 0.9182,-0.0998 v 0 c 0.2692,-0.0864 0.5576,0.0617 0.644,0.331 v 0 c 0.0865,0.2692 -0.0617,0.5576 -0.3309,0.6441 -0.0929,0.1565 -0.0661,0.2861 -0.0629,0.4533 -0.088,0.1077 -0.0959,0.1947 -0.1549,0.4104 -0.0902,0.2021 -0.1548,0.4298 -0.2369,0.7141 -0.1144,0.3773 -0.2587,0.8501 -0.4803,1.2652 -0.0857,0.14 -0.2044,0.3496 -0.343,0.5412 -0.1471,0.1952 -0.5023,0.513 -0.9097,0.6464 -0.4596,0.0359 -0.9893,-0.1962 -1.1946,-0.3772 -0.1841,-0.1732 -0.3476,-0.3728 -0.5014,-0.5447 -0.3035,-0.3218 -0.5923,-0.6864 -0.9045,-0.974 -0.2984,-0.2953 -0.6445,-0.5839 -0.9464,-0.8967 -0.176,-0.2468 -0.3216,-0.4698 -0.4133,-0.6344 -0.0459,-0.0823 -0.074,-0.1458 -0.0871,-0.1921 -0.006,-0.0225 0.002,-0.0313 0.0121,-0.0387 0.019,-3e-4 0.1379,0.057 0.3975,0.1029 0.1219,-0.008 0.4935,-0.2346 0.6006,-0.4332 0.03,-0.1457 0.0236,-0.3017 0.0183,-0.3451 -0.011,-0.0625 -0.0263,-0.1196 -0.0225,-0.1327 0.0134,-0.0133 0.0323,-0.0186 0.0702,0.004 v 0 c 0.2249,0.3328 0.1374,0.785 -0.1955,1.0099 v 0 c -0.3328,0.2249 -0.785,0.1374 -1.0099,-0.1955 z" /><path
           id="path746"
           style="fill:#1749b3;fill-opacity:1;fill-rule:nonzero;stroke:none"
           d="m 465.4561,699.5243 c -0.0926,0.2198 -0.3119,0.4972 -0.5163,0.6335 v 0 c -0.3569,0.1954 -0.8046,0.0646 -1.0001,-0.2923 v 0 c -0.1954,-0.3568 -0.0645,-0.8046 0.2923,-1 v 0 c 0.3569,-0.1954 0.8046,-0.0646 1,0.2923 v 0 c 0.1955,0.3568 0.0646,0.8046 -0.2922,1 -0.2592,0.1143 -0.7165,0.0994 -0.9303,0.005 v 0 c -0.3625,-0.1957 -0.4977,-0.6483 -0.302,-1.0108 v 0 c 0.1957,-0.3626 0.6483,-0.4978 1.0108,-0.3021 v 0 c 0.3626,0.1957 0.4978,0.6483 0.3021,1.0109 v 0 c -0.1957,0.3625 -0.6483,0.4978 -1.0109,0.302 -0.3356,-0.2149 -0.6257,-0.6482 -0.745,-1.0172 v 0 c -0.116,-0.406 0.1191,-0.8293 0.5251,-0.9453 v 0 c 0.406,-0.1161 0.8293,0.119 0.9453,0.5251 v 0 c 0.1161,0.406 -0.119,0.8292 -0.525,0.9453 v 0 c -0.4061,0.116 -0.8293,-0.119 -0.9454,-0.5251 -0.1136,-0.3931 -0.1127,-0.9048 -0.0437,-1.2618 0.1582,-0.4197 0.5697,-0.7766 0.8551,-0.9002 0.2779,-0.1089 0.6178,-0.1777 0.8728,-0.2076 0.5128,-0.0622 1.1636,-0.0256 1.6593,0.1837 0.3466,0.1819 0.6237,0.5057 0.7555,0.713 0.1908,0.3129 0.2931,0.6495 0.342,0.7798 0.0603,0.1481 0.1044,0.3131 0.1251,0.4016 0.0108,0.0496 0.0201,0.1077 0.0255,0.1381 0.003,0.023 0.005,0.0661 0.005,0.1157 v 0 c -0.029,0.4262 -0.3981,0.7482 -0.8244,0.7191 v 0 c -0.4262,-0.029 -0.7482,-0.3981 -0.7192,-0.8244 v 0 c 0.0291,-0.4262 0.3982,-0.7482 0.8245,-0.7191 v 0 c 0.4262,0.029 0.7482,0.3981 0.7191,0.8244 -0.0198,0.1379 -1.5273,0.1326 -1.5427,0.0618 -0.0573,-0.3316 -0.0951,-0.9317 -0.1842,-1.5321 -0.1309,-0.7621 -0.3003,-1.562 -0.5388,-2.2376 v 0 c -0.1442,-0.4792 0.1274,-0.9846 0.6066,-1.1287 v 0 c 0.4793,-0.1442 0.9846,0.1274 1.1288,0.6066 v 0 c 0.1441,0.4793 -0.1275,0.9846 -0.6067,1.1288 v 0 c -0.4792,0.1441 -0.9846,-0.1275 -1.1287,-0.6067 -0.1649,-0.5098 -0.3991,-0.8767 -0.73,-1.2124 v 0 c -0.3527,-0.394 -0.3193,-0.9993 0.0748,-1.3521 v 0 c 0.394,-0.3527 0.9994,-0.3192 1.3521,0.0748 v 0 c 0.3527,0.394 0.3193,0.9994 -0.0748,1.3521 v 0 c -0.394,0.3527 -0.9994,0.3193 -1.3521,-0.0748 -0.3464,-0.4336 -0.612,-0.6281 -0.9248,-0.6614 v 0 c -0.4895,-0.058 -0.8393,-0.5018 -0.7813,-0.9913 v 0 c 0.0579,-0.4895 0.5018,-0.8393 0.9913,-0.7813 v 0 c 0.4895,0.0579 0.8393,0.5017 0.7813,0.9913 v 0 c -0.0579,0.4895 -0.5018,0.8393 -0.9913,0.7813 -0.3097,-0.1907 -0.4846,-0.269 -0.8376,0.1111 v 0 c -0.1475,0.2412 -0.4626,0.3172 -0.7039,0.1697 v 0 c -0.2413,-0.1475 -0.3173,-0.4626 -0.1698,-0.7039 0.358,-0.7828 1.1813,-1.2831 1.9213,-1.3495 0.7367,0.0909 1.5721,0.5671 2.1417,1.1567 0.4325,0.517 0.8333,1.2478 1.0385,1.9676 0.2063,0.8032 0.3377,1.7438 0.4104,2.5513 0.0753,0.6676 0.0936,1.2874 0.1176,1.5126 -0.0149,-0.0677 -1.5217,-0.0721 -1.542,0.0732 8e-4,0.0326 0.003,0.0654 0.005,0.0692 0.004,0.005 0.008,0.0132 0.009,-4e-4 10e-4,-0.0396 0.006,-0.0603 -0.0104,-0.1181 -0.0726,-0.1978 -0.1163,-0.3786 -0.2005,-0.4931 -0.0956,-0.1461 -0.0863,-0.163 -0.1192,-0.1503 -0.1999,-0.1001 -0.4605,-0.0937 -0.8413,-0.0315 -0.1972,0.0332 -0.3443,0.0677 -0.4606,0.1297 -0.1085,0.0474 0.002,-0.0717 0.0795,-0.159 -0.0614,0.1807 -0.0833,0.3215 -0.0438,0.4638 0.0369,0.1774 0.0237,0.1801 -0.0166,0.1246 -0.0661,-0.0149 -0.3712,-0.0191 -0.4877,0.0167 -0.059,0.0567 -0.1425,0.1651 -0.1203,0.1054 v 0 c 0.1526,-0.3716 0.5776,-0.5492 0.9492,-0.3966 v 0 c 0.3716,0.1526 0.5492,0.5776 0.3966,0.9492" /><path
           id="path748"
           style="fill:#1749b3;fill-opacity:1;fill-rule:nonzero;stroke:none"
           d="m 272.7243,457.0706 c 0.395,0.154 0.9282,0.5793 1.2804,1.043 v 0 c 0.2478,0.3658 0.1521,0.8632 -0.2137,1.111 v 0 c -0.3658,0.2477 -0.8632,0.152 -1.111,-0.2138 v 0 c -0.2477,-0.3658 -0.152,-0.8631 0.2138,-1.1109 v 0 c 0.3658,-0.2478 0.8631,-0.1521 1.1109,0.2137 0.1085,0.1118 0.3749,0.4123 0.4998,0.8733 v 0 c 0.0514,0.4879 -0.3025,0.925 -0.7904,0.9764 v 0 c -0.4879,0.0513 -0.9251,-0.3025 -0.9764,-0.7904 v 0 c -0.0514,-0.4879 0.3025,-0.9251 0.7904,-0.9765 v 0 c 0.4879,-0.0513 0.9251,0.3026 0.9764,0.7905 0.0297,0.5001 -0.2136,1.0677 -0.452,1.3798 v 0 c -0.3561,0.3954 -0.9653,0.4274 -1.3607,0.0713 v 0 c -0.3955,-0.3561 -0.4274,-0.9653 -0.0713,-1.3607 v 0 c 0.356,-0.3955 0.9653,-0.4274 1.3607,-0.0713 v 0 c 0.3955,0.356 0.4274,0.9652 0.0713,1.3607 -0.2424,0.2987 -0.6122,0.6072 -0.9196,0.804 -0.6938,0.3605 -1.6942,0.4261 -2.554,0.2203 -2.0917,-0.6071 -4.5783,-3.1169 -5.6123,-5.1153 -0.4388,-0.9622 -0.563,-2.0847 -0.3481,-2.8465 0.1198,-0.3347 0.5232,-0.9783 1.0852,-1.2976 1.1065,-0.4316 2.7458,-0.2534 3.9434,-0.011 0.696,0.1429 1.3397,0.4024 1.7282,0.5773 0.3162,0.1381 0.6452,0.3613 0.8296,0.5555 0.0578,0.0701 0.1612,0.232 0.216,0.3575 0.0497,0.1681 0.038,0.6328 -0.0801,0.9069 -0.1815,0.2239 -0.5581,0.4446 -0.7155,0.4816 -0.129,0.0151 -0.3099,0.0103 -0.3962,-0.003 -0.6135,-0.1021 -1.3071,-0.477 -1.9238,-0.7842 -0.6331,-0.3195 -1.3379,-0.7561 -1.9211,-1.1855 -1.286,-1.0202 -1.8843,-2.5332 -1.9581,-3.4536 v 0 c -0.009,-0.694 0.5456,-1.2643 1.2396,-1.2737 v 0 c 0.694,-0.009 1.2643,0.5456 1.2737,1.2396 v 0 c 0.009,0.694 -0.5456,1.2643 -1.2396,1.2737 v 0 c -0.694,0.009 -1.2643,-0.5456 -1.2737,-1.2396 0.0589,-0.8564 0.7331,-1.7621 1.3576,-2.1154 v 0 c 0.6188,-0.3231 1.3824,-0.0834 1.7055,0.5355 v 0 c 0.3231,0.6188 0.0834,1.3824 -0.5355,1.7055 v 0 c -0.6188,0.3231 -1.3824,0.0834 -1.7055,-0.5355 v 0 c -0.3231,-0.6188 -0.0834,-1.3824 0.5355,-1.7055 0.7286,-0.3298 1.7399,-0.4855 2.6438,-0.4838 v 0 c 0.6552,-0.0152 1.1987,0.5036 1.214,1.1588 v 0 c 0.0152,0.6553 -0.5036,1.1988 -1.1588,1.214 v 0 c -0.6553,0.0152 -1.1988,-0.5036 -1.214,-1.1588 v 0 c -0.0153,-0.6552 0.5036,-1.1987 1.1588,-1.214 1.762,0.192 3.8188,0.8702 4.605,1.7969 v 0 c 0.2134,0.1856 0.2358,0.5091 0.0502,0.7224 v 0 c -0.1856,0.2134 -0.509,0.2359 -0.7223,0.0502 -0.6577,-0.3294 -2.3713,-0.4643 -3.8779,-0.1967 -0.7302,0.0397 -1.2277,0.1438 -1.5284,0.3519 -0.2341,0.0949 -0.0853,-0.1696 -0.0147,-0.1596 -0.055,0.4609 0.0518,1.0637 0.8594,1.7018 0.4729,0.4072 1.0029,0.7866 1.5292,1.1009 0.627,0.373 1.0847,0.6889 1.2109,0.7046 -0.0271,-0.004 -0.1604,-0.007 -0.2537,0.002 -0.122,0.0308 -0.4752,0.2383 -0.6454,0.4436 -0.1059,0.2539 -0.1177,0.6929 -0.0795,0.8309 0.0432,0.0954 0.1236,0.2222 0.1463,0.2524 0.0485,0.0404 0.0618,0.0505 -0.0984,-0.007 -0.3777,-0.1392 -0.8202,-0.3005 -1.3298,-0.3714 -1.1244,-0.1701 -2.2496,-0.2789 -2.5653,-0.0112 0.007,-0.0466 0.2005,-0.2484 0.1506,-0.0464 -0.086,0.1893 -0.045,0.4551 0.2847,1.0795 0.7307,1.6445 2.6463,3.7042 4.0155,4.0522 0.5605,0.1861 0.7498,0.2083 0.9865,0.0692 0.196,-0.0733 0.3377,-0.1451 0.4697,-0.2627 0.1368,-0.1045 0.1315,0.0101 0.1176,0.0952 0.0845,0.0778 0.0758,0.0834 -0.0576,-0.1619 -0.1804,-0.3225 -0.4033,-0.5414 -0.5126,-0.5963 v 0 c -0.3712,-0.1538 -0.5474,-0.5793 -0.3936,-0.9504 v 0 c 0.1537,-0.3712 0.5792,-0.5474 0.9504,-0.3936 z" /><path
           id="path750"
           style="fill:#1749b3;fill-opacity:1;fill-rule:nonzero;stroke:none"
           d="m 269.4063,465.0944 c -0.0202,0.7594 0.4918,0.8861 1.3043,1.5977 v 0 c 0.3646,0.3647 0.3645,0.9559 -3e-4,1.3205 v 0 c -0.3647,0.3646 -0.9559,0.3644 -1.3205,-3e-4 v 0 c -0.3646,-0.3647 -0.3644,-0.9559 3e-4,-1.3205 v 0 c 0.3647,-0.3646 0.9559,-0.3645 1.3205,3e-4 0.617,0.6068 0.9418,1.3054 1.1262,1.3647 v 0 c 0.4329,0.3584 0.4933,1 0.1348,1.4329 v 0 c -0.3584,0.4329 -1,0.4932 -1.4329,0.1348 v 0 c -0.4329,-0.3585 -0.4932,-1 -0.1348,-1.433 v 0 c 0.3585,-0.4329 1,-0.4932 1.4329,-0.1347 -0.0532,-0.0152 -0.3844,-0.0997 -0.4823,-0.1042 v 0 c 0.5471,-0.1163 1.085,0.2329 1.2013,0.78 v 0 c 0.1163,0.5471 -0.233,1.085 -0.7801,1.2013 v 0 c -0.5471,0.1163 -1.0849,-0.233 -1.2012,-0.7801 v 0 c -0.1164,-0.5471 0.2329,-1.0849 0.78,-1.2012 -0.0621,0.0359 -0.1795,0.1084 -0.1196,0.0382 v 0 c 0.38,-0.4067 1.0178,-0.4283 1.4245,-0.0483 v 0 c 0.4067,0.3801 0.4283,1.0179 0.0482,1.4246 v 0 c -0.38,0.4067 -1.0178,0.4283 -1.4245,0.0482 v 0 c -0.4067,-0.38 -0.4283,-1.0178 -0.0482,-1.4245 0.1209,-0.0923 0.2614,-0.4985 0.525,-0.979 v 0 c 0.2715,-0.4871 0.8864,-0.6618 1.3734,-0.3903 v 0 c 0.487,0.2715 0.6618,0.8864 0.3903,1.3734 v 0 c -0.2715,0.487 -0.8864,0.6617 -1.3734,0.3903 v 0 c -0.4871,-0.2715 -0.6618,-0.8864 -0.3903,-1.3734 0.8128,-1.0771 1.692,-1.4352 2.6593,-2.2493 v 0 c 0.1913,-0.2082 0.5153,-0.222 0.7235,-0.0307 v 0 c 0.2083,0.1913 0.222,0.5153 0.0307,0.7235 -0.8315,1.1441 -1.3381,1.599 -1.6498,2.5395 -0.193,0.3388 -0.421,0.912 -0.8157,1.372 -0.2148,0.2237 -0.606,0.475 -0.9322,0.5671 -0.3621,0.0516 -0.9478,-0.099 -1.2369,-0.3094 -0.5422,-0.5424 -0.8225,-1.2751 -1.149,-1.6122 -0.6127,-0.7143 -1.4711,-1.5402 -1.4378,-2.9537 v 0 c 0.01,-0.4016 0.3434,-0.7192 0.745,-0.7093 v 0 c 0.4017,0.01 0.7192,0.3435 0.7093,0.7451" /><path
           id="path752"
           style="fill:#1749b3;fill-opacity:1;fill-rule:nonzero;stroke:none"
           d="m 280.5284,462.2092 c -0.0352,0.0804 -0.004,0.016 0.0276,-0.1285 v 0 c -0.005,0.4153 -0.3452,0.7482 -0.7605,0.7435 v 0 c -0.4153,-0.005 -0.7482,-0.3452 -0.7435,-0.7605 v 0 c 0.005,-0.4153 0.3451,-0.7482 0.7605,-0.7435 v 0 c 0.4153,0.005 0.7482,0.3452 0.7435,0.7605 -0.0154,-0.1609 -0.3749,-0.6459 -0.6546,-0.7413 v 0 c 0.4198,0.0439 0.7246,0.4199 0.6807,0.8398 v 0 c -0.0439,0.4198 -0.4199,0.7246 -0.8397,0.6807 v 0 c -0.4199,-0.0439 -0.7247,-0.4199 -0.6808,-0.8398 v 0 c 0.0439,-0.4198 0.4199,-0.7246 0.8398,-0.6807 -0.1853,0.002 -0.3804,0.0572 -0.415,0.0695 v 0 c 0.3719,-0.2138 0.8467,-0.0855 1.0605,0.2864 v 0 c 0.2137,0.3719 0.0855,0.8467 -0.2864,1.0604 v 0 c -0.3719,0.2138 -0.8467,0.0856 -1.0605,-0.2864 v 0 c -0.2137,-0.3719 -0.0855,-0.8467 0.2864,-1.0604 -0.0238,0.007 0.0635,-0.0999 0.2234,-0.2991 0.1291,-0.2102 0.2855,-0.547 0.4791,-0.9105 v 0 c 0.3109,-0.4418 0.9212,-0.5479 1.363,-0.2369 v 0 c 0.4418,0.311 0.5479,0.9212 0.2369,1.363 v 0 c -0.311,0.4418 -0.9212,0.5479 -1.363,0.2369 v 0 c -0.4418,-0.3109 -0.5479,-0.9212 -0.2369,-1.363 0.2231,-0.347 0.4198,-0.7077 0.6297,-1.0754 v 0 c 0.3031,-0.4825 0.9401,-0.628 1.4226,-0.3248 v 0 c 0.4826,0.3031 0.628,0.9401 0.3249,1.4226 v 0 c -0.3032,0.4826 -0.9401,0.6281 -1.4227,0.3249 v 0 c -0.4825,-0.3031 -0.628,-0.9401 -0.3248,-1.4227 0.5138,-0.6768 1.1571,-1.4306 2.001,-1.7581 v 0 c 0.4089,-0.1775 0.8842,0.0101 1.0617,0.419 v 0 c 0.1775,0.4089 -0.0101,0.8842 -0.419,1.0617 v 0 c -0.4089,0.1775 -0.8842,-0.0101 -1.0617,-0.419 v 0 c -0.1775,-0.4089 0.0101,-0.8842 0.419,-1.0617 0.3357,-0.0336 0.754,-0.0119 1.0997,0.1028 v 0 c 0.2823,0.0167 0.4977,0.259 0.4811,0.5413 v 0 c -0.0166,0.2823 -0.2589,0.4977 -0.5412,0.4811 -0.2159,0.0817 -0.2896,0.1967 -0.3968,0.3554 -0.3378,0.1855 -0.5287,0.649 -0.8963,1.3753 -0.2309,0.3339 -0.4867,0.721 -0.7774,1.1038 -0.2571,0.2769 -0.5536,0.635 -0.8617,0.9013 -0.2202,0.2151 -0.4646,0.4207 -0.67,0.5309 -0.0756,0.0359 -0.3057,0.1028 -0.5276,0.1007 -0.2905,-0.0964 -0.6625,-0.5992 -0.6774,-0.7952 0.0325,-0.2125 0.1158,-0.4124 0.1975,-0.5475 v 0 c 0.1915,-0.3532 0.633,-0.4842 0.9862,-0.2927 v 0 c 0.3531,0.1915 0.4842,0.633 0.2927,0.9862" /><path
           id="path754"
           style="fill:#1749b3;fill-opacity:1;fill-rule:nonzero;stroke:none"
           d="m 283.8697,462.7818 c -0.7064,-0.2283 -1.571,-0.6915 -2.3605,-1.2515 v 0 c -0.3651,-0.2805 -0.4336,-0.8037 -0.1532,-1.1687 v 0 c 0.2804,-0.3651 0.8037,-0.4337 1.1687,-0.1532 v 0 c 0.365,0.2804 0.4336,0.8036 0.1532,1.1687 v 0 c -0.2804,0.365 -0.8037,0.4336 -1.1687,0.1532 -0.241,-0.1407 -0.493,-0.3026 -0.7287,-0.4635 v 0 c -0.3887,-0.3435 -0.4255,-0.937 -0.0821,-1.3258 v 0 c 0.3435,-0.3888 0.937,-0.4255 1.3258,-0.0821 v 0 c 0.3888,0.3435 0.4255,0.937 0.0821,1.3258 v 0 c -0.3434,0.3888 -0.937,0.4255 -1.3258,0.0821 -0.3352,-0.2662 -0.6792,-0.5723 -0.9814,-0.8737 v 0 c -0.3721,-0.4142 -0.3379,-1.0516 0.0763,-1.4237 v 0 c 0.4142,-0.3721 1.0517,-0.3379 1.4238,0.0763 v 0 c 0.372,0.4143 0.3379,1.0517 -0.0764,1.4238 v 0 c -0.4142,0.3721 -1.0517,0.3379 -1.4237,-0.0764 -0.2861,-0.3174 -0.5724,-0.6796 -0.8013,-1.0224 v 0 c -0.308,-0.4661 -0.1799,-1.0936 0.2862,-1.4016 v 0 c 0.4661,-0.308 1.0936,-0.1798 1.4016,0.2862 v 0 c 0.308,0.4661 0.1799,1.0937 -0.2862,1.4017 v 0 c -0.4661,0.308 -1.0936,0.1798 -1.4016,-0.2863 -0.1904,-0.369 -0.3662,-0.7899 -0.4679,-1.1686 v 0 c -0.1754,-0.4538 0.0503,-0.9639 0.5041,-1.1393 v 0 c 0.4538,-0.1754 0.9639,0.0503 1.1393,0.5042 v 0 c 0.1754,0.4538 -0.0503,0.9639 -0.5041,1.1393 v 0 c -0.4538,0.1754 -0.9639,-0.0503 -1.1393,-0.5042 -0.0406,-0.1235 -0.0819,-0.2673 -0.1104,-0.3917 v 0 c -0.1288,-0.458 0.1382,-0.9337 0.5962,-1.0624 v 0 c 0.4581,-0.1288 0.9337,0.1382 1.0625,0.5962 v 0 c 0.1287,0.4581 -0.1383,0.9337 -0.5963,1.0625 v 0 c -0.458,0.1287 -0.9337,-0.1382 -1.0624,-0.5963 0.0785,-0.1521 0.161,-0.3157 0.2561,-0.453 v 0 c -0.0461,-0.279 0.1427,-0.5426 0.4217,-0.5888 v 0 c 0.279,-0.0461 0.5425,0.1427 0.5887,0.4217 0.1283,0.0633 0.2564,0.1024 0.3922,0.1539 0.0287,0.0792 0.0562,0.1407 0.0951,0.2227 0.1367,0.2384 0.2956,0.4409 0.5125,0.6887 0.178,0.2731 0.3713,0.5199 0.6131,0.7899 0.2262,0.2869 0.4589,0.5477 0.7256,0.8137 0.1651,0.1931 0.3252,0.3706 0.4998,0.5488 0.667,0.5589 1.3071,0.9741 1.8515,1.2099 v 0 c 0.3767,0.1398 0.5687,0.5584 0.4289,0.935 v 0 c -0.1397,0.3766 -0.5584,0.5687 -0.935,0.4289" /><path
           id="path756"
           style="fill:#1749b3;fill-opacity:1;fill-rule:nonzero;stroke:none"
           d="m 460.6674,460.063 c 0.3715,0.2136 0.6555,0.6472 0.7709,0.9874 v 0 c 0.1058,0.4281 -0.1554,0.8609 -0.5836,0.9668 v 0 c -0.4281,0.1058 -0.8609,-0.1555 -0.9668,-0.5836 v 0 c -0.1058,-0.4281 0.1555,-0.861 0.5836,-0.9668 v 0 c 0.4281,-0.1058 0.861,0.1554 0.9668,0.5836 0.1025,0.3407 0.1187,0.8937 -0.0365,1.3211 v 0 c -0.2156,0.4292 -0.7383,0.6024 -1.1675,0.3867 v 0 c -0.4292,-0.2156 -0.6023,-0.7383 -0.3867,-1.1675 v 0 c 0.2156,-0.4291 0.7383,-0.6023 1.1675,-0.3867 v 0 c 0.4292,0.2156 0.6023,0.7384 0.3867,1.1675 -0.1858,0.2953 -0.63,0.5683 -0.8729,0.62 v 0 c -0.4911,0.0619 -0.9395,-0.286 -1.0015,-0.7772 v 0 c -0.062,-0.4912 0.286,-0.9396 0.7772,-1.0015 v 0 c 0.4911,-0.062 0.9395,0.286 1.0015,0.7771 v 0 c 0.062,0.4912 -0.286,0.9396 -0.7772,1.0016 -0.2177,0.0285 -0.5,0.0106 -0.7064,-0.0263 -0.3921,-0.0759 -0.8909,-0.2536 -1.3658,-0.4646 -0.9419,-0.4217 -2.0653,-1.0871 -2.8615,-1.684 -0.4886,-0.3899 -0.9585,-0.8313 -1.2524,-1.2478 -0.1958,-0.3329 -0.3383,-0.9027 -0.2934,-1.3092 0.1096,-0.4134 0.5348,-0.9496 0.9034,-1.1455 0.8556,-0.2991 1.891,-0.1092 2.4985,-0.0397 0.4383,0.0589 0.727,0.139 0.7163,0.143 -0.0529,0.0141 -0.2736,0.103 -0.4043,0.1964 -0.1167,0.1383 -0.2656,0.5213 -0.2706,0.6782 0.0595,0.1996 0.16,0.3632 0.1197,0.3205 -0.1932,-0.1839 -0.7379,-0.4465 -1.3286,-0.8354 -1.1164,-0.7235 -2.2047,-1.8149 -2.5756,-2.8133 -0.0908,-0.492 0.0868,-1.1792 0.3148,-1.5182 0.2321,-0.3014 0.6025,-0.6117 0.9225,-0.8129 0.6277,-0.3816 1.4918,-0.7063 2.2324,-0.8973 v 0 c 0.6344,-0.152 1.2719,0.2391 1.4239,0.8735 v 0 c 0.152,0.6344 -0.2391,1.2719 -0.8735,1.4239 v 0 c -0.6343,0.152 -1.2718,-0.2391 -1.4239,-0.8735 v 0 c -0.152,-0.6343 0.2391,-1.2718 0.8735,-1.4239 0.8343,-0.1697 1.6822,-0.2254 2.3148,-0.2224 v 0 c 0.6083,-0.022 1.1193,0.4534 1.1412,1.0618 v 0 c 0.0219,0.6083 -0.4535,1.1193 -1.0618,1.1412 v 0 c -0.6084,0.0219 -1.1193,-0.4535 -1.1412,-1.0618 v 0 c -0.022,-0.6084 0.4534,-1.1193 1.0618,-1.1412 0.265,0.0404 0.6658,0.0546 1.0961,0.1932 v 0 c 0.5126,0.1252 0.8268,0.6423 0.7016,1.1549 v 0 c -0.1252,0.5127 -0.6423,0.8268 -1.1549,0.7017 v 0 c -0.5127,-0.1252 -0.8268,-0.6423 -0.7017,-1.155 v 0 c 0.1252,-0.5126 0.6423,-0.8267 1.155,-0.7016 0.3535,0.2497 0.75,0.6692 1.0146,1.2033 v 0 c 0.1825,0.2159 0.1555,0.539 -0.0605,0.7216 v 0 c -0.2159,0.1826 -0.539,0.1555 -0.7216,-0.0604 -0.3771,-0.225 -0.5134,-0.1292 -0.6858,-0.008 -0.0958,0.0102 -0.2141,0.0909 -0.5639,0.1532 -0.5586,0.0459 -1.1783,0.1277 -1.8436,0.3168 -0.6171,0.1344 -1.1863,0.3234 -1.6024,0.5678 -0.202,0.1118 -0.2562,0.1426 -0.2932,0.2005 -0.0411,0.0202 0.0229,-0.2891 0.032,-0.3942 -0.007,0.4109 0.6157,1.1344 1.5075,1.8244 0.4718,0.3589 1.0774,0.7095 1.4889,1.1275 0.1629,0.1598 0.3632,0.4865 0.4312,0.8025 -7e-4,0.2164 -0.1681,0.6465 -0.3292,0.8233 -0.166,0.1246 -0.4479,0.2359 -0.5814,0.2594 -0.361,0.045 -0.7426,-0.002 -1.0919,-0.008 -0.7278,-0.0409 -1.3936,-0.1709 -1.4185,-0.0401 0.0164,-0.0242 0.2402,-0.2981 0.2992,-0.3965 -0.006,-0.0919 -0.0476,-0.2945 0.009,-0.2456 0.1089,0.1923 0.3571,0.4285 0.7815,0.7795 0.638,0.5666 1.5487,1.1818 2.352,1.6112 0.3976,0.2143 0.6991,0.3545 0.9246,0.4212 0.1016,0.034 0.082,0.0433 0.0691,0.0464 -0.0417,0.0263 -0.3427,0.2217 -0.4588,0.3783 0.0516,0.0156 0.0608,-7e-4 0.0404,-0.157 -0.008,-0.1576 0.0374,-0.1489 0.1516,-0.0584 v 0 c -0.3624,-0.1734 -0.5156,-0.6077 -0.3422,-0.9701 v 0 c 0.1733,-0.3624 0.6077,-0.5156 0.97,-0.3423 z" /><path
           id="path758"
           style="fill:#1749b3;fill-opacity:1;fill-rule:nonzero;stroke:none"
           d="m 456.0986,467.4473 c -0.0158,0.1759 0.082,0.2766 0.3171,0.5473 v 0 c 0.263,0.3596 0.1847,0.8644 -0.175,1.1274 v 0 c -0.3597,0.2631 -0.8644,0.1847 -1.1274,-0.1749 v 0 c -0.2631,-0.3597 -0.1847,-0.8645 0.1749,-1.1275 v 0 c 0.3597,-0.263 0.8645,-0.1847 1.1275,0.175 0.2306,0.2757 0.5498,0.5474 0.8848,0.8493 v 0 c 0.3437,0.3484 0.3399,0.9095 -0.009,1.2532 v 0 c -0.3484,0.3437 -0.9094,0.3398 -1.2531,-0.009 v 0 c -0.3437,-0.3484 -0.3399,-0.9095 0.009,-1.2532 v 0 c 0.3485,-0.3437 0.9095,-0.3398 1.2532,0.009 0.3493,0.3784 0.4951,0.695 0.5716,0.7303 v 0 c 0.3751,0.298 0.4377,0.8436 0.1397,1.2187 v 0 c -0.2979,0.3752 -0.8436,0.4377 -1.2187,0.1398 v 0 c -0.3751,-0.298 -0.4377,-0.8436 -0.1397,-1.2187 v 0 c 0.2979,-0.3751 0.8435,-0.4377 1.2187,-0.1398 -0.008,0 -0.3233,-0.0701 -0.2926,-0.1423 0.1071,-0.0405 0.2549,-0.2151 0.5348,-0.5677 v 0 c 0.3596,-0.4247 0.9954,-0.4775 1.4202,-0.1179 v 0 c 0.4247,0.3596 0.4775,0.9954 0.1179,1.4201 v 0 c -0.3596,0.4248 -0.9954,0.4776 -1.4201,0.118 v 0 c -0.4248,-0.3596 -0.4776,-0.9954 -0.118,-1.4202 0.2353,-0.2776 0.4832,-0.6104 0.7555,-0.9743 v 0 c 0.334,-0.4459 0.9663,-0.5365 1.4121,-0.2024 v 0 c 0.4459,0.3341 0.5365,0.9663 0.2024,1.4122 v 0 c -0.334,0.4458 -0.9663,0.5364 -1.4121,0.2024 v 0 c -0.4459,-0.3341 -0.5365,-0.9664 -0.2024,-1.4122 0.2048,-0.2725 0.4227,-0.5618 0.6435,-0.8374 v 0 c 0.3473,-0.4345 0.9811,-0.5052 1.4156,-0.158 v 0 c 0.4345,0.3473 0.5052,0.9811 0.1579,1.4156 v 0 c -0.3473,0.4345 -0.981,0.5052 -1.4155,0.1579 v 0 c -0.4346,-0.3472 -0.5053,-0.981 -0.158,-1.4155 0.4947,-0.3539 1.0324,-0.7043 1.5459,-0.8941 v 0 c 0.2245,-0.1719 0.5458,-0.1293 0.7178,0.0952 v 0 c 0.172,0.2245 0.1294,0.5458 -0.0951,0.7178 -0.2079,0.3627 -0.3874,0.8142 -0.5953,1.3389 -0.2004,0.2515 -0.3987,0.5168 -0.6023,0.7894 -0.2723,0.3628 -0.5553,0.7399 -0.8319,1.0667 -0.3599,0.4032 -0.822,0.8199 -1.2835,1.0335 -0.4253,0.1312 -1.1697,0.0492 -1.5761,-0.2675 -0.3834,-0.3298 -0.5738,-0.6855 -0.754,-0.8439 -0.2862,-0.3278 -0.6474,-0.7217 -0.9254,-1.1413 -0.2739,-0.4252 -0.5133,-1.0505 -0.4642,-1.6253 v 0 c 0.0346,-0.4002 0.3871,-0.6966 0.7874,-0.662 v 0 c 0.4002,0.0346 0.6966,0.3871 0.662,0.7874" /><path
           id="path760"
           style="fill:#1749b3;fill-opacity:1;fill-rule:nonzero;stroke:none"
           d="m 468.4292,462.3641 c 0.0307,0.1432 0.0455,0.3386 0.0331,0.4742 v 0 c -0.0457,0.3965 -0.4041,0.6809 -0.8006,0.6352 v 0 c -0.3965,-0.0457 -0.6809,-0.4041 -0.6352,-0.8006 v 0 c 0.0457,-0.3965 0.4041,-0.6809 0.8006,-0.6352 v 0 c 0.3965,0.0457 0.6809,0.4041 0.6352,0.8006 -0.0122,0.0807 -0.0572,0.2315 -0.1015,0.322 v 0 c -0.1887,0.3502 -0.6256,0.4811 -0.9758,0.2923 v 0 c -0.3502,-0.1887 -0.4811,-0.6256 -0.2923,-0.9758 v 0 c 0.1887,-0.3502 0.6256,-0.481 0.9758,-0.2923 v 0 c 0.3501,0.1887 0.481,0.6256 0.2923,0.9758 -0.0596,0.096 -0.2348,0.2694 -0.3553,0.3385 v 0 c -0.3574,0.1719 -0.7863,0.0215 -0.9582,-0.3358 v 0 c -0.1719,-0.3573 -0.0215,-0.7863 0.3358,-0.9582 v 0 c 0.3573,-0.1718 0.7863,-0.0215 0.9582,0.3358 v 0 c 0.1718,0.3574 0.0215,0.7863 -0.3358,0.9582 -0.2573,0.0775 -0.6371,0.0227 -0.7767,-0.0528 -0.1113,-0.0769 -0.2461,-0.2107 -0.3165,-0.3075 -0.1883,-0.3239 -0.2388,-0.7722 -0.2018,-1.1005 0.042,-0.3181 0.1654,-0.7291 0.3312,-1.0431 0.2364,-0.3491 0.6552,-0.599 0.9519,-0.7006 0.2925,-0.0956 0.6037,-0.1536 0.8214,-0.2005 0.5951,-0.111 1.2935,-0.235 1.9791,-0.008 0.5119,0.2076 0.9278,0.6151 1.1966,0.8705 0.2034,0.1778 0.3563,0.3353 0.4475,0.408 0.0404,0.0331 0.004,0.008 -0.0464,-0.0222 -0.0403,-0.0129 -0.196,-0.0338 -0.29,-0.0279 -0.0996,0.0277 -0.2839,0.135 -0.3409,0.1879 -0.0763,0.1476 -0.116,0.2053 -0.1429,0.0518 -0.0254,-0.1583 -0.0749,-0.3779 -0.1095,-0.6124 -0.0788,-0.5743 -0.2537,-1.1173 -0.5286,-1.6727 -0.1842,-0.3655 -0.3801,-0.6638 -0.6252,-0.9568 v 0 c -0.3039,-0.4299 -0.2019,-1.0249 0.2281,-1.3289 v 0 c 0.4299,-0.304 1.0249,-0.2019 1.3289,0.228 v 0 c 0.304,0.43 0.2019,1.0249 -0.2281,1.3289 v 0 c -0.4299,0.304 -1.0249,0.2019 -1.3289,-0.228 -0.3173,-0.4687 -0.6077,-0.7649 -0.9901,-0.9641 v 0 c -0.4546,-0.2407 -0.628,-0.8042 -0.3874,-1.2588 v 0 c 0.2407,-0.4545 0.8042,-0.6279 1.2588,-0.3873 v 0 c 0.4545,0.2406 0.6279,0.8042 0.3873,1.2587 v 0 c -0.2406,0.4546 -0.8042,0.628 -1.2587,0.3874 -0.3014,-0.1934 -0.4813,-0.263 -0.8068,-0.2324 v 0 c -0.4742,0.058 -0.9055,-0.2793 -0.9636,-0.7534 v 0 c -0.058,-0.4741 0.2793,-0.9055 0.7535,-0.9636 v 0 c 0.4741,-0.058 0.9055,0.2793 0.9635,0.7535 v 0 c 0.058,0.4741 -0.2793,0.9055 -0.7534,0.9635 -0.3,-0.0878 -0.5776,-0.1079 -0.9817,0.034 v 0 c -0.2323,0.1612 -0.5514,0.1035 -0.7125,-0.1289 v 0 c -0.1612,-0.2323 -0.1035,-0.5514 0.1289,-0.7125 0.3902,-0.409 0.8966,-0.7288 1.3551,-0.9095 0.6228,-0.0855 1.3511,0.0523 1.8887,0.3033 0.6235,0.3333 1.239,0.9117 1.6754,1.5093 0.2574,0.4175 0.4964,0.9154 0.6641,1.3868 0.253,0.7008 0.4194,1.5057 0.4436,2.223 -0.002,0.1805 0.0181,0.4094 0.0189,0.636 -6e-4,0.2313 -0.0569,0.6099 -0.2706,0.9164 -0.0853,0.0856 -0.3008,0.2115 -0.4352,0.2453 -0.1293,0.0121 -0.3238,-0.0145 -0.4066,-0.0435 -0.1356,-0.0624 -0.2725,-0.1615 -0.3484,-0.2304 -0.1411,-0.1313 -0.2834,-0.2909 -0.4416,-0.4386 -0.3076,-0.2631 -0.5472,-0.5056 -0.7774,-0.5533 -0.3129,-0.1162 -0.6261,0.0113 -1.2298,0.1645 -0.2433,0.0547 -0.4784,0.0979 -0.6654,0.1648 -0.1839,0.0608 -0.1786,0.0352 -0.1378,0.0341 -0.1018,0.1626 -0.1553,0.3268 -0.1839,0.5195 -0.0335,0.1826 -0.0482,0.1806 -0.0787,0.0761 0.003,0.006 -0.0539,-0.052 -0.0906,-0.083 -0.0702,-0.0334 -0.3835,-0.0762 -0.5934,-0.0218 -0.0906,0.0546 -0.2437,0.2061 -0.2885,0.2741 -0.0249,0.0545 -0.0577,0.1637 -0.0639,0.1919 -3e-4,0.0303 0.002,0.0778 -0.0132,0.0254 v 0 c -0.0923,-0.391 0.1499,-0.7828 0.5409,-0.8751 v 0 c 0.391,-0.0923 0.7827,0.1499 0.875,0.5409 z" /></g></g></g></svg>