<?xml version="1.0" encoding="UTF-8" standalone="no"?>
<svg
   xmlns:dc="http://purl.org/dc/elements/1.1/"
   xmlns:cc="http://creativecommons.org/ns#"
   xmlns:rdf="http://www.w3.org/1999/02/22-rdf-syntax-ns#"
   xmlns:svg="http://www.w3.org/2000/svg"
   xmlns="http://www.w3.org/2000/svg"
   viewBox="0 0 623.46838 359.90213"
   height="359.90213"
   width="623.46838"
   xml:space="preserve"
   id="svg2"
   version="1.1"><metadata
     id="metadata8"><rdf:RDF><cc:Work
         rdf:about=""><dc:format>image/svg+xml</dc:format><dc:type
           rdf:resource="http://purl.org/dc/dcmitype/StillImage" /></cc:Work></rdf:RDF></metadata><defs
     id="defs6"><clipPath
       id="clipPath14"
       clipPathUnits="userSpaceOnUse"><path
         id="path12"
         d="M 0,0 H 612 V 792 H 0 Z" /></clipPath><clipPath
       id="clipPath24"
       clipPathUnits="userSpaceOnUse"><path
         id="path22"
         d="M 0,0 H 612 V 792 H 0 Z" /></clipPath><clipPath
       id="clipPath98"
       clipPathUnits="userSpaceOnUse"><path
         id="path96"
         d="m 59.14286,72 h 493.7143 V 720 H 59.14286 Z" /></clipPath><clipPath
       id="clipPath108"
       clipPathUnits="userSpaceOnUse"><path
         id="path106"
         d="M 0,0 H 612 V 792 H 0 Z" /></clipPath><clipPath
       id="clipPath118"
       clipPathUnits="userSpaceOnUse"><path
         id="path116"
         d="m 59.14286,72 h 493.7143 V 720 H 59.14286 Z" /></clipPath><clipPath
       id="clipPath128"
       clipPathUnits="userSpaceOnUse"><path
         id="path126"
         d="M 0,0 H 612 V 792 H 0 Z" /></clipPath><clipPath
       id="clipPath138"
       clipPathUnits="userSpaceOnUse"><path
         id="path136"
         d="m 59.14286,72 h 493.7143 V 720 H 59.14286 Z" /></clipPath><clipPath
       id="clipPath148"
       clipPathUnits="userSpaceOnUse"><path
         id="path146"
         d="M 0,0 H 612 V 792 H 0 Z" /></clipPath><clipPath
       id="clipPath158"
       clipPathUnits="userSpaceOnUse"><path
         id="path156"
         d="m 59.14286,72 h 493.7143 V 720 H 59.14286 Z" /></clipPath><clipPath
       id="clipPath168"
       clipPathUnits="userSpaceOnUse"><path
         id="path166"
         d="M 0,0 H 612 V 792 H 0 Z" /></clipPath><clipPath
       id="clipPath178"
       clipPathUnits="userSpaceOnUse"><path
         id="path176"
         d="m 59.14286,72 h 493.7143 V 720 H 59.14286 Z" /></clipPath><clipPath
       id="clipPath188"
       clipPathUnits="userSpaceOnUse"><path
         id="path186"
         d="M 0,0 H 612 V 792 H 0 Z" /></clipPath><clipPath
       id="clipPath198"
       clipPathUnits="userSpaceOnUse"><path
         id="path196"
         d="m 59.14286,72 h 493.7143 V 720 H 59.14286 Z" /></clipPath><clipPath
       id="clipPath208"
       clipPathUnits="userSpaceOnUse"><path
         id="path206"
         d="M 0,0 H 612 V 792 H 0 Z" /></clipPath><clipPath
       id="clipPath218"
       clipPathUnits="userSpaceOnUse"><path
         id="path216"
         d="m 59.14286,72 h 493.7143 V 720 H 59.14286 Z" /></clipPath></defs><g
     clip-path="url(#clipPath14)"
     transform="matrix(1.3333333,0,0,-1.3333333,-96.161187,939.50107)"
     id="g10"><g
       id="g16" /><g
       id="g18"><g
         clip-path="url(#clipPath24)"
         id="g20"><g
           transform="matrix(0.8456908,0,0,0.8456908,72,720)"
           id="g26"><text
             id="text30"
             style="font-variant:normal;font-weight:normal;font-size:20px;writing-mode:lr-tb;fill:#000000;fill-opacity:0;fill-rule:nonzero;stroke:none"
             transform="matrix(1,0,0,-1,342.2471,-42.28141)"><tspan
               id="tspan28"
               y="0"
               x="0">y</tspan></text>
</g><g
           transform="matrix(0.8456908,0,0,0.8456908,72,720)"
           id="g32"><text
             id="text36"
             style="font-variant:normal;font-weight:normal;font-size:19px;writing-mode:lr-tb;fill:#000000;fill-opacity:0;fill-rule:nonzero;stroke:none"
             transform="matrix(1,0,0,-1,69.49051,-92.27165)"><tspan
               id="tspan34"
               y="0"
               x="0">y</tspan></text>
</g><g
           transform="matrix(0.8456908,0,0,0.8456908,72,720)"
           id="g38"><text
             id="text42"
             style="font-variant:normal;font-weight:normal;font-size:20px;writing-mode:lr-tb;fill:#000000;fill-opacity:0;fill-rule:nonzero;stroke:none"
             transform="matrix(1,0,0,-1,145.0166,-110.3996)"><tspan
               id="tspan40"
               y="0"
               x="0">v</tspan></text>
</g><g
           transform="matrix(0.8456908,0,0,0.8456908,72,720)"
           id="g44"><text
             id="text48"
             style="font-variant:normal;font-weight:normal;font-size:18px;writing-mode:lr-tb;fill:#000000;fill-opacity:0;fill-rule:nonzero;stroke:none"
             transform="matrix(1,0,0,-1,436.4229,-109.5734)"><tspan
               id="tspan46"
               y="0"
               x="0">v</tspan></text>
</g><g
           transform="matrix(0.8456908,0,0,0.8456908,72,720)"
           id="g50"><text
             id="text54"
             style="font-variant:normal;font-weight:normal;font-size:18px;writing-mode:lr-tb;fill:#000000;fill-opacity:0;fill-rule:nonzero;stroke:none"
             transform="matrix(1,0,0,-1,53.70023,-122.9328)"><tspan
               id="tspan52"
               y="0"
               x="0">2</tspan></text>
</g><g
           transform="matrix(0.8456908,0,0,0.8456908,72,720)"
           id="g56"><text
             id="text60"
             style="font-variant:normal;font-weight:normal;font-size:24px;writing-mode:lr-tb;fill:#000000;fill-opacity:0;fill-rule:nonzero;stroke:none"
             transform="matrix(1,0,0,-1,346.2696,-128.9504)"><tspan
               id="tspan58"
               y="0"
               x="0">I</tspan></text>
</g><g
           transform="matrix(0.8456908,0,0,0.8456908,72,720)"
           id="g62"><text
             id="text66"
             style="font-variant:normal;font-weight:normal;font-size:17px;writing-mode:lr-tb;fill:#000000;fill-opacity:0;fill-rule:nonzero;stroke:none"
             transform="matrix(1,0,0,-1,142.4063,-188.7814)"><tspan
               id="tspan64"
               y="0"
               x="0">I</tspan></text>
</g><g
           transform="matrix(0.8456908,0,0,0.8456908,72,720)"
           id="g68"><text
             id="text72"
             style="font-variant:normal;font-weight:normal;font-size:18px;writing-mode:lr-tb;fill:#000000;fill-opacity:0;fill-rule:nonzero;stroke:none"
             transform="matrix(1,0,0,-1,438.708,-189.089)"><tspan
               id="tspan70"
               y="0"
               x="0">I</tspan></text>
</g><g
           transform="matrix(0.8456908,0,0,0.8456908,72,720)"
           id="g74"><text
             id="text78"
             style="font-variant:normal;font-weight:normal;font-size:16px;writing-mode:lr-tb;fill:#000000;fill-opacity:0;fill-rule:nonzero;stroke:none"
             transform="matrix(1,0,0,-1,138.4297,-205.9269)"><tspan
               id="tspan76"
               y="0"
               x="0">1</tspan></text>
</g><g
           transform="matrix(0.8456908,0,0,0.8456908,72,720)"
           id="g80"><text
             id="text84"
             style="font-variant:normal;font-weight:normal;font-size:23px;writing-mode:lr-tb;fill:#000000;fill-opacity:0;fill-rule:nonzero;stroke:none"
             transform="matrix(1,0,0,-1,433.9873,-213.3224)"><tspan
               id="tspan82"
               y="0"
               x="0 13.3745">Yz</tspan></text>
</g><g
           transform="matrix(0.8456908,0,0,0.8456908,72,720)"
           id="g86"><text
             id="text90"
             style="font-variant:normal;font-weight:normal;font-size:15px;writing-mode:lr-tb;fill:#000000;fill-opacity:0;fill-rule:nonzero;stroke:none"
             transform="matrix(1,0,0,-1,522.1753,-209.3537)"><tspan
               id="tspan88"
               y="0"
               x="0">X</tspan></text>
</g></g></g><g
       id="g92"><g
         clip-path="url(#clipPath98)"
         id="g94"><path
           id="path100"
           style="fill:#000000;fill-opacity:1;fill-rule:nonzero;stroke:none"
           d="m 74.52955,568.9897 c -0.53256,0 -0.96428,0.4317 -0.96428,0.9643 0,0.5326 0.43172,0.9643 0.96428,0.9643 H 206.8981 c 0.5325,0 0.9643,-0.4317 0.9643,-0.9643 0,-0.5326 -0.4318,-0.9643 -0.9643,-0.9643 z" /></g></g><g
       id="g102"><g
         clip-path="url(#clipPath108)"
         id="g104"><path
           id="path110"
           style="fill:#000000;fill-opacity:1;fill-rule:nonzero;stroke:none"
           d="m 206.8981,575.4642 12.6734,-5.5102 -12.6734,-5.5102 z" /></g></g><g
       id="g112"><g
         clip-path="url(#clipPath118)"
         id="g114"><path
           id="path120"
           style="fill:#000000;fill-opacity:1;fill-rule:nonzero;stroke:none"
           d="m 144.8662,505.2699 c 0,-0.5325 -0.4318,-0.9643 -0.9643,-0.9643 -0.5326,0 -0.9643,0.4318 -0.9643,0.9643 v 128.5314 c 0,0.5326 0.4317,0.9643 0.9643,0.9643 0.5325,0 0.9643,-0.4317 0.9643,-0.9643 z" /></g></g><g
       id="g122"><g
         clip-path="url(#clipPath128)"
         id="g124"><path
           id="path130"
           style="fill:#000000;fill-opacity:1;fill-rule:nonzero;stroke:none"
           d="m 138.3917,633.8013 5.5102,12.6735 5.5102,-12.6735 z" /></g></g><g
       id="g132"><g
         clip-path="url(#clipPath138)"
         id="g134"><path
           id="path140"
           style="fill:#ed3624;fill-opacity:1;fill-rule:nonzero;stroke:none"
           d="m 143.918,568.8173 c -0.3781,-0.375 -0.9887,-0.3724 -1.3637,0.006 -0.375,0.3781 -0.3725,0.9887 0.006,1.3637 l 45.8262,45.4462 c 0.3782,0.375 0.9887,0.3725 1.3637,-0.006 0.375,-0.3781 0.3725,-0.9887 -0.006,-1.3637 z" /></g></g><g
       id="g142"><g
         clip-path="url(#clipPath148)"
         id="g144"><path
           id="path150"
           style="fill:#ed3624;fill-opacity:1;fill-rule:nonzero;stroke:none"
           d="m 185.1852,618.8607 12.8788,5.0116 -5.1187,-12.8366 z" /></g></g><g
       id="g152"><g
         clip-path="url(#clipPath158)"
         id="g154"><path
           id="path160"
           style="fill:#1749b3;fill-opacity:1;fill-rule:nonzero;stroke:none"
           d="m 239.8832,569.3509 c -0.5326,10e-4 -0.9635,0.4335 -0.9625,0.9661 10e-4,0.5326 0.4335,0.9635 0.9661,0.9625 l 286.8229,-0.532 c 0.5326,-9e-4 0.9635,-0.4335 0.9625,-0.966 -10e-4,-0.5326 -0.4335,-0.9635 -0.9661,-0.9625 z" /></g></g><g
       id="g162"><g
         clip-path="url(#clipPath168)"
         id="g164"><path
           id="path170"
           style="fill:#1749b3;fill-opacity:1;fill-rule:nonzero;stroke:none"
           d="m 526.7182,575.2935 12.6632,-5.5337 -12.6837,-5.4867 z" /></g></g><g
       id="g172"><g
         clip-path="url(#clipPath178)"
         id="g174"><path
           id="path180"
           style="fill:#1749b3;fill-opacity:1;fill-rule:nonzero;stroke:none"
           d="m 390.5394,437.2199 c 8e-4,-0.5326 -0.4302,-0.965 -0.9627,-0.9659 -0.5326,-9e-4 -0.965,0.4301 -0.9659,0.9627 l -0.424,253.4208 c -9e-4,0.5325 0.4301,0.965 0.9626,0.9659 0.5326,9e-4 0.965,-0.4301 0.9659,-0.9627 z" /></g></g><g
       id="g182"><g
         clip-path="url(#clipPath188)"
         id="g184"><path
           id="path190"
           style="fill:#1749b3;fill-opacity:1;fill-rule:nonzero;stroke:none"
           d="m 383.6408,690.6299 5.489,12.6826 5.5314,-12.6642 z" /></g></g><g
       id="g192"><g
         clip-path="url(#clipPath198)"
         id="g194"><path
           id="path200"
           style="fill:#ed3624;fill-opacity:1;fill-rule:nonzero;stroke:none"
           d="m 390.0318,569.3533 c -0.3781,-0.375 -0.9887,-0.3724 -1.3637,0.006 -0.375,0.3781 -0.3724,0.9887 0.006,1.3637 l 45.8263,45.4462 c 0.3781,0.375 0.9886,0.3725 1.3637,-0.006 0.375,-0.3781 0.3724,-0.9887 -0.006,-1.3637 z" /></g></g><g
       id="g202"><g
         clip-path="url(#clipPath208)"
         id="g204"><path
           id="path210"
           style="fill:#ed3624;fill-opacity:1;fill-rule:nonzero;stroke:none"
           d="m 431.299,619.3967 12.8788,5.0116 -5.1187,-12.8366 z" /></g></g><g
       id="g212"><g
         clip-path="url(#clipPath218)"
         id="g214"><path
           id="path220"
           style="fill:#1749b3;fill-opacity:1;fill-rule:nonzero;stroke:none"
           d="m 443.7997,574.5098 c -0.2398,-0.2447 -0.3425,-0.4787 -0.3854,-0.6279 v 0 c -0.0914,-0.4048 0.1626,-0.8071 0.5674,-0.8986 v 0 c 0.4049,-0.0914 0.8072,0.1626 0.8986,0.5674 v 0 c 0.0915,0.4049 -0.1625,0.8072 -0.5674,0.8986 v 0 c -0.4048,0.0915 -0.8071,-0.1625 -0.8986,-0.5674 -0.0391,-0.1385 -0.0788,-0.3308 -0.1133,-0.538 v 0 c -0.0538,-0.425 0.247,-0.8131 0.6719,-0.867 v 0 c 0.4249,-0.0539 0.8131,0.2469 0.8669,0.6719 v 0 c 0.0539,0.4249 -0.2469,0.813 -0.6718,0.8669 v 0 c -0.4249,0.0539 -0.8131,-0.2469 -0.867,-0.6718 -0.0678,-0.4099 -0.1307,-0.9777 -0.1741,-1.6098 v 0 c -0.0196,-0.4545 0.3329,-0.8388 0.7874,-0.8584 v 0 c 0.4545,-0.0196 0.8388,0.3329 0.8584,0.7874 v 0 c 0.0197,0.4545 -0.3329,0.8389 -0.7874,0.8585 v 0 c -0.4545,0.0196 -0.8388,-0.333 -0.8584,-0.7875 -0.0635,-0.9458 -0.0862,-2.1024 -0.0258,-3.204 v 0 c 0.0374,-0.4915 0.4662,-0.8595 0.9576,-0.822 v 0 c 0.4915,0.0374 0.8595,0.4662 0.822,0.9576 v 0 c -0.0374,0.4915 -0.4662,0.8595 -0.9576,0.822 v 0 c -0.4915,-0.0374 -0.8595,-0.4662 -0.822,-0.9576 0.1476,-1.0946 0.3912,-2.2099 0.7623,-3.032 v 0 c 0.1362,-0.3631 0.5411,-0.547 0.9042,-0.4107 v 0 c 0.3631,0.1363 0.5469,0.5411 0.4107,0.9042 v 0 c -0.1363,0.3631 -0.5411,0.547 -0.9042,0.4107 v 0 c -0.3631,-0.1363 -0.547,-0.5411 -0.4107,-0.9042 0.1901,-0.4119 0.4544,-0.8207 0.743,-1.0883 v 0 c 0.2305,-0.2436 0.6147,-0.2542 0.8583,-0.0237 v 0 c 0.2435,0.2305 0.2541,0.6148 0.0236,0.8583 v 0 c -0.2305,0.2436 -0.6148,0.2541 -0.8583,0.0236 v 0 c -0.2435,-0.2304 -0.2541,-0.6147 -0.0236,-0.8582 0.3002,-0.2608 0.7629,-0.4596 1.1712,-0.4514 v 0 c 0.2827,-0.007 0.5174,0.2169 0.5242,0.4996 v 0 c 0.007,0.2827 -0.2169,0.5174 -0.4996,0.5242 -0.1657,0.0221 -0.1946,0.0795 -0.3138,0.2621 -0.131,0.1758 -0.2143,0.3973 -0.3101,0.7473 -0.2008,0.7016 -0.2827,1.6361 -0.2976,2.6741 -0.1022,1.0308 -0.1244,2.0892 -0.108,2.9974 0.01,0.6041 0.0357,1.1117 0.0671,1.4858 0.0152,0.1843 0.0278,0.311 0.0405,0.4017 0.009,0.0803 -0.0423,-0.0134 -0.2341,-0.2239 v 0 c 0.3267,0.2338 0.4021,0.6881 0.1683,1.0148 v 0 c -0.2338,0.3267 -0.6881,0.4021 -1.0148,0.1683 z" /><path
           id="path222"
           style="fill:#1749b3;fill-opacity:1;fill-rule:nonzero;stroke:none"
           d="m 442.4917,557.9449 c 0.187,-0.0252 0.1612,-0.0831 0.2813,-0.3778 v 0 c 0.2344,-0.3984 0.7475,-0.5313 1.1459,-0.2968 v 0 c 0.3984,0.2344 0.5314,0.7475 0.2969,1.1459 v 0 c -0.2345,0.3984 -0.7475,0.5313 -1.1459,0.2969 v 0 c -0.3985,-0.2345 -0.5314,-0.7475 -0.2969,-1.146 0.1413,-0.292 0.2174,-0.6787 0.2959,-1.1915 v 0 c 0.1121,-0.5058 0.6131,-0.825 1.1189,-0.7129 v 0 c 0.5059,0.1121 0.825,0.6131 0.7129,1.1189 v 0 c -0.1121,0.5058 -0.613,0.825 -1.1189,0.7129 v 0 c -0.5058,-0.1121 -0.825,-0.6131 -0.7129,-1.1189 0.1325,-0.6079 0.2268,-1.2994 0.3548,-1.9367 v 0 c 0.1057,-0.5122 0.6066,-0.8416 1.1188,-0.7359 v 0 c 0.5122,0.1058 0.8417,0.6067 0.7359,1.1188 v 0 c -0.1057,0.5122 -0.6067,0.8417 -1.1188,0.7359 v 0 c -0.5122,-0.1057 -0.8417,-0.6066 -0.7359,-1.1188 0.1545,-0.6358 0.3997,-1.3365 0.8033,-1.7925 v 0 c 0.3288,-0.3586 0.886,-0.3827 1.2447,-0.0539 v 0 c 0.3586,0.3288 0.3827,0.886 0.0539,1.2446 v 0 c -0.3288,0.3586 -0.886,0.3828 -1.2447,0.054 v 0 c -0.3586,-0.3288 -0.3827,-0.8861 -0.0539,-1.2447 0.2725,-0.1886 0.76,-0.3562 1.1159,-0.3092 v 0 c 0.3846,0.006 0.6913,0.3232 0.6849,0.7078 v 0 c -0.006,0.3846 -0.3232,0.6913 -0.7078,0.685 v 0 c -0.3846,-0.006 -0.6913,-0.3233 -0.685,-0.7079 v 0 c 0.006,-0.3846 0.3233,-0.6913 0.7079,-0.6849 0.3027,0.0783 0.6622,0.2785 0.9348,0.5387 v 0 c 0.2323,0.1613 0.2899,0.4803 0.1287,0.7126 v 0 c -0.1612,0.2324 -0.4802,0.29 -0.7126,0.1288 -0.2418,-0.0968 -0.3127,-0.0597 -0.3738,0.0127 -0.008,0.0409 0.182,0.0244 0.2055,0.1073 -0.094,0.0867 -0.1516,0.4101 -0.2471,0.9846 -0.1219,0.5732 -0.2245,1.2786 -0.3777,1.9596 -0.1594,0.5611 -0.383,1.1733 -0.6848,1.6346 -0.3232,0.4587 -0.9359,0.9082 -1.5614,0.9745 v 0 c -0.3992,0.0449 -0.7593,-0.2423 -0.8042,-0.6415 v 0 c -0.045,-0.3992 0.2422,-0.7592 0.6414,-0.8042" /><path
           id="path224"
           style="fill:#1749b3;fill-opacity:1;fill-rule:nonzero;stroke:none"
           d="m 449.1336,557.3893 c -0.1176,-0.2169 -0.2483,-0.4947 -0.3741,-0.7915 v 0 c -0.1681,-0.291 -0.0684,-0.6632 0.2226,-0.8313 v 0 c 0.2911,-0.1681 0.6632,-0.0684 0.8313,0.2226 v 0 c 0.1681,0.2911 0.0684,0.6633 -0.2226,0.8314 v 0 c -0.2911,0.168 -0.6633,0.0684 -0.8313,-0.2227 -0.6618,-0.9605 -1.488,-2.512 -2.5338,-4.1945 v 0 c -0.2393,-0.4292 -0.0854,-0.9711 0.3438,-1.2104 v 0 c 0.4292,-0.2393 0.9711,-0.0853 1.2104,0.3439 v 0 c 0.2393,0.4292 0.0853,0.9711 -0.3439,1.2104 v 0 c -0.4292,0.2393 -0.9711,0.0853 -1.2103,-0.3439 -0.6343,-1.1218 -1.3747,-2.2489 -1.8722,-2.997 v 0 c -0.2758,-0.423 -0.1564,-0.9895 0.2666,-1.2652 v 0 c 0.423,-0.2758 0.9895,-0.1564 1.2652,0.2666 v 0 c 0.2758,0.423 0.1564,0.9895 -0.2666,1.2652 v 0 c -0.423,0.2758 -0.9895,0.1564 -1.2652,-0.2666 -0.3281,-0.529 -0.6116,-0.9091 -0.7506,-1.2665 -0.0132,-0.1615 0.2758,-0.8594 0.7185,-1.0546 v 0 c 0.4521,-0.0713 0.8765,0.2373 0.9479,0.6894 v 0 c 0.0713,0.4521 -0.2373,0.8765 -0.6894,0.9479 v 0 c -0.4521,0.0714 -0.8765,-0.2372 -0.9479,-0.6894 v 0 c -0.0714,-0.4521 0.2372,-0.8765 0.6894,-0.9479 0.2706,0.0161 0.4924,0.1039 0.5448,0.1496 v 0 c 0.3739,0.2179 0.5002,0.6977 0.2822,1.0715 v 0 c -0.218,0.3738 -0.6977,0.5002 -1.0715,0.2822 v 0 c -0.3739,-0.218 -0.5002,-0.6978 -0.2822,-1.0716 v 0 c 0.218,-0.3738 0.6977,-0.5001 1.0715,-0.2821 0.0515,0.0671 0.1084,0.1471 0.1469,0.2177 v 0 c 0.2953,0.2436 0.3372,0.6804 0.0937,0.9757 v 0 c -0.2436,0.2952 -0.6804,0.3372 -0.9756,0.0936 v 0 c -0.2953,-0.2435 -0.3372,-0.6803 -0.0937,-0.9756 v 0 c 0.2436,-0.2953 0.6803,-0.3372 0.9756,-0.0937 0.0665,0.133 0.1868,0.3197 0.3717,0.5654 v 0 c 0.2111,0.1882 0.2297,0.5119 0.0415,0.723 v 0 c -0.1882,0.211 -0.5119,0.2296 -0.723,0.0414 -0.2636,-0.1542 -0.4488,-0.2374 -0.5714,-0.2599 -0.0571,-0.008 -0.0661,0.0223 -0.0525,0.0676 0.0297,0.0324 0.2377,0.1153 0.5005,0.1325 0.4348,-0.1939 0.7219,-0.8842 0.7126,-1.0311 -0.1028,-0.221 0.2035,0.1448 0.5928,0.7163 0.4855,0.7597 1.2442,1.9467 1.8946,3.1291 0.9076,1.8214 1.57,3.4642 2.0335,4.4523 0.1811,0.2347 0.3303,0.3957 0.4676,0.5058 v 0 c 0.247,0.3168 0.1903,0.7739 -0.1265,1.0209 v 0 c -0.3168,0.247 -0.7739,0.1903 -1.0209,-0.1265" /><path
           id="path226"
           style="fill:#1749b3;fill-opacity:1;fill-rule:nonzero;stroke:none"
           d="m 449.5742,547.7811 c -0.006,0.356 0.0539,0.4762 0.2045,0.6251 v 0 c 0.2527,0.367 0.16,0.8694 -0.207,1.1221 v 0 c -0.367,0.2527 -0.8694,0.16 -1.1221,-0.207 v 0 c -0.2528,-0.367 -0.1601,-0.8694 0.2069,-1.1221 v 0 c 0.3671,-0.2527 0.8695,-0.1601 1.1222,0.207 0.1174,0.151 0.1904,0.163 0.4456,0.1993 v 0 c 0.4703,0.1357 0.7415,0.627 0.6058,1.0973 v 0 c -0.1358,0.4703 -0.6271,0.7415 -1.0974,0.6058 v 0 c -0.4703,-0.1358 -0.7415,-0.6271 -0.6058,-1.0974 v 0 c 0.1358,-0.4703 0.6271,-0.7415 1.0974,-0.6057 0.3523,0.0726 0.5522,0.11 0.6711,0.0244 v 0 c 0.5224,-0.1219 1.0447,0.2028 1.1665,0.7252 v 0 c 0.1219,0.5224 -0.2028,1.0446 -0.7252,1.1665 v 0 c -0.5224,0.1219 -1.0446,-0.2028 -1.1665,-0.7252 v 0 c -0.1219,-0.5224 0.2028,-1.0447 0.7252,-1.1665 -0.0457,0.0787 -0.1426,0.1476 -0.0544,-0.0818 0.1079,-0.2408 0.1616,-0.5326 0.1904,-0.8895 0.058,-0.4759 0.0417,-0.868 -0.1278,-1.322 -0.15,-0.4523 -0.5335,-0.8642 -0.8957,-1.2735 -0.1506,-0.1739 -0.3009,-0.2983 -0.4486,-0.4238 -0.0741,-0.0631 -0.1597,-0.1361 -0.233,-0.2092 -0.0404,-0.0416 -0.1192,-0.1355 -0.1736,-0.2189 -0.0596,-0.1128 -0.1349,-0.492 -0.0797,-0.7687 0.2645,-0.3768 0.6647,-0.5577 0.7741,-0.571 0.0727,-0.004 0.1684,-8e-4 0.2182,0.003 0.0852,0.007 0.1929,0.0235 0.2853,0.0392 0.1827,0.0311 0.3942,0.0748 0.5645,0.1028 0.376,0.0612 0.8565,0.1058 1.409,0.1318 v 0 c 0.5279,0.0455 0.919,0.5104 0.8735,1.0384 v 0 c -0.0455,0.5279 -0.5104,0.919 -1.0383,0.8735 v 0 c -0.528,-0.0455 -0.9191,-0.5104 -0.8736,-1.0383 v 0 c 0.0455,-0.528 0.5104,-0.9191 1.0384,-0.8736 0.5517,0.0431 1.1204,0.0619 1.6664,0.0502 v 0 c 0.5376,-0.007 0.9788,0.4239 0.9854,0.9614 v 0 c 0.007,0.5376 -0.4239,0.9788 -0.9615,0.9854 v 0 c -0.5376,0.007 -0.9787,-0.4239 -0.9853,-0.9615 v 0 c -0.007,-0.5376 0.4239,-0.9787 0.9614,-0.9853 0.5455,0.0255 1.0022,0.0245 1.3564,-0.0144 v 0 c 0.4759,-0.0929 0.9371,0.2176 1.03,0.6936 v 0 c 0.0929,0.4759 -0.2176,0.9371 -0.6935,1.03 v 0 c -0.476,0.0929 -0.9371,-0.2176 -1.0301,-0.6935 v 0 c -0.0929,-0.476 0.2176,-0.9372 0.6936,-1.0301 0.2998,0.0677 0.4334,0.155 0.5181,0.2164 v 0 c 0.2058,-0.194 0.5299,-0.1844 0.7238,0.0214 v 0 c 0.194,0.2057 0.1844,0.5298 -0.0213,0.7238 -0.1689,0.3005 -0.5308,0.567 -0.8843,0.7621 -0.4621,0.1205 -1.0684,0.1979 -1.6688,0.2375 -0.5997,0.002 -1.2595,-0.0294 -1.855,-0.0851 -0.595,-0.0729 -1.1807,-0.1753 -1.6261,-0.2933 -0.194,-0.0514 -0.4032,-0.1127 -0.5545,-0.1546 -0.0745,-0.0209 -0.1119,-0.0331 -0.1292,-0.0389 -0.006,-0.003 0.0464,-0.003 0.0939,-0.005 0.0729,-0.0113 0.4544,-0.1856 0.7136,-0.5479 0.0485,-0.2582 -0.0204,-0.6115 -0.0612,-0.6938 -0.0357,-0.0529 -0.0835,-0.1115 -0.0831,-0.1134 0.01,0.008 0.0486,0.0358 0.1257,0.0954 0.153,0.1181 0.4097,0.3236 0.6516,0.5772 0.3766,0.395 0.9637,1.0384 1.289,1.7893 0.2784,0.68 0.3824,1.4802 0.3544,2.1293 -0.0338,0.4614 -0.1383,1.0274 -0.3104,1.4721 -0.192,0.4561 -0.6908,1.0383 -1.2862,1.2454 -0.5893,0.0796 -1.2155,-0.0718 -1.6042,-0.213 -0.4794,-0.1758 -1.0033,-0.5612 -1.2832,-0.9873 -0.2467,-0.4282 -0.3844,-1.0649 -0.3267,-1.6396 v 0 c 0.0274,-0.4008 0.3746,-0.7035 0.7754,-0.676 v 0 c 0.4008,0.0274 0.7034,0.3746 0.676,0.7754" /><path
           id="path228"
           style="fill:#1749b3;fill-opacity:1;fill-rule:nonzero;stroke:none"
           d="m 383.2129,620.7222 c 0.4779,0.0219 0.9848,0.0537 1.5707,0.0883 v 0 c 0.4567,0.0546 0.7827,0.4691 0.7281,0.9258 v 0 c -0.0546,0.4566 -0.4691,0.7826 -0.9257,0.728 v 0 c -0.4567,-0.0545 -0.7827,-0.469 -0.7281,-0.9257 v 0 c 0.0546,-0.4567 0.469,-0.7826 0.9257,-0.7281 0.5836,0.0587 1.2403,0.1195 2.0348,0.1772 v 0 c 0.4766,0.0413 0.8295,0.4612 0.7882,0.9379 v 0 c -0.0414,0.4766 -0.4613,0.8295 -0.9379,0.7882 v 0 c -0.4767,-0.0414 -0.8295,-0.4613 -0.7882,-0.9379 v 0 c 0.0413,-0.4767 0.4612,-0.8295 0.9379,-0.7882 1.4227,0.242 3.2663,0.471 5.8416,0.6458 v 0 c 0.2827,0.006 0.5068,0.2405 0.5006,0.5232 v 0 c -0.006,0.2828 -0.2405,0.5069 -0.5232,0.5007 -2.6005,0.0606 -4.5032,0.0648 -5.9687,0.0564 -0.8102,-0.0816 -1.4933,-0.1677 -2.0829,-0.2495 -0.587,-0.1055 -1.0864,-0.2073 -1.5459,-0.2977 v 0 c -0.3989,-0.0478 -0.6835,-0.4099 -0.6357,-0.8087 v 0 c 0.0478,-0.3989 0.4098,-0.6835 0.8087,-0.6357" /><path
           id="path230"
           style="fill:#1749b3;fill-opacity:1;fill-rule:nonzero;stroke:none"
           d="m 363.5537,631.2003 c -0.1169,-1.0387 -0.0345,-2.246 0.1532,-3.3195 v 0 c 0.0825,-0.4252 0.4941,-0.7031 0.9193,-0.6206 v 0 c 0.4253,0.0825 0.7032,0.4941 0.6207,0.9193 v 0 c -0.0825,0.4253 -0.4941,0.7032 -0.9194,0.6207 v 0 c -0.4252,-0.0825 -0.7031,-0.4941 -0.6206,-0.9194 0.3439,-1.2876 0.8649,-2.501 1.3861,-3.1795 v 0 c 0.1491,-0.2403 0.4647,-0.3143 0.705,-0.1653 v 0 c 0.2404,0.1491 0.3144,0.4647 0.1653,0.705 -0.2913,0.6318 -0.5727,1.7116 -0.7164,2.9385 -0.2113,0.9838 -0.3173,1.982 -0.2453,2.8796 v 0 c 0.039,0.3998 -0.2535,0.7555 -0.6534,0.7945 v 0 c -0.3998,0.039 -0.7555,-0.2535 -0.7945,-0.6533" /><path
           id="path232"
           style="fill:#1749b3;fill-opacity:1;fill-rule:nonzero;stroke:none"
           d="m 361.9695,624.134 c -0.0866,-9e-4 -0.1569,-0.002 -0.2025,-0.003 v 0 c -0.4052,-0.0364 -0.7042,-0.3943 -0.6678,-0.7994 v 0 c 0.0363,-0.4052 0.3942,-0.7042 0.7993,-0.6678 v 0 c 0.4052,0.0363 0.7042,0.3942 0.6679,0.7994 v 0 c -0.0364,0.4051 -0.3943,0.7041 -0.7994,0.6678 -0.0624,-0.003 -0.5748,-1.1774 -0.0727,-1.4784 v 0 c 0.4074,-0.0604 0.7865,0.221 0.8469,0.6284 v 0 c 0.0603,0.4074 -0.221,0.7865 -0.6284,0.8469 v 0 c -0.4074,0.0603 -0.7866,-0.221 -0.8469,-0.6284 v 0 c -0.0604,-0.4074 0.221,-0.7866 0.6284,-0.8469 0.1085,-0.0173 0.2482,-0.0244 0.4242,-0.0265 v 0 c 0.4218,0.01 0.7558,0.36 0.7458,0.7818 v 0 c -0.01,0.4218 -0.3599,0.7557 -0.7817,0.7458 v 0 c -0.4218,-0.01 -0.7558,-0.3599 -0.7459,-0.7817 v 0 c 0.01,-0.4218 0.36,-0.7558 0.7818,-0.7459 0.3449,-0.004 0.947,0.0114 1.6069,0.0595 0.757,0.0466 1.5587,0.1403 2.3083,0.2234 0.7468,0.1015 1.4322,0.1916 2.0052,0.2206 v 0 c 0.4863,0.0288 0.8572,0.4465 0.8283,0.9328 v 0 c -0.0288,0.4863 -0.4465,0.8572 -0.9328,0.8284 v 0 c -0.4863,-0.0289 -0.8572,-0.4465 -0.8284,-0.9329 v 0 c 0.0289,-0.4863 0.4465,-0.8572 0.9329,-0.8283 0.4514,0.0891 0.7605,0.1454 0.9904,0.1443 v 0 c 0.3731,-0.0949 0.7525,0.1305 0.8475,0.5036 v 0 c 0.0949,0.3731 -0.1306,0.7526 -0.5037,0.8475 v 0 c -0.3731,0.095 -0.7525,-0.1305 -0.8474,-0.5036 v 0 c -0.095,-0.3731 0.1305,-0.7525 0.5036,-0.8475 0.1127,0.005 0.128,0.0346 0.1698,0.0326 v 0 c 0.26,-0.2094 0.6406,-0.1684 0.85,0.0917 v 0 c 0.2094,0.2601 0.1684,0.6407 -0.0917,0.8501 v 0 c -0.2601,0.2094 -0.6407,0.1683 -0.8501,-0.0918 v 0 c -0.2094,-0.26 -0.1683,-0.6406 0.0918,-0.85 0.0499,0.008 0.0343,0.0927 0.0621,0.0697 v 0 c 0.0588,-0.2765 0.3308,-0.453 0.6074,-0.3942 v 0 c 0.2766,0.0589 0.4531,0.3309 0.3942,0.6074 -0.0237,0.2189 -0.1652,0.4975 -0.3053,0.6588 -0.1486,0.1513 -0.3879,0.2931 -0.5848,0.3769 -0.3879,0.1561 -0.915,0.2342 -1.4381,0.2657 -0.6457,-0.0434 -1.3953,-0.1498 -2.1449,-0.2603 -0.7468,-0.129 -1.5031,-0.2629 -2.2104,-0.3504 -0.6237,-0.0696 -1.1739,-0.1066 -1.4967,-0.1264 -0.1579,-0.01 -0.2309,-0.0156 -0.1699,-0.0258 0.4785,-0.2975 -0.0163,-1.4669 -0.0118,-1.4639 0.0165,0.005 0.0575,0.0102 0.1346,0.0167 v 0 c 0.4013,0.0183 0.7119,0.3584 0.6936,0.7597 v 0 c -0.0182,0.4013 -0.3583,0.7118 -0.7596,0.6936" /><path
           id="path234"
           style="fill:#1749b3;fill-opacity:1;fill-rule:nonzero;stroke:none"
           d="m 365.224,619.6494 c -0.005,0.0685 0.0385,0.0899 0.2565,0.2231 v 0 c 0.3419,0.2368 0.4272,0.7058 0.1904,1.0477 v 0 c -0.2367,0.3419 -0.7058,0.4271 -1.0477,0.1904 v 0 c -0.3419,-0.2368 -0.4271,-0.7058 -0.1904,-1.0477 v 0 c 0.2368,-0.3419 0.7059,-0.4271 1.0477,-0.1904 0.2201,0.1478 0.4675,0.242 0.8043,0.305 v 0 c 0.4198,0.0934 0.6843,0.5093 0.591,0.9291 v 0 c -0.0934,0.4197 -0.5093,0.6843 -0.929,0.5909 v 0 c -0.4198,-0.0934 -0.6843,-0.5093 -0.591,-0.929 v 0 c 0.0934,-0.4198 0.5093,-0.6843 0.929,-0.591 0.4108,0.0803 0.704,0.1119 0.868,0.0195 v 0 c 0.4268,-0.1428 0.8887,0.0873 1.0315,0.5141 v 0 c 0.1429,0.4268 -0.0873,0.8887 -0.5141,1.0315 v 0 c -0.4268,0.1429 -0.8886,-0.0873 -1.0315,-0.5141 v 0 c -0.1428,-0.4268 0.0873,-0.8886 0.5141,-1.0315 -6e-4,0.0183 -0.1004,0.0985 -0.0823,0.0603 0.0361,-0.0392 0.0409,-0.0521 0.0612,-0.1756 0.0566,-0.2626 0.0343,-0.551 -0.0794,-0.9157 -0.1467,-0.6104 -0.715,-1.2838 -1.3152,-1.9856 -0.5226,-0.5957 -1.1609,-1.1051 -1.4758,-1.4555 0.0648,10e-4 0.0549,0.0414 -0.2913,-0.1563 v 0 c -0.2811,-0.2573 -0.3005,-0.6937 -0.0433,-0.9749 v 0 c 0.2573,-0.2812 0.6937,-0.3006 0.9749,-0.0433 v 0 c 0.2812,0.2572 0.3006,0.6937 0.0433,0.9749 v 0 c -0.2572,0.2811 -0.6937,0.3005 -0.9749,0.0433 0.6442,-1.1542 1.1723,-1.2613 1.7974,-1.2171 v 0 c 0.4744,0.0863 0.789,0.5409 0.7027,1.0154 v 0 c -0.0864,0.4744 -0.541,0.789 -1.0154,0.7026 v 0 c -0.4744,-0.0863 -0.789,-0.5409 -0.7027,-1.0153 v 0 c 0.0863,-0.4744 0.5409,-0.7891 1.0154,-0.7027 0.7414,0.1135 1.7558,0.2484 2.6415,0.3155 v 0 c 0.5146,0.0515 0.8899,0.5105 0.8384,1.0251 v 0 c -0.0515,0.5146 -0.5105,0.89 -1.025,0.8384 v 0 c -0.5146,-0.0515 -0.89,-0.5104 -0.8385,-1.025 v 0 c 0.0515,-0.5146 0.5105,-0.89 1.0251,-0.8385 0.9416,0.113 1.6286,0.1697 2.2175,0.1124 v 0 c 0.4828,-0.0591 0.9221,0.2844 0.9812,0.7672 v 0 c 0.0591,0.4828 -0.2843,0.9221 -0.7671,0.9812 v 0 c -0.4828,0.0591 -0.9221,-0.2844 -0.9813,-0.7672 v 0 c -0.0591,-0.4828 0.2844,-0.9221 0.7672,-0.9812 0.6048,0.0543 1.0219,0.0344 1.5259,-0.2105 v 0 c 0.2233,-0.1735 0.5449,-0.1332 0.7185,0.0901 v 0 c 0.1735,0.2232 0.1332,0.5449 -0.0901,0.7185 -0.5094,0.5428 -1.2046,0.9321 -1.9403,1.1503 -0.7516,0.1068 -1.6332,0.0824 -2.618,0.003 -0.9331,-0.115 -2.0057,-0.3012 -2.7676,-0.461 -0.3858,-0.1398 -0.9725,-0.1589 -1.4851,-0.5013 0.65,-1.1568 1.0045,-1.0795 1.3335,-0.7862 0.2088,0.2284 0.8906,0.7605 1.5076,1.4351 0.6428,0.6839 1.4126,1.5614 1.7434,2.4795 0.1641,0.5244 0.226,1.1614 0.1573,1.6489 -0.0423,0.2516 -0.1526,0.5699 -0.2857,0.7915 -0.1514,0.2227 -0.4749,0.4935 -0.7556,0.6055 -0.5514,0.1472 -1.2277,0.0762 -1.7234,-0.0451 -0.4652,-0.1153 -0.968,-0.3361 -1.3236,-0.5869 -0.3577,-0.2655 -0.716,-0.7264 -0.8249,-1.1716 v 0 c -0.08,-0.3937 0.1743,-0.7776 0.568,-0.8576 v 0 c 0.3937,-0.08 0.7777,0.1743 0.8577,0.568" /><path
           id="path236"
           style="fill:#000000;fill-opacity:1;fill-rule:nonzero;stroke:none"
           d="m 194.2283,573.7871 c -0.549,-0.6239 -0.7182,-1.6485 -0.7829,-2.8204 v 0 c -0.0232,-0.3929 0.2765,-0.7302 0.6694,-0.7534 v 0 c 0.3929,-0.0232 0.7302,0.2765 0.7534,0.6694 v 0 c 0.0231,0.3929 -0.2765,0.7302 -0.6694,0.7534 v 0 c -0.3929,0.0232 -0.7302,-0.2765 -0.7534,-0.6694 -0.0636,-1.1652 -0.0741,-2.6266 -0.2583,-4.3401 v 0 c -0.0422,-0.3831 0.2342,-0.7278 0.6173,-0.77 v 0 c 0.3831,-0.0421 0.7278,0.2343 0.7699,0.6174 v 0 c 0.0422,0.383 -0.2342,0.7278 -0.6173,0.7699 v 0 c -0.3831,0.0422 -0.7278,-0.2342 -0.7699,-0.6173 -0.005,-0.6135 -0.0306,-1.25 -0.0891,-1.9271 v 0 c -0.0499,-0.2783 0.1353,-0.5444 0.4136,-0.5943 v 0 c 0.2784,-0.0499 0.5445,0.1353 0.5944,0.4136 0.1842,0.6773 0.338,1.3372 0.4683,1.9551 0.1996,1.7756 0.2222,3.2824 0.2939,4.4088 0.0705,1.1196 0.1388,1.7103 0.3826,1.8696 v 0 c 0.2857,0.2824 0.2885,0.743 0.006,1.0287 v 0 c -0.2823,0.2858 -0.7429,0.2885 -1.0286,0.006" /><path
           id="path238"
           style="fill:#000000;fill-opacity:1;fill-rule:nonzero;stroke:none"
           d="m 190.4165,555.462 c 1.0355,0.2223 1.7613,0.7239 2.2186,1.0736 v 0 c 0.3191,0.244 0.3799,0.7006 0.1359,1.0197 v 0 c -0.2441,0.319 -0.7006,0.3799 -1.0197,0.1358 v 0 c -0.3191,-0.244 -0.3799,-0.7005 -0.1359,-1.0196 v 0 c 0.2441,-0.3191 0.7006,-0.38 1.0197,-0.1359 0.1334,0.1056 0.3065,0.1904 0.5183,0.3329 v 0 c 0.3317,0.2266 0.417,0.6792 0.1904,1.0109 v 0 c -0.2265,0.3318 -0.6791,0.417 -1.0109,0.1905 v 0 c -0.3317,-0.2266 -0.417,-0.6792 -0.1904,-1.0109 v 0 c 0.2265,-0.3318 0.6791,-0.417 1.0109,-0.1905 0.2462,0.1639 0.3982,0.2974 0.4142,0.2863 v 0 c 0.3702,0.1766 0.5272,0.6199 0.3506,0.9901 v 0 c -0.1766,0.3702 -0.6199,0.5272 -0.9901,0.3506 v 0 c -0.3702,-0.1766 -0.5271,-0.6199 -0.3505,-0.9901 v 0 c 0.1766,-0.3702 0.6198,-0.5271 0.99,-0.3506 0.0229,0.007 -0.1528,-0.0355 -0.3763,-0.0246 -0.134,0.052 -0.3826,0.2614 -0.4523,0.369 -0.0357,0.09 -0.0638,0.2269 -0.0685,0.2502 0.0263,0.0171 -0.1074,-0.2198 -0.2474,-0.6077 -0.4121,-1.1547 -0.7112,-2.6656 -1.0185,-3.721 -0.1025,-0.3848 -0.1834,-0.7123 -0.2671,-1.0218 v 0 c -0.1245,-0.4541 0.1428,-0.923 0.5969,-1.0475 v 0 c 0.4541,-0.1244 0.923,0.1428 1.0475,0.5969 v 0 c 0.1244,0.4541 -0.1428,0.9231 -0.5969,1.0475 v 0 c -0.4541,0.1245 -0.9231,-0.1428 -1.0475,-0.5969 -0.1333,-0.5077 -0.1912,-0.9376 -0.2812,-1.1185 v 0 c -0.1926,-0.422 -0.007,-0.9203 0.4154,-1.1128 v 0 c 0.4221,-0.1926 0.9203,-0.007 1.1129,0.4155 v 0 c 0.1925,0.422 0.006,0.9202 -0.4155,1.1128 v 0 c -0.4221,0.1925 -0.9203,0.006 -1.1128,-0.4155 0.0232,-0.0874 0.1219,-0.0538 0.1775,-0.0652 v 0 c -0.3094,-0.209 -0.3908,-0.6292 -0.1819,-0.9386 v 0 c 0.2089,-0.3094 0.6291,-0.3908 0.9385,-0.1819 v 0 c 0.3094,0.209 0.3909,0.6292 0.1819,0.9386 v 0 c -0.2089,0.3094 -0.6291,0.3908 -0.9385,0.1819 0.0596,-0.042 0.2193,-0.071 0.1799,-0.1078 v 0 c -0.2749,0.0665 -0.5516,-0.1025 -0.6181,-0.3773 v 0 c -0.0664,-0.2749 0.1025,-0.5516 0.3774,-0.6181 0.2201,-0.0995 0.5872,-0.0905 0.8175,-0.0172 0.2261,0.1037 0.4586,0.3295 0.5941,0.4884 0.1905,0.434 0.279,0.9547 0.3973,1.3651 0.0907,0.3275 0.1743,0.6568 0.2752,1.0274 0.2847,1.1427 0.5316,2.6179 0.865,3.6564 0.0933,0.2983 0.2688,0.6901 0.2949,1.1179 -0.005,0.0914 -0.0417,0.2794 -0.0944,0.4052 -0.0872,0.1444 -0.3613,0.3753 -0.5267,0.436 -0.2922,0.0298 -0.5658,-0.043 -0.6674,-0.0956 -0.2393,-0.1328 -0.4315,-0.3094 -0.5955,-0.4257 -0.1275,-0.0891 -0.3409,-0.1984 -0.5815,-0.3786 -0.4424,-0.3384 -0.8445,-0.6582 -1.6237,-0.8034 v 0 c -0.3938,-0.0798 -0.6483,-0.4636 -0.5686,-0.8573 v 0 c 0.0798,-0.3938 0.4636,-0.6483 0.8573,-0.5686 z" /><path
           id="path240"
           style="fill:#000000;fill-opacity:1;fill-rule:nonzero;stroke:none"
           d="m 189.6099,550.8888 c 0.0292,-0.0176 0.1655,-0.1362 0.2619,-0.275 v 0 c -0.1835,0.3591 -0.6235,0.5015 -0.9826,0.3179 v 0 c -0.3591,-0.1835 -0.5015,-0.6235 -0.3179,-0.9826 v 0 c 0.1835,-0.3591 0.6234,-0.5015 0.9826,-0.3179 v 0 c 0.3591,0.1835 0.5015,0.6235 0.3179,0.9826 0.0731,-0.2501 -0.0954,-0.7932 -0.2221,-0.9114 v 0 c 0.3315,0.2326 0.4118,0.6898 0.1792,1.0213 v 0 c -0.2325,0.3315 -0.6897,0.4118 -1.0212,0.1793 v 0 c -0.3315,-0.2325 -0.4118,-0.6898 -0.1793,-1.0213 v 0 c 0.2325,-0.3315 0.6897,-0.4118 1.0213,-0.1793 -0.1574,-0.0799 -0.2582,-0.1084 -0.2299,-0.1083 v 0 c 0.4061,0.0399 0.7031,0.4015 0.6632,0.8077 v 0 c -0.0399,0.4061 -0.4015,0.7031 -0.8076,0.6632 v 0 c -0.4062,-0.0399 -0.7032,-0.4015 -0.6633,-0.8076 v 0 c 0.0399,-0.4062 0.4015,-0.7032 0.8077,-0.6633 0.0777,0.005 0.2387,10e-4 0.4532,-0.005 v 0 c 0.4145,-0.004 0.7539,0.3286 0.758,0.7431 v 0 c 0.004,0.4145 -0.3287,0.7538 -0.7432,0.7579 v 0 c -0.4145,0.004 -0.7538,-0.3286 -0.7579,-0.7431 v 0 c -0.004,-0.4145 0.3286,-0.7539 0.7431,-0.7579 0.6623,-0.0288 1.4637,0.0199 2.2196,0.0397 v 0 c 0.4526,0.0259 0.7985,0.4139 0.7725,0.8665 v 0 c -0.026,0.4526 -0.414,0.7985 -0.8666,0.7725 v 0 c -0.4526,-0.026 -0.7984,-0.4139 -0.7724,-0.8665 v 0 c 0.0259,-0.4527 0.4139,-0.7985 0.8665,-0.7725 0.5391,0.0219 1.0325,0.0301 1.4628,-0.0102 v 0 c 0.4672,-0.0325 0.8723,0.32 0.9048,0.7872 v 0 c 0.0325,0.4672 -0.32,0.8723 -0.7872,0.9048 v 0 c -0.4672,0.0325 -0.8723,-0.32 -0.9048,-0.7872 v 0 c -0.0325,-0.4672 0.32,-0.8723 0.7872,-0.9048 0.5242,0.0779 0.833,0.1319 1.0329,0.0642 v 0 c 0.2078,-0.1917 0.5318,-0.1786 0.7235,0.0293 v 0 c 0.1917,0.2078 0.1786,0.5318 -0.0293,0.7235 -0.3468,0.4365 -0.9898,0.7174 -1.6094,0.875 -0.5231,0.026 -1.1165,-0.002 -1.6746,-0.0428 -0.7799,-0.0683 -1.5347,-0.1611 -2.1107,-0.1777 -0.2248,-0.002 -0.4505,-0.007 -0.6124,-0.0256 -0.0916,-0.0116 -0.2756,-0.0572 -0.4727,-0.1655 -0.1391,-0.1269 -0.3128,-0.6842 -0.2297,-0.9538 0.103,-0.1517 0.2612,-0.2887 0.3274,-0.3269 v 0 c 0.3507,-0.196 0.7938,-0.0705 0.9898,0.2802 v 0 c 0.1959,0.3507 0.0704,0.7939 -0.2803,0.9898 z" /><path
           id="path242"
           style="fill:#000000;fill-opacity:1;fill-rule:nonzero;stroke:none"
           d="m 135.0886,624.1669 c 0.8451,0.4312 7.2275,-0.8593 11.8441,-1.4676 v 0 c 0.2798,-0.0412 0.54,0.1521 0.5812,0.4319 v 0 c 0.0413,0.2798 -0.1521,0.54 -0.4319,0.5812 -4.5525,0.7432 -10.9808,2.1862 -12.4589,1.8328 v 0 c -0.3806,-0.1285 -0.5849,-0.5413 -0.4564,-0.9219 v 0 c 0.1286,-0.3806 0.5413,-0.5849 0.9219,-0.4564 z" /><path
           id="path244"
           style="fill:#000000;fill-opacity:1;fill-rule:nonzero;stroke:none"
           d="m 119.2016,627.839 c 0.0228,0.0729 0.4372,0.3321 0.9514,0.613 v 0 c 0.3312,0.1678 0.4636,0.5722 0.2958,0.9034 v 0 c -0.1678,0.3312 -0.5723,0.4636 -0.9034,0.2958 v 0 c -0.3312,-0.1678 -0.4636,-0.5723 -0.2959,-0.9034 v 0 c 0.1678,-0.3312 0.5723,-0.4636 0.9035,-0.2958 0.292,0.1326 0.6054,0.2532 0.9229,0.3763 v 0 c 0.3616,0.1575 0.5271,0.5782 0.3696,0.9398 v 0 c -0.1574,0.3616 -0.5781,0.527 -0.9397,0.3696 v 0 c -0.3616,-0.1575 -0.5271,-0.5782 -0.3696,-0.9398 v 0 c 0.1574,-0.3616 0.5782,-0.527 0.9397,-0.3696 0.4249,0.2021 0.7097,0.436 0.824,0.4674 v 0 c 0.3595,0.1133 0.5592,0.4965 0.446,0.856 v 0 c -0.1133,0.3596 -0.4965,0.5592 -0.856,0.446 v 0 c -0.3596,-0.1132 -0.5592,-0.4965 -0.446,-0.856 v 0 c 0.1132,-0.3595 0.4965,-0.5592 0.856,-0.446 -0.0303,-0.002 -0.2291,0.0109 -0.2883,0.0211 -0.0454,0.0353 -0.1425,0.1426 -0.156,0.1408 0.0471,0.0448 -0.0834,-0.2756 -0.1785,-0.7472 -0.2133,-1.1353 -0.3453,-2.4031 -0.5675,-3.6498 -0.1156,-0.6769 -0.2225,-1.3468 -0.3058,-1.8896 -0.057,-0.3979 -0.0401,-0.6851 -0.0696,-0.7873 0.0693,-0.0497 0.1909,0.0471 0.0392,-0.0376 -0.1707,-0.1019 -0.4514,-0.1695 -0.7868,-0.2783 -0.4288,-0.0916 -0.8579,-0.2655 -1.1626,-0.3759 -0.2022,-0.0407 -0.4013,-0.0809 -0.5576,-0.1295 -0.0923,-0.0359 -0.2818,-0.1889 -0.4042,-0.3982 -0.0398,-0.1477 -0.004,-0.464 0.0579,-0.5979 0.0677,-0.1027 0.1924,-0.2222 0.2525,-0.2687 0.5011,-0.2719 1.4397,-0.3534 2.2853,-0.4471 v 0 c 0.4235,-0.0345 0.7948,0.2809 0.8293,0.7044 v 0 c 0.0345,0.4235 -0.2808,0.7948 -0.7043,0.8293 v 0 c -0.4236,0.0345 -0.7949,-0.2808 -0.8294,-0.7043 v 0 c -0.0345,-0.4235 0.2809,-0.7949 0.7044,-0.8294 0.9999,-0.0937 2.078,-0.1258 3.0358,-0.1616 v 0 c 0.4458,-0.0108 0.8159,0.3419 0.8267,0.7877 v 0 c 0.0108,0.4458 -0.3419,0.8159 -0.7877,0.8267 v 0 c -0.4458,0.0108 -0.8159,-0.3419 -0.8267,-0.7877 v 0 c -0.0108,-0.4458 0.3419,-0.8159 0.7877,-0.8267 0.839,0.0112 1.5749,0.0203 2.1144,-0.0156 v 0 c 0.391,-0.0482 0.747,0.2297 0.7952,0.6206 v 0 c 0.0482,0.391 -0.2297,0.747 -0.6206,0.7952 v 0 c -0.391,0.0482 -0.747,-0.2297 -0.7952,-0.6206 v 0 c -0.0482,-0.391 0.2297,-0.747 0.6206,-0.7952 0.0843,0.0572 0.1596,0.1142 0.238,0.1692 v 0 c 0.279,-0.046 0.5425,0.1429 0.5885,0.4219 v 0 c 0.0461,0.279 -0.1428,0.5425 -0.4218,0.5885 -0.0693,0.0794 -0.1503,0.1587 -0.2301,0.2362 -0.6092,0.1057 -1.4075,0.1625 -2.2501,0.2142 -0.9637,0.0106 -1.9994,0.0159 -2.9498,0.0809 -0.8697,0.0461 -1.6471,0.0578 -1.7079,0.1142 0.0229,-0.0247 0.122,-0.1223 0.1755,-0.2029 0.0472,-0.1118 0.0805,-0.406 0.0477,-0.5321 -0.1075,-0.1631 -0.2411,-0.2697 -0.2451,-0.2566 0.0234,0.0514 0.1371,0.1236 0.32,0.2223 0.3269,0.1188 0.6888,0.2692 1.0222,0.3361 0.2996,0.0233 0.6474,0.0243 0.9748,0.088 0.3469,0.0811 0.8366,0.4407 1.0199,0.9119 0.0644,0.3267 0.0513,0.6209 0.0961,0.8738 0.086,0.5378 0.1944,1.1953 0.312,1.8636 0.2197,1.3017 0.3403,2.568 0.5324,3.6411 0.0612,0.3799 0.2202,0.9733 0.0626,1.5393 -0.0852,0.1807 -0.2968,0.4329 -0.4889,0.5516 -0.2059,0.0936 -0.5835,0.1283 -0.8144,0.0631 -0.3838,-0.1254 -0.7023,-0.3544 -0.9839,-0.4599 -0.306,-0.1485 -0.6439,-0.3108 -0.9604,-0.4865 -0.564,-0.2654 -1.1261,-0.572 -1.3991,-0.8109 v 0 c -0.2765,-0.2914 -0.2644,-0.7518 0.027,-1.0283 v 0 c 0.2914,-0.2765 0.7518,-0.2644 1.0283,0.027 z" /><path
           id="path246"
           style="fill:#000000;fill-opacity:1;fill-rule:nonzero;stroke:none"
           d="m 215.8516,557.8513 c -0.0787,-0.0583 -0.3669,-0.16 -0.4169,-0.1731 v 0 c 0.4061,-0.0672 0.7897,0.2075 0.8569,0.6135 v 0 c 0.0672,0.4061 -0.2075,0.7897 -0.6136,0.8569 v 0 c -0.406,0.0672 -0.7896,-0.2075 -0.8568,-0.6136 v 0 c -0.0672,-0.406 0.2075,-0.7896 0.6135,-0.8568 -0.0205,0.008 -0.0489,0.0106 0.0334,-0.0548 v 0 c 0.3477,-0.238 0.8226,-0.149 1.0605,0.1988 v 0 c 0.238,0.3477 0.149,0.8226 -0.1988,1.0606 v 0 c -0.3477,0.2379 -0.8226,0.1489 -1.0606,-0.1989 v 0 c -0.2379,-0.3477 -0.1489,-0.8226 0.1989,-1.0605 0.1843,-0.1358 0.4223,-0.3884 0.715,-0.7096 v 0 c 0.3059,-0.3177 0.8115,-0.3273 1.1292,-0.0213 v 0 c 0.3177,0.3059 0.3273,0.8115 0.0213,1.1292 v 0 c -0.3059,0.3177 -0.8115,0.3273 -1.1292,0.0213 v 0 c -0.3177,-0.3059 -0.3272,-0.8115 -0.0213,-1.1292 0.8328,-0.874 1.8071,-1.829 2.6386,-2.4912 v 0 c 0.3555,-0.2788 0.8698,-0.2166 1.1487,0.139 v 0 c 0.2788,0.3555 0.2166,0.8698 -0.139,1.1487 v 0 c -0.3556,0.2788 -0.8699,0.2166 -1.1487,-0.139 v 0 c -0.2788,-0.3556 -0.2166,-0.8699 0.139,-1.1487 0.4531,-0.2899 0.9194,-0.5357 1.3024,-0.6468 v 0 c 0.3383,-0.1432 0.7286,0.015 0.8717,0.3533 v 0 c 0.1432,0.3383 -0.015,0.7285 -0.3533,0.8717 v 0 c -0.3382,0.1432 -0.7285,-0.015 -0.8717,-0.3533 v 0 c -0.1431,-0.3383 0.015,-0.7285 0.3533,-0.8717 0.1979,-0.0545 0.4541,-0.0918 0.6509,-0.0709 v 0 c 0.3251,0.003 0.5863,0.2685 0.5835,0.5935 v 0 c -0.003,0.3251 -0.2685,0.5863 -0.5935,0.5836 v 0 c -0.3251,-0.003 -0.5863,-0.2685 -0.5835,-0.5936 v 0 c 0.003,-0.325 0.2685,-0.5863 0.5935,-0.5835 0.2059,0.0358 0.5094,0.1909 0.6476,0.3713 v 0 c 0.1814,0.2169 0.1527,0.5398 -0.0642,0.7213 v 0 c -0.2169,0.1814 -0.5399,0.1526 -0.7213,-0.0643 0.0126,0.0303 0.1402,0.115 0.1273,0.1488 -0.0208,0.019 -0.0251,0.0485 -0.1219,0.1188 -0.2063,0.1383 -0.4661,0.3734 -0.811,0.7094 -0.7649,0.5897 -1.6753,1.4665 -2.4979,2.3115 -0.3252,0.3206 -0.6818,0.6504 -1.0038,0.8611 -0.1708,0.1078 -0.4304,0.2249 -0.6525,0.2659 -0.2501,0.02 -0.709,-0.1294 -0.9201,-0.3389 v 0 c -0.2647,-0.3022 -0.2343,-0.7617 0.068,-1.0264 v 0 c 0.3022,-0.2647 0.7617,-0.2343 1.0264,0.0679" /><path
           id="path248"
           style="fill:#000000;fill-opacity:1;fill-rule:nonzero;stroke:none"
           d="m 221.8642,558.0859 c -0.1561,0.265 -0.5303,0.5426 -0.807,0.621 v 0 c -0.4045,0.0825 -0.7993,-0.1784 -0.8819,-0.5829 v 0 c -0.0825,-0.4044 0.1784,-0.7992 0.5829,-0.8818 v 0 c 0.4044,-0.0826 0.7992,0.1784 0.8818,0.5828 v 0 c 0.0826,0.4045 -0.1784,0.7993 -0.5828,0.8819 -0.2676,0.0494 -0.6203,0.0173 -0.8726,-0.0531 v 0 c -0.4038,-0.1287 -0.6269,-0.5604 -0.4982,-0.9643 v 0 c 0.1287,-0.4039 0.5604,-0.627 0.9643,-0.4983 v 0 c 0.4038,0.1287 0.6269,0.5604 0.4982,0.9643 v 0 c -0.1287,0.4039 -0.5604,0.627 -0.9643,0.4983 -0.4764,-0.1453 -1.0468,-0.4697 -1.5749,-0.8453 v 0 c -0.3577,-0.2665 -0.4318,-0.7724 -0.1653,-1.1301 v 0 c 0.2664,-0.3578 0.7723,-0.4318 1.1301,-0.1654 v 0 c 0.3577,0.2664 0.4317,0.7724 0.1653,1.1301 v 0 c -0.2664,0.3577 -0.7724,0.4318 -1.1301,0.1654 -0.5349,-0.3623 -1.1121,-0.8256 -1.6398,-1.2889 -0.3972,-0.3477 -0.7892,-0.7166 -1.1317,-1.0561 -0.3356,-0.3485 -0.6467,-0.6958 -0.885,-0.9843 -0.1517,-0.2023 -0.2951,-0.4129 -0.3929,-0.5815 -0.1032,-0.1815 -0.2221,-0.4844 -0.2542,-0.7908 v 0 c -0.007,-0.5452 0.4296,-0.9928 0.9749,-0.9996 v 0 c 0.5452,-0.007 0.9927,0.4297 0.9996,0.9749 v 0 c 0.007,0.5453 -0.4297,0.9928 -0.9749,0.9996 v 0 c -0.5453,0.007 -0.9928,-0.4297 -0.9996,-0.9749 0.0422,-0.102 0.1259,-0.3217 0.2179,-0.4398 v 0 c 0.2145,-0.429 0.7362,-0.6029 1.1652,-0.3884 v 0 c 0.429,0.2146 0.6029,0.7362 0.3884,1.1653 v 0 c -0.2145,0.429 -0.7362,0.6029 -1.1652,0.3884 v 0 c -0.429,-0.2146 -0.6029,-0.7362 -0.3884,-1.1653 0.1092,-0.1061 0.3405,-0.2786 0.4781,-0.3117 v 0 c 0.3738,-0.1782 0.8212,-0.0196 0.9994,0.3541 v 0 c 0.1781,0.3737 0.0196,0.8211 -0.3541,0.9993 v 0 c -0.3738,0.1782 -0.8212,0.0197 -0.9993,-0.3541 v 0 c -0.1782,-0.3737 -0.0197,-0.8211 0.354,-0.9993 0.2273,0.006 0.4755,0.084 0.5596,0.1862 v 0 c 0.2725,0.0755 0.4322,0.3576 0.3567,0.6301 v 0 c -0.0755,0.2726 -0.3577,0.4323 -0.6302,0.3567 -0.007,0.0771 0.1752,0.1536 0.3593,0.1803 0.1159,-0.0226 0.3313,-0.1794 0.4305,-0.2655 0.0812,-0.0965 0.1599,-0.2899 0.2026,-0.361 -0.0306,-0.1825 -0.0634,-0.2831 -0.0101,-0.2013 0.0587,0.0947 0.1421,0.2082 0.2734,0.3733 0.1864,0.2631 0.4264,0.5649 0.7203,0.9043 0.2871,0.3485 0.6032,0.7064 0.9449,1.0652 0.4573,0.4786 0.9197,0.9213 1.3654,1.2893 0.4524,0.3547 0.8036,0.5847 1.0764,0.6783 0.122,0.0488 0.1007,0.0572 0.1078,0.0508 -0.003,0.0225 -0.1607,0.148 -0.1714,0.1468 v 0 c 0.1924,-0.3526 0.6343,-0.4824 0.9869,-0.29 v 0 c 0.3527,0.1925 0.4825,0.6344 0.29,0.987" /><path
           id="path250"
           style="fill:#000000;fill-opacity:1;fill-rule:nonzero;stroke:none"
           d="m 134.0634,656.7408 c 0.0576,-0.0598 0.1872,-0.151 0.1262,-0.1035 v 0 c -0.2197,0.2837 -0.6278,0.3355 -0.9115,0.1158 v 0 c -0.2837,-0.2198 -0.3356,-0.6279 -0.1158,-0.9115 v 0 c 0.2197,-0.2837 0.6278,-0.3356 0.9115,-0.1158 v 0 c 0.2837,0.2197 0.3355,0.6278 0.1158,0.9115 -0.0799,0.0525 -0.1394,0.1313 -0.2095,0.2603 v 0 c -0.1011,0.2993 -0.4258,0.46 -0.7251,0.3589 v 0 c -0.2993,-0.1011 -0.46,-0.4257 -0.3589,-0.725 v 0 c 0.1011,-0.2994 0.4257,-0.4601 0.725,-0.359 v 0 c 0.2994,0.1011 0.4601,0.4257 0.359,0.7251 -0.0257,0.1105 -0.0237,0.1832 -0.0167,0.2527 v 0 c -0.0305,0.3354 -0.3272,0.5826 -0.6627,0.5521 v 0 c -0.3354,-0.0305 -0.5826,-0.3271 -0.5521,-0.6626 v 0 c 0.0305,-0.3355 0.3271,-0.5827 0.6626,-0.5522 v 0 c 0.3355,0.0305 0.5827,0.3272 0.5522,0.6627 0.003,0.0289 0.01,0.0215 0.0166,0.0134 0.002,-0.0124 -0.007,-0.0831 -0.0267,-0.1594 -0.0763,-0.1463 -0.9494,-0.3054 -1.1373,-0.1195 v 0 c 0.1919,-0.3019 0.5922,-0.3912 0.8941,-0.1993 v 0 c 0.302,0.1919 0.3912,0.5922 0.1993,0.8941 v 0 c -0.1918,0.302 -0.5921,0.3912 -0.8941,0.1994 v 0 c -0.3019,-0.1919 -0.3912,-0.5922 -0.1993,-0.8942 -0.0177,0.2205 -0.108,-0.1415 -0.1081,-0.6113 0.003,-0.434 -0.0886,-1.1065 0.0356,-1.7697 0.2478,-0.9654 1.183,-1.7849 2.0654,-1.9758 0.5789,-0.0915 1.2896,0.075 1.7598,0.3884 0.7337,0.6073 0.9294,1.7524 1.0245,2.4154 0.0434,0.3726 0.009,0.6872 0.0107,0.7711 2e-4,0.0306 -0.0126,-0.0582 -0.037,-0.1363 -0.0168,-0.0294 -0.0817,-0.1159 -0.1272,-0.1636 -0.0629,-0.0508 -0.2669,-0.1505 -0.4042,-0.1787 -0.1467,0.002 -0.4125,0.0868 -0.5065,0.1476 -0.0695,0.0627 -0.1599,0.1784 -0.1846,0.2192 0.1037,-0.1261 0.0788,-1.1225 0.2089,-2.2712 0.15,-1.2716 0.382,-2.6795 0.494,-3.8268 0.1071,-1.0728 0.0922,-1.835 -0.0619,-2.4125 -0.1307,-0.5532 -0.2437,-0.7225 -0.5766,-0.8576 -0.5253,-0.3141 -1.3038,-0.1551 -2.1539,0.2341 v 0 c -0.4206,0.1854 -0.9119,-0.005 -1.0973,-0.426 v 0 c -0.1853,-0.4206 0.005,-0.9119 0.426,-1.0973 v 0 c 0.4207,-0.1853 0.9119,0.005 1.0973,0.426 v 0 c 0.1854,0.4207 -0.005,0.9119 -0.426,1.0973 -0.5946,0.2001 -1.0768,0.4633 -1.4166,0.7572 v 0 c -0.2533,0.2713 -0.6787,0.2858 -0.95,0.0324 v 0 c -0.2713,-0.2534 -0.2858,-0.6787 -0.0324,-0.95 v 0 c 0.2533,-0.2713 0.6787,-0.2859 0.95,-0.0325 v 0 c 0.2713,0.2534 0.2858,0.6788 0.0324,0.9501 -0.1709,0.1413 -0.2568,0.2182 -0.3128,0.3162 v 0 c -0.1076,0.3088 -0.4451,0.472 -0.7539,0.3644 v 0 c -0.3088,-0.1075 -0.472,-0.4451 -0.3644,-0.7539 v 0 c 0.1075,-0.3088 0.4451,-0.472 0.7539,-0.3644 v 0 c 0.3088,0.1076 0.4719,0.4451 0.3644,0.7539 -0.0668,0.0874 -0.1021,0.0229 -0.0908,0.0608 v 0 c 0.1417,0.2447 0.0583,0.558 -0.1864,0.6998 v 0 c -0.2447,0.1417 -0.558,0.0583 -0.6997,-0.1864 -0.1636,-0.2639 -0.2044,-0.6784 -0.1414,-0.9637 0.0738,-0.2746 0.253,-0.593 0.4485,-0.8442 0.3936,-0.4913 1.05,-1.0025 1.728,-1.363 1.0586,-0.4519 2.4899,-0.6533 3.5582,-0.1631 0.6628,0.3675 1.1918,1.1225 1.3969,1.9252 0.1816,0.7784 0.1963,1.8031 0.0741,2.9583 -0.1298,1.2011 -0.3745,2.6195 -0.5306,3.8526 -0.1385,1.0487 -0.1398,2.1427 -0.4091,2.755 -0.0362,0.0637 -0.1394,0.1962 -0.2221,0.2694 -0.1072,0.0713 -0.3868,0.1609 -0.5472,0.1614 -0.1512,-0.0295 -0.3691,-0.1362 -0.4453,-0.1989 -0.0593,-0.0601 -0.1374,-0.164 -0.1674,-0.2172 -0.0732,-0.1653 -0.1226,-0.4193 -0.1183,-0.6014 0.007,-0.1907 0.0395,-0.3635 0.0107,-0.5664 -0.0712,-0.6631 -0.1169,-1.3859 -0.3919,-1.4889 -0.2369,-0.1846 -0.4509,-0.24 -0.7412,-0.1724 -0.5081,0.0638 -0.922,0.4048 -0.9932,0.9363 -0.1063,0.4186 -0.0285,0.9627 -0.0397,1.509 -0.0116,0.3142 0.0809,0.7992 -0.1097,1.2893 -0.191,0.191 -1.0685,0.0305 -1.1486,-0.1258 -0.0229,-0.085 -0.0345,-0.1729 -0.0342,-0.209 0.003,-0.0568 0.0113,-0.1401 0.0235,-0.2074 0.0245,-0.123 0.0735,-0.3238 0.1474,-0.5082 0.0409,-0.1999 0.1376,-0.4733 0.2663,-0.6901 0.1476,-0.2217 0.538,-0.4989 0.9161,-0.5554 v 0 c 0.4017,0.004 0.724,0.3331 0.7198,0.7348 v 0 c -0.004,0.4018 -0.3331,0.724 -0.7348,0.7199" /><path
           id="path252"
           style="fill:#ed3624;fill-opacity:1;fill-rule:nonzero;stroke:none"
           d="m 193.6906,639.733 c 0.007,-0.1245 0.005,-0.1791 0.0294,-0.0939 v 0 c 0.1264,0.349 -0.0542,0.7343 -0.4031,0.8606 v 0 c -0.349,0.1263 -0.7343,-0.0542 -0.8606,-0.4032 v 0 c -0.1263,-0.349 0.0542,-0.7343 0.4032,-0.8606 v 0 c 0.3489,-0.1263 0.7342,0.0542 0.8605,0.4032 -0.003,-0.006 -0.1863,-0.1996 -0.2899,-0.264 v 0 c 0.3776,0.0893 0.6114,0.4679 0.5221,0.8455 v 0 c -0.0894,0.3777 -0.4679,0.6114 -0.8456,0.5221 v 0 c -0.3777,-0.0893 -0.6114,-0.4679 -0.5221,-0.8456 v 0 c 0.0893,-0.3776 0.4679,-0.6114 0.8456,-0.522 -0.1058,-0.0102 -0.2603,0.009 -0.2271,-0.0261 v 0 c 0.3551,-0.1949 0.801,-0.0651 0.9959,0.29 v 0 c 0.1949,0.355 0.065,0.8009 -0.29,0.9958 v 0 c -0.3551,0.1949 -0.801,0.0651 -0.9959,-0.29 v 0 c -0.1949,-0.3551 -0.065,-0.8009 0.29,-0.9958 0.1143,-0.0753 0.2943,-0.2796 0.5731,-0.6366 0.5684,-0.7217 1.2735,-1.8315 1.9386,-2.9756 0.6842,-1.1126 1.3964,-2.2055 2.0271,-3.0655 0.3662,-0.4861 0.7412,-0.8837 1.0509,-1.2114 0.2903,-0.3083 0.5854,-0.6844 0.9471,-0.9905 0.2411,-0.1979 0.5826,-0.4004 0.8706,-0.4987 0.3221,-0.0861 0.9312,-0.0243 1.3018,0.21 0.3614,0.4049 0.4855,0.9101 0.503,1.1842 0.015,0.2663 0.009,0.5169 0.0288,0.7041 0.0275,0.5077 0.3237,1.2009 0.7412,2.426 0.4589,1.3354 1.1325,3.0667 1.6535,4.4811 0.2736,0.7575 0.526,1.4059 0.6959,1.937 v 0 c 0.1684,0.5235 -0.1195,1.0845 -0.6431,1.2528 v 0 c -0.5235,0.1684 -1.0844,-0.1195 -1.2528,-0.643 v 0 c -0.1684,-0.5236 0.1196,-1.0845 0.6431,-1.2529 v 0 c 0.5235,-0.1683 1.0844,0.1196 1.2528,0.6431 0.1318,0.4054 0.2337,0.848 0.238,1.2132 v 0 c -0.0135,0.5531 -0.4728,0.9905 -1.0259,0.977 v 0 c -0.5531,-0.0135 -0.9905,-0.4728 -0.977,-1.0259 v 0 c 0.0136,-0.5531 0.4729,-0.9905 1.026,-0.977 v 0 c 0.553,0.0135 0.9904,0.4729 0.9769,1.0259 -0.0373,0.2745 -0.2333,0.7416 -0.483,0.9861 v 0 c -0.3794,0.3516 -0.9719,0.329 -1.3234,-0.0504 v 0 c -0.3515,-0.3794 -0.3289,-0.9719 0.0505,-1.3234 v 0 c 0.3793,-0.3515 0.9719,-0.3289 1.3234,0.0504 v 0 c 0.3515,0.3794 0.3289,0.9719 -0.0505,1.3234 -0.3317,0.082 -0.7541,0.0695 -1.003,-0.0685 v 0 c -0.2827,-0.002 -0.5103,-0.2331 -0.5082,-0.5159 v 0 c 0.002,-0.2827 0.2331,-0.5103 0.5159,-0.5082 0.0843,-0.1355 -0.1012,-0.2194 -0.2771,-0.2817 -0.0949,0.1011 -0.2171,0.3521 -0.2475,0.3393 0.0149,-0.0656 -0.0229,-0.2139 -0.131,-0.5546 -0.1499,-0.4634 -0.3957,-1.0856 -0.68,-1.8634 -0.5015,-1.3993 -1.1693,-3.1526 -1.6311,-4.5353 -0.3969,-1.1798 -0.747,-2.0606 -0.8258,-2.9021 -0.0189,-0.2991 -0.008,-0.5811 -0.0143,-0.7643 -0.004,-0.1754 0.06,-0.0362 0.2299,0.2154 0.1474,0.0555 0.456,0.0972 0.4387,0.113 -0.0514,0.004 -0.0881,0.0254 -0.2253,0.1374 -0.1928,0.1481 -0.4219,0.4497 -0.7704,0.8213 -0.3095,0.3315 -0.6072,0.646 -0.9079,1.0536 -0.6095,0.8024 -1.2951,1.826 -1.9806,2.9096 -0.7536,1.1307 -1.5909,2.2865 -2.2901,3.0404 -0.3552,0.3808 -0.7403,0.7166 -1.0732,0.8865 -0.1899,0.0874 -0.5383,0.1551 -0.8012,0.108 -0.2625,-0.102 -0.5676,-0.4191 -0.6511,-0.6465 -0.1259,-0.3315 -0.1193,-0.8878 0.1048,-1.2802 v 0 c 0.2531,-0.3119 0.7112,-0.3595 1.0231,-0.1064 v 0 c 0.312,0.2532 0.3596,0.7113 0.1064,1.0232 z" /><path
           id="path254"
           style="fill:#ed3624;fill-opacity:1;fill-rule:nonzero;stroke:none"
           d="m 441.2351,640.6854 c -0.0162,0.0328 -0.004,-0.0208 0.001,-0.047 v 0 c -0.0142,0.4005 -0.3503,0.7138 -0.7508,0.6997 v 0 c -0.4006,-0.0142 -0.7138,-0.3503 -0.6997,-0.7508 v 0 c 0.0141,-0.4006 0.3503,-0.7138 0.7508,-0.6997 v 0 c 0.4005,0.0141 0.7138,0.3503 0.6997,0.7508 -0.007,-0.0536 -0.0955,-0.3087 -0.2142,-0.4566 v 0 c 0.3009,0.2633 0.3314,0.7207 0.0681,1.0216 v 0 c -0.2632,0.3009 -0.7206,0.3314 -1.0215,0.0682 v 0 c -0.3009,-0.2633 -0.3315,-0.7207 -0.0682,-1.0216 v 0 c 0.2633,-0.3009 0.7206,-0.3314 1.0216,-0.0682 -0.0861,-0.0613 -0.2963,-0.1456 -0.3895,-0.1595 v 0 c 0.3987,0.0241 0.7023,0.3667 0.6782,0.7654 v 0 c -0.0241,0.3986 -0.3668,0.7022 -0.7654,0.6781 v 0 c -0.3986,-0.0241 -0.7022,-0.3667 -0.6782,-0.7654 v 0 c 0.0241,-0.3986 0.3668,-0.7022 0.7654,-0.6781 -0.0835,0.002 -0.224,0.0297 -0.2667,0.0445 -0.0516,0.0309 -0.1225,0.0861 -0.1076,0.0665 0.2986,-0.3572 0.8118,-2.8565 1.3688,-4.9 0.3172,-1.035 0.6021,-1.9726 0.8629,-2.7076 0.1835,-0.5037 0.3845,-1.0015 0.6101,-1.3619 0.159,-0.2578 0.5234,-0.5882 0.8715,-0.7268 0.4075,-0.071 1.0434,0.1363 1.3139,0.3743 0.3663,0.4341 0.5427,0.9633 0.6727,1.2781 0.2196,0.5421 0.4601,1.1249 0.7711,1.9083 0.3233,0.8441 0.7412,1.8594 1.1868,2.8606 0.2938,0.6688 0.5914,1.3131 0.8802,1.8927 0.2699,0.5874 0.5103,1.0728 0.7203,1.4359 v 0 c 0.3,0.4618 0.1688,1.0793 -0.2929,1.3793 v 0 c -0.4618,0.3 -1.0793,0.1689 -1.3793,-0.2929 v 0 c -0.3001,-0.4617 -0.1689,-1.0793 0.2928,-1.3793 v 0 c 0.4618,-0.3 1.0794,-0.1689 1.3794,0.2929 0.1005,0.1796 0.165,0.2907 0.2276,0.379 v 0 c 0.3512,0.3954 0.3154,1.0006 -0.0799,1.3518 v 0 c -0.3954,0.3512 -1.0006,0.3155 -1.3518,-0.0799 v 0 c -0.3512,-0.3953 -0.3154,-1.0005 0.0799,-1.3518 v 0 c 0.3954,-0.3512 1.0006,-0.3154 1.3518,0.0799 0.032,0.1017 -0.0603,0.0861 -0.1551,0.0769 v 0 c 0.4328,0.1557 0.6575,0.6329 0.5017,1.0658 v 0 c -0.1558,0.4328 -0.6329,0.6575 -1.0658,0.5017 v 0 c -0.4329,-0.1558 -0.6575,-0.633 -0.5017,-1.0658 v 0 c 0.1557,-0.4329 0.6329,-0.6575 1.0658,-0.5017 -0.0898,0.0882 -0.2878,0.1864 -0.3416,0.3051 v 0 c 0.2672,-0.0926 0.5588,0.049 0.6514,0.3162 v 0 c 0.0926,0.2672 -0.049,0.5588 -0.3162,0.6514 -0.1182,0.1409 -0.3885,0.235 -0.5569,0.2951 -0.2546,-0.0667 -0.5346,-0.2372 -0.7133,-0.3728 -0.1481,-0.1489 -0.3175,-0.3574 -0.4682,-0.5645 -0.2925,-0.4103 -0.6242,-0.9664 -0.951,-1.5654 -0.3079,-0.6072 -0.6314,-1.2949 -0.938,-1.9803 -0.455,-1.0301 -0.8908,-2.0963 -1.2221,-2.9689 -0.2866,-0.7844 -0.5045,-1.3731 -0.7055,-1.9315 -0.147,-0.4099 -0.1897,-0.6593 -0.2013,-0.6202 0.0465,0.004 0.4545,0.1301 0.6384,0.1175 0.1245,-0.0802 0.2694,-0.2126 0.2211,-0.1462 -0.1177,0.1761 -0.2431,0.508 -0.4144,0.9891 -0.2506,0.6851 -0.5306,1.5854 -0.8547,2.6204 -0.6766,1.9381 -1.3667,4.5204 -2.0816,5.303 -0.0966,0.1059 -0.2694,0.2391 -0.4055,0.3059 -0.0871,0.0336 -0.2666,0.0688 -0.38,0.0694 -0.1316,-0.0163 -0.3712,-0.1123 -0.482,-0.1955 -0.1652,-0.1884 -0.279,-0.5213 -0.2819,-0.6833 0.009,-0.1347 0.0537,-0.3272 0.1054,-0.4585 v 0 c 0.1537,-0.3712 0.5792,-0.5475 0.9504,-0.3937 v 0 c 0.3711,0.1537 0.5474,0.5792 0.3937,0.9503" /><path
           id="path256"
           style="fill:#1749b3;fill-opacity:1;fill-rule:nonzero;stroke:none"
           d="m 514.1967,554.3255 c -0.7706,-0.9205 -0.9868,-0.8812 -0.96,-0.911 v 0 c 0.3809,-0.1896 0.8432,-0.0346 1.0328,0.3463 v 0 c 0.1896,0.3808 0.0345,0.8432 -0.3463,1.0327 v 0 c -0.3808,0.1896 -0.8432,0.0345 -1.0328,-0.3463 v 0 c -0.1895,-0.3808 -0.0345,-0.8432 0.3463,-1.0327 0.036,-0.0338 0.0958,-0.0825 0.1903,-0.1533 v 0 c 0.3894,-0.2236 0.8864,-0.0892 1.11,0.3002 v 0 c 0.2236,0.3894 0.0892,0.8863 -0.3002,1.11 v 0 c -0.3894,0.2236 -0.8864,0.0892 -1.11,-0.3002 v 0 c -0.2236,-0.3894 -0.0892,-0.8864 0.3002,-1.11 0.1925,-0.1434 0.4692,-0.3449 0.8115,-0.6011 v 0 c 0.4165,-0.2701 0.9731,-0.1514 1.2431,0.2651 v 0 c 0.2701,0.4164 0.1514,0.973 -0.265,1.2431 v 0 c -0.4165,0.27 -0.973,0.1514 -1.2431,-0.2651 v 0 c -0.2701,-0.4165 -0.1514,-0.973 0.265,-1.2431 0.6878,-0.5138 1.5705,-1.201 2.4023,-1.9759 0.7697,-0.6498 1.4788,-1.4158 2.1599,-2.1035 0.3633,-0.3515 0.712,-0.6296 0.9853,-0.8743 0.4326,-0.3779 0.8226,-0.7858 1.1358,-1.0921 0.1631,-0.1117 0.3292,-0.2208 0.4715,-0.2894 0.0773,-0.0381 0.2058,-0.1037 0.3182,-0.1398 0.156,-0.0404 0.6854,-2e-4 0.9825,0.2357 v 0 c 0.2793,0.3143 0.2509,0.7956 -0.0635,1.0748 v 0 c -0.3143,0.2793 -0.7955,0.2509 -1.0748,-0.0635 v 0 c -0.2793,-0.3143 -0.2508,-0.7955 0.0635,-1.0748 v 0 c 0.3143,-0.2793 0.7956,-0.2508 1.0748,0.0635 0.1349,0.2567 0.1648,0.5646 0.1335,0.6733 v 0 c -0.0488,0.3829 -0.3989,0.6538 -0.7818,0.6049 v 0 c -0.383,-0.0488 -0.6538,-0.3988 -0.605,-0.7818 v 0 c 0.0488,-0.3829 0.3989,-0.6538 0.7818,-0.605 v 0 c 0.383,0.0489 0.6538,0.3989 0.605,0.7819 -0.0328,0.0819 -0.0796,0.1873 -0.1272,0.271 v 0 c -0.1049,0.3356 -0.462,0.5226 -0.7976,0.4178 v 0 c -0.3357,-0.1049 -0.5227,-0.462 -0.4178,-0.7977 v 0 c 0.1048,-0.3356 0.4619,-0.5226 0.7976,-0.4178 v 0 c 0.3356,0.1049 0.5226,0.462 0.4178,0.7977 -0.0926,0.1552 -0.2223,0.3761 -0.3866,0.6593 v 0 c -0.1097,0.2607 -0.41,0.383 -0.6706,0.2732 v 0 c -0.2606,-0.1097 -0.3829,-0.4099 -0.2732,-0.6706 0.0823,-0.3025 0.1165,-0.5061 0.115,-0.642 -0.002,-0.0615 -0.0217,-0.068 -0.0443,-0.0669 -0.0208,0.0261 0.002,0.2823 0.1163,0.5153 0.2738,0.2096 0.7652,0.2514 0.8666,0.2372 0.0624,-0.0121 0.1241,-0.0294 0.1215,9e-4 -0.0175,0.068 -0.0639,0.1754 -0.1558,0.3328 -0.2694,0.3089 -0.6844,0.7916 -1.1583,1.2565 -0.3133,0.3004 -0.6185,0.5595 -0.8981,0.8514 -0.661,0.6548 -1.4435,1.4813 -2.3151,2.2106 -0.9744,0.7429 -2.0184,1.4058 -2.8012,1.8455 -0.3927,0.2205 -0.7372,0.3967 -0.9797,0.5031 -0.123,0.0541 -0.2341,0.0982 -0.3129,0.1218 -0.0892,0.0279 -0.3653,0.0892 -1.1313,-0.8483 v 0 c 0.1051,-0.3878 0.5047,-0.6169 0.8924,-0.5118 v 0 c 0.3877,0.1051 0.6168,0.5046 0.5117,0.8924" /><path
           id="path258"
           style="fill:#1749b3;fill-opacity:1;fill-rule:nonzero;stroke:none"
           d="m 521.4053,554.4657 c -1.2187,-0.3238 -3.6263,-1.9319 -5.609,-3.3733 v 0 c -0.4638,-0.3723 -0.5381,-1.0502 -0.1658,-1.5141 v 0 c 0.3723,-0.4638 1.0502,-0.5381 1.5141,-0.1658 v 0 c 0.4638,0.3723 0.5381,1.0502 0.1658,1.514 v 0 c -0.3723,0.4639 -1.0502,0.5382 -1.5141,0.1659 -0.9748,-0.758 -1.8463,-1.5195 -2.4337,-2.0677 v 0 c -0.4477,-0.4391 -0.4548,-1.158 -0.0157,-1.6057 v 0 c 0.4391,-0.4478 1.158,-0.4548 1.6058,-0.0157 v 0 c 0.4477,0.439 0.4548,1.158 0.0157,1.6057 v 0 c -0.4391,0.4478 -1.158,0.4548 -1.6058,0.0157 -0.2493,-0.2235 -0.5324,-0.4468 -0.7714,-0.7402 v 0 c -0.3665,-0.5406 -0.2254,-1.276 0.3152,-1.6425 v 0 c 0.5406,-0.3666 1.276,-0.2255 1.6425,0.3151 v 0 c 0.3665,0.5406 0.2254,1.276 -0.3152,1.6426 v 0 c -0.5406,0.3665 -1.276,0.2254 -1.6425,-0.3152 -0.0653,-0.1763 -0.1542,-0.5478 -0.1342,-0.7953 v 0 c 0.008,-0.591 0.4937,-1.0634 1.0847,-1.0553 v 0 c 0.5909,0.008 1.0634,0.4937 1.0553,1.0846 v 0 c -0.008,0.591 -0.4938,1.0634 -1.0847,1.0553 v 0 c -0.5909,-0.008 -1.0634,-0.4937 -1.0553,-1.0846 0.0682,-0.2673 0.3264,-0.6911 0.5202,-0.8215 v 0 c 0.4152,-0.3275 1.0173,-0.2564 1.3449,0.1587 v 0 c 0.3275,0.4152 0.2564,1.0173 -0.1587,1.3449 v 0 c -0.4152,0.3275 -1.0173,0.2564 -1.3449,-0.1587 v 0 c -0.3275,-0.4152 -0.2564,-1.0173 0.1587,-1.3449 0.336,-0.1173 0.7502,-0.1177 0.9838,-0.0225 v 0 c 0.4022,0.0433 0.6931,0.4045 0.6498,0.8066 v 0 c -0.0433,0.4022 -0.4044,0.6932 -0.8066,0.6499 v 0 c -0.4022,-0.0433 -0.6931,-0.4044 -0.6498,-0.8066 v 0 c 0.0433,-0.4022 0.4044,-0.6932 0.8066,-0.6499 0.6565,0.1613 1.8381,0.8092 2.9019,2.1782 v 0 c 0.1816,0.2167 0.1532,0.5396 -0.0635,0.7213 v 0 c -0.2167,0.1817 -0.5397,0.1532 -0.7214,-0.0635 -1.0285,-1.1272 -1.8895,-1.4285 -2.274,-1.3795 -0.0636,0.0632 0.135,0.099 0.359,0.0698 0.1385,-0.0866 0.3668,-0.4534 0.4339,-0.6513 0.0192,-0.1815 -0.0421,-0.4743 -0.048,-0.5631 -0.0416,-0.002 0.1191,0.1459 0.4039,0.4463 0.5217,0.5393 1.289,1.2601 2.1918,2.0091 1.7992,1.5938 3.9227,3.2896 4.7419,3.6803 v 0 c 0.3792,0.1329 0.5788,0.5479 0.4459,0.927 v 0 c -0.1329,0.3792 -0.548,0.5788 -0.9271,0.4459" /><path
           id="path260"
           style="fill:#1749b3;fill-opacity:1;fill-rule:nonzero;stroke:none"
           d="m 525.1796,553.8362 c 0.5677,0.7864 1.2833,1.3461 2.1042,1.8476 v 0 c 0.3659,0.2349 0.4721,0.722 0.2372,1.0879 v 0 c -0.2349,0.3659 -0.722,0.472 -1.0879,0.2371 v 0 c -0.3659,-0.2349 -0.4721,-0.7219 -0.2372,-1.0878 v 0 c 0.2349,-0.3659 0.722,-0.4721 1.0879,-0.2372 0.5116,0.3116 1.026,0.5688 1.5434,0.8105 v 0 c 0.411,0.2052 0.5778,0.7048 0.3726,1.1158 v 0 c -0.2052,0.411 -0.7048,0.5778 -1.1159,0.3726 v 0 c -0.411,-0.2053 -0.5778,-0.7048 -0.3725,-1.1159 v 0 c 0.2052,-0.411 0.7048,-0.5778 1.1158,-0.3725 0.2965,0.1724 0.5853,0.3344 0.8633,0.4922 v 0 c 0.3816,0.1834 0.5422,0.6413 0.3588,1.0229 v 0 c -0.1833,0.3815 -0.6413,0.5421 -1.0228,0.3588 v 0 c -0.3816,-0.1834 -0.5422,-0.6414 -0.3588,-1.0229 v 0 c 0.1834,-0.3815 0.6413,-0.5422 1.0228,-0.3588 0.0595,0.1227 0.1176,0.245 0.1726,0.3661 v 0 c 0.2543,0.1238 0.36,0.4303 0.2362,0.6846 v 0 c -0.1238,0.2542 -0.4303,0.3599 -0.6845,0.2361 -0.1277,0.0322 -0.2568,0.064 -0.3886,0.0947 -0.2947,-0.1175 -0.6136,-0.2456 -0.9422,-0.3853 -0.5246,-0.2786 -1.101,-0.6039 -1.6509,-0.9739 -0.8775,-0.5888 -1.7852,-1.3736 -2.4447,-2.3374 v 0 c -0.2306,-0.3289 -0.1509,-0.7825 0.178,-1.0132 v 0 c 0.3289,-0.2306 0.7825,-0.151 1.0132,0.178" /><path
           id="path262"
           style="fill:#1749b3;fill-opacity:1;fill-rule:nonzero;stroke:none"
           d="m 363.4741,699.6374 c -0.0784,0.2603 -0.1979,0.5178 -0.358,0.7041 v 0 c -0.2755,0.2781 -0.7242,0.2803 -1.0024,0.005 v 0 c -0.2781,-0.2754 -0.2803,-0.7242 -0.005,-1.0023 v 0 c 0.2755,-0.2782 0.7242,-0.2804 1.0024,-0.005 v 0 c 0.2781,0.2754 0.2803,0.7242 0.005,1.0023 -0.1676,0.1316 -0.7575,0.1962 -1.0058,0.0539 v 0 c -0.2994,-0.2441 -0.3443,-0.6847 -0.1003,-0.9841 v 0 c 0.2441,-0.2994 0.6847,-0.3443 0.9841,-0.1003 v 0 c 0.2995,0.2441 0.3444,0.6847 0.1003,0.9841 v 0 c -0.244,0.2995 -0.6846,0.3444 -0.9841,0.1003 -0.1399,-0.1483 -0.2412,-0.3463 -0.2677,-0.442 v 0 c -0.1063,-0.3661 0.1043,-0.749 0.4703,-0.8553 v 0 c 0.3661,-0.1063 0.7489,0.1043 0.8552,0.4704 v 0 c 0.1063,0.366 -0.1043,0.7489 -0.4703,0.8552 v 0 c -0.3661,0.1063 -0.749,-0.1043 -0.8552,-0.4703 -0.0638,-0.2969 -0.0732,-0.7925 -0.0389,-1.2815 0.0394,-0.8942 0.3678,-1.9297 0.8242,-2.7401 0.4677,-0.8123 1.1955,-1.5659 1.9547,-1.8565 0.5212,-0.159 1.203,-0.0886 1.7263,0.1422 0.5053,0.2383 1.0566,0.6774 1.493,1.195 0.6151,0.7667 1.0506,1.8233 1.3598,2.6457 0.1826,0.472 0.2964,0.9117 0.3814,1.1739 0.1283,0.3978 0.1765,0.6526 -0.0357,0.2924 v 0 c 0.326,0.258 0.3811,0.7315 0.1231,1.0575 v 0 c -0.2581,0.3261 -0.7316,0.3812 -1.0576,0.1231 v 0 c -0.326,-0.258 -0.3811,-0.7315 -0.123,-1.0575 v 0 c 0.258,-0.3261 0.7315,-0.3812 1.0575,-0.1231 -1.1544,0.9104 -1.2249,0.6844 -1.2344,0.6187 -0.007,-0.0515 -0.0106,-0.1159 -0.0129,-0.1655 -0.004,-0.0943 -0.005,-0.217 -0.006,-0.3597 -10e-4,-0.2859 -6e-4,-0.6666 -0.023,-1.1311 -0.0662,-1.385 -0.0733,-3.2397 -0.2399,-4.8087 -0.078,-0.8484 -0.1752,-1.5982 -0.3372,-2.2502 -0.1739,-0.779 -0.4842,-1.3304 -0.9213,-1.6877 -0.6252,-0.6247 -1.4904,-0.5009 -2.4541,-0.3086 -0.3899,0.0435 -0.7432,0.1093 -1.0444,0.2056 -0.2978,0.0899 -0.3905,0.0975 -0.3762,0.0808 v 0 c -0.1686,0.3503 -0.5893,0.4975 -0.9396,0.3289 v 0 c -0.3502,-0.1686 -0.4975,-0.5893 -0.3289,-0.9396 v 0 c 0.1687,-0.3502 0.5893,-0.4975 0.9396,-0.3289 v 0 c 0.3503,0.1687 0.4975,0.5893 0.3289,0.9396 -0.0131,-0.0416 -0.0288,-0.2629 -0.0445,-0.298 v 0 c 0.1596,0.3252 0.0253,0.7182 -0.2999,0.8778 v 0 c -0.3252,0.1596 -0.7182,0.0253 -0.8778,-0.2999 v 0 c -0.1596,-0.3253 -0.0253,-0.7183 0.2999,-0.8778 v 0 c 0.3253,-0.1596 0.7183,-0.0253 0.8778,0.2999 -0.025,0.009 -0.0523,0.003 0.0577,0.0882 v 0 c 0.2837,0.1795 0.3682,0.5551 0.1886,0.8388 v 0 c -0.1795,0.2838 -0.555,0.3682 -0.8388,0.1887 v 0 c -0.2837,-0.1795 -0.3682,-0.5551 -0.1887,-0.8388 v 0 c 0.1796,-0.2838 0.5551,-0.3682 0.8389,-0.1887 0.253,0.2037 0.7517,0.4211 1.6568,0.6593 v 0 c 0.2757,0.0628 0.4483,0.3372 0.3855,0.613 v 0 c -0.0628,0.2757 -0.3373,0.4483 -0.613,0.3855 -0.973,-0.1896 -1.661,-0.4091 -2.0795,-0.6303 -0.2258,-0.1274 -0.4601,-0.3433 -0.5851,-0.5377 -0.1158,-0.2392 -0.1248,-0.6589 -0.0463,-0.8907 0.1974,-0.397 0.6271,-0.7368 1.0151,-0.9406 0.3846,-0.1972 0.8806,-0.3714 1.3274,-0.4928 1.0847,-0.2116 2.7281,-0.262 3.9645,0.7053 0.6778,0.5962 1.2625,1.6073 1.5195,2.6265 0.1757,0.7573 0.2828,1.6351 0.3558,2.5169 0.1158,1.6649 0.0674,3.5704 0.0765,4.9196 0.004,0.5032 -0.0154,0.9319 -0.0331,1.2211 -0.009,0.1448 -0.0171,0.2512 -0.0219,0.3182 -0.002,0.0309 -0.005,0.0301 -0.007,0.024 -0.005,-0.0202 -0.0693,-0.2189 -0.276,-0.4787 -1.2277,0.7563 -1.2727,0.4555 -1.365,0.1331 -0.0903,-0.3103 -0.1796,-0.6959 -0.3268,-1.0911 -0.3086,-0.8018 -0.6568,-1.6625 -1.1412,-2.2292 -0.3367,-0.4197 -0.6384,-0.6686 -0.9749,-0.8232 -0.3181,-0.1619 -0.4665,-0.1889 -0.6725,-0.1045 -0.4243,0.1056 -0.835,0.5332 -1.2284,1.2021 -0.4046,0.6708 -0.6598,1.4163 -0.6935,2.1177 -0.008,0.4352 0.0168,0.7654 0.0599,0.8367 2e-4,-0.004 -0.0698,-0.1383 -0.1744,-0.2578 -0.2121,-0.1129 -0.7619,-0.0534 -0.8836,0.0321 -0.0723,0.0975 -0.085,0.1056 -0.0396,-0.0881 v 0 c 0.1057,-0.3876 0.5056,-0.6161 0.8931,-0.5104 v 0 c 0.3876,0.1056 0.6162,0.5055 0.5105,0.8931 z" /><path
           id="path264"
           style="fill:#1749b3;fill-opacity:1;fill-rule:nonzero;stroke:none"
           d="m 372.5917,698.709 c -0.0232,0.4701 0.2581,0.7317 0.871,1.1375 v 0 c 0.3296,0.219 0.4193,0.6636 0.2004,0.9932 v 0 c -0.2189,0.3296 -0.6636,0.4193 -0.9932,0.2003 v 0 c -0.3295,-0.2189 -0.4192,-0.6635 -0.2003,-0.9931 v 0 c 0.2189,-0.3296 0.6636,-0.4193 0.9931,-0.2004 0.6183,0.4194 1.4541,0.775 2.2904,1.1765 v 0 c 0.3519,0.1673 0.5015,0.5881 0.3342,0.94 v 0 c -0.1673,0.3519 -0.5882,0.5015 -0.94,0.3342 v 0 c -0.3519,-0.1673 -0.5015,-0.5881 -0.3342,-0.94 v 0 c 0.1673,-0.3519 0.5881,-0.5015 0.94,-0.3342 0.1816,0.1578 0.3656,0.3197 0.5377,0.4822 v 0 c 0.2507,0.1308 0.3478,0.4402 0.2169,0.6908 v 0 c -0.1308,0.2507 -0.4401,0.3478 -0.6908,0.217 -0.2182,-0.0413 -0.4393,-0.0776 -0.6697,-0.1159 -0.8112,-0.3817 -1.7327,-0.7711 -2.4773,-1.2571 -0.7499,-0.4995 -1.4373,-1.3036 -1.5312,-2.259 v 0 c -0.0198,-0.4013 0.2893,-0.7426 0.6906,-0.7625 v 0 c 0.4012,-0.0199 0.7426,0.2893 0.7624,0.6905" /></g></g></g></svg>