<?xml version="1.0" encoding="UTF-8" standalone="no"?>
<svg
   xmlns:dc="http://purl.org/dc/elements/1.1/"
   xmlns:cc="http://creativecommons.org/ns#"
   xmlns:rdf="http://www.w3.org/1999/02/22-rdf-syntax-ns#"
   xmlns:svg="http://www.w3.org/2000/svg"
   xmlns="http://www.w3.org/2000/svg"
   viewBox="0 0 365.94412 385.54868"
   height="385.54868"
   width="365.94412"
   xml:space="preserve"
   id="svg2"
   version="1.1"><metadata
     id="metadata8"><rdf:RDF><cc:Work
         rdf:about=""><dc:format>image/svg+xml</dc:format><dc:type
           rdf:resource="http://purl.org/dc/dcmitype/StillImage" /></cc:Work></rdf:RDF></metadata><defs
     id="defs6"><clipPath
       id="clipPath14"
       clipPathUnits="userSpaceOnUse"><path
         id="path12"
         d="M 0,0 H 612 V 792 H 0 Z" /></clipPath><clipPath
       id="clipPath24"
       clipPathUnits="userSpaceOnUse"><path
         id="path22"
         d="M 0,0 H 612 V 792 H 0 Z" /></clipPath><clipPath
       id="clipPath62"
       clipPathUnits="userSpaceOnUse"><path
         id="path60"
         d="m 59.14286,72 h 493.7143 V 720 H 59.14286 Z" /></clipPath><clipPath
       id="clipPath72"
       clipPathUnits="userSpaceOnUse"><path
         id="path70"
         d="M 0,0 H 612 V 792 H 0 Z" /></clipPath><clipPath
       id="clipPath82"
       clipPathUnits="userSpaceOnUse"><path
         id="path80"
         d="m 59.14286,72 h 493.7143 V 720 H 59.14286 Z" /></clipPath><clipPath
       id="clipPath92"
       clipPathUnits="userSpaceOnUse"><path
         id="path90"
         d="M 0,0 H 612 V 792 H 0 Z" /></clipPath><clipPath
       id="clipPath102"
       clipPathUnits="userSpaceOnUse"><path
         id="path100"
         d="m 59.14286,72 h 493.7143 V 720 H 59.14286 Z" /></clipPath><clipPath
       id="clipPath112"
       clipPathUnits="userSpaceOnUse"><path
         id="path110"
         d="M 0,0 H 612 V 792 H 0 Z" /></clipPath><clipPath
       id="clipPath122"
       clipPathUnits="userSpaceOnUse"><path
         id="path120"
         d="m 59.14286,72 h 493.7143 V 720 H 59.14286 Z" /></clipPath><clipPath
       id="clipPath132"
       clipPathUnits="userSpaceOnUse"><path
         id="path130"
         d="M 0,0 H 612 V 792 H 0 Z" /></clipPath><clipPath
       id="clipPath142"
       clipPathUnits="userSpaceOnUse"><path
         id="path140"
         d="m 59.14286,72 h 493.7143 V 720 H 59.14286 Z" /></clipPath><clipPath
       id="clipPath160"
       clipPathUnits="userSpaceOnUse"><path
         id="path158"
         d="M 0,0 H 612 V 792 H 0 Z" /></clipPath><clipPath
       id="clipPath170"
       clipPathUnits="userSpaceOnUse"><path
         id="path168"
         d="m 59.14286,72 h 493.7143 V 720 H 59.14286 Z" /></clipPath><clipPath
       id="clipPath180"
       clipPathUnits="userSpaceOnUse"><path
         id="path178"
         d="M 0,0 H 612 V 792 H 0 Z" /></clipPath><clipPath
       id="clipPath190"
       clipPathUnits="userSpaceOnUse"><path
         id="path188"
         d="m 59.14286,72 h 493.7143 V 720 H 59.14286 Z" /></clipPath><clipPath
       id="clipPath200"
       clipPathUnits="userSpaceOnUse"><path
         id="path198"
         d="M 0,0 H 612 V 792 H 0 Z" /></clipPath><clipPath
       id="clipPath210"
       clipPathUnits="userSpaceOnUse"><path
         id="path208"
         d="m 59.14286,72 h 493.7143 V 720 H 59.14286 Z" /></clipPath><clipPath
       id="clipPath220"
       clipPathUnits="userSpaceOnUse"><path
         id="path218"
         d="M 0,0 H 612 V 792 H 0 Z" /></clipPath><clipPath
       id="clipPath230"
       clipPathUnits="userSpaceOnUse"><path
         id="path228"
         d="m 59.14286,72 h 493.7143 V 720 H 59.14286 Z" /></clipPath></defs><g
     clip-path="url(#clipPath14)"
     transform="matrix(1.3333333,0,0,-1.3333333,-219.61333,954.45213)"
     id="g10"><g
       id="g16" /><g
       id="g18"><g
         clip-path="url(#clipPath24)"
         id="g20"><g
           transform="matrix(0.8456908,0,0,0.8456908,72,720)"
           id="g26"><text
             id="text30"
             style="font-variant:normal;font-weight:normal;font-size:14px;writing-mode:lr-tb;fill:#000000;fill-opacity:0;fill-rule:nonzero;stroke:none"
             transform="matrix(1,0,0,-1,245.5184,-22.22801)"><tspan
               id="tspan28"
               y="0"
               x="0">I</tspan></text>
</g><g
           transform="matrix(0.8456908,0,0,0.8456908,72,720)"
           id="g32"><text
             id="text36"
             style="font-variant:normal;font-weight:normal;font-size:14px;writing-mode:lr-tb;fill:#000000;fill-opacity:0;fill-rule:nonzero;stroke:none"
             transform="matrix(1,0,0,-1,260.913,-22.85319)"><tspan
               id="tspan34"
               y="0"
               x="0">I</tspan></text>
</g><g
           transform="matrix(0.8456908,0,0,0.8456908,72,720)"
           id="g38"><text
             id="text42"
             style="font-variant:normal;font-weight:normal;font-size:16px;writing-mode:lr-tb;fill:#000000;fill-opacity:0;fill-rule:nonzero;stroke:none"
             transform="matrix(1,0,0,-1,300.6132,-27.5612)"><tspan
               id="tspan40"
               y="0"
               x="0">w</tspan></text>
</g><g
           transform="matrix(0.8456908,0,0,0.8456908,72,720)"
           id="g44"><text
             id="text48"
             style="font-variant:normal;font-weight:normal;font-size:22px;writing-mode:lr-tb;fill:#000000;fill-opacity:0;fill-rule:nonzero;stroke:none"
             transform="matrix(1,0,0,-1,226.9676,-163.3757)"><tspan
               id="tspan46"
               y="0"
               x="0 12.5576">dy</tspan></text>
</g><g
           transform="matrix(0.8456908,0,0,0.8456908,72,720)"
           id="g50"><text
             id="text54"
             style="font-variant:normal;font-weight:normal;font-size:25px;writing-mode:lr-tb;fill:#000000;fill-opacity:0;fill-rule:nonzero;stroke:none"
             transform="matrix(1,0,0,-1,288.1844,-225.3532)"><tspan
               id="tspan52"
               y="0"
               x="0 14.0875">Ex</tspan></text>
</g></g></g><g
       id="g56"><g
         clip-path="url(#clipPath62)"
         id="g58"><path
           id="path64"
           style="fill:#000000;fill-opacity:1;fill-rule:nonzero;stroke:none"
           d="m 178.7629,557.4371 c -0.5326,0 -0.9643,0.4318 -0.9643,0.9643 0,0.5326 0.4317,0.9643 0.9643,0.9643 h 219.448 c 0.5325,0 0.9643,-0.4317 0.9643,-0.9643 0,-0.5325 -0.4318,-0.9643 -0.9643,-0.9643 z" /></g></g><g
       id="g66"><g
         clip-path="url(#clipPath72)"
         id="g68"><path
           id="path74"
           style="fill:#000000;fill-opacity:1;fill-rule:nonzero;stroke:none"
           d="m 398.2109,563.9116 12.6734,-5.5102 -12.6734,-5.5102 z" /></g></g><g
       id="g76"><g
         clip-path="url(#clipPath82)"
         id="g78"><path
           id="path84"
           style="fill:#000000;fill-opacity:1;fill-rule:nonzero;stroke:none"
           d="m 295.3058,454.8424 c 0,-0.5325 -0.4318,-0.9642 -0.9643,-0.9642 -0.5326,0 -0.9643,0.4317 -0.9643,0.9642 v 195.4088 c 0,0.5326 0.4317,0.9643 0.9643,0.9643 0.5325,0 0.9643,-0.4317 0.9643,-0.9643 z" /></g></g><g
       id="g86"><g
         clip-path="url(#clipPath92)"
         id="g88"><path
           id="path94"
           style="fill:#000000;fill-opacity:1;fill-rule:nonzero;stroke:none"
           d="m 288.8313,650.2512 5.5102,12.6735 5.5102,-12.6735 z" /></g></g><g
       id="g96"><g
         clip-path="url(#clipPath102)"
         id="g98"><path
           id="path104"
           style="fill:#000000;fill-opacity:1;fill-rule:nonzero;stroke:none"
           d="m 294.3415,557.4371 c -0.5326,0 -0.9643,0.4318 -0.9643,0.9643 0,0.5326 0.4317,0.9643 0.9643,0.9643 h 21.2447 c 0.5326,0 0.9643,-0.4317 0.9643,-0.9643 0,-0.5325 -0.4317,-0.9643 -0.9643,-0.9643 z" /></g></g><g
       id="g106"><g
         clip-path="url(#clipPath112)"
         id="g108"><path
           id="path114"
           style="fill:#000000;fill-opacity:1;fill-rule:nonzero;stroke:none"
           d="m 315.5862,563.9116 12.6735,-5.5102 -12.6735,-5.5102 z" /></g></g><g
       id="g116"><g
         clip-path="url(#clipPath122)"
         id="g118"><path
           id="path124"
           style="fill:#000000;fill-opacity:1;fill-rule:nonzero;stroke:none"
           d="m 295.3058,558.4014 c 0,-0.5325 -0.4318,-0.9643 -0.9643,-0.9643 -0.5326,0 -0.9643,0.4318 -0.9643,0.9643 v 21.6081 c 0,0.5325 0.4317,0.9643 0.9643,0.9643 0.5325,0 0.9643,-0.4318 0.9643,-0.9643 z" /></g></g><g
       id="g126"><g
         clip-path="url(#clipPath132)"
         id="g128"><path
           id="path134"
           style="fill:#000000;fill-opacity:1;fill-rule:nonzero;stroke:none"
           d="m 288.8313,580.0095 5.5102,12.6734 5.5102,-12.6734 z" /></g></g><g
       id="g136"><g
         clip-path="url(#clipPath142)"
         id="g138"><path
           id="path144"
           style="fill:#1749b3;fill-opacity:1;fill-rule:nonzero;stroke:none"
           d="m 199.9698,688.3385 c -0.3722,0.381 -0.365,0.9915 0.0159,1.3636 0.381,0.3722 0.9915,0.3651 1.3636,-0.0159 L 421.7753,464.059 c 0.3722,-0.3809 0.3651,-0.9914 -0.0159,-1.3636 -0.3809,-0.3721 -0.9914,-0.365 -1.3636,0.0159 z" /><path
           id="path146"
           style="fill:#1749b3;fill-opacity:1;fill-rule:nonzero;stroke:none"
           d="m 216.1662,705.333 c -0.3722,0.3809 -0.3651,0.9914 0.0159,1.3636 0.3809,0.3722 0.9914,0.365 1.3636,-0.0159 l 220.426,-225.6272 c 0.3722,-0.3809 0.365,-0.9914 -0.0159,-1.3636 -0.3809,-0.3722 -0.9915,-0.3651 -1.3636,0.0159 z" /><path
           id="path148"
           style="fill:#1749b3;fill-opacity:1;fill-rule:nonzero;stroke:none"
           d="m 183.4387,670.5412 c -0.3722,0.3809 -0.365,0.9914 0.0159,1.3636 0.381,0.3721 0.9915,0.365 1.3636,-0.0159 l 220.426,-225.6272 c 0.3722,-0.381 0.3651,-0.9915 -0.0159,-1.3636 -0.3809,-0.3722 -0.9914,-0.3651 -1.3636,0.0159 z" /><path
           id="path150"
           style="fill:#1749b3;fill-opacity:1;fill-rule:nonzero;stroke:none"
           d="m 166.0037,653.4347 c -0.3722,0.3809 -0.3651,0.9914 0.0159,1.3636 0.3809,0.3722 0.9914,0.3651 1.3636,-0.0159 l 220.426,-225.6272 c 0.3722,-0.3809 0.365,-0.9914 -0.0159,-1.3636 -0.3809,-0.3722 -0.9915,-0.365 -1.3636,0.0159 z" /><path
           id="path152"
           style="fill:#1749b3;fill-opacity:1;fill-rule:nonzero;stroke:none"
           d="m 249.2045,672.8956 c -0.3808,-0.3724 -0.9913,-0.3655 -1.3636,0.0153 -0.3723,0.3808 -0.3655,0.9913 0.0153,1.3636 l 7.2746,7.113 c 0.3807,0.3723 0.9913,0.3655 1.3636,-0.0153 0.3723,-0.3808 0.3655,-0.9913 -0.0153,-1.3636 z" /></g></g><g
       id="g154"><g
         clip-path="url(#clipPath160)"
         id="g156"><path
           id="path162"
           style="fill:#1749b3;fill-opacity:1;fill-rule:nonzero;stroke:none"
           d="m 251.9526,684.6379 12.9139,4.9204 -5.2093,-12.8001 z" /></g></g><g
       id="g164"><g
         clip-path="url(#clipPath170)"
         id="g166"><path
           id="path172"
           style="fill:#1749b3;fill-opacity:1;fill-rule:nonzero;stroke:none"
           d="m 232.6214,656.3124 c -0.3765,-0.3766 -0.9871,-0.3766 -1.3637,0 -0.3765,0.3766 -0.3765,0.9872 0,1.3637 l 7.6293,7.6293 c 0.3766,0.3766 0.9871,0.3766 1.3637,0 0.3766,-0.3766 0.3766,-0.9871 0,-1.3637 z" /></g></g><g
       id="g174"><g
         clip-path="url(#clipPath180)"
         id="g176"><path
           id="path182"
           style="fill:#1749b3;fill-opacity:1;fill-rule:nonzero;stroke:none"
           d="m 235.6725,668.5198 12.8578,5.0652 -5.0651,-12.8578 z" /></g></g><g
       id="g184"><g
         clip-path="url(#clipPath190)"
         id="g186"><path
           id="path192"
           style="fill:#1749b3;fill-opacity:1;fill-rule:nonzero;stroke:none"
           d="m 216.0307,639.7217 c -0.3766,-0.3766 -0.9872,-0.3766 -1.3637,0 -0.3766,0.3765 -0.3766,0.9871 0,1.3637 l 7.6292,7.6292 c 0.3766,0.3766 0.9872,0.3766 1.3637,0 0.3766,-0.3765 0.3766,-0.9871 0,-1.3637 z" /></g></g><g
       id="g194"><g
         clip-path="url(#clipPath200)"
         id="g196"><path
           id="path202"
           style="fill:#1749b3;fill-opacity:1;fill-rule:nonzero;stroke:none"
           d="m 219.0818,651.9291 12.8578,5.0652 -5.0652,-12.8578 z" /></g></g><g
       id="g204"><g
         clip-path="url(#clipPath210)"
         id="g206"><path
           id="path212"
           style="fill:#1749b3;fill-opacity:1;fill-rule:nonzero;stroke:none"
           d="m 198.5007,621.5668 c -0.3765,-0.3766 -0.9871,-0.3766 -1.3637,0 -0.3765,0.3766 -0.3765,0.9871 0,1.3637 l 7.6293,7.6293 c 0.3766,0.3766 0.9871,0.3766 1.3637,0 0.3766,-0.3766 0.3766,-0.9872 0,-1.3637 z" /></g></g><g
       id="g214"><g
         clip-path="url(#clipPath220)"
         id="g216"><path
           id="path222"
           style="fill:#1749b3;fill-opacity:1;fill-rule:nonzero;stroke:none"
           d="m 201.5519,633.7742 12.8577,5.0652 -5.0651,-12.8578 z" /></g></g><g
       id="g224"><g
         clip-path="url(#clipPath230)"
         id="g226"><path
           id="path232"
           style="fill:#1749b3;fill-opacity:1;fill-rule:nonzero;stroke:none"
           d="m 274.9773,712.9357 c 0.2021,0.1065 0.3935,0.2338 0.5101,0.3485 v 0 c 0.288,0.2156 0.3467,0.624 0.131,0.9121 v 0 c -0.2156,0.288 -0.624,0.3467 -0.912,0.131 v 0 c -0.2881,-0.2156 -0.3468,-0.624 -0.1311,-0.912 v 0 c 0.2157,-0.2881 0.624,-0.3468 0.9121,-0.1311 0.0648,0.0661 0.1644,0.188 0.2139,0.285 v 0 c 0.1745,0.2905 0.0805,0.6675 -0.21,0.842 v 0 c -0.2905,0.1746 -0.6675,0.0806 -0.842,-0.2099 v 0 c -0.1746,-0.2905 -0.0806,-0.6675 0.2099,-0.8421 v 0 c 0.2905,-0.1745 0.6675,-0.0805 0.8421,0.21 0.0486,0.1223 0.0801,0.3932 0.0403,0.542 v 0 c -0.087,0.3059 -0.4054,0.4833 -0.7112,0.3964 v 0 c -0.3059,-0.087 -0.4833,-0.4054 -0.3964,-0.7113 v 0 c 0.087,-0.3058 0.4054,-0.4832 0.7113,-0.3963 v 0 c 0.3058,0.087 0.4833,0.4054 0.3963,0.7112 -0.059,0.1876 -0.2334,0.3961 -0.3295,0.4738 -0.085,0.0636 -0.2145,0.1275 -0.3064,0.168 -0.1772,0.0758 -0.4231,0.1361 -0.652,0.1771 -0.4532,0.0134 -0.9987,-0.0646 -1.4654,-0.1436 -0.4745,-0.0835 -0.9842,-0.1906 -1.3827,-0.3227 -0.3968,-0.1562 -0.8157,-0.5501 -0.9886,-0.8842 -0.1451,-0.3269 -0.2202,-0.7248 -0.2629,-1.0769 -0.177,-1.3852 -0.3397,-3.7824 -0.3826,-5.7716 -0.0121,-1.3223 0.0313,-2.4186 0.121,-3.2489 0.0385,-0.3564 0.0757,-0.7553 0.2065,-1.1511 0.1804,-0.5138 0.6671,-1.1733 1.295,-1.4871 0.5566,-0.2375 1.2755,-0.3382 1.9056,-0.352 v 0 c 0.5612,0.002 1.0142,0.4593 1.0118,1.0205 v 0 c -0.002,0.5612 -0.4594,1.0142 -1.0206,1.0118 v 0 c -0.5612,-0.002 -1.0142,-0.4593 -1.0118,-1.0205 v 0 c 0.002,-0.5612 0.4594,-1.0142 1.0206,-1.0118 0.5023,-0.003 1.0409,0.0365 1.5268,0.0836 v 0 c 0.5672,0.0617 0.9771,0.5715 0.9154,1.1388 v 0 c -0.0617,0.5673 -0.5716,0.9771 -1.1388,0.9154 v 0 c -0.5673,-0.0617 -0.9771,-0.5715 -0.9154,-1.1388 v 0 c 0.0616,-0.5672 0.5715,-0.9771 1.1388,-0.9154 0.3638,0.0405 0.7163,0.0866 1.0338,0.1255 v 0 c 0.5649,0.0673 0.9682,0.5798 0.9009,1.1447 v 0 c -0.0673,0.5649 -0.5798,0.9683 -1.1447,0.9009 v 0 c -0.5649,-0.0673 -0.9683,-0.5798 -0.9009,-1.1447 v 0 c 0.0673,-0.5649 0.5798,-0.9683 1.1447,-0.9009 0.7202,0.2596 1.19,0.4856 1.2925,0.577 v 0 c 0.2544,-0.1235 0.5607,-0.0173 0.6842,0.2372 v 0 c 0.1234,0.2544 0.0172,0.5607 -0.2372,0.6841 -0.4347,0.3519 -1.2,0.4665 -1.9831,0.5474 -0.3271,-0.038 -0.6683,-0.0807 -1.0132,-0.1169 -0.4601,-0.0558 -0.8945,-0.0989 -1.3128,-0.1056 -0.5202,-0.0188 -0.8694,-0.003 -1.1424,0.1094 -0.1846,0.0288 -0.1749,0.0531 -0.2716,0.3246 -0.0629,0.153 -0.0686,0.341 -0.1099,0.7258 -0.0815,0.7574 -0.1189,1.7468 -0.1051,3.0281 -0.004,1.9411 0.1092,4.2658 0.2352,5.5961 0.0314,0.3123 0.0445,0.4508 0.0928,0.5395 0.0202,0.0807 -0.1006,-0.02 -0.003,0.002 0.2795,0.1118 0.6716,0.2075 1.1184,0.3028 0.4418,0.0969 0.8368,0.177 1.1256,0.1797 0.1751,0.0352 0.2861,0.0629 0.3737,0.0794 0.039,0.0111 0.0182,0.0386 0.0106,0.0604 -0.0141,0.034 -0.1379,0.1929 -0.181,0.3245 -0.0278,0.1066 -0.004,0.332 0.014,0.4026 0.0213,0.0501 0.0694,0.1187 0.0593,0.1289 -0.0361,4e-4 -0.0938,-7e-4 -0.2577,-0.0366 v 0 c -0.3744,-0.1457 -0.5597,-0.5674 -0.414,-0.9417 v 0 c 0.1457,-0.3744 0.5673,-0.5597 0.9417,-0.414" /><path
           id="path234"
           style="fill:#1749b3;fill-opacity:1;fill-rule:nonzero;stroke:none"
           d="m 281.671,710.9166 c 2e-4,0.0448 -10e-4,0.099 -0.0119,0.191 v 0 c -0.0701,0.3959 -0.4479,0.66 -0.8438,0.5899 v 0 c -0.3959,-0.0701 -0.66,-0.4479 -0.5899,-0.8438 v 0 c 0.0701,-0.3959 0.4479,-0.66 0.8438,-0.5899 v 0 c 0.3959,0.0701 0.66,0.4479 0.5899,0.8438 -1.3995,0.1337 -1.4452,-0.0775 -1.4476,-0.1142 v 0 c -0.0232,-0.4017 0.2837,-0.7461 0.6855,-0.7692 v 0 c 0.4017,-0.0231 0.7461,0.2838 0.7692,0.6855 v 0 c 0.0231,0.4017 -0.2838,0.7461 -0.6855,0.7692 v 0 c -0.4017,0.0231 -0.7461,-0.2838 -0.7692,-0.6855 -0.004,-0.0597 -0.008,-0.1725 -0.0105,-0.3129 v 0 c -0.007,-0.4029 0.3148,-0.7349 0.7178,-0.7415 v 0 c 0.403,-0.006 0.7349,0.3149 0.7415,0.7179 v 0 c 0.007,0.4029 -0.3149,0.7349 -0.7178,0.7414 v 0 c -0.403,0.007 -0.735,-0.3148 -0.7415,-0.7178 -0.005,-0.2773 -0.006,-0.7083 0.0112,-1.1321 v 0 c 0.0173,-0.4039 0.3588,-0.7174 0.7628,-0.7 v 0 c 0.4039,0.0173 0.7174,0.3588 0.7001,0.7627 v 0 c -0.0174,0.404 -0.3589,0.7174 -0.7628,0.7001 v 0 c -0.404,-0.0173 -0.7174,-0.3588 -0.7001,-0.7628 0.1331,-1.3845 0.3515,-2.6383 0.6631,-4.0853 v 0 c 0.0458,-0.279 0.3091,-0.4681 0.5882,-0.4224 v 0 c 0.279,0.0458 0.4682,0.3092 0.4224,0.5882 -0.163,1.4456 -0.227,2.6364 -0.2108,3.9822 -0.0178,0.3922 -0.0184,0.7825 -0.0148,1.0457 0.002,0.1301 0.004,0.2176 0.006,0.253 3e-4,0.0103 -0.043,-0.1799 -1.4411,-0.0543 -0.009,0.0803 -0.009,0.0937 -0.009,0.0621 v 0 c -2e-4,-0.4018 0.3252,-0.7277 0.7269,-0.7279 v 0 c 0.4018,-3e-4 0.7277,0.3252 0.7279,0.7269" /><path
           id="path236"
           style="fill:#1749b3;fill-opacity:1;fill-rule:nonzero;stroke:none"
           d="m 293.047,710.0544 c 0.1853,-0.214 0.2369,-0.7158 0.2711,-1.4469 v 0 c 0.0374,-0.4438 0.4275,-0.7733 0.8714,-0.7359 v 0 c 0.4439,0.0374 0.7734,0.4275 0.736,0.8714 v 0 c -0.0374,0.4438 -0.4276,0.7733 -0.8714,0.7359 v 0 c -0.4439,-0.0374 -0.7734,-0.4275 -0.736,-0.8714 0.0273,-0.5224 0.0226,-1.0952 0.0317,-1.651 v 0 c 0.0224,-0.4732 0.4242,-0.8386 0.8974,-0.8162 v 0 c 0.4732,0.0224 0.8386,0.4241 0.8162,0.8973 v 0 c -0.0224,0.4732 -0.4241,0.8387 -0.8973,0.8163 v 0 c -0.4732,-0.0224 -0.8387,-0.4242 -0.8163,-0.8974 0.0813,-0.4971 0.1778,-1.0042 0.3211,-1.4083 v 0 c 0.0794,-0.3699 0.4435,-0.6054 0.8133,-0.5261 v 0 c 0.3699,0.0793 0.6054,0.4434 0.5261,0.8133 v 0 c -0.0793,0.3698 -0.4434,0.6054 -0.8133,0.5261 v 0 c -0.3698,-0.0793 -0.6054,-0.4434 -0.5261,-0.8133 0.149,-0.4064 0.433,-0.851 0.8149,-1.0413 v 0 c 0.2463,-0.139 0.5586,-0.0519 0.6976,0.1944 v 0 c 0.1389,0.2463 0.0519,0.5586 -0.1944,0.6975 -0.0147,0.0335 0.027,0.1216 0.0213,0.4365 -0.0112,0.317 0.0182,0.72 0.0531,1.2023 -0.0423,0.5323 -0.073,1.1331 -0.1379,1.7053 -0.095,0.8018 -0.3022,1.6788 -0.7577,2.239 v 0 c -0.2561,0.3095 -0.7146,0.3528 -1.0241,0.0967 v 0 c -0.3095,-0.2562 -0.3528,-0.7147 -0.0967,-1.0242 z" /><path
           id="path238"
           style="fill:#1749b3;fill-opacity:1;fill-rule:nonzero;stroke:none"
           d="m 295.5185,713.5261 c 1.0466,0.09 2.0476,-0.123 2.8233,-0.3917 v 0 c 0.4195,-0.1313 0.8659,0.1024 0.9972,0.5218 v 0 c 0.1313,0.4195 -0.1023,0.866 -0.5218,0.9972 v 0 c -0.4195,0.1313 -0.8659,-0.1023 -0.9972,-0.5218 v 0 c -0.1313,-0.4194 0.1023,-0.8659 0.5218,-0.9972 0.2307,-0.0527 0.5488,-0.2642 1.062,-0.3574 v 0 c 0.4203,-0.0649 0.8135,0.2233 0.8784,0.6435 v 0 c 0.0648,0.4203 -0.2233,0.8136 -0.6436,0.8784 v 0 c -0.4203,0.0649 -0.8135,-0.2232 -0.8784,-0.6435 v 0 c -0.0648,-0.4203 0.2233,-0.8136 0.6436,-0.8784 0.4874,-0.0347 0.8819,0.1142 1.0381,0.133 v 0 c 0.4124,0.055 0.7021,0.4339 0.6471,0.8463 v 0 c -0.055,0.4123 -0.4339,0.702 -0.8462,0.6471 v 0 c -0.4124,-0.055 -0.7021,-0.4339 -0.6471,-0.8463 v 0 c 0.055,-0.4124 0.4339,-0.7021 0.8462,-0.6471 0.076,0.008 0.01,0.0107 0.0214,-0.0155 0.0179,-0.005 -0.059,0.06 -0.0488,0.004 0.4252,-0.7381 0.2417,-3.667 0.4276,-6.4059 0.1099,-1.5085 0.2534,-2.8594 0.3344,-3.8113 0.0487,-0.4971 0.1153,-0.795 0.0897,-0.9191 -0.0112,-0.1129 -0.002,-0.0981 -0.008,-0.0918 0.0173,0.01 0.193,0.1673 0.237,0.2023 -0.002,-0.0317 -0.2092,0.0459 -0.6296,0.1607 v 0 c -0.504,0.1171 -1.0075,-0.1965 -1.1246,-0.7005 v 0 c -0.1171,-0.504 0.1966,-1.0075 0.7006,-1.1245 v 0 c 0.5039,-0.1171 1.0074,0.1965 1.1245,0.7005 v 0 c 0.1171,0.504 -0.1965,1.0075 -0.7005,1.1245 -0.3167,0.0804 -0.7037,0.1867 -1.0718,0.2388 v 0 c -0.5249,0.0609 -0.9998,-0.3153 -1.0606,-0.8402 v 0 c -0.0609,-0.5249 0.3153,-0.9998 0.8402,-1.0606 v 0 c 0.5249,-0.0609 0.9997,0.3153 1.0606,0.8402 v 0 c 0.0608,0.5249 -0.3153,0.9997 -0.8402,1.0606 -0.3216,-0.0398 -0.777,-0.1482 -1.0879,-0.376 v 0 c -0.3544,-0.1972 -0.4818,-0.6444 -0.2846,-0.9988 v 0 c 0.1972,-0.3544 0.6444,-0.4819 0.9988,-0.2847 v 0 c 0.3544,0.1973 0.4819,0.6445 0.2847,0.9989 v 0 c -0.1973,0.3544 -0.6444,0.4818 -0.9989,0.2846 -0.2659,-0.2618 -0.4653,-0.7696 -0.4046,-1.1699 v 0 c -5e-4,-0.2828 0.2283,-0.5125 0.5111,-0.513 v 0 c 0.2827,-6e-4 0.5124,0.2282 0.513,0.511 0.0618,0.1584 0.0497,-0.0224 0.0941,-0.1119 7e-4,-0.0544 -0.0201,-0.1438 0.154,-0.241 0.2266,-0.0168 0.5222,-0.0894 0.8679,-0.163 0.4631,-0.0905 1.1031,-0.1743 1.6574,-0.005 0.2811,0.1206 0.6166,0.4363 0.7428,0.66 0.103,0.2202 0.17,0.505 0.1933,0.7015 0.0364,0.4333 -0.0402,0.8642 -0.0761,1.2809 -0.0968,0.9699 -0.2523,2.3019 -0.3737,3.7813 -0.2288,2.6194 -0.1006,5.688 -0.7476,7.0111 -0.1488,0.2495 -0.4467,0.5321 -0.6964,0.6559 -0.2541,0.1026 -0.6325,0.1466 -0.8978,0.1092 -0.3673,-0.051 -0.5783,-0.1491 -0.6043,-0.1045 -0.1506,0.009 -0.3625,0.1912 -0.8214,0.3545 -0.8935,0.2537 -2.1904,0.4619 -3.4446,0.3202 v 0 c -0.3997,-0.0402 -0.6911,-0.3969 -0.6508,-0.7966 v 0 c 0.0402,-0.3997 0.3968,-0.6911 0.7966,-0.6509 z" /><path
           id="path240"
           style="fill:#000000;fill-opacity:1;fill-rule:nonzero;stroke:none"
           d="m 322.5788,542.5851 c -0.034,-0.1303 -0.2922,-0.443 -0.3931,-0.5081 v 0 c 0.4026,0.1233 0.629,0.5496 0.5056,0.9522 v 0 c -0.1233,0.4025 -0.5496,0.6289 -0.9522,0.5056 v 0 c -0.4025,-0.1233 -0.6289,-0.5497 -0.5056,-0.9522 v 0 c 0.1234,-0.4026 0.5497,-0.629 0.9522,-0.5056 -0.0824,-0.023 -0.1689,-0.0373 -0.1208,-0.0587 v 0 c 0.4342,-0.0735 0.8457,0.2189 0.9192,0.6531 v 0 c 0.0734,0.4342 -0.219,0.8457 -0.6531,0.9192 v 0 c -0.4342,0.0734 -0.8457,-0.219 -0.9192,-0.6531 v 0 c -0.0734,-0.4342 0.219,-0.8457 0.6531,-0.9192 0.1166,-0.04 0.3313,-0.1381 0.614,-0.2444 v 0 c 0.46,-0.1333 0.9409,0.1316 1.0742,0.5916 v 0 c 0.1333,0.46 -0.1316,0.941 -0.5916,1.0743 v 0 c -0.46,0.1333 -0.941,-0.1316 -1.0743,-0.5916 v 0 c -0.1332,-0.46 0.1316,-0.941 0.5917,-1.0743 0.5079,-0.1419 1.1428,-0.1532 1.6141,-0.0744 0.9327,0.2738 1.5909,1.1793 1.8513,1.761 0.1674,0.4039 0.1823,0.9882 0.0445,1.3562 -0.1753,0.351 -0.5621,0.709 -0.8974,0.8692 -0.6427,0.263 -1.633,0.2745 -2.4895,-0.0352 -1.7329,-0.6185 -3.5201,-2.8965 -4.0677,-4.7763 -0.2069,-0.8053 -0.1972,-1.8568 0.28,-2.631 0.483,-0.5682 1.3008,-0.9451 2.0001,-1.1141 0.6913,-0.1604 1.488,-0.2382 2.152,-0.2759 v 0 c 0.5745,-0.0347 1.0683,0.4029 1.103,0.9774 v 0 c 0.0347,0.5745 -0.4029,1.0684 -0.9775,1.1031 v 0 c -0.5745,0.0346 -1.0683,-0.403 -1.103,-0.9775 v 0 c -0.0347,-0.5745 0.403,-1.0684 0.9775,-1.103 0.8168,-0.0196 1.6885,-0.0741 2.4131,0.1337 v 0 c 0.5075,0.1419 0.8039,0.6682 0.662,1.1757 v 0 c -0.1418,0.5075 -0.6682,0.8039 -1.1756,0.662 v 0 c -0.5075,-0.1418 -0.8039,-0.6682 -0.6621,-1.1756 v 0 c 0.1419,-0.5075 0.6682,-0.8039 1.1757,-0.6621 0.3532,0.1841 0.7834,0.5575 0.9634,0.9544 v 0 c 0.2115,0.3453 0.1031,0.7966 -0.2421,1.0081 v 0 c -0.3452,0.2115 -0.7965,0.1031 -1.008,-0.2422 v 0 c -0.2115,-0.3452 -0.1031,-0.7965 0.2421,-1.008 v 0 c 0.3452,-0.2115 0.7965,-0.1031 1.008,0.2421 0.1255,0.3687 0.156,0.8736 0.0603,1.3591 v 0 c -0.0147,0.2824 -0.2555,0.4995 -0.5379,0.4848 v 0 c -0.2824,-0.0147 -0.4994,-0.2555 -0.4848,-0.5379 -0.0512,-0.3672 -0.1468,-0.4742 -0.2876,-0.5398 -0.0866,-0.0381 -0.063,0.078 -0.2277,0.117 -0.3089,-0.0811 -0.9128,0.0276 -1.7733,0.1092 -0.6224,0.0398 -1.2475,0.1016 -1.7876,0.2365 -0.5316,0.1266 -0.7543,0.2015 -0.795,0.3362 -0.1907,0.1217 -0.1668,0.2946 -0.0366,0.9069 0.2546,1.4939 1.5188,3.3303 2.6674,3.7657 0.5902,0.2193 0.9964,0.1965 1.2685,0.035 0.1221,-0.0521 0.0722,-0.004 0.0595,-0.0385 0.0247,-0.0177 0.0277,0.1054 -0.0451,-0.007 -0.2096,-0.4277 -0.4223,-0.8002 -0.6495,-0.7406 -0.2966,-0.0633 -0.5489,-0.0701 -0.8114,0.0117 -0.2637,0.0519 -0.562,0.1256 -0.8311,0.1509 -0.1446,0.0112 -0.3921,0.003 -0.5894,-0.0551 -0.2205,-0.1018 -0.5523,-0.4917 -0.6044,-0.7558 v 0 c -0.0537,-0.3981 0.2254,-0.7644 0.6235,-0.8181 v 0 c 0.3981,-0.0538 0.7645,0.2254 0.8182,0.6235" /><path
           id="path242"
           style="fill:#000000;fill-opacity:1;fill-rule:nonzero;stroke:none"
           d="m 320.6456,548.0266 c -0.0306,-0.009 0.1003,-0.0192 0.1868,-0.0417 v 0 c -0.3673,0.1623 -0.7966,-0.004 -0.9589,-0.3711 v 0 c -0.1624,-0.3673 0.004,-0.7966 0.371,-0.959 v 0 c 0.3673,-0.1623 0.7967,0.004 0.959,0.3711 v 0 c 0.1624,0.3673 -0.004,0.7967 -0.3711,0.959 0.1076,-0.0736 0.3042,-0.3388 0.3359,-0.4345 v 0 c -0.0624,0.3965 -0.4344,0.6673 -0.831,0.6049 v 0 c -0.3965,-0.0624 -0.6673,-0.4345 -0.6049,-0.831 v 0 c 0.0624,-0.3965 0.4345,-0.6673 0.831,-0.6049 v 0 c 0.3965,0.0624 0.6674,0.4345 0.6049,0.831 -0.018,-0.1226 -0.0245,-0.1686 0.058,-0.0388 v 0 c 0.2098,0.3418 0.1029,0.789 -0.2389,0.9988 v 0 c -0.3418,0.2099 -0.789,0.103 -0.9988,-0.2388 v 0 c -0.2099,-0.3418 -0.103,-0.789 0.2388,-0.9989 v 0 c 0.3418,-0.2098 0.789,-0.1029 0.9989,0.2389 0.1529,0.2443 0.6655,0.6156 1.1596,0.9836 0.4474,0.3513 0.7543,0.6811 1.0179,0.8655 0.2014,0.1406 0.2962,0.2144 0.3298,0.2066 v 0 c 0.4263,0.1698 0.6343,0.6531 0.4645,1.0794 v 0 c -0.1699,0.4263 -0.6531,0.6343 -1.0794,0.4645 v 0 c -0.4263,-0.1698 -0.6343,-0.6531 -0.4645,-1.0794 v 0 c 0.1698,-0.4263 0.6531,-0.6343 1.0794,-0.4645 -0.0134,0.006 -0.435,0.0862 -0.5075,0.0947 v 0 c 0.3208,-0.347 0.8621,-0.3683 1.2091,-0.0474 v 0 c 0.347,0.3208 0.3682,0.8621 0.0474,1.2091 v 0 c -0.3208,0.347 -0.8621,0.3682 -1.2091,0.0474 v 0 c -0.347,-0.3208 -0.3682,-0.8621 -0.0474,-1.2091 0.1097,-0.0684 0.2164,-0.4426 0.4011,-0.8761 v 0 c 0.1792,-0.4292 0.6724,-0.6319 1.1016,-0.4527 v 0 c 0.4292,0.1792 0.6319,0.6724 0.4526,1.1016 v 0 c -0.1792,0.4292 -0.6724,0.6319 -1.1016,0.4527 v 0 c -0.4292,-0.1792 -0.6318,-0.6724 -0.4526,-1.1016 0.3062,-0.4279 0.6295,-0.6343 1.1313,-1.2056 v 0 c 0.1541,-0.2371 0.4712,-0.3044 0.7083,-0.1502 v 0 c 0.2371,0.1541 0.3044,0.4712 0.1503,0.7083 -0.3488,0.7374 -0.4283,0.9732 -0.4357,1.2965 -0.1446,0.3552 -0.3365,0.9464 -0.6986,1.3886 -0.3433,0.3015 -1.0449,0.4039 -1.3641,0.2877 -0.2723,-0.1296 -0.5092,-0.3209 -0.6818,-0.4604 -0.381,-0.299 -0.6842,-0.6431 -1.0316,-0.9253 -0.4665,-0.3975 -1.0995,-0.9323 -1.4168,-1.454 -0.1424,-0.2364 -0.2722,-0.6078 -0.2561,-0.9471 0.0488,-0.204 0.3018,-0.5505 0.512,-0.6695 0.1894,-0.068 0.4695,-0.0883 0.6413,-0.0632 v 0 c 0.3962,0.0663 0.6636,0.4412 0.5973,0.8375 v 0 c -0.0662,0.3962 -0.4412,0.6636 -0.8374,0.5974 z" /><path
           id="path244"
           style="fill:#000000;fill-opacity:1;fill-rule:nonzero;stroke:none"
           d="m 269.8921,592.4075 c 0.0928,-0.3293 -0.4203,-1.0458 -0.5497,-1.074 v 0 c 0.4043,0.0269 0.7103,0.3764 0.6834,0.7806 v 0 c -0.0268,0.4043 -0.3763,0.7103 -0.7806,0.6834 v 0 c -0.4043,-0.0268 -0.7102,-0.3763 -0.6834,-0.7806 v 0 c 0.0269,-0.4043 0.3764,-0.7102 0.7806,-0.6834 -0.0576,-9e-4 -0.0873,-8e-4 -0.0445,-0.0108 v 0 c 0.4022,-0.0723 0.7867,0.1952 0.859,0.5974 v 0 c 0.0722,0.4021 -0.1953,0.7867 -0.5975,0.8589 v 0 c -0.4021,0.0723 -0.7867,-0.1952 -0.8589,-0.5974 v 0 c -0.0722,-0.4021 0.1952,-0.7867 0.5974,-0.8589 0.0936,-0.0207 0.2585,-0.0655 0.4768,-0.1222 v 0 c 0.4039,-0.0971 0.8102,0.1516 0.9073,0.5556 v 0 c 0.0971,0.4039 -0.1516,0.8101 -0.5556,0.9073 v 0 c -0.404,0.0971 -0.8102,-0.1516 -0.9073,-0.5556 v 0 c -0.0971,-0.404 0.1516,-0.8102 0.5556,-0.9073 0.4367,-0.1133 1.0643,-0.2677 1.6521,-0.3367 0.4572,-0.06 1.0591,-0.0716 1.5573,0.1135 0.4707,0.27 0.8196,0.8405 0.9196,1.2783 0.0827,0.4253 0.075,0.9477 0.0139,1.3701 -0.0393,0.2026 -0.009,0.6179 -0.1841,1.0907 -0.3373,0.6384 -1.0833,1.0414 -1.6018,1.1865 -0.5202,0.1305 -1.1777,0.0185 -1.6492,-0.2082 -0.4567,-0.2334 -0.9444,-0.6272 -1.3385,-1.0439 -0.7768,-0.8358 -1.4821,-2.0388 -1.827,-3.0981 -0.2482,-0.7645 -0.4078,-1.7097 -0.2278,-2.4834 0.166,-0.4462 0.5773,-0.9138 0.9277,-1.1384 0.3452,-0.203 0.8041,-0.3643 1.2024,-0.4546 0.7852,-0.1707 1.7112,-0.2185 2.4754,-0.25 v 0 c 0.5536,-0.0237 1.0217,0.4058 1.0454,0.9594 v 0 c 0.0238,0.5536 -0.4058,1.0217 -0.9594,1.0454 v 0 c -0.5536,0.0238 -1.0216,-0.4058 -1.0454,-0.9594 v 0 c -0.0237,-0.5536 0.4058,-1.0216 0.9594,-1.0454 0.989,-0.003 1.9378,-0.1073 2.7045,0.0247 v 0 c 0.4862,0.0685 0.8249,0.5182 0.7565,1.0044 v 0 c -0.0685,0.4863 -0.5182,0.825 -1.0044,0.7565 v 0 c -0.4863,-0.0684 -0.825,-0.5181 -0.7565,-1.0044 v 0 c 0.0684,-0.4862 0.5181,-0.8249 1.0044,-0.7565 0.333,0.1144 0.7505,0.3469 0.9849,0.6384 v 0 c 0.2769,0.2703 0.2823,0.7138 0.012,0.9907 v 0 c -0.2702,0.2769 -0.7137,0.2823 -0.9906,0.0121 v 0 c -0.277,-0.2703 -0.2823,-0.7138 -0.0121,-0.9907 v 0 c 0.2702,-0.2769 0.7138,-0.2823 0.9907,-0.0121 0.1912,0.2949 0.3092,0.7468 0.2703,1.1359 v 0 c 0.0129,0.2825 -0.2057,0.5219 -0.4882,0.5348 v 0 c -0.2825,0.0129 -0.522,-0.2057 -0.5348,-0.4881 -0.0666,-0.2159 -0.121,-0.1856 -0.2259,-0.1798 -0.0618,0.002 -0.0643,0.0788 -0.254,0.1197 -0.4537,-0.0397 -1.2852,0.1334 -2.3709,0.2192 -0.7569,0.0338 -1.5196,0.0698 -2.1195,0.2105 -0.2942,0.0653 -0.4519,0.1167 -0.5885,0.2094 -0.1313,0.071 -0.067,-0.0179 -0.0541,0.0239 -0.1414,0.2501 -0.0799,0.6898 0.0887,1.3562 0.2152,0.8633 0.6955,1.7774 1.3018,2.4878 0.2973,0.3557 0.5506,0.5921 0.831,0.7507 0.2651,0.1646 0.3404,0.2058 0.4952,0.1551 0.366,-0.092 0.6107,-0.1742 0.5983,-0.302 0.0541,-0.0671 9e-4,-0.2907 0.0419,-0.6995 0.0371,-0.3259 0.0347,-0.5856 -0.0307,-0.8148 -0.0481,-0.2167 -7e-4,-0.1723 -0.0459,-0.1396 -0.1022,-0.0904 -0.317,-0.0847 -0.7168,-0.0584 -0.485,0.0384 -1.0198,0.1569 -1.4559,0.253 -0.2176,0.0481 -0.4165,0.0921 -0.5655,0.1154 -0.0802,0.0121 -0.2019,0.0233 -0.3154,0.0187 -0.1854,-0.0319 -0.7185,-0.7669 -0.6038,-1.133 v 0 c 0.2052,-0.3454 0.6515,-0.4591 0.9969,-0.2539 v 0 c 0.3453,0.2052 0.459,0.6515 0.2538,0.9969 z" /><path
           id="path246"
           style="fill:#000000;fill-opacity:1;fill-rule:nonzero;stroke:none"
           d="m 269.0898,598.8726 c 0.0401,-0.0108 0.2281,-0.0954 0.3223,-0.1694 v 0 c -0.2805,0.2875 -0.741,0.2931 -1.0284,0.0126 v 0 c -0.2875,-0.2805 -0.2931,-0.7409 -0.0126,-1.0284 v 0 c 0.2805,-0.2874 0.7409,-0.2931 1.0284,-0.0126 v 0 c 0.2874,0.2805 0.2931,0.741 0.0126,1.0284 0.0758,-0.1031 0.165,-0.3424 0.1736,-0.4164 v 0 c -6e-4,0.4015 -0.3265,0.7266 -0.7281,0.726 v 0 c -0.4015,-5e-4 -0.7266,-0.3265 -0.726,-0.7281 v 0 c 5e-4,-0.4015 0.3265,-0.7266 0.728,-0.726 v 0 c 0.4016,5e-4 0.7267,0.3265 0.7261,0.7281 -0.0198,-0.0943 -0.0404,-0.1603 0.008,-0.0845 v 0 c 0.2091,0.3426 0.101,0.7898 -0.2416,0.999 v 0 c -0.3426,0.2091 -0.7898,0.101 -0.999,-0.2416 v 0 c -0.2091,-0.3426 -0.101,-0.7898 0.2416,-0.999 v 0 c 0.3426,-0.2091 0.7898,-0.101 0.999,0.2416 0.1051,0.1795 0.3292,0.4362 0.622,0.7357 0.3132,0.2957 0.6836,0.5927 1.0529,0.8874 0.4174,0.345 0.6561,0.6305 0.7695,0.645 0.1956,0.1148 0.1547,0.1403 -0.0352,0.113 -0.1306,0.028 -0.352,0.1401 -0.4185,0.1938 -0.0459,0.0505 -0.1086,0.1406 -0.1207,0.1588 -0.009,0.0218 -0.0198,0.0449 -0.0138,-0.0123 0.0175,-0.1269 0.0202,-0.3065 0.0144,-0.5415 v 0 c 9e-4,-0.4549 0.3704,-0.8228 0.8253,-0.8219 v 0 c 0.4548,9e-4 0.8228,0.3704 0.8218,0.8253 v 0 c -9e-4,0.4548 -0.3704,0.8228 -0.8252,0.8219 v 0 c -0.4549,-10e-4 -0.8229,-0.3705 -0.8219,-0.8253 0.0308,-0.6907 0.3996,-1.3379 0.7168,-1.7787 v 0 c 0.2772,-0.3746 0.8056,-0.4536 1.1802,-0.1763 v 0 c 0.3746,0.2772 0.4536,0.8056 0.1763,1.1802 v 0 c -0.2772,0.3746 -0.8056,0.4535 -1.1802,0.1763 v 0 c -0.3746,-0.2772 -0.4535,-0.8056 -0.1763,-1.1802 0.2166,-0.2894 0.4204,-0.5359 0.5658,-0.77 v 0 c 0.2445,-0.3934 0.7617,-0.5141 1.1551,-0.2696 v 0 c 0.3935,0.2445 0.5142,0.7617 0.2697,1.1551 v 0 c -0.2445,0.3934 -0.7617,0.5142 -1.1551,0.2696 v 0 c -0.3935,-0.2445 -0.5142,-0.7617 -0.2697,-1.1551 0.2415,-0.1791 0.4083,-0.2669 0.5135,-0.4471 v 0 c 0.0115,-0.2826 0.2499,-0.5023 0.5324,-0.4908 v 0 c 0.2826,0.0115 0.5023,0.2499 0.4908,0.5325 0.0805,0.4231 -0.005,0.9093 -0.1118,1.2906 -0.203,0.3266 -0.4432,0.6276 -0.6343,0.8889 -0.2941,0.3852 -0.455,0.5714 -0.4261,0.778 -0.007,0.2758 -0.0299,0.5788 -0.074,0.8107 -0.0248,0.1221 -0.0754,0.2939 -0.1345,0.4215 -0.0371,0.0709 -0.1274,0.2031 -0.2034,0.2836 -0.0972,0.084 -0.3517,0.2139 -0.518,0.246 -0.4296,-10e-5 -0.7478,-0.15 -0.8947,-0.2109 -0.4289,-0.2632 -0.7386,-0.6557 -1.0381,-0.9292 -0.3475,-0.324 -0.7391,-0.6889 -1.0718,-1.0545 -0.3216,-0.3293 -0.6374,-0.6949 -0.8239,-0.9933 -0.0974,-0.1627 -0.2016,-0.4315 -0.2212,-0.6748 0.009,-0.1484 0.1189,-0.4487 0.2418,-0.5996 0.1366,-0.1175 0.393,-0.2318 0.5278,-0.255 v 0 c 0.3984,-0.0521 0.7635,0.2286 0.8156,0.627 v 0 c 0.0521,0.3983 -0.2286,0.7634 -0.627,0.8155 z" /><path
           id="path248"
           style="fill:#1749b3;fill-opacity:1;fill-rule:nonzero;stroke:none"
           d="m 312.8622,708.258 c -0.2367,0.1375 -0.3406,0.2052 -0.3702,0.2353 v 0 c -0.2947,0.2703 -0.7528,0.2505 -1.0231,-0.0442 v 0 c -0.2704,-0.2947 -0.2506,-0.7528 0.0442,-1.0232 v 0 c 0.2947,-0.2703 0.7528,-0.2505 1.0231,0.0443 v 0 c 0.2704,0.2947 0.2506,0.7528 -0.0442,1.0231 -6e-4,-0.003 0.0937,-0.1413 0.1505,-0.2965 v 0 c -0.0809,0.3908 -0.4632,0.6421 -0.854,0.5612 v 0 c -0.3907,-0.0808 -0.642,-0.4631 -0.5612,-0.8539 v 0 c 0.0809,-0.3908 0.4632,-0.642 0.854,-0.5612 v 0 c 0.3907,0.0809 0.642,0.4632 0.5612,0.8539 -0.002,-0.2547 -0.2819,-0.6941 -0.3954,-0.7603 v 0 c 0.3674,0.1533 0.5411,0.5754 0.3878,0.9429 v 0 c -0.1532,0.3675 -0.5754,0.5411 -0.9428,0.3879 v 0 c -0.3675,-0.1533 -0.5412,-0.5754 -0.3879,-0.9429 v 0 c 0.1533,-0.3675 0.5754,-0.5411 0.9429,-0.3879 -0.1589,-0.008 0.1051,-0.0411 0.5674,-0.0852 1.0272,-0.1398 2.3359,-0.2256 3.3856,-0.3794 0.5407,-0.0667 1.0514,-0.1459 1.3933,-0.2275 0.2436,0.005 0.2849,0.0592 0.1143,0.2571 v 0 c 0.2197,-0.3041 0.6443,-0.3725 0.9484,-0.1528 v 0 c 0.3041,0.2197 0.3725,0.6443 0.1528,0.9484 v 0 c -0.2197,0.3041 -0.6443,0.3725 -0.9484,0.1528 v 0 c -0.3041,-0.2197 -0.3725,-0.6444 -0.1528,-0.9484 -0.0536,0.1283 -0.0703,0.5257 0.006,0.6821 v 0 c -0.1801,-0.3025 -0.0808,-0.6938 0.2217,-0.8738 v 0 c 0.3026,-0.1801 0.6938,-0.0808 0.8739,0.2218 v 0 c 0.18,0.3025 0.0807,0.6937 -0.2218,0.8738 v 0 c -0.3026,0.18 -0.6938,0.0807 -0.8738,-0.2218 0.0912,0.0937 0.2178,0.1754 0.2422,0.1739 v 0 c -0.2983,-0.1386 -0.4278,-0.4928 -0.2892,-0.7912 v 0 c 0.1386,-0.2983 0.4928,-0.4278 0.7912,-0.2892 v 0 c 0.2983,0.1386 0.4278,0.4928 0.2892,0.7912 v 0 c -0.1386,0.2983 -0.4929,0.4278 -0.7912,0.2892 0.0163,-0.0274 -0.009,-0.0618 -0.1335,-0.1094 v 0 c -0.2793,-0.0444 -0.4697,-0.3067 -0.4254,-0.586 v 0 c 0.0443,-0.2793 0.3067,-0.4698 0.586,-0.4254 0.1719,-6e-4 0.3448,0.015 0.4749,0.0404 0.0813,0.0249 0.2436,0.1335 0.3487,0.2501 0.0956,0.1884 0.076,0.6135 0.002,0.7705 -0.2515,0.3099 -0.5723,0.4822 -0.8577,0.6016 -0.4146,0.0815 -1.0015,0.158 -1.5692,0.2139 -1.1204,0.0858 -2.4429,0.0982 -3.4246,0.1599 -0.4541,0.0476 -0.8881,0.0931 -1.2659,-0.006 -0.1669,-0.0884 -0.4708,-0.5613 -0.4638,-0.8619 0.0665,-0.2026 0.2046,-0.4004 0.2843,-0.4775 0.1359,-0.1216 0.3486,-0.2666 0.6141,-0.4239 v 0 c 0.3464,-0.2034 0.7921,-0.0875 0.9955,0.2589 v 0 c 0.2034,0.3464 0.0875,0.7922 -0.2589,0.9956 z" /><path
           id="path250"
           style="fill:#1749b3;fill-opacity:1;fill-rule:nonzero;stroke:none"
           d="m 311.6894,705.4565 c 0.01,0.002 0.0525,-1.4571 0.0763,-1.4581 v 0 c 0.4048,0.0207 0.7162,0.3656 0.6955,0.7703 v 0 c -0.0207,0.4048 -0.3656,0.7162 -0.7704,0.6955 v 0 c -0.4047,-0.0207 -0.7161,-0.3656 -0.6954,-0.7703 v 0 c 0.0206,-0.4048 0.3655,-0.7162 0.7703,-0.6955 0.0304,-6e-4 0.0847,-2e-4 0.1626,8e-4 v 0 c 0.4086,0.017 0.726,0.362 0.709,0.7705 v 0 c -0.017,0.4085 -0.3619,0.7259 -0.7705,0.7089 v 0 c -0.4085,-0.0169 -0.7259,-0.3619 -0.7089,-0.7704 v 0 c 0.017,-0.4085 0.3619,-0.726 0.7704,-0.709 0.1566,0.002 0.3989,0.007 0.7036,0.0111 v 0 c 0.4158,0.012 0.7432,0.3589 0.7312,0.7748 v 0 c -0.012,0.4158 -0.3589,0.7432 -0.7748,0.7312 v 0 c -0.4158,-0.012 -0.7432,-0.3589 -0.7312,-0.7748 v 0 c 0.012,-0.4158 0.3589,-0.7432 0.7748,-0.7312 0.6106,0.009 1.4553,0.0173 2.3315,0.004 1.2135,-0.005 2.4378,-0.0495 3.1319,-0.1852 v 0 c 0.4205,-0.0809 0.827,0.1944 0.9079,0.615 v 0 c 0.0809,0.4205 -0.1945,0.8269 -0.615,0.9078 v 0 c -0.4205,0.0809 -0.827,-0.1944 -0.9079,-0.615 v 0 c -0.0808,-0.4205 0.1945,-0.827 0.615,-0.9078 0.2305,10e-4 0.3346,0.0178 0.3856,0.029 v 0 c 0.3037,-0.1848 0.6997,-0.0885 0.8846,0.2152 v 0 c 0.1848,0.3036 0.0885,0.6996 -0.2151,0.8845 v 0 c -0.3037,0.1849 -0.6997,0.0886 -0.8846,-0.2151 v 0 c -0.1849,-0.3037 -0.0885,-0.6997 0.2151,-0.8846 0.0185,0.0183 -0.0552,0.1282 -0.0795,0.2067 v 0 c 0.1233,-0.2944 0.4619,-0.4331 0.7562,-0.3098 v 0 c 0.2944,0.1233 0.4331,0.4619 0.3098,0.7563 v 0 c -0.1233,0.2943 -0.4619,0.433 -0.7563,0.3097 v 0 c -0.2943,-0.1233 -0.433,-0.4619 -0.3097,-0.7562 0.002,0.0927 0.041,0.3027 0.0731,0.3348 v 0 c -0.1395,-0.246 -0.0532,-0.5585 0.1928,-0.698 v 0 c 0.246,-0.1395 0.5585,-0.0532 0.698,0.1928 0.0897,0.1337 0.1364,0.4374 0.1017,0.6178 -0.0604,0.1646 -0.2151,0.3542 -0.3166,0.4456 -0.1891,0.1575 -0.4817,0.2947 -0.7622,0.3941 -0.8389,0.1591 -2.1769,0.2125 -3.4163,0.2207 -0.8956,-0.004 -1.7655,-0.0298 -2.3836,-0.0563 -0.3097,-0.0133 -0.5602,-0.0268 -0.7205,-0.0376 -0.0819,-0.006 -0.1427,-0.0106 -0.177,-0.0145 -0.0408,-0.004 -0.0124,-1.4649 0.0405,-1.4618 v 0 c 0.4016,0.0115 0.7177,0.3464 0.7062,0.748 v 0 c -0.0116,0.4016 -0.3465,0.7177 -0.7481,0.7061 z" /><path
           id="path252"
           style="fill:#1749b3;fill-opacity:1;fill-rule:nonzero;stroke:none"
           d="m 327.0548,708.33 c -0.1228,0.1978 -0.3172,0.4231 -0.5033,0.5268 v 0 c -0.2395,0.2031 -0.5982,0.1735 -0.8013,-0.066 v 0 c -0.203,-0.2395 -0.1734,-0.5983 0.0661,-0.8013 v 0 c 0.2395,-0.2031 0.5982,-0.1735 0.8013,0.066 v 0 c 0.203,0.2395 0.1734,0.5983 -0.0661,0.8013 -0.1317,0.1122 -0.4174,0.2127 -0.5965,0.2155 v 0 c -0.329,-0.0368 -0.5659,-0.3333 -0.5291,-0.6623 v 0 c 0.0368,-0.3289 0.3333,-0.5658 0.6623,-0.529 v 0 c 0.3289,0.0368 0.5658,0.3333 0.529,0.6622 v 0 c -0.0368,0.329 -0.3333,0.5658 -0.6622,0.5291 -0.1683,-0.0187 -0.3886,-0.1117 -0.5072,-0.1898 v 0 c -0.2712,-0.2181 -0.3143,-0.6148 -0.0962,-0.886 v 0 c 0.2181,-0.2712 0.6147,-0.3143 0.8859,-0.0963 v 0 c 0.2713,0.2181 0.3144,0.6148 0.0963,0.886 v 0 c -0.2181,0.2712 -0.6147,0.3143 -0.886,0.0963 -0.2105,-0.1535 -0.4297,-0.4183 -0.5954,-0.681 -0.3201,-0.5156 -0.636,-1.2959 -0.8522,-2.0773 -0.1924,-0.9109 -0.3454,-1.988 -0.2198,-2.8773 0.183,-0.8801 0.9163,-1.6369 1.6962,-1.9928 0.7698,-0.3294 1.7874,-0.4699 2.7006,-0.3916 1.1517,0.1048 2.2913,0.7526 2.8888,1.4845 0.6065,0.8147 0.6351,1.953 0.5117,2.4092 -0.0528,0.1263 -0.2215,0.3406 -0.3401,0.4296 -0.1213,0.0655 -0.3464,0.1242 -0.4594,0.1301 -0.1797,-0.0116 -0.4297,-0.0972 -0.5546,-0.1705 -0.2106,-0.1474 -0.4829,-0.5111 -0.5776,-0.8484 -0.078,-0.461 -0.002,-1.1069 0.1882,-1.6234 0.3454,-0.6997 1.0664,-1.1373 1.4987,-1.4129 0.941,-0.5929 2.1365,-0.9552 3.1931,-1.0276 1.0638,-0.0603 2.2222,0.1761 3.0295,0.6866 0.8923,0.6247 1.3937,1.8242 1.423,2.8698 0.0112,0.7835 -0.2481,1.6852 -0.5954,2.4061 -0.3709,0.7114 -0.9046,1.4166 -1.4051,1.8843 -0.2669,0.227 -0.6007,0.4496 -0.8864,0.5761 v 0 c -0.4505,0.2105 -0.9863,0.0159 -1.1968,-0.4345 v 0 c -0.2105,-0.4505 -0.016,-0.9864 0.4345,-1.1969 v 0 c 0.4505,-0.2105 0.9864,-0.016 1.1969,0.4345 v 0 c 0.2105,0.4505 0.0159,0.9864 -0.4346,1.1969 -0.3047,0.1234 -0.7904,0.1908 -1.1505,0.1086 v 0 c -0.4631,-0.1245 -0.7375,-0.6008 -0.613,-1.0639 v 0 c 0.1246,-0.4631 0.6009,-0.7375 1.064,-0.613 v 0 c 0.463,0.1246 0.7374,0.6009 0.6129,1.064 v 0 c -0.1245,0.463 -0.6008,0.7375 -1.0639,0.6129 -0.2625,-0.1494 -0.5799,-0.4738 -0.6831,-0.7516 v 0 c -0.1883,-0.3314 -0.0722,-0.7527 0.2593,-0.9409 v 0 c 0.3314,-0.1882 0.7527,-0.0721 0.9409,0.2593 v 0 c 0.1882,0.3314 0.0721,0.7527 -0.2593,0.9409 v 0 c -0.3315,0.1883 -0.7527,0.0722 -0.9409,-0.2593 -0.0658,-0.2491 -0.0951,-0.5871 -0.0587,-0.8975 v 0 c -0.0193,-0.2821 0.1939,-0.5264 0.476,-0.5457 v 0 c 0.2821,-0.0192 0.5264,0.194 0.5457,0.4761 0.0715,0.207 0.1459,0.258 0.2372,0.2856 0.0539,-10e-4 -0.0529,-0.1616 -0.0653,-0.2435 -0.0492,0.001 -0.1627,0.001 -0.0629,-0.0637 0.1175,-0.0619 0.2192,-0.1487 0.3906,-0.3218 0.3762,-0.3325 0.7303,-0.7897 1.0275,-1.3596 0.3208,-0.5601 0.5099,-1.0587 0.519,-1.5504 0.0261,-0.7349 -0.1269,-1.226 -0.6111,-1.5088 -0.5033,-0.3538 -1.1724,-0.482 -2.0281,-0.4222 -0.8629,0.0478 -1.6789,0.2901 -2.4167,0.7716 -0.4768,0.3062 -0.8654,0.4864 -0.8518,0.6362 -0.1367,0.322 -0.1701,0.5548 -0.1282,0.7277 -0.0312,-0.002 -0.1108,-0.1163 -0.1315,-0.1339 -0.0301,-0.009 -0.186,-0.059 -0.297,-0.0699 -0.0664,0.007 -0.2575,0.0572 -0.3511,0.1058 -0.0909,0.072 -0.2382,0.26 -0.2779,0.3499 0.0775,-0.1009 0.1414,-0.6606 -0.1967,-1.0413 -0.3887,-0.516 -1.0639,-0.9105 -1.9027,-0.953 -0.7538,-0.0448 -1.425,0.0707 -1.9736,0.3504 -0.5385,0.2532 -0.7532,0.4589 -0.7561,0.8675 -0.0932,0.6279 0.0491,1.4437 0.2473,2.2998 0.1139,0.7117 0.2895,1.3407 0.4795,1.7747 0.0895,0.2128 0.1301,0.308 0.1665,0.3536 0.004,0.0206 -0.0959,-0.0133 -0.1519,-0.0198 -0.0625,0.0157 -0.2392,0.0824 -0.2699,0.1089 -0.0509,-0.0109 -0.1241,0.007 -0.1449,-0.1093 v 0 c 0.1241,-0.382 0.5345,-0.5911 0.9166,-0.467 v 0 c 0.382,0.1241 0.5911,0.5345 0.467,0.9166" /><path
           id="path254"
           style="fill:#000000;fill-opacity:1;fill-rule:nonzero;stroke:none"
           d="m 328.9775,538.5161 c 0.0674,0.0493 -0.0165,-0.0188 0.216,-0.1828 v 0 c 0.4299,-0.1963 0.9375,-0.007 1.1339,0.423 v 0 c 0.1963,0.4299 0.007,0.9375 -0.4229,1.1339 v 0 c -0.4299,0.1963 -0.9376,0.007 -1.134,-0.4229 v 0 c -0.1963,-0.4299 -0.007,-0.9376 0.423,-1.134 0.4382,-0.2065 1.0044,-0.7726 1.6567,-1.4247 v 0 c 0.3672,-0.3506 0.949,-0.3372 1.2996,0.03 v 0 c 0.3506,0.3671 0.3372,0.949 -0.03,1.2996 v 0 c -0.3671,0.3506 -0.949,0.3371 -1.2996,-0.03 v 0 c -0.3506,-0.3672 -0.3371,-0.949 0.03,-1.2996 0.5925,-0.5481 1.2354,-1.1541 1.8396,-1.5491 v 0 c 0.4042,-0.2706 0.9513,-0.1624 1.2219,0.2418 v 0 c 0.2706,0.4042 0.1624,0.9512 -0.2418,1.2219 v 0 c -0.4042,0.2706 -0.9512,0.1624 -1.2219,-0.2418 v 0 c -0.2706,-0.4042 -0.1623,-0.9513 0.2418,-1.2219 0.309,-0.0998 0.6701,-0.1846 0.9702,-0.1763 v 0 c 0.3302,-0.0849 0.6666,0.114 0.7515,0.4442 v 0 c 0.0848,0.3302 -0.1141,0.6666 -0.4442,0.7515 -0.0937,0.1094 -0.1581,0.2439 -0.2973,0.4442 -0.4417,0.3055 -0.968,0.8412 -1.5501,1.415 -0.6901,0.6297 -1.4733,1.319 -2.2151,1.6519 -0.5057,0.1731 -1.2613,0.1625 -1.7568,-0.1788 v 0 c -0.33,-0.2291 -0.4119,-0.6823 -0.1828,-1.0123 v 0 c 0.2291,-0.3301 0.6823,-0.4119 1.0123,-0.1828 z" /><path
           id="path256"
           style="fill:#000000;fill-opacity:1;fill-rule:nonzero;stroke:none"
           d="m 333.2406,539.352 c -0.4579,-0.0641 -0.9844,-0.2818 -1.4302,-0.5445 v 0 c -0.3785,-0.2611 -0.4736,-0.7797 -0.2125,-1.1582 v 0 c 0.2611,-0.3785 0.7797,-0.4736 1.1582,-0.2125 v 0 c 0.3785,0.2611 0.4736,0.7797 0.2125,1.1582 v 0 c -0.2611,0.3785 -0.7797,0.4736 -1.1582,0.2125 -0.439,-0.2693 -0.9056,-0.6398 -1.3211,-1.0209 v 0 c -0.3559,-0.3626 -0.3504,-0.945 0.0122,-1.3009 v 0 c 0.3626,-0.3558 0.945,-0.3504 1.3008,0.0122 v 0 c 0.3559,0.3626 0.3504,0.9451 -0.0122,1.3009 v 0 c -0.3626,0.3559 -0.945,0.3504 -1.3008,-0.0122 -0.3129,-0.2861 -0.6305,-0.6101 -0.9161,-0.924 v 0 c -0.3449,-0.4242 -0.2805,-1.0477 0.1437,-1.3925 v 0 c 0.4242,-0.3449 1.0476,-0.2806 1.3925,0.1436 v 0 c 0.3449,0.4242 0.2805,1.0477 -0.1437,1.3925 v 0 c -0.4242,0.3449 -1.0476,0.2806 -1.3925,-0.1436 -0.273,-0.3253 -0.5406,-0.6729 -0.771,-0.9957 v 0 c -0.3161,-0.46 -0.1994,-1.0891 0.2605,-1.4052 v 0 c 0.46,-0.3161 1.0892,-0.1994 1.4053,0.2606 v 0 c 0.3161,0.4599 0.1994,1.0891 -0.2606,1.4052 v 0 c -0.46,0.3161 -1.0891,0.1994 -1.4052,-0.2606 -0.1984,-0.346 -0.3824,-0.7007 -0.5214,-1.0135 v 0 c -0.2472,-0.4402 -0.0906,-0.9975 0.3497,-1.2446 v 0 c 0.4403,-0.2472 0.9975,-0.0906 1.2447,0.3497 v 0 c 0.2471,0.4402 0.0906,0.9975 -0.3497,1.2447 v 0 c -0.4403,0.2471 -0.9976,0.0905 -1.2447,-0.3498 -0.0489,-0.3618 -0.0719,-0.7171 -0.0385,-1.0047 v 0 c -0.1004,-0.2644 0.0326,-0.5601 0.297,-0.6604 v 0 c 0.2644,-0.1004 0.56,0.0326 0.6604,0.297 0.1934,0.134 0.414,0.2816 0.6757,0.4735 0.1711,0.2399 0.3642,0.4881 0.5927,0.7637 0.1962,0.2981 0.4051,0.5901 0.6413,0.8913 0.2237,0.3124 0.448,0.6016 0.6931,0.8843 0.3279,0.3765 0.6331,0.6844 0.9533,0.9385 0.314,0.2616 0.5349,0.4134 0.772,0.4893 v 0 c 0.3939,0.0793 0.6488,0.4629 0.5695,0.8567 v 0 c -0.0794,0.3938 -0.4629,0.6487 -0.8567,0.5694 z" /><path
           id="path258"
           style="fill:#000000;fill-opacity:1;fill-rule:nonzero;stroke:none"
           d="m 277.5354,590.2407 c 0.0278,0.2921 -0.0316,0.6506 -0.1661,0.8821 v 0 c -0.168,0.2977 -0.5455,0.4028 -0.8431,0.2348 v 0 c -0.2977,-0.168 -0.4028,-0.5455 -0.2348,-0.8431 v 0 c 0.168,-0.2977 0.5455,-0.4028 0.8431,-0.2348 v 0 c 0.2977,0.168 0.4028,0.5455 0.2348,0.8431 -1.136,-0.1219 -1.1608,-0.2117 -1.1723,-0.2598 v 0 c -0.0554,-0.3434 0.178,-0.6667 0.5215,-0.7221 v 0 c 0.3434,-0.0554 0.6667,0.1781 0.7221,0.5215 v 0 c 0.0554,0.3434 -0.1781,0.6667 -0.5215,0.7221 v 0 c -0.3434,0.0554 -0.6667,-0.1781 -0.7221,-0.5215 -0.0109,-0.0445 -0.0241,-0.1118 -0.0371,-0.1873 v 0 c -0.0431,-0.3513 0.2068,-0.671 0.5581,-0.7141 v 0 c 0.3513,-0.043 0.671,0.2068 0.7141,0.5581 v 0 c 0.0431,0.3513 -0.2068,0.6711 -0.5581,0.7141 v 0 c -0.3513,0.0431 -0.671,-0.2068 -0.7141,-0.5581 -0.0255,-0.1486 -0.0547,-0.3675 -0.0759,-0.6066 -0.0413,-0.4748 -0.0496,-1.1292 0.0607,-1.6551 0.1479,-0.4723 0.5613,-0.9089 0.922,-1.1044 0.3665,-0.1796 0.8682,-0.272 1.2421,-0.2394 0.2055,0.0264 0.6127,0.134 0.9114,0.3971 0.4042,0.4289 0.6463,1.0714 0.8127,1.5005 0.1253,0.2735 0.2201,0.533 0.2852,0.6932 0.0326,0.0803 0.054,0.1235 0.0676,0.1336 0.003,-0.003 -0.0239,-0.0677 -0.0597,-0.1331 -0.1009,-0.1169 -0.8121,-0.2819 -1.142,-0.0919 -0.1094,0.163 -0.1651,0.3227 -0.1658,0.2956 0.004,-0.0395 0.001,-0.0956 -0.006,-0.2027 -0.0133,-0.2176 -0.0463,-0.5204 -0.0576,-0.827 v 0 c -0.0127,-0.4286 0.3244,-0.7863 0.7529,-0.799 v 0 c 0.4285,-0.0127 0.7862,0.3243 0.799,0.7529 v 0 c 0.0127,0.4285 -0.3244,0.7862 -0.7529,0.7989 v 0 c -0.4285,0.0128 -0.7862,-0.3243 -0.799,-0.7528 -0.0347,-1.36 -0.003,-2.6561 -0.3796,-3.178 v 0 c -0.2233,-0.3553 -0.1162,-0.8243 0.2391,-1.0475 v 0 c 0.3553,-0.2232 0.8243,-0.1162 1.0475,0.2391 v 0 c 0.2232,0.3553 0.1162,0.8243 -0.2391,1.0475 v 0 c -0.3553,0.2233 -0.8243,0.1162 -1.0475,-0.2391 -0.2006,-0.4396 -0.6993,-0.556 -1.2228,-0.5022 v 0 c -0.4061,0.0349 -0.7637,-0.266 -0.7987,-0.6722 v 0 c -0.0349,-0.4062 0.266,-0.7638 0.6722,-0.7987 v 0 c 0.4062,-0.035 0.7638,0.266 0.7987,0.6721 v 0 c 0.0349,0.4062 -0.266,0.7638 -0.6722,0.7988 -0.2138,-0.0603 -0.3421,-0.1026 -0.4808,-0.0955 v 0 c -0.2387,0.1517 -0.5551,0.0813 -0.7069,-0.1573 v 0 c -0.1517,-0.2387 -0.0812,-0.5551 0.1574,-0.7069 0.2171,-0.2191 0.5763,-0.4043 0.9037,-0.5112 0.83,-0.0627 2.0216,0.3073 2.636,1.1647 0.5866,1.0109 0.5997,2.6095 0.6449,3.9403 0.005,0.2475 0.0332,0.5286 0.0461,0.7879 0.006,0.1316 0.008,0.2869 -0.002,0.4156 -0.0147,0.1409 -0.103,0.4248 -0.2686,0.6462 -0.3448,0.2051 -1.0673,0.036 -1.1759,-0.0915 -0.0535,-0.0899 -0.0948,-0.1856 -0.1076,-0.2305 -0.0185,-0.0751 -0.0364,-0.1637 -0.053,-0.2496 -0.033,-0.1712 -0.0761,-0.3804 -0.1499,-0.6124 -0.1787,-0.4466 -0.3229,-0.8736 -0.5135,-1.0235 -0.01,-0.0368 0.0653,0.0216 -0.1125,0.009 -0.1588,-0.0216 -0.2868,0.004 -0.4547,0.1047 -0.1729,0.0846 -0.1978,0.0903 -0.1991,0.2124 -0.1056,0.3349 -0.1186,0.805 -0.1083,1.2356 0.005,0.2136 0.0154,0.3923 0.0244,0.5262 0.004,0.0657 0.007,0.1112 0.009,0.1428 7e-4,0.0277 -0.0156,-0.0221 -1.1482,-0.1499 -0.0735,0.1234 -0.106,0.1441 -0.1671,0.0857 v 0 c -0.0988,-0.3894 0.1368,-0.7852 0.5262,-0.8839 v 0 c 0.3894,-0.0988 0.7852,0.1368 0.8839,0.5262 z" /></g></g></g></svg>