<?xml version="1.0" encoding="UTF-8" standalone="no"?>
<svg
   xmlns:dc="http://purl.org/dc/elements/1.1/"
   xmlns:cc="http://creativecommons.org/ns#"
   xmlns:rdf="http://www.w3.org/1999/02/22-rdf-syntax-ns#"
   xmlns:svg="http://www.w3.org/2000/svg"
   xmlns="http://www.w3.org/2000/svg"
   viewBox="0 0 642.45728 280.10361"
   height="280.10361"
   width="642.45728"
   xml:space="preserve"
   id="svg2"
   version="1.1"><metadata
     id="metadata8"><rdf:RDF><cc:Work
         rdf:about=""><dc:format>image/svg+xml</dc:format><dc:type
           rdf:resource="http://purl.org/dc/dcmitype/StillImage" /></cc:Work></rdf:RDF></metadata><defs
     id="defs6"><clipPath
       id="clipPath14"
       clipPathUnits="userSpaceOnUse"><path
         id="path12"
         d="M 0,0 H 612 V 792 H 0 Z" /></clipPath><clipPath
       id="clipPath24"
       clipPathUnits="userSpaceOnUse"><path
         id="path22"
         d="M 0,0 H 612 V 792 H 0 Z" /></clipPath><clipPath
       id="clipPath46"
       clipPathUnits="userSpaceOnUse"><path
         id="path44"
         d="m 59.14286,72 h 493.7143 V 720 H 59.14286 Z" /></clipPath><clipPath
       id="clipPath56"
       clipPathUnits="userSpaceOnUse"><path
         id="path54"
         d="M 0,0 H 612 V 792 H 0 Z" /></clipPath><clipPath
       id="clipPath66"
       clipPathUnits="userSpaceOnUse"><path
         id="path64"
         d="m 59.14286,72 h 493.7143 V 720 H 59.14286 Z" /></clipPath><clipPath
       id="clipPath76"
       clipPathUnits="userSpaceOnUse"><path
         id="path74"
         d="M 0,0 H 612 V 792 H 0 Z" /></clipPath><clipPath
       id="clipPath86"
       clipPathUnits="userSpaceOnUse"><path
         id="path84"
         d="m 59.14286,72 h 493.7143 V 720 H 59.14286 Z" /></clipPath><clipPath
       id="clipPath100"
       clipPathUnits="userSpaceOnUse"><path
         id="path98"
         d="M 0,0 H 612 V 792 H 0 Z" /></clipPath><clipPath
       id="clipPath110"
       clipPathUnits="userSpaceOnUse"><path
         id="path108"
         d="m 59.14286,72 h 493.7143 V 720 H 59.14286 Z" /></clipPath><clipPath
       id="clipPath120"
       clipPathUnits="userSpaceOnUse"><path
         id="path118"
         d="M 0,0 H 612 V 792 H 0 Z" /></clipPath><clipPath
       id="clipPath130"
       clipPathUnits="userSpaceOnUse"><path
         id="path128"
         d="m 59.14286,72 h 493.7143 V 720 H 59.14286 Z" /></clipPath><clipPath
       id="clipPath140"
       clipPathUnits="userSpaceOnUse"><path
         id="path138"
         d="M 0,0 H 612 V 792 H 0 Z" /></clipPath><clipPath
       id="clipPath150"
       clipPathUnits="userSpaceOnUse"><path
         id="path148"
         d="m 59.14286,72 h 493.7143 V 720 H 59.14286 Z" /></clipPath><clipPath
       id="clipPath164"
       clipPathUnits="userSpaceOnUse"><path
         id="path162"
         d="M 0,0 H 612 V 792 H 0 Z" /></clipPath><clipPath
       id="clipPath174"
       clipPathUnits="userSpaceOnUse"><path
         id="path172"
         d="m 59.14286,72 h 493.7143 V 720 H 59.14286 Z" /></clipPath></defs><g
     clip-path="url(#clipPath14)"
     transform="matrix(1.3333333,0,0,-1.3333333,-83.47872,894.73773)"
     id="g10"><g
       id="g16" /><g
       id="g18"><g
         clip-path="url(#clipPath24)"
         id="g20"><g
           transform="matrix(0.8456908,0,0,0.8456908,72,720)"
           id="g26" /><g
           transform="matrix(0.8456908,0,0,0.8456908,72,720)"
           id="g28"><text
             id="text32"
             style="font-variant:normal;font-weight:normal;font-size:17px;writing-mode:lr-tb;fill:#000000;fill-opacity:0;fill-rule:nonzero;stroke:none"
             transform="matrix(1,0,0,-1,199.2942,-164.1184)"><tspan
               id="tspan30"
               y="0"
               x="0">V</tspan></text>
</g><g
           transform="matrix(0.8456908,0,0,0.8456908,72,720)"
           id="g34"><text
             id="text38"
             style="font-variant:normal;font-weight:normal;font-size:18px;writing-mode:lr-tb;fill:#000000;fill-opacity:0;fill-rule:nonzero;stroke:none"
             transform="matrix(1,0,0,-1,490.2639,-165.594)"><tspan
               id="tspan36"
               y="0"
               x="0">V</tspan></text>
</g></g></g><g
       id="g40"><g
         clip-path="url(#clipPath46)"
         id="g42"><path
           id="path48"
           style="fill:#000000;fill-opacity:1;fill-rule:nonzero;stroke:none"
           d="m 64.70282,565.4908 c -0.53256,0 -0.96429,0.4318 -0.96429,0.9643 0,0.5326 0.43173,0.9643 0.96429,0.9643 H 284.1508 c 0.5326,0 0.9643,-0.4317 0.9643,-0.9643 0,-0.5325 -0.4317,-0.9643 -0.9643,-0.9643 z" /></g></g><g
       id="g50"><g
         clip-path="url(#clipPath56)"
         id="g52"><path
           id="path58"
           style="fill:#000000;fill-opacity:1;fill-rule:nonzero;stroke:none"
           d="m 284.1508,571.9653 12.6735,-5.5102 -12.6735,-5.5102 z" /></g></g><g
       id="g60"><g
         clip-path="url(#clipPath66)"
         id="g62"><path
           id="path68"
           style="fill:#000000;fill-opacity:1;fill-rule:nonzero;stroke:none"
           d="m 181.2457,462.8961 c 0,-0.5325 -0.4317,-0.9642 -0.9643,-0.9642 -0.5326,0 -0.9643,0.4317 -0.9643,0.9642 v 195.4088 c 0,0.5326 0.4317,0.9643 0.9643,0.9643 0.5326,0 0.9643,-0.4317 0.9643,-0.9643 z" /></g></g><g
       id="g70"><g
         clip-path="url(#clipPath76)"
         id="g72"><path
           id="path78"
           style="fill:#000000;fill-opacity:1;fill-rule:nonzero;stroke:none"
           d="m 174.7712,658.3049 5.5102,12.6735 5.5102,-12.6735 z" /></g></g><g
       id="g80"><g
         clip-path="url(#clipPath86)"
         id="g82"><path
           id="path88"
           style="fill:#000000;fill-opacity:1;fill-rule:nonzero;stroke:none"
           d="m 203.9942,566.4551 c 0,-8.7403 -4.7287,-16.3764 -11.7677,-20.4887 -3.5078,-2.0493 -7.5893,-3.2241 -11.9451,-3.2241 -8.7403,0 -16.3764,4.7287 -20.4887,11.7677 -2.0494,3.5078 -3.2241,7.5893 -3.2241,11.9451 0,8.7403 4.7287,16.3764 11.7677,20.4887 3.5078,2.0494 7.5892,3.2241 11.9451,3.2241 8.7403,0 16.3764,-4.7287 20.4887,-11.7677 2.0494,-3.5078 3.2241,-7.5892 3.2241,-11.9451 m -1.9286,0 c 0,4.001 -1.0783,7.7501 -2.9607,10.9723 -3.7781,6.4669 -10.7933,10.812 -18.8235,10.812 -4.001,0 -7.7501,-1.0784 -10.9723,-2.9608 -6.4669,-3.7781 -10.8119,-10.7933 -10.8119,-18.8235 0,-4.0009 1.0783,-7.7501 2.9607,-10.9723 3.7781,-6.4669 10.7933,-10.8119 18.8235,-10.8119 4.0009,0 7.7501,1.0783 10.9723,2.9607 6.4669,3.7781 10.8119,10.7933 10.8119,18.8235" /><path
           id="path90"
           style="fill:#000000;fill-opacity:1;fill-rule:nonzero;stroke:none"
           d="m 226.8284,566.4551 c 0,-17.1572 -9.2826,-32.1464 -23.1,-40.2188 -6.8856,-4.0227 -14.897,-6.3282 -23.447,-6.3282 -17.1572,0 -32.1464,9.2826 -40.2188,23.1 -4.0227,6.8856 -6.3282,14.897 -6.3282,23.447 0,17.1572 9.2826,32.1465 23.1,40.2188 6.8856,4.0227 14.897,6.3282 23.447,6.3282 17.1572,0 32.1464,-9.2826 40.2188,-23.1 4.0227,-6.8856 6.3282,-14.897 6.3282,-23.447 m -1.9286,0 c 0,8.1951 -2.209,15.8743 -6.0648,22.4741 -7.7381,13.2454 -22.1065,22.1444 -38.5536,22.1444 -8.1951,0 -15.8743,-2.2091 -22.4741,-6.0649 -13.2453,-7.7381 -22.1444,-22.1065 -22.1444,-38.5536 0,-8.1951 2.2091,-15.8743 6.0649,-22.4741 7.7381,-13.2453 22.1065,-22.1443 38.5536,-22.1443 8.1951,0 15.8743,2.209 22.4741,6.0648 13.2453,7.7382 22.1443,22.1066 22.1443,38.5536" /><path
           id="path92"
           style="fill:#ed3624;fill-opacity:1;fill-rule:nonzero;stroke:none"
           d="m 213.9262,595.7801 c -0.4092,0.3408 -0.4647,0.9488 -0.1239,1.358 0.3408,0.4093 0.9488,0.4648 1.358,0.124 l 26.367,-21.956 c 0.4093,-0.3408 0.4648,-0.9488 0.124,-1.3581 -0.3408,-0.4092 -0.9488,-0.4647 -1.3581,-0.1239 z" /></g></g><g
       id="g94"><g
         clip-path="url(#clipPath100)"
         id="g96"><path
           id="path102"
           style="fill:#ed3624;fill-opacity:1;fill-rule:nonzero;stroke:none"
           d="m 244.4365,578.7992 6.213,-12.3441 -13.265,3.8754 z" /></g></g><g
       id="g104"><g
         clip-path="url(#clipPath110)"
         id="g106"><path
           id="path112"
           style="fill:#000000;fill-opacity:1;fill-rule:nonzero;stroke:none"
           d="m 311.56,565.4908 c -0.5326,0 -0.9643,0.4318 -0.9643,0.9643 0,0.5326 0.4317,0.9643 0.9643,0.9643 h 219.4479 c 0.5326,0 0.9643,-0.4317 0.9643,-0.9643 0,-0.5325 -0.4317,-0.9643 -0.9643,-0.9643 z" /></g></g><g
       id="g114"><g
         clip-path="url(#clipPath120)"
         id="g116"><path
           id="path122"
           style="fill:#000000;fill-opacity:1;fill-rule:nonzero;stroke:none"
           d="m 531.0079,571.9653 12.6735,-5.5102 -12.6735,-5.5102 z" /></g></g><g
       id="g124"><g
         clip-path="url(#clipPath130)"
         id="g126"><path
           id="path132"
           style="fill:#000000;fill-opacity:1;fill-rule:nonzero;stroke:none"
           d="m 428.1028,462.8961 c 0,-0.5325 -0.4317,-0.9642 -0.9643,-0.9642 -0.5325,0 -0.9642,0.4317 -0.9642,0.9642 v 195.4088 c 0,0.5326 0.4317,0.9643 0.9642,0.9643 0.5326,0 0.9643,-0.4317 0.9643,-0.9643 z" /></g></g><g
       id="g134"><g
         clip-path="url(#clipPath140)"
         id="g136"><path
           id="path142"
           style="fill:#000000;fill-opacity:1;fill-rule:nonzero;stroke:none"
           d="m 421.6283,658.3049 5.5102,12.6735 5.5102,-12.6735 z" /></g></g><g
       id="g144"><g
         clip-path="url(#clipPath150)"
         id="g146"><path
           id="path152"
           style="fill:#000000;fill-opacity:1;fill-rule:nonzero;stroke:none"
           d="m 450.8514,566.4551 c 0,-8.7403 -4.7287,-16.3764 -11.7677,-20.4887 -3.5079,-2.0493 -7.5893,-3.2241 -11.9452,-3.2241 -8.7403,0 -16.3763,4.7287 -20.4887,11.7677 -2.0493,3.5078 -3.2241,7.5893 -3.2241,11.9451 0,8.7403 4.7287,16.3764 11.7677,20.4887 3.5079,2.0494 7.5893,3.2241 11.9451,3.2241 8.7404,0 16.3764,-4.7287 20.4887,-11.7677 2.0494,-3.5078 3.2242,-7.5892 3.2242,-11.9451 m -1.9286,0 c 0,4.001 -1.0783,7.7501 -2.9608,10.9723 -3.7781,6.4669 -10.7932,10.812 -18.8235,10.812 -4.0009,0 -7.7501,-1.0784 -10.9722,-2.9608 -6.4669,-3.7781 -10.812,-10.7933 -10.812,-18.8235 0,-4.0009 1.0783,-7.7501 2.9608,-10.9723 3.7781,-6.4669 10.7932,-10.8119 18.8234,-10.8119 4.001,0 7.7501,1.0783 10.9723,2.9607 6.4669,3.7781 10.812,10.7933 10.812,18.8235" /><path
           id="path154"
           style="fill:#000000;fill-opacity:1;fill-rule:nonzero;stroke:none"
           d="m 473.6856,566.4551 c 0,-17.1572 -9.2827,-32.1464 -23.1001,-40.2188 -6.8855,-4.0227 -14.897,-6.3282 -23.447,-6.3282 -17.1571,0 -32.1464,9.2826 -40.2188,23.1 -4.0227,6.8856 -6.3282,14.897 -6.3282,23.447 0,17.1572 9.2827,32.1465 23.1001,40.2188 6.8855,4.0227 14.897,6.3282 23.4469,6.3282 17.1572,0 32.1465,-9.2826 40.2189,-23.1 4.0226,-6.8856 6.3282,-14.897 6.3282,-23.447 m -1.9286,0 c 0,8.1951 -2.2091,15.8743 -6.0648,22.4741 -7.7382,13.2454 -22.1066,22.1444 -38.5537,22.1444 -8.195,0 -15.8742,-2.2091 -22.4741,-6.0649 -13.2453,-7.7381 -22.1443,-22.1065 -22.1443,-38.5536 0,-8.1951 2.2091,-15.8743 6.0648,-22.4741 7.7382,-13.2453 22.1066,-22.1443 38.5536,-22.1443 8.1951,0 15.8743,2.209 22.4742,6.0648 13.2453,7.7382 22.1443,22.1066 22.1443,38.5536" /><path
           id="path156"
           style="fill:#ed3624;fill-opacity:1;fill-rule:nonzero;stroke:none"
           d="m 464.8271,591.2914 c -0.5296,-0.0561 -1.0044,0.3277 -1.0605,0.8573 -0.0561,0.5296 0.3278,1.0044 0.8574,1.0605 12.9194,1.3683 20.1477,-6.5369 21.4993,-23.2315 0.043,-0.5308 -0.3525,-0.996 -0.8833,-1.0389 -0.5309,-0.043 -0.996,0.3525 -1.039,0.8833 -1.2722,15.714 -7.6683,22.709 -19.3739,21.4693" /></g></g><g
       id="g158"><g
         clip-path="url(#clipPath164)"
         id="g160"><path
           id="path166"
           style="fill:#ed3624;fill-opacity:1;fill-rule:nonzero;stroke:none"
           d="m 490.6723,569.9115 -5.4841,-12.6848 -5.5362,12.6621 z" /></g></g><g
       id="g168"><g
         clip-path="url(#clipPath174)"
         id="g170"><path
           id="path176"
           style="fill:#ed3624;fill-opacity:1;fill-rule:nonzero;stroke:none"
           d="m 241.4377,592.1239 c 0.0848,0.3553 0.114,0.7741 0.1447,1.0228 v 0 c 0.062,0.3793 -0.1951,0.737 -0.5743,0.7991 v 0 c -0.3793,0.0621 -0.7371,-0.195 -0.7991,-0.5742 v 0 c -0.0621,-0.3793 0.195,-0.7371 0.5742,-0.7992 v 0 c 0.3793,-0.0621 0.7371,0.1951 0.7992,0.5743 0.1044,0.1322 0.1986,0.2165 0.2885,0.2294 v 0 c 0.1331,0.5023 -0.1662,1.0176 -0.6686,1.1507 v 0 c -0.5024,0.1332 -1.0176,-0.1661 -1.1507,-0.6685 v 0 c -0.1332,-0.5024 0.1661,-1.0176 0.6685,-1.1508 v 0 c 0.5024,-0.1331 1.0176,0.1662 1.1508,0.6686 0.0392,-0.008 0.0269,-0.1433 -0.0109,-0.2866 v 0 c 0.3465,0.4744 0.2428,1.1399 -0.2316,1.4864 v 0 c -0.4744,0.3464 -1.1399,0.2427 -1.4863,-0.2317 v 0 c -0.3465,-0.4744 -0.2428,-1.1398 0.2316,-1.4863 v 0 c 0.4744,-0.3465 1.1398,-0.2428 1.4863,0.2316 -0.049,-0.0913 -0.2864,-0.3092 -0.4746,-0.4183 -0.2268,-0.0698 -0.6988,-0.042 -0.8821,0.0117 -0.224,0.1641 -0.4126,0.3971 -0.4232,0.3959 0.003,-0.016 0.004,-0.0438 0.0232,-0.1499 0.0419,-0.2172 0.0902,-0.5473 0.1691,-0.8758 0.4176,-1.503 0.9996,-2.8549 1.5994,-4.2191 0.2559,-0.5792 0.5128,-1.2062 0.7289,-1.7147 0.0993,-0.2379 0.1957,-0.4563 0.2853,-0.6491 0.099,-0.2111 0.246,-0.5231 0.4378,-0.8004 0.152,-0.2048 0.594,-0.5469 0.9803,-0.6806 0.4188,-0.0514 1.0936,0.134 1.3708,0.32 1.0098,0.9115 2.0373,3.3383 2.9588,5.3406 0.4061,0.9115 0.7915,1.7559 1.1161,2.4455 0.1154,0.2613 0.211,0.5069 0.2878,0.7006 v 0 c 0.3123,0.7109 -0.0107,1.5404 -0.7216,1.8528 v 0 c -0.7109,0.3123 -1.5404,-0.0107 -1.8528,-0.7216 v 0 c -0.3123,-0.7109 0.0107,-1.5404 0.7216,-1.8528 v 0 c 0.7109,-0.3123 1.5404,0.0107 1.8528,0.7216 0.0632,0.1988 0.0898,0.3131 0.1186,0.3987 v 0 c 0.382,0.6339 0.1778,1.4574 -0.4561,1.8393 v 0 c -0.6338,0.382 -1.4573,0.1778 -1.8393,-0.456 v 0 c -0.382,-0.6339 -0.1778,-1.4574 0.456,-1.8394 v 0 c 0.6339,-0.3819 1.4574,-0.1778 1.8394,0.4561 -0.0331,0.159 -0.38,0.0291 -0.5821,0.0432 v 0 c 0.5664,0.0583 0.9783,0.5647 0.9199,1.1311 v 0 c -0.0583,0.5664 -0.5647,0.9783 -1.1311,0.9199 v 0 c -0.5664,-0.0583 -0.9783,-0.5647 -0.9199,-1.1311 v 0 c 0.0583,-0.5664 0.5647,-0.9783 1.1311,-0.9199 -0.0471,0.1739 -0.114,0.354 -0.0488,0.5123 v 0 c 0.2709,-0.0811 0.5563,0.0728 0.6374,0.3437 v 0 c 0.0811,0.2709 -0.0728,0.5562 -0.3437,0.6373 -0.0824,0.2025 -0.2842,0.3966 -0.4561,0.5577 -0.5765,-0.0245 -1.207,-0.435 -1.5021,-0.7109 -0.146,-0.2043 -0.2846,-0.4485 -0.3976,-0.6508 -0.0994,-0.2074 -0.191,-0.4054 -0.2945,-0.6043 -0.3385,-0.7047 -0.7419,-1.5734 -1.159,-2.4941 -0.9055,-2.0642 -1.7601,-4.2306 -2.0585,-4.3662 0.1099,0.052 0.6318,0.1924 0.9089,0.1708 0.2441,-0.1038 0.555,-0.3412 0.5835,-0.3805 -0.027,0.0155 -0.0805,0.1357 -0.1952,0.3645 -0.0833,0.1635 -0.1619,0.3261 -0.257,0.5372 -0.2148,0.4866 -0.4855,1.1273 -0.7627,1.7367 -0.6172,1.3491 -1.1482,2.5148 -1.5346,3.8483 -0.0701,0.1972 -0.1332,0.4817 -0.2171,0.7747 -0.0432,0.149 -0.1095,0.3502 -0.1829,0.5131 -0.0871,0.1774 -0.3624,0.539 -0.6899,0.7573 -0.2035,0.0643 -0.6944,0.0941 -0.9383,0.0184 -0.2062,-0.1151 -0.4597,-0.3468 -0.5238,-0.4588 -0.068,-0.1846 -0.1062,-0.3892 -0.0906,-0.486 0.0427,-0.1653 0.0987,-0.3397 0.1575,-0.4866 -0.0598,-0.3039 -0.0998,-0.6513 -0.1718,-0.8539 v 0 c -0.1087,-0.3867 0.1166,-0.7884 0.5034,-0.8971 v 0 c 0.3867,-0.1088 0.7884,0.1166 0.8971,0.5033" /><path
           id="path178"
           style="fill:#ed3624;fill-opacity:1;fill-rule:nonzero;stroke:none"
           d="m 488.4712,593.3148 c -0.0684,0.1553 -0.05,0.1245 -0.0222,-0.0428 v 0 c 0.0285,0.416 -0.2857,0.7762 -0.7017,0.8047 v 0 c -0.416,0.0284 -0.7763,-0.2858 -0.8047,-0.7018 v 0 c -0.0285,-0.416 0.2857,-0.7762 0.7017,-0.8047 v 0 c 0.416,-0.0284 0.7763,0.2858 0.8047,0.7018 -0.0583,-0.2366 -0.7567,-0.6839 -0.9931,-0.6463 v 0 c 0.3972,-0.15 0.8408,0.0504 0.9909,0.4476 v 0 c 0.15,0.3971 -0.0504,0.8407 -0.4476,0.9908 v 0 c -0.3972,0.15 -0.8408,-0.0504 -0.9908,-0.4476 v 0 c -0.15,-0.3971 0.0504,-0.8408 0.4475,-0.9908 -0.1141,0.0531 -0.2057,0.1153 -0.2071,0.1085 v 0 c 0.3036,-0.3075 0.7991,-0.3107 1.1067,-0.007 v 0 c 0.3075,0.3037 0.3107,0.7992 0.007,1.1067 v 0 c -0.3037,0.3075 -0.7992,0.3107 -1.1067,0.007 v 0 c -0.3075,-0.3036 -0.3107,-0.7991 -0.007,-1.1067 0.0525,-0.0709 0.1904,-0.301 0.3211,-0.6406 0.3335,-0.7272 0.173,-2.3608 0.3342,-3.8991 0.1136,-0.9321 0.368,-1.7491 0.5338,-2.3501 0.0819,-0.285 0.1575,-0.5437 0.2332,-0.7996 0.1208,-0.4052 0.2364,-0.85 0.3563,-1.1753 0.006,-0.1026 0.0651,-0.3219 0.3053,-0.6614 0.1286,-0.1082 0.5272,-0.2792 0.7775,-0.3085 0.2362,0.02 0.5862,0.1521 0.708,0.2262 0.1653,0.1261 0.3144,0.2877 0.377,0.3561 0.1786,0.2973 0.3586,0.7156 0.5794,1.1817 0.6596,1.3594 1.926,3.5863 2.897,5.5452 0.2609,0.5247 0.4975,1.0449 0.6999,1.4959 0.1905,0.4566 0.3479,0.8457 0.4767,1.1363 0.1116,0.291 0.1228,0.3722 0.0438,0.2957 -0.0638,-0.0164 -0.275,-0.1137 -0.4276,-0.1434 v 0 c 0.5792,0.165 0.915,0.7683 0.7501,1.3475 v 0 c -0.165,0.5792 -0.7683,0.915 -1.3475,0.7501 v 0 c -0.5792,-0.165 -0.915,-0.7683 -0.7501,-1.3475 v 0 c 0.165,-0.5792 0.7683,-0.915 1.3475,-0.7501 -0.1813,-0.004 -0.6042,0.0776 -0.7639,0.1818 v 0 c 0.4744,-0.2911 1.095,-0.1425 1.3861,0.332 v 0 c 0.2911,0.4744 0.1425,1.095 -0.3319,1.3861 v 0 c -0.4745,0.2911 -1.0951,0.1425 -1.3861,-0.332 v 0 c -0.2911,-0.4744 -0.1425,-1.095 0.3319,-1.3861 -0.1637,0.2223 -0.2454,0.4677 -0.1898,0.4575 v 0 c 0.118,-0.4501 0.5785,-0.7194 1.0287,-0.6014 v 0 c 0.4501,0.118 0.7194,0.5785 0.6014,1.0287 v 0 c -0.118,0.4501 -0.5785,0.7194 -1.0287,0.6014 v 0 c -0.4501,-0.118 -0.7194,-0.5786 -0.6014,-1.0287 0.1446,-0.0999 0.2793,-0.3966 0.3992,-0.9648 v 0 c 0.005,-0.2827 0.2381,-0.5079 0.5209,-0.503 v 0 c 0.2827,0.005 0.5079,0.2381 0.503,0.5208 0.0995,0.6046 0.1707,1.0606 0.207,1.3741 10e-4,0.1967 -0.1456,0.5641 -0.3861,0.8335 -0.1981,0.1278 -0.6623,0.2138 -0.8877,0.1977 -0.1968,-0.0423 -0.455,-0.1696 -0.5684,-0.232 -0.2789,-0.2614 -0.5138,-0.6238 -0.6966,-0.955 -0.1656,-0.3315 -0.3507,-0.7431 -0.5527,-1.1851 -0.19,-0.4477 -0.3958,-0.9242 -0.6289,-1.4137 -0.9091,-1.902 -2.1488,-4.1416 -2.8283,-5.6068 -0.2387,-0.503 -0.3854,-0.8493 -0.4452,-0.9323 0.0132,-0.0103 0.1235,0.1005 0.2558,0.2011 0.1053,0.0615 0.4401,0.1872 0.6621,0.2069 0.2361,-0.0295 0.6213,-0.1948 0.7355,-0.2904 0.189,-0.2944 0.199,-0.3757 0.1227,-0.268 -0.0839,0.1924 -0.1953,0.5871 -0.3369,1.025 -0.0818,0.2504 -0.1616,0.4975 -0.2489,0.7749 -0.203,0.6255 -0.4406,1.2736 -0.551,2.0289 -0.2196,1.3306 -0.1454,3.1302 -0.6903,4.3409 -0.2254,0.4458 -0.5271,0.8575 -0.7335,1.0487 -0.066,0.0587 -0.211,0.1627 -0.3627,0.2299 -0.2748,0.0522 -0.9958,-0.4082 -1.0572,-0.6894 0.0219,-0.2553 0.1124,-0.4989 0.2275,-0.7103 v 0 c 0.1797,-0.3593 0.6166,-0.505 0.9759,-0.3253 v 0 c 0.3593,0.1797 0.5049,0.6166 0.3253,0.9759" /></g></g></g></svg>