<svg version="1.1" viewBox="0.0 0.0 609.50656167979 526.0472440944882" fill="none" stroke="none" stroke-linecap="square" stroke-miterlimit="10" xmlns:xlink="http://www.w3.org/1999/xlink" xmlns="http://www.w3.org/2000/svg"><clipPath id="p.0"><path d="m0 0l609.5066 0l0 526.04724l-609.5066 0l0 -526.04724z" clip-rule="nonzero"/></clipPath><g clip-path="url(#p.0)"><path fill="#000000" fill-opacity="0.0" d="m0 0l609.5066 0l0 526.04724l-609.5066 0z" fill-rule="evenodd"/><path fill="#eeeeee" d="m8.0 8.0l118.92913 0l0 118.92913l-118.92913 0z" fill-rule="evenodd"/><path stroke="#595959" stroke-width="1.0" stroke-linejoin="round" stroke-linecap="butt" d="m8.0 8.0l118.92913 0l0 118.92913l-118.92913 0z" fill-rule="evenodd"/><path fill="#595959" d="m126.92913 8.0l118.92913 0l0 118.92913l-118.92913 0z" fill-rule="evenodd"/><path stroke="#595959" stroke-width="1.0" stroke-linejoin="round" stroke-linecap="butt" d="m126.92913 8.0l118.92913 0l0 118.92913l-118.92913 0z" fill-rule="evenodd"/><path fill="#eeeeee" d="m245.85826 8.0l118.92915 0l0 118.92913l-118.92915 0z" fill-rule="evenodd"/><path stroke="#595959" stroke-width="1.0" stroke-linejoin="round" stroke-linecap="butt" d="m245.85826 8.0l118.92915 0l0 118.92913l-118.92915 0z" fill-rule="evenodd"/><path fill="#1a9988" d="m245.85826 126.92913l118.92915 0l0 118.92913l-118.92915 0z" fill-rule="evenodd"/><path stroke="#595959" stroke-width="1.0" stroke-linejoin="round" stroke-linecap="butt" d="m245.85826 126.92913l118.92915 0l0 118.92913l-118.92915 0z" fill-rule="evenodd"/><path fill="#783f04" d="m346.5395 155.97475l0 0c9.458282 6.5601196 11.863281 19.516663 5.3893433 29.034134c-6.4739685 9.517456 -19.408142 12.040024 -28.983978 5.652771l11.639801 -17.450592z" fill-rule="evenodd"/><path stroke="#595959" stroke-width="1.0" stroke-linejoin="round" stroke-linecap="butt" d="m346.5395 155.97475l0 0c9.458282 6.5601196 11.863281 19.516663 5.3893433 29.034134c-6.4739685 9.517456 -19.408142 12.040024 -28.983978 5.652771l11.639801 -17.450592z" fill-rule="evenodd"/><path fill="#f1c232" d="m286.76178 188.99165l0 0c-0.3145752 -2.4210205 0.7182312 -4.8176727 2.6601868 -6.172989c1.9419556 -1.3553162 4.452484 -1.4315796 6.4662476 -0.19644165l0 0c0.7133484 -1.4076843 2.0189514 -2.379593 3.5219421 -2.6217499c1.5029602 -0.24214172 3.026764 0.27391052 4.1104736 1.3920593l0 0c0.607666 -1.2762909 1.8008423 -2.1338043 3.156128 -2.2682343c1.3552551 -0.13442993 2.6808472 0.47323608 3.5063477 1.6073761l0 0c1.0978394 -1.3528595 2.8445435 -1.9224854 4.4842834 -1.4623566c1.6397705 0.46011353 2.8780518 1.8673096 3.1790466 3.6127014l0 0c1.3450623 0.3842163 2.465454 1.3609619 3.0717468 2.6778564c0.6062622 1.3168945 0.63894653 2.8447723 0.08956909 4.1888733l0 0c1.3244934 1.8052673 1.6343079 4.2107697 0.8138733 6.318802c-0.8204651 2.1080322 -2.6479187 3.6019135 -4.800415 3.9241333c-0.015167236 1.9784546 -1.0512695 3.7938843 -2.7089539 4.7465057c-1.6576538 0.9526367 -3.67807 0.8937073 -5.2824097 -0.15405273c-0.6833801 2.3695679 -2.606842 4.1130676 -4.9394226 4.477249c-2.33255 0.36418152 -4.6560364 -0.7162323 -5.966614 -2.774475c-1.6064758 1.0145111 -3.5341492 1.3067627 -5.3481445 0.81082153c-1.8139954 -0.49594116 -3.3615112 -1.7382965 -4.293457 -3.4468231l0 0c-1.6416321 0.20118713 -3.2288818 -0.6895447 -3.9739685 -2.2301025c-0.74508667 -1.5405731 -0.48944092 -3.4030304 0.6401062 -4.6630554l0 0c-1.464386 -0.9026184 -2.211609 -2.6937103 -1.8520203 -4.4393005c0.35958862 -1.7455902 1.7445068 -3.0501099 3.4325867 -3.233307z" fill-rule="evenodd"/><path fill="#000000" fill-opacity="0.0" d="m285.14874 196.75758l0 0c0.69104004 0.4259491 1.4893799 0.61917114 2.2877808 0.55371094m1.0457458 6.3395996c0.34335327 -0.04208374 0.6799011 -0.13117981 1.000946 -0.26501465m8.640167 2.9008942c-0.2414856 -0.37924194 -0.44366455 -0.7845001 -0.6030884 -1.2088776m11.5095215 -0.49395752l0 0c0.12460327 -0.43200684 0.20532227 -0.8766327 0.24084473 -1.3264618m7.750244 -3.2658386c0.016143799 -2.1063843 -1.1262512 -4.0350037 -2.9365234 -4.9574738m6.923004 -5.2852325c-0.29315186 0.7172699 -0.74069214 1.3535461 -1.3075562 1.8589325m-1.8534546 -8.725845l0 0c0.049957275 0.28964233 0.07305908 0.5836487 0.06903076 0.8779297m-7.7322693 -3.028183l0 0c-0.27383423 0.33747864 -0.4994812 0.7145996 -0.6698303 1.1196289m-5.992676 -0.45892334l0 0c-0.14596558 0.30651855 -0.25494385 0.63087463 -0.32443237 0.96559143m-7.3081055 0.26411438l0 0c0.42611694 0.26135254 0.820343 0.57592773 1.1739807 0.9367981m-10.300293 5.432678l0 0c0.04333496 0.3336792 0.111846924 0.6632538 0.2048645 0.98561096" fill-rule="evenodd"/><path fill="#783f04" d="m281.7874 190.53854l41.921234 0l0 30.015747l-41.921234 0z" fill-rule="evenodd"/><path stroke="#595959" stroke-width="1.0" stroke-linejoin="round" stroke-linecap="butt" d="m281.7874 190.53854l41.921234 0l0 30.015747l-41.921234 0z" fill-rule="evenodd"/><path fill="#eb5600" d="m483.71652 126.92913l118.92917 0l0 118.92913l-118.92917 0z" fill-rule="evenodd"/><path stroke="#595959" stroke-width="1.0" stroke-linejoin="round" stroke-linecap="butt" d="m483.71652 126.92913l118.92917 0l0 118.92913l-118.92917 0z" fill-rule="evenodd"/><path fill="#cc0000" d="m515.6446 218.50662l0 0c-11.976318 -10.749985 -12.970459 -29.173279 -2.220459 -41.149597q14.075867 -15.681656 18.47351 -40.05052q6.994446 23.75415 22.676086 37.830048l0 0c11.976318 10.749985 12.970459 29.173279 2.220459 41.149597l0 0c-10.75 11.976318 -29.173279 12.970459 -41.149597 2.2204742z" fill-rule="evenodd"/><path fill="#cc0000" d="m528.13446 213.93083l0 0c-9.454041 -13.020004 -6.5632935 -31.238846 6.456726 -40.692917q17.52063 -12.722092 26.715271 -36.910736q1.2554932 25.846756 13.9776 43.36743l0 0c9.454102 13.020004 6.5633545 31.238846 -6.456665 40.692917l0 0c-13.02002 9.454071 -31.23883 6.5633087 -40.692932 -6.4566956z" fill-rule="evenodd"/><path fill="#cc0000" d="m518.04 213.48201l0 0c-9.454071 -13.020004 -6.563324 -31.238846 6.456665 -40.692917q17.52069 -12.722092 26.715332 -36.910736q1.2554932 25.846756 13.9776 43.36743l0 0c9.454102 13.020004 6.5632935 31.238846 -6.456665 40.692917l0 0c-13.02002 9.454071 -31.23883 6.5633087 -40.692932 -6.4566956z" fill-rule="evenodd"/><path fill="#ff9900" d="m524.9698 208.4575l0 0c-6.6796265 -9.193161 -4.641968 -22.060562 4.5511475 -28.740158q12.370972 -8.988571 18.859314 -26.073425q0.89227295 18.253616 9.880859 30.624603l0 0c6.6796265 9.193146 4.641968 22.060547 -4.5512085 28.740158l0 0c-9.193115 6.679596 -22.060547 4.641968 -28.740112 -4.551178z" fill-rule="evenodd"/><path fill="#595959" d="m364.7874 8.0l118.92911 0l0 118.92913l-118.92911 0z" fill-rule="evenodd"/><path stroke="#595959" stroke-width="1.0" stroke-linejoin="round" stroke-linecap="butt" d="m364.7874 8.0l118.92911 0l0 118.92913l-118.92911 0z" fill-rule="evenodd"/><path fill="#eeeeee" d="m483.71652 8.0l118.92917 0l0 118.92913l-118.92917 0z" fill-rule="evenodd"/><path stroke="#595959" stroke-width="1.0" stroke-linejoin="round" stroke-linecap="butt" d="m483.71652 8.0l118.92917 0l0 118.92913l-118.92917 0z" fill-rule="evenodd"/><path fill="#eb5600" d="m8.0 126.92913l118.92913 0l0 118.92913l-118.92913 0z" fill-rule="evenodd"/><path stroke="#595959" stroke-width="1.0" stroke-linejoin="round" stroke-linecap="butt" d="m8.0 126.92913l118.92913 0l0 118.92913l-118.92913 0z" fill-rule="evenodd"/><path fill="#cc0000" d="m39.92806 218.50662l0 0c-11.976316 -10.749985 -12.970455 -29.173279 -2.2204704 -41.149597q14.075897 -15.681656 18.473545 -40.05052q6.9944153 23.75415 22.67606 37.830048l0 0c11.976318 10.749985 12.970459 29.173279 2.2204742 41.149597l0 0c-10.749985 11.976318 -29.17329 12.970459 -41.14961 2.2204742z" fill-rule="evenodd"/><path fill="#cc0000" d="m52.41793 213.93083l0 0c-9.454071 -13.020004 -6.5633125 -31.238846 6.4566917 -40.692917q17.52068 -12.722092 26.715275 -36.910736q1.2555466 25.846756 13.977638 43.36743l0 0c9.454071 13.020004 6.5633163 31.238846 -6.456688 40.692917l0 0c-13.020004 9.454071 -31.238846 6.5633087 -40.692917 -6.4566956z" fill-rule="evenodd"/><path fill="#cc0000" d="m42.323444 213.48201l0 0c-9.454071 -13.020004 -6.5633125 -31.238846 6.4566917 -40.692917q17.520676 -12.722092 26.715271 -36.910736q1.2555466 25.846756 13.977646 43.36743l0 0c9.454071 13.020004 6.5633087 31.238846 -6.4566956 40.692917l0 0c-13.020004 9.454071 -31.238842 6.5633087 -40.692913 -6.4566956z" fill-rule="evenodd"/><path fill="#ff9900" d="m49.253235 208.4575l0 0c-6.6796036 -9.193161 -4.6419716 -22.060562 4.551178 -28.740158q12.370979 -8.988571 18.859322 -26.073425q0.89227295 18.253616 9.8808365 30.624603l0 0c6.6796036 9.193146 4.641968 22.060547 -4.551178 28.740158l0 0c-9.193153 6.679596 -22.060558 4.641968 -28.740158 -4.551178z" fill-rule="evenodd"/><path fill="#eeeeee" d="m8.0 280.92914l118.92913 0l0 118.92914l-118.92913 0z" fill-rule="evenodd"/><path stroke="#595959" stroke-width="1.0" stroke-linejoin="round" stroke-linecap="butt" d="m8.0 280.92914l118.92913 0l0 118.92914l-118.92913 0z" fill-rule="evenodd"/><path fill="#595959" d="m126.92913 280.92914l118.92913 0l0 118.92914l-118.92913 0z" fill-rule="evenodd"/><path stroke="#595959" stroke-width="1.0" stroke-linejoin="round" stroke-linecap="butt" d="m126.92913 280.92914l118.92913 0l0 118.92914l-118.92913 0z" fill-rule="evenodd"/><path fill="#eeeeee" d="m245.85826 280.92914l118.92915 0l0 118.92914l-118.92915 0z" fill-rule="evenodd"/><path stroke="#595959" stroke-width="1.0" stroke-linejoin="round" stroke-linecap="butt" d="m245.85826 280.92914l118.92915 0l0 118.92914l-118.92915 0z" fill-rule="evenodd"/><path fill="#1a9988" d="m245.85826 399.85828l118.92915 0l0 118.92914l-118.92915 0z" fill-rule="evenodd"/><path stroke="#595959" stroke-width="1.0" stroke-linejoin="round" stroke-linecap="butt" d="m245.85826 399.85828l118.92915 0l0 118.92914l-118.92915 0z" fill-rule="evenodd"/><path fill="#783f04" d="m346.5395 428.90387l0 0c9.458282 6.5601196 11.863281 19.516663 5.3893433 29.03415c-6.4739685 9.517456 -19.408142 12.040009 -28.983978 5.652771l11.639801 -17.450592z" fill-rule="evenodd"/><path stroke="#595959" stroke-width="1.0" stroke-linejoin="round" stroke-linecap="butt" d="m346.5395 428.90387l0 0c9.458282 6.5601196 11.863281 19.516663 5.3893433 29.03415c-6.4739685 9.517456 -19.408142 12.040009 -28.983978 5.652771l11.639801 -17.450592z" fill-rule="evenodd"/><path fill="#f1c232" d="m286.76178 461.92078l0 0c-0.3145752 -2.42099 0.7182312 -4.8176575 2.6601868 -6.1729736c1.9419556 -1.3553162 4.452484 -1.4315796 6.4662476 -0.19644165l0 0c0.7133484 -1.4076843 2.0189514 -2.3796082 3.5219421 -2.6217346c1.5029602 -0.24215698 3.026764 0.27389526 4.1104736 1.3920288l0 0c0.607666 -1.2762756 1.8008423 -2.133789 3.156128 -2.268219c1.3552551 -0.13442993 2.6808472 0.47323608 3.5063477 1.6073608l0 0c1.0978394 -1.3528442 2.8445435 -1.9224548 4.4842834 -1.4623413c1.6397705 0.46011353 2.8780518 1.8673096 3.1790466 3.6127014l0 0c1.3450623 0.3842163 2.465454 1.3609619 3.0717468 2.6778564c0.6062622 1.3168945 0.63894653 2.844757 0.08956909 4.1888733l0 0c1.3244934 1.8052673 1.6343079 4.2107544 0.8138733 6.3187866c-0.8204651 2.1080627 -2.6479187 3.6019287 -4.800415 3.9241333c-0.015167236 1.9784851 -1.0512695 3.7938843 -2.7089539 4.746521c-1.6576538 0.9526367 -3.67807 0.8937073 -5.2824097 -0.15405273c-0.6833801 2.3695679 -2.606842 4.1130676 -4.9394226 4.477234c-2.33255 0.36419678 -4.6560364 -0.71621704 -5.966614 -2.774475c-1.6064758 1.0145264 -3.5341492 1.3067627 -5.3481445 0.81082153c-1.8139954 -0.49594116 -3.3615112 -1.7382812 -4.293457 -3.4468079l0 0c-1.6416321 0.20117188 -3.2288818 -0.6895447 -3.9739685 -2.2301025c-0.74508667 -1.5405884 -0.48944092 -3.4030457 0.6401062 -4.6630554l0 0c-1.464386 -0.9026184 -2.211609 -2.6937256 -1.8520203 -4.4393005c0.35958862 -1.7456055 1.7445068 -3.0501099 3.4325867 -3.233307z" fill-rule="evenodd"/><path fill="#000000" fill-opacity="0.0" d="m285.14874 469.6867l0 0c0.69104004 0.42596436 1.4893799 0.61917114 2.2877808 0.55371094m1.0457458 6.3395996c0.34335327 -0.042053223 0.6799011 -0.13116455 1.000946 -0.26501465m8.640167 2.9009094c-0.2414856 -0.37924194 -0.44366455 -0.7845154 -0.6030884 -1.2088928m11.5095215 -0.493927l0 0c0.12460327 -0.43200684 0.20532227 -0.87664795 0.24084473 -1.326477m7.750244 -3.2658386c0.016143799 -2.1063843 -1.1262512 -4.0350037 -2.9365234 -4.957489m6.923004 -5.2852173c-0.29315186 0.71725464 -0.74069214 1.3535461 -1.3075562 1.8589478m-1.8534546 -8.725861l0 0c0.049957275 0.28964233 0.07305908 0.5836487 0.06903076 0.8779297m-7.7322693 -3.0281982l0 0c-0.27383423 0.3374939 -0.4994812 0.7145996 -0.6698303 1.1196289m-5.992676 -0.45892334l0 0c-0.14596558 0.30654907 -0.25494385 0.6308899 -0.32443237 0.9656067m-7.3081055 0.26409912l0 0c0.42611694 0.26138306 0.820343 0.57592773 1.1739807 0.9367981m-10.300293 5.432678l0 0c0.04333496 0.3336792 0.111846924 0.66326904 0.2048645 0.9856262" fill-rule="evenodd"/><path fill="#783f04" d="m281.7874 463.46768l41.921234 0l0 30.015747l-41.921234 0z" fill-rule="evenodd"/><path stroke="#595959" stroke-width="1.0" stroke-linejoin="round" stroke-linecap="butt" d="m281.7874 463.46768l41.921234 0l0 30.015747l-41.921234 0z" fill-rule="evenodd"/><path fill="#eb5600" d="m483.71652 399.85828l118.92917 0l0 118.92914l-118.92917 0z" fill-rule="evenodd"/><path stroke="#595959" stroke-width="1.0" stroke-linejoin="round" stroke-linecap="butt" d="m483.71652 399.85828l118.92917 0l0 118.92914l-118.92917 0z" fill-rule="evenodd"/><path fill="#cc0000" d="m515.6446 491.43576l0 0c-11.976318 -10.7499695 -12.970459 -29.173279 -2.220459 -41.149597q14.075867 -15.681641 18.47351 -40.050537q6.994446 23.75415 22.676086 37.830048l0 0c11.976318 10.75 12.970459 29.17331 2.220459 41.149628l0 0c-10.75 11.976288 -29.173279 12.970428 -41.149597 2.220459z" fill-rule="evenodd"/><path fill="#cc0000" d="m528.13446 486.85995l0 0c-9.454041 -13.019989 -6.5632935 -31.23883 6.456726 -40.6929q17.52063 -12.722107 26.715271 -36.910736q1.2554932 25.84674 13.9776 43.36743l0 0c9.454102 13.019989 6.5633545 31.23883 -6.456665 40.6929l0 0c-13.02002 9.454071 -31.23883 6.563324 -40.692932 -6.4566956z" fill-rule="evenodd"/><path fill="#cc0000" d="m518.04 486.41113l0 0c-9.454071 -13.019989 -6.563324 -31.23883 6.456665 -40.6929q17.52069 -12.722107 26.715332 -36.910736q1.2554932 25.84674 13.9776 43.36743l0 0c9.454102 13.019989 6.5632935 31.23883 -6.456665 40.6929l0 0c-13.02002 9.454071 -31.23883 6.563324 -40.692932 -6.4566956z" fill-rule="evenodd"/><path fill="#ff9900" d="m524.9698 481.38663l0 0c-6.6796265 -9.193146 -4.641968 -22.060547 4.5511475 -28.740143q12.370972 -8.988586 18.859314 -26.073425q0.89227295 18.253632 9.880859 30.624603l0 0c6.6796265 9.193146 4.641968 22.060547 -4.5512085 28.740143l0 0c-9.193115 6.679596 -22.060547 4.641968 -28.740112 -4.551178z" fill-rule="evenodd"/><path fill="#595959" d="m364.7874 280.92914l118.92911 0l0 118.92914l-118.92911 0z" fill-rule="evenodd"/><path stroke="#595959" stroke-width="1.0" stroke-linejoin="round" stroke-linecap="butt" d="m364.7874 280.92914l118.92911 0l0 118.92914l-118.92911 0z" fill-rule="evenodd"/><path fill="#eeeeee" d="m483.71652 280.92914l118.92917 0l0 118.92914l-118.92917 0z" fill-rule="evenodd"/><path stroke="#595959" stroke-width="1.0" stroke-linejoin="round" stroke-linecap="butt" d="m483.71652 280.92914l118.92917 0l0 118.92914l-118.92917 0z" fill-rule="evenodd"/><path fill="#eb5600" d="m8.0 399.85828l118.92913 0l0 118.92914l-118.92913 0z" fill-rule="evenodd"/><path stroke="#595959" stroke-width="1.0" stroke-linejoin="round" stroke-linecap="butt" d="m8.0 399.85828l118.92913 0l0 118.92914l-118.92913 0z" fill-rule="evenodd"/><path fill="#cc0000" d="m39.92806 491.43576l0 0c-11.976316 -10.7499695 -12.970455 -29.173279 -2.2204704 -41.149597q14.075897 -15.681641 18.473545 -40.050537q6.9944153 23.75415 22.67606 37.830048l0 0c11.976318 10.75 12.970459 29.17331 2.2204742 41.149628l0 0c-10.749985 11.976288 -29.17329 12.970428 -41.14961 2.220459z" fill-rule="evenodd"/><path fill="#cc0000" d="m52.41793 486.85995l0 0c-9.454071 -13.019989 -6.5633125 -31.23883 6.4566917 -40.6929q17.52068 -12.722107 26.715275 -36.910736q1.2555466 25.84674 13.977638 43.36743l0 0c9.454071 13.019989 6.5633163 31.23883 -6.456688 40.6929l0 0c-13.020004 9.454071 -31.238846 6.563324 -40.692917 -6.4566956z" fill-rule="evenodd"/><path fill="#cc0000" d="m42.323444 486.41113l0 0c-9.454071 -13.019989 -6.5633125 -31.23883 6.4566917 -40.6929q17.520676 -12.722107 26.715271 -36.910736q1.2555466 25.84674 13.977646 43.36743l0 0c9.454071 13.019989 6.5633087 31.23883 -6.4566956 40.6929l0 0c-13.020004 9.454071 -31.238842 6.563324 -40.692913 -6.4566956z" fill-rule="evenodd"/><path fill="#ff9900" d="m49.253235 481.38663l0 0c-6.6796036 -9.193146 -4.6419716 -22.060547 4.551178 -28.740143q12.370979 -8.988586 18.859322 -26.073425q0.89227295 18.253632 9.8808365 30.624603l0 0c6.6796036 9.193146 4.641968 22.060547 -4.551178 28.740143l0 0c-9.193153 6.679596 -22.060558 4.641968 -28.740158 -4.551178z" fill-rule="evenodd"/><path fill="#3d85c6" d="m27.307087 331.7638l63.05512 0l0 -8.629944l17.259842 17.259857l-17.259842 17.259827l0 -8.629913l-63.05512 0z" fill-rule="evenodd"/><path stroke="#595959" stroke-width="1.0" stroke-linejoin="round" stroke-linecap="butt" d="m27.307087 331.7638l63.05512 0l0 -8.629944l17.259842 17.259857l-17.259842 17.259827l0 -8.629913l-63.05512 0z" fill-rule="evenodd"/><path fill="#3d85c6" d="m226.55118 349.02362l-63.055115 0l0 8.629913l-17.259842 -17.259827l17.259842 -17.259857l0 8.629944l63.055115 0z" fill-rule="evenodd"/><path stroke="#595959" stroke-width="1.0" stroke-linejoin="round" stroke-linecap="butt" d="m226.55118 349.02362l-63.055115 0l0 8.629913l-17.259842 -17.259827l17.259842 -17.259857l0 8.629944l63.055115 0z" fill-rule="evenodd"/><path fill="#3d85c6" d="m313.95276 300.2362l0 63.055145l8.629913 0l-17.259827 17.259827l-17.259857 -17.259827l8.629913 0l0 -63.055145z" fill-rule="evenodd"/><path stroke="#595959" stroke-width="1.0" stroke-linejoin="round" stroke-linecap="butt" d="m313.95276 300.2362l0 63.055145l8.629913 0l-17.259827 17.259827l-17.259857 -17.259827l8.629913 0l0 -63.055145z" fill-rule="evenodd"/><path fill="#3d85c6" d="m464.40945 349.02362l-63.055115 0l0 8.629913l-17.259857 -17.259827l17.259857 -17.259857l0 8.629944l63.055115 0z" fill-rule="evenodd"/><path stroke="#595959" stroke-width="1.0" stroke-linejoin="round" stroke-linecap="butt" d="m464.40945 349.02362l-63.055115 0l0 8.629913l-17.259857 -17.259827l17.259857 -17.259857l0 8.629944l63.055115 0z" fill-rule="evenodd"/><path fill="#3d85c6" d="m583.33856 349.02362l-63.055115 0l0 8.629913l-17.259827 -17.259827l17.259827 -17.259857l0 8.629944l63.055115 0z" fill-rule="evenodd"/><path stroke="#595959" stroke-width="1.0" stroke-linejoin="round" stroke-linecap="butt" d="m583.33856 349.02362l-63.055115 0l0 8.629913l-17.259827 -17.259827l17.259827 -17.259857l0 8.629944l63.055115 0z" fill-rule="evenodd"/></g></svg>