<svg version="1.1" viewBox="0.0 0.0 344.4278215223097 301.09448818897636" fill="none" stroke="none" stroke-linecap="square" stroke-miterlimit="10" xmlns:xlink="http://www.w3.org/1999/xlink" xmlns="http://www.w3.org/2000/svg"><clipPath id="p.0"><path d="m0 0l344.42783 0l0 301.09448l-344.42783 0l0 -301.09448z" clip-rule="nonzero"/></clipPath><g clip-path="url(#p.0)"><path fill="#000000" fill-opacity="0.0" d="m0 0l344.42783 0l0 301.09448l-344.42783 0z" fill-rule="evenodd"/><path fill="#000000" fill-opacity="0.0" d="m37.228348 267.0971l0 -229.03937" fill-rule="evenodd"/><path stroke="#595959" stroke-width="1.0" stroke-linejoin="round" stroke-linecap="butt" d="m37.228348 267.0971l0 -223.03937" fill-rule="evenodd"/><path fill="#595959" stroke="#595959" stroke-width="1.0" stroke-linecap="butt" d="m38.880077 44.057743l-1.6517296 -4.5380974l-1.6517334 4.5380974z" fill-rule="evenodd"/><path fill="#000000" fill-opacity="0.0" d="m37.228348 267.0971l281.51178 0" fill-rule="evenodd"/><path stroke="#595959" stroke-width="1.0" stroke-linejoin="round" stroke-linecap="butt" d="m37.228348 267.0971l275.51178 0" fill-rule="evenodd"/><path fill="#595959" stroke="#595959" stroke-width="1.0" stroke-linecap="butt" d="m312.74014 268.74884l4.5381165 -1.6517334l-4.5381165 -1.6517334z" fill-rule="evenodd"/><path fill="#fce5cd" d="m71.892395 209.68417l0 0c-23.543858 -40.782104 6.9501343 -102.461044 68.11023 -137.76378l0 0c61.16011 -35.30274 129.82623 -30.86084 153.37009 9.921257l0 0c23.543854 40.782097 -6.9501343 102.46104 -68.110245 137.7638l0 0c-61.160095 35.302734 -129.82622 30.860825 -153.37007 -9.921265z" fill-rule="evenodd"/><path stroke="#595959" stroke-width="1.0" stroke-linejoin="round" stroke-linecap="butt" d="m71.892395 209.68417l0 0c-23.543858 -40.782104 6.9501343 -102.461044 68.11023 -137.76378l0 0c61.16011 -35.30274 129.82623 -30.86084 153.37009 9.921257l0 0c23.543854 40.782097 -6.9501343 102.46104 -68.110245 137.7638l0 0c-61.160095 35.302734 -129.82622 30.860825 -153.37007 -9.921265z" fill-rule="evenodd"/><path fill="#f9cb9c" d="m93.40389 197.24402l0 0c-18.960327 -32.850067 5.6111374 -82.52884 54.88189 -110.96063l0 0c49.270767 -28.431793 104.58298 -24.85007 123.54332 8.0l0 0c18.960327 32.850075 -5.611145 82.52884 -54.881897 110.96063l0 0c-49.270767 28.431793 -104.582985 24.850067 -123.54331 -8.0z" fill-rule="evenodd"/><path stroke="#595959" stroke-width="1.0" stroke-linejoin="round" stroke-linecap="butt" d="m93.40389 197.24402l0 0c-18.960327 -32.850067 5.6111374 -82.52884 54.88189 -110.96063l0 0c49.270767 -28.431793 104.58298 -24.85007 123.54332 8.0l0 0c18.960327 32.850075 -5.611145 82.52884 -54.881897 110.96063l0 0c-49.270767 28.431793 -104.582985 24.850067 -123.54331 -8.0z" fill-rule="evenodd"/><path fill="#f6b26b" d="m125.5491 178.69003l0 0c-12.132866 -21.021622 3.5829926 -52.80587 35.102356 -70.992134l0 0c31.519379 -18.186256 66.90651 -15.887749 79.03938 5.1338577l0 0c12.132858 21.021606 -3.5829926 52.805878 -35.10237 70.99213l0 0c-31.519363 18.186264 -66.906494 15.887756 -79.03937 -5.13385z" fill-rule="evenodd"/><path stroke="#595959" stroke-width="1.0" stroke-linejoin="round" stroke-linecap="butt" d="m125.5491 178.69003l0 0c-12.132866 -21.021622 3.5829926 -52.80587 35.102356 -70.992134l0 0c31.519379 -18.186256 66.90651 -15.887749 79.03938 5.1338577l0 0c12.132858 21.021606 -3.5829926 52.805878 -35.10237 70.99213l0 0c-31.519363 18.186264 -66.906494 15.887756 -79.03937 -5.13385z" fill-rule="evenodd"/><path fill="#000000" fill-opacity="0.0" d="m289.5118 267.0971l29.228333 0l0 24.692932l-29.228333 0z" fill-rule="evenodd"/><path fill="#000000" d="m306.1455 284.2723q-0.78125 0.671875 -1.5 0.953125q-0.71875 0.265625 -1.546875 0.265625q-1.375 0 -2.109375 -0.671875q-0.734375 -0.671875 -0.734375 -1.703125q0 -0.609375 0.28125 -1.109375q0.28125 -0.515625 0.71875 -0.8125q0.453125 -0.3125 1.015625 -0.46875q0.421875 -0.109375 1.25 -0.203125q1.703125 -0.203125 2.515625 -0.484375q0 -0.296875 0 -0.375q0 -0.859375 -0.390625 -1.203125q-0.546875 -0.484375 -1.609375 -0.484375q-0.984375 0 -1.46875 0.359375q-0.46875 0.34375 -0.6875 1.21875l-1.375 -0.1875q0.1875 -0.875 0.609375 -1.421875q0.4375 -0.546875 1.25 -0.828125q0.8125 -0.296875 1.875 -0.296875q1.0625 0 1.71875 0.25q0.671875 0.25 0.984375 0.625q0.3125 0.375 0.4375 0.953125q0.078125 0.359375 0.078125 1.296875l0 1.875q0 1.96875 0.078125 2.484375q0.09375 0.515625 0.359375 1.0l-1.46875 0q-0.21875 -0.4375 -0.28125 -1.03125zm-0.109375 -3.140625q-0.765625 0.3125 -2.296875 0.53125q-0.875 0.125 -1.234375 0.28125q-0.359375 0.15625 -0.5625 0.46875q-0.1875 0.296875 -0.1875 0.65625q0 0.5625 0.421875 0.9375q0.4375 0.375 1.25 0.375q0.8125 0 1.4375 -0.34375q0.640625 -0.359375 0.9375 -0.984375q0.234375 -0.46875 0.234375 -1.40625l0 -0.515625z" fill-rule="nonzero"/><path fill="#000000" fill-opacity="0.0" d="m8.0 38.057743l29.228348 0l0 24.692913l-29.228348 0z" fill-rule="evenodd"/><path fill="#000000" d="m19.114174 53.779823l1.390625 -0.21875q0.109375 0.84375 0.640625 1.296875q0.546875 0.4375 1.5 0.4375q0.96875 0 1.4375 -0.390625q0.46875 -0.40625 0.46875 -0.9375q0 -0.46875 -0.40625 -0.75q-0.296875 -0.1875 -1.4375 -0.46875q-1.546875 -0.390625 -2.15625 -0.671875q-0.59375 -0.296875 -0.90625 -0.796875q-0.296875 -0.5 -0.296875 -1.109375q0 -0.5625 0.25 -1.03125q0.25 -0.46875 0.6875 -0.78125q0.328125 -0.25 0.890625 -0.40625q0.578125 -0.171875 1.21875 -0.171875q0.984375 0 1.71875 0.28125q0.734375 0.28125 1.078125 0.765625q0.359375 0.46875 0.5 1.28125l-1.375 0.1875q-0.09375 -0.640625 -0.546875 -1.0q-0.453125 -0.359375 -1.265625 -0.359375q-0.96875 0 -1.390625 0.328125q-0.40625 0.3125 -0.40625 0.734375q0 0.28125 0.171875 0.5q0.171875 0.21875 0.53125 0.375q0.21875 0.078125 1.25 0.359375q1.484375 0.390625 2.078125 0.65625q0.59375 0.25 0.921875 0.734375q0.34375 0.484375 0.34375 1.203125q0 0.703125 -0.421875 1.328125q-0.40625 0.609375 -1.1875 0.953125q-0.765625 0.34375 -1.734375 0.34375q-1.625 0 -2.46875 -0.671875q-0.84375 -0.671875 -1.078125 -2.0z" fill-rule="nonzero"/><path fill="#cfe2f3" d="m109.551186 202.25984l0 0c0 -6.818756 5.9507294 -12.346451 13.291336 -12.346451l0 0c7.340599 0 13.291344 5.5276947 13.291344 12.346451l0 0c0 6.818756 -5.9507446 12.346451 -13.291344 12.346451l0 0c-7.3406067 0 -13.291336 -5.5276947 -13.291336 -12.346451z" fill-rule="evenodd"/><path fill="#cfe2f3" d="m136.13371 173.6043l0 0c0 -5.209732 4.547653 -9.433075 10.157486 -9.433075l0 0c5.6098175 0 10.157471 4.223343 10.157471 9.433075l0 0c0 5.2097473 -4.547653 9.433075 -10.157471 9.433075l0 0c-5.609833 0 -10.157486 -4.2233276 -10.157486 -9.433075z" fill-rule="evenodd"/><path fill="#000000" fill-opacity="0.0" d="m122.50131 202.6483l24.37796 -29.448822" fill-rule="evenodd"/><path stroke="#0097a7" stroke-width="2.0" stroke-linejoin="round" stroke-linecap="butt" d="m122.50131 202.6483l20.007263 -24.168991" fill-rule="evenodd"/><path fill="#0097a7" stroke="#0097a7" stroke-width="2.0" stroke-linecap="butt" d="m142.50858 178.47932l0.29832458 3.1667786l2.2079468 -6.194397l-5.67305 3.325943z" fill-rule="evenodd"/><path fill="#000000" fill-opacity="0.0" d="m98.879265 162.62177l29.22834 0l0 24.692917l-29.22834 0z" fill-rule="evenodd"/><path fill="#000000" d="m116.859055 173.60947q-0.1875 0.875 -0.78125 1.140625q-0.59375 0.265625 -2.015625 0.265625l-1.078125 3.890625q-0.15625 0.53125 -0.15625 1.046875q0 0.5 0.484375 0.5q0.5625 0 0.953125 -0.5625q0.40625 -0.578125 0.578125 -1.234375l0.34375 0.125q-0.359375 1.09375 -0.859375 1.671875q-0.484375 0.578125 -1.484375 0.578125q-0.53125 0 -0.90625 -0.3125q-0.375 -0.328125 -0.375 -0.84375q0 -0.34375 0.25 -1.3125q0.25 -0.984375 0.578125 -2.15625q0.328125 -1.171875 0.390625 -1.421875q-0.734375 -0.046875 -1.09375 -0.046875q-0.296875 0 -0.609375 0.234375q-0.296875 0.234375 -0.453125 0.578125l-0.359375 0q0.359375 -0.9375 0.921875 -1.375q0.5625 -0.4375 1.609375 -0.4375q0.578125 0 1.546875 0.046875q0.984375 0.03125 1.5625 0.03125q0.453125 0 0.671875 -0.40625l0.28125 0z" fill-rule="nonzero"/></g></svg>