<?xml version="1.0" encoding="UTF-8" standalone="no"?>
<svg
   xmlns:dc="http://purl.org/dc/elements/1.1/"
   xmlns:cc="http://creativecommons.org/ns#"
   xmlns:rdf="http://www.w3.org/1999/02/22-rdf-syntax-ns#"
   xmlns:svg="http://www.w3.org/2000/svg"
   xmlns="http://www.w3.org/2000/svg"
   viewBox="0 0 417.94958 402.17441"
   height="402.17441"
   width="417.94958"
   xml:space="preserve"
   id="svg2"
   version="1.1"><metadata
     id="metadata8"><rdf:RDF><cc:Work
         rdf:about=""><dc:format>image/svg+xml</dc:format><dc:type
           rdf:resource="http://purl.org/dc/dcmitype/StillImage" /></cc:Work></rdf:RDF></metadata><defs
     id="defs6"><clipPath
       id="clipPath14"
       clipPathUnits="userSpaceOnUse"><path
         id="path12"
         d="M 0,0 H 612 V 792 H 0 Z" /></clipPath><clipPath
       id="clipPath24"
       clipPathUnits="userSpaceOnUse"><path
         id="path22"
         d="M 0,0 H 612 V 792 H 0 Z" /></clipPath><clipPath
       id="clipPath86"
       clipPathUnits="userSpaceOnUse"><path
         id="path84"
         d="m 59.14286,72 h 493.7143 V 720 H 59.14286 Z" /></clipPath></defs><g
     clip-path="url(#clipPath14)"
     transform="matrix(1.3333333,0,0,-1.3333333,-185.12787,940.404)"
     id="g10"><g
       id="g16" /><g
       id="g18"><g
         clip-path="url(#clipPath24)"
         id="g20"><g
           transform="matrix(0.8456908,0,0,0.8456908,72,720)"
           id="g26"><text
             id="text30"
             style="font-variant:normal;font-weight:normal;font-size:21px;writing-mode:lr-tb;fill:#000000;fill-opacity:0;fill-rule:nonzero;stroke:none"
             transform="matrix(1,0,0,-1,258.0043,-124.2526)"><tspan
               id="tspan28"
               y="0"
               x="0">0</tspan></text>
</g><g
           transform="matrix(0.8456908,0,0,0.8456908,72,720)"
           id="g32"><text
             id="text36"
             style="font-variant:normal;font-weight:normal;font-size:14px;writing-mode:lr-tb;fill:#000000;fill-opacity:0;fill-rule:nonzero;stroke:none"
             transform="matrix(1,0,0,-1,282.6842,-118.2555)"><tspan
               id="tspan34"
               y="0"
               x="0">0</tspan></text>
</g><g
           transform="matrix(0.8456908,0,0,0.8456908,72,720)"
           id="g38"><text
             id="text42"
             style="font-variant:normal;font-weight:normal;font-size:19px;writing-mode:lr-tb;fill:#000000;fill-opacity:0;fill-rule:nonzero;stroke:none"
             transform="matrix(1,0,0,-1,145.7672,-223.5436)"><tspan
               id="tspan40"
               y="0"
               x="0">I</tspan></text>
</g><g
           transform="matrix(0.8456908,0,0,0.8456908,72,720)"
           id="g44"><text
             id="text48"
             style="font-variant:normal;font-weight:normal;font-size:15px;writing-mode:lr-tb;fill:#000000;fill-opacity:0;fill-rule:nonzero;stroke:none"
             transform="matrix(1,0,0,-1,146.0622,-235.2741)"><tspan
               id="tspan46"
               y="0"
               x="0">2</tspan></text>
</g><g
           transform="matrix(0.8456908,0,0,0.8456908,72,720)"
           id="g50"><text
             id="text54"
             style="font-variant:normal;font-weight:normal;font-size:20px;writing-mode:lr-tb;fill:#000000;fill-opacity:0;fill-rule:nonzero;stroke:none"
             transform="matrix(1,0,0,-1,370.0583,-238.4528)"><tspan
               id="tspan52"
               y="0"
               x="0 4.698">IT</tspan></text>
</g><g
           transform="matrix(0.8456908,0,0,0.8456908,72,720)"
           id="g56"><text
             id="text60"
             style="font-variant:normal;font-weight:normal;font-size:14px;writing-mode:lr-tb;fill:#000000;fill-opacity:0;fill-rule:nonzero;stroke:none"
             transform="matrix(1,0,0,-1,374.0797,-248.9586)"><tspan
               id="tspan58"
               y="0"
               x="0">2</tspan></text>
</g><g
           transform="matrix(0.8456908,0,0,0.8456908,72,720)"
           id="g62"><text
             id="text66"
             style="font-variant:normal;font-weight:normal;font-size:21px;writing-mode:lr-tb;fill:#000000;fill-opacity:0;fill-rule:nonzero;stroke:none"
             transform="matrix(1,0,0,-1,246.3229,-288.2682)"><tspan
               id="tspan64"
               y="0"
               x="0 14.7966">Ul</tspan></text>
</g><g
           transform="matrix(0.8456908,0,0,0.8456908,72,720)"
           id="g68"><text
             id="text72"
             style="font-variant:normal;font-weight:normal;font-size:14px;writing-mode:lr-tb;fill:#000000;fill-opacity:0;fill-rule:nonzero;stroke:none"
             transform="matrix(1,0,0,-1,255.8317,-353.4743)"><tspan
               id="tspan70"
               y="0"
               x="0">t</tspan></text>
</g><g
           transform="matrix(0.8456908,0,0,0.8456908,72,720)"
           id="g74"><text
             id="text78"
             style="font-variant:normal;font-weight:normal;font-size:20px;writing-mode:lr-tb;fill:#000000;fill-opacity:0;fill-rule:nonzero;stroke:none"
             transform="matrix(1,0,0,-1,260.7477,-377.1794)"><tspan
               id="tspan76"
               y="0"
               x="0">I</tspan></text>
</g></g></g><g
       id="g80"><g
         clip-path="url(#clipPath86)"
         id="g82"><path
           id="path88"
           style="fill:#000000;fill-opacity:1;fill-rule:nonzero;stroke:none"
           d="m 416.2119,530.7496 c 0,-44.4256 -24.0362,-83.2373 -59.8138,-104.1392 -17.8284,-10.4157 -38.5721,-16.3846 -60.71,-16.3846 -44.4255,0 -83.2372,24.0362 -104.1391,59.8138 -10.4157,17.8284 -16.3846,38.5721 -16.3846,60.71 0,44.4255 24.0362,83.2372 59.8138,104.1391 17.8284,10.4157 38.5721,16.3846 60.7099,16.3846 44.4256,0 83.2373,-24.0362 104.1392,-59.8138 10.4157,-17.8284 16.3846,-38.5721 16.3846,-60.7099 m -1.9286,0 c 0,21.7829 -5.8724,42.1944 -16.1212,59.7371 -20.5677,35.2054 -58.7586,58.8581 -102.474,58.8581 -21.7829,0 -42.1944,-5.8725 -59.7371,-16.1213 -35.2054,-20.5677 -58.858,-58.7585 -58.858,-102.4739 0,-21.783 5.8724,-42.1945 16.1212,-59.7371 20.5677,-35.2055 58.7586,-58.8581 102.4739,-58.8581 21.783,0 42.1945,5.8724 59.7371,16.1212 35.2055,20.5677 58.8581,58.7586 58.8581,102.474" /><path
           id="path90"
           style="fill:#000000;fill-opacity:1;fill-rule:nonzero;stroke:none"
           d="m 299.68,655.7703 c -0.0685,-0.0982 -0.5238,-0.3359 -0.8625,-0.3002 v 0 c 0.3846,-0.1451 0.8141,0.049 0.9592,0.4336 v 0 c 0.1451,0.3847 -0.049,0.8141 -0.4336,0.9592 v 0 c -0.3846,0.1452 -0.8141,-0.0489 -0.9592,-0.4336 v 0 c -0.1452,-0.3846 0.049,-0.814 0.4336,-0.9592 -0.2418,0.1445 -0.4031,0.3499 -0.43,0.3952 v 0 c 0.1538,-0.3913 0.5958,-0.5838 0.9871,-0.43 v 0 c 0.3913,0.1538 0.5838,0.5958 0.4299,0.9871 v 0 c -0.1538,0.3913 -0.5957,0.5838 -0.987,0.4299 v 0 c -0.3913,-0.1538 -0.5838,-0.5957 -0.43,-0.987 -0.0289,0.0566 -0.0467,0.0839 -0.0523,0.0363 v 0 c 0.0558,-0.4357 0.4541,-0.7436 0.8898,-0.6878 v 0 c 0.4356,0.0558 0.7435,0.4542 0.6877,0.8898 v 0 c -0.0557,0.4356 -0.4541,0.7436 -0.8898,0.6878 v 0 c -0.4356,-0.0558 -0.7435,-0.4542 -0.6877,-0.8898 -0.008,-0.1089 -0.0181,-0.2958 -0.0271,-0.5651 -0.0116,-0.4327 -0.0253,-1.0274 -0.0342,-1.722 -0.002,-0.5207 -0.002,-1.098 0.004,-1.7001 v 0 c 0.025,-0.5659 0.5039,-1.0045 1.0699,-0.9796 v 0 c 0.566,0.0249 1.0046,0.5039 0.9797,1.0699 v 0 c -0.025,0.5659 -0.5039,1.0045 -1.0699,0.9796 v 0 c -0.566,-0.0249 -1.0046,-0.5039 -0.9797,-1.0699 0.1048,-1.3997 0.2402,-2.9604 0.4403,-4.3016 v 0 c 0.0575,-0.4916 0.5028,-0.8435 0.9944,-0.7859 v 0 c 0.4916,0.0575 0.8435,0.5027 0.786,0.9944 v 0 c -0.0576,0.4916 -0.5028,0.8435 -0.9945,0.786 v 0 c -0.4916,-0.0576 -0.8435,-0.5028 -0.7859,-0.9945 0.1624,-0.9564 0.3672,-1.8491 0.6197,-2.4898 v 0 c 0.1245,-0.3932 0.5442,-0.6111 0.9375,-0.4866 v 0 c 0.3932,0.1245 0.6111,0.5442 0.4866,0.9375 v 0 c -0.1245,0.3932 -0.5442,0.6111 -0.9375,0.4866 v 0 c -0.3932,-0.1245 -0.6111,-0.5442 -0.4866,-0.9375 0.1164,-0.1076 0.239,-0.2166 0.3584,-0.2997 v 0 c 0.1092,-0.2608 0.4092,-0.3838 0.67,-0.2746 v 0 c 0.2609,0.1091 0.3839,0.4091 0.2747,0.67 0.0365,0.1151 0.08,0.225 0.1209,0.3555 -0.1244,0.5499 -0.2054,1.3214 -0.2633,2.2471 -0.1085,1.2933 -0.1533,2.795 -0.1711,4.1833 -0.0467,0.5931 -0.0881,1.1604 -0.1271,1.6786 -0.0583,0.6905 -0.1124,1.2941 -0.1688,1.741 -0.0369,0.2807 -0.0764,0.5191 -0.1193,0.6797 -0.0228,0.0867 -0.0591,0.209 -0.1052,0.3109 -0.04,0.0784 -0.2117,0.2995 -0.4633,0.4477 -0.3508,0.0403 -0.8174,-0.2041 -0.8978,-0.3212 v 0 c -0.213,-0.3407 -0.1094,-0.7894 0.2313,-1.0023 v 0 c 0.3406,-0.2129 0.7894,-0.1094 1.0023,0.2313" /><path
           id="path92"
           style="fill:#000000;fill-opacity:1;fill-rule:nonzero;stroke:none"
           d="m 295.1595,630.6588 c -0.4388,0.1593 -1.0257,0.158 -1.4684,0.0266 v 0 c -0.3999,-0.139 -0.6114,-0.5759 -0.4724,-0.9758 v 0 c 0.139,-0.3999 0.5759,-0.6115 0.9758,-0.4725 v 0 c 0.3999,0.139 0.6114,0.5759 0.4725,0.9758 v 0 c -0.139,0.4 -0.5759,0.6115 -0.9759,0.4725 -0.4311,-0.1433 -0.9153,-0.4463 -1.2912,-0.795 v 0 c -0.3165,-0.3129 -0.3193,-0.8232 -0.006,-1.1396 v 0 c 0.313,-0.3164 0.8232,-0.3192 1.1396,-0.006 v 0 c 0.3165,0.3129 0.3193,0.8232 0.006,1.1396 v 0 c -0.313,0.3164 -0.8232,0.3192 -1.1396,0.006 -0.7278,-0.6972 -1.3992,-1.8543 -1.734,-3.1431 v 0 c -0.1107,-0.4757 0.1851,-0.9511 0.6608,-1.0619 v 0 c 0.4756,-0.1107 0.951,0.1851 1.0618,0.6607 v 0 c 0.1108,0.4757 -0.185,0.9511 -0.6607,1.0619 v 0 c -0.4757,0.1108 -0.9511,-0.1851 -1.0619,-0.6607 -0.3255,-1.3316 -0.5397,-3.0065 -0.195,-4.4455 0.4059,-1.4326 1.4913,-2.6829 2.6408,-3.4042 1.1656,-0.7048 2.6667,-1.0665 3.8571,-0.9022 0.8852,0.1497 1.8015,0.6677 2.4047,1.3439 0.5765,0.6827 1.0372,1.686 1.2568,2.754 0.327,1.8178 0.2227,4.3745 -0.2157,6.3239 -0.4486,1.8934 -1.3114,3.42 -2.5165,4.0992 -0.6292,0.3612 -1.4943,0.5191 -2.2397,0.4458 -0.5584,-0.0655 -1.2731,-0.2808 -1.8992,-0.6774 -1.2742,-0.9014 -2.4106,-2.6761 -2.9967,-4.1179 -0.437,-1.0904 -0.5877,-2.2775 -0.4045,-3.107 0.2696,-0.7919 1.0818,-1.4224 1.7722,-1.6134 v 0 c 0.5439,-0.1374 1.0962,0.1921 1.2335,0.736 v 0 c 0.1374,0.5439 -0.1921,1.0961 -0.736,1.2335 v 0 c -0.5439,0.1374 -1.0962,-0.1921 -1.2335,-0.736 v 0 c -0.1374,-0.5439 0.1921,-1.0962 0.736,-1.2335 0.6702,-0.1593 1.5165,-0.1505 2.2468,-0.0468 v 0 c 0.5568,0.0814 0.942,0.5987 0.8606,1.1554 v 0 c -0.0814,0.5567 -0.5987,0.942 -1.1554,0.8606 v 0 c -0.5567,-0.0814 -0.942,-0.5987 -0.8606,-1.1554 v 0 c 0.0814,-0.5567 0.5987,-0.942 1.1554,-0.8606 0.6887,0.1187 1.3981,0.3276 1.986,0.5727 v 0 c 0.4995,0.1951 0.7462,0.7582 0.5511,1.2577 v 0 c -0.1951,0.4995 -0.7582,0.7462 -1.2577,0.5511 v 0 c -0.4994,-0.1951 -0.7462,-0.7582 -0.551,-1.2577 v 0 c 0.1951,-0.4995 0.7582,-0.7462 1.2576,-0.5511 0.7666,0.4667 1.4444,1.0607 1.8104,1.6358 v 0 c 0.1997,0.2002 0.1993,0.5244 -9e-4,0.7242 v 0 c -0.2003,0.1997 -0.5245,0.1993 -0.7242,-10e-4 -0.4487,-0.2417 -1.04,-0.4239 -1.7918,-0.5502 -0.4966,-0.1785 -0.9989,-0.2992 -1.5744,-0.3655 -0.6022,-0.0912 -1.075,-0.1056 -1.4544,3e-4 -0.3592,0.074 -0.327,-0.003 -0.3121,0.1638 -0.1381,0.3804 -0.0737,0.9896 0.2693,1.8632 0.4893,1.2654 1.3395,2.6521 2.2615,3.2628 0.3828,0.298 0.672,0.4006 1.074,0.4764 0.4876,0.1083 0.8169,0.0903 1.1882,-0.0993 0.7439,-0.3944 1.1935,-1.3454 1.5259,-3.0519 0.3695,-1.7737 0.4259,-4.0037 0.0919,-5.5654 -0.1589,-0.8679 -0.4065,-1.4287 -0.8039,-1.8836 -0.3701,-0.4599 -0.6926,-0.6521 -1.2464,-0.7286 -0.7818,-0.1472 -1.6795,0.0725 -2.5824,0.6404 -0.9191,0.5513 -1.5723,1.265 -1.8178,2.2869 -0.3179,1.0584 -0.1612,2.3228 0.1126,3.5655 0.2174,1.0822 0.6251,1.8626 1.1446,2.3982 0.2479,0.2685 0.4295,0.4056 0.6614,0.4927 0.2203,0.099 0.2937,0.1184 0.4674,0.0547 v 0 c 0.3775,-0.1374 0.7949,0.0572 0.9323,0.4347 v 0 c 0.1374,0.3775 -0.0572,0.7949 -0.4347,0.9323 z" /><path
           id="path94"
           style="fill:#000000;fill-opacity:1;fill-rule:nonzero;stroke:none"
           d="m 301.8111,626.9654 c 0.1805,0.0464 0.3953,0.1071 0.6014,0.1775 v 0 c 0.297,0.0106 0.5291,0.26 0.5185,0.557 v 0 c -0.0107,0.297 -0.2601,0.5292 -0.5571,0.5185 v 0 c -0.297,-0.0107 -0.5291,-0.2601 -0.5184,-0.5571 v 0 c 0.0106,-0.297 0.26,-0.5291 0.557,-0.5184 0.4142,-0.0382 0.9192,-0.0409 1.4286,-0.0409 v 0 c 0.3834,0.0403 0.6616,0.3838 0.6213,0.7673 v 0 c -0.0404,0.3834 -0.3839,0.6616 -0.7674,0.6212 v 0 c -0.3834,-0.0403 -0.6616,-0.3838 -0.6212,-0.7673 v 0 c 0.0403,-0.3834 0.3838,-0.6616 0.7673,-0.6212 0.508,0.0227 1.0213,0.0484 1.4828,0.048 v 0 c 0.4358,0.0291 0.7655,0.406 0.7364,0.8418 v 0 c -0.0291,0.4358 -0.4059,0.7655 -0.8417,0.7364 v 0 c -0.4358,-0.0291 -0.7655,-0.4059 -0.7365,-0.8417 v 0 c 0.0291,-0.4358 0.406,-0.7655 0.8418,-0.7365 0.5121,0.0808 0.8992,0.1327 1.1336,0.1201 v 0 c 0.3508,-0.08 0.7,0.1395 0.78,0.4903 v 0 c 0.08,0.3508 -0.1395,0.7 -0.4902,0.78 v 0 c -0.3508,0.08 -0.7,-0.1395 -0.78,-0.4903 v 0 c -0.08,-0.3507 0.1395,-0.7 0.4902,-0.78 0.1082,0.002 0.0713,0.052 0.0503,0.0855 v 0 c 0.209,-0.2441 0.5762,-0.2726 0.8203,-0.0637 v 0 c 0.2441,0.2089 0.2726,0.5762 0.0637,0.8203 v 0 c -0.209,0.2441 -0.5762,0.2726 -0.8203,0.0637 v 0 c -0.2441,-0.209 -0.2726,-0.5762 -0.0637,-0.8203 0.003,0.0645 -0.004,0.2636 -0.003,0.2319 v 0 c -0.0944,-0.2666 0.0453,-0.5591 0.3119,-0.6535 v 0 c 0.2666,-0.0943 0.5592,0.0454 0.6535,0.312 0.0955,0.2359 0.0549,0.6431 -0.0793,0.8674 -0.1563,0.1916 -0.433,0.3524 -0.6434,0.427 -0.4029,0.1328 -0.9684,0.1781 -1.5283,0.1878 -0.4922,-0.064 -1.0268,-0.1539 -1.5245,-0.2377 -0.4952,-0.1057 -0.9527,-0.2059 -1.3206,-0.2721 -0.185,0.0563 -0.3162,0.1203 -0.4195,0.1948 v 0 c -0.3998,0.0395 -0.7559,-0.2525 -0.7955,-0.6523 v 0 c -0.0396,-0.3998 0.2525,-0.7559 0.6522,-0.7955 z" /><path
           id="path96"
           style="fill:#000000;fill-opacity:1;fill-rule:nonzero;stroke:none"
           d="m 302.343,624.8678 c 0.9993,-0.6152 2.4708,-0.1494 3.6806,-0.6266 v 0 c 0.2598,-0.1117 0.5609,0.008 0.6725,0.2683 v 0 c 0.1116,0.2599 -0.009,0.561 -0.2684,0.6726 -1.5339,0.7012 -3.0187,0.38 -3.101,0.7575 v 0 c -0.296,0.2716 -0.7562,0.2519 -1.0278,-0.0441 v 0 c -0.2716,-0.2959 -0.2519,-0.7561 0.0441,-1.0277" /><path
           id="path98"
           style="fill:#000000;fill-opacity:1;fill-rule:nonzero;stroke:none"
           d="m 313.3061,629.9683 c -0.1108,0.0891 -0.3573,0.2388 -0.5583,0.2696 v 0 c -0.3343,0.0733 -0.6648,-0.1383 -0.738,-0.4727 v 0 c -0.0733,-0.3343 0.1383,-0.6647 0.4726,-0.738 v 0 c 0.3344,-0.0733 0.6648,0.1384 0.7381,0.4727 v 0 c 0.0732,0.3343 -0.1384,0.6647 -0.4727,0.738 -0.2111,-0.0169 -0.4984,-0.1557 -0.5765,-0.2693 v 0 c -0.2036,-0.1963 -0.2095,-0.5204 -0.0133,-0.724 v 0 c 0.1963,-0.2036 0.5205,-0.2096 0.724,-0.0133 v 0 c 0.2036,0.1963 0.2096,0.5204 0.0133,0.724 v 0 c -0.1963,0.2036 -0.5204,0.2095 -0.724,0.0133 -0.3699,-0.3434 -0.6108,-1.2018 -0.7288,-2.0967 v 0 c -0.0197,-0.4031 0.2912,-0.7458 0.6943,-0.7655 v 0 c 0.4031,-0.0196 0.7458,0.2912 0.7654,0.6943 v 0 c 0.0197,0.4031 -0.2911,0.7458 -0.6942,0.7655 v 0 c -0.4031,0.0196 -0.7458,-0.2912 -0.7655,-0.6943 -0.0528,-0.7184 -0.0684,-1.6224 0.1321,-2.3887 0.3064,-0.9203 1.139,-1.6549 1.9656,-1.9335 0.828,-0.247 1.9069,-0.1874 2.7616,0.1753 1.0101,0.4723 1.9157,1.5216 2.2326,2.5646 0.1265,0.4361 0.1697,1.016 0.0638,1.5117 -0.2363,0.7941 -0.9532,1.5065 -1.6741,1.9406 v 0 c -0.3886,0.2295 -0.8896,0.1006 -1.1191,-0.288 v 0 c -0.2295,-0.3885 -0.1006,-0.8895 0.2879,-1.119 v 0 c 0.3886,-0.2296 0.8896,-0.1006 1.1191,0.2879 v 0 c 0.2295,0.3885 0.1006,0.8896 -0.2879,1.1191 -0.7204,0.4234 -1.6229,0.7445 -2.3525,0.8856 v 0 c -0.4471,0.0834 -0.8771,-0.2115 -0.9605,-0.6586 v 0 c -0.0833,-0.4471 0.2116,-0.8771 0.6587,-0.9605 v 0 c 0.4471,-0.0833 0.8771,0.2116 0.9604,0.6587 v 0 c 0.0834,0.4471 -0.2115,0.8771 -0.6586,0.9604 -0.8855,0.1026 -1.8272,-0.1027 -2.4305,-0.5857 v 0 c -0.2962,-0.2197 -0.3583,-0.638 -0.1386,-0.9342 v 0 c 0.2197,-0.2962 0.6379,-0.3583 0.9341,-0.1386 v 0 c 0.2963,0.2197 0.3583,0.6379 0.1386,0.9342 v 0 c -0.2196,0.2962 -0.6379,0.3582 -0.9341,0.1386 -0.5555,-0.5014 -0.923,-1.3613 -0.934,-2.3236 v 0 c -0.016,-0.2824 0.2,-0.5242 0.4823,-0.5401 v 0 c 0.2824,-0.016 0.5242,0.2 0.5401,0.4823 0.0863,0.7605 0.3139,1.1055 0.7075,1.3089 0.3452,0.2203 0.7061,0.2182 1.3329,0.0391 0.595,-0.1057 1.2487,-0.3314 1.8227,-0.6733 0.5741,-0.3309 0.8902,-0.6005 0.9322,-0.9253 0.0783,-0.2445 0.0673,-0.4078 -0.009,-0.6904 -0.1759,-0.6978 -0.6656,-1.2647 -1.3556,-1.5445 -0.5789,-0.2727 -1.1124,-0.3023 -1.6459,-0.1206 -0.5348,0.15 -0.8128,0.3618 -0.9361,0.8785 -0.1836,0.5171 -0.1912,1.1823 -0.1756,1.8679 -0.0345,0.8171 0.005,1.4436 -0.021,1.4298 -0.0199,-0.0574 -0.248,-0.1731 -0.3987,-0.2033 -0.1407,0.0176 -0.3258,0.1169 -0.3746,0.116 v 0 c 0.2279,-0.3309 0.6808,-0.4144 1.0116,-0.1865 v 0 c 0.3309,0.2278 0.4144,0.6808 0.1866,1.0116 z" /><path
           id="path100"
           style="fill:#000000;fill-opacity:1;fill-rule:nonzero;stroke:none"
           d="m 408.7257,520.7726 c 0.4948,-0.1526 2.8528,0.0303 5.3257,0.2 v 0 c 0.5107,0.049 0.8851,0.5028 0.8361,1.0135 v 0 c -0.049,0.5108 -0.5028,0.8852 -1.0136,0.8362 v 0 c -0.5107,-0.049 -0.8851,-0.5028 -0.8361,-1.0136 v 0 c 0.049,-0.5108 0.5028,-0.8851 1.0136,-0.8361 1.0352,0.0725 2.0679,0.1575 2.9193,0.1906 v 0 c 0.5562,0.0393 0.9753,0.5222 0.9359,1.0785 v 0 c -0.0394,0.5562 -0.5222,0.9753 -1.0785,0.9359 v 0 c -0.5563,-0.0394 -0.9753,-0.5222 -0.9359,-1.0785 v 0 c 0.0393,-0.5563 0.5222,-0.9753 1.0785,-0.9359 0.7524,0.0575 1.282,0.0895 1.7086,0.0742 v 0 c 0.5497,-0.0237 1.0146,0.4026 1.0384,0.9523 v 0 c 0.0237,0.5497 -0.4027,1.0146 -0.9524,1.0383 v 0 c -0.5497,0.0238 -1.0145,-0.4026 -1.0383,-0.9523 v 0 c -0.0237,-0.5497 0.4026,-1.0145 0.9523,-1.0383 0.4195,0.038 0.6316,0.0546 0.9,-0.01 v 0 c 0.4222,-0.1841 0.9137,0.009 1.0978,0.4312 v 0 c 0.1841,0.4222 -0.009,0.9137 -0.4311,1.0978 v 0 c -0.4223,0.1841 -0.9138,-0.009 -1.0979,-0.4312 v 0 c -0.1841,-0.4222 0.009,-0.9137 0.4312,-1.0978 0.1756,0.042 0.3292,0.0766 0.531,0.0638 v 0 c 0.2303,-0.1641 0.55,-0.1104 0.7141,0.1199 v 0 c 0.1641,0.2303 0.1104,0.5501 -0.1199,0.7141 -0.124,0.2193 -0.2942,0.4414 -0.4593,0.6315 -0.4109,0.2321 -0.9435,0.3916 -1.4799,0.4708 -0.529,0.0261 -1.1661,-6e-4 -1.9369,-0.0504 -0.8877,-0.09 -1.9364,-0.2305 -2.9547,-0.3554 -2.4685,-0.3043 -4.7647,-0.6169 -4.7953,-0.6382 v 0 c -0.3897,0.0974 -0.7846,-0.1396 -0.882,-0.5293 v 0 c -0.0974,-0.3898 0.1395,-0.7847 0.5293,-0.8821 z" /><path
           id="path102"
           style="fill:#000000;fill-opacity:1;fill-rule:nonzero;stroke:none"
           d="m 387.5381,533.6853 c -0.0109,0.004 0.0411,-0.187 0.0596,-0.2162 v 0 c 0.0915,0.4058 -0.1634,0.8089 -0.5692,0.9004 v 0 c -0.4058,0.0914 -0.8089,-0.1634 -0.9003,-0.5692 v 0 c -0.0915,-0.4059 0.1634,-0.809 0.5692,-0.9004 v 0 c 0.4058,-0.0914 0.8089,0.1634 0.9003,0.5692 -0.01,-0.018 -0.0377,-0.0857 0.0307,-0.038 v 0 c 0.3108,0.2974 0.3217,0.7906 0.0242,1.1014 v 0 c -0.2974,0.3109 -0.7905,0.3217 -1.1014,0.0243 v 0 c -0.3108,-0.2975 -0.3217,-0.7906 -0.0243,-1.1015 v 0 c 0.2975,-0.3108 0.7906,-0.3217 1.1015,-0.0242 0.1394,0.126 0.3642,0.2139 0.6831,0.2777 v 0 c 0.443,0.1191 0.7056,0.5748 0.5865,1.0178 v 0 c -0.1192,0.4431 -0.5749,0.7056 -1.0179,0.5865 v 0 c -0.443,-0.1191 -0.7056,-0.5749 -0.5865,-1.0179 v 0 c 0.1192,-0.443 0.5749,-0.7056 1.0179,-0.5864 0.2018,0.0415 0.2434,0.052 0.2661,0.0232 0.135,0.0222 0.0646,0.1057 0.0704,0.0612 0.0621,0.0723 0.009,-0.1427 -0.0244,-0.5036 0.0343,-0.076 -0.0877,-0.2172 -0.2294,-0.5224 -0.0618,-0.1367 -0.1492,-0.2882 -0.2254,-0.4597 -0.0765,-0.1793 -0.1496,-0.5272 -0.0898,-0.823 0.0777,-0.2016 0.2618,-0.4184 0.3764,-0.5002 0.1078,-0.0695 0.2491,-0.1357 0.354,-0.1753 0.2052,-0.0753 0.4176,-0.1294 0.5601,-0.178 0.3468,-0.1249 0.6572,-0.1824 0.8243,-0.2688 0.0475,-0.009 -0.0505,0.0885 -0.0612,0.005 0.0154,-0.0914 -0.0113,-0.1711 -0.0943,-0.3709 -0.156,-0.4184 -0.4603,-0.8198 -0.8714,-1.0914 -0.3879,-0.273 -0.9185,-0.4227 -1.4627,-0.5105 -0.1591,-0.0461 -0.3218,-0.0264 -0.5795,-0.0218 -0.2092,-0.0292 -0.4,-0.0694 -0.5206,-0.1069 -0.058,-0.0184 -0.0902,-0.0362 -0.1038,-0.052 -0.01,-0.0169 0.138,-0.0621 0.3926,-0.2243 v 0 c -0.2896,0.2644 -0.7388,0.2439 -1.0032,-0.0457 v 0 c -0.2644,-0.2897 -0.2439,-0.7389 0.0458,-1.0033 v 0 c 0.2896,-0.2643 0.7388,-0.2439 1.0032,0.0458 v 0 c 0.2644,0.2897 0.2439,0.7388 -0.0458,1.0032 0.206,-0.5597 -0.0748,-1.051 -0.1146,-1.0596 v 0 c 0.3145,0.185 0.4194,0.5899 0.2345,0.9044 v 0 c -0.185,0.3144 -0.5899,0.4194 -0.9044,0.2344 v 0 c -0.3144,-0.185 -0.4194,-0.5899 -0.2344,-0.9043 v 0 c 0.185,-0.3145 0.5898,-0.4195 0.9043,-0.2345 -0.0149,0.0118 -0.008,0.0328 0.0473,0.0739 v 0 c 0.3111,0.1309 0.4571,0.4891 0.3263,0.8002 v 0 c -0.1309,0.3111 -0.4892,0.4572 -0.8003,0.3263 v 0 c -0.3111,-0.1309 -0.4571,-0.4892 -0.3263,-0.8003 v 0 c 0.1309,-0.311 0.4892,-0.4571 0.8003,-0.3262 0.1153,0.084 0.3248,0.1996 0.6534,0.3595 v 0 c 0.2644,0.1002 0.3975,0.3958 0.2973,0.6602 v 0 c -0.1002,0.2645 -0.3958,0.3976 -0.6602,0.2973 -0.3535,-0.0986 -0.601,-0.1581 -0.763,-0.1899 -0.0856,-0.0182 -0.1735,-0.0409 -0.2444,-0.0621 -0.0962,-0.0417 -0.3945,-0.5545 -0.1741,-1.1275 0.2709,-0.1769 0.4667,-0.228 0.5323,-0.2465 0.0615,-0.0174 0.1314,-0.0319 0.1941,-0.0463 0.1287,-0.0283 0.2689,-0.0553 0.4278,-0.0919 0.2132,-0.005 0.6065,-0.0211 1.0184,0.0626 0.6434,0.1812 1.4668,0.5213 2.0521,0.9991 0.573,0.4873 1.076,1.2578 1.2773,1.9123 0.0955,0.3361 0.1348,0.7676 0.0696,1.0988 -0.0913,0.3392 -0.4167,0.7707 -0.777,0.942 -0.3376,0.1368 -0.6891,0.1941 -0.9334,0.2764 -0.1954,0.0696 -0.3902,0.122 -0.5222,0.1756 -0.0637,0.0248 -0.0734,0.0288 -0.0815,0.0385 -10e-4,-0.002 0.1016,-0.13 0.1505,-0.2281 -6e-4,-0.0764 -0.005,-0.1873 0.043,-0.1039 0.0483,0.0911 0.1414,0.2286 0.2423,0.4133 0.0842,0.1423 0.3437,0.462 0.4594,0.9251 0.068,0.3106 0.1836,0.9165 -0.0246,1.4889 -0.2664,0.4597 -0.8595,0.8166 -1.305,0.8998 -0.3371,0.009 -0.6706,-0.076 -0.8775,-0.1443 -0.4643,-0.1468 -0.9988,-0.433 -1.329,-0.7563 -0.1664,-0.1769 -0.3564,-0.4883 -0.4229,-0.7559 -0.0381,-0.2809 0.063,-0.73 0.2402,-0.9807 v 0 c 0.2389,-0.323 0.6944,-0.3912 1.0174,-0.1523 v 0 c 0.323,0.2389 0.3911,0.6944 0.1522,1.0174 z" /><path
           id="path104"
           style="fill:#000000;fill-opacity:1;fill-rule:nonzero;stroke:none"
           d="m 391.9268,531.1226 c 0.3299,0.0652 2.5963,0.485 4.5158,0.593 v 0 c 0.4957,0.0433 0.8624,0.4803 0.819,0.976 v 0 c -0.0433,0.4956 -0.4803,0.8623 -0.976,0.819 v 0 c -0.4956,-0.0433 -0.8623,-0.4803 -0.819,-0.976 v 0 c 0.0433,-0.4957 0.4803,-0.8624 0.976,-0.819 0.8271,0.046 1.5156,-0.009 2.1411,-0.0551 v 0 c 0.5434,-0.0158 0.9968,0.4118 1.0127,0.9553 v 0 c 0.0158,0.5434 -0.4118,0.9968 -0.9553,1.0126 v 0 c -0.5434,0.0159 -0.9968,-0.4118 -1.0126,-0.9552 v 0 c -0.0159,-0.5434 0.4118,-0.9968 0.9552,-1.0127 0.56,0.0625 1.0391,0.1314 1.1268,0.1929 v 0 c 0.4082,-0.0645 0.7913,0.2142 0.8558,0.6223 v 0 c 0.0644,0.4082 -0.2142,0.7913 -0.6223,0.8558 v 0 c -0.4082,0.0644 -0.7913,-0.2142 -0.8558,-0.6223 v 0 c -0.0645,-0.4082 0.2142,-0.7913 0.6223,-0.8558 -0.009,0.023 -0.3961,0.3057 -0.3484,1.1737 v 0 c -0.2521,-0.2851 -0.2254,-0.7206 0.0597,-0.9728 v 0 c 0.2851,-0.2521 0.7206,-0.2254 0.9728,0.0597 v 0 c 0.2521,0.2851 0.2254,0.7206 -0.0597,0.9728 v 0 c -0.2851,0.2521 -0.7207,0.2254 -0.9728,-0.0597 0.2399,0.1483 0.34,0.1612 0.3033,0.1352 v 0 c -0.3428,-0.0602 -0.5718,-0.3869 -0.5116,-0.7296 v 0 c 0.0602,-0.3428 0.3868,-0.5719 0.7296,-0.5117 v 0 c 0.3427,0.0602 0.5718,0.3869 0.5116,0.7296 v 0 c -0.0602,0.3428 -0.3868,0.5719 -0.7296,0.5117 -0.0953,-0.0569 -0.3201,-0.1214 -0.7178,-0.1965 v 0 c -0.2817,-0.0253 -0.4896,-0.2741 -0.4643,-0.5557 v 0 c 0.0252,-0.2817 0.274,-0.4896 0.5556,-0.4643 0.4138,-0.002 0.6858,-0.0117 0.8425,-0.0251 0.0922,-0.003 0.2586,0.0285 0.5132,0.1933 0.0623,0.8845 -0.362,1.1813 -0.4451,1.2166 -0.2368,0.1127 -0.7597,0.2031 -1.3085,0.2978 -0.6195,-0.01 -1.4279,-0.0102 -2.3555,-0.1178 -2.0193,-0.2365 -4.3861,-0.7936 -4.8582,-1.0216 v 0 c -0.3773,-0.138 -0.5714,-0.5556 -0.4334,-0.9329 v 0 c 0.1379,-0.3773 0.5556,-0.5714 0.9329,-0.4335 z" /><path
           id="path106"
           style="fill:#000000;fill-opacity:1;fill-rule:nonzero;stroke:none"
           d="m 394.5912,532.3267 c -0.1949,-0.421 -0.3791,-1.3271 -0.456,-2.162 v 0 c -0.0284,-0.4357 0.3017,-0.812 0.7374,-0.8404 v 0 c 0.4357,-0.0285 0.812,0.3017 0.8404,0.7374 v 0 c 0.0285,0.4357 -0.3016,0.8119 -0.7374,0.8404 v 0 c -0.4357,0.0284 -0.8119,-0.3017 -0.8404,-0.7374 0.004,-0.66 0.0767,-1.3868 0.2863,-1.8448 v 0 c 0.1298,-0.3355 0.5069,-0.5024 0.8424,-0.3726 v 0 c 0.3355,0.1297 0.5023,0.5068 0.3726,0.8423 v 0 c -0.1297,0.3356 -0.5068,0.5024 -0.8423,0.3727 v 0 c -0.3356,-0.1298 -0.5024,-0.5069 -0.3727,-0.8424 0.0624,-0.1238 0.1828,-0.299 0.2998,-0.4039 v 0 c 0.2467,-0.2346 0.637,-0.2248 0.8716,0.0219 v 0 c 0.2347,0.2467 0.2249,0.6369 -0.0218,0.8716 v 0 c -0.2467,0.2346 -0.637,0.2248 -0.8716,-0.0219 v 0 c -0.2347,-0.2467 -0.2249,-0.6369 0.0218,-0.8716 0.1363,-0.1006 0.4221,-0.2044 0.6111,-0.1989 v 0 c 0.321,0.0127 0.5709,0.2832 0.5582,0.6042 v 0 c -0.0127,0.321 -0.2833,0.571 -0.6043,0.5583 v 0 c -0.321,-0.0128 -0.5709,-0.2833 -0.5582,-0.6043 v 0 c 0.0127,-0.321 0.2833,-0.5709 0.6043,-0.5582 0.3061,0.0667 0.633,0.3077 0.8543,0.6055 v 0 c 0.1807,0.2175 0.1509,0.5403 -0.0667,0.721 v 0 c -0.2175,0.1807 -0.5403,0.1508 -0.721,-0.0667 -0.1773,-0.1821 -0.1684,-0.1533 -0.1146,-0.0974 0.0657,6e-4 0.2433,-0.0569 0.2846,-0.0681 0.0263,-0.0185 0.069,-0.0632 0.0675,-0.0218 -0.0457,0.2027 -0.009,0.6875 0.0765,1.272 0.0266,0.75 0.1357,1.4816 0.2123,1.685 v 0 c 0.1602,0.3684 -0.009,0.7969 -0.377,0.9571 v 0 c -0.3684,0.1602 -0.7969,-0.009 -0.9571,-0.377" /><path
           id="path108"
           style="fill:#000000;fill-opacity:1;fill-rule:nonzero;stroke:none"
           d="m 398.6454,531.5581 c -0.005,-0.0119 -0.2071,-0.178 -0.4531,-0.2583 v 0 c 0.4105,0.0336 0.7162,0.3937 0.6826,0.8042 v 0 c -0.0336,0.4106 -0.3937,0.7163 -0.8043,0.6827 v 0 c -0.4106,-0.0336 -0.7162,-0.3937 -0.6826,-0.8043 v 0 c 0.0336,-0.4106 0.3937,-0.7162 0.8043,-0.6826 -0.3234,0.0506 -0.6641,0.3325 -0.7056,0.3937 v 0 c 0.16,-0.3907 0.6065,-0.5776 0.9972,-0.4175 v 0 c 0.3907,0.16 0.5776,0.6065 0.4175,0.9972 v 0 c -0.16,0.3907 -0.6065,0.5776 -0.9972,0.4175 v 0 c -0.3907,-0.16 -0.5776,-0.6065 -0.4175,-0.9972 -0.0189,0.046 -0.0283,-0.008 -0.0339,-0.1896 v 0 c 0.0176,-0.4423 0.3904,-0.7866 0.8328,-0.7691 v 0 c 0.4423,0.0176 0.7866,0.3905 0.769,0.8328 v 0 c -0.0176,0.4423 -0.3904,0.7866 -0.8327,0.769 v 0 c -0.4423,-0.0175 -0.7867,-0.3904 -0.7691,-0.8327 -0.009,-0.3764 -0.0559,-0.9532 -0.0965,-1.4969 v 0 c -0.0141,-0.4834 0.3663,-0.8867 0.8497,-0.9008 v 0 c 0.4834,-0.0142 0.8868,0.3663 0.9009,0.8497 v 0 c 0.0141,0.4834 -0.3663,0.8867 -0.8497,0.9008 v 0 c -0.4834,0.0142 -0.8868,-0.3663 -0.9009,-0.8497 0.096,-1.1677 0.4948,-1.7847 -0.0586,-2.8498 v 0 c -0.1484,-0.2408 -0.0735,-0.5562 0.1673,-0.7046 v 0 c 0.2408,-0.1483 0.5562,-0.0734 0.7045,0.1674 0.9162,1.32 0.7802,2.4059 0.9374,3.3359 -0.009,0.5374 -0.0106,1.1613 -0.0523,1.6116 -0.0219,0.231 -0.0673,0.4962 -0.1532,0.7057 -0.0749,0.143 -0.4569,0.467 -0.8308,0.5135 -0.2965,-0.0845 -0.558,-0.3017 -0.6336,-0.4186 v 0 c -0.2237,-0.3337 -0.1345,-0.7855 0.1992,-1.0092 v 0 c 0.3337,-0.2237 0.7856,-0.1345 1.0092,0.1992 z" /><path
           id="path110"
           style="fill:#000000;fill-opacity:1;fill-rule:nonzero;stroke:none"
           d="m 384.3078,521.6107 c 0.2574,0.0366 2.144,0.096 4.5823,0.3716 v 0 c 0.4572,0.0585 0.7803,0.4765 0.7218,0.9336 v 0 c -0.0585,0.4572 -0.4765,0.7803 -0.9336,0.7218 v 0 c -0.4571,-0.0585 -0.7803,-0.4765 -0.7218,-0.9336 v 0 c 0.0585,-0.4571 0.4765,-0.7803 0.9336,-0.7218 1.1767,0.1066 2.4351,0.3158 3.5546,0.4499 v 0 c 0.527,0.0842 0.886,0.5797 0.8018,1.1067 v 0 c -0.0842,0.5271 -0.5797,0.886 -1.1067,0.8018 v 0 c -0.5271,-0.0841 -0.8861,-0.5796 -0.8019,-1.1067 v 0 c 0.0842,-0.527 0.5797,-0.886 1.1068,-0.8018 1.7845,0.2497 3.1691,0.2933 4.192,0.3008 v 0 c 0.5926,0.0252 1.0526,0.526 1.0274,1.1186 v 0 c -0.0251,0.5926 -0.5259,1.0526 -1.1185,1.0274 v 0 c -0.5926,-0.0252 -1.0526,-0.5259 -1.0274,-1.1185 v 0 c 0.0251,-0.5926 0.5259,-1.0526 1.1185,-1.0275 0.5808,0.0681 1.007,0.1119 1.2503,0.1333 0.3011,0.0493 0.5634,0.1442 0.644,0.2239 0.027,0.0209 0.0128,0.038 -0.0155,0.0549 v 0 c 0.3721,0 0.6738,0.3016 0.6738,0.6737 v 0 c 0,0.3721 -0.3017,0.6737 -0.6738,0.6737 v 0 c -0.3721,0 -0.6737,-0.3016 -0.6737,-0.6737 v 0 c 0,-0.3721 0.3016,-0.6737 0.6737,-0.6737 -0.0224,0.0192 -0.5452,0.3699 -0.4896,1.0313 v 0 c -0.1998,-0.2779 -0.1364,-0.6652 0.1416,-0.865 v 0 c 0.2779,-0.1998 0.6653,-0.1365 0.865,0.1415 v 0 c 0.1998,0.278 0.1365,0.6653 -0.1415,0.8651 v 0 c -0.278,0.1998 -0.6653,0.1364 -0.8651,-0.1416 0.2131,0.1414 0.2464,0.1193 0.1957,0.0587 v 0 c -0.2603,-0.1108 -0.3815,-0.4115 -0.2707,-0.6717 v 0 c 0.1107,-0.2602 0.4114,-0.3814 0.6716,-0.2707 v 0 c 0.2602,0.1107 0.3814,0.4114 0.2707,0.6717 v 0 c -0.1107,0.2602 -0.4114,0.3814 -0.6716,0.2707 -0.1497,-0.0641 -0.368,-0.1645 -0.6924,-0.3057 v 0 c -0.2593,-0.1128 -0.3779,-0.4145 -0.2651,-0.6738 v 0 c 0.1129,-0.2593 0.4146,-0.378 0.6739,-0.2651 0.3321,0.1446 0.5519,0.2457 0.6851,0.3025 0.0865,-0.002 0.187,0.006 0.399,0.1458 0.0708,0.6821 -0.4617,1.0353 -0.5313,1.0533 -0.026,0.0173 -0.0755,0.0311 -0.1046,0.0461 -0.0956,0.0633 -0.1981,0.1202 -0.3371,0.2076 -0.3413,0.0717 -0.8794,0.1155 -1.5028,0.1332 -1.04,-0.0801 -2.5461,-0.2057 -4.4065,-0.5382 -1.1448,-0.2277 -2.3616,-0.5189 -3.4613,-0.7031 -2.3761,-0.3405 -4.2387,-0.4694 -4.7188,-0.6145 v 0 c -0.39,-0.0961 -0.6283,-0.4902 -0.5322,-0.8802 v 0 c 0.0961,-0.3901 0.4902,-0.6284 0.8803,-0.5323 z" /><path
           id="path112"
           style="fill:#000000;fill-opacity:1;fill-rule:nonzero;stroke:none"
           d="m 389.0309,518.4863 c 0.3633,0.1631 1.1147,0.422 1.7452,0.4983 v 0 c 0.2828,0.004 0.5088,0.2365 0.5048,0.5192 v 0 c -0.004,0.2828 -0.2365,0.5088 -0.5192,0.5048 v 0 c -0.2828,-0.004 -0.5088,-0.2364 -0.5048,-0.5192 v 0 c 0.004,-0.2828 0.2364,-0.5088 0.5192,-0.5048 0.3987,-0.0367 0.5647,-0.015 0.5051,-0.0979 v 0 c 0.2962,-0.1983 0.6972,-0.119 0.8956,0.1772 v 0 c 0.1984,0.2962 0.1191,0.6972 -0.1772,0.8956 v 0 c -0.2962,0.1984 -0.6972,0.1191 -0.8956,-0.1772 v 0 c -0.1983,-0.2962 -0.119,-0.6972 0.1772,-0.8956 -0.02,0.041 -0.0703,0.1039 -0.0598,-0.01 v 0 c 0.0643,-0.3589 0.4074,-0.5976 0.7663,-0.5332 v 0 c 0.3588,0.0644 0.5975,0.4075 0.5331,0.7663 v 0 c -0.0643,0.3589 -0.4074,0.5976 -0.7663,0.5332 v 0 c -0.3588,-0.0644 -0.5975,-0.4075 -0.5331,-0.7663 0.0207,-0.1216 0.0118,-0.2444 -0.0212,-0.4232 0.005,-0.6052 -0.9824,-1.59 -1.7689,-2.5538 -0.3689,-0.4487 -0.7084,-0.8719 -0.9236,-1.2315 -0.1477,-0.2221 -0.2669,-0.5151 -0.2812,-0.7634 0.005,-0.1378 0.0759,-0.3575 0.1592,-0.4828 v 0 c 0.1818,-0.235 0.5196,-0.2782 0.7546,-0.0965 v 0 c 0.235,0.1817 0.2782,0.5196 0.0965,0.7546 v 0 c -0.1817,0.235 -0.5195,0.2782 -0.7546,0.0965 v 0 c -0.235,-0.1817 -0.2782,-0.5196 -0.0965,-0.7546 0.0887,-0.1096 0.2579,-0.2355 0.3833,-0.2929 v 0 c 0.2797,-0.1136 0.5984,0.021 0.712,0.3007 v 0 c 0.1136,0.2797 -0.0211,0.5984 -0.3007,0.712 v 0 c -0.2797,0.1135 -0.5985,-0.0211 -0.712,-0.3008 v 0 c -0.1136,-0.2796 0.0211,-0.5984 0.3007,-0.7119 0.4916,-0.1938 1.1241,-0.1234 1.6074,-0.1306 v 0 c 0.3518,0.0179 0.6225,0.3175 0.6046,0.6692 v 0 c -0.0178,0.3518 -0.3174,0.6224 -0.6692,0.6046 v 0 c -0.3517,-0.0178 -0.6224,-0.3175 -0.6045,-0.6692 v 0 c 0.0178,-0.3517 0.3174,-0.6224 0.6691,-0.6046 1.6421,0.1266 3.4521,0.0832 4.6182,0.1249 v 0 c 0.2828,0 0.512,0.2292 0.512,0.512 v 0 c 0,0.2828 -0.2292,0.5121 -0.512,0.5121 -1.1343,0.0416 -2.9761,0.1692 -4.683,0.1248 -0.5583,-0.06 -1.0151,-0.1837 -1.1313,-0.1305 -0.0211,0.002 0.0401,-0.0463 0.0578,-0.0634 0.01,-0.0302 0.044,-0.1385 0.0466,-0.1499 -0.02,0.005 -0.011,0.0302 0.0839,0.1851 0.1947,0.2759 0.5171,0.6282 0.9069,1.0532 0.8058,0.8705 2.0008,1.9958 2.2592,3.0869 0.0334,0.2655 0.034,0.5954 -0.0139,0.8562 -0.0581,0.2684 -0.2551,0.6443 -0.5218,0.85 -0.4795,0.1984 -0.9369,0.0954 -1.2374,0.0487 -0.775,0.0565 -1.6773,-0.0851 -2.0776,-0.1095 v 0 c -0.3901,-0.0958 -0.6288,-0.4897 -0.533,-0.8798 v 0 c 0.0958,-0.3902 0.4897,-0.6288 0.8799,-0.533 z" /><path
           id="path114"
           style="fill:#000000;fill-opacity:1;fill-rule:nonzero;stroke:none"
           d="m 170.1977,536.9989 c 0.8692,-0.1357 2.8593,0.0346 5.0673,0.1656 v 0 c 0.439,0.0306 0.77,0.4114 0.7394,0.8504 v 0 c -0.0307,0.439 -0.4115,0.77 -0.8505,0.7393 v 0 c -0.439,-0.0306 -0.77,-0.4114 -0.7393,-0.8504 v 0 c 0.0307,-0.439 0.4114,-0.77 0.8504,-0.7393 0.8292,0.0295 1.6855,0.0534 2.5323,0.0554 v 0 c 0.4864,0.0174 0.8666,0.4257 0.8492,0.9121 v 0 c -0.0173,0.4864 -0.4257,0.8666 -0.912,0.8492 v 0 c -0.4864,-0.0173 -0.8666,-0.4257 -0.8493,-0.912 v 0 c 0.0174,-0.4864 0.4257,-0.8666 0.9121,-0.8493 0.8452,0.002 1.6551,-0.0179 2.4121,-0.0774 v 0 c 0.5319,-0.0221 0.981,0.391 1.0032,0.9229 v 0 c 0.0222,0.5319 -0.391,0.981 -0.9229,1.0031 v 0 c -0.5318,0.0222 -0.981,-0.391 -1.0031,-0.9228 v 0 c -0.0222,-0.5319 0.391,-0.981 0.9228,-1.0032 0.7562,-0.0188 1.4016,-0.071 1.959,-0.1798 v 0 c 0.5005,-0.1075 0.9933,0.2112 1.1008,0.7117 v 0 c 0.1075,0.5004 -0.2112,0.9933 -0.7116,1.1007 v 0 c -0.5005,0.1075 -0.9934,-0.2111 -1.1008,-0.7116 v 0 c -0.1075,-0.5005 0.2111,-0.9933 0.7116,-1.1008 0.5596,-0.0739 0.9024,-0.1522 1.1484,-0.3051 v 0 c 0.3467,-0.2716 0.848,-0.2107 1.1196,0.1361 v 0 c 0.2716,0.3468 0.2106,0.8481 -0.1362,1.1196 v 0 c -0.3467,0.2716 -0.848,0.2106 -1.1196,-0.1361 v 0 c -0.2716,-0.3468 -0.2106,-0.8481 0.1362,-1.1196 0.1374,0.0151 0.2341,0.0528 0.3564,0.0416 v 0 c 0.1639,-0.2304 0.4836,-0.2844 0.7141,-0.1205 v 0 c 0.2304,0.1639 0.2843,0.4836 0.1204,0.7141 -0.0274,0.1993 -0.12,0.4295 -0.2079,0.6209 -0.4285,0.3753 -1.0825,0.6735 -1.7423,0.8614 -0.6619,0.1531 -1.4585,0.247 -2.2678,0.2934 -0.8083,0.006 -1.6873,-0.0292 -2.5548,-0.0872 -0.8668,-0.0592 -1.7478,-0.1409 -2.5807,-0.227 -2.2253,-0.1788 -4.135,-0.3908 -4.7515,-0.3151 v 0 c -0.3977,0.0566 -0.766,-0.22 -0.8226,-0.6177 v 0 c -0.0566,-0.3977 0.2199,-0.766 0.6176,-0.8226 z" /><path
           id="path116"
           style="fill:#000000;fill-opacity:1;fill-rule:nonzero;stroke:none"
           d="m 292.4912,417.2045 c -0.1866,-0.6994 -0.1558,-2.0057 0.0202,-3.4874 v 0 c 0.0605,-0.4411 0.467,-0.7496 0.9081,-0.6891 v 0 c 0.441,0.0604 0.7496,0.467 0.6891,0.908 v 0 c -0.0604,0.4411 -0.467,0.7496 -0.9081,0.6892 v 0 c -0.441,-0.0605 -0.7495,-0.4671 -0.6891,-0.9081 0.0747,-0.7418 0.188,-1.5596 0.3292,-2.3793 v 0 c 0.0987,-0.4798 0.5677,-0.7886 1.0474,-0.6898 v 0 c 0.4797,0.0988 0.7885,0.5677 0.6898,1.0475 v 0 c -0.0988,0.4797 -0.5678,0.7885 -1.0475,0.6897 v 0 c -0.4797,-0.0988 -0.7885,-0.5677 -0.6897,-1.0474 0.2035,-1.0195 0.4592,-2.0826 0.7462,-3.0599 v 0 c 0.1442,-0.4791 0.6495,-0.7507 1.1286,-0.6066 v 0 c 0.4792,0.1442 0.7508,0.6495 0.6067,1.1286 v 0 c -0.1442,0.4792 -0.6495,0.7508 -1.1287,0.6066 v 0 c -0.4791,-0.1441 -0.7507,-0.6494 -0.6066,-1.1286 0.5365,-1.3247 1.159,-2.5494 1.8059,-3.3385 v 0 c 0.1505,-0.2394 0.4666,-0.3115 0.706,-0.161 v 0 c 0.2394,0.1506 0.3115,0.4667 0.1609,0.7061 -0.3569,0.8072 -0.6712,1.9726 -0.9376,3.3155 -0.2864,0.9287 -0.5356,1.913 -0.7442,2.8954 -0.1886,0.7817 -0.3455,1.5355 -0.4692,2.2406 -0.2206,1.4113 -0.2985,2.496 -0.2058,2.9164 v 0 c 0.0972,0.3898 -0.14,0.7846 -0.5298,0.8818 v 0 c -0.3898,0.0972 -0.7846,-0.1399 -0.8818,-0.5297 z" /><path
           id="path118"
           style="fill:#000000;fill-opacity:1;fill-rule:nonzero;stroke:none"
           d="m 284.5917,430.3326 c 0.1631,-0.0827 0.2943,-1.1549 0.1468,-1.2879 v 0 c 0.3493,0.2097 0.4624,0.6629 0.2526,1.0122 v 0 c -0.2097,0.3492 -0.6629,0.4623 -1.0121,0.2526 v 0 c -0.3493,-0.2098 -0.4624,-0.6629 -0.2527,-1.0122 v 0 c 0.2098,-0.3493 0.663,-0.4624 1.0122,-0.2526 -0.0675,-0.036 -0.0996,-0.0519 -0.0476,-0.0424 v 0 c 0.4,0.1031 0.6407,0.5109 0.5377,0.9109 v 0 c -0.1031,0.4001 -0.5109,0.6408 -0.911,0.5377 v 0 c -0.4,-0.103 -0.6407,-0.5109 -0.5377,-0.9109 v 0 c 0.1031,-0.4 0.5109,-0.6408 0.911,-0.5377 0.1203,0.0248 0.3288,0.0587 0.6283,0.1024 v 0 c 0.4185,0.071 0.7002,0.4678 0.6292,0.8863 v 0 c -0.071,0.4185 -0.4678,0.7002 -0.8862,0.6292 v 0 c -0.4185,-0.0709 -0.7003,-0.4677 -0.6293,-0.8862 v 0 c 0.071,-0.4185 0.4678,-0.7002 0.8863,-0.6293 0.6043,0.0891 1.4928,0.2025 2.5176,0.3247 0.822,0.0803 1.7235,0.1645 2.6286,0.2446 0.9046,0.0818 1.8073,0.1588 2.6317,0.2219 0.8212,0.0917 1.5571,0.1692 2.1339,0.2239 0.5691,0.129 0.9554,0.2332 1.0899,0.3069 v 0 c 0.4091,-0.004 0.7437,0.3248 0.7475,0.7339 v 0 c 0.004,0.409 -0.3248,0.7437 -0.7339,0.7474 v 0 c -0.409,0.004 -0.7437,-0.3248 -0.7475,-0.7338 v 0 c -0.004,-0.4091 0.3249,-0.7438 0.7339,-0.7475 0.024,0.0191 -0.0307,0.0442 -0.1233,0.0855 v 0 c 0.3578,-0.1206 0.7455,0.0716 0.8662,0.4293 v 0 c 0.1206,0.3578 -0.0716,0.7455 -0.4294,0.8661 v 0 c -0.3577,0.1207 -0.7455,-0.0716 -0.8661,-0.4293 v 0 c -0.1206,-0.3577 0.0716,-0.7455 0.4293,-0.8661 -0.2512,0.1869 -0.1296,1.1732 -0.0447,1.2005 v 0 c -0.3164,-0.1398 -0.4596,-0.5096 -0.3199,-0.8261 v 0 c 0.1398,-0.3164 0.5096,-0.4597 0.8261,-0.3199 v 0 c 0.3164,0.1398 0.4596,0.5096 0.3199,0.826 v 0 c -0.1398,0.3165 -0.5096,0.4597 -0.8261,0.32 0.0459,-0.0264 -0.0145,-0.08 -0.1905,-0.153 v 0 c -0.2775,-0.0542 -0.4586,-0.3231 -0.4044,-0.6007 v 0 c 0.0542,-0.2775 0.3231,-0.4586 0.6006,-0.4045 0.2091,0.002 0.3723,0.003 0.4955,0.01 0.131,0.0476 0.2585,1.0471 -0.0193,1.243 -0.1199,0.0505 -0.2342,0.0806 -0.3003,0.1005 -0.2253,0.077 -0.6829,0.1209 -1.2806,0.1425 -0.5886,-0.0518 -1.341,-0.1271 -2.1685,-0.2154 -0.8243,-0.1169 -1.7307,-0.2481 -2.6336,-0.3834 -0.9026,-0.1372 -1.8072,-0.2793 -2.6281,-0.4169 -1.0288,-0.1504 -1.9387,-0.2947 -2.562,-0.4147 -0.3137,-0.0602 -0.576,-0.1188 -0.746,-0.1697 -0.0903,-0.0271 -0.2211,-0.0761 -0.3367,-0.1409 -0.1957,-0.162 -0.0621,-1.2573 0.1588,-1.359 v 0 c 0.3817,-0.1254 0.7927,0.0824 0.9181,0.4641 v 0 c 0.1253,0.3817 -0.0825,0.7927 -0.4642,0.918 z" /><path
           id="path120"
           style="fill:#000000;fill-opacity:1;fill-rule:nonzero;stroke:none"
           d="m 288.0263,430.5946 c 0.0783,-0.4513 -0.145,-1.509 -0.2913,-2.5703 v 0 c -0.0523,-0.4218 0.2472,-0.8062 0.669,-0.8585 v 0 c 0.4218,-0.0523 0.8062,0.2472 0.8585,0.669 v 0 c 0.0523,0.4218 -0.2472,0.8061 -0.669,0.8585 v 0 c -0.4218,0.0523 -0.8062,-0.2472 -0.8585,-0.669 -0.0931,-0.6382 -0.1563,-1.3288 -0.0848,-1.8723 v 0 c 0.0765,-0.4418 0.4967,-0.7379 0.9386,-0.6614 v 0 c 0.4418,0.0765 0.7379,0.4967 0.6614,0.9385 v 0 c -0.0765,0.4419 -0.4967,0.738 -0.9385,0.6615 v 0 c -0.4419,-0.0765 -0.738,-0.4967 -0.6615,-0.9386 0.092,-0.2253 0.245,-0.5059 0.4188,-0.6808 v 0 c 0.2097,-0.2995 0.6224,-0.3723 0.9219,-0.1627 v 0 c 0.2995,0.2097 0.3723,0.6225 0.1626,0.922 v 0 c -0.2097,0.2995 -0.6224,0.3723 -0.9219,0.1626 v 0 c -0.2995,-0.2097 -0.3723,-0.6225 -0.1626,-0.9219 0.1855,-0.1627 0.5104,-0.3258 0.7658,-0.3369 v 0 c 0.2774,-0.0552 0.5469,0.125 0.6021,0.4023 v 0 c 0.0552,0.2774 -0.125,0.5469 -0.4023,0.6021 -0.0229,0.0443 0.0907,0.0298 0.1189,0.0918 0.0166,0.0496 0.0664,0.0681 0.0967,0.1988 -0.0765,0.3112 -0.0489,0.7991 0.0123,1.4055 0.111,1.0125 0.3217,2.2094 0.1998,2.9927 v 0 c -0.0643,0.3965 -0.4379,0.6659 -0.8345,0.6016 v 0 c -0.3965,-0.0643 -0.6658,-0.4379 -0.6015,-0.8345 z" /><path
           id="path122"
           style="fill:#000000;fill-opacity:1;fill-rule:nonzero;stroke:none"
           d="m 291.0119,430.7234 c 0.1752,-0.7695 0.1694,-1.6615 0.1977,-2.6106 v 0 c 0.023,-0.437 0.396,-0.7726 0.833,-0.7495 v 0 c 0.4371,0.023 0.7727,0.396 0.7496,0.833 v 0 c -0.0231,0.4371 -0.396,0.7727 -0.8331,0.7496 v 0 c -0.437,-0.0231 -0.7726,-0.396 -0.7495,-0.8331 0.0358,-0.632 0.0899,-1.3069 0.225,-1.9262 v 0 c 0.0921,-0.4236 0.5102,-0.6924 0.9338,-0.6003 v 0 c 0.4236,0.0921 0.6924,0.5102 0.6003,0.9338 v 0 c -0.0921,0.4237 -0.5102,0.6924 -0.9338,0.6003 v 0 c -0.4236,-0.0921 -0.6924,-0.5102 -0.6003,-0.9338 0.2017,-0.4933 0.4845,-1.006 0.8431,-1.3963 v 0 c 0.1546,-0.2367 0.472,-0.3033 0.7087,-0.1486 v 0 c 0.2367,0.1547 0.3033,0.472 0.1486,0.7087 -0.1351,0.3654 -0.1638,0.7232 -0.1663,1.1696 -0.11,0.5082 -0.1465,1.0605 -0.1765,1.6763 -0.0705,0.9232 -0.1193,1.9497 -0.3689,2.8798 v 0 c -0.0974,0.3898 -0.4923,0.6268 -0.882,0.5294 v 0 c -0.3898,-0.0974 -0.6268,-0.4923 -0.5294,-0.8821 z" /><path
           id="path124"
           style="fill:#000000;fill-opacity:1;fill-rule:nonzero;stroke:none"
           d="m 191.7952,545.2288 c -0.2372,0.0166 -0.361,0.0317 -0.4154,0.047 v 0 c -0.3966,0.0841 -0.7863,-0.1693 -0.8704,-0.566 v 0 c -0.084,-0.3966 0.1694,-0.7863 0.566,-0.8704 v 0 c 0.3967,-0.084 0.7864,0.1694 0.8704,0.566 v 0 c 0.0841,0.3967 -0.1693,0.7864 -0.566,0.8704 -0.0109,-10e-4 0.4536,-0.6507 0.2456,-1.1909 v 0 c 0.3017,0.2764 0.3221,0.7451 0.0457,1.0468 v 0 c -0.2764,0.3017 -0.7451,0.3222 -1.0468,0.0457 v 0 c -0.3017,-0.2764 -0.3222,-0.7451 -0.0458,-1.0468 v 0 c 0.2765,-0.3017 0.7452,-0.3222 1.0469,-0.0457 -0.2053,-0.106 -0.004,-0.0706 0.455,-0.003 v 0 c 0.4116,0.0652 0.6924,0.4516 0.6272,0.8632 v 0 c -0.0651,0.4115 -0.4516,0.6923 -0.8631,0.6272 v 0 c -0.4116,-0.0652 -0.6924,-0.4516 -0.6272,-0.8632 v 0 c 0.0651,-0.4115 0.4516,-0.6923 0.8631,-0.6272 0.9305,0.1389 2.5558,0.3162 4.2966,0.5151 1.5237,0.1701 3.0281,0.3782 4.124,0.4828 0.7731,0.1343 1.2719,0.2166 1.3799,0.2212 v 0 c 0.3542,-0.097 0.7201,0.1115 0.8171,0.4658 v 0 c 0.097,0.3542 -0.1115,0.72 -0.4658,0.8171 v 0 c -0.3542,0.097 -0.72,-0.1115 -0.8171,-0.4658 v 0 c -0.097,-0.3543 0.1115,-0.7201 0.4658,-0.8171 9e-4,0.0168 -0.1507,0.1282 -0.2405,0.2506 v 0 c 0.1757,-0.2983 0.5599,-0.3976 0.8582,-0.2219 v 0 c 0.2982,0.1758 0.3975,0.56 0.2218,0.8582 v 0 c -0.1757,0.2983 -0.56,0.3976 -0.8582,0.2219 v 0 c -0.2983,-0.1758 -0.3976,-0.56 -0.2218,-0.8582 -0.0443,0.1702 -4e-4,0.4829 0.0326,0.5284 v 0 c -0.18,-0.2707 -0.1065,-0.636 0.1642,-0.816 v 0 c 0.2707,-0.1799 0.636,-0.1064 0.816,0.1643 v 0 c 0.18,0.2706 0.1064,0.636 -0.1642,0.8159 v 0 c -0.2707,0.18 -0.636,0.1065 -0.816,-0.1642 0.0379,-0.0133 -0.0261,-0.0911 -0.2755,-0.263 v 0 c -0.2453,-0.1408 -0.33,-0.4537 -0.1892,-0.699 v 0 c 0.1408,-0.2452 0.4538,-0.3299 0.699,-0.1891 0.3202,0.1552 0.5849,0.3269 0.7466,0.5004 0.0938,0.137 0.1478,0.5264 0.0646,0.7618 -0.125,0.1819 -0.3605,0.3413 -0.4863,0.3928 -0.3986,0.1433 -1.0885,0.1587 -1.9052,0.1228 -1.1292,-0.1331 -2.6356,-0.3661 -4.1356,-0.5577 -1.735,-0.2165 -3.3786,-0.4142 -4.3472,-0.5768 -0.4904,-0.0824 -0.8957,-0.1792 -1.222,-0.3969 -0.2655,-0.5929 0.2615,-1.2917 0.4532,-1.3361 0.1483,-0.0275 0.3673,-0.0488 0.6313,-0.0627 v 0 c 0.4009,-0.0245 0.7458,0.2808 0.7703,0.6818 v 0 c 0.0244,0.4009 -0.2808,0.7458 -0.6818,0.7703" /><path
           id="path126"
           style="fill:#000000;fill-opacity:1;fill-rule:nonzero;stroke:none"
           d="m 194.3913,544.5919 c 0.3869,-1.2118 0.0169,-5.3649 0.7916,-6.6295 v 0 c 0.1552,-0.2483 0.4823,-0.3237 0.7306,-0.1685 v 0 c 0.2482,0.1552 0.3237,0.4823 0.1685,0.7306 -0.4828,0.7472 0.0193,4.833 -0.2777,6.4135 v 0 c -0.0956,0.3902 -0.4894,0.629 -0.8795,0.5334 v 0 c -0.3902,-0.0955 -0.6291,-0.4893 -0.5335,-0.8795 z" /><path
           id="path128"
           style="fill:#000000;fill-opacity:1;fill-rule:nonzero;stroke:none"
           d="m 199.3698,544.009 c 0.003,0.0982 0,0.2063 -0.006,0.284 v 0 c -0.0595,0.4047 -0.4358,0.6844 -0.8405,0.6248 v 0 c -0.4046,-0.0596 -0.6843,-0.4359 -0.6247,-0.8405 v 0 c 0.0596,-0.4046 0.4359,-0.6843 0.8405,-0.6248 v 0 c 0.4046,0.0596 0.6843,0.4359 0.6247,0.8405 -0.0115,0.0956 -0.0884,0.3162 -0.231,0.5089 v 0 c -0.2977,0.2909 -0.7748,0.2853 -1.0657,-0.0124 v 0 c -0.2909,-0.2977 -0.2854,-0.7749 0.0123,-1.0657 v 0 c 0.2977,-0.2909 0.7749,-0.2854 1.0658,0.0123 v 0 c 0.2909,0.2977 0.2853,0.7749 -0.0124,1.0658 -0.168,0.128 -0.6478,0.2166 -0.8848,0.1428 v 0 c -0.375,-0.1887 -0.526,-0.6458 -0.3372,-1.0208 v 0 c 0.1888,-0.375 0.6458,-0.526 1.0209,-0.3372 v 0 c 0.375,0.1887 0.526,0.6458 0.3372,1.0208 v 0 c -0.1888,0.375 -0.6458,0.526 -1.0209,0.3372 -0.1015,-0.0572 -0.266,-0.2085 -0.3168,-0.2754 v 0 c -0.2327,-0.3539 -0.1345,-0.8293 0.2193,-1.062 v 0 c 0.3538,-0.2327 0.8293,-0.1345 1.062,0.2193 v 0 c 0.2327,0.3539 0.1345,0.8293 -0.2194,1.062 v 0 c -0.3538,0.2327 -0.8293,0.1345 -1.0619,-0.2193 -0.0562,-0.0844 -0.113,-0.2032 -0.1407,-0.2728 v 0 c -0.1322,-0.41 0.0929,-0.8495 0.5029,-0.9817 v 0 c 0.4099,-0.1322 0.8494,0.093 0.9816,0.5029 v 0 c 0.1322,0.41 -0.0929,0.8495 -0.5029,0.9817 v 0 c -0.4099,0.1322 -0.8494,-0.093 -0.9816,-0.5029 -0.1791,-0.6482 -0.1232,-2.101 -0.1101,-3.6212 v 0 c 0.003,-0.4287 0.3536,-0.7735 0.7822,-0.7701 v 0 c 0.4287,0.003 0.7735,0.3536 0.7701,0.7822 v 0 c -0.003,0.4287 -0.3535,0.7735 -0.7822,0.7701 v 0 c -0.4287,-0.003 -0.7735,-0.3535 -0.7701,-0.7822 0.0952,-0.9127 0.1755,-1.8529 0.1886,-2.6742 v 0 c -0.0256,-0.2816 0.1819,-0.5307 0.4636,-0.5563 v 0 c 0.2816,-0.0256 0.5307,0.1819 0.5563,0.4635 0.1659,0.8578 0.263,1.8534 0.3438,2.7791 -0.0109,1.5438 -0.0657,2.8865 0.0425,3.1307 -0.001,0.0125 -0.0315,-0.0443 -0.0668,-0.0976 -0.0342,-0.0419 -0.1867,-0.1816 -0.3179,-0.2531 -0.1843,-0.0487 -0.6532,0.0374 -0.7872,0.134 -0.1462,0.1952 -0.2058,0.3662 -0.2047,0.3757 0.006,-0.008 0.0117,-0.0221 0.0167,-0.0866 v 0 c 0.005,-0.4017 0.3349,-0.7232 0.7365,-0.7181 v 0 c 0.4017,0.005 0.7233,0.3349 0.7182,0.7366" /><path
           id="path130"
           style="fill:#000000;fill-opacity:1;fill-rule:nonzero;stroke:none"
           d="m 194.451,534.9635 c -0.0392,-0.1522 -0.1518,-0.3417 -0.1655,-0.3648 v 0 c 0.3073,0.2681 0.339,0.7347 0.0709,1.042 v 0 c -0.2682,0.3073 -0.7348,0.3391 -1.0421,0.0709 v 0 c -0.3073,-0.2682 -0.339,-0.7348 -0.0709,-1.0421 v 0 c 0.2682,-0.3073 0.7348,-0.339 1.0421,-0.0708 -0.007,-0.007 -0.0203,-0.0206 0.0305,-3e-4 v 0 c 0.3709,0.184 0.5224,0.6338 0.3383,1.0047 v 0 c -0.184,0.3709 -0.6339,0.5224 -1.0047,0.3384 v 0 c -0.3709,-0.1841 -0.5224,-0.6339 -0.3384,-1.0048 v 0 c 0.1841,-0.3709 0.6339,-0.5224 1.0048,-0.3383 0.1152,0.051 0.2818,0.1027 0.5379,0.1699 v 0 c 0.4091,0.1202 0.6433,0.5492 0.5231,0.9583 v 0 c -0.1202,0.409 -0.5492,0.6433 -0.9583,0.5231 v 0 c -0.409,-0.1202 -0.6432,-0.5492 -0.5231,-0.9583 v 0 c 0.1202,-0.409 0.5492,-0.6433 0.9583,-0.5231 0.5191,0.1374 1.2327,0.2738 2.0538,0.3967 0.9861,0.1481 2.0716,0.266 3.0766,0.3236 1.0816,0.1408 2.0014,0.2103 2.5491,0.1707 v 0 c 0.3756,-0.0652 0.7329,0.1864 0.7982,0.562 v 0 c 0.0652,0.3756 -0.1864,0.7329 -0.562,0.7982 v 0 c -0.3755,0.0652 -0.7329,-0.1864 -0.7982,-0.5619 v 0 c -0.0652,-0.3756 0.1864,-0.733 0.562,-0.7983 0.262,-0.0128 0.2934,0.0186 0.2447,0.0704 v 0 c 0.196,-0.268 0.5722,-0.3263 0.8401,-0.1302 v 0 c 0.268,0.196 0.3262,0.5721 0.1302,0.8401 v 0 c -0.196,0.2679 -0.5722,0.3262 -0.8401,0.1302 v 0 c -0.268,-0.1961 -0.3262,-0.5722 -0.1302,-0.8401 -0.0105,0.0652 -0.0293,0.2851 -0.0145,0.3264 v 0 c -0.0965,-0.2919 0.0619,-0.6067 0.3538,-0.7031 v 0 c 0.2919,-0.0965 0.6067,0.0619 0.7031,0.3538 v 0 c 0.0965,0.2919 -0.0619,0.6067 -0.3538,0.7031 v 0 c -0.2919,0.0965 -0.6067,-0.0619 -0.7031,-0.3538 0.0253,0.004 0.0496,0.0147 -0.0117,-0.0608 v 0 c -0.2061,-0.1936 -0.2162,-0.5177 -0.0226,-0.7238 v 0 c 0.1936,-0.2061 0.5177,-0.2162 0.7238,-0.0225 0.1435,0.117 0.2913,0.3003 0.3674,0.4577 0.0656,0.195 0.0248,0.5504 -0.0732,0.7344 -0.2205,0.2865 -0.6193,0.4839 -0.9781,0.5785 -0.6927,0.1759 -1.7741,0.2264 -2.9144,0.2012 -1.0464,-0.096 -2.2004,-0.2572 -3.2176,-0.4452 -0.8489,-0.158 -1.641,-0.342 -2.2179,-0.5258 -0.2927,-0.094 -0.572,-0.2033 -0.7712,-0.309 -0.1042,-0.0567 -0.2412,-0.1475 -0.3339,-0.2293 -0.0997,-0.0982 -0.2613,-0.3604 -0.3086,-0.5836 v 0 c -0.0454,-0.3992 0.2413,-0.7595 0.6405,-0.8049 v 0 c 0.3992,-0.0454 0.7595,0.2413 0.8049,0.6405 z" /><path
           id="path132"
           style="fill:#000000;fill-opacity:1;fill-rule:nonzero;stroke:none"
           d="m 197.2733,531.0952 c 0.4604,0.2918 1.0674,0.5128 1.2734,0.3204 v 0 c 0.4296,-0.158 0.9061,0.0622 1.0641,0.4918 v 0 c 0.158,0.4297 -0.0622,0.9061 -0.4919,1.0641 v 0 c -0.4296,0.158 -0.906,-0.0622 -1.064,-0.4918 v 0 c -0.1581,-0.4297 0.0621,-0.9061 0.4918,-1.0641 -0.0361,0.0432 -0.1423,0.1429 -0.114,0.0648 v 0 c 0.1925,-0.4147 0.6847,-0.5948 1.0994,-0.4023 v 0 c 0.4146,0.1925 0.5947,0.6847 0.4022,1.0994 v 0 c -0.1925,0.4146 -0.6846,0.5947 -1.0993,0.4022 v 0 c -0.4147,-0.1925 -0.5948,-0.6847 -0.4023,-1.0993 0.0461,-0.0849 0.0621,-0.167 0.0738,-0.3446 v 0 c 0.0341,-0.4553 0.4308,-0.7967 0.8861,-0.7626 v 0 c 0.4552,0.0342 0.7966,0.4309 0.7625,0.8861 v 0 c -0.0341,0.4553 -0.4308,0.7967 -0.886,0.7625 v 0 c -0.4553,-0.0341 -0.7967,-0.4308 -0.7626,-0.886 0.0793,-0.3725 -0.1498,-0.986 -0.5012,-1.7219 -0.4365,-0.9321 -1.1926,-1.7502 -1.624,-2.3956 -0.1479,-0.1834 -0.3122,-0.4055 -0.4134,-0.6359 -0.048,-0.1339 -0.0762,-0.403 -0.0468,-0.5903 0.0538,-0.1829 0.2261,-0.4417 0.3566,-0.5595 0.5172,-0.3731 1.2697,-0.4741 1.8284,-0.5635 v 0 c 0.4729,-0.0454 0.8932,0.3011 0.9386,0.7741 v 0 c 0.0455,0.4729 -0.3011,0.8932 -0.7741,0.9386 v 0 c -0.4729,0.0455 -0.8932,-0.3011 -0.9386,-0.774 v 0 c -0.0454,-0.473 0.3011,-0.8932 0.7741,-0.9387 0.5229,-0.0627 1.0642,-0.0673 1.5302,-0.0722 v 0 c 0.4976,0.009 0.8934,0.4201 0.8842,0.9177 v 0 c -0.009,0.4975 -0.4202,0.8934 -0.9177,0.8841 v 0 c -0.4976,-0.009 -0.8935,-0.4201 -0.8842,-0.9177 v 0 c 0.009,-0.4975 0.4201,-0.8934 0.9177,-0.8841 0.4655,0.0173 0.8453,0.0348 1.1471,10e-4 v 0 c 0.4791,-0.0629 0.9185,0.2746 0.9814,0.7537 v 0 c 0.0629,0.4792 -0.2745,0.9186 -0.7537,0.9815 v 0 c -0.4791,0.0629 -0.9185,-0.2746 -0.9814,-0.7537 v 0 c -0.0629,-0.4792 0.2745,-0.9186 0.7537,-0.9815 0.3899,0.0763 0.4952,0.2 0.6321,0.0923 v 0 c 0.1196,-0.2563 0.4243,-0.367 0.6805,-0.2474 v 0 c 0.2563,0.1197 0.367,0.4244 0.2474,0.6806 -0.1878,0.5877 -0.7942,1.0112 -1.3319,1.2096 -0.441,0.0638 -0.9422,0.0656 -1.4087,0.0656 -0.4662,-0.0222 -0.9081,-0.0458 -1.3316,-0.0169 -0.5935,0.0213 -1.0445,-0.004 -1.072,0.0442 0.0125,-0.0268 0.1162,-0.1873 0.1415,-0.262 0.001,-0.0792 -0.0151,-0.2309 -0.0196,-0.2352 -0.0143,0.029 0.0343,0.1141 0.1549,0.3055 0.3991,0.5142 1.2778,1.3983 1.8767,2.4904 0.4261,0.7837 0.8109,1.7352 0.8024,2.5346 -0.0232,0.2898 -0.1032,0.6496 -0.2204,0.9174 -0.1357,0.2753 -0.4735,0.6393 -0.8164,0.795 -0.9161,0.2204 -2.0665,-0.2235 -2.6806,-0.6857 v 0 c -0.3289,-0.2307 -0.4084,-0.6844 -0.1777,-1.0132 v 0 c 0.2308,-0.3289 0.6844,-0.4084 1.0133,-0.1776 z" /><path
           id="path134"
           style="fill:#006fff;fill-opacity:1;fill-rule:nonzero;stroke:none"
           d="m 363.0055,530.7496 c 0,-24.8133 -13.425,-46.4911 -33.4081,-58.1657 -9.958,-5.8176 -21.5442,-9.1517 -33.9093,-9.1517 -24.8132,0 -46.4911,13.425 -58.1656,33.4081 -5.8176,9.958 -9.1517,21.5442 -9.1517,33.9093 0,17.2404 6.481,32.9672 17.1398,44.8767 0.4068,-0.4505 0.8347,-0.9401 1.2839,-1.458 -10.2619,-11.5476 -16.4951,-26.7552 -16.4951,-43.4187 0,-12.0102 3.2376,-23.2642 8.8884,-32.9364 11.3402,-19.411 32.3972,-32.4524 56.5003,-32.4524 12.0102,0 23.2642,3.2376 32.9364,8.8884 19.4111,11.3402 32.4524,32.3972 32.4524,56.5004 0,12.0101 -3.2376,23.2641 -8.8884,32.9363 -0.3589,0.6144 -0.7275,1.2223 -1.1057,1.8237 0.2758,0.1917 0.5433,0.3771 0.7988,0.5521 0.2648,0.1819 0.5297,0.3581 0.7968,0.5334 0.4023,-0.6383 0.7942,-1.2838 1.1754,-1.9363 5.8176,-9.958 9.1517,-21.5442 9.1517,-33.9092" /><path
           id="path136"
           style="fill:#60ba46;fill-opacity:1;fill-rule:nonzero;stroke:none"
           d="m 451.5539,530.7496 c 0,-39.3252 -14.5635,-75.249 -38.5914,-102.672 -0.2462,0.2861 -0.5041,0.5795 -0.7431,0.844 -0.1729,0.1911 -0.3601,0.3965 -0.5524,0.6043 23.6378,27.0611 37.9584,62.47 37.9584,101.2237 0,28.2745 -7.6227,54.7687 -20.9257,77.5392 -26.6969,45.6969 -76.2688,76.398 -133.0116,76.398 -28.2745,0 -54.7687,-7.6227 -77.5392,-20.9257 -45.6969,-26.6969 -76.398,-76.2688 -76.398,-133.0115 0,-28.2746 7.6227,-54.7688 20.9257,-77.5393 5.9953,-10.2621 13.1442,-19.7679 21.2688,-28.3396 -0.4304,-0.4364 -0.879,-0.8959 -1.3497,-1.3794 -8.2467,8.6924 -15.5019,18.3349 -21.5843,28.7461 -13.4699,23.0563 -21.189,49.8827 -21.189,78.5122 0,57.4528 31.0847,107.6456 77.3536,134.6767 23.0563,13.4699 49.8827,21.189 78.5121,21.189 57.4529,0 107.6456,-31.0847 134.6768,-77.3536 13.4699,-23.0563 21.189,-49.8827 21.189,-78.5121" /><path
           id="path138"
           style="fill:#006fff;fill-opacity:1;fill-rule:nonzero;stroke:none"
           d="m 240.5172,577.8059 c -0.1044,-0.0205 -0.173,-0.0389 -0.2164,-0.0561 v 0 c -0.3749,-0.01 -0.6708,-0.322 -0.6608,-0.6969 v 0 c 0.01,-0.375 0.3219,-0.6708 0.6969,-0.6609 v 0 c 0.3749,0.01 0.6708,0.322 0.6608,0.6969 v 0 c -0.01,0.375 -0.3219,0.6708 -0.6969,0.6609 -0.0262,-0.009 -0.032,-0.0172 -0.0316,-0.0251 v 0 c -0.3617,0 -0.655,-0.2933 -0.655,-0.655 v 0 c 0,-0.3618 0.2933,-0.655 0.655,-0.655 v 0 c 0.3618,0 0.655,0.2932 0.655,0.655 v 0 c 0,0.3617 -0.2932,0.655 -0.655,0.655 -0.005,-0.004 -0.008,-0.008 -0.0102,-0.0121 v 0 c -0.3551,0 -0.6429,-0.2879 -0.6429,-0.6429 v 0 c 0,-0.3551 0.2878,-0.643 0.6429,-0.643 v 0 c 0.3551,0 0.6429,0.2879 0.6429,0.643 v 0 c 0,0.355 -0.2878,0.6429 -0.6429,0.6429 -0.1181,-0.0151 -0.002,-1.2782 -10e-4,-1.2742 v 0 c 0.3485,0 0.6309,0.2824 0.6309,0.6309 v 0 c 0,0.3484 -0.2824,0.6308 -0.6309,0.6308 v 0 c -0.3484,0 -0.6308,-0.2824 -0.6308,-0.6308 v 0 c 0,-0.3485 0.2824,-0.6309 0.6308,-0.6309 0.013,-0.1144 0.1796,-0.2271 0.4188,-0.3692 0.1469,-0.0272 0.3927,-0.1328 0.7207,-0.2659 0.5133,-0.1929 1.0392,-0.5052 1.6513,-0.9372 0.5129,-0.358 1.02,-0.7626 1.5439,-1.2087 0.5247,-0.4444 1.0343,-0.9064 1.53,-1.3664 0.3983,-0.3658 0.7797,-0.7238 1.139,-1.0588 0.2745,-0.2468 0.5398,-0.4832 0.7849,-0.6951 0.2442,-0.2145 0.4861,-0.4195 0.6998,-0.5878 v 0 c 0.5114,-0.3989 1.2494,-0.3078 1.6483,0.2036 v 0 c 0.399,0.5113 0.3078,1.2493 -0.2035,1.6482 v 0 c -0.5114,0.399 -1.2493,0.3079 -1.6483,-0.2035 v 0 c -0.3989,-0.5114 -0.3078,-1.2493 0.2035,-1.6483 0.1412,-0.1145 0.2977,-0.2332 0.4317,-0.3259 v 0 c 0.5466,-0.3596 1.2811,-0.2079 1.6406,0.3386 v 0 c 0.3595,0.5466 0.2079,1.2812 -0.3387,1.6407 v 0 c -0.5466,0.3595 -1.2811,0.2079 -1.6406,-0.3387 v 0 c -0.3595,-0.5466 -0.2079,-1.2811 0.3387,-1.6406 0.1498,-0.0708 0.3425,-0.1533 0.4958,-0.1973 v 0 c 0.5641,-0.2475 1.2219,0.009 1.4694,0.5733 v 0 c 0.2475,0.5641 -0.009,1.2219 -0.5733,1.4694 v 0 c -0.5641,0.2474 -1.222,-0.009 -1.4694,-0.5733 v 0 c -0.2475,-0.5641 0.009,-1.222 0.5733,-1.4694 0.3059,0.0919 0.7599,0.242 0.976,0.5274 v 0 c 0.2528,0.1268 0.3548,0.4346 0.228,0.6873 v 0 c -0.1269,0.2527 -0.4346,0.3548 -0.6874,0.2279 0.078,0.216 0.3305,0.3958 0.3781,0.6007 -0.0166,0.0305 -0.0199,0.0595 -0.086,0.1316 -0.087,0.0526 -0.1715,0.1106 -0.2908,0.1996 -0.1786,0.1378 -0.3737,0.3011 -0.6045,0.5013 -0.2298,0.2026 -0.4771,0.427 -0.7458,0.6727 -0.3645,0.3214 -0.7608,0.6744 -1.1764,1.0375 -0.5204,0.4513 -1.0832,0.9291 -1.6515,1.38 -0.5692,0.4492 -1.1756,0.896 -1.7616,1.273 -0.7066,0.4501 -1.4783,0.8521 -2.1795,1.0817 -0.3518,0.1027 -0.7932,0.2267 -1.1831,0.2588 -0.3451,-0.0784 -0.6184,-0.1911 -0.6314,-0.3055 -0.001,0.004 0.1155,-1.2591 0.1397,-1.2583 -0.1366,-0.0191 -0.1333,-0.0231 -0.1283,-0.0271 0.0204,-0.008 0.0473,-0.0154 0.0737,-0.0225 0.0439,-0.0149 0.1246,-0.0284 0.2356,-0.0398 v 0 c 0.4014,0.0169 0.713,0.356 0.6961,0.7574 v 0 c -0.0169,0.4014 -0.356,0.713 -0.7574,0.6961 z" /><path
           id="path140"
           style="fill:#006fff;fill-opacity:1;fill-rule:nonzero;stroke:none"
           d="m 347.524,562.8973 c -0.0435,-0.121 -0.149,-0.3009 -0.1975,-0.3321 v 0 c 0.2407,0.2772 0.211,0.6971 -0.0662,0.9378 v 0 c -0.2773,0.2407 -0.6972,0.211 -0.9378,-0.0662 v 0 c -0.2407,-0.2773 -0.2111,-0.6972 0.0662,-0.9378 v 0 c 0.2773,-0.2407 0.6971,-0.2111 0.9378,0.0662 -0.0496,-0.0196 -0.1096,-0.0413 -0.1163,-0.0218 v 0 c 0.283,0.1746 0.3709,0.5456 0.1963,0.8287 v 0 c -0.1746,0.283 -0.5456,0.3709 -0.8286,0.1963 v 0 c -0.2831,-0.1747 -0.371,-0.5457 -0.1963,-0.8287 v 0 c 0.1746,-0.283 0.5456,-0.3709 0.8286,-0.1963 0.0623,-0.0719 0.125,-0.1502 0.2475,-0.2082 v 0 c 0.4621,0.1685 0.7001,0.6797 0.5316,1.1418 v 0 c -0.1684,0.4621 -0.6796,0.7001 -1.1417,0.5316 v 0 c -0.4621,-0.1684 -0.7001,-0.6796 -0.5317,-1.1417 v 0 c 0.1685,-0.4621 0.6797,-0.7001 1.1418,-0.5317 0.4487,0.1108 1.4651,0.2991 2.6751,0.6863 1.2208,0.4132 2.6953,1.0621 3.8743,1.5943 0.51,0.2372 0.9697,0.4734 1.3755,0.6931 0.2386,0.1338 0.4735,0.2708 0.6776,0.3921 0.2004,0.1304 0.382,0.2526 0.521,0.3497 0.1339,0.1101 0.2325,0.1993 0.2777,0.2549 0.009,0.0289 10e-4,0.0472 -0.0147,0.0598 0.0134,0.0201 0.0548,0.0607 0.0886,0.0991 v 0 c 0.4297,0.3496 0.4947,0.9814 0.1451,1.4112 v 0 c -0.3496,0.4297 -0.9814,0.4947 -1.4112,0.145 v 0 c -0.4297,-0.3496 -0.4947,-0.9814 -0.145,-1.4111 v 0 c 0.3496,-0.4297 0.9814,-0.4947 1.4111,-0.1451 -0.1017,-0.067 0.0598,0.0658 0.1595,0.1862 v 0 c 0.3276,0.4368 0.239,1.0565 -0.1978,1.3841 v 0 c -0.4367,0.3275 -1.0564,0.239 -1.384,-0.1978 v 0 c -0.3276,-0.4368 -0.2391,-1.0564 0.1977,-1.384 v 0 c 0.4368,-0.3276 1.0565,-0.2391 1.3841,0.1977 -0.7906,-0.3906 -0.7905,1.5721 -0.7906,1.5673 v 0 c -0.538,0 -0.9741,-0.4361 -0.9741,-0.9741 v 0 c 0,-0.538 0.4361,-0.9741 0.9741,-0.9741 v 0 c 0.538,0 0.9741,0.4361 0.9741,0.9741 v 0 c 0,0.538 -0.4361,0.9741 -0.9741,0.9741 -0.4319,-0.2767 -0.3762,-0.4237 -0.3262,-0.5747 v 0 c -0.2377,-0.1532 -0.3062,-0.4701 -0.1529,-0.7078 v 0 c 0.1532,-0.2377 0.4701,-0.3062 0.7078,-0.153 0.114,-0.1097 0.201,-0.2369 0.1181,-0.4489 -0.3467,-0.0687 -0.3468,1.894 -0.3471,1.8989 -0.6919,-0.2759 -0.5314,-0.1439 -0.4737,-0.1048 -0.1302,-0.071 -0.0936,-0.0337 -0.0883,-0.0187 -0.0276,0.005 -0.0549,0.0104 -0.0777,0.0184 -0.0544,-0.009 -0.1628,-0.0532 -0.3111,-0.121 -0.1392,-0.0776 -0.311,-0.1743 -0.5082,-0.2834 -0.1935,-0.1182 -0.4006,-0.2421 -0.6196,-0.3679 -0.3723,-0.2211 -0.7551,-0.4366 -1.2167,-0.6694 -1.1334,-0.586 -2.4926,-1.2577 -3.5955,-1.6975 -1.0721,-0.4511 -2.0126,-0.7262 -2.563,-0.9796 -0.0995,-0.1389 -0.2116,-0.294 -0.2697,-0.4402 -0.067,-0.0177 -0.1737,-0.0757 -0.2509,-0.1265 -0.0853,-0.0735 -0.2086,-0.2897 -0.2546,-0.4479 v 0 c -0.0267,-0.4008 0.2766,-0.7474 0.6774,-0.7741 v 0 c 0.4009,-0.0268 0.7475,0.2765 0.7742,0.6774 z" /><path
           id="path142"
           style="fill:#006fff;fill-opacity:1;fill-rule:nonzero;stroke:none"
           d="m 279.3737,493.2569 c -0.1598,-0.283 -0.5784,-2.0467 -0.2008,-4.063 v 0 c 0.1108,-0.4891 0.5971,-0.7958 1.0862,-0.685 v 0 c 0.4891,0.1108 0.7958,0.5971 0.685,1.0862 v 0 c -0.1108,0.4891 -0.5971,0.7957 -1.0862,0.685 v 0 c -0.489,-0.1108 -0.7957,-0.5971 -0.685,-1.0862 0.3349,-1.4265 1.1601,-2.763 2.0844,-3.6473 v 0 c 0.3666,-0.3453 0.9437,-0.3281 1.2891,0.0384 v 0 c 0.3453,0.3666 0.3281,0.9437 -0.0385,1.2891 v 0 c -0.3665,0.3453 -0.9437,0.3281 -1.289,-0.0384 v 0 c -0.3454,-0.3666 -0.3282,-0.9437 0.0384,-1.2891 0.9464,-0.8793 2.2267,-1.4873 3.3276,-1.5239 v 0 c 0.5058,-0.004 0.9189,0.4032 0.9227,0.9089 v 0 c 0.004,0.5058 -0.4031,0.9189 -0.9089,0.9227 v 0 c -0.5058,0.004 -0.9189,-0.4031 -0.9227,-0.9089 v 0 c -0.004,-0.5058 0.4032,-0.9189 0.9089,-0.9227 0.6943,0.0167 1.4793,0.2569 2.0419,0.6507 0.5403,0.406 1.0469,1.0844 1.331,1.8267 0.2759,0.7588 0.3863,1.6443 0.475,2.4123 0.0477,0.3703 0.111,0.7609 0.1532,1.1632 0.0612,0.5904 0.0729,1.1853 0.0751,1.5991 0.0238,0.2499 0.0258,0.4914 0.0268,0.6403 -0.001,0.0812 -0.0111,0.1833 -0.0206,0.2579 -0.007,0.0411 -0.0622,0.1842 -0.164,0.346 v 0 c -0.3225,0.3894 -0.8996,0.4437 -1.289,0.1212 v 0 c -0.3894,-0.3225 -0.4437,-0.8996 -0.1212,-1.289 v 0 c 0.3225,-0.3894 0.8996,-0.4437 1.289,-0.1212 v 0 c 0.3894,0.3225 0.4437,0.8996 0.1212,1.289 -0.3447,0.266 -1.5657,-0.2257 -1.6293,-0.4253 -0.0659,-0.3694 -0.0333,-1.0307 0.068,-1.7028 0.1513,-0.9389 0.5353,-1.9883 0.9997,-2.9096 0.4769,-0.9154 1.0914,-1.8279 1.6885,-2.544 v 0 c 0.3721,-0.439 1.0295,-0.4931 1.4685,-0.121 v 0 c 0.4389,0.372 0.4931,1.0295 0.121,1.4684 v 0 c -0.3721,0.4389 -1.0296,0.4931 -1.4685,0.121 v 0 c -0.4389,-0.3721 -0.4931,-1.0295 -0.121,-1.4684 0.4089,-0.474 0.8653,-0.9196 1.2734,-1.2356 v 0 c 0.4469,-0.3498 1.0928,-0.2711 1.4426,0.1759 v 0 c 0.3498,0.4469 0.271,1.0928 -0.1759,1.4426 v 0 c -0.4469,0.3498 -1.0928,0.271 -1.4426,-0.1759 v 0 c -0.3498,-0.4469 -0.271,-1.0928 0.1759,-1.4426 0.3523,-0.1845 0.7592,-0.3467 1.0947,-0.3998 v 0 c 0.4235,-0.155 0.8924,0.0628 1.0473,0.4862 v 0 c 0.155,0.4235 -0.0627,0.8925 -0.4862,1.0474 v 0 c -0.4235,0.1549 -0.8924,-0.0628 -1.0474,-0.4863 v 0 c -0.1549,-0.4235 0.0628,-0.8924 0.4863,-1.0473 0.3428,-0.0437 0.8141,0.006 1.1102,0.192 v 0 c 0.3049,0.1371 0.4409,0.4955 0.3037,0.8004 v 0 c -0.1371,0.3049 -0.4955,0.4409 -0.8004,0.3038 -0.0216,0.043 0.054,0.1167 -0.0524,0.2374 -0.1137,0.1112 -0.2097,0.253 -0.389,0.4846 -0.3011,0.2391 -0.6054,0.5483 -0.9505,0.9644 -0.5345,0.6187 -1.0368,1.3439 -1.4662,2.1505 -0.4419,0.8006 -0.7537,1.5573 -0.8915,2.2884 -0.1156,0.5799 -0.161,1.0046 -0.1528,1.0386 -0.0603,-0.1809 -1.2771,-0.6702 -1.6176,-0.4092 -0.095,0.1536 -0.1436,0.2801 -0.1455,0.3043 0.008,0.0164 0.0165,0.0327 0.0329,-0.001 0.0361,-0.0819 0.0699,-0.1914 0.0906,-0.3693 -0.004,-0.4022 -0.0142,-0.9198 -0.0713,-1.4418 -0.0386,-0.3558 -0.1012,-0.7267 -0.1545,-1.1228 -0.113,-0.764 -0.213,-1.4633 -0.4477,-2.0118 -0.2124,-0.5287 -0.43,-0.7878 -0.7735,-0.9983 -0.3221,-0.2243 -0.5815,-0.2822 -1.0243,-0.2573 -0.6596,-0.0234 -1.3557,0.315 -2.0906,1.0198 -0.757,0.6997 -1.3181,1.5848 -1.5638,2.721 -0.4536,1.6538 -0.1962,3.021 -0.2007,3.1716 v 0 c 0.1353,0.3782 -0.0615,0.7946 -0.4398,0.9299 v 0 c -0.3782,0.1354 -0.7946,-0.0615 -0.9299,-0.4397 z" /><path
           id="path144"
           style="fill:#006fff;fill-opacity:1;fill-rule:nonzero;stroke:none"
           d="m 293.9914,487.0811 c 0.1251,-0.1758 0.2364,-0.6281 0.3853,-1.3236 v 0 c 0.1308,-0.4603 0.61,-0.7274 1.0703,-0.5966 v 0 c 0.4603,0.1308 0.7274,0.61 0.5966,1.0703 v 0 c -0.1308,0.4603 -0.61,0.7274 -1.0703,0.5966 v 0 c -0.4603,-0.1308 -0.7274,-0.61 -0.5966,-1.0703 0.0681,-0.35 0.1327,-0.7322 0.2022,-1.143 v 0 c 0.126,-0.5136 0.6445,-0.8278 1.1581,-0.7018 v 0 c 0.5136,0.126 0.8278,0.6446 0.7018,1.1582 v 0 c -0.126,0.5136 -0.6445,0.8278 -1.1581,0.7018 v 0 c -0.5136,-0.126 -0.8279,-0.6446 -0.7018,-1.1582 0.083,-0.4075 0.1694,-0.8382 0.2627,-1.2694 v 0 c 0.1376,-0.5387 0.686,-0.8638 1.2246,-0.7261 v 0 c 0.5387,0.1377 0.8638,0.686 0.7261,1.2247 v 0 c -0.1376,0.5387 -0.686,0.8638 -1.2247,0.7261 v 0 c -0.5386,-0.1377 -0.8637,-0.686 -0.726,-1.2247 0.0656,-0.2869 0.1367,-0.5822 0.2108,-0.8666 v 0 c 0.1572,-0.5461 0.7274,-0.8614 1.2735,-0.7042 v 0 c 0.5462,0.1572 0.8614,0.7274 0.7042,1.2735 v 0 c -0.1572,0.5462 -0.7274,0.8614 -1.2735,0.7042 v 0 c -0.5461,-0.1572 -0.8614,-0.7274 -0.7042,-1.2735 0.146,-0.4165 0.3106,-0.8457 0.4854,-1.2266 v 0 c 0.1913,-0.4909 0.7443,-0.7338 1.2352,-0.5425 v 0 c 0.4909,0.1913 0.7338,0.7444 0.5425,1.2353 v 0 c -0.1913,0.4909 -0.7444,0.7337 -1.2353,0.5424 v 0 c -0.4909,-0.1913 -0.7337,-0.7443 -0.5424,-1.2352 0.1067,-0.2579 0.2326,-0.5287 0.3591,-0.7608 v 0 c 0.2389,-0.4591 0.8046,-0.6376 1.2637,-0.3988 v 0 c 0.4591,0.2388 0.6377,0.8046 0.3988,1.2637 v 0 c -0.2388,0.4591 -0.8045,0.6376 -1.2636,0.3988 v 0 c -0.4591,-0.2388 -0.6377,-0.8046 -0.3989,-1.2637 0.1862,-0.0505 0.3789,-0.1031 0.5641,-0.1327 v 0 c 0.1498,-0.2399 0.4656,-0.313 0.7055,-0.1632 v 0 c 0.2399,0.1497 0.313,0.4656 0.1633,0.7054 0.0698,0.1555 0.151,0.2994 0.2294,0.4559 -0.0884,0.1811 -0.1626,0.3637 -0.2436,0.5879 -0.1069,0.342 -0.1962,0.7023 -0.2854,1.1033 -0.0829,0.2608 -0.1604,0.5229 -0.2379,0.796 -0.1214,0.4087 -0.2373,0.8221 -0.3534,1.227 -0.1298,0.4013 -0.2612,0.7995 -0.3953,1.1606 -0.2555,0.7274 -0.573,1.4231 -0.9753,1.8279 v 0 c -0.2701,0.2974 -0.7301,0.3195 -1.0275,0.0494 v 0 c -0.2973,-0.2701 -0.3195,-0.7301 -0.0494,-1.0275 z" /><path
           id="path146"
           style="fill:#60ba46;fill-opacity:1;fill-rule:nonzero;stroke:none"
           d="m 178.8739,421.1466 c 0.003,0.1268 0.0537,0.1511 0.2236,0.3467 v 0 c 0.2436,0.3879 0.1268,0.8999 -0.2611,1.1435 v 0 c -0.3879,0.2437 -0.8999,0.1268 -1.1435,-0.261 v 0 c -0.2437,-0.3879 -0.1268,-0.8999 0.261,-1.1436 v 0 c 0.3879,-0.2436 0.8999,-0.1267 1.1436,0.2611 0.1653,0.2073 0.3969,0.4042 0.7518,0.6753 v 0 c 0.3832,0.3432 0.4156,0.9321 0.0723,1.3152 v 0 c -0.3432,0.3832 -0.932,0.4156 -1.3152,0.0724 v 0 c -0.3831,-0.3432 -0.4155,-0.9321 -0.0723,-1.3152 v 0 c 0.3432,-0.3832 0.932,-0.4156 1.3152,-0.0724 0.7121,0.5495 1.7356,1.1727 2.9226,1.9349 v 0 c 0.5107,0.3639 0.6298,1.0728 0.266,1.5836 v 0 c -0.3639,0.5107 -1.0729,0.6297 -1.5836,0.2659 v 0 c -0.5107,-0.3639 -0.6298,-1.0728 -0.2659,-1.5836 v 0 c 0.3638,-0.5107 1.0728,-0.6297 1.5835,-0.2659 0.4986,0.3398 0.9911,0.6839 1.4624,1.0104 0.4656,0.3357 0.9056,0.6508 1.319,0.9343 0.2802,0.1809 0.5351,0.3388 0.7809,0.4815 0.2362,0.1552 0.4308,0.2758 0.62,0.38 0.0952,0.0456 0.1666,0.0763 0.2468,0.1075 v 0 c 0.6113,0.2706 0.8875,0.9855 0.6169,1.5968 v 0 c -0.2706,0.6113 -0.9855,0.8875 -1.5968,0.6169 v 0 c -0.6113,-0.2706 -0.8875,-0.9855 -0.6169,-1.5968 v 0 c 0.2706,-0.6113 0.9855,-0.8875 1.5968,-0.6169 0.1384,0.0969 0.1731,0.1429 0.2285,0.18 v 0 c 0.6079,0.1019 1.018,0.6773 0.9161,1.2852 v 0 c -0.1019,0.6079 -0.6774,1.0181 -1.2853,0.9162 v 0 c -0.6079,-0.102 -1.018,-0.6774 -0.9161,-1.2853 v 0 c 0.1019,-0.6079 0.6774,-1.0181 1.2853,-0.9161 0.0183,0.0358 -0.0386,0.0634 -0.0415,0.0921 v 0 c 0.5641,-0.0393 1.0532,0.3861 1.0926,0.9502 v 0 c 0.0393,0.5641 -0.3861,1.0532 -0.9502,1.0925 v 0 c -0.5641,0.0393 -1.0532,-0.3861 -1.0925,-0.9501 v 0 c -0.0394,-0.5641 0.386,-1.0533 0.9501,-1.0926 0.01,0.1726 -0.0243,0.3564 0.0327,0.5139 v 0 c 0.2568,-0.1185 0.561,-0.006 0.6794,0.2505 v 0 c 0.1184,0.2568 0.006,0.561 -0.2506,0.6794 -0.0469,0.2054 -0.1986,0.4164 -0.3127,0.5985 -0.1396,0.0382 -0.3397,0.0575 -0.4793,0.0665 -0.2521,-0.0145 -0.5755,-0.0874 -0.8364,-0.1672 -0.1194,-0.0572 -0.2579,-0.129 -0.3805,-0.1973 -0.2511,-0.1271 -0.5329,-0.288 -0.8042,-0.4541 -0.2616,-0.1786 -0.5451,-0.3816 -0.8277,-0.5905 -0.4305,-0.3012 -0.889,-0.6352 -1.3542,-0.9764 -0.4585,-0.3486 -0.9278,-0.7073 -1.4004,-1.0598 -1.0964,-0.8646 -2.1178,-1.6553 -2.8475,-2.3964 -0.3662,-0.3749 -0.705,-0.7933 -0.9135,-1.1802 -0.2045,-0.4003 -0.3316,-0.9516 -0.2649,-1.3922 v 0 c 0.0449,-0.3992 0.4049,-0.6864 0.8041,-0.6415 v 0 c 0.3993,0.0449 0.6865,0.4049 0.6416,0.8041 z" /><path
           id="path148"
           style="fill:#60ba46;fill-opacity:1;fill-rule:nonzero;stroke:none"
           d="m 406.5604,433.9063 c -0.1588,0.062 -0.2382,0.088 -0.2746,0.0938 v 0 c -0.306,0.2139 -0.7275,0.1391 -0.9414,-0.1669 v 0 c -0.2139,-0.3061 -0.1391,-0.7276 0.167,-0.9415 v 0 c 0.306,-0.2138 0.7275,-0.1391 0.9414,0.167 v 0 c 0.2139,0.3061 0.1391,0.7276 -0.167,0.9414 -0.009,-0.005 0.0632,-0.0853 0.1384,-0.2083 v 0 c -0.1659,0.3186 -0.5587,0.4424 -0.8773,0.2764 v 0 c -0.3186,-0.1659 -0.4424,-0.5587 -0.2764,-0.8773 v 0 c 0.1659,-0.3186 0.5587,-0.4424 0.8773,-0.2764 v 0 c 0.3186,0.1659 0.4424,0.5587 0.2764,0.8773 0.0441,-0.126 -0.0293,-0.6235 -0.1816,-0.7908 v 0 c 0.2767,0.2178 0.3245,0.6186 0.1067,0.8954 v 0 c -0.2177,0.2767 -0.6186,0.3245 -0.8953,0.1068 v 0 c -0.2768,-0.2178 -0.3246,-0.6187 -0.1068,-0.8954 v 0 c 0.2177,-0.2767 0.6186,-0.3246 0.8954,-0.1068 -0.1758,-0.092 -0.3499,-0.1237 -0.3765,-0.1204 -0.1072,-0.086 -0.1402,-0.1802 -0.0813,-0.3068 0.5139,-0.211 1.9369,-0.8991 3.5927,-2.0197 1.6671,-1.08 3.4615,-2.6908 4.9679,-4.1595 0.7377,-0.7203 1.3834,-1.3333 1.9331,-1.8847 v 0 c 0.3773,-0.3813 0.9922,-0.3845 1.3734,-0.007 v 0 c 0.3812,0.3773 0.3844,0.9922 0.007,1.3735 v 0 c -0.3773,0.3812 -0.9922,0.3844 -1.3735,0.007 v 0 c -0.3812,-0.3773 -0.3844,-0.9922 -0.007,-1.3734 0.4419,-0.4376 0.8045,-0.815 1.115,-1.1867 v 0 c 0.3325,-0.4076 0.9325,-0.4685 1.3401,-0.1359 v 0 c 0.4076,0.3325 0.4685,0.9325 0.1359,1.3401 v 0 c -0.3325,0.4076 -0.9325,0.4685 -1.3401,0.1359 v 0 c -0.4076,-0.3325 -0.4685,-0.9325 -0.1359,-1.3401 0.3377,-0.3478 0.586,-0.6348 0.7971,-0.9617 v 0 c 0.2085,-0.4077 0.708,-0.5693 1.1157,-0.3608 v 0 c 0.4078,0.2084 0.5693,0.708 0.3609,1.1157 v 0 c -0.2085,0.4077 -0.708,0.5693 -1.1158,0.3608 v 0 c -0.4077,-0.2085 -0.5692,-0.708 -0.3608,-1.1157 0.1844,-0.1278 0.3474,-0.2407 0.5082,-0.3896 v 0 c 0.0897,-0.2681 0.3798,-0.4128 0.648,-0.3231 v 0 c 0.2682,0.0898 0.4128,0.3799 0.3231,0.6481 0.0232,0.2624 0.0156,0.55 -0.002,0.8189 -0.1945,0.4665 -0.48,0.9559 -0.7979,1.4116 -0.3451,0.4319 -0.7599,0.8845 -1.2104,1.3488 -0.5661,0.5758 -1.2159,1.2008 -1.9407,1.9166 -1.5283,1.5111 -3.4466,3.2484 -5.241,4.4387 -1.7944,1.1414 -3.4215,1.8705 -4.0706,2.0766 -0.1736,-0.0431 -0.3637,-0.0944 -0.5185,-0.1783 -0.0662,0.004 -0.2522,-0.0296 -0.4343,-0.1266 -0.1586,-0.1723 -0.2327,-0.6764 -0.1835,-0.8123 0.0856,-0.1428 0.1913,-0.2534 0.2434,-0.3009 0.0781,-0.0742 0.2149,-0.1729 0.3836,-0.2786 v 0 c 0.3575,-0.1831 0.7958,-0.0416 0.9789,0.316 v 0 c 0.1831,0.3576 0.0416,0.7959 -0.316,0.9789 z" /><path
           id="path150"
           style="fill:#60ba46;fill-opacity:1;fill-rule:nonzero;stroke:none"
           d="m 289.2649,702.5817 c 0.0352,-0.0732 0.0727,-0.1412 0.0197,-0.042 v 0 c -0.1278,0.349 -0.5144,0.5283 -0.8634,0.4005 v 0 c -0.3489,-0.1278 -0.5282,-0.5144 -0.4004,-0.8633 v 0 c 0.1278,-0.349 0.5143,-0.5283 0.8633,-0.4005 v 0 c 0.349,0.1278 0.5283,0.5143 0.4005,0.8633 -0.0604,0.1064 -0.1073,0.2463 -0.1616,0.4197 v 0 c -0.0691,0.3345 -0.3962,0.5498 -0.7308,0.4807 v 0 c -0.3345,-0.069 -0.5497,-0.3962 -0.4807,-0.7307 v 0 c 0.069,-0.3346 0.3962,-0.5498 0.7307,-0.4808 v 0 c 0.3346,0.0691 0.5498,0.3962 0.4808,0.7308 -0.005,0.2286 -0.0236,0.4811 -0.0457,0.6854 v 0 c -0.1269,0.3902 -0.5462,0.6036 -0.9364,0.4767 v 0 c -0.3902,-0.1269 -0.6036,-0.5462 -0.4767,-0.9364 v 0 c 0.127,-0.3902 0.5462,-0.6036 0.9364,-0.4767 v 0 c 0.3902,0.127 0.6036,0.5462 0.4767,0.9364 -0.0133,0.1068 -0.0433,0.2396 -0.0725,0.3439 -0.0418,0.1194 -0.2214,0.361 -0.4594,0.5259 v 0 c -0.4417,0.1854 -0.9501,-0.0223 -1.1356,-0.4641 v 0 c -0.1854,-0.4417 0.0223,-0.9501 0.4641,-1.1356 v 0 c 0.4417,-0.1854 0.9501,0.0223 1.1356,0.4641 v 0 c 0.1854,0.4417 -0.0223,0.9501 -0.4641,1.1356 -0.9179,-0.1547 -1.1069,-0.3981 -1.1285,-0.4419 -0.0165,-0.036 -0.0327,-0.0755 -0.0416,-0.0985 -0.0208,-0.0552 -0.0458,-0.1267 -0.0683,-0.1968 -0.0434,-0.1358 -0.0989,-0.3317 -0.1353,-0.5026 -0.2027,-0.9836 -0.4538,-3.9792 -0.397,-6.3331 0.038,-1.4906 0.4495,-2.7782 1.0599,-3.5225 0.34,-0.3786 0.8925,-0.7095 1.3728,-0.8099 0.4826,-0.0691 1.1237,0.0496 1.5998,0.2962 1.2973,0.7821 2.1084,2.5313 2.5701,4.2934 0.2381,0.9384 0.3661,1.9627 0.4605,2.7466 0.0948,0.7351 0.1528,1.3495 0.1784,1.4281 -0.0193,-0.0751 -0.2686,-0.4533 -0.8517,-0.6764 -0.6218,0.2524 -0.8329,0.5731 -0.8547,0.6307 -0.0199,0.0629 -0.0317,0.1048 -0.0354,0.0903 -0.005,-0.0424 -0.0102,-0.1199 -0.0154,-0.2529 7e-4,-0.4496 -0.001,-1.2289 0.0361,-2.0142 v 0 c 0.0365,-0.5426 0.5059,-0.9529 1.0485,-0.9164 v 0 c 0.5425,0.0364 0.9528,0.5058 0.9164,1.0484 v 0 c -0.0365,0.5425 -0.5059,0.9528 -1.0485,0.9164 v 0 c -0.5425,-0.0365 -0.9528,-0.5059 -0.9164,-1.0484 0.0655,-1.0456 0.2771,-2.0443 0.5901,-2.8339 v 0 c 0.2118,-0.5137 0.7999,-0.7585 1.3137,-0.5467 v 0 c 0.5137,0.2118 0.7584,0.7999 0.5467,1.3136 v 0 c -0.2118,0.5137 -0.7999,0.7585 -1.3137,0.5467 v 0 c -0.5137,-0.2118 -0.7584,-0.7999 -0.5467,-1.3136 0.3404,-0.7914 0.8763,-1.538 1.4573,-2.0319 v 0 c 0.4144,-0.3512 1.0351,-0.3 1.3863,0.1145 v 0 c 0.3512,0.4144 0.3,1.0351 -0.1144,1.3863 v 0 c -0.4145,0.3512 -1.0351,0.2999 -1.3863,-0.1145 v 0 c -0.3513,-0.4144 -0.3,-1.0351 0.1144,-1.3863 1.0637,-0.6663 2.4656,-0.8684 3.8025,-0.5347 v 0 c 0.2801,0.0389 0.4756,0.2976 0.4366,0.5777 v 0 c -0.0389,0.28 -0.2976,0.4755 -0.5776,0.4366 -1.1393,-0.0108 -1.8453,0.3256 -2.3899,1.0214 -0.3835,0.3235 -0.6325,0.691 -0.8686,1.2978 -0.2633,0.6085 -0.4198,1.2913 -0.4855,2.199 -0.0651,0.735 -0.093,1.4786 -0.125,1.949 -0.0154,0.1537 -0.0336,0.2868 -0.0521,0.3724 -0.0102,0.0491 -0.0286,0.1339 -0.0528,0.2124 -0.0268,0.075 -0.241,0.4015 -0.8656,0.6539 -0.586,-0.2231 -0.8381,-0.6063 -0.8592,-0.6891 -0.0573,-0.2713 -0.1147,-0.908 -0.2032,-1.6157 -0.1044,-0.7812 -0.2254,-1.6952 -0.4475,-2.5166 -0.4247,-1.6274 -0.9246,-2.8183 -1.7065,-3.1715 -0.2389,-0.1442 -0.2891,-0.1568 -0.4433,-0.1178 -0.1568,0.008 -0.1869,0.0254 -0.3446,0.2167 -0.3849,0.3953 -0.6283,1.1337 -0.6581,2.4072 -0.0559,2.2487 0.1866,5.111 0.3647,5.9335 0.022,0.1066 0.056,0.2229 0.0903,0.3282 0.0163,0.0506 0.0273,0.0815 0.0367,0.1055 0.002,0.006 -0.002,-0.005 -0.01,-0.0225 -0.0122,-0.0239 -0.1948,-0.2574 -1.2074,-0.3654 -0.0874,0.0942 -0.2129,0.2672 -0.2005,0.2826 0.0248,3e-4 0.0488,-0.006 0.0885,-0.0613 0.0833,-0.1197 0.1655,-0.2851 0.2472,-0.4755 0.0196,-0.1847 0.0528,-0.4206 0.1094,-0.6328 0.0635,-0.219 0.2545,-0.5488 0.5102,-0.7508 v 0 c 0.3469,-0.2026 0.7924,-0.0856 0.995,0.2613 v 0 c 0.2026,0.3469 0.0856,0.7923 -0.2613,0.9949 z" /><path
           id="path152"
           style="fill:#60ba46;fill-opacity:1;fill-rule:nonzero;stroke:none"
           d="m 300.2601,695.3972 c -0.0645,0.0273 -0.0921,0.0218 -0.0944,0.1366 v 0 c 0.0761,0.3376 -0.1359,0.6729 -0.4735,0.7491 v 0 c -0.3375,0.0761 -0.6729,-0.1359 -0.749,-0.4735 v 0 c -0.0761,-0.3376 0.1358,-0.6729 0.4734,-0.749 v 0 c 0.3376,-0.0762 0.6729,0.1358 0.7491,0.4734 0.0921,0.1253 0.1353,0.0788 0.1997,-0.007 v 0 c 0.4164,0.2136 0.5808,0.7243 0.3671,1.1407 v 0 c -0.2136,0.4164 -0.7243,0.5807 -1.1407,0.3671 v 0 c -0.4163,-0.2136 -0.5807,-0.7243 -0.3671,-1.1407 v 0 c 0.2136,-0.4164 0.7244,-0.5807 1.1407,-0.3671 -0.016,-0.009 -0.1326,-0.0464 -0.1232,-0.1083 v 0 c 0.4762,-0.2144 1.036,-0.002 1.2504,0.474 v 0 c 0.2144,0.4762 0.002,1.036 -0.474,1.2504 v 0 c -0.4761,0.2144 -1.036,0.002 -1.2504,-0.474 v 0 c -0.2143,-0.4762 -0.002,-1.036 0.474,-1.2504 -0.1454,0.1459 -0.2537,0.2984 -0.2195,0.1423 0.0477,-0.174 0.0644,-0.3947 0.0664,-0.6914 0.003,-0.4193 0.0153,-0.8014 -0.0506,-1.1749 -0.0117,-0.2586 -0.2435,-0.5741 -0.4619,-1.0276 -0.1742,-0.3241 -0.3257,-0.6837 -0.4052,-0.9728 -0.0763,-0.318 -0.0415,-0.864 0.1834,-1.2645 0.2034,-0.2336 0.5962,-0.4425 0.8077,-0.497 0.2008,-0.0388 0.4559,-0.0446 0.6362,-0.0353 0.3419,0.0339 0.7398,0.1241 1.1056,0.2093 0.2421,0.0622 0.4784,0.1241 0.7105,0.176 v 0 c 0.5919,0.1471 0.9525,0.7462 0.8055,1.3381 v 0 c -0.1471,0.5919 -0.7462,0.9525 -1.3381,0.8054 v 0 c -0.5919,-0.147 -0.9525,-0.7461 -0.8054,-1.338 v 0 c 0.147,-0.5919 0.7461,-0.9525 1.338,-0.8055 0.341,0.1139 0.598,0.1957 0.8291,0.2242 v 0 c 0.5635,0.012 1.0104,0.4786 0.9984,1.042 v 0 c -0.0121,0.5635 -0.4786,1.0105 -1.0421,0.9984 v 0 c -0.5634,-0.0121 -1.0104,-0.4786 -0.9983,-1.042 v 0 c 0.012,-0.5635 0.4786,-1.0105 1.042,-0.9984 0.1534,0.0905 0.1913,0.1748 0.2806,0.2221 v 0 c 0.3934,-0.1561 0.8388,0.0361 0.995,0.4294 v 0 c 0.1561,0.3934 -0.0361,0.8388 -0.4294,0.995 v 0 c -0.3934,0.1561 -0.8388,-0.0361 -0.995,-0.4294 v 0 c -0.1561,-0.3934 0.0361,-0.8388 0.4294,-0.995 0.1088,0.0559 0.1271,0.1551 0.2304,0.123 v 0 c 0.1377,-0.247 0.4496,-0.3356 0.6965,-0.1978 v 0 c 0.247,0.1377 0.3356,0.4495 0.1979,0.6965 -0.08,0.2966 -0.3331,0.6138 -0.5592,0.8026 -0.2456,0.1804 -0.606,0.3134 -0.8912,0.394 -0.4234,0.0144 -0.9098,-0.0491 -1.3167,-0.1211 -0.2664,-0.0719 -0.5307,-0.1528 -0.7655,-0.2242 -0.3524,-0.1166 -0.6206,-0.2098 -0.8095,-0.2508 -0.0875,-0.0289 -0.0651,-0.0454 -0.0574,-0.0564 0.0267,-0.027 0.2745,-0.1706 0.3875,-0.2901 0.0731,-0.209 0.0924,-0.4206 0.1122,-0.3038 0.0164,0.1441 0.0724,0.318 0.1929,0.5837 0.1654,0.3145 0.5285,0.838 0.6805,1.4888 0.0984,0.539 0.1034,1.0802 0.1105,1.4876 0.005,0.3616 -0.0208,0.7817 -0.0905,1.1181 -0.0831,0.3542 -0.3832,0.8851 -0.8246,1.164 -0.3974,0.1213 -1.0217,0.0994 -1.4258,-0.1081 -0.3596,-0.3029 -0.6238,-0.8292 -0.6494,-1.226 -0.0905,-0.2766 -0.0996,-0.6966 -0.008,-1.0138 v 0 c 0.1662,-0.3657 0.5974,-0.5275 0.9632,-0.3614 v 0 c 0.3657,0.1662 0.5275,0.5974 0.3614,0.9631 z" /></g></g></g></svg>