<?xml version="1.0" encoding="UTF-8" standalone="no"?>
<svg
   xmlns:dc="http://purl.org/dc/elements/1.1/"
   xmlns:cc="http://creativecommons.org/ns#"
   xmlns:rdf="http://www.w3.org/1999/02/22-rdf-syntax-ns#"
   xmlns:svg="http://www.w3.org/2000/svg"
   xmlns="http://www.w3.org/2000/svg"
   viewBox="0 0 456.64413 298.18961"
   height="298.18961"
   width="456.64413"
   xml:space="preserve"
   id="svg2"
   version="1.1"><metadata
     id="metadata8"><rdf:RDF><cc:Work
         rdf:about=""><dc:format>image/svg+xml</dc:format><dc:type
           rdf:resource="http://purl.org/dc/dcmitype/StillImage" /></cc:Work></rdf:RDF></metadata><defs
     id="defs6"><clipPath
       id="clipPath14"
       clipPathUnits="userSpaceOnUse"><path
         id="path12"
         d="M 0,0 H 612 V 792 H 0 Z" /></clipPath><clipPath
       id="clipPath24"
       clipPathUnits="userSpaceOnUse"><path
         id="path22"
         d="M 0,0 H 612 V 792 H 0 Z" /></clipPath><clipPath
       id="clipPath86"
       clipPathUnits="userSpaceOnUse"><path
         id="path84"
         d="m 59.14286,72 h 493.7143 V 720 H 59.14286 Z" /></clipPath></defs><g
     clip-path="url(#clipPath14)"
     transform="matrix(1.3333333,0,0,-1.3333333,-139.14813,916.556)"
     id="g10"><g
       id="g16" /><g
       id="g18"><g
         clip-path="url(#clipPath24)"
         id="g20"><g
           transform="matrix(0.8456908,0,0,0.8456908,72,720)"
           id="g26"><text
             id="text30"
             style="font-variant:normal;font-weight:normal;font-size:30px;writing-mode:lr-tb;fill:#000000;fill-opacity:0;fill-rule:nonzero;stroke:none"
             transform="matrix(1,0,0,-1,37.24968,-77.54161)"><tspan
               id="tspan28"
               y="0"
               x="0 7.1339998 24.018">Ipa</tspan></text>
</g><g
           transform="matrix(0.8456908,0,0,0.8456908,72,720)"
           id="g32"><text
             id="text36"
             style="font-variant:normal;font-weight:normal;font-size:30px;writing-mode:lr-tb;fill:#000000;fill-opacity:0;fill-rule:nonzero;stroke:none"
             transform="matrix(1,0,0,-1,406.8576,-86.45568)"><tspan
               id="tspan34"
               y="0"
               x="0 7.1339998">IR</tspan></text>
</g><g
           transform="matrix(0.8456908,0,0,0.8456908,72,720)"
           id="g38"><text
             id="text42"
             style="font-variant:normal;font-weight:normal;font-size:19px;writing-mode:lr-tb;fill:#000000;fill-opacity:0;fill-rule:nonzero;stroke:none"
             transform="matrix(1,0,0,-1,90.9677,-101.5133)"><tspan
               id="tspan40"
               y="0"
               x="0 12.1714">Xa</tspan></text>
</g><g
           transform="matrix(0.8456908,0,0,0.8456908,72,720)"
           id="g44"><text
             id="text48"
             style="font-variant:normal;font-weight:normal;font-size:23px;writing-mode:lr-tb;fill:#000000;fill-opacity:0;fill-rule:nonzero;stroke:none"
             transform="matrix(1,0,0,-1,334.8903,-113.1969)"><tspan
               id="tspan46"
               y="0"
               x="0 10.7801">zc</tspan></text>
</g><g
           transform="matrix(0.8456908,0,0,0.8456908,72,720)"
           id="g50"><text
             id="text54"
             style="font-variant:normal;font-weight:normal;font-size:24px;writing-mode:lr-tb;fill:#000000;fill-opacity:0;fill-rule:nonzero;stroke:none"
             transform="matrix(1,0,0,-1,218.6774,-230.9029)"><tspan
               id="tspan52"
               y="0"
               x="0">y</tspan></text>
</g><g
           transform="matrix(0.8456908,0,0,0.8456908,72,720)"
           id="g56"><text
             id="text60"
             style="font-variant:normal;font-weight:normal;font-size:18px;writing-mode:lr-tb;fill:#000000;fill-opacity:0;fill-rule:nonzero;stroke:none"
             transform="matrix(1,0,0,-1,229.5221,-216.1276)"><tspan
               id="tspan58"
               y="0"
               x="0">b</tspan></text>
</g><g
           transform="matrix(0.8456908,0,0,0.8456908,72,720)"
           id="g62"><text
             id="text66"
             style="font-variant:normal;font-weight:normal;font-size:51px;writing-mode:lr-tb;fill:#000000;fill-opacity:0;fill-rule:nonzero;stroke:none"
             transform="matrix(1,0,0,-1,308.7504,-214.8649)"><tspan
               id="tspan64"
               y="0"
               x="0">k</tspan></text>
</g><g
           transform="matrix(0.8456908,0,0,0.8456908,72,720)"
           id="g68"><text
             id="text72"
             style="font-variant:normal;font-weight:normal;font-size:30px;writing-mode:lr-tb;fill:#000000;fill-opacity:0;fill-rule:nonzero;stroke:none"
             transform="matrix(1,0,0,-1,194.7795,-304.5221)"><tspan
               id="tspan70"
               y="0"
               x="0 7.1339998">IR</tspan></text>
</g><g
           transform="matrix(0.8456908,0,0,0.8456908,72,720)"
           id="g74"><text
             id="text78"
             style="font-variant:normal;font-weight:normal;font-size:17px;writing-mode:lr-tb;fill:#000000;fill-opacity:0;fill-rule:nonzero;stroke:none"
             transform="matrix(1,0,0,-1,219.4162,-284.0856)"><tspan
               id="tspan76"
               y="0"
               x="0">b</tspan></text>
</g></g></g><g
       id="g80"><g
         clip-path="url(#clipPath86)"
         id="g82"><path
           id="path88"
           style="fill:#006fff;fill-opacity:1;fill-rule:nonzero;stroke:none"
           d="m 203.2264,593.7399 v 67.3426 h -67.3426 v -67.3426 z m 0.9643,-1.9285 h -69.2712 c -0.5325,0 -0.9643,0.4317 -0.9643,0.9643 v 69.2711 c 0,0.5326 0.4318,0.9643 0.9643,0.9643 h 69.2712 c 0.5325,0 0.9643,-0.4317 0.9643,-0.9643 v -69.2711 c 0,-0.5326 -0.4318,-0.9643 -0.9643,-0.9643" /><path
           id="path90"
           style="fill:#a400c7;fill-opacity:1;fill-rule:nonzero;stroke:none"
           d="m 307.8916,500.009 v 67.3425 H 240.5491 V 500.009 Z m 0.9643,-1.9286 h -69.2711 c -0.5326,0 -0.9643,0.4317 -0.9643,0.9643 v 69.2711 c 0,0.5326 0.4317,0.9643 0.9643,0.9643 h 69.2711 c 0.5326,0 0.9643,-0.4317 0.9643,-0.9643 v -69.2711 c 0,-0.5326 -0.4317,-0.9643 -0.9643,-0.9643" /><path
           id="path92"
           style="fill:#fa9d00;fill-opacity:1;fill-rule:nonzero;stroke:none"
           d="m 411.4059,593.7402 v 67.3426 h -67.3425 v -67.3426 z m 0.9643,-1.9286 h -69.2711 c -0.5326,0 -0.9643,0.4318 -0.9643,0.9643 v 69.2712 c 0,0.5325 0.4317,0.9642 0.9643,0.9642 h 69.2711 c 0.5326,0 0.9643,-0.4317 0.9643,-0.9642 v -69.2712 c 0,-0.5325 -0.4317,-0.9643 -0.9643,-0.9643" /><path
           id="path94"
           style="fill:#000000;fill-opacity:1;fill-rule:nonzero;stroke:none"
           d="m 212.8387,642.8608 c -0.0851,0.008 0.0908,-0.1375 0.1464,-0.2019 v 0 c -0.1213,0.3842 -0.5311,0.5973 -0.9153,0.476 v 0 c -0.3842,-0.1213 -0.5973,-0.5311 -0.476,-0.9153 v 0 c 0.1213,-0.3842 0.5311,-0.5973 0.9153,-0.476 v 0 c 0.3842,0.1213 0.5973,0.5311 0.476,0.9153 -0.007,-0.0754 -0.0211,-0.1933 0.0381,-0.1004 v 0 c 0.1957,0.3535 0.0679,0.7988 -0.2856,0.9945 v 0 c -0.3535,0.1958 -0.7988,0.0679 -0.9945,-0.2856 v 0 c -0.1958,-0.3535 -0.0679,-0.7987 0.2856,-0.9945 v 0 c 0.3535,-0.1957 0.7987,-0.0678 0.9945,0.2856 0.1204,0.2415 0.442,0.5371 0.9397,0.8321 v 0 c 0.3478,0.2102 0.4594,0.6626 0.2491,1.0104 v 0 c -0.2102,0.3478 -0.6626,0.4593 -1.0104,0.2491 v 0 c -0.3478,-0.2102 -0.4593,-0.6626 -0.2491,-1.0104 v 0 c 0.2102,-0.3479 0.6626,-0.4594 1.0104,-0.2491 1.6046,0.9499 3.9804,1.6159 8.4831,3.0564 2.3484,0.7395 5.0865,1.5213 8.2897,2.2373 1.6204,0.3689 3.3947,0.7056 5.2593,1.043 3.2647,0.5976 6.5577,1.1381 10.29,1.6589 1.3035,0.1815 2.6721,0.351 4.0213,0.5167 8.0592,0.9928 15.5173,1.8322 22.1785,2.6504 4.4746,0.5569 8.4831,0.9259 11.8186,1.1008 3.3954,0.1803 6.6273,0.4067 9.867,0.5889 3.9813,0.2151 6.9079,0.1146 10.0015,0.1005 3.3999,-0.0246 7.3623,0.0938 10.54,-0.2372 3.2007,-0.3203 5.8356,-0.8552 8.7962,-1.2582 2.9726,-0.3994 5.4059,-0.9318 7.2206,-1.3584 0.8777,-0.2067 1.6831,-0.3785 2.368,-0.5378 0.2789,-0.0653 0.5439,-0.1277 0.784,-0.1876 0.2271,-0.0531 0.5789,-0.23 1.094,-0.272 0.2207,-0.006 0.589,0.0852 0.8055,0.1932 0.2129,0.141 0.4932,0.4929 0.6,0.7313 0.0846,0.6066 -0.1182,1.2192 -0.3238,1.5704 -0.2025,0.3352 -0.4822,0.7051 -0.7286,1.0068 -0.852,1.0461 -2.0482,2.0131 -2.8786,2.7497 -0.4348,0.3849 -0.81,0.7286 -1.1922,1.0315 -0.085,0.057 -0.2463,0.2218 -0.5208,0.4024 -0.2525,0.1501 -0.6707,0.4113 -1.1391,0.5358 v 0 c -0.5682,0.1306 -1.1347,-0.2241 -1.2653,-0.7922 v 0 c -0.1306,-0.5682 0.2241,-1.1347 0.7923,-1.2653 v 0 c 0.5681,-0.1306 1.1346,0.2241 1.2652,0.7922 v 0 c 0.1306,0.5682 -0.2241,1.1347 -0.7922,1.2653 -1.2859,-1.1048 -1.2203,-1.3907 -1.1988,-1.4344 0.018,-0.032 0.0446,-0.0792 0.0638,-0.1076 0.0332,-0.0456 0.0926,-0.1309 0.1489,-0.2002 0.1026,-0.1207 0.2897,-0.327 0.5064,-0.5134 0.4321,-0.3939 1.183,-0.8345 1.8422,-1.2783 0.5832,-0.3909 1.136,-0.8629 1.6787,-1.3126 0.3088,-0.2414 0.5792,-0.448 0.8299,-0.6641 0.3402,-0.3149 0.6158,-0.5162 0.7246,-0.6799 0.1009,-0.0759 0.0682,0.0775 -0.0482,-0.0201 0.0299,-0.1284 -0.6679,-0.3063 -1.4623,-0.7101 -1.0487,-0.5859 -2.0265,-1.3582 -2.5958,-2.2036 v 0 c -0.2776,-0.3982 -0.1798,-0.9462 0.2185,-1.2238 v 0 c 0.3983,-0.2776 0.9462,-0.1798 1.2238,0.2185 v 0 c 0.2776,0.3983 0.1798,0.9462 -0.2185,1.2238 v 0 c -0.3982,0.2776 -0.9462,0.1798 -1.2238,-0.2185 -0.2153,-0.3208 -0.4121,-0.7329 -0.5132,-1.1019 v 0 c -0.1269,-0.4609 0.1439,-0.9374 0.6048,-1.0642 v 0 c 0.4608,-0.1269 0.9373,0.1439 1.0642,0.6047 v 0 c 0.1268,0.4609 -0.1439,0.9374 -0.6048,1.0642 v 0 c -0.4609,0.1269 -0.9373,-0.1439 -1.0642,-0.6047 -0.059,-0.2482 -0.0952,-0.5615 -0.0897,-0.8235 v 0 c 7e-4,-0.4661 0.3791,-0.8433 0.8452,-0.8426 v 0 c 0.466,7e-4 0.8433,0.3791 0.8426,0.8452 v 0 c -7e-4,0.466 -0.3791,0.8433 -0.8452,0.8426 v 0 c -0.4661,-7e-4 -0.8433,-0.3791 -0.8426,-0.8452 0.1113,-0.1262 0.2319,-0.2674 0.3585,-0.3771 v 0 c 0.0389,-0.2801 0.2976,-0.4756 0.5777,-0.4367 v 0 c 0.2801,0.039 0.4755,0.2976 0.4366,0.5777 0.0977,0.0981 0.204,0.1622 0.315,0.2387 0.005,0.1434 0.024,0.2251 0.0708,0.3614 0.0578,0.2078 0.1336,0.3486 0.2865,0.556 0.4132,0.564 1.0987,1.0267 2.0534,1.4884 0.6199,0.3358 1.6112,0.6767 2.1848,1.4288 0.2959,0.57 0.2828,1.5256 -0.1214,2.1188 -0.295,0.3712 -0.6723,0.661 -0.9452,0.9138 -0.2739,0.2697 -0.565,0.5258 -0.8545,0.7829 -0.5306,0.4444 -1.1537,0.9777 -1.822,1.4344 -0.7077,0.4819 -1.3792,0.876 -1.5851,1.0912 -0.1113,0.1266 -0.1356,0.1883 -0.1608,0.2566 -0.008,0.0258 0.008,0.0155 0.0152,0.0205 0.006,-0.002 0.0231,-0.0297 0.0343,-0.0451 0.0174,-0.0338 0.0812,-0.3131 -1.1274,-1.4327 -0.0419,0.0236 0.1016,-0.1016 0.3813,-0.2884 0.0271,-0.0103 0.0992,-0.108 0.3142,-0.2897 0.3152,-0.2516 0.6464,-0.5609 1.0927,-0.9605 0.8731,-0.7801 1.9401,-1.6363 2.6141,-2.4928 0.2172,-0.2762 0.4028,-0.5279 0.5257,-0.7496 0.1197,-0.2057 0.1027,-0.0851 0.0919,0.2028 0.0647,0.0976 0.2614,0.3358 0.3576,0.3978 0.0987,0.0281 0.3159,0.0741 0.3593,0.0649 0.0996,-0.0497 -0.1222,0.0749 -0.5758,0.1894 -0.2534,0.0616 -0.532,0.1257 -0.8126,0.1898 -0.7041,0.1621 -1.5047,0.3311 -2.3629,0.5317 -1.8327,0.4291 -4.3661,0.9797 -7.4119,1.3886 -2.9012,0.3842 -5.5781,0.9158 -8.8683,1.2372 -3.3207,0.3114 -7.3651,0.1648 -10.7276,0.1612 -3.0667,0.005 -6.0593,0.0964 -10.109,-0.1301 -3.253,-0.1749 -6.4822,-0.3931 -9.8627,-0.5645 -3.3761,-0.1735 -7.4502,-0.5446 -11.9537,-1.101 -6.6491,-0.8324 -14.1065,-1.6874 -22.173,-2.6968 -1.3498,-0.1695 -2.7324,-0.3447 -4.0494,-0.5319 -3.7516,-0.5322 -7.0827,-1.0874 -10.3623,-1.6962 -1.87,-0.3511 -3.6801,-0.7076 -5.3307,-1.0959 -3.2382,-0.7749 -6.0357,-1.6243 -8.3933,-2.4179 -4.4718,-1.4833 -6.9664,-2.2462 -8.742,-3.3393 -0.6175,-0.3792 -1.1846,-0.9119 -1.4585,-1.3827 -0.1381,-0.2631 -0.2255,-0.7081 -0.1494,-1.0477 0.1391,-0.3286 0.5554,-0.6757 0.9012,-0.7725 v 0 c 0.3904,-0.0949 0.7838,0.1446 0.8787,0.5349 v 0 c 0.0949,0.3904 -0.1446,0.7838 -0.5349,0.8787" /><path
           id="path96"
           style="fill:#a400c7;fill-opacity:1;fill-rule:nonzero;stroke:none"
           d="m 318.8778,546.5432 c 0.4001,-0.1953 0.9724,-0.2286 1.503,-0.1511 v 0 c 0.4113,0.0693 0.6885,0.4589 0.6192,0.8702 v 0 c -0.0693,0.4113 -0.4589,0.6885 -0.8702,0.6192 v 0 c -0.4113,-0.0693 -0.6886,-0.4589 -0.6192,-0.8702 v 0 c 0.0693,-0.4113 0.4589,-0.6885 0.8702,-0.6192 0.5164,0.079 1.1639,0.2531 1.873,0.4875 v 0 c 0.4089,0.1411 0.626,0.5868 0.485,0.9957 v 0 c -0.141,0.4088 -0.5868,0.6259 -0.9956,0.4849 v 0 c -0.4089,-0.141 -0.626,-0.5867 -0.485,-0.9956 v 0 c 0.141,-0.4088 0.5868,-0.626 0.9956,-0.485 1.4113,0.4678 3.2229,1.2167 5.2684,2.093 v 0 c 0.4242,0.186 0.6174,0.6807 0.4315,1.105 v 0 c -0.186,0.4242 -0.6807,0.6174 -1.105,0.4314 v 0 c -0.4243,-0.186 -0.6174,-0.6806 -0.4315,-1.1049 v 0 c 0.186,-0.4243 0.6807,-0.6175 1.105,-0.4315 3.3265,1.4285 7.5393,3.1529 11.7751,5.7763 1.2874,0.8013 2.5648,1.6903 3.8519,2.665 3.3626,2.569 6.8581,6.0222 9.5592,9.2072 2.5898,3.0446 4.429,5.4751 5.9576,7.5062 2.1956,2.8521 4.2326,5.6127 5.6491,7.4552 0.4956,0.6883 0.9111,1.3049 1.2115,1.8113 0.2717,0.4677 0.5783,0.9972 0.6567,1.5981 -0.0353,0.4005 -0.3053,0.9444 -0.5707,1.1681 -0.2621,0.1765 -0.6635,0.3241 -0.9668,0.3538 -1.0629,0.1313 -2.453,-0.4315 -3.5204,-0.8318 -0.3409,-0.1227 -0.6674,-0.2342 -0.9809,-0.34 -0.3217,-0.1032 -0.6124,-0.178 -0.8307,-0.2322 -0.3393,-0.0768 -0.5863,-0.1844 -0.0512,-0.0805 v 0 c -0.4845,0.0849 -0.9462,-0.239 -1.0311,-0.7236 v 0 c -0.0849,-0.4845 0.2391,-0.9462 0.7236,-1.0311 v 0 c 0.4846,-0.0849 0.9462,0.2391 1.0311,0.7236 v 0 c 0.0849,0.4846 -0.239,0.9462 -0.7236,1.0311 0.2186,-1.7253 0.5269,-1.5665 0.7692,-1.4294 0.2418,0.1368 0.5067,0.29 0.7826,0.4116 1.1237,0.4988 2.4912,0.8717 3.4691,0.8353 v 0 c 0.5196,-0.006 0.9455,0.4107 0.9513,0.9303 v 0 c 0.006,0.5196 -0.4107,0.9455 -0.9303,0.9513 v 0 c -0.5196,0.006 -0.9455,-0.4107 -0.9514,-0.9303 v 0 c -0.006,-0.5196 0.4108,-0.9455 0.9304,-0.9513 0.4334,0.002 0.4851,-0.0509 0.739,-0.3675 v 0 c 0.3636,-0.3985 0.9813,-0.4268 1.3798,-0.0633 v 0 c 0.3985,0.3636 0.4268,0.9813 0.0633,1.3798 v 0 c -0.3636,0.3985 -0.9813,0.4268 -1.3798,0.0633 v 0 c -0.3985,-0.3636 -0.4268,-0.9813 -0.0633,-1.3798 0.128,-0.1257 0.2555,-0.3495 0.4402,-0.6261 v 0 c 0.2924,-0.4466 0.8915,-0.5716 1.3381,-0.2792 v 0 c 0.4466,0.2924 0.5716,0.8915 0.2792,1.3381 v 0 c -0.2924,0.4466 -0.8915,0.5716 -1.3381,0.2792 v 0 c -0.4466,-0.2924 -0.5716,-0.8915 -0.2792,-1.3381 0.6022,-0.6407 1.0142,-1.156 2.2102,-3.4155 v 0 c 0.1172,-0.2573 0.4209,-0.3709 0.6782,-0.2536 v 0 c 0.2574,0.1172 0.3709,0.4209 0.2537,0.6782 -0.9225,2.39 -1.1262,3.1618 -1.5248,4.0498 -0.1484,0.232 -0.3503,0.5797 -0.6145,0.8837 -0.5116,0.5226 -1.3464,0.9162 -2.161,0.9326 -1.2846,-0.0111 -2.9793,-0.4931 -4.2353,-1.0729 -0.3566,-0.1651 -0.6959,-0.3634 -0.9315,-0.5012 -0.2348,-0.1373 -0.2767,-0.1761 0.124,-0.1248 0.2556,-1.6557 0.3284,-1.582 0.4918,-1.5208 0.2185,0.0658 0.5536,0.1651 0.9123,0.292 0.3162,0.1072 0.6581,0.2245 1.0111,0.352 1.1113,0.3853 2.2069,0.8351 2.646,0.678 0.1009,-0.0478 0.0323,-0.0502 -0.004,-0.0813 -0.0386,0.016 -0.1885,0.2945 -0.2449,0.387 0.0394,0.0322 -0.104,-0.1216 -0.4125,-0.6035 -0.2777,-0.4402 -0.6557,-0.9734 -1.1467,-1.6279 -1.3446,-1.9155 -3.2927,-4.7262 -5.3948,-7.622 -1.5141,-2.0381 -3.3006,-4.4268 -5.8481,-7.4451 -2.6405,-3.1192 -6.0002,-6.4429 -9.2624,-8.9316 -1.2506,-0.9627 -2.4507,-1.8128 -3.6913,-2.5984 -4.0835,-2.5987 -8.1482,-4.3133 -11.4699,-5.7989 -2.0225,-0.9068 -3.766,-1.6678 -5.1055,-2.1488 -0.6663,-0.2398 -1.193,-0.4 -1.6133,-0.4786 -0.4063,-0.0805 -0.5332,-0.0953 -0.5582,-0.0598 v 0 c -0.3531,0.1916 -0.7947,0.0607 -0.9863,-0.2924 v 0 c -0.1916,-0.3531 -0.0607,-0.7946 0.2924,-0.9862" /><path
           id="path98"
           style="fill:#006fff;fill-opacity:1;fill-rule:nonzero;stroke:none"
           d="m 170.4544,584.7169 c 0.2136,-0.2374 0.379,-0.5282 0.5603,-0.9524 v 0 c 0.0931,-0.305 0.4157,-0.4768 0.7207,-0.3838 v 0 c 0.305,0.093 0.4768,0.4157 0.3838,0.7207 v 0 c -0.0931,0.305 -0.4157,0.4768 -0.7207,0.3837 v 0 c -0.305,-0.093 -0.4768,-0.4157 -0.3838,-0.7206 0.3838,-1.435 0.6742,-3.725 2.1267,-6.8748 v 0 c 0.1774,-0.3681 0.6197,-0.5227 0.9878,-0.3453 v 0 c 0.3682,0.1775 0.5228,0.6197 0.3453,0.9879 v 0 c -0.1774,0.3681 -0.6197,0.5227 -0.9878,0.3453 v 0 c -0.3681,-0.1775 -0.5227,-0.6197 -0.3453,-0.9879 2.4088,-5.0623 8.461,-11.5236 16.5536,-16.6431 v 0 c 0.4053,-0.2537 0.9395,-0.1306 1.1932,0.2747 v 0 c 0.2536,0.4054 0.1305,0.9396 -0.2748,1.1932 v 0 c -0.4054,0.2536 -0.9396,0.1306 -1.1932,-0.2748 v 0 c -0.2536,-0.4053 -0.1306,-0.9395 0.2748,-1.1931 4.6408,-2.9157 10.1733,-5.6999 15.6074,-8.0508 3.6893,-1.592 7.4277,-2.8362 10.7099,-3.7168 4.2117,-1.1249 7.289,-1.9826 9.794,-2.5325 1.2197,-0.2784 2.3249,-0.405 3.1371,-0.4772 0.4007,-0.0317 0.747,-0.0446 1.0021,-0.0525 0.176,0.0217 0.334,0.0296 0.4849,0.0444 0.0788,0.007 0.1995,0.0176 0.3088,0.0396 0.0699,0.0163 0.2415,0.0716 0.3689,0.1422 0.1507,0.1204 0.3882,0.5452 0.4021,0.7868 -0.0659,0.2497 -0.192,0.4482 -0.2407,0.4869 v 0 c -0.2848,0.3251 -0.7792,0.3578 -1.1043,0.073 v 0 c -0.3251,-0.2848 -0.3578,-0.7792 -0.073,-1.1043 v 0 c 0.2847,-0.3251 0.7792,-0.3578 1.1043,-0.073 v 0 c 0.3251,0.2848 0.3578,0.7792 0.073,1.1043 -0.0397,0.0245 -0.0864,0.0524 -0.1149,0.061 v 0 c -0.3039,0.2765 -0.7744,0.2542 -1.0509,-0.0497 v 0 c -0.2764,-0.3039 -0.2542,-0.7745 0.0497,-1.0509 v 0 c 0.304,-0.2765 0.7745,-0.2542 1.0509,0.0497 v 0 c 0.2765,0.3039 0.2543,0.7744 -0.0497,1.0509 -0.0512,0.0116 -0.1077,0.0259 -0.1696,0.0456 v 0 c -0.2777,0.2417 -0.6988,0.2125 -0.9405,-0.0653 v 0 c -0.2416,-0.2777 -0.2124,-0.6988 0.0654,-0.9405 v 0 c 0.2777,-0.2416 0.6988,-0.2124 0.9405,0.0653 v 0 c 0.2416,0.2778 0.2124,0.6989 -0.0654,0.9405 -0.1256,0.041 -0.2864,0.1146 -0.5046,0.2596 v 0 c -0.2002,0.1997 -0.5244,0.1993 -0.7241,-0.001 v 0 c -0.1997,-0.2002 -0.1992,-0.5244 10e-4,-0.7241 0.1646,-0.2366 0.2886,-0.4163 0.3525,-0.5402 0.033,-0.0628 0.0474,-0.1089 0.043,-0.1399 -0.004,-0.0136 -0.033,-0.003 -0.0612,0.008 -0.0362,0.0243 -0.1561,0.2128 -0.2215,0.4545 0.0148,0.224 0.2436,0.6345 0.3736,0.7424 0.1129,0.0619 0.2579,0.1103 0.2906,0.122 0.0422,0.0141 0.0607,0.0273 0.0105,0.0429 -0.1069,0.0313 -0.3135,0.0764 -0.5601,0.1067 -0.2462,0.002 -0.5395,0.008 -0.9021,0.0314 -0.7838,0.0437 -1.7551,0.1272 -2.8829,0.3616 -2.45,0.5325 -5.4951,1.3773 -9.7159,2.5002 -3.2292,0.855 -6.8482,2.0479 -10.4699,3.6017 -5.3952,2.3085 -10.8234,5.0137 -15.4005,7.8651 -7.9743,4.9323 -13.8073,11.0447 -16.1389,15.8178 -1.4876,2.9503 -1.8399,5.0567 -2.3553,6.5691 -0.0997,0.4968 -0.2403,0.9855 -0.4357,1.3939 v 0 c -0.215,0.3394 -0.6643,0.4403 -1.0037,0.2253 v 0 c -0.3394,-0.2149 -0.4403,-0.6643 -0.2254,-1.0037" /><path
           id="path100"
           style="fill:#006fff;fill-opacity:1;fill-rule:nonzero;stroke:none"
           d="m 228.8499,554.3645 c -0.4107,0.3612 -1.1945,0.5959 -1.749,0.5213 v 0 c -0.3805,-0.065 -0.6362,-0.4263 -0.5711,-0.8068 v 0 c 0.065,-0.3805 0.4263,-0.6362 0.8068,-0.5711 v 0 c 0.3805,0.0651 0.6362,0.4263 0.5711,0.8068 v 0 c -0.0651,0.3805 -0.4263,0.6362 -0.8068,0.5711 -0.2015,-0.0293 -0.5087,-0.201 -0.6538,-0.3503 v 0 c -0.241,-0.339 -0.1615,-0.8092 0.1775,-1.0502 v 0 c 0.3391,-0.2409 0.8092,-0.1614 1.0502,0.1776 v 0 c 0.241,0.339 0.1615,0.8092 -0.1776,1.0502 v 0 c -0.339,0.2409 -0.8092,0.1614 -1.0501,-0.1776 -0.1212,-0.1604 -0.2258,-0.4518 -0.252,-0.6369 v 0 c -0.004,-0.4459 0.3542,-0.8105 0.8001,-0.8145 v 0 c 0.4458,-0.004 0.8104,0.3542 0.8144,0.8 v 0 c 0.004,0.4458 -0.3541,0.8105 -0.8,0.8145 v 0 c -0.4458,0.004 -0.8105,-0.3542 -0.8145,-0.8 -0.0224,-0.3366 0.1121,-0.8263 0.3283,-1.1961 0.4472,-0.5947 1.1508,-1.1475 1.729,-1.7152 0.6659,-0.6467 1.3151,-1.4681 1.9047,-2.2049 0.4647,-0.5548 0.8077,-1.0034 1.0773,-1.4137 0.3004,-0.4799 0.4917,-0.7167 0.4932,-0.9299 0.0323,-0.0766 0.0417,-0.0124 -0.0727,-0.1507 -0.1112,-0.16 -0.2723,-0.2906 -0.557,-0.4761 -0.5768,-0.3839 -1.3739,-0.724 -2.1596,-1.0545 v 0 c -0.4442,-0.1869 -0.6528,-0.6985 -0.4659,-1.1427 v 0 c 0.1868,-0.4442 0.6984,-0.6528 1.1426,-0.4659 v 0 c 0.4442,0.1868 0.6528,0.6984 0.466,1.1426 v 0 c -0.1869,0.4442 -0.6985,0.6528 -1.1427,0.466 -0.9902,-0.4833 -2.0276,-1.1436 -2.6334,-1.834 v 0 c -0.2676,-0.2731 -0.263,-0.7114 0.0102,-0.979 v 0 c 0.2732,-0.2675 0.7115,-0.2629 0.979,0.0103 v 0 c 0.2675,0.2731 0.263,0.7114 -0.0102,0.979 v 0 c -0.2732,0.2675 -0.7115,0.2629 -0.979,-0.0103 -0.302,-0.3562 -0.5562,-0.8412 -0.5948,-1.2762 v 0 c -0.0388,-0.3303 0.1974,-0.6295 0.5277,-0.6684 v 0 c 0.3303,-0.0388 0.6296,0.1975 0.6684,0.5278 v 0 c 0.0388,0.3303 -0.1974,0.6295 -0.5277,0.6683 v 0 c -0.3303,0.0389 -0.6296,-0.1974 -0.6684,-0.5277 -0.002,-0.4351 0.2457,-0.9676 0.6462,-1.2896 v 0 c 0.2138,-0.1851 0.5371,-0.1618 0.7222,0.0519 v 0 c 0.1852,0.2138 0.1619,0.5372 -0.0519,0.7223 -0.2094,0.2061 -0.1854,0.2367 -0.1204,0.3748 0.0288,0.1381 0.1335,0.2362 0.3879,0.4481 0.5068,0.4458 1.3719,0.8616 2.3209,1.1941 0.7925,0.3333 1.7206,0.7355 2.4414,1.2044 0.3639,0.2406 0.7446,0.5639 0.9965,0.8895 0.2486,0.3471 0.4422,0.9283 0.408,1.4044 -0.1011,0.64 -0.4471,1.1955 -0.7225,1.6492 -0.2832,0.4859 -0.6669,1.0418 -1.1344,1.6479 -0.5893,0.7312 -1.3107,1.6327 -2.0648,2.3665 -0.6576,0.6339 -1.2848,1.1097 -1.5373,1.4722 -0.1515,0.1334 -0.1728,0.0978 -0.1923,0.1011 -0.0246,-0.0152 -0.0879,-0.1653 -0.135,-0.2215 -0.0706,-0.0444 -0.2704,-0.1483 -0.3379,-0.1547 0.1493,0.0458 0.4352,-0.0535 0.4626,-0.1497 v 0 c 0.2779,-0.2901 0.7384,-0.3 1.0285,-0.0221 v 0 c 0.2901,0.2779 0.3,0.7383 0.0221,1.0284" /><path
           id="path102"
           style="fill:#006fff;fill-opacity:1;fill-rule:nonzero;stroke:none"
           d="m 194.9107,546.8994 c -0.1079,0.6231 -0.5438,1.2775 -1.022,1.7279 v 0 c -0.2917,0.2725 -0.7491,0.2569 -1.0215,-0.0348 v 0 c -0.2725,-0.2916 -0.257,-0.749 0.0347,-1.0215 v 0 c 0.2917,-0.2725 0.749,-0.2569 1.0215,0.0348 v 0 c 0.2725,0.2916 0.2569,0.749 -0.0347,1.0215 -0.4798,0.4411 -1.1245,0.8419 -1.6915,1.0609 v 0 c -0.3705,0.1415 -0.7855,-0.0442 -0.9269,-0.4147 v 0 c -0.1415,-0.3706 0.0442,-0.7856 0.4147,-0.927 v 0 c 0.3705,-0.1414 0.7855,0.0443 0.927,0.4148 v 0 c 0.1414,0.3705 -0.0443,0.7855 -0.4148,0.9269 -0.4844,0.1966 -1.101,0.3095 -1.6238,0.2094 v 0 c -0.4063,-0.1038 -0.6515,-0.5174 -0.5476,-0.9237 v 0 c 0.1039,-0.4063 0.5175,-0.6514 0.9237,-0.5476 v 0 c 0.4063,0.1039 0.6515,0.5175 0.5476,0.9238 v 0 c -0.1039,0.4063 -0.5174,0.6514 -0.9237,0.5475 -0.5203,-0.1391 -1.1004,-0.6009 -1.4368,-1.1919 -0.7847,-1.503 -0.9833,-4.5477 -0.9957,-7.0572 0.0263,-2.4381 0.341,-4.3313 0.4224,-5.7879 0.0484,-0.795 0.0168,-1.5018 0.007,-2.1116 0.026,-0.2902 0.0489,-0.5279 0.0736,-0.6987 0.0124,-0.0852 0.0253,-0.1527 0.0393,-0.2008 0.014,-0.0496 0.0291,-0.1188 1.2372,-0.6073 v 0 c 0.2807,0.269 0.2902,0.7147 0.0212,0.9954 v 0 c -0.269,0.2807 -0.7147,0.2902 -0.9954,0.0212 v 0 c -0.2807,-0.269 -0.2902,-0.7147 -0.0212,-0.9954 v 0 c 0.269,-0.2807 0.7147,-0.2902 0.9954,-0.0212 0.1933,0.3994 0.1852,0.4612 0.1754,0.5199 v 0 c 0.0383,0.3602 -0.2227,0.6834 -0.5829,0.7217 v 0 c -0.3603,0.0384 -0.6835,-0.2226 -0.7218,-0.5829 v 0 c -0.0383,-0.3603 0.2226,-0.6834 0.5829,-0.7217 v 0 c 0.3603,-0.0384 0.6834,0.2226 0.7218,0.5829 -0.01,0.0572 -0.0175,0.1412 -0.0219,0.2552 v 0 c 0.0344,0.334 -0.2085,0.6327 -0.5426,0.667 v 0 c -0.334,0.0344 -0.6327,-0.2085 -0.6671,-0.5425 v 0 c -0.0343,-0.3341 0.2086,-0.6327 0.5426,-0.6671 v 0 c 0.3341,-0.0344 0.6327,0.2085 0.6671,0.5426 -0.009,0.2279 -0.005,0.5777 0.0183,1.0765 v 0 c 0.031,0.2811 -0.1718,0.534 -0.4528,0.565 v 0 c -0.2811,0.031 -0.5341,-0.1717 -0.5651,-0.4528 -0.0867,-0.4945 -0.155,-0.8421 -0.2101,-1.0642 -0.0275,-0.1113 -0.0516,-0.1904 -0.0731,-0.2407 -0.0213,-0.0491 -0.0357,-0.0393 0.1577,0.3602 1.203,-0.4933 1.2194,-0.5154 1.2372,-0.4741 0.0177,0.0423 0.0368,0.1089 0.0565,0.1952 0.0393,0.1721 0.0811,0.4268 0.1193,0.7295 0.0146,0.5837 0.0526,1.3678 0.007,2.2502 -0.0885,1.5659 -0.394,3.3902 -0.4125,5.7034 -0.0592,2.4523 0.0375,5.216 0.6009,6.3004 0.1675,0.3764 0.2062,0.4189 0.3928,0.4604 0.1843,0.0807 0.363,0.0507 0.7357,-0.0798 0.4282,-0.1609 0.85,-0.4257 1.2168,-0.7755 0.3683,-0.3405 0.559,-0.6023 0.5663,-0.8602 v 0 c 0.0521,-0.3984 0.4172,-0.6791 0.8156,-0.627 v 0 c 0.3983,0.0521 0.679,0.4172 0.6269,0.8156" /><path
           id="path104"
           style="fill:#006fff;fill-opacity:1;fill-rule:nonzero;stroke:none"
           d="m 186.9732,537.6177 c -0.2682,-0.0328 -0.2945,-0.0328 -0.0995,-0.0702 v 0 c -0.3715,0.1697 -0.8102,0.006 -0.9798,-0.3655 v 0 c -0.1696,-0.3715 -0.006,-0.8102 0.3655,-0.9798 v 0 c 0.3715,-0.1697 0.8102,-0.006 0.9798,0.3655 v 0 c 0.1697,0.3715 0.006,0.8102 -0.3655,0.9798 0.2616,-0.2171 0.2779,-1.072 0.1928,-1.1764 v 0 c 0.308,0.2732 0.3362,0.7444 0.063,1.0525 v 0 c -0.2732,0.308 -0.7444,0.3362 -1.0524,0.063 v 0 c -0.3081,-0.2732 -0.3363,-0.7444 -0.0631,-1.0525 v 0 c 0.2733,-0.308 0.7444,-0.3362 1.0525,-0.063 -0.0437,-0.0338 -0.0683,-0.052 -0.0162,-0.0297 v 0 c 0.3742,0.1795 0.5321,0.6284 0.3526,1.0027 v 0 c -0.1795,0.3742 -0.6284,0.5321 -1.0027,0.3526 v 0 c -0.3742,-0.1796 -0.5321,-0.6285 -0.3526,-1.0027 v 0 c 0.1795,-0.3743 0.6284,-0.5321 1.0027,-0.3526 0.246,0.1115 0.8524,0.3132 1.6497,0.5495 v 0 c 0.4095,0.1258 0.6396,0.5597 0.5138,0.9693 v 0 c -0.1258,0.4095 -0.5598,0.6396 -0.9693,0.5138 v 0 c -0.4096,-0.1258 -0.6396,-0.5598 -0.5138,-0.9693 v 0 c 0.1258,-0.4096 0.5597,-0.6396 0.9693,-0.5138 1.1972,0.3625 2.7453,0.7756 4.036,1.0499 v 0 c 0.4269,0.0925 0.698,0.5137 0.6055,0.9406 v 0 c -0.0926,0.427 -0.5137,0.6981 -0.9407,0.6055 v 0 c -0.427,-0.0925 -0.6981,-0.5137 -0.6055,-0.9406 v 0 c 0.0926,-0.427 0.5137,-0.6981 0.9407,-0.6055 0.6396,0.1559 1.1885,0.2727 1.5994,0.3323 v 0 c 0.4068,0.043 0.7017,0.4076 0.6587,0.8144 v 0 c -0.043,0.4068 -0.4076,0.7017 -0.8144,0.6588 v 0 c -0.4068,-0.043 -0.7017,-0.4077 -0.6587,-0.8145 v 0 c 0.0429,-0.4068 0.4076,-0.7017 0.8144,-0.6587 0.1286,0.0903 0.2275,0.1735 0.322,0.2507 v 0 c 0.2827,0.004 0.509,0.2358 0.5054,0.5185 v 0 c -0.004,0.2828 -0.2357,0.5091 -0.5185,0.5055 -0.1317,0.0743 -0.2969,0.1394 -0.4645,0.1985 -0.4782,-0.0344 -1.1078,-0.1311 -1.779,-0.2594 -1.3309,-0.294 -2.9333,-0.7321 -4.1563,-1.1129 -0.8162,-0.2592 -1.4989,-0.5051 -1.8444,-0.6774 -0.0957,-0.0486 -0.2245,-0.1275 -0.3235,-0.2104 -0.1395,-0.1527 -0.1286,-1.0442 0.1833,-1.2842 0.2943,-0.0827 0.5886,-0.0729 0.9088,-0.0259 v 0 c 0.3981,0.054 0.677,0.4205 0.623,0.8186 v 0 c -0.054,0.398 -0.4204,0.677 -0.8185,0.623" /><path
           id="path106"
           style="fill:#a400c7;fill-opacity:1;fill-rule:nonzero;stroke:none"
           d="m 355.2769,553.6262 c 0.077,0.3399 0.0739,0.8045 -0.0308,1.1519 v 0 c -0.1104,0.3688 -0.4989,0.5783 -0.8677,0.4678 v 0 c -0.3688,-0.1104 -0.5783,-0.4989 -0.4679,-0.8677 v 0 c 0.1105,-0.3688 0.499,-0.5783 0.8678,-0.4679 v 0 c 0.3688,0.1105 0.5783,0.499 0.4678,0.8678 -0.1246,0.3448 -0.476,0.7742 -0.8774,0.9502 v 0 c -0.342,0.1365 -0.7299,-0.0301 -0.8665,-0.3721 v 0 c -0.1365,-0.342 0.0301,-0.73 0.3722,-0.8665 v 0 c 0.342,-0.1365 0.7299,0.0301 0.8664,0.3721 v 0 c 0.1365,0.3421 -0.0301,0.73 -0.3721,0.8665 -0.3396,0.1208 -0.7977,0.0974 -1.1399,-0.003 v 0 c -0.3647,-0.1216 -0.5617,-0.5157 -0.4402,-0.8804 v 0 c 0.1216,-0.3647 0.5158,-0.5617 0.8804,-0.4402 v 0 c 0.3647,0.1216 0.5618,0.5158 0.4402,0.8804 v 0 c -0.1216,0.3647 -0.5157,0.5618 -0.8804,0.4402 -0.3291,-0.102 -0.7172,-0.2884 -1.0806,-0.503 -0.7196,-0.4279 -1.5384,-1.0654 -2.2596,-1.7111 -0.7337,-0.6676 -1.445,-1.4104 -1.8795,-2.0817 -0.243,-0.3925 -0.4687,-0.9138 -0.4712,-1.4028 0.0438,-0.306 0.2595,-0.6986 0.4501,-0.8798 0.1907,-0.1578 0.4803,-0.3075 0.7079,-0.381 0.703,-0.1973 1.6615,-0.128 2.4776,0.01 1.5471,0.2753 3.0548,1.1579 3.9792,1.9515 0.4609,0.3996 0.8355,0.8823 1.06,1.2798 0.1618,0.2962 0.2945,0.6482 0.3574,0.919 0.06,0.2865 0.0569,0.6948 -0.0504,1.004 -0.1661,0.3064 -0.5559,0.5963 -0.798,0.678 -0.2443,0.0577 -0.6292,0.0388 -0.8786,-0.0415 -0.3122,-0.1813 -0.571,-0.5253 -0.652,-0.7203 -0.0669,-0.1785 -0.1222,-0.4098 -0.1566,-0.6072 -0.0656,-0.3867 -0.1053,-0.8548 -0.1465,-1.2829 -0.1777,-2.0738 -0.1842,-4.9163 -0.6768,-6.6055 -0.2218,-0.84 -0.5114,-1.2833 -0.9458,-1.6329 v 0 c -0.397,-0.3294 -0.4517,-0.9183 -0.1223,-1.3153 v 0 c 0.3295,-0.3969 0.9183,-0.4517 1.3153,-0.1222 v 0 c 0.3969,0.3294 0.4517,0.9183 0.1222,1.3152 v 0 c -0.3294,0.397 -0.9183,0.4517 -1.3152,0.1223 -0.3925,-0.3454 -0.7801,-0.5075 -1.2191,-0.5245 v 0 c -0.5085,-0.0316 -0.8951,-0.4694 -0.8635,-0.9779 v 0 c 0.0315,-0.5085 0.4694,-0.8952 0.9779,-0.8636 v 0 c 0.5085,0.0316 0.8952,0.4695 0.8636,0.978 v 0 c -0.0316,0.5085 -0.4695,0.8951 -0.978,0.8635 -0.3586,-0.1016 -0.5263,-0.1396 -0.7421,0.009 v 0 c -0.2854,0.2748 -0.7394,0.2663 -1.0142,-0.019 v 0 c -0.2749,-0.2854 -0.2663,-0.7394 0.019,-1.0143 v 0 c 0.2853,-0.2748 0.7394,-0.2662 1.0142,0.0191 v 0 c 0.2748,0.2853 0.2663,0.7394 -0.019,1.0142 -0.2804,0.1494 -0.4474,0.3833 -0.4685,1.0241 v 0 c 0.0168,0.2823 -0.1984,0.5248 -0.4807,0.5416 v 0 c -0.2823,0.0168 -0.5247,-0.1984 -0.5415,-0.4807 -0.1093,-0.8407 0.114,-1.6301 0.4955,-2.1183 0.4461,-0.4884 1.2119,-0.7778 1.8516,-0.8176 0.7591,0.0574 1.663,0.4214 2.2978,0.9285 0.655,0.5544 1.2579,1.4798 1.5734,2.5611 0.5379,1.9944 0.541,4.9757 0.7001,6.9618 0.0308,0.4397 0.0538,0.8507 0.0968,1.1532 0.0199,0.1471 0.0304,0.213 0.0475,0.2587 0.003,0.0297 -0.1532,-0.1624 -0.3383,-0.2899 -0.0488,0.005 -0.1914,0.003 -0.2216,0.009 -0.0282,0.0299 -0.2324,0.1988 -0.3121,0.3133 -0.0149,0.1042 -0.0193,0.1641 -0.0507,0.0314 -0.0286,-0.1483 -0.0776,-0.2862 -0.1842,-0.4782 -0.1518,-0.2869 -0.3405,-0.5443 -0.6829,-0.838 -0.7942,-0.6898 -1.9397,-1.3796 -3.1833,-1.5714 -0.7466,-0.1241 -1.3802,-0.1823 -1.7116,-0.0534 -0.1041,0.0311 -0.0949,0.0246 -0.1059,0.0459 -0.0114,-0.002 0.0811,-0.1796 0.1069,-0.2373 -0.0383,0.007 0.0217,0.1015 0.2172,0.4215 0.3062,0.5324 0.8693,1.1474 1.548,1.7978 0.6544,0.6378 1.3433,1.2219 1.9581,1.6263 0.3039,0.2017 0.5398,0.3342 0.7531,0.413 0.2005,0.0809 0.2034,0.1001 0.2056,0.0846 0.0751,-0.0142 0.0188,0.0174 0.0361,-0.1116 0.0372,-0.1264 0.0228,-0.2115 -0.0363,-0.3656 v 0 c -0.1067,-0.3873 0.1208,-0.7877 0.5081,-0.8944 v 0 c 0.3873,-0.1067 0.7878,0.1208 0.8945,0.5081" /><path
           id="path108"
           style="fill:#006fff;fill-opacity:1;fill-rule:nonzero;stroke:none"
           d="m 111.8671,674.2225 c -0.0184,0.3975 -0.0281,0.5909 -0.0309,0.596 v 0 c 0.009,0.3956 -0.3048,0.7234 -0.7004,0.7322 v 0 c -0.3956,0.009 -0.7234,-0.3048 -0.7322,-0.7004 v 0 c -0.009,-0.3956 0.3047,-0.7234 0.7003,-0.7322 v 0 c 0.3956,-0.009 0.7235,0.3048 0.7323,0.7004 -1.2763,-0.4087 -1.4245,-0.041 -1.4192,-0.0935 v 0 c 0.0258,-0.3919 0.3644,-0.6886 0.7562,-0.6627 v 0 c 0.3918,0.0258 0.6885,0.3644 0.6627,0.7562 v 0 c -0.0258,0.3919 -0.3644,0.6886 -0.7562,0.6627 v 0 c -0.3919,-0.0258 -0.6886,-0.3644 -0.6627,-0.7562 0.005,-0.0557 0.0127,-0.1488 0.0216,-0.2772 v 0 c 0.0214,-0.3891 0.3542,-0.6871 0.7433,-0.6657 v 0 c 0.3891,0.0215 0.6871,0.3543 0.6657,0.7433 v 0 c -0.0215,0.3891 -0.3543,0.6871 -0.7433,0.6657 v 0 c -0.3891,-0.0214 -0.6872,-0.3542 -0.6657,-0.7433 0.0357,-0.5153 0.0961,-1.5609 0.1726,-2.8778 0.0758,-1.3488 0.1648,-3.038 0.2416,-4.6389 0.1087,-2.291 0.2182,-4.1311 0.2884,-5.4129 0.0591,-0.6983 0.0522,-1.3377 0.1368,-1.8177 v 0 c 0.0429,-0.3185 0.3358,-0.5418 0.6543,-0.4989 v 0 c 0.3184,0.0429 0.5418,0.3358 0.4989,0.6543 v 0 c -0.0429,0.3184 -0.3359,0.5418 -0.6543,0.4989 v 0 c -0.3185,-0.0429 -0.5418,-0.3359 -0.4989,-0.6543 0.0471,-0.25 0.1692,-0.5637 0.3594,-0.7651 v 0 c 0.2142,-0.2129 0.5605,-0.2119 0.7735,0.002 v 0 c 0.213,0.2142 0.212,0.5604 -0.002,0.7734 v 0 c -0.2142,0.213 -0.5605,0.212 -0.7735,-0.002 v 0 c -0.213,-0.2142 -0.212,-0.5605 0.002,-0.7735 0.1121,-0.0943 0.3264,-0.1964 0.476,-0.2195 v 0 c 0.2892,-0.0434 0.5588,0.1559 0.6022,0.4451 v 0 c 0.0434,0.2892 -0.1559,0.5588 -0.4451,0.6022 v 0 c -0.2892,0.0434 -0.5588,-0.1559 -0.6022,-0.4451 v 0 c -0.0434,-0.2892 0.1559,-0.5588 0.4451,-0.6022 0.1387,-0.0102 0.3307,0.014 0.4665,0.0578 v 0 c 0.2714,0.0792 0.4273,0.3635 0.3481,0.6349 v 0 c -0.0792,0.2715 -0.3635,0.4274 -0.635,0.3482 -0.0556,-0.0121 -0.025,-0.004 -0.0221,0.006 0.0129,-0.003 0.1163,-0.0476 0.1377,-0.0519 0.009,-0.0213 0.0317,-0.0226 0.0226,0.1447 -0.028,0.3547 0.0257,0.9699 0.0116,1.7278 -0.059,1.2871 -0.1568,3.1227 -0.2536,5.4074 -0.0671,1.6047 -0.1464,3.2992 -0.2124,4.6507 -0.0619,1.3166 -0.1079,2.3636 -0.1292,2.8836 -0.005,0.1304 -0.009,0.2302 -0.0117,0.2932 -0.003,0.066 -0.1552,0.4782 -1.4323,0.0318 -0.004,-0.0704 -10e-4,-0.2814 0.01,-0.6817 v 0 c 0.0148,-0.4014 0.3523,-0.7148 0.7538,-0.7 v 0 c 0.4014,0.0148 0.7148,0.3523 0.7,0.7538" /><path
           id="path110"
           style="fill:#006fff;fill-opacity:1;fill-rule:nonzero;stroke:none"
           d="m 114.228,673.3108 c -0.1838,-0.3441 -0.222,-0.7445 -0.2119,-1.1443 v 0 c 0.004,-0.391 0.3246,-0.7046 0.7156,-0.7004 v 0 c 0.391,0.004 0.7046,0.3245 0.7004,0.7156 v 0 c -0.004,0.391 -0.3245,0.7046 -0.7155,0.7004 v 0 c -0.3911,-0.004 -0.7047,-0.3246 -0.7005,-0.7156 0.011,-0.3908 0.0489,-0.9106 0.1017,-1.5035 v 0 c 0.0297,-0.3792 0.3611,-0.6626 0.7403,-0.6329 v 0 c 0.3792,0.0296 0.6626,0.3611 0.6329,0.7403 v 0 c -0.0296,0.3792 -0.3611,0.6625 -0.7403,0.6329 v 0 c -0.3792,-0.0297 -0.6625,-0.3611 -0.6329,-0.7403 0.1056,-1.1835 0.2731,-2.716 0.4172,-4.2906 v 0 c 0.0298,-0.3578 0.344,-0.6236 0.7018,-0.5938 v 0 c 0.3577,0.0298 0.6236,0.344 0.5938,0.7018 v 0 c -0.0298,0.3577 -0.344,0.6236 -0.7018,0.5938 v 0 c -0.3577,-0.0299 -0.6236,-0.344 -0.5938,-0.7018 0.2022,-2.1468 0.2965,-4.1991 0.4153,-5.6794 v 0 c 0.0207,-0.3202 0.2971,-0.563 0.6173,-0.5423 v 0 c 0.3202,0.0207 0.563,0.2971 0.5423,0.6173 v 0 c -0.0207,0.3203 -0.2971,0.563 -0.6173,0.5423 v 0 c -0.3202,-0.0207 -0.563,-0.2971 -0.5423,-0.6173 0.0595,-0.7415 0.1277,-1.3602 0.2206,-1.7731 v 0 c 0.0591,-0.296 0.3469,-0.4881 0.6429,-0.4291 v 0 c 0.296,0.0591 0.4881,0.3469 0.4291,0.6429 v 0 c -0.0591,0.296 -0.3469,0.4881 -0.6429,0.4291 v 0 c -0.296,-0.0591 -0.4881,-0.3469 -0.4291,-0.6429 0.049,-0.2133 0.1272,-0.4355 0.2255,-0.5887 v 0 c 0.16,-0.2447 0.488,-0.3133 0.7327,-0.1533 v 0 c 0.2446,0.16 0.3132,0.488 0.1532,0.7327 v 0 c -0.16,0.2446 -0.488,0.3132 -0.7326,0.1532 v 0 c -0.2447,-0.16 -0.3133,-0.488 -0.1533,-0.7326 0.1485,-0.1817 0.6734,-0.3104 0.9188,-0.1747 v 0 c 0.2302,0.1644 0.2835,0.4842 0.1192,0.7143 v 0 c -0.1643,0.2301 -0.4841,0.2835 -0.7143,0.1191 0.1086,0.038 0.5159,-0.0538 0.5621,-0.0792 -0.004,0.003 -0.0125,0.0565 -0.0393,0.223 -0.0586,0.3468 -0.0973,0.9045 -0.133,1.6343 -0.0716,1.4624 -0.1209,3.5323 -0.2793,5.7124 -0.1194,1.588 -0.2612,3.1216 -0.3396,4.29 -0.0391,0.5829 -0.0618,1.0606 -0.0589,1.4113 0.002,0.3417 0.009,0.427 -0.0561,0.2355 v 0 c 0.2467,0.3171 0.1898,0.7741 -0.1272,1.0208 v 0 c -0.317,0.2468 -0.7741,0.1898 -1.0208,-0.1272 z" /><path
           id="path112"
           style="fill:#006fff;fill-opacity:1;fill-rule:nonzero;stroke:none"
           d="m 106.9794,676.708 c -0.0828,0.1678 -0.0931,0.082 -0.0608,0.1128 v 0 c 0.1862,0.3416 0.0603,0.7696 -0.2814,0.9558 v 0 c -0.3416,0.1863 -0.7695,0.0603 -0.9558,-0.2813 v 0 c -0.1863,-0.3416 -0.0603,-0.7696 0.2813,-0.9558 v 0 c 0.3416,-0.1863 0.7696,-0.0603 0.9559,0.2813 0.001,0.0585 0.0118,0.0651 0.2166,0.152 v 0 c 0.3488,0.1418 0.5167,0.5394 0.375,0.8882 v 0 c -0.1418,0.3488 -0.5394,0.5166 -0.8882,0.3749 v 0 c -0.3488,-0.1417 -0.5166,-0.5394 -0.3749,-0.8881 v 0 c 0.1417,-0.3488 0.5394,-0.5167 0.8881,-0.375 0.4423,0.2059 1.2065,0.3 2.2041,0.3621 v 0 c 0.3508,0.0165 0.6218,0.3144 0.6053,0.6652 v 0 c -0.0166,0.3509 -0.3145,0.6219 -0.6653,0.6053 v 0 c -0.3508,-0.0166 -0.6218,-0.3144 -0.6053,-0.6653 v 0 c 0.0166,-0.3508 0.3145,-0.6218 0.6653,-0.6052 1.0435,0.042 2.1818,0.1542 3.3073,0.0521 2.2185,-0.1674 4.3722,-1.366 5.6856,-2.6722 1.1169,-1.0466 1.3147,-2.1854 1.2062,-3.1526 -0.0587,-0.7613 -0.5416,-1.2543 -1.1291,-1.6305 -0.1657,-0.1031 -0.2958,-0.1517 -0.4967,-0.2203 -0.2349,-0.087 -0.5941,-0.1225 -0.9411,-0.2483 -0.2446,-0.1234 -0.4947,-0.4088 -0.5775,-0.5987 -0.0668,-0.1967 -0.0861,-0.4871 -0.0537,-0.6701 0.0876,-0.2611 0.2996,-0.508 0.4373,-0.6081 0.1293,-0.089 0.291,-0.176 0.4381,-0.25 0.2919,-0.1468 0.6062,-0.2903 0.8894,-0.4887 0.4417,-0.2909 0.8513,-0.8298 1.2924,-1.5458 0.7281,-1.1024 1.0875,-2.7284 1.3522,-4.0043 v 0 c 0.06,-0.3248 0.3719,-0.5395 0.6968,-0.4795 v 0 c 0.3248,0.0599 0.5395,0.3719 0.4795,0.6967 v 0 c -0.0599,0.3248 -0.3719,0.5396 -0.6967,0.4796 v 0 c -0.3248,-0.06 -0.5396,-0.3719 -0.4796,-0.6968 0.1322,-0.6371 0.2387,-1.1887 0.356,-1.5322 v 0 c 0.0891,-0.2933 0.3991,-0.4589 0.6924,-0.3698 v 0 c 0.2934,0.0891 0.4589,0.3991 0.3698,0.6924 v 0 c -0.089,0.2934 -0.399,0.4589 -0.6924,0.3698 v 0 c -0.2933,-0.089 -0.4589,-0.3991 -0.3698,-0.6924 0.0647,-0.1839 0.2147,-0.4368 0.4774,-0.5993 v 0 c 0.2735,-0.1095 0.5841,0.0235 0.6936,0.297 v 0 c 0.1096,0.2736 -0.0234,0.5841 -0.2969,0.6937 v 0 c -0.2736,0.1095 -0.5842,-0.0234 -0.6937,-0.297 v 0 c -0.1095,-0.2736 0.0234,-0.5841 0.297,-0.6937 0.3938,-0.0319 0.7431,0.2439 0.8359,0.4445 v 0 c 0.122,0.2551 0.0142,0.5608 -0.2409,0.6829 v 0 c -0.2551,0.122 -0.5608,0.0142 -0.6829,-0.2409 -0.0404,-0.0779 0.1946,0.0945 0.4846,0.1042 0.1587,-0.1209 0.2152,-0.187 0.1881,-0.0688 -0.0662,0.2608 -0.1361,0.7749 -0.2419,1.4268 -0.2113,1.3022 -0.574,3.1479 -1.364,4.5056 -0.4783,0.774 -1.057,1.5147 -1.681,1.9562 -0.3808,0.258 -0.7825,0.4457 -1.0541,0.581 -0.1348,0.067 -0.2168,0.1088 -0.2674,0.1458 -0.0427,0.0262 0.0528,-0.0974 0.1129,-0.2283 -0.004,-0.012 -0.0105,-0.0977 -0.005,-0.1116 -0.0109,-0.007 -0.1295,-0.1315 -0.1718,-0.1717 0.1377,0.0739 0.4978,0.1249 0.8898,0.276 0.2307,0.0953 0.4917,0.2223 0.7336,0.3878 0.727,0.4902 1.5258,1.4212 1.6832,2.5634 0.136,1.1877 -0.2095,2.8994 -1.5328,4.2498 -1.4788,1.4364 -4.0066,2.8138 -6.5155,3.0314 -1.2463,0.0912 -2.4698,-0.0399 -3.4743,-0.0946 -1.0353,-0.0339 -1.9939,-0.1262 -2.6572,-0.3695 -0.3481,-0.1377 -0.7359,-0.4214 -0.9407,-0.7406 -0.1736,-0.3468 -0.1972,-0.8976 -0.0621,-1.3036 v 0 c 0.1425,-0.3756 0.5626,-0.5645 0.9382,-0.4219 v 0 c 0.3755,0.1426 0.5644,0.5626 0.4219,0.9382 z" /><path
           id="path114"
           style="fill:#006fff;fill-opacity:1;fill-rule:nonzero;stroke:none"
           d="m 128.5184,679.0141 c -0.2009,0.4879 -0.5746,1.3563 -1.1071,1.8294 v 0 c -0.2608,0.2336 -0.6616,0.2114 -0.8952,-0.0494 v 0 c -0.2336,-0.2608 -0.2115,-0.6616 0.0494,-0.8952 v 0 c 0.2608,-0.2336 0.6616,-0.2115 0.8952,0.0494 v 0 c 0.2336,0.2608 0.2114,0.6616 -0.0494,0.8952 -0.1769,0.1578 -0.4809,0.3056 -0.7185,0.3458 v 0 c -0.3577,0.0377 -0.6781,-0.2218 -0.7157,-0.5795 v 0 c -0.0376,-0.3577 0.2218,-0.6782 0.5795,-0.7158 v 0 c 0.3577,-0.0376 0.6782,0.2219 0.7158,0.5796 v 0 c 0.0376,0.3577 -0.2219,0.6781 -0.5796,0.7157 -0.2407,0.0216 -0.5857,-0.0524 -0.8095,-0.1712 v 0 c -0.3168,-0.1897 -0.4198,-0.6003 -0.2301,-0.917 v 0 c 0.1898,-0.3167 0.6003,-0.4197 0.917,-0.23 v 0 c 0.3168,0.1897 0.4197,0.6003 0.23,0.917 v 0 c -0.1897,0.3167 -0.6002,0.4197 -0.9169,0.23 -0.7598,-0.5263 -1.2423,-1.849 -1.4923,-2.9287 -0.1889,-0.8851 -0.2674,-1.8326 -0.1062,-2.5314 0.2212,-0.7061 0.9101,-1.2492 1.5549,-1.4345 0.6348,-0.162 1.4485,-0.1411 2.1188,0.0329 0.6378,0.1823 1.2781,0.5829 1.6605,1.0299 0.2912,0.3792 0.3862,0.8219 0.4444,0.9997 0.0562,0.1567 0.0879,0.2584 0.1092,0.2813 0.005,0.003 -0.0487,-0.0947 -0.1079,-0.1719 -0.1007,-0.0779 -0.4441,-0.1751 -0.5858,-0.1654 v 0 c 0.3851,-0.0968 0.7758,0.137 0.8725,0.522 v 0 c 0.0968,0.3851 -0.1369,0.7758 -0.522,0.8726 v 0 c -0.3851,0.0967 -0.7757,-0.137 -0.8725,-0.5221 v 0 c -0.0968,-0.3851 0.1369,-0.7757 0.522,-0.8725 -0.1707,0.1087 -0.2031,0.1136 -0.0925,-0.058 v 0 c 0.219,-0.3337 0.6671,-0.4268 1.0008,-0.2078 v 0 c 0.3338,0.2189 0.4268,0.667 0.2079,1.0007 v 0 c -0.219,0.3338 -0.667,0.4269 -1.0008,0.2079 v 0 c -0.3337,-0.2189 -0.4268,-0.667 -0.2079,-1.0008 0.1133,-0.1745 0.2692,-0.4367 0.4607,-0.6824 v 0 c 0.2497,-0.3141 0.7067,-0.3663 1.0208,-0.1166 v 0 c 0.3141,0.2496 0.3664,0.7067 0.1167,1.0208 v 0 c -0.2497,0.3141 -0.7068,0.3664 -1.0209,0.1167 v 0 c -0.3141,-0.2497 -0.3663,-0.7068 -0.1166,-1.0209 0.8481,-0.9259 2.2218,-1.6112 3.9809,-2.5113 v 0 c 0.247,-0.1378 0.5589,-0.0494 0.6967,0.1975 v 0 c 0.1378,0.2469 0.0494,0.5589 -0.1975,0.6967 -1.6921,1.0264 -2.8122,1.7131 -3.3426,2.5213 -0.1338,0.1635 -0.2551,0.3682 -0.3895,0.5711 -0.1371,0.206 -0.3876,0.499 -0.7662,0.6598 -0.1999,0.0243 -0.5906,-0.0871 -0.7311,-0.2023 -0.1004,-0.1161 -0.1877,-0.2758 -0.2146,-0.3547 -0.0418,-0.1398 -0.0649,-0.2783 -0.0923,-0.4007 -0.0779,-0.2767 -0.0839,-0.4658 -0.1708,-0.5311 -0.2326,-0.2762 -0.5488,-0.4603 -1.0053,-0.5639 -0.5123,-0.1349 -0.9884,-0.1439 -1.4079,-0.0155 -0.4093,0.1051 -0.5389,0.1725 -0.5575,0.4383 -0.1174,0.43 -0.0496,1.092 0.1282,1.8932 0.2028,1.0036 0.5026,1.9802 0.7928,2.0832 0.0421,0.0404 -0.0322,0.0285 -0.0138,0.0228 0.0217,0.013 -0.0345,0.0444 0.009,0.005 0.2424,-0.2207 0.4438,-0.8741 0.5773,-1.3581 v 0 c 0.1307,-0.3798 0.5446,-0.5818 0.9244,-0.4512 v 0 c 0.3799,0.1307 0.5819,0.5446 0.4512,0.9245 z" /><path
           id="path116"
           style="fill:#a400c7;fill-opacity:1;fill-rule:nonzero;stroke:none"
           d="m 242.9914,485.8988 c 0.0534,-0.1109 0.1057,-0.2368 0.1567,-0.3841 v 0 c -0.002,-0.3159 0.2533,-0.5734 0.5692,-0.575 v 0 c 0.316,-0.002 0.5734,0.2533 0.575,0.5692 v 0 c 0.002,0.316 -0.2532,0.5734 -0.5692,0.575 v 0 c -0.3159,0.002 -0.5734,-0.2532 -0.575,-0.5692 -0.0421,-0.7388 -0.1179,-1.901 -0.269,-3.5211 v 0 c -0.0263,-0.3788 0.2594,-0.7073 0.6382,-0.7336 v 0 c 0.3788,-0.0263 0.7072,0.2595 0.7335,0.6383 v 0 c 0.0263,0.3788 -0.2594,0.7072 -0.6382,0.7335 v 0 c -0.3788,0.0263 -0.7072,-0.2594 -0.7335,-0.6382 -0.084,-0.9498 -0.1849,-2.0429 -0.3169,-3.4587 v 0 c -0.0328,-0.4082 0.2715,-0.7657 0.6797,-0.7986 v 0 c 0.4081,-0.0328 0.7657,0.2715 0.7985,0.6797 v 0 c 0.0328,0.4081 -0.2714,0.7657 -0.6796,0.7985 v 0 c -0.4082,0.0328 -0.7657,-0.2714 -0.7986,-0.6796 -0.132,-1.581 -0.2685,-3.5319 -0.4383,-5.2834 -0.1595,-1.7312 -0.3421,-3.2526 -0.4436,-4.34 -0.044,-0.519 -0.0554,-0.9342 -0.0589,-1.2339 0.008,-0.2581 0.0112,-0.4853 0.0223,-0.6648 0.006,-0.0913 0.0139,-0.191 0.0274,-0.2703 0.008,-0.0435 0.0232,-0.1197 0.0411,-0.1765 0.0249,-0.0679 0.1262,-0.2452 0.2492,-0.3621 v 0 c 0.2746,-0.2142 0.6708,-0.1653 0.885,0.1093 v 0 c 0.2141,0.2745 0.1652,0.6707 -0.1094,0.8849 v 0 c -0.2745,0.2142 -0.6707,0.1653 -0.8849,-0.1093 v 0 c -0.2142,-0.2745 -0.1652,-0.6707 0.1093,-0.8849 0.975,0.2806 0.9823,0.3154 0.9953,0.3671 v 0 c 0.1136,0.3205 -0.0542,0.6724 -0.3747,0.7859 v 0 c -0.3205,0.1136 -0.6724,-0.0542 -0.786,-0.3748 v 0 c -0.1135,-0.3205 0.0543,-0.6723 0.3748,-0.7859 v 0 c 0.3205,-0.1135 0.6724,0.0542 0.7859,0.3748 0.0129,0.0509 0.0336,0.1243 0.0607,0.2158 v 0 c 0.1106,0.3129 -0.0534,0.6562 -0.3663,0.7668 v 0 c -0.3129,0.1106 -0.6562,-0.0534 -0.7668,-0.3663 v 0 c -0.1106,-0.3129 0.0534,-0.6562 0.3663,-0.7668 v 0 c 0.3129,-0.1106 0.6562,0.0534 0.7668,0.3663 0.0541,0.1826 0.1338,0.4372 0.228,0.7304 v 0 c 0.1061,0.2971 -0.0488,0.624 -0.346,0.7301 v 0 c -0.2971,0.1061 -0.624,-0.0488 -0.73,-0.346 v 0 c -0.1061,-0.2971 0.0488,-0.624 0.3459,-0.73 v 0 c 0.2971,-0.1061 0.624,0.0488 0.7301,0.3459 0.1885,0.5867 0.4334,1.3235 0.6447,1.9385 v 0 c 0.1,0.2646 -0.0334,0.5601 -0.2979,0.66 v 0 c -0.2646,0.1 -0.56,-0.0334 -0.66,-0.2979 -0.2513,-0.6092 -0.5365,-1.341 -0.7628,-1.9165 -0.1133,-0.2878 -0.2122,-0.5375 -0.2851,-0.7139 -0.0364,-0.0883 -0.0662,-0.1579 -0.0882,-0.2051 -0.0218,-0.0468 -0.0336,-0.065 0.8216,0.2892 0.2289,-0.1798 0.3195,-0.336 0.3362,-0.3732 0.01,-0.026 0.0193,-0.0615 0.0232,-0.0554 0.006,0.0202 0.0144,0.0563 0.0247,0.1316 0.0206,0.1536 0.0504,0.3825 0.0752,0.6583 0.0148,0.291 0.035,0.6533 0.0876,1.1355 0.1061,1.0644 0.2963,2.5915 0.4646,4.3415 0.162,1.7732 0.2896,3.735 0.4112,5.3061 0.0963,1.4217 0.162,2.5254 0.2104,3.4824 0.0757,1.6457 0.076,2.8511 0.0415,3.6106 0.0526,0.1524 0.1037,0.2913 0.1538,0.4106 v 0 c -0.006,0.4017 -0.336,0.7227 -0.7377,0.717 v 0 c -0.4017,-0.006 -0.7227,-0.336 -0.717,-0.7377" /><path
           id="path118"
           style="fill:#a400c7;fill-opacity:1;fill-rule:nonzero;stroke:none"
           d="m 248.4174,486.2244 c -0.4065,-0.3424 -0.7056,-0.973 -0.8852,-1.6479 v 0 c -0.1005,-0.407 0.1479,-0.8184 0.5549,-0.9189 v 0 c 0.4071,-0.1005 0.8185,0.1479 0.919,0.555 v 0 c 0.1005,0.407 -0.148,0.8184 -0.555,0.9189 v 0 c -0.407,0.1005 -0.8184,-0.148 -0.9189,-0.555 -0.1738,-0.6646 -0.3076,-1.5246 -0.4069,-2.4616 v 0 c -0.041,-0.4349 0.2782,-0.8206 0.713,-0.8617 v 0 c 0.4348,-0.0411 0.8206,0.2781 0.8617,0.7129 v 0 c 0.041,0.4349 -0.2782,0.8206 -0.713,0.8617 v 0 c -0.4348,0.0411 -0.8206,-0.2781 -0.8617,-0.7129 -0.1972,-1.8698 -0.2803,-4.1889 -0.3352,-6.3627 v 0 c -0.007,-0.4717 0.3691,-0.8601 0.8408,-0.8674 v 0 c 0.4717,-0.007 0.8601,0.3691 0.8674,0.8408 v 0 c 0.007,0.4717 -0.3691,0.8601 -0.8408,0.8674 v 0 c -0.4717,0.007 -0.8601,-0.3691 -0.8674,-0.8408 -0.0151,-2.0413 -0.0568,-3.9397 -0.1031,-5.4743 0.004,-1.0952 -0.0395,-2.0721 -0.003,-2.6209 0.009,-0.1415 0.0254,-0.2872 0.0517,-0.3962 v 0 c 0.0488,-0.3398 0.3638,-0.5756 0.7036,-0.5268 v 0 c 0.3398,0.0488 0.5756,0.3638 0.5268,0.7036 v 0 c -0.0488,0.3398 -0.3638,0.5756 -0.7036,0.5268 v 0 c -0.3398,-0.0488 -0.5756,-0.3638 -0.5268,-0.7036 0.0358,-0.1341 0.3412,-0.5255 0.8278,-0.5642 v 0 c 0.3106,0.089 0.4903,0.4129 0.4014,0.7235 v 0 c -0.0889,0.3106 -0.4128,0.4903 -0.7235,0.4014 v 0 c -0.3106,-0.0889 -0.4903,-0.4128 -0.4014,-0.7234 v 0 c 0.089,-0.3107 0.4129,-0.4904 0.7235,-0.4015 0.2459,0.1423 0.3827,0.3321 0.4345,0.459 v 0 c 0.1368,0.2703 0.0285,0.6003 -0.2418,0.7371 v 0 c -0.2702,0.1368 -0.6003,0.0286 -0.7371,-0.2417 v 0 c -0.1368,-0.2703 -0.0286,-0.6003 0.2417,-0.7371 v 0 c 0.2703,-0.1368 0.6003,-0.0286 0.7372,0.2417 0.0444,0.1158 0.1002,0.2791 0.1617,0.4748 v 0 c 0.1005,0.2643 -0.0323,0.5601 -0.2966,0.6606 v 0 c -0.2643,0.1005 -0.5601,-0.0323 -0.6606,-0.2966 -0.0784,-0.172 -0.1363,-0.2782 -0.1835,-0.3436 -0.0396,-0.0538 0.0278,0.0431 0.2225,0.1707 0.4353,-0.0534 0.7077,-0.3811 0.7246,-0.3838 0.007,0.0222 0.0189,0.0757 0.0336,0.1914 0.0581,0.4791 0.199,1.454 0.2943,2.5828 0.0801,1.5426 0.1559,3.4606 0.2046,5.5137 0.0126,2.1651 0.0511,4.4274 0.2017,6.2405 0.0746,0.9045 0.1713,1.6613 0.3061,2.2465 0.129,0.5748 0.2165,0.8268 0.2963,0.8571 v 0 c 0.3188,0.2444 0.3792,0.701 0.1348,1.0198 v 0 c -0.2443,0.3189 -0.7009,0.3793 -1.0198,0.1349 z" /><path
           id="path120"
           style="fill:#a400c7;fill-opacity:1;fill-rule:nonzero;stroke:none"
           d="m 240.4818,485.6091 c -0.0474,0.0625 -0.0898,-0.111 0.0357,0.0137 v 0 c 0.2594,0.302 0.2248,0.7571 -0.0772,1.0165 v 0 c -0.302,0.2593 -0.7571,0.2247 -1.0165,-0.0773 v 0 c -0.2593,-0.302 -0.2247,-0.7571 0.0773,-1.0164 v 0 c 0.302,-0.2594 0.7571,-0.2248 1.0164,0.0772 0.139,0.1768 0.4231,0.3773 0.9875,0.687 v 0 c 0.3463,0.189 0.4738,0.6229 0.2848,0.9692 v 0 c -0.189,0.3462 -0.6229,0.4737 -0.9692,0.2847 v 0 c -0.3462,-0.189 -0.4737,-0.6229 -0.2847,-0.9691 v 0 c 0.189,-0.3463 0.6229,-0.4738 0.9691,-0.2848 0.9074,0.4783 2.1023,1.1175 3.5239,1.4176 v 0 c 0.4087,0.0926 0.665,0.499 0.5724,0.9078 v 0 c -0.0926,0.4087 -0.499,0.665 -0.9077,0.5724 v 0 c -0.4088,-0.0926 -0.6651,-0.499 -0.5725,-0.9077 v 0 c 0.0926,-0.4088 0.499,-0.6651 0.9078,-0.5725 1.9869,0.4658 4.338,-0.0807 6.0443,-1.179 1.0774,-0.6543 1.7273,-1.505 2.1271,-2.4743 0.4116,-0.9564 0.4871,-1.8222 0.2866,-2.5458 -0.1243,-0.5341 -0.4845,-0.9082 -1.0863,-1.3039 -0.6005,-0.4066 -1.3101,-0.6842 -2.0501,-0.8719 -0.6309,-0.1659 -1.2414,-0.1897 -1.7853,-0.2376 -0.3619,-0.0336 -0.702,-0.0834 -0.9158,-0.1368 -0.1716,-0.0554 -0.6154,-0.8234 -0.431,-1.2473 v 0 c 0.2653,-0.318 0.7382,-0.3607 1.0562,-0.0954 v 0 c 0.3181,0.2653 0.3608,0.7382 0.0955,1.0563 v 0 c -0.2654,0.318 -0.7383,0.3607 -1.0563,0.0954 v 0 c -0.318,-0.2653 -0.3608,-0.7382 -0.0954,-1.0563 0.1592,-0.1526 0.3231,-0.2457 0.4145,-0.285 v 0 c 0.3854,-0.1574 0.8254,0.0274 0.9828,0.4128 v 0 c 0.1574,0.3854 -0.0274,0.8254 -0.4127,0.9828 v 0 c -0.3854,0.1574 -0.8254,-0.0274 -0.9828,-0.4127 v 0 c -0.1575,-0.3854 0.0273,-0.8254 0.4127,-0.9829 0.1639,-0.0688 0.4011,-0.1482 0.6763,-0.2443 v 0 c 0.3982,-0.1351 0.8306,0.0781 0.9657,0.4763 v 0 c 0.1352,0.3982 -0.0781,0.8306 -0.4763,0.9657 v 0 c -0.3982,0.1351 -0.8305,-0.0781 -0.9657,-0.4763 v 0 c -0.1351,-0.3982 0.0781,-0.8306 0.4763,-0.9657 0.5531,-0.1931 1.2783,-0.4558 1.9647,-0.8501 v 0 c 0.374,-0.21 0.8475,-0.0771 1.0575,0.2969 v 0 c 0.21,0.374 0.0771,0.8475 -0.2969,1.0575 v 0 c -0.3741,0.21 -0.8475,0.0771 -1.0575,-0.2969 v 0 c -0.2101,-0.374 -0.0771,-0.8475 0.2969,-1.0575 2.9108,-1.4907 4.5642,-6.5554 4.4025,-7.9257 v 0 c -0.0434,-0.343 0.1995,-0.6561 0.5424,-0.6995 v 0 c 0.3429,-0.0433 0.6561,0.1995 0.6995,0.5425 0.241,1.816 -1.5341,7.4118 -4.8838,9.4371 -0.8054,0.4434 -1.6647,0.7492 -2.2359,0.9377 -0.2869,0.0947 -0.4967,0.1592 -0.5951,0.1977 -0.0406,0.0146 0.038,-0.0338 0.1679,-0.1511 0.1524,-0.3855 -0.2674,-1.1246 -0.3507,-1.1573 0.114,0.0306 0.3539,0.0646 0.6799,0.0936 0.5077,0.0476 1.2479,0.0883 2.0229,0.2866 0.8318,0.2194 1.7602,0.5945 2.4993,1.0887 0.7379,0.5052 1.4189,1.2798 1.6732,2.1455 0.2641,0.9945 0.1676,2.3224 -0.2984,3.5013 -0.478,1.1657 -1.4115,2.3919 -2.6927,3.2217 -1.9726,1.2166 -4.8569,1.8551 -7.2113,1.3374 -1.6044,-0.3854 -2.9777,-1.1383 -3.873,-1.6439 -0.6248,-0.3394 -1.1074,-0.6798 -1.3967,-1.0016 -0.3029,-0.3742 -0.4354,-1.0041 -0.3191,-1.4221 v 0 c 0.1295,-0.3803 0.5428,-0.5836 0.9231,-0.454 v 0 c 0.3802,0.1295 0.5835,0.5428 0.4539,0.9231" /><path
           id="path122"
           style="fill:#a400c7;fill-opacity:1;fill-rule:nonzero;stroke:none"
           d="m 260.1731,492.5814 c -0.009,0.1267 -0.015,0.2153 -0.0171,0.2673 v 0 c -0.0496,0.4056 -0.4186,0.6943 -0.8242,0.6447 v 0 c -0.4057,-0.0495 -0.6943,-0.4186 -0.6448,-0.8242 v 0 c 0.0496,-0.4057 0.4186,-0.6943 0.8243,-0.6447 v 0 c 0.4056,0.0495 0.6943,0.4186 0.6447,0.8242 -0.003,0.0584 -1.4893,0.007 -1.4926,-0.095 v 0 c 0.0202,-0.4151 0.373,-0.7353 0.7881,-0.7152 v 0 c 0.4151,0.0201 0.7353,0.373 0.7152,0.7881 v 0 c -0.0201,0.4151 -0.373,0.7353 -0.7881,0.7152 v 0 c -0.4151,-0.0202 -0.7353,-0.373 -0.7152,-0.7881 -0.005,-0.0692 0.002,-0.2563 0.0181,-0.5338 v 0 c 0.0371,-0.4279 0.414,-0.7447 0.8418,-0.7077 v 0 c 0.4279,0.0371 0.7447,0.414 0.7077,0.8418 v 0 c -0.0371,0.4279 -0.414,0.7447 -0.8418,0.7077 v 0 c -0.4279,-0.0371 -0.7447,-0.414 -0.7077,-0.8418 0.0312,-0.5543 0.0979,-1.492 0.1704,-2.5335 0.073,-1.0072 0.0946,-2.173 0.1101,-3.153 0.0235,-0.5544 0.034,-1.0596 0.058,-1.4293 0.0304,-0.2134 0.0668,-0.4101 0.1041,-0.543 0.0193,-0.07 0.0449,-0.1571 0.0718,-0.2225 0.0174,-0.0427 0.0654,-0.151 0.1263,-0.2461 0.1332,-0.1451 0.9264,-0.2576 1.1835,-0.0538 0.1324,0.2105 0.1922,0.4602 0.197,0.5661 0.002,0.0951 -0.005,0.2016 -0.0114,0.2857 -0.0133,0.167 -0.0297,0.3102 -0.019,0.4371 0.01,0.7023 0.6721,1.7512 1.3611,2.1312 0.1716,0.1221 0.2327,0.1193 0.4341,0.0534 0.2113,-0.0455 0.3355,-0.1302 0.4979,-0.343 0.3253,-0.355 0.4333,-1.106 0.4694,-1.7582 0.008,-0.4287 0.0427,-0.4616 -0.0647,-0.469 -0.1713,-0.2404 -0.7229,-0.3274 -1.3712,-0.2801 v 0 c -0.4556,0.0217 -0.8426,-0.33 -0.8643,-0.7857 v 0 c -0.0218,-0.4556 0.33,-0.8426 0.7856,-0.8643 v 0 c 0.4557,-0.0218 0.8426,0.33 0.8644,0.7856 v 0 c 0.0217,0.4556 -0.33,0.8426 -0.7857,0.8644 -0.3725,-0.0372 -0.6481,-0.0331 -0.8652,0.029 v 0 c -0.3283,0.1694 -0.7319,0.0406 -0.9013,-0.2877 v 0 c -0.1695,-0.3283 -0.0407,-0.7318 0.2876,-0.9013 v 0 c 0.3283,-0.1694 0.7318,-0.0407 0.9013,0.2877 v 0 c 0.1695,0.3283 0.0407,0.7318 -0.2876,0.9013 -0.1086,0.0237 -0.1272,0.002 -0.1623,0.0186 v 0 c -0.1892,0.2656 -0.558,0.3274 -0.8236,0.1381 v 0 c -0.2655,-0.1892 -0.3274,-0.558 -0.1381,-0.8236 v 0 c 0.1893,-0.2655 0.558,-0.3274 0.8236,-0.1381 v 0 c 0.2656,0.1893 0.3274,0.558 0.1381,0.8236 -0.0473,0.007 -0.0517,-0.0886 -0.0629,-0.0593 v 0 c 0.041,0.2799 -0.1526,0.5399 -0.4324,0.5809 v 0 c -0.2798,0.041 -0.5399,-0.1526 -0.5809,-0.4324 -0.0503,-0.2372 0.0123,-0.5721 0.1143,-0.7744 0.1147,-0.1933 0.3281,-0.3961 0.5106,-0.5225 0.3648,-0.2383 0.907,-0.4115 1.4001,-0.4899 0.8665,-0.0251 1.9758,0.2323 2.6027,0.8242 0.3933,0.5143 0.4391,1.1901 0.3893,1.6696 -0.0533,0.7412 -0.2664,1.86 -0.8196,2.5826 -0.3114,0.3684 -0.8066,0.6974 -1.2535,0.8263 -0.4565,0.1085 -1.0922,0.0404 -1.5495,-0.2143 -1.0076,-0.6364 -1.9569,-2.1388 -2.0663,-3.2788 -0.0136,-0.2472 0.008,-0.4932 0.0199,-0.6451 0.006,-0.0752 0.009,-0.1104 0.007,-0.1286 10e-4,-0.007 0.0452,0.1574 0.1386,0.3209 0.2517,0.1973 1.0382,0.0865 1.1652,-0.0493 0.0531,-0.0838 0.094,-0.1731 0.104,-0.1881 0.0124,-0.0117 0.0231,-0.0126 0.0279,0.0307 0.008,0.0941 0.0169,0.2327 0.0284,0.4215 -0.009,0.3302 -0.005,0.8282 -0.0152,1.4016 -0.0429,0.9799 -0.0937,2.1885 -0.1975,3.2428 -0.1061,1.0411 -0.2063,1.9773 -0.2707,2.5262 -0.0322,0.2741 -0.0549,0.4459 -0.0643,0.4725 -0.006,-0.0544 -1.4879,-0.1235 -1.4797,-0.1572 0.009,-0.0406 0.0221,-0.1189 0.0395,-0.2424 v 0 c 0.0426,-0.3995 0.401,-0.6888 0.8005,-0.6461 v 0 c 0.3994,0.0426 0.6887,0.401 0.6461,0.8005" /><path
           id="path124"
           style="fill:#fa9d00;fill-opacity:1;fill-rule:nonzero;stroke:none"
           d="m 424.9663,671.7366 c -0.198,-0.076 -0.453,-0.2855 -0.5531,-0.4318 v 0 c -0.2134,-0.3396 -0.1112,-0.7878 0.2284,-1.0013 v 0 c 0.3395,-0.2134 0.7878,-0.1112 1.0013,0.2284 v 0 c 0.2134,0.3395 0.1112,0.7878 -0.2284,1.0013 v 0 c -0.3396,0.2134 -0.7878,0.1112 -1.0013,-0.2284 -0.0802,-0.1377 -0.1529,-0.3344 -0.1871,-0.4811 v 0 c -0.0888,-0.3904 0.1557,-0.7789 0.5462,-0.8677 v 0 c 0.3904,-0.0888 0.7789,0.1557 0.8677,0.5461 v 0 c 0.0888,0.3904 -0.1557,0.7789 -0.5461,0.8677 v 0 c -0.3905,0.0888 -0.779,-0.1557 -0.8678,-0.5461 -0.0591,-0.2763 -0.0861,-0.6401 -0.0967,-1.0347 v 0 c -0.0114,-0.3989 0.3027,-0.7315 0.7016,-0.7429 v 0 c 0.3989,-0.0114 0.7315,0.3027 0.7429,0.7016 v 0 c 0.0114,0.3989 -0.3027,0.7316 -0.7016,0.743 v 0 c -0.3989,0.0113 -0.7315,-0.3028 -0.7429,-0.7017 -0.0205,-0.7817 0.004,-1.8522 -0.0525,-3.1849 -0.1589,-3.4233 -1.4588,-8.341 -2.2451,-11.8617 -0.276,-1.2722 -0.4444,-2.3743 -0.5413,-3.1144 -0.0433,-0.4873 -0.0445,-0.8528 0.0108,-1.0884 v 0 c 0.0764,-0.3795 0.446,-0.625 0.8255,-0.5486 v 0 c 0.3794,0.0765 0.625,0.4461 0.5485,0.8256 v 0 c -0.0765,0.3794 -0.4461,0.625 -0.8255,0.5485 v 0 c -0.3794,-0.0765 -0.625,-0.4461 -0.5485,-0.8255 0.0877,-0.2366 1.0979,-0.4815 1.2829,-0.2792 v 0 c 0.2209,0.2965 0.1595,0.7158 -0.137,0.9366 v 0 c -0.2965,0.2208 -0.7159,0.1595 -0.9367,-0.137 v 0 c -0.2208,-0.2965 -0.1594,-0.7159 0.1371,-0.9367 v 0 c 0.2965,-0.2208 0.7158,-0.1594 0.9366,0.1371 0.0703,0.1227 0.1323,0.2821 0.176,0.4326 v 0 c 0.1199,0.3312 -0.0515,0.697 -0.3828,0.8169 v 0 c -0.3313,0.1199 -0.697,-0.0515 -0.8169,-0.3828 v 0 c -0.1199,-0.3313 0.0515,-0.697 0.3827,-0.8169 v 0 c 0.3313,-0.1199 0.6971,0.0515 0.817,0.3828 0.1572,0.5611 0.4426,1.8195 0.8132,3.7356 v 0 c 0.0597,0.2764 -0.116,0.5489 -0.3925,0.6085 v 0 c -0.2764,0.0597 -0.5488,-0.1161 -0.6085,-0.3925 -0.4486,-1.8801 -0.7994,-3.0575 -1.0119,-3.5174 -0.0487,-0.1049 -0.0625,-0.1124 -0.0499,-0.0671 0.1272,0.1245 1.0975,-0.1087 1.1647,-0.2434 0.0143,-0.0322 0.0491,0.1663 0.1295,0.6102 0.0971,0.7212 0.2577,1.7591 0.5279,2.9877 0.7455,3.4938 2.0335,8.5195 2.1784,12.1275 0.0606,1.3734 0.0398,2.4658 0.0628,3.2056 0.0111,0.3662 0.028,0.6028 0.0661,0.7545 0.0145,0.0672 0.004,0.0412 0.003,0.0297 -0.0209,-0.0202 -0.1793,-0.1483 -0.2597,-0.1891 v 0 c 0.3849,0.1151 0.6036,0.5205 0.4885,0.9053 v 0 c -0.1152,0.3849 -0.5205,0.6036 -0.9054,0.4885" /><path
           id="path126"
           style="fill:#fa9d00;fill-opacity:1;fill-rule:nonzero;stroke:none"
           d="m 428.1017,668.471 c -0.003,0.1834 -0.0171,0.2428 -0.0406,0.2355 v 0 c 0.1316,0.337 -0.0348,0.7168 -0.3717,0.8484 v 0 c -0.3369,0.1316 -0.7168,-0.0349 -0.8484,-0.3718 v 0 c -0.1316,-0.3369 0.0349,-0.7167 0.3718,-0.8483 v 0 c 0.3369,-0.1316 0.7167,0.0348 0.8483,0.3717 -0.012,-0.0121 -0.0555,-0.0798 -0.0954,-0.1261 v 0 c 0.2202,0.2742 0.1766,0.675 -0.0976,0.8953 v 0 c -0.2742,0.2203 -0.675,0.1766 -0.8953,-0.0976 v 0 c -0.2203,-0.2742 -0.1766,-0.675 0.0975,-0.8953 v 0 c 0.2742,-0.2203 0.6751,-0.1766 0.8954,0.0976 -0.0633,-0.0578 -0.3177,-0.1922 -0.5054,-0.2085 v 0 c 0.3414,-0.0148 0.6301,0.2499 0.645,0.5913 v 0 c 0.0148,0.3413 -0.2499,0.6301 -0.5913,0.645 v 0 c -0.3414,0.0148 -0.6301,-0.2499 -0.645,-0.5913 v 0 c -0.0148,-0.3414 0.2499,-0.6302 0.5913,-0.645 -0.1782,0.0427 -0.3917,0.1863 -0.4348,0.2442 -0.0242,0.0474 -0.0496,0.1096 -0.0485,0.122 -0.005,-0.0751 -2e-4,-0.8405 -0.0548,-1.962 -0.0211,-1.0709 -0.1131,-2.398 -0.3468,-3.8525 -0.2239,-1.4524 -0.7303,-3.0334 -1.1179,-4.4952 -0.7074,-2.7785 -0.9577,-4.8524 -1.0081,-5.2957 0.006,-0.039 0.0148,-0.0575 0.0257,-0.0588 v 0 c -0.0689,-0.4063 0.2046,-0.7916 0.6109,-0.8605 v 0 c 0.4063,-0.0689 0.7916,0.2046 0.8605,0.6109 v 0 c 0.0689,0.4063 -0.2046,0.7916 -0.6109,0.8605 v 0 c -0.4063,0.0689 -0.7916,-0.2046 -0.8605,-0.6109 0.0152,0.0179 1.4483,-0.0365 1.4446,-0.1221 v 0 c -0.005,0.3936 -0.3274,0.7089 -0.721,0.7043 v 0 c -0.3936,-0.005 -0.709,-0.3274 -0.7044,-0.721 v 0 c 0.005,-0.3936 0.3274,-0.709 0.721,-0.7044 v 0 c 0.3937,0.005 0.709,0.3275 0.7044,0.7211 -0.023,-0.0144 -0.0416,0.052 -0.0567,0.1854 v 0 c 0.0192,0.3562 -0.254,0.6605 -0.6102,0.6796 v 0 c -0.3562,0.0192 -0.6604,-0.2539 -0.6796,-0.6101 v 0 c -0.0192,-0.3562 0.2539,-0.6605 0.6101,-0.6797 v 0 c 0.3562,-0.0192 0.6605,0.254 0.6797,0.6102 -0.0303,0.2662 -0.0486,0.7666 -0.0666,1.5284 v 0 c 0.01,0.2826 -0.2113,0.5197 -0.4939,0.5295 v 0 c -0.2826,0.01 -0.5197,-0.2113 -0.5296,-0.4939 -0.0707,-0.7508 -0.141,-1.2338 -0.1997,-1.4944 -0.0294,-0.1302 -0.0563,-0.2131 -0.0789,-0.27 -0.003,-0.1094 1.432,-0.1597 1.4523,-0.112 0.0158,0.0275 0.032,0.0634 0.0485,0.1025 0.0685,0.4527 0.3166,2.4085 1.0209,5.0988 0.3576,1.4255 0.8651,3.0877 1.0938,4.6686 0.2106,1.5244 0.2782,2.9592 0.2683,4.0739 -0.0428,1.1655 -0.1552,2.0577 -0.3112,2.3811 -0.0102,0.0423 -0.047,0.1274 -0.0816,0.1887 -0.056,0.0748 -0.2812,0.2266 -0.4713,0.2698 -0.1996,-0.0158 -0.466,-0.1573 -0.5412,-0.2301 -0.052,-0.0612 -0.1076,-0.1519 -0.1315,-0.1944 -0.0722,-0.1319 -0.1348,-0.327 -0.1847,-0.5451 v 0 c -0.0462,-0.3991 0.2398,-0.7601 0.6388,-0.8063 v 0 c 0.3991,-0.0463 0.7601,0.2397 0.8063,0.6387 z" /><path
           id="path128"
           style="fill:#fa9d00;fill-opacity:1;fill-rule:nonzero;stroke:none"
           d="m 421.0718,672.6187 c -0.0562,0.0332 -0.003,-0.0598 0.0148,-0.1034 v 0 c -0.0915,0.3796 -0.4733,0.6131 -0.8529,0.5216 v 0 c -0.3795,-0.0915 -0.6131,-0.4733 -0.5216,-0.8529 v 0 c 0.0915,-0.3795 0.4734,-0.6131 0.8529,-0.5216 v 0 c 0.3796,0.0915 0.6131,0.4734 0.5216,0.8529 -0.009,-0.0667 -0.0586,-0.2727 -0.0672,-0.2929 v 0 c 0.2173,0.3106 0.1417,0.7386 -0.1689,0.956 v 0 c -0.3106,0.2174 -0.7386,0.1418 -0.956,-0.1689 v 0 c -0.2174,-0.3106 -0.1418,-0.7386 0.1689,-0.956 v 0 c 0.3106,-0.2173 0.7386,-0.1417 0.956,0.1689 -0.0186,0.0417 0.0733,0.1012 0.4104,0.2106 v 0 c 0.3423,0.0996 0.539,0.4579 0.4394,0.8002 v 0 c -0.0997,0.3423 -0.458,0.539 -0.8003,0.4393 v 0 c -0.3423,-0.0996 -0.539,-0.4579 -0.4393,-0.8002 v 0 c 0.0997,-0.3423 0.458,-0.539 0.8002,-0.4393 0.3725,0.0959 0.9236,0.1254 1.687,0.1573 1.0579,0.0507 2.3275,0.1434 3.545,0.0659 1.6079,-0.0906 2.9275,-0.5017 3.9225,-1.3291 1.1738,-0.8579 1.7073,-2.3965 1.9291,-3.9695 0.1186,-0.8164 0.2074,-1.4946 0.0856,-2.0875 -0.1358,-0.8457 -0.8189,-1.4343 -1.5363,-1.8635 -0.676,-0.4158 -1.3009,-0.4153 -1.9277,-0.3336 -0.4314,0.0506 -0.7321,0.1398 -0.9129,0.2641 -0.0868,0.0416 -0.0413,0.003 0.009,-0.0765 -0.0172,-0.4012 -0.4802,-0.8763 -0.5957,-0.9059 -0.0606,-0.002 -0.1173,0.002 -0.089,-0.003 0.0758,-0.0106 0.1888,-0.0418 0.3759,-0.114 0.389,-0.1474 0.8675,-0.3875 1.3607,-0.7781 v 0 c 0.3227,-0.2549 0.7911,-0.1998 1.046,0.1229 v 0 c 0.2549,0.3228 0.1999,0.7911 -0.1229,1.046 v 0 c -0.3228,0.255 -0.7911,0.1999 -1.046,-0.1228 v 0 c -0.255,-0.3228 -0.1999,-0.7911 0.1229,-1.0461 0.7601,-0.6175 1.3968,-1.5032 1.827,-2.467 v 0 c 0.1913,-0.4027 0.6728,-0.574 1.0755,-0.3826 v 0 c 0.4026,0.1913 0.5739,0.6728 0.3826,1.0754 v 0 c -0.1913,0.4027 -0.6728,0.574 -1.0755,0.3827 v 0 c -0.4026,-0.1914 -0.5739,-0.6729 -0.3826,-1.0755 0.5446,-1.1057 0.5641,-2.2518 0.5618,-3.3474 v 0 c -0.001,-0.4439 0.3573,-0.8048 0.8012,-0.8062 v 0 c 0.4439,-0.001 0.8049,0.3574 0.8063,0.8013 v 0 c 0.001,0.4439 -0.3574,0.8049 -0.8013,0.8062 v 0 c -0.4439,10e-4 -0.8049,-0.3574 -0.8062,-0.8013 0.0943,-0.9733 0.1638,-1.9223 0.6145,-2.5266 v 0 c 0.1522,-0.2384 0.4688,-0.3082 0.7072,-0.156 v 0 c 0.2383,0.1522 0.3081,0.4688 0.1559,0.7071 -0.1177,0.2859 0.0294,0.9694 0.1299,1.9706 0.004,1.1259 -0.0598,2.6339 -0.7112,4.0451 -0.5465,1.0916 -1.4191,2.2156 -2.362,2.9431 -0.6027,0.4749 -1.2675,0.8232 -1.7384,1.0105 -0.2428,0.0951 -0.4888,0.1678 -0.6595,0.2007 -0.0954,0.0165 -0.2473,0.0268 -0.3701,0.0168 -0.1775,-0.0377 -0.6692,-0.5357 -0.6769,-0.9742 0.1026,-0.2818 0.3881,-0.638 0.6975,-0.8314 0.3888,-0.2134 0.9697,-0.3722 1.5187,-0.4279 0.7554,-0.0683 1.8409,0.02 2.8033,0.5891 0.8493,0.5124 1.8938,1.5013 2.1988,2.7707 0.1722,0.8187 0.0968,1.7289 -0.002,2.5677 -0.2142,1.7412 -0.9384,3.7982 -2.4065,5.0265 -1.2755,0.9656 -3.0466,1.4895 -4.8365,1.5648 -1.3178,0.0463 -2.6663,-0.0828 -3.7054,-0.1649 -0.7757,-0.0654 -1.4519,-0.1432 -1.9602,-0.304 -0.4622,-0.1234 -0.9186,-0.3657 -1.1743,-0.663 -0.1272,-0.1896 -0.2174,-0.5745 -0.1824,-0.8254 0.0624,-0.2278 0.2451,-0.5104 0.4112,-0.6684 v 0 c 0.3046,-0.262 0.7638,-0.2274 1.0258,0.0772 v 0 c 0.2619,0.3046 0.2273,0.7638 -0.0773,1.0258" /><path
           id="path130"
           style="fill:#fa9d00;fill-opacity:1;fill-rule:nonzero;stroke:none"
           d="m 444.9877,672.9096 c 0.0618,0.2777 0.0856,0.5778 0.0523,0.7916 v 0 c -0.0212,0.3571 -0.3278,0.6294 -0.6849,0.6082 v 0 c -0.3571,-0.0212 -0.6294,-0.3278 -0.6082,-0.6849 v 0 c 0.0212,-0.3571 0.3279,-0.6294 0.685,-0.6082 v 0 c 0.357,0.0212 0.6293,0.3279 0.6081,0.6849 -0.0226,0.1168 -0.0822,0.2948 -0.1484,0.4016 v 0 c -0.1582,0.2961 -0.5265,0.4079 -0.8226,0.2497 v 0 c -0.2961,-0.1582 -0.4078,-0.5265 -0.2496,-0.8226 v 0 c 0.1582,-0.2961 0.5265,-0.4078 0.8226,-0.2496 v 0 c 0.296,0.1582 0.4078,0.5265 0.2496,0.8225 -0.0802,0.108 -0.2517,0.2568 -0.3717,0.3092 v 0 c -0.2811,0.1391 -0.6218,0.0241 -0.761,-0.2571 v 0 c -0.1392,-0.2811 -0.0241,-0.6218 0.257,-0.761 v 0 c 0.2811,-0.1392 0.6218,-0.0241 0.761,0.257 v 0 c 0.1392,0.2811 0.0241,0.6219 -0.257,0.7611 -0.2496,0.1136 -0.6024,0.1098 -0.8219,0.052 -0.2059,-0.0598 -0.4577,-0.1821 -0.6794,-0.3171 -0.4357,-0.2691 -0.9526,-0.7086 -1.402,-1.1909 -0.5685,-0.6943 -1.0418,-1.5548 -1.2886,-2.2635 -0.1338,-0.4319 -0.1445,-0.9229 -0.1019,-1.2458 v 0 c 0.0575,-0.4402 0.461,-0.7503 0.9011,-0.6928 v 0 c 0.4401,0.0576 0.7503,0.461 0.6927,0.9011 v 0 c -0.0575,0.4402 -0.461,0.7503 -0.9011,0.6928 v 0 c -0.4401,-0.0576 -0.7503,-0.461 -0.6927,-0.9011 0.0363,-0.253 0.1166,-0.8786 0.6272,-1.344 v 0 c 0.3597,-0.2596 0.8617,-0.1784 1.1213,0.1813 v 0 c 0.2596,0.3597 0.1784,0.8618 -0.1814,1.1213 v 0 c -0.3597,0.2596 -0.8617,0.1784 -1.1213,-0.1813 v 0 c -0.2596,-0.3597 -0.1784,-0.8618 0.1814,-1.1213 0.7292,-0.4699 1.8298,-0.5428 2.4773,-0.5893 v 0 c 0.4535,-0.028 0.8438,0.317 0.8718,0.7706 v 0 c 0.028,0.4535 -0.317,0.8438 -0.7706,0.8718 v 0 c -0.4535,0.028 -0.8438,-0.317 -0.8718,-0.7706 v 0 c -0.028,-0.4535 0.317,-0.8438 0.7706,-0.8718 0.9994,0.0444 1.7827,0.2381 2.198,0.3853 v 0 c 0.2813,0.0292 0.4856,0.2809 0.4564,0.5622 v 0 c -0.0292,0.2812 -0.2809,0.4856 -0.5621,0.4564 -0.4481,0.0576 -1.1176,0.0787 -1.9911,0.2385 -0.6667,0.0345 -1.4265,0.0402 -1.6386,0.2495 -0.0396,-0.0684 0.0749,-0.1441 0.0267,0.2497 -0.0265,0.2053 -0.0323,0.3271 0.0446,0.5155 0.186,0.5658 0.5231,1.1897 0.9963,1.7628 0.3291,0.4648 0.6612,0.8366 0.9627,1.101 0.1469,0.1315 0.2357,0.2066 0.3197,0.2568 0.0704,0.0523 -0.0433,0.0714 -0.1278,0.103 -0.0459,0.0157 -0.1584,0.1074 -0.1959,0.1355 -0.0238,0.0275 -0.0574,0.1038 -0.0726,0.0947 -0.0184,-0.0372 -0.0538,-0.0838 -0.1413,-0.2606 v 0 c -0.1254,-0.3817 0.0824,-0.7927 0.464,-0.9181 v 0 c 0.3817,-0.1254 0.7927,0.0823 0.9181,0.464" /><path
           id="path132"
           style="fill:#006fff;fill-opacity:1;fill-rule:nonzero;stroke:none"
           d="m 147.8409,645.8357 c 2.0092,-3.2943 10.492,-6.8005 11.5729,-7.5225 v 0 c 0.2277,-0.1677 0.5482,-0.1191 0.7159,0.1086 v 0 c 0.1677,0.2277 0.1191,0.5482 -0.1086,0.7159 -1.2011,0.9587 -9.4519,4.5001 -10.9105,7.4079 v 0 c -0.196,0.3507 -0.6392,0.476 -0.9898,0.2799 v 0 c -0.3507,-0.196 -0.476,-0.6392 -0.2799,-0.9898 z" /><path
           id="path134"
           style="fill:#006fff;fill-opacity:1;fill-rule:nonzero;stroke:none"
           d="m 158.4228,647.206 c -1.012,-0.2862 -3.9054,-3.0761 -6.0209,-5.4032 v 0 c -0.2853,-0.3169 -0.2596,-0.8049 0.0572,-1.0902 v 0 c 0.3168,-0.2852 0.8049,-0.2595 1.0901,0.0573 v 0 c 0.2853,0.3168 0.2596,0.8049 -0.0572,1.0901 v 0 c -0.3169,0.2852 -0.8049,0.2596 -1.0901,-0.0572 -1.0617,-1.1648 -1.9683,-2.2609 -2.3441,-2.9021 v 0 c -0.2158,-0.3866 -0.0774,-0.8749 0.3092,-1.0908 v 0 c 0.3866,-0.2158 0.875,-0.0774 1.0908,0.3092 v 0 c 0.2159,0.3866 0.0775,0.875 -0.3091,1.0908 v 0 c -0.3867,0.2159 -0.875,0.0774 -1.0909,-0.3092 -0.077,-0.1896 -0.1511,-0.4454 -0.1572,-0.6637 v 0 c -0.0306,-0.4016 0.2702,-0.752 0.6718,-0.7826 v 0 c 0.4016,-0.0306 0.752,0.2702 0.7826,0.6718 v 0 c 0.0306,0.4016 -0.2702,0.752 -0.6718,0.7826 v 0 c -0.4016,0.0306 -0.752,-0.2702 -0.7826,-0.6718 0.008,-0.1377 0.1057,-0.4468 0.2434,-0.6144 v 0 c 0.2619,-0.2792 0.7005,-0.2933 0.9797,-0.0314 v 0 c 0.2791,0.2619 0.2932,0.7005 0.0313,0.9797 v 0 c -0.2619,0.2792 -0.7005,0.2932 -0.9797,0.0313 v 0 c -0.2792,-0.2619 -0.2932,-0.7005 -0.0313,-0.9796 0.1695,-0.1267 0.478,-0.2186 0.6164,-0.2085 v 0 c 0.3625,0.0143 0.6448,0.3197 0.6306,0.6822 v 0 c -0.0143,0.3625 -0.3197,0.6448 -0.6822,0.6306 v 0 c -0.3625,-0.0143 -0.6448,-0.3197 -0.6306,-0.6822 v 0 c 0.0143,-0.3625 0.3197,-0.6448 0.6822,-0.6306 0.3405,0.0909 0.7675,0.3625 1.3246,0.8066 v 0 c 0.2324,0.1611 0.2903,0.4801 0.1292,0.7125 v 0 c -0.1611,0.2325 -0.4801,0.2903 -0.7125,0.1292 -0.5691,-0.3363 -0.8181,-0.4139 -0.7931,-0.3355 0.0598,0.007 0.312,-0.0669 0.4471,-0.1568 0.1019,-0.1294 0.185,-0.3814 0.1993,-0.444 0.005,-0.0677 0.0216,-0.1007 0.1028,-0.007 0.2571,0.4923 1.0677,1.4991 2.0914,2.6508 2.0552,2.3059 4.8049,5.0036 5.1779,5.0135 v 0 c 0.3928,0.084 0.6432,0.4706 0.5592,0.8634 v 0 c -0.0841,0.3929 -0.4706,0.6433 -0.8635,0.5592" /><path
           id="path136"
           style="fill:#006fff;fill-opacity:1;fill-rule:nonzero;stroke:none"
           d="m 164.8522,648.2428 c -0.1425,0.652 -0.4611,1.2969 -0.9804,1.6045 v 0 c -0.2939,0.171 -0.6708,0.0713 -0.8417,-0.2226 v 0 c -0.171,-0.294 -0.0713,-0.6708 0.2227,-0.8418 v 0 c 0.2939,-0.1709 0.6708,-0.0712 0.8417,0.2227 v 0 c 0.1709,0.2939 0.0712,0.6708 -0.2227,0.8417 -0.2055,0.1318 -0.607,0.2626 -0.9835,0.2314 v 0 c -0.358,-0.0567 -0.6022,-0.393 -0.5455,-0.751 v 0 c 0.0568,-0.3579 0.393,-0.6022 0.751,-0.5454 v 0 c 0.358,0.0567 0.6022,0.3929 0.5455,0.7509 v 0 c -0.0568,0.358 -0.393,0.6022 -0.751,0.5455 -0.6444,-0.1133 -1.3732,-0.6217 -1.928,-1.2059 v 0 c -0.2618,-0.2898 -0.2391,-0.737 0.0508,-0.9988 v 0 c 0.2898,-0.2618 0.737,-0.2391 0.9988,0.0507 v 0 c 0.2618,0.2899 0.2391,0.7371 -0.0508,0.9989 v 0 c -0.2898,0.2618 -0.737,0.239 -0.9988,-0.0508 -0.5487,-0.5863 -1.0703,-1.3756 -1.3481,-2.0787 -0.2246,-0.6391 -0.2503,-1.4066 -0.0941,-1.9226 0.1373,-0.3225 0.4705,-0.6593 0.7417,-0.7995 0.2646,-0.1199 0.6221,-0.1973 0.9187,-0.215 0.5776,-0.025 1.2922,0.094 1.8734,0.2881 0.5983,0.2027 1.2131,0.5484 1.6415,0.9186 0.407,0.3745 0.6216,0.8528 0.7192,1.025 0.1002,0.1777 0.1616,0.4103 0.1778,0.5118 0.007,0.0604 0.01,0.1236 0.0132,0.1355 0.002,0.005 0.004,-0.0345 -0.002,-0.1169 v 0 c 0.059,0.3918 -0.2108,0.7572 -0.6026,0.8162 v 0 c -0.3917,0.059 -0.7571,-0.2108 -0.8161,-0.6026 v 0 c -0.059,-0.3917 0.2108,-0.7571 0.6025,-0.8161 v 0 c 0.3918,-0.059 0.7572,0.2108 0.8162,0.6025 -0.0758,-0.232 -1.2441,-0.3735 -1.3183,-0.279 v 0 c 0.2128,-0.3378 0.6592,-0.4392 0.9971,-0.2264 v 0 c 0.3378,0.2127 0.4392,0.6591 0.2264,0.997 v 0 c -0.2128,0.3379 -0.6591,0.4393 -0.997,0.2265 v 0 c -0.3379,-0.2128 -0.4393,-0.6592 -0.2265,-0.9971 0.017,0.0197 0.0779,-0.4904 0.3139,-1.0404 v 0 c 0.1736,-0.3748 0.6182,-0.538 0.993,-0.3644 v 0 c 0.3748,0.1736 0.538,0.6182 0.3644,0.993 v 0 c -0.1736,0.3748 -0.6182,0.538 -0.993,0.3644 v 0 c -0.3748,-0.1736 -0.5379,-0.6182 -0.3644,-0.993 0.6882,-1.0839 2.2612,-1.512 3.155,-2.2359 v 0 c 0.2098,-0.1896 0.5336,-0.1733 0.7232,0.0365 v 0 c 0.1896,0.2099 0.1732,0.5336 -0.0366,0.7233 -1.0157,1.0017 -2.3849,1.4882 -2.4842,2.1047 -0.1719,0.3308 -0.24,0.8042 -0.4469,1.1811 -0.0784,0.1012 -1.2483,-0.0401 -1.3245,-0.2747 -0.006,-0.0889 -0.004,-0.1376 -0.002,-0.1456 0.004,-0.0152 0.009,0.004 0.0119,0.009 0.008,-0.0108 0.0398,0.059 0.0384,0.0561 -0.1469,-0.262 -0.2345,-0.5187 -0.4232,-0.6525 -0.3172,-0.2658 -0.709,-0.4717 -1.1855,-0.6122 -0.4756,-0.1434 -0.9424,-0.2064 -1.3396,-0.1621 -0.1906,0.0169 -0.2687,0.0371 -0.3465,0.0895 -0.0714,0.0322 0.0123,-0.0574 0.0348,-0.0457 -0.091,0.2036 -0.0884,0.4948 0.067,0.9083 0.1744,0.5491 0.5289,1.1343 0.9716,1.6455 0.4367,0.5135 0.8147,0.8258 1.0841,0.8576 0.0981,0.0441 0.048,0.0528 0.1588,6e-4 0.1252,-0.0672 0.1177,-0.2224 0.1621,-0.7649 v 0 c 0.062,-0.3969 0.4341,-0.6684 0.831,-0.6063 v 0 c 0.3969,0.0621 0.6684,0.4342 0.6063,0.8311" /><path
           id="path138"
           style="fill:#a400c7;fill-opacity:1;fill-rule:nonzero;stroke:none"
           d="m 260.8461,545.148 c -0.0346,0.1247 -1.3068,0.3035 -1.4334,0.0379 v 0 c -0.1049,-0.3907 0.1267,-0.7924 0.5174,-0.8973 v 0 c 0.3906,-0.1049 0.7924,0.1267 0.8973,0.5174 v 0 c 0.1049,0.3906 -0.1267,0.7924 -0.5174,0.8973 v 0 c -0.3907,0.1049 -0.7924,-0.1268 -0.8973,-0.5174 -0.0235,-0.0984 -0.0356,-0.1973 -0.0415,-0.2714 v 0 c -0.022,-0.4067 0.2898,-0.7542 0.6965,-0.7762 v 0 c 0.4067,-0.022 0.7542,0.2898 0.7762,0.6965 v 0 c 0.022,0.4066 -0.2898,0.7542 -0.6964,0.7762 v 0 c -0.4067,0.022 -0.7542,-0.2898 -0.7763,-0.6965 -0.0106,-0.1387 -0.0177,-0.3537 -0.0226,-0.6086 v 0 c -0.002,-0.4128 0.3303,-0.7493 0.7431,-0.7517 v 0 c 0.4128,-0.002 0.7494,0.3303 0.7518,0.743 v 0 c 0.002,0.4128 -0.3303,0.7494 -0.7431,0.7518 v 0 c -0.4128,0.002 -0.7494,-0.3303 -0.7518,-0.7431 -0.01,-0.508 -0.0112,-1.2188 -0.0145,-1.9187 0.003,-0.6272 -0.0689,-1.3388 0.001,-1.9943 0.1092,-0.7333 0.5687,-1.4669 1.0878,-1.8099 0.4629,-0.247 1.1165,-0.2634 1.5824,-0.127 0.4486,0.1449 0.9532,0.4382 1.3456,0.7615 0.7171,0.6131 1.2444,1.5555 1.5659,2.1852 0.1753,0.3465 0.2783,0.6248 0.3247,0.7021 -0.009,-0.017 -0.0767,-0.1087 -0.1426,-0.175 -0.1104,-0.0748 -0.5354,-0.1597 -0.7666,-0.099 -0.1609,0.1026 -0.3178,0.286 -0.3472,0.3368 -0.0162,0.0362 -0.034,0.0873 -0.0358,0.0848 0.006,-0.0468 0.01,-0.2006 0.0102,-0.4996 0.0328,-1.7215 0.2601,-5.4957 0.0876,-8.4286 -0.0519,-0.9592 -0.1838,-1.8269 -0.3306,-2.5581 -0.174,-0.887 -0.2469,-1.3292 -0.3866,-1.3869 0.0104,-0.0242 0.1306,0.0179 0.0281,0.0303 -0.1206,-0.002 -0.24,0.0346 -0.4664,0.1335 -0.4691,0.1978 -1.0083,0.5599 -1.5608,0.9668 v 0 c -0.3464,0.2582 -0.8365,0.1868 -1.0948,-0.1596 v 0 c -0.2582,-0.3464 -0.1868,-0.8366 0.1596,-1.0948 v 0 c 0.3464,-0.2583 0.8366,-0.1868 1.0948,0.1596 v 0 c 0.2583,0.3464 0.1868,0.8365 -0.1596,1.0948 -0.7652,0.5142 -1.3953,0.9186 -1.6222,1.3103 v 0 c -0.1641,0.3175 -0.5545,0.4419 -0.8721,0.2778 v 0 c -0.3175,-0.1641 -0.4418,-0.5546 -0.2777,-0.8721 v 0 c 0.1641,-0.3175 0.5545,-0.4419 0.872,-0.2778 v 0 c 0.3176,0.1641 0.4419,0.5546 0.2778,0.8721 -0.1263,0.1782 -0.1633,0.2054 -0.1084,0.3808 v 0 c 0.1065,0.3019 -0.0519,0.6329 -0.3537,0.7395 v 0 c -0.3019,0.1065 -0.6329,-0.0519 -0.7395,-0.3538 v 0 c -0.1065,-0.3018 0.0519,-0.6329 0.3538,-0.7394 v 0 c 0.3018,-0.1065 0.6329,0.0519 0.7394,0.3537 0.0412,0.2145 0.1798,0.4214 0.5747,0.7429 v 0 c 0.226,0.1699 0.2715,0.4909 0.1016,0.7169 v 0 c -0.1699,0.2261 -0.4909,0.2715 -0.717,0.1016 -0.5071,-0.3567 -0.88,-0.7846 -1.0525,-1.1757 -0.1588,-0.43 -0.1114,-0.9787 0.0517,-1.3608 0.3523,-0.7286 1.1221,-1.3813 1.8369,-1.9704 0.5775,-0.4355 1.2489,-0.8915 1.8551,-1.1674 0.3114,-0.138 0.6958,-0.2521 1.0184,-0.2786 0.3403,-0.0123 0.8427,0.1313 1.1474,0.3746 0.5029,0.5266 0.7187,1.3592 0.9024,2.2619 0.1539,0.7734 0.3006,1.7552 0.3577,2.7892 0.1544,3.0398 -0.0951,6.8771 -0.1467,8.5567 -0.0153,0.3293 -0.0432,0.6039 -0.0871,0.787 -0.0143,0.0551 -0.046,0.1512 -0.0767,0.2195 -0.0447,0.0843 -0.2178,0.2881 -0.3991,0.4001 -0.2457,0.0676 -0.6895,-0.0217 -0.8203,-0.1133 -0.0856,-0.0825 -0.1749,-0.2031 -0.2063,-0.2612 -0.1104,-0.2064 -0.2077,-0.4705 -0.3492,-0.7449 -0.3102,-0.6086 -0.6864,-1.3213 -1.1877,-1.7152 -0.2976,-0.2469 -0.5594,-0.3989 -0.8359,-0.4755 -0.2593,-0.0854 -0.2897,-0.0996 -0.352,-0.0222 -0.2113,0.1083 -0.3218,0.2884 -0.3476,0.7065 -0.0622,0.4718 0.005,1.1119 0.001,1.822 -0.01,0.7016 -0.0217,1.406 -0.0255,1.9027 -0.002,0.2474 -0.002,0.4322 4e-4,0.5373 8e-4,0.0481 -0.003,0.0323 -0.0168,-0.0296 -0.1162,-0.2271 -1.3764,-0.0562 -1.3968,0.009 v 0 c 0.0924,-0.391 0.4842,-0.6331 0.8751,-0.5407 v 0 c 0.391,0.0924 0.6331,0.4842 0.5407,0.8752" /><path
           id="path140"
           style="fill:#a400c7;fill-opacity:1;fill-rule:nonzero;stroke:none"
           d="m 269.7775,550.9926 c -0.008,0.0572 -0.0178,0.115 -0.0348,0.1904 v 0 c -0.0773,0.3854 -0.4524,0.6351 -0.8378,0.5577 v 0 c -0.3854,-0.0773 -0.6351,-0.4524 -0.5577,-0.8378 v 0 c 0.0773,-0.3854 0.4524,-0.6351 0.8378,-0.5577 v 0 c 0.3854,0.0773 0.6351,0.4524 0.5577,0.8378 -0.0865,0.2218 -1.399,-0.0418 -1.4016,-0.0943 v 0 c -0.0273,-0.3878 0.2648,-0.7243 0.6526,-0.7516 v 0 c 0.3877,-0.0273 0.7242,0.2648 0.7516,0.6526 v 0 c 0.0273,0.3877 -0.2649,0.7242 -0.6526,0.7516 v 0 c -0.3878,0.0273 -0.7243,-0.2648 -0.7516,-0.6526 0.001,-0.0268 0.003,-0.0567 0.005,-0.0769 v 0 c -0.002,-0.3844 0.3074,-0.6978 0.6918,-0.7002 v 0 c 0.3844,-0.002 0.6979,0.3074 0.7002,0.6918 v 0 c 0.002,0.3844 -0.3074,0.6978 -0.6918,0.7002 v 0 c -0.3843,0.002 -0.6978,-0.3074 -0.7002,-0.6918 0.0102,-0.0716 0.0234,-0.2112 0.0405,-0.3841 v 0 c 0.014,-0.3668 0.3226,-0.6528 0.6894,-0.6388 v 0 c 0.3667,0.014 0.6527,0.3226 0.6388,0.6894 v 0 c -0.014,0.3668 -0.3227,0.6528 -0.6894,0.6388 v 0 c -0.3668,-0.014 -0.6528,-0.3226 -0.6388,-0.6894 -0.0184,-0.559 -0.005,-1.298 0.025,-2.0955 v 0 c 0.0377,-0.4313 0.4179,-0.7504 0.8492,-0.7127 v 0 c 0.4313,0.0377 0.7504,0.4179 0.7127,0.8492 v 0 c -0.0377,0.4313 -0.4179,0.7504 -0.8492,0.7127 v 0 c -0.4313,-0.0377 -0.7504,-0.4179 -0.7127,-0.8492 0.326,-2.6877 0.8454,-6.17 1.0747,-6.4525 v 0 c 0.1719,-0.2245 0.4933,-0.2672 0.7178,-0.0954 v 0 c 0.2246,0.1719 0.2673,0.4933 0.0954,0.7179 0.1525,-0.1822 -0.1832,3.2904 -0.326,5.9665 -0.1081,0.7801 -0.1989,1.4811 -0.2587,2.0096 0.004,0.1631 0.0124,0.2777 0.0233,0.3252 0.003,0.01 0.005,9e-4 0.007,-0.0138 -0.002,-0.0405 -1.3131,-0.3012 -1.3981,-0.0868 -0.0141,0.0607 -0.0197,0.0634 -0.0228,0.0185 v 0 c 0.0197,-0.4013 0.3609,-0.7106 0.7622,-0.6909 v 0 c 0.4012,0.0197 0.7106,0.3609 0.6909,0.7621" /><path
           id="path142"
           style="fill:#a400c7;fill-opacity:1;fill-rule:nonzero;stroke:none"
           d="m 270.2621,545.8484 c -0.1073,-0.0651 -0.2423,-0.1142 -0.2107,-0.1056 v 0 c 0.3852,0.0488 0.6579,0.4007 0.6091,0.7859 v 0 c -0.0488,0.3853 -0.4007,0.658 -0.7859,0.6092 v 0 c -0.3852,-0.0488 -0.658,-0.4007 -0.6092,-0.786 v 0 c 0.0489,-0.3852 0.4007,-0.6579 0.786,-0.6091 0.0458,0.0162 0.0913,0.0229 0.2026,0.0168 v 0 c 0.3721,-0.0454 0.7106,0.2196 0.7559,0.5918 v 0 c 0.0453,0.3721 -0.2196,0.7105 -0.5918,0.7559 v 0 c -0.3722,0.0453 -0.7106,-0.2197 -0.7559,-0.5918 v 0 c -0.0453,-0.3722 0.2196,-0.7106 0.5918,-0.7559 0.235,-0.0102 0.4958,-0.0638 0.7862,-0.1792 v 0 c 0.3173,-0.1431 0.6906,-0.002 0.8337,0.3155 v 0 c 0.1431,0.3173 0.002,0.6906 -0.3155,0.8337 v 0 c -0.3173,0.143 -0.6906,0.002 -0.8337,-0.3155 v 0 c -0.143,-0.3173 -0.002,-0.6906 0.3155,-0.8337 0.254,-0.1115 0.4588,-0.3741 0.6907,-0.6829 0.3266,-0.4078 0.3356,-0.6432 0.193,-0.9995 -0.107,-0.3647 -0.3508,-0.6215 -0.8192,-0.885 -0.6763,-0.4414 -1.5481,-0.6805 -2.0619,-0.6834 v 0 c -0.4339,-0.0104 -0.7772,-0.3704 -0.7668,-0.8043 v 0 c 0.0103,-0.4338 0.3704,-0.7771 0.8043,-0.7668 v 0 c 0.4338,0.0104 0.7771,0.3705 0.7668,0.8043 v 0 c -0.0104,0.4338 -0.3705,0.7772 -0.8043,0.7668 -0.1715,-0.0526 -0.1426,-0.1135 -0.0712,-0.1872 v 0 c -0.2737,0.2313 -0.6832,0.197 -0.9145,-0.0767 v 0 c -0.2313,-0.2738 -0.197,-0.6832 0.0767,-0.9145 v 0 c 0.2737,-0.2314 0.6832,-0.197 0.9145,0.0767 v 0 c 0.2313,0.2737 0.197,0.6831 -0.0767,0.9145 0.0329,-0.0764 0.1121,-0.3231 0.0986,-0.4082 v 0 c 0.0318,0.319 -0.201,0.6034 -0.52,0.6353 v 0 c -0.319,0.0318 -0.6034,-0.201 -0.6352,-0.52 v 0 c -0.0319,-0.319 0.2009,-0.6034 0.5199,-0.6352 v 0 c 0.319,-0.0319 0.6034,0.2009 0.6353,0.5199 -0.038,-0.0448 -0.0896,-0.1037 -0.073,-0.0504 v 0 c 0.1764,0.2211 0.14,0.5432 -0.0811,0.7195 v 0 c -0.2211,0.1763 -0.5432,0.14 -0.7195,-0.0811 -0.1137,-0.11 -0.2318,-0.3094 -0.2816,-0.4727 -0.0254,-0.2034 0.0968,-0.5467 0.219,-0.6984 0.2494,-0.2243 0.6408,-0.3513 0.9462,-0.3926 0.7581,0.0274 1.9716,0.3694 2.8677,0.9265 0.6338,0.4363 1.18,1.1317 1.3736,1.81 0.1581,0.6865 -0.0215,1.5849 -0.5496,2.2399 -0.2775,0.3244 -0.7071,0.7632 -1.2135,0.9946 -0.3712,0.183 -0.804,0.3184 -1.1403,0.3778 -0.1744,0.0286 -0.3841,0.0403 -0.5435,0.0306 -0.1737,-0.0175 -0.4642,-0.1236 -0.658,-0.2779 v 0 c -0.2793,-0.2887 -0.2717,-0.7492 0.017,-1.0286 v 0 c 0.2887,-0.2793 0.7492,-0.2717 1.0285,0.017" /><path
           id="path144"
           style="fill:#fa9d00;fill-opacity:1;fill-rule:nonzero;stroke:none"
           d="m 358.9475,637.8606 c -0.0752,0.038 0.006,-0.0133 0.0735,-0.0715 v 0 c -0.2327,0.3419 -0.6986,0.4304 -1.0405,0.1977 v 0 c -0.3419,-0.2328 -0.4304,-0.6986 -0.1977,-1.0405 v 0 c 0.2328,-0.342 0.6986,-0.4305 1.0405,-0.1977 v 0 c 0.342,0.2327 0.4305,0.6986 0.1977,1.0405 0.0657,-0.1442 0.0565,-0.5914 0.008,-0.7115 v 0 c 0.2505,0.3439 0.1747,0.8258 -0.1692,1.0763 v 0 c -0.344,0.2505 -0.8259,0.1747 -1.0764,-0.1693 v 0 c -0.2505,-0.3439 -0.1747,-0.8258 0.1693,-1.0763 v 0 c 0.3439,-0.2505 0.8258,-0.1747 1.0763,0.1693 -0.1007,-0.088 -0.0736,-0.1034 0.1485,-0.0594 v 0 c 0.4334,0.1186 0.6885,0.5661 0.5699,0.9994 v 0 c -0.1187,0.4334 -0.5661,0.6885 -0.9995,0.5699 v 0 c -0.4333,-0.1187 -0.6885,-0.5661 -0.5698,-0.9995 v 0 c 0.1186,-0.4333 0.5661,-0.6885 0.9994,-0.5698 0.9587,0.2553 2.8377,0.4174 3.3787,0.0356 0.1296,0.005 0.0967,0.1013 0.0812,-0.1384 -0.0162,-0.3211 0.0305,-0.4511 -0.0628,-0.5958 -0.315,-0.8163 -2.2502,-1.8457 -3.9965,-2.9769 -0.947,-0.6077 -1.8887,-1.1988 -2.5649,-1.7243 -0.3564,-0.2689 -0.6834,-0.5946 -0.8765,-0.888 -0.0979,-0.1593 -0.1951,-0.4023 -0.2297,-0.5923 -0.0225,-0.2032 0.0326,-0.5333 0.129,-0.7322 0.179,-0.2851 0.5168,-0.542 0.7902,-0.6696 0.2649,-0.1179 0.6047,-0.2174 0.9301,-0.2901 0.6456,-0.1424 1.4152,-0.236 2.1058,-0.3349 1.1264,-0.1492 2.2709,-0.2989 3.1858,-0.3866 0.771,-0.006 1.4402,0.0322 1.8317,0.1624 v 0 c 0.3715,0.0759 0.611,0.4387 0.535,0.8101 v 0 c -0.076,0.3715 -0.4387,0.611 -0.8102,0.535 v 0 c -0.3714,-0.076 -0.6109,-0.4387 -0.5349,-0.8102 v 0 c 0.0759,-0.3714 0.4387,-0.6109 0.8101,-0.5349 0.1122,0.0393 0.2919,0.1242 0.4137,0.2238 v 0 c 0.2806,0.2176 0.3316,0.6214 0.1141,0.902 v 0 c -0.2176,0.2806 -0.6214,0.3317 -0.902,0.1141 v 0 c -0.2806,-0.2175 -0.3317,-0.6214 -0.1141,-0.9019 v 0 c 0.2175,-0.2806 0.6214,-0.3317 0.902,-0.1142 0.1317,0.144 0.2636,0.5643 0.2097,0.7807 v 0 c -0.0998,0.3156 -0.4365,0.4905 -0.7521,0.3908 v 0 c -0.3155,-0.0998 -0.4905,-0.4365 -0.3907,-0.7521 v 0 c 0.0997,-0.3155 0.4364,-0.4905 0.752,-0.3907 v 0 c 0.3156,0.0997 0.4905,0.4364 0.3908,0.752 -0.1522,0.2521 -0.4131,0.4419 -0.684,0.5614 v 0 c -0.2469,0.138 -0.5588,0.0497 -0.6967,-0.1972 v 0 c -0.138,-0.2468 -0.0497,-0.5588 0.1972,-0.6967 0.1775,-0.131 0.1466,-0.135 0.0408,-0.0291 -0.031,0.1438 0.078,0.5032 0.1453,0.5972 0.057,0.0494 0.1304,0.0951 0.0987,0.105 -0.1832,0.0125 -0.6872,0.0893 -1.4132,0.2085 -0.8816,0.0622 -1.9998,0.1864 -3.1278,0.3134 -0.7109,0.0727 -1.4305,0.1311 -1.9994,0.2313 -0.2818,0.0488 -0.4805,0.0934 -0.6402,0.156 -0.1512,0.053 -0.124,0.0132 -0.096,-0.005 0.004,-0.0352 0.0282,-0.1837 0.0317,-0.1913 -0.009,0.006 -0.0233,-0.0275 0.0127,0.0332 0.0747,0.1469 0.2211,0.3024 0.5015,0.5252 0.6151,0.4711 1.5161,1.0259 2.4737,1.6307 1.7121,1.0707 3.872,2.2158 4.6014,3.5028 0.2271,0.5005 0.224,0.9748 0.2448,1.1656 0.0461,0.6122 -0.2994,1.388 -0.8269,1.7489 -1.1883,0.5537 -3.4744,0.356 -4.6187,0.0357 -0.3186,-0.1041 -0.7118,-0.3065 -0.9643,-0.6026 -0.1249,-0.2246 -0.143,-0.7815 -7e-4,-1.0384 0.145,-0.1712 0.3881,-0.3386 0.5796,-0.4178 v 0 c 0.3677,-0.1616 0.7969,0.006 0.9586,0.3733 v 0 c 0.1616,0.3678 -0.006,0.7969 -0.3733,0.9586" /><path
           id="path146"
           style="fill:#fa9d00;fill-opacity:1;fill-rule:nonzero;stroke:none"
           d="m 356.6792,633.1136 c 0.6932,0.0345 2.6391,0.0419 4.4196,0.0485 v 0 c 0.4177,0.004 0.7533,0.3455 0.7495,0.7632 v 0 c -0.004,0.4178 -0.3455,0.7533 -0.7633,0.7495 v 0 c -0.4177,-0.004 -0.7532,-0.3455 -0.7494,-0.7632 v 0 c 0.004,-0.4178 0.3455,-0.7533 0.7632,-0.7495 1.1322,0.0917 2.1969,0.183 2.8277,0.2809 v 0 c 0.2827,0.007 0.5059,0.2426 0.4985,0.5252 v 0 c -0.007,0.2827 -0.2425,0.5059 -0.5252,0.4985 -0.6225,0.0652 -1.6811,0.1369 -2.8147,0.2081 -1.7802,-0.0259 -3.7472,-0.053 -4.4973,-0.1093 v 0 c -0.4009,-0.0252 -0.7055,-0.3707 -0.6802,-0.7716 v 0 c 0.0252,-0.401 0.3707,-0.7055 0.7716,-0.6803 z" /><path
           id="path148"
           style="fill:#fa9d00;fill-opacity:1;fill-rule:nonzero;stroke:none"
           d="m 372.7762,642.8016 c -0.2816,0.6107 -1.0023,1.0671 -1.6433,1.1691 v 0 c -0.4148,0.05 -0.7916,-0.2456 -0.8417,-0.6604 v 0 c -0.05,-0.4148 0.2457,-0.7917 0.6605,-0.8417 v 0 c 0.4148,-0.0501 0.7916,0.2456 0.8416,0.6604 v 0 c 0.0501,0.4148 -0.2456,0.7916 -0.6604,0.8417 -0.6292,0.0739 -1.4644,-0.0895 -2.1135,-0.4686 v 0 c -0.3682,-0.2296 -0.4805,-0.7142 -0.2509,-1.0823 v 0 c 0.2296,-0.3682 0.7142,-0.4805 1.0824,-0.2509 v 0 c 0.3681,0.2296 0.4804,0.7142 0.2508,1.0823 v 0 c -0.2296,0.3682 -0.7142,0.4805 -1.0823,0.2509 -0.8106,-0.5116 -1.4371,-1.509 -1.7341,-2.3471 v 0 c -0.1431,-0.4512 0.1066,-0.9329 0.5578,-1.076 v 0 c 0.4511,-0.1432 0.9329,0.1065 1.076,0.5577 v 0 c 0.1431,0.4512 -0.1066,0.9329 -0.5577,1.076 v 0 c -0.4512,0.1432 -0.9329,-0.1065 -1.0761,-0.5577 -0.1264,-0.4189 -0.1944,-0.951 -0.1399,-1.3985 v 0 c 0.0617,-0.4638 0.4877,-0.7896 0.9515,-0.7279 v 0 c 0.4637,0.0618 0.7896,0.4878 0.7278,0.9516 v 0 c -0.0617,0.4637 -0.4877,0.7896 -0.9515,0.7278 v 0 c -0.4637,-0.0618 -0.7896,-0.4878 -0.7278,-0.9515 0.1553,-0.8177 0.849,-1.5918 1.5882,-1.9526 v 0 c 0.4221,-0.1974 0.9243,-0.0152 1.1216,0.4069 v 0 c 0.1974,0.4222 0.0152,0.9243 -0.4069,1.1217 v 0 c -0.4222,0.1974 -0.9243,0.0152 -1.1217,-0.407 v 0 c -0.1974,-0.4221 -0.0152,-0.9243 0.407,-1.1216 1.6917,-0.6017 4.1669,0.0391 4.9042,-0.2639 v 0 c 0.2552,-0.1219 0.5609,-0.0139 0.6828,0.2413 v 0 c 0.1219,0.2552 0.0138,0.5608 -0.2413,0.6827 -1.2032,0.624 -3.6144,0.204 -4.631,0.8685 -0.4642,0.2018 -0.6312,0.3567 -0.6236,0.6477 -0.033,0.2093 -0.002,0.3729 0.0944,0.6565 0.1807,0.6676 0.48,1.2566 0.9317,1.5322 0.3941,0.2715 0.7359,0.3456 1.1009,0.2997 0.3531,-0.0179 0.4438,-0.0388 0.4739,-0.2074 v 0 c 0.1492,-0.373 0.5725,-0.5543 0.9455,-0.4051 v 0 c 0.373,0.1492 0.5544,0.5726 0.4051,0.9455" /><path
           id="path150"
           style="fill:#a400c7;fill-opacity:1;fill-rule:nonzero;stroke:none"
           d="m 254.2336,672.3933 c 0.1721,0.5625 0.0738,1.3231 -0.1522,1.9163 v 0 c -0.1532,0.3822 -0.5871,0.5679 -0.9693,0.4147 v 0 c -0.3822,-0.1531 -0.5679,-0.5871 -0.4147,-0.9692 v 0 c 0.1531,-0.3822 0.5871,-0.5679 0.9692,-0.4148 v 0 c 0.3822,0.1532 0.5679,0.5871 0.4148,0.9693 -0.2333,0.5866 -0.6612,1.2328 -1.1284,1.6264 v 0 c -0.33,0.2625 -0.8103,0.2078 -1.0728,-0.1222 v 0 c -0.2625,-0.3301 -0.2078,-0.8104 0.1222,-1.0729 v 0 c 0.33,-0.2625 0.8104,-0.2078 1.0729,0.1222 v 0 c 0.2625,0.3301 0.2078,0.8104 -0.1223,1.0729 -0.2941,0.2501 -0.8758,0.5294 -1.4519,0.463 v 0 c -0.4352,-0.0985 -0.7081,-0.5312 -0.6096,-0.9663 v 0 c 0.0986,-0.4352 0.5312,-0.7081 0.9664,-0.6095 v 0 c 0.4351,0.0985 0.708,0.5311 0.6095,0.9663 v 0 c -0.0985,0.4351 -0.5312,0.708 -0.9663,0.6095 -0.7604,-0.2404 -1.4373,-1.03 -1.8862,-1.8387 -0.4402,-0.8041 -0.8172,-1.8071 -1.0098,-2.6106 -0.1641,-0.7154 -0.2093,-1.4755 -0.0598,-2.0238 0.1551,-0.4099 0.5901,-0.8194 0.9461,-0.9605 0.3447,-0.1119 0.8071,-0.1394 1.1869,-0.0938 0.7365,0.1023 1.6476,0.4672 2.335,0.9565 0.8041,0.5835 1.3681,1.4686 1.6658,2.1629 0.2735,0.654 0.3399,1.3556 0.3729,1.5165 v 0 c 0.0442,0.4752 -0.3053,0.8963 -0.7805,0.9405 v 0 c -0.4753,0.0442 -0.8964,-0.3052 -0.9406,-0.7805 v 0 c -0.0442,-0.4752 0.3053,-0.8963 0.7805,-0.9405 v 0 c 0.4753,-0.0442 0.8964,0.3052 0.9406,0.7805 -1.7163,-0.005 -1.722,0.1379 -1.726,0.0788 -0.004,-0.0595 -0.0108,-0.1574 -0.0197,-0.2871 -0.0178,-0.2588 -0.0439,-0.6478 -0.0728,-1.12 -0.0577,-0.9433 -0.1272,-2.2338 -0.1649,-3.5147 -0.0439,-1.2816 -0.205,-2.5146 -0.4893,-3.5366 -0.2748,-1.0102 -0.559,-1.6053 -0.8969,-1.7681 v 0 c -0.4141,-0.2734 -0.5282,-0.8308 -0.2548,-1.2449 v 0 c 0.2734,-0.4142 0.8307,-0.5283 1.2449,-0.2549 v 0 c 0.4141,0.2734 0.5283,0.8307 0.2549,1.2449 v 0 c -0.2734,0.4142 -0.8308,0.5283 -1.245,0.2549 -0.2159,-0.1896 -0.2415,-0.1541 -0.5785,0.0614 v 0 c -0.4426,0.2452 -1.0001,0.0851 -1.2452,-0.3574 v 0 c -0.2452,-0.4426 -0.0851,-1.0001 0.3574,-1.2452 v 0 c 0.4426,-0.2452 1.0001,-0.0852 1.2453,0.3574 v 0 c 0.2451,0.4426 0.0851,1.0001 -0.3575,1.2452 -0.3176,0.1582 -0.5894,0.4211 -0.8991,0.8682 v 0 c -0.2813,0.4092 -0.8411,0.5127 -1.2503,0.2314 v 0 c -0.4091,-0.2814 -0.5127,-0.8412 -0.2313,-1.2503 v 0 c 0.2814,-0.4092 0.8411,-0.5128 1.2503,-0.2314 v 0 c 0.4091,0.2814 0.5127,0.8412 0.2313,1.2503 -0.4923,0.4814 -0.8994,1.0858 -1.1887,1.8261 v 0 c -0.06,0.2764 -0.3326,0.4518 -0.6089,0.3919 v 0 c -0.2764,-0.0599 -0.4519,-0.3326 -0.3919,-0.6089 0.0707,-0.9194 0.3477,-1.8699 0.7079,-2.6281 0.4008,-0.5859 0.9564,-1.1369 1.4929,-1.4518 0.688,-0.3523 1.726,-0.3936 2.4563,0.0413 0.7432,0.5508 1.2945,1.6469 1.6047,2.8112 0.3008,1.1524 0.4744,2.577 0.5099,3.9418 0.0385,1.2598 0.1083,2.5238 0.167,3.4596 0.0294,0.4674 0.0558,0.8492 0.0742,1.1062 0.009,0.1283 0.0163,0.2248 0.0208,0.285 0.005,0.0606 0.002,0.2489 -1.7181,0.2038 -0.002,-0.2143 0.003,-0.661 -0.1544,-1.0628 -0.2215,-0.577 -0.5205,-1.1182 -1.0731,-1.5067 -0.5227,-0.3777 -1.1011,-0.602 -1.6182,-0.6538 -0.2467,-0.0313 -0.352,-0.027 -0.4516,0.0216 -0.0879,0.0193 0.0265,-0.1012 0.049,-0.0738 -0.08,0.2084 -0.0447,0.5879 0.1013,1.1846 0.1613,0.6934 0.4661,1.51 0.8496,2.2035 0.3748,0.6889 0.6635,1.0748 0.8245,1.0431 0.0202,0.0686 -0.0746,0.0758 0.1444,-0.0823 0.2856,-0.2052 0.5186,-0.5502 0.695,-0.9858 0.1835,-0.429 0.2435,-0.7215 0.1629,-0.8817 v 0 c -0.1325,-0.3792 0.0674,-0.7941 0.4466,-0.9267 v 0 c 0.3793,-0.1326 0.7942,0.0674 0.9267,0.4466" /><path
           id="path152"
           style="fill:#000000;fill-opacity:1;fill-rule:nonzero;stroke:none"
           d="m 259.8673,674.578 c -0.4566,-0.1132 -0.8838,-0.5473 -1.0178,-0.8772 v 0 c -0.1393,-0.3768 0.0534,-0.7951 0.4302,-0.9344 v 0 c 0.3768,-0.1392 0.7952,0.0534 0.9344,0.4303 v 0 c 0.1392,0.3768 -0.0534,0.7951 -0.4302,0.9344 v 0 c -0.3769,0.1392 -0.7952,-0.0534 -0.9344,-0.4303 -0.1098,-0.3229 -0.141,-0.7276 -0.126,-1.0236 v 0 c 0.0221,-0.4011 0.3652,-0.7084 0.7663,-0.6862 v 0 c 0.4012,0.0221 0.7084,0.3652 0.6863,0.7663 v 0 c -0.0222,0.4011 -0.3653,0.7084 -0.7664,0.6862 v 0 c -0.4011,-0.0221 -0.7083,-0.3652 -0.6862,-0.7663 0.0319,-0.401 0.145,-0.8689 0.3532,-1.2184 v 0 c 0.2013,-0.3322 0.6338,-0.4383 0.966,-0.2369 v 0 c 0.3321,0.2013 0.4382,0.6338 0.2369,0.9659 v 0 c -0.2014,0.3322 -0.6338,0.4382 -0.966,0.2369 v 0 c -0.3321,-0.2013 -0.4382,-0.6338 -0.2369,-0.9659 0.2287,-0.3391 0.6751,-0.6724 1.1339,-0.8087 0.4342,-0.126 1.0386,-0.2076 1.5551,-0.1369 0.5105,0.0899 1.0207,0.4206 1.3332,0.7584 0.3037,0.3425 0.5611,0.7956 0.7222,1.1785 0.1506,0.3718 0.2856,0.8577 0.289,1.3091 -0.0123,0.1146 0.0856,0.4636 -0.0489,0.9507 -0.1228,0.2558 -0.3882,0.5281 -0.5949,0.6546 -0.2031,0.1133 -0.4788,0.2088 -0.7052,0.2569 v 0 c -0.4011,0.0831 -0.7936,-0.1747 -0.8767,-0.5759 v 0 c -0.0831,-0.4011 0.1747,-0.7936 0.5759,-0.8767 v 0 c 0.4011,-0.0831 0.7937,0.1747 0.8767,0.5759 v 0 c 0.0831,0.4011 -0.1747,0.7937 -0.5759,0.8767 -0.4453,0.0877 -0.9992,0.0912 -1.4317,0.0313 v 0 c -0.4052,-0.058 -0.6866,-0.4335 -0.6286,-0.8387 v 0 c 0.058,-0.4052 0.4335,-0.6866 0.8387,-0.6286 v 0 c 0.4052,0.058 0.6866,0.4335 0.6286,0.8387 v 0 c -0.058,0.4052 -0.4335,0.6866 -0.8387,0.6286 -0.4892,-0.1121 -1.0877,-0.3806 -1.4769,-0.8135 v 0 c -0.2402,-0.2491 -0.233,-0.6458 0.0161,-0.886 v 0 c 0.2491,-0.2402 0.6458,-0.233 0.886,0.0161 v 0 c 0.2402,0.2491 0.233,0.6457 -0.0161,0.886 v 0 c -0.2491,0.2402 -0.6458,0.233 -0.886,-0.0161 -0.3465,-0.4331 -0.5794,-1.1365 -0.5339,-1.9426 v 0 c 0.005,-0.2827 0.2386,-0.5077 0.5214,-0.5025 v 0 c 0.2827,0.005 0.5077,0.2385 0.5025,0.5213 0.0193,0.627 0.1628,0.8692 0.4121,1.0539 0.2066,0.1848 0.4231,0.2064 0.7849,0.2161 0.3173,0.0475 0.6333,0.0475 0.9208,-0.0166 0.14,-0.0278 0.1963,-0.0452 0.2588,-0.0866 0.0589,-0.0283 -0.007,0.0475 -0.03,0.0606 0.0269,0.0968 -0.0463,-0.0278 -0.0488,-0.4125 0.0167,-0.2276 -0.0467,-0.4402 -0.1651,-0.7459 -0.1124,-0.3062 -0.2405,-0.5632 -0.4328,-0.786 -0.1834,-0.2277 -0.2798,-0.3178 -0.4851,-0.3386 -0.3035,-0.0562 -0.6325,-0.005 -0.9643,0.0937 -0.2402,0.0689 -0.2505,0.0924 -0.3135,0.2344 -0.0833,0.1314 -0.0967,0.2687 -0.1034,0.5694 -0.0128,0.207 -0.01,0.3356 0.038,0.4394 0.0236,0.0968 -0.1224,-0.0174 -0.1126,-0.0545 v 0 c 0.3965,0.0647 0.6655,0.4385 0.6008,0.835 v 0 c -0.0647,0.3965 -0.4385,0.6655 -0.835,0.6008 z" /><path
           id="path154"
           style="fill:#006fff;fill-opacity:1;fill-rule:nonzero;stroke:none"
           d="m 276.026,681.2567 c 0.0539,0.2848 0.0777,0.6771 0.0562,1.0578 v 0 c 0.0103,0.3454 -0.2614,0.6338 -0.6068,0.6441 v 0 c -0.3454,0.0103 -0.6338,-0.2614 -0.6441,-0.6068 v 0 c -0.0103,-0.3454 0.2613,-0.6338 0.6068,-0.6441 v 0 c 0.3454,-0.0103 0.6338,0.2614 0.6441,0.6068 0.1074,0.9345 -0.0413,2.307 -0.6026,3.2911 v 0 c -0.2794,0.3956 -0.8265,0.4898 -1.2221,0.2105 v 0 c -0.3955,-0.2794 -0.4897,-0.8265 -0.2104,-1.2221 v 0 c 0.2794,-0.3956 0.8265,-0.4898 1.2221,-0.2104 v 0 c 0.3955,0.2793 0.4897,0.8265 0.2104,1.222 -0.4671,0.6415 -1.3108,1.1674 -2.0981,1.3008 v 0 c -0.4921,0.0659 -0.9444,-0.2796 -1.0103,-0.7716 v 0 c -0.0659,-0.4921 0.2796,-0.9444 0.7717,-1.0103 v 0 c 0.4921,-0.0659 0.9444,0.2796 1.0103,0.7716 v 0 c 0.0659,0.4921 -0.2796,0.9444 -0.7717,1.0103 -0.7887,0.0936 -1.8271,-0.1858 -2.5774,-0.8146 -1.6101,-1.5805 -2.2046,-5.4296 -2.3226,-8.5355 -0.083,-1.9692 -0.1408,-3.4373 -0.2657,-4.4725 -0.0331,-0.2842 -0.0914,-0.5419 -0.1446,-0.821 -0.0318,-0.4939 -0.0656,-0.955 -0.0296,-1.145 v 0 c -0.0483,-0.3808 0.2212,-0.7287 0.602,-0.777 v 0 c 0.3808,-0.0483 0.7287,0.2212 0.777,0.6021 v 0 c 0.0484,0.3808 -0.2212,0.7287 -0.602,0.777 v 0 c -0.3808,0.0483 -0.7287,-0.2212 -0.777,-0.6021 0.008,-0.0666 0.1952,-0.5854 1.2055,-0.5258 v 0 c 0.2192,0.2838 0.1669,0.6916 -0.1168,0.9108 v 0 c -0.2838,0.2193 -0.6916,0.1669 -0.9108,-0.1168 v 0 c -0.2193,-0.2838 -0.1669,-0.6916 0.1168,-0.9108 v 0 c 0.2838,-0.2192 0.6916,-0.1669 0.9108,0.1168 0.0674,0.1378 0.089,0.2334 0.0972,0.3075 v 0 c 0.1033,0.3169 -0.0699,0.6575 -0.3868,0.7608 v 0 c -0.3169,0.1033 -0.6576,-0.0699 -0.7609,-0.3868 v 0 c -0.1032,-0.317 0.07,-0.6576 0.3869,-0.7609 v 0 c 0.3169,-0.1033 0.6575,0.0699 0.7608,0.3869 0.0124,0.1367 0.0518,0.3796 0.1263,0.7562 v 0 c 0.0767,0.2722 -0.0818,0.555 -0.354,0.6317 v 0 c -0.2721,0.0767 -0.555,-0.0817 -0.6317,-0.3539 -0.132,-0.356 -0.2246,-0.5636 -0.2882,-0.66 -0.0299,-0.0426 -0.0322,-0.009 0.0224,0.1119 0.9983,0.0442 1.1852,-0.4444 1.2015,-0.4427 0.0708,0.0839 0.2215,0.5074 0.3758,0.9919 0.0478,0.2518 0.1182,0.5743 0.163,0.9404 0.1326,1.1159 0.1934,2.6401 0.2762,4.6074 0.1392,2.9991 0.6423,6.3565 1.7932,7.2335 0.4148,0.4084 0.6971,0.4764 1.1141,0.4086 0.4185,-0.028 0.6657,-0.1727 0.9042,-0.5305 0.5096,-0.5323 0.728,-1.4563 0.7842,-2.2422 -0.0421,-0.3074 -0.1058,-0.5112 -0.1881,-0.6434 v 0 c -0.1248,-0.3819 0.0837,-0.7926 0.4656,-0.9173 v 0 c 0.3818,-0.1247 0.7925,0.0837 0.9172,0.4656" /><path
           id="path156"
           style="fill:#006fff;fill-opacity:1;fill-rule:nonzero;stroke:none"
           d="m 267.462,676.3847 c -0.018,0.0233 0.035,-0.0169 0.0653,-0.0369 v 0 c -0.2302,0.3485 -0.6992,0.4444 -1.0477,0.2143 v 0 c -0.3484,-0.2301 -0.4444,-0.6992 -0.2142,-1.0476 v 0 c 0.2301,-0.3485 0.6991,-0.4444 1.0476,-0.2143 v 0 c 0.3484,0.2301 0.4444,0.6992 0.2143,1.0476 0.0321,-0.0445 0.1005,-0.2507 0.1153,-0.3569 v 0 c 0.0334,0.4322 -0.2899,0.8096 -0.7221,0.843 v 0 c -0.4321,0.0334 -0.8095,-0.2899 -0.8429,-0.7221 v 0 c -0.0334,-0.4321 0.2899,-0.8095 0.722,-0.8429 v 0 c 0.4322,-0.0334 0.8096,0.2899 0.843,0.722 -0.051,-0.2092 -0.2096,-0.4449 -0.1799,-0.4576 v 0 c 0.4015,0.2349 0.5366,0.7509 0.3017,1.1524 v 0 c -0.2349,0.4015 -0.7508,0.5365 -1.1524,0.3016 v 0 c -0.4015,-0.2349 -0.5365,-0.7508 -0.3016,-1.1523 v 0 c 0.2349,-0.4015 0.7508,-0.5366 1.1523,-0.3017 0.0974,0.0278 0.371,0.0539 0.7999,0.0888 v 0 c 0.5208,0.0904 0.8697,0.5859 0.7794,1.1067 v 0 c -0.0904,0.5209 -0.5859,0.8698 -1.1068,0.7794 v 0 c -0.5208,-0.0904 -0.8697,-0.5859 -0.7793,-1.1067 v 0 c 0.0904,-0.5208 0.5858,-0.8698 1.1067,-0.7794 0.5993,0.1037 1.3097,0.1692 2.0354,0.2008 v 0 c 0.53,0.0241 0.9401,0.4734 0.916,1.0034 v 0 c -0.0241,0.5301 -0.4734,0.9402 -1.0034,0.9161 v 0 c -0.5301,-0.0242 -0.9402,-0.4734 -0.9161,-1.0035 v 0 c 0.0242,-0.53 0.4734,-0.9401 1.0035,-0.916 1.3045,0.21 2.4988,0.3042 2.7561,0.3126 v 0 c 0.2547,-0.1229 0.5608,-0.0161 0.6837,0.2386 v 0 c 0.1229,0.2547 0.0161,0.5608 -0.2386,0.6837 -0.5089,0.3782 -1.8961,0.5974 -3.2887,0.6846 -0.7727,-0.0367 -1.5964,-0.116 -2.2753,-0.2342 -0.4817,-0.1231 -0.9899,-0.2968 -1.323,-0.5208 -0.1857,-0.1387 -0.4718,-0.5132 -0.5346,-0.8755 0.009,-0.1827 0.1002,-0.469 0.1879,-0.5975 0.0855,-0.1037 0.2262,-0.2314 0.3318,-0.2995 v 0 c 0.323,-0.2388 0.7785,-0.1705 1.0173,0.1525 v 0 c 0.2388,0.3231 0.1705,0.7785 -0.1526,1.0173 z" /></g></g></g></svg>