<?xml version="1.0" encoding="UTF-8" standalone="no"?>
<svg
   xmlns:dc="http://purl.org/dc/elements/1.1/"
   xmlns:cc="http://creativecommons.org/ns#"
   xmlns:rdf="http://www.w3.org/1999/02/22-rdf-syntax-ns#"
   xmlns:svg="http://www.w3.org/2000/svg"
   xmlns="http://www.w3.org/2000/svg"
   viewBox="0 0 529.92786 231.424"
   height="231.424"
   width="529.92786"
   xml:space="preserve"
   id="svg2"
   version="1.1"><metadata
     id="metadata8"><rdf:RDF><cc:Work
         rdf:about=""><dc:format>image/svg+xml</dc:format><dc:type
           rdf:resource="http://purl.org/dc/dcmitype/StillImage" /></cc:Work></rdf:RDF></metadata><defs
     id="defs6"><clipPath
       id="clipPath14"
       clipPathUnits="userSpaceOnUse"><path
         id="path12"
         d="M 0,0 H 612 V 792 H 0 Z" /></clipPath><clipPath
       id="clipPath24"
       clipPathUnits="userSpaceOnUse"><path
         id="path22"
         d="M 0,0 H 612 V 792 H 0 Z" /></clipPath><clipPath
       id="clipPath122"
       clipPathUnits="userSpaceOnUse"><path
         id="path120"
         d="m 59.14286,72 h 493.7143 V 720 H 59.14286 Z" /></clipPath></defs><g
     clip-path="url(#clipPath14)"
     transform="matrix(1.3333333,0,0,-1.3333333,-136.32987,853.8988)"
     id="g10"><g
       id="g16" /><g
       id="g18"><g
         clip-path="url(#clipPath24)"
         id="g20"><g
           transform="matrix(0.8456908,0,0,0.8456908,72,720)"
           id="g26"><text
             id="text30"
             style="font-variant:normal;font-weight:normal;font-size:18px;writing-mode:lr-tb;fill:#000000;fill-opacity:0;fill-rule:nonzero;stroke:none"
             transform="matrix(1,0,0,-1,78.66019,-119.7514)"><tspan
               id="tspan28"
               y="0"
               x="0">u</tspan></text>
</g><g
           transform="matrix(0.8456908,0,0,0.8456908,72,720)"
           id="g32"><text
             id="text36"
             style="font-variant:normal;font-weight:normal;font-size:28px;writing-mode:lr-tb;fill:#000000;fill-opacity:0;fill-rule:nonzero;stroke:none"
             transform="matrix(1,0,0,-1,370.6836,-126.5248)"><tspan
               id="tspan34"
               y="0"
               x="0 15.764 21.924">pin</tspan></text>
</g><g
           transform="matrix(0.8456908,0,0,0.8456908,72,720)"
           id="g38"><text
             id="text42"
             style="font-variant:normal;font-weight:normal;font-size:16px;writing-mode:lr-tb;fill:#000000;fill-opacity:0;fill-rule:nonzero;stroke:none"
             transform="matrix(1,0,0,-1,78.99418,-157.5444)"><tspan
               id="tspan40"
               y="0"
               x="0">I</tspan></text>
</g><g
           transform="matrix(0.8456908,0,0,0.8456908,72,720)"
           id="g44"><text
             id="text48"
             style="font-variant:normal;font-weight:normal;font-size:16px;writing-mode:lr-tb;fill:#000000;fill-opacity:0;fill-rule:nonzero;stroke:none"
             transform="matrix(1,0,0,-1,395.6621,-183.974)"><tspan
               id="tspan46"
               y="0"
               x="0">y</tspan></text>
</g><g
           transform="matrix(0.8456908,0,0,0.8456908,72,720)"
           id="g50"><text
             id="text54"
             style="font-variant:normal;font-weight:normal;font-size:13px;writing-mode:lr-tb;fill:#000000;fill-opacity:0;fill-rule:nonzero;stroke:none"
             transform="matrix(1,0,0,-1,459.7735,-180.1567)"><tspan
               id="tspan52"
               y="0"
               x="0">I</tspan></text>
</g><g
           transform="matrix(0.8456908,0,0,0.8456908,72,720)"
           id="g56"><text
             id="text60"
             style="font-variant:normal;font-weight:normal;font-size:15px;writing-mode:lr-tb;fill:#000000;fill-opacity:0;fill-rule:nonzero;stroke:none"
             transform="matrix(1,0,0,-1,69.50687,-195.7524)"><tspan
               id="tspan58"
               y="0"
               x="0">I</tspan></text>
</g><g
           transform="matrix(0.8456908,0,0,0.8456908,72,720)"
           id="g62"><text
             id="text66"
             style="font-variant:normal;font-weight:normal;font-size:23px;writing-mode:lr-tb;fill:#000000;fill-opacity:0;fill-rule:nonzero;stroke:none"
             transform="matrix(1,0,0,-1,298.368,-204.0414)"><tspan
               id="tspan64"
               y="0"
               x="0 13.6551">TS</tspan></text>
</g><g
           transform="matrix(0.8456908,0,0,0.8456908,72,720)"
           id="g68"><text
             id="text72"
             style="font-variant:normal;font-weight:normal;font-size:15px;writing-mode:lr-tb;fill:#000000;fill-opacity:0;fill-rule:nonzero;stroke:none"
             transform="matrix(1,0,0,-1,396.667,-197.8383)"><tspan
               id="tspan70"
               y="0"
               x="0">I</tspan></text>
</g><g
           transform="matrix(0.8456908,0,0,0.8456908,72,720)"
           id="g74"><text
             id="text78"
             style="font-variant:normal;font-weight:normal;font-size:15px;writing-mode:lr-tb;fill:#000000;fill-opacity:0;fill-rule:nonzero;stroke:none"
             transform="matrix(1,0,0,-1,468.6089,-203.9945)"><tspan
               id="tspan76"
               y="0"
               x="0">1</tspan></text>
</g><g
           transform="matrix(0.8456908,0,0,0.8456908,72,720)"
           id="g80"><text
             id="text84"
             style="font-variant:normal;font-weight:normal;font-size:19px;writing-mode:lr-tb;fill:#000000;fill-opacity:0;fill-rule:nonzero;stroke:none"
             transform="matrix(1,0,0,-1,252.9541,-216.3422)"><tspan
               id="tspan82"
               y="0"
               x="0">I</tspan></text>
</g><g
           transform="matrix(0.8456908,0,0,0.8456908,72,720)"
           id="g86"><text
             id="text90"
             style="font-variant:normal;font-weight:normal;font-size:27px;writing-mode:lr-tb;fill:#000000;fill-opacity:0;fill-rule:nonzero;stroke:none"
             transform="matrix(1,0,0,-1,405.3072,-213.2328)"><tspan
               id="tspan88"
               y="0"
               x="0 8.1216002 22.8312 28.7118">told</tspan></text>
</g><g
           transform="matrix(0.8456908,0,0,0.8456908,72,720)"
           id="g92"><text
             id="text96"
             style="font-variant:normal;font-weight:normal;font-size:22px;writing-mode:lr-tb;fill:#000000;fill-opacity:0;fill-rule:nonzero;stroke:none"
             transform="matrix(1,0,0,-1,259.8565,-244.2729)"><tspan
               id="tspan94"
               y="0"
               x="0">I</tspan></text>
</g><g
           transform="matrix(0.8456908,0,0,0.8456908,72,720)"
           id="g98"><text
             id="text102"
             style="font-variant:normal;font-weight:normal;font-size:14px;writing-mode:lr-tb;fill:#000000;fill-opacity:0;fill-rule:nonzero;stroke:none"
             transform="matrix(1,0,0,-1,397.4776,-240.0385)"><tspan
               id="tspan100"
               y="0"
               x="0">I</tspan></text>
</g><g
           transform="matrix(0.8456908,0,0,0.8456908,72,720)"
           id="g104"><text
             id="text108"
             style="font-variant:normal;font-weight:normal;font-size:29px;writing-mode:lr-tb;fill:#000000;fill-opacity:0;fill-rule:nonzero;stroke:none"
             transform="matrix(1,0,0,-1,460.5579,-249.9887)"><tspan
               id="tspan106"
               y="0"
               x="0">I</tspan></text>
</g><g
           transform="matrix(0.8456908,0,0,0.8456908,72,720)"
           id="g110"><text
             id="text114"
             style="font-variant:normal;font-weight:normal;font-size:29px;writing-mode:lr-tb;fill:#000000;fill-opacity:0;fill-rule:nonzero;stroke:none"
             transform="matrix(1,0,0,-1,38.62821,-267.0199)"><tspan
               id="tspan112"
               y="0"
               x="0">I</tspan></text>
</g></g></g><g
       id="g116"><g
         clip-path="url(#clipPath122)"
         id="g118"><path
           id="path124"
           style="fill:#000000;fill-opacity:1;fill-rule:nonzero;stroke:none"
           d="m 203.8645,592.6645 c -0.7926,0.3006 -1.5481,0.6275 -2.263,0.9849 -1.6666,0.8408 -3.3662,1.3621 -5.0177,1.9458 0.2877,0.5756 0.5888,1.1595 0.895,1.774 1.5642,-0.5428 3.2646,-1.0801 5.0098,-1.946 0.7736,-0.387 1.6002,-0.7344 2.4771,-1.0495 -0.3993,-0.5795 -0.7678,-1.1658 -1.1012,-1.7092" /><path
           id="path126"
           style="fill:#000000;fill-opacity:1;fill-rule:nonzero;stroke:none"
           d="m 291.2656,495.3879 c 0.7087,2.1422 1.1446,4.4734 1.4981,7.0022 0.2371,1.7073 0.4539,3.4914 0.6393,5.3105 0.6997,0.002 1.3934,0.0111 2.0654,0.0164 -0.1939,-1.9272 -0.4222,-3.8147 -0.6719,-5.6094 -0.4152,-3.0028 -0.9853,-5.9067 -1.9789,-8.5154 -0.5114,0.5612 -1.0273,1.1687 -1.552,1.7957" /><path
           id="path128"
           style="fill:#000000;fill-opacity:1;fill-rule:nonzero;stroke:none"
           d="m 232.4224,478.5425 c 0.4447,-0.0587 0.8876,-0.1187 1.329,-0.1803 1.889,-0.256 3.7867,-0.4813 5.6873,-0.6958 -0.0659,-0.2765 -0.1289,-0.5667 -0.1851,-0.8676 -0.0326,-0.1393 -0.0594,-0.2812 -0.0799,-0.4256 -0.0108,-0.0761 -0.0198,-0.1519 -0.027,-0.2276 -0.0167,-0.1075 -0.0354,-0.222 -0.0556,-0.3431 -1.8649,0.2152 -3.7314,0.4418 -5.5939,0.6982 -0.8029,0.1071 -1.6121,0.2084 -2.4294,0.3071 0.5752,0.4639 1.0413,1.057 1.3546,1.7347" /><path
           id="path130"
           style="fill:#000000;fill-opacity:1;fill-rule:nonzero;stroke:none"
           d="m 206.7402,479.5729 c 2.4161,0.3161 4.812,0.56 7.1496,0.6595 2.4685,0.104 4.8979,-0.0629 7.2362,-0.3094 -0.1392,-0.5972 -0.2468,-1.2421 -0.3258,-1.9106 -2.2365,0.2353 -4.5123,0.3887 -6.8276,0.2875 -2.6293,-0.1135 -5.3409,-0.4174 -8.0907,-0.8044 0.435,0.5988 0.7369,1.3046 0.8583,2.0774" /><path
           id="path132"
           style="fill:#000000;fill-opacity:1;fill-rule:nonzero;stroke:none"
           d="m 156.6299,471.324 c 1.7769,-0.1377 3.5326,-0.3244 5.2468,-0.3764 1.8185,-0.0451 3.5543,0.0107 5.3524,0.2308 0.2774,0.0335 0.5554,0.0728 0.8342,0.1174 -0.1382,-0.612 -0.2655,-1.2504 -0.3692,-1.9026 -0.082,-0.0107 -0.1639,-0.021 -0.2458,-0.0309 -1.8782,-0.2238 -3.7487,-0.2807 -5.6184,-0.2308 -2.0216,0.0432 -4.0402,0.2569 -6.0176,0.3721 0.2525,0.577 0.5326,1.1824 0.8176,1.8204" /><path
           id="path134"
           style="fill:#000000;fill-opacity:1;fill-rule:nonzero;stroke:none"
           d="m 115.203,490.3544 c 2.4988,-3.4222 5.7269,-6.2684 9.343,-8.8877 -0.1626,-0.2118 -0.327,-0.4285 -0.4902,-0.6465 -0.2306,-0.3091 -0.4584,-0.6219 -0.6831,-0.9373 -3.6421,2.6565 -7.0129,5.6412 -9.6288,9.1624 0.4707,0.4432 0.9522,0.8855 1.4591,1.3091" /><path
           id="path136"
           style="fill:#000000;fill-opacity:1;fill-rule:nonzero;stroke:none"
           d="m 113.926,537.4266 c -1.8428,-2.6746 -3.4875,-5.3317 -4.683,-8.1528 -0.3451,0.002 -0.7105,0.005 -1.0981,0.007 -0.3671,-5e-4 -0.7363,-0.0121 -1.0923,-0.0307 1.2899,3.2162 3.1456,6.2339 5.1672,9.1444 0.5146,-0.3027 1.0928,-0.6393 1.7062,-0.9679" /><path
           id="path138"
           style="fill:#000000;fill-opacity:1;fill-rule:nonzero;stroke:none"
           d="m 124.3367,550.452 c -1.4006,-1.6199 -2.9062,-3.3533 -4.4474,-5.213 -0.2393,0.1127 -0.5023,0.2374 -0.7935,0.373 -0.3155,0.1432 -0.6396,0.314 -0.9815,0.5063 1.5785,1.9074 3.1188,3.6777 4.5461,5.3199 0.563,-0.344 1.1254,-0.6728 1.6763,-0.9862" /><path
           id="path140"
           style="fill:#000000;fill-opacity:1;fill-rule:nonzero;stroke:none"
           d="m 135.8766,565.2201 c -0.418,-0.6438 -0.8421,-1.2863 -1.2671,-1.9263 -1.211,-1.8087 -2.6464,-3.6522 -3.9794,-5.3087 -0.5634,0.306 -1.1274,0.6161 -1.6873,0.9363 0.0548,0.0681 0.1099,0.1366 0.1652,0.2054 1.33,1.6608 2.7283,3.4616 3.9052,5.2321 0.3617,0.5393 0.7208,1.077 1.0745,1.6126 0.5951,-0.2639 1.1971,-0.5178 1.7889,-0.7514" /><path
           id="path142"
           style="fill:#000000;fill-opacity:1;fill-rule:nonzero;stroke:none"
           d="m 142.0846,580.6216 c -0.0457,-1.3544 -0.2002,-2.6875 -0.5148,-3.9846 -0.2355,-0.9476 -0.5623,-1.9106 -0.9608,-2.884 -0.0804,0.0272 -0.1603,0.0544 -0.2396,0.0816 -0.4836,0.1631 -0.9828,0.3527 -1.4937,0.5636 0.3787,0.9108 0.6853,1.8059 0.9016,2.6827 0.3234,1.2773 0.4686,2.5968 0.4967,3.9557 0.1124,-0.0233 0.2242,-0.0465 0.3353,-0.0696 0.3319,-0.0684 0.5524,-0.1077 0.7034,-0.1409 0.0396,-0.0114 0.0794,-0.0223 0.1194,-0.0327 0.055,-0.0143 0.11,-0.0275 0.165,-0.0398 0.1636,-0.0431 0.326,-0.0872 0.4875,-0.132" /><path
           id="path144"
           style="fill:#000000;fill-opacity:1;fill-rule:nonzero;stroke:none"
           d="m 151.3077,613.5836 c -2.2796,-1.3081 -4.4172,-2.8435 -5.7972,-4.3329 -0.4796,-0.5086 -0.8923,-1.0111 -1.2526,-1.5282 -0.5405,0.236 -1.0755,0.483 -1.5992,0.7376 0.4458,0.6911 0.959,1.3515 1.5561,1.9987 1.6721,1.7831 4.3097,3.6237 6.9241,5.0571 0.0566,0.031 0.1133,0.0618 0.17,0.0924 6e-4,-0.2983 0,-0.5913 -0.001,-0.8852 -0.002,-0.3771 -4e-4,-0.7561 2e-4,-1.1395" /><path
           id="path146"
           style="fill:#000000;fill-opacity:1;fill-rule:nonzero;stroke:none"
           d="m 170.9797,614.6889 c -0.0501,0.0241 -0.1001,0.0485 -0.15,0.073 -2.2406,1.1235 -4.0364,2.6097 -6.2157,2.7017 -1.0187,0.0735 -2.2696,-0.007 -3.6698,-0.253 -0.003,0.6096 -0.007,1.2062 -0.0109,1.781 1.433,0.2407 2.7268,0.3252 3.7986,0.2606 2.7133,-0.2309 4.8121,-1.8942 6.8787,-2.9394 0.0761,-0.0392 0.1533,-0.0784 0.2316,-0.1174 -0.2736,-0.4963 -0.5552,-0.984 -0.8625,-1.5065" /><path
           id="path148"
           style="fill:#000000;fill-opacity:1;fill-rule:nonzero;stroke:none"
           d="m 141.4362,598.4514 c -0.2815,-2.5128 -0.345,-5.2147 -0.1516,-7.777 -0.6016,0.124 -1.2179,0.2501 -1.833,0.3741 -0.1458,2.6959 -0.0295,5.5284 0.3077,8.1286 0.5542,-0.2502 1.118,-0.4943 1.6769,-0.7257" /><path
           id="path150"
           style="fill:#000000;fill-opacity:1;fill-rule:nonzero;stroke:none"
           d="m 106.854,519.5736 c -0.1066,-0.9251 -0.1905,-1.8607 -0.2559,-2.8005 -0.1865,-2.5297 -0.3063,-4.9232 8e-4,-7.1974 0.2099,-1.6013 0.7149,-3.1026 1.3013,-4.7056 0.7366,-1.9898 1.5384,-4.0219 2.4634,-6.0502 -0.2425,-0.185 -0.4888,-0.3755 -0.7378,-0.5731 -0.2822,-0.2268 -0.5551,-0.4541 -0.8178,-0.6789 -1.0427,2.2438 -1.9297,4.4807 -2.7232,6.6313 -0.6067,1.6249 -1.1828,3.3276 -1.4378,5.1082 -0.3429,2.4548 -0.2412,5.0508 -0.0725,7.6071 0.0569,0.8098 0.1285,1.6241 0.2172,2.4372 0.4474,0.0452 0.9786,0.0977 1.5818,0.168 0.1664,0.0196 0.3253,0.0378 0.4805,0.0539" /><path
           id="path152"
           style="fill:#000000;fill-opacity:1;fill-rule:nonzero;stroke:none"
           d="m 132.8154,476.3898 c 2.2236,-1.1095 4.5777,-2.0831 7.0458,-2.8548 2.1548,-0.6817 4.3391,-1.151 6.5701,-1.4796 -0.2427,-0.618 -0.4744,-1.2361 -0.6957,-1.8486 -2.1815,0.3315 -4.3502,0.7993 -6.4614,1.4539 -2.6782,0.84 -5.2528,1.9201 -7.6736,3.1465 0.0581,0.0784 0.1166,0.1569 0.1756,0.2354 0.3409,0.4558 0.6517,0.8579 0.9751,1.2663 0.0215,0.0273 0.0429,0.0542 0.0641,0.0809" /><path
           id="path154"
           style="fill:#000000;fill-opacity:1;fill-rule:nonzero;stroke:none"
           d="m 180.9857,474.8032 c 4.2941,1.1116 8.702,2.0075 13.273,2.8092 -0.002,-0.096 -0.001,-0.1766 9e-4,-0.2568 -0.0105,-0.521 -0.0227,-1.0978 -0.0357,-1.7174 -5.55,-0.9575 -10.8173,-2.0518 -15.95,-3.517 1.2883,0.564 2.2234,1.5271 2.7118,2.682" /><path
           id="path156"
           style="fill:#000000;fill-opacity:1;fill-rule:nonzero;stroke:none"
           d="m 249.1296,476.5681 c 0.1424,-0.0177 0.2849,-0.0355 0.4273,-0.0535 2.6536,-0.3505 5.243,-0.7789 7.7962,-0.9749 2.3282,-0.1667 4.6272,-0.1294 6.8637,0.0941 -0.002,-0.5905 -0.005,-1.2119 0.009,-1.8486 -2.2984,-0.2206 -4.6465,-0.2542 -7.0055,-0.082 -2.6363,0.1793 -5.2789,0.59 -7.9054,0.9122 -0.212,0.0273 -0.4242,0.0542 -0.6365,0.0809 0.0164,0.1038 0.0329,0.2115 0.0492,0.3235 0.0387,0.4005 0.1925,0.8577 0.402,1.5483" /><path
           id="path158"
           style="fill:#000000;fill-opacity:1;fill-rule:nonzero;stroke:none"
           d="m 273.8464,477.8737 c 3.4627,1.3135 6.5759,3.1187 9.1581,5.3186 1.1779,0.9951 2.2729,2.0887 3.2734,3.2799 0.4938,-0.5042 0.9892,-0.9628 1.45,-1.3715 -1.0673,-1.2541 -2.2229,-2.4023 -3.4439,-3.4276 -2.9078,-2.4225 -6.4725,-4.393 -10.4246,-5.7814 0.001,0.3203 0.001,0.6539 -0.002,1.0003 0.002,0.0721 0.002,0.1445 0.001,0.2173 -0.001,0.0647 -0.003,0.129 -0.007,0.193 -0.003,0.189 -0.004,0.3796 -0.005,0.5714" /><path
           id="path160"
           style="fill:#000000;fill-opacity:1;fill-rule:nonzero;stroke:none"
           d="m 294.0305,517.3459 c 0.0491,1.6318 0.109,3.1647 -0.005,4.6784 -0.125,1.7227 -0.549,3.4047 -1.0288,5.1733 -0.3646,1.3456 -0.8188,2.6971 -1.3082,4.1348 0.6226,0.2531 1.2541,0.4915 1.9377,0.729 0.0454,0.0159 0.0905,0.0316 0.1353,0.0471 0.4882,-1.4833 0.9543,-2.918 1.3283,-4.3552 0.4661,-1.795 0.911,-3.6795 1.0364,-5.584 0.1019,-1.6033 0.0312,-3.2015 -0.031,-4.8061 -0.712,-0.002 -1.4038,-0.0116 -2.0652,-0.0173" /><path
           id="path162"
           style="fill:#000000;fill-opacity:1;fill-rule:nonzero;stroke:none"
           d="m 288.8677,540.584 c -0.5479,1.9067 -1.0283,3.8072 -1.584,5.5893 -0.6309,1.9844 -1.376,3.8309 -2.2046,5.5835 0.2049,0.1489 0.4188,0.298 0.6488,0.457 0.532,0.3679 0.8083,0.5631 1.0532,0.6934 0.9242,-1.9162 1.7567,-3.9438 2.4514,-6.1118 0.5843,-1.7899 1.0854,-3.6573 1.6346,-5.4867 -0.0587,-0.0198 -0.1173,-0.0396 -0.1757,-0.0596 -0.0767,-0.0225 -0.1533,-0.0471 -0.2296,-0.0737 -0.0748,-0.026 -0.1485,-0.0537 -0.2212,-0.083 -0.4565,-0.1618 -0.9195,-0.3335 -1.3729,-0.5084" /><path
           id="path164"
           style="fill:#000000;fill-opacity:1;fill-rule:nonzero;stroke:none"
           d="m 280.2471,560.1478 c -1.603,2.4336 -3.273,4.7402 -5.0276,6.8796 0.2286,0.3571 0.4488,0.6871 0.695,1.025 0.1592,0.2206 0.3293,0.4495 0.5069,0.6859 1.9491,-2.3303 3.7897,-4.8456 5.5312,-7.4812 -0.0417,-0.025 -0.0828,-0.0506 -0.1235,-0.0766 -0.5482,-0.3261 -1.0877,-0.6914 -1.582,-1.0327" /><path
           id="path166"
           style="fill:#000000;fill-opacity:1;fill-rule:nonzero;stroke:none"
           d="m 268.3619,574.0596 c -0.6812,0.572 -1.3748,1.1187 -2.0817,1.6382 -2.6504,1.9539 -5.4382,3.6049 -8.2311,5.0055 0.4836,0.5007 0.9578,1.0247 1.3901,1.5622 2.731,-1.4009 5.4575,-3.0356 8.0418,-4.9375 0.7109,-0.5246 1.41,-1.0763 2.0974,-1.653 -0.3771,-0.5021 -0.7919,-1.0408 -1.2165,-1.6154" /><path
           id="path168"
           style="fill:#000000;fill-opacity:1;fill-rule:nonzero;stroke:none"
           d="m 248.4509,584.6687 c -3.0832,1.02 -6.0732,1.6782 -9.0271,2.1168 0.3859,0.5608 0.8431,1.1761 1.3046,1.8552 3.0254,-0.5019 6.1082,-1.2384 9.2638,-2.3421 -0.1165,-0.1089 -0.2372,-0.2218 -0.3621,-0.3388 -0.4206,-0.4132 -0.8135,-0.8483 -1.1792,-1.2911" /><path
           id="path170"
           style="fill:#000000;fill-opacity:1;fill-rule:nonzero;stroke:none"
           d="m 228.6341,587.7811 c -4.7155,0.518 -8.998,1.5452 -12.9126,2.1289 -0.6369,0.0962 -1.2655,0.1951 -1.8851,0.2977 0.0177,0.0257 0.0352,0.0517 0.0525,0.0778 0.054,0.0818 0.1052,0.1646 0.1536,0.2483 0.333,0.504 0.6748,1.0216 1.0088,1.5402 0.3206,-0.0493 0.6444,-0.0979 0.9711,-0.1461 4.2728,-0.6373 8.7933,-1.749 13.7328,-2.2054 -0.0249,-0.0379 -0.0498,-0.0759 -0.0747,-0.114 -0.2902,-0.451 -0.5697,-0.9421 -0.7497,-1.275 -0.0964,-0.1786 -0.1957,-0.3631 -0.2967,-0.5524" /><path
           id="path172"
           style="fill:#000000;fill-opacity:1;fill-rule:nonzero;stroke:none"
           d="m 188.6445,601.263 c -1.2505,1.4719 -2.4034,2.9112 -3.2706,4.6537 -0.1323,0.2677 -0.286,0.4646 -0.5047,0.769 -0.8341,1.2261 -2.2275,2.2959 -3.5094,3.186 -0.5249,0.3653 -0.9635,0.7419 -1.4098,1.0665 0.1348,0.2367 0.2645,0.4674 0.3879,0.6909 0.1269,0.2304 0.2411,0.4355 0.3444,0.6177 0.1546,0.0852 0.3052,0.1791 0.4507,0.2818 0.5065,-0.3611 0.9443,-0.7278 1.3617,-1.0135 1.3346,-0.9168 2.9826,-2.1963 4.0337,-3.671 0.2015,-0.2974 0.4381,-0.6406 0.6379,-1.0554 0.6301,-1.3283 1.4424,-2.4379 2.4101,-3.6291 -0.2002,-0.4136 -0.4058,-0.8366 -0.6177,-1.2668 -0.1002,-0.2038 -0.2053,-0.4138 -0.3142,-0.6298" /><path
           id="path174"
           style="fill:#000000;fill-opacity:1;fill-rule:nonzero;stroke:none"
           d="m 138.2729,631.8901 c 0.0156,0.2527 0.005,0.4952 -0.0385,0.6779 v 0 c -0.1227,0.3894 -0.5378,0.6055 -0.9271,0.4828 v 0 c -0.3893,-0.1227 -0.6055,-0.5378 -0.4828,-0.9271 v 0 c 0.1227,-0.3893 0.5378,-0.6055 0.9271,-0.4828 v 0 c 0.3894,0.1227 0.6055,0.5378 0.4828,0.9271 -0.0521,0.1412 -0.4162,0.4982 -0.7936,0.5659 v 0 c -0.4105,-0.0279 -0.7206,-0.3833 -0.6927,-0.7938 v 0 c 0.0279,-0.4105 0.3833,-0.7206 0.7938,-0.6927 v 0 c 0.4105,0.0279 0.7206,0.3833 0.6927,0.7938 v 0 c -0.0279,0.4105 -0.3833,0.7206 -0.7938,0.6927 -0.316,-0.0852 -0.5662,-0.292 -0.6294,-0.3788 v 0 c -0.2267,-0.3472 -0.129,-0.8125 0.2182,-1.0392 v 0 c 0.3473,-0.2267 0.8125,-0.129 1.0392,0.2183 v 0 c 0.2267,0.3472 0.129,0.8124 -0.2182,1.0391 v 0 c -0.3473,0.2267 -0.8125,0.129 -1.0392,-0.2182 -0.1515,-0.2464 -0.2886,-0.6658 -0.371,-1.0689 -0.2569,-1.3419 -0.3222,-3.8008 -0.0552,-5.8616 0.1933,-1.3326 0.9075,-2.7333 1.9898,-3.3612 0.6417,-0.3164 1.5024,-0.3576 2.1397,-0.195 0.985,0.3206 1.8144,1.1436 2.338,2.0405 0.5078,0.8901 0.888,1.9991 1.1782,3.0657 0.2811,1.045 0.475,2.1394 0.5497,3.0321 0.0566,0.573 0.05,1.0927 0.0481,1.4493 0.008,0.1886 0.0176,0.3568 0.0272,0.4792 0.005,0.0609 0.01,0.1101 0.0144,0.1445 0.002,0.0172 0.005,0.0319 0.007,0.0426 0.002,0.0104 0.004,0.0464 -1.5271,0.1536 v 0 c -0.0787,-0.4199 0.1978,-0.8241 0.6177,-0.9028 v 0 c 0.4199,-0.0788 0.8241,0.1978 0.9029,0.6177 v 0 c 0.0787,0.4199 -0.1979,0.8241 -0.6178,0.9028 v 0 c -0.4199,0.0788 -0.8241,-0.1978 -0.9028,-0.6177 -0.0676,-0.3407 -0.0552,-1.0429 -0.0564,-1.7619 0.006,-1.4938 0.2132,-3.6767 0.7937,-5.22 v 0 c 0.1812,-0.4536 0.6959,-0.6743 1.1494,-0.4931 v 0 c 0.4536,0.1813 0.6744,0.6959 0.4931,1.1495 v 0 c -0.1812,0.4535 -0.6959,0.6743 -1.1494,0.493 v 0 c -0.4536,-0.1812 -0.6744,-0.6958 -0.4931,-1.1494 0.415,-0.9844 1.1779,-1.73 1.9313,-2.1009 v 0 c 0.4336,-0.2089 0.9544,-0.0268 1.1633,0.4067 v 0 c 0.2089,0.4335 0.0269,0.9543 -0.4066,1.1632 v 0 c -0.4336,0.209 -0.9544,0.0269 -1.1633,-0.4066 v 0 c -0.2089,-0.4335 -0.0269,-0.9543 0.4066,-1.1633 0.5528,-0.2233 1.1951,-0.3401 1.7694,-0.3774 v 0 c 0.4227,-0.0514 0.807,0.2495 0.8584,0.6722 v 0 c 0.0515,0.4227 -0.2495,0.807 -0.6722,0.8585 v 0 c -0.4226,0.0514 -0.807,-0.2496 -0.8584,-0.6722 v 0 c -0.0515,-0.4227 0.2495,-0.807 0.6722,-0.8585 0.2361,0.0585 0.4791,0.1253 0.7088,0.1984 v 0 c 0.2824,-0.0163 0.5244,0.1993 0.5408,0.4816 v 0 c 0.0163,0.2824 -0.1993,0.5245 -0.4816,0.5408 -0.2059,0.0983 -0.3944,0.2001 -0.5824,0.3099 -0.4839,0.0916 -0.8509,0.2059 -1.1982,0.4166 -0.507,0.2366 -0.7908,0.4957 -1.0456,1.1874 -0.5407,1.2626 -0.7553,3.1834 -0.8028,4.5937 -0.028,0.735 -0.0689,1.367 -0.0568,1.4444 -1.5302,0.1107 -1.5287,0.138 -1.5264,0.1327 0.002,-0.008 0.005,-0.0191 0.007,-0.0358 0.004,-0.0333 0.009,-0.0832 0.0133,-0.1453 0.009,-0.1242 0.0178,-0.2991 0.0282,-0.4926 0.002,-0.3647 0.0108,-0.8026 -0.0398,-1.2974 -0.0971,-0.8181 -0.2981,-1.7835 -0.5928,-2.7556 -0.3034,-1.013 -0.6401,-1.932 -1.0948,-2.6605 -0.4389,-0.7218 -0.8177,-1.1079 -1.4092,-1.2296 -0.3776,-0.1219 -0.6266,-0.1309 -0.9067,0.0359 -0.6262,0.2678 -0.9885,1.0395 -1.13,2.1118 -0.2872,1.9187 -0.258,4.1714 -0.0552,5.357 0.0497,0.3237 0.1064,0.5406 0.1058,0.5266 -0.0268,-0.0309 -0.2422,-0.2052 -0.5278,-0.2883 -0.3471,0.0698 -0.6852,0.3987 -0.7179,0.4776 -0.003,0.0551 0.002,0.03 -0.004,-0.1645 v 0 c -0.0195,-0.4013 0.2901,-0.7423 0.6913,-0.7617 v 0 c 0.4013,-0.0195 0.7423,0.2901 0.7617,0.6913" /><path
           id="path176"
           style="fill:#000000;fill-opacity:1;fill-rule:nonzero;stroke:none"
           d="M 496.6269,492.6149 V 604.654 H 384.5878 V 492.6149 Z m 0.9643,-1.9286 H 383.6235 c -0.5326,0 -0.9643,0.4317 -0.9643,0.9643 v 113.9677 c 0,0.5325 0.4317,0.9642 0.9643,0.9642 h 113.9677 c 0.5326,0 0.9643,-0.4317 0.9643,-0.9642 V 491.6506 c 0,-0.5326 -0.4317,-0.9643 -0.9643,-0.9643" /><path
           id="path178"
           style="fill:#000000;fill-opacity:1;fill-rule:nonzero;stroke:none"
           d="m 397.0356,630.5877 c 0.0332,0.4622 0.051,0.7016 0.0526,0.8251 v 0 c -0.0436,0.4134 -0.414,0.7132 -0.8274,0.6697 v 0 c -0.4134,-0.0435 -0.7132,-0.4139 -0.6697,-0.8273 v 0 c 0.0435,-0.4134 0.4139,-0.7133 0.8273,-0.6698 v 0 c 0.4134,0.0436 0.7133,0.414 0.6698,0.8274 -1.4797,0.136 -1.5118,-0.0253 -1.5236,-0.1115 v 0 c -0.0363,-0.4211 0.2756,-0.7919 0.6967,-0.8283 v 0 c 0.4211,-0.0363 0.7919,0.2756 0.8283,0.6967 v 0 c 0.0364,0.4211 -0.2755,0.7919 -0.6966,0.8283 v 0 c -0.4212,0.0363 -0.792,-0.2756 -0.8284,-0.6967 -0.0113,-0.0822 -0.025,-0.2079 -0.0401,-0.3671 v 0 c -0.0296,-0.4286 0.294,-0.8 0.7226,-0.8295 v 0 c 0.4286,-0.0296 0.8,0.294 0.8296,0.7226 v 0 c 0.0295,0.4286 -0.294,0.8001 -0.7227,0.8296 v 0 c -0.4286,0.0295 -0.8,-0.294 -0.8295,-0.7227 -0.0605,-0.6326 -0.1501,-1.8621 -0.2333,-3.3209 -0.085,-2.0935 -0.0649,-4.5899 -0.1243,-6.4137 -0.0189,-0.8687 -0.0724,-1.5807 -0.1102,-2.1654 -0.0287,-0.5029 -0.0219,-0.8939 -0.0273,-1.113 0.0108,-0.1179 0.0373,-0.0945 0.1393,0.056 0.0963,0.0884 0.6544,0.2071 0.9288,0.054 v 0 c -0.2572,0.2395 -0.6598,0.2253 -0.8993,-0.0318 v 0 c -0.2395,-0.2572 -0.2252,-0.6598 0.0319,-0.8993 v 0 c 0.2571,-0.2395 0.6597,-0.2252 0.8992,0.0319 v 0 c 0.2396,0.2571 0.2253,0.6597 -0.0318,0.8992 0.1161,-0.1585 0.1706,-0.3165 0.1722,-0.3498 v 0 c -0.0494,0.3394 -0.3647,0.5746 -0.7042,0.5252 v 0 c -0.3394,-0.0494 -0.5746,-0.3647 -0.5252,-0.7041 v 0 c 0.0494,-0.3395 0.3647,-0.5747 0.7041,-0.5253 v 0 c 0.3395,0.0494 0.5747,0.3647 0.5253,0.7042 -0.009,-0.0298 -0.0185,-0.0451 -0.0236,0.006 v 0 c 0.0292,0.325 -0.2106,0.6123 -0.5357,0.6415 v 0 c -0.3251,0.0292 -0.6123,-0.2106 -0.6416,-0.5357 v 0 c -0.0292,-0.3251 0.2107,-0.6123 0.5358,-0.6416 v 0 c 0.325,-0.0292 0.6123,0.2107 0.6415,0.5358 0.0141,0.4516 0.0686,1.198 0.3098,1.84 v 0 c 0.1074,0.2616 -0.0175,0.5607 -0.2791,0.6682 v 0 c -0.2616,0.1074 -0.5607,-0.0175 -0.6682,-0.2791 -0.3381,-0.7682 -0.4715,-1.6586 -0.5398,-2.1233 -0.018,-0.0926 -0.0281,-0.2057 -0.0285,-0.2912 0.006,-0.0611 0.0662,-0.2364 0.1767,-0.3898 0.295,-0.1726 0.8621,-0.0511 0.9696,0.0515 0.14,0.1978 0.2197,0.4232 0.2601,0.6269 0.0402,0.2782 0.0632,0.6536 0.1191,1.1099 0.0648,0.5774 0.149,1.3308 0.1974,2.2381 0.0803,1.8621 0.0799,4.3506 0.1833,6.3989 0.0491,1.4503 0.104,2.6646 0.1302,3.2893 0.006,0.1555 0.0108,0.2697 0.0129,0.3424 0.002,0.0686 -0.0218,-0.0233 -1.4985,0.0849 0.007,0.0692 0.008,-0.1329 -0.008,-0.5891 v 0 c -0.0214,-0.4012 0.2864,-0.7438 0.6875,-0.7652 v 0 c 0.4012,-0.0215 0.7438,0.2863 0.7652,0.6874" /><path
           id="path180"
           style="fill:#000000;fill-opacity:1;fill-rule:nonzero;stroke:none"
           d="m 399.3577,629.4708 c -0.0303,0.4969 -0.0377,0.8363 -0.0418,1.0283 v 0 c 0.0124,0.3844 -0.2892,0.7061 -0.6736,0.7185 v 0 c -0.3844,0.0123 -0.7061,-0.2893 -0.7185,-0.6737 v 0 c -0.0123,-0.3844 0.2892,-0.706 0.6737,-0.7184 v 0 c 0.3844,-0.0124 0.706,0.2892 0.7184,0.6736 -0.002,0.0924 -0.005,0.126 -0.0121,0.1054 v 0 c 0.0539,0.3722 -0.2041,0.7176 -0.5762,0.7715 v 0 c -0.3722,0.054 -0.7176,-0.204 -0.7715,-0.5762 v 0 c -0.054,-0.3722 0.204,-0.7176 0.5762,-0.7715 v 0 c 0.3722,-0.0539 0.7176,0.2041 0.7715,0.5762 -0.0238,-0.0915 -1.3448,0.0469 -1.3443,0.0787 v 0 c 0.008,-0.3717 0.3153,-0.6667 0.687,-0.659 v 0 c 0.3717,0.008 0.6667,0.3154 0.659,0.687 v 0 c -0.008,0.3717 -0.3154,0.6668 -0.6871,0.659 v 0 c -0.3717,-0.008 -0.6667,-0.3153 -0.6589,-0.687 0.003,0.005 0.005,-5e-4 0.007,-0.0294 -0.0739,-0.5412 -0.5913,-3.4884 -0.7719,-6.2066 v 0 c -0.0209,-0.4577 0.3332,-0.8458 0.7909,-0.8668 v 0 c 0.4578,-0.021 0.8459,0.3331 0.8668,0.7909 v 0 c 0.021,0.4578 -0.3331,0.8458 -0.7909,0.8668 v 0 c -0.4577,0.021 -0.8458,-0.3331 -0.8668,-0.7909 -0.104,-2.8399 0.1362,-5.3612 0.208,-6.6433 v 0 c 0.0156,-0.4175 0.3666,-0.7433 0.7841,-0.7277 v 0 c 0.4174,0.0155 0.7432,0.3666 0.7277,0.784 v 0 c -0.0156,0.4175 -0.3666,0.7433 -0.7841,0.7277 v 0 c -0.4174,-0.0156 -0.7432,-0.3666 -0.7277,-0.784 0.0507,-0.2633 0.0942,-0.4556 0.127,-0.5945 v 0 c -0.0188,-0.3498 0.2494,-0.6486 0.5992,-0.6674 v 0 c 0.3497,-0.0189 0.6485,0.2494 0.6674,0.5991 v 0 c 0.0188,0.3498 -0.2494,0.6486 -0.5992,0.6675 v 0 c -0.3498,0.0188 -0.6486,-0.2495 -0.6674,-0.5992 0.0346,-0.1323 0.0916,-0.0938 0.2006,0.0186 v 0 c -0.1975,-0.2024 -0.1934,-0.5266 0.009,-0.724 v 0 c 0.2024,-0.1975 0.5266,-0.1935 0.7241,0.009 0.1827,0.188 0.2808,0.4346 0.3329,0.6281 0.0503,0.1869 0.0879,0.4377 0.1182,0.7192 -0.0257,1.3337 -0.2134,3.7734 -0.0621,6.511 0.0645,2.6339 0.4673,5.5458 0.4439,6.2279 0.004,0.0407 0.008,0.0821 0.01,0.1118 -10e-5,0.0568 -1.323,0.1985 -1.3494,0.0888 -0.0123,-0.0569 -0.0235,-0.1451 -0.0323,-0.256 -0.0171,-0.2134 -0.0302,-0.6048 -0.0198,-1.1308 v 0 c 0.016,-0.4014 0.3544,-0.7139 0.7558,-0.6979 v 0 c 0.4014,0.016 0.7139,0.3543 0.6979,0.7557" /><path
           id="path182"
           style="fill:#000000;fill-opacity:1;fill-rule:nonzero;stroke:none"
           d="m 390.2269,634.6996 c -0.0745,0.0425 -0.0472,0.0132 -0.0459,0.031 v 0 c -0.1832,0.3581 -0.6221,0.4999 -0.9802,0.3166 v 0 c -0.3581,-0.1832 -0.4999,-0.6221 -0.3166,-0.9802 v 0 c 0.1832,-0.3581 0.6221,-0.4999 0.9802,-0.3167 v 0 c 0.3581,0.1833 0.4999,0.6222 0.3166,0.9803 -0.0107,-0.003 0.004,-0.1663 0.0115,-0.1976 v 0 c 0.1222,0.3838 -0.0898,0.7941 -0.4737,0.9163 v 0 c -0.3838,0.1223 -0.7941,-0.0898 -0.9163,-0.4736 v 0 c -0.1222,-0.3839 0.0898,-0.7941 0.4736,-0.9164 v 0 c 0.3839,-0.1222 0.7941,0.0898 0.9164,0.4737 -0.0162,-0.008 -0.0757,-0.0838 -0.006,-0.0449 v 0 c 0.3329,0.2278 0.4181,0.6823 0.1903,1.0152 v 0 c -0.2278,0.3329 -0.6824,0.4181 -1.0153,0.1903 v 0 c -0.3329,-0.2278 -0.4181,-0.6823 -0.1903,-1.0152 v 0 c 0.2279,-0.3329 0.6824,-0.4181 1.0153,-0.1903 0.0795,0.0593 0.1644,0.0954 0.3857,0.1444 0.2912,0.0674 0.764,0.0411 1.4749,0.0398 1.2264,-4e-4 2.7482,0.1926 4.2237,-0.0374 2.6557,-0.3439 4.8979,-1.9447 5.9384,-3.893 0.5799,-1.0144 0.7549,-2.1128 0.6638,-3.2164 -0.0691,-1.0165 -0.53,-1.8635 -1.0804,-2.5263 -0.6104,-0.7713 -1.3154,-0.9652 -1.9809,-1.062 -0.3714,-0.0565 -0.5996,-0.0815 -0.6598,-0.0498 0.0604,-0.0246 0.2571,-0.1551 0.3331,-0.2398 0.052,-0.1102 0.0958,-0.3631 0.0898,-0.4509 -0.0568,-0.115 -0.2061,-0.2755 -0.1916,-0.2881 0.3958,0.1971 1.6224,0.054 2.7845,-0.7061 v 0 c 0.379,-0.2348 0.8766,-0.1178 1.1114,0.2612 v 0 c 0.2348,0.379 0.1179,0.8766 -0.2612,1.1114 v 0 c -0.379,0.2348 -0.8766,0.1179 -1.1114,-0.2611 v 0 c -0.2348,-0.3791 -0.1179,-0.8767 0.2612,-1.1115 1.1112,-0.6901 2.0404,-2.3772 2.5974,-3.7556 v 0 c 0.2007,-0.4626 0.7384,-0.675 1.201,-0.4743 v 0 c 0.4627,0.2006 0.675,0.7384 0.4744,1.201 v 0 c -0.2007,0.4626 -0.7384,0.675 -1.201,0.4744 v 0 c -0.4627,-0.2007 -0.6751,-0.7384 -0.4744,-1.2011 0.4078,-0.8675 0.5741,-1.4812 0.6382,-1.9932 v 0 c 0.0367,-0.4593 0.4388,-0.802 0.8981,-0.7653 v 0 c 0.4594,0.0367 0.802,0.4388 0.7653,0.8981 v 0 c -0.0366,0.4594 -0.4387,0.802 -0.8981,0.7654 v 0 c -0.4593,-0.0367 -0.802,-0.4388 -0.7653,-0.8982 0.1382,-0.3531 0.2212,-0.5814 0.2744,-0.7993 v 0 c -0.0695,-0.2741 0.0963,-0.5527 0.3704,-0.6222 v 0 c 0.2741,-0.0696 0.5527,0.0962 0.6222,0.3704 0.1766,0.2681 0.3251,0.6993 0.3964,1.1839 -0.0295,0.6608 -0.2164,1.5692 -0.6262,2.5871 -0.6747,1.4614 -1.9094,3.4664 -3.4227,4.4016 -1.4909,0.8833 -3.309,1.0825 -4.2166,0.7409 -0.2931,-0.1399 -0.6161,-0.5032 -0.7123,-0.8043 -0.0255,-0.1796 0.0323,-0.5204 0.132,-0.7024 0.1236,-0.1566 0.4016,-0.3425 0.5771,-0.3947 0.3627,-0.0699 0.8297,-0.0313 1.2444,0.034 0.8024,0.1307 2.0084,0.5632 2.8965,1.6011 0.6556,0.7931 1.3058,2.0306 1.4389,3.3452 0.1171,1.2951 -0.1165,2.8287 -0.7862,4.102 -1.268,2.2781 -4.0612,4.269 -7.0976,4.7253 -1.6926,0.2156 -3.3447,-0.0125 -4.4623,-0.0373 -0.6853,-0.0153 -1.2894,-0.0107 -1.7911,-0.1279 -0.3287,-0.079 -0.6605,-0.2192 -0.8785,-0.3631 -0.2289,-0.1655 -0.4679,-0.4721 -0.5598,-0.7187 -0.0683,-0.2685 -0.025,-0.6761 0.0818,-0.9083 0.1188,-0.2119 0.3527,-0.4563 0.5594,-0.5934 v 0 c 0.3386,-0.2163 0.7883,-0.1172 1.0046,0.2214 v 0 c 0.2163,0.3385 0.1172,0.7883 -0.2213,1.0046 z" /><path
           id="path184"
           style="fill:#000000;fill-opacity:1;fill-rule:nonzero;stroke:none"
           d="m 408.542,638.6999 c -10e-4,0.0308 -1.4527,0.037 -1.4516,0.0215 v 0 c 0,-0.4 0.3242,-0.7243 0.7242,-0.7243 v 0 c 0.4,0 0.7243,0.3243 0.7243,0.7243 v 0 c 0,0.4 -0.3243,0.7242 -0.7243,0.7242 v 0 c -0.4,0 -0.7242,-0.3242 -0.7242,-0.7242 0.001,-0.0153 0.002,-0.0523 0.003,-0.1078 v 0 c 0,-0.3983 0.3228,-0.7211 0.7211,-0.7211 v 0 c 0.3983,0 0.7211,0.3228 0.7211,0.7211 v 0 c 0,0.3983 -0.3228,0.7211 -0.7211,0.7211 v 0 c -0.3983,0 -0.7211,-0.3228 -0.7211,-0.7211 0.002,-0.1109 0.004,-0.2961 0.006,-0.531 v 0 c 0,-0.3948 0.32,-0.7149 0.7148,-0.7149 v 0 c 0.3948,0 0.7149,0.3201 0.7149,0.7149 v 0 c 0,0.3948 -0.3201,0.7148 -0.7149,0.7148 v 0 c -0.3948,0 -0.7148,-0.32 -0.7148,-0.7148 0.004,-0.47 0.008,-1.1395 0.0125,-1.8151 -0.0118,-0.6436 -0.0181,-1.3073 -0.0354,-1.9014 -0.01,-0.5042 -0.0322,-0.9725 -0.0524,-1.3052 -0.006,-0.1771 -0.0159,-0.314 -0.0235,-0.4105 -0.004,-0.0466 -0.006,-0.0768 -0.008,-0.0962 -7e-4,-0.01 -5e-4,-0.011 -6e-4,-0.0141 v 0 c -0.0511,-0.4092 0.2391,-0.7823 0.6482,-0.8334 v 0 c 0.4092,-0.0512 0.7823,0.239 0.8334,0.6482 v 0 c 0.0512,0.4091 -0.239,0.7822 -0.6482,0.8333 v 0 c -0.4091,0.0512 -0.7822,-0.239 -0.8334,-0.6481 10e-4,0.006 1.481,-0.1844 1.4809,-0.1816 0.0272,0.2755 -0.003,0.5934 0.0425,0.9064 0.0867,0.8584 0.8828,2.2612 1.7543,3.1262 0.281,0.2747 0.5533,0.4476 0.8177,0.5505 0.0219,0.0211 -0.1911,0.0218 -0.2082,8e-4 0.0107,0.002 -0.0138,0.009 0.0434,-0.1269 0.1402,-0.2862 0.2129,-0.7181 0.2323,-1.2295 v 0 c 0.0348,-0.4683 0.4426,-0.8198 0.9109,-0.785 v 0 c 0.4683,0.0347 0.8198,0.4425 0.7851,0.9109 v 0 c -0.0348,0.4683 -0.4426,0.8198 -0.911,0.785 v 0 c -0.4683,-0.0347 -0.8198,-0.4426 -0.785,-0.9109 0.0362,-0.512 -0.0189,-1.0358 -0.0422,-1.5972 v 0 c -0.0156,-0.4771 0.3586,-0.8764 0.8356,-0.8919 v 0 c 0.4771,-0.0156 0.8764,0.3586 0.8919,0.8356 v 0 c 0.0156,0.4771 -0.3586,0.8764 -0.8356,0.8919 v 0 c -0.4771,0.0156 -0.8764,-0.3586 -0.8919,-0.8356 -0.003,-0.5633 0.047,-1.2366 0.288,-1.8159 v 0 c 0.1735,-0.4183 0.6533,-0.6167 1.0716,-0.4432 v 0 c 0.4183,0.1735 0.6167,0.6533 0.4432,1.0716 v 0 c -0.1736,0.4183 -0.6533,0.6167 -1.0716,0.4432 v 0 c -0.4183,-0.1736 -0.6168,-0.6533 -0.4432,-1.0716 0.238,-0.2947 0.5855,-0.6094 0.9626,-0.7965 v 0 c 0.2172,-0.1811 0.5401,-0.1519 0.7212,0.0653 v 0 c 0.1811,0.2171 0.1519,0.54 -0.0653,0.7211 -0.1343,0.2395 -0.1236,0.4071 -0.1037,0.6385 -0.1227,0.2974 -0.107,0.6238 -0.0753,1.1312 0.0116,0.5098 0.0608,1.1282 0.0107,1.7793 -0.065,0.6251 -0.2394,1.3411 -0.5057,1.8401 -0.146,0.2565 -0.4135,0.5655 -0.6844,0.7318 -0.3002,0.1438 -0.8351,0.1718 -1.1734,0.0361 -0.3938,-0.1839 -0.8738,-0.5172 -1.248,-0.8966 -1.026,-1.0291 -2.0124,-2.7552 -2.2004,-3.9618 -0.0582,-0.4646 -0.0292,-0.8495 -0.0454,-0.9172 -0.001,-0.009 1.4781,-0.2015 1.48,-0.1893 8e-4,0.003 0.003,0.0163 0.005,0.0315 0.003,0.0229 0.009,0.0686 0.015,0.1242 0.0116,0.1086 0.0268,0.2826 0.0373,0.4837 0.01,0.3409 0.0215,0.8351 0.0208,1.3583 -0.006,0.6076 -0.0236,1.2772 -0.0354,1.9149 0.004,0.6756 0.008,1.3451 0.0126,1.8151 0.002,0.2349 0.004,0.4201 0.006,0.531 0.001,0.0555 0.002,0.0925 0.003,0.1078 0.001,0.0155 -1.4506,0.009 -1.4517,-0.0215 v 0 c 0,-0.4017 0.3257,-0.7274 0.7274,-0.7274 v 0 c 0.4017,0 0.7274,0.3257 0.7274,0.7274" /><path
           id="path186"
           style="fill:#000000;fill-opacity:1;fill-rule:nonzero;stroke:none"
           d="m 406.9844,568.5466 c 0.5557,3.2796 2.2475,6.4259 4.6667,8.0606 0.0598,0.042 0.0754,0.0514 0.0912,0.0602 0.2555,0.1647 0.5178,0.3119 0.7834,0.4419 0.005,-0.4809 0.02,-1.0131 0.057,-1.5683 -0.0373,-0.0239 -0.0746,-0.0483 -0.1119,-0.0732 -2.0242,-1.3258 -3.4123,-3.8521 -3.9172,-6.6732 -0.0967,-0.0145 -0.193,-0.029 -0.2889,-0.0433 -0.4647,-0.0697 -0.8972,-0.1423 -1.2803,-0.2047" /><path
           id="path188"
           style="fill:#000000;fill-opacity:1;fill-rule:nonzero;stroke:none"
           d="m 409.6005,556.5617 c -1.1479,2.4041 -2.0893,4.7866 -2.5309,7.1263 0.5019,0.0698 1.0202,0.1567 1.5239,0.2359 0.4444,-2.2541 1.4301,-4.5888 2.6495,-7.0288 -0.3678,-0.0629 -0.7394,-0.1338 -1.1125,-0.2137 -0.0679,-0.009 -0.136,-0.0218 -0.2041,-0.0372 -0.0632,-0.0143 -0.1252,-0.031 -0.1861,-0.05 -0.0463,-0.0107 -0.0929,-0.0215 -0.1398,-0.0325" /><path
           id="path190"
           style="fill:#000000;fill-opacity:1;fill-rule:nonzero;stroke:none"
           d="m 408.5601,520.6411 c -0.1727,0.8696 -0.2374,1.767 -0.1919,2.6857 0.0873,1.3162 0.3978,2.6018 0.8293,3.8464 0.0799,-0.0107 0.1317,-0.0171 0.1841,-0.0219 0.0555,-0.005 0.1107,-0.008 0.1656,-0.01 0.5308,-0.0434 1.077,-0.0707 1.6226,-0.0898 -0.474,-1.2624 -0.8052,-2.5397 -0.8622,-3.8336 -0.0419,-0.6612 -0.0249,-1.2929 0.0539,-1.8986 -0.5706,-0.1711 -1.1824,-0.4037 -1.8014,-0.6787" /><path
           id="path192"
           style="fill:#000000;fill-opacity:1;fill-rule:nonzero;stroke:none"
           d="m 416.2695,511.5285 c -0.731,0.4381 -1.4185,0.8786 -2.0687,1.305 -1.5127,1.0093 -2.7407,2.16 -3.6737,3.4216 0.5127,0.2365 0.9425,0.3937 1.3318,0.4862 0.0522,0.008 0.1046,0.0175 0.157,0.0288 0.1167,0.0254 0.2296,0.0588 0.3382,0.0996 0.0613,-0.0371 0.1236,-0.0712 0.1869,-0.1022 0.7295,-0.7933 1.6447,-1.543 2.7582,-2.2639 0.6647,-0.4384 1.3501,-0.8814 2.0706,-1.3157 -0.1849,-0.2361 -0.3655,-0.4774 -0.5375,-0.7228 -0.2044,-0.3062 -0.3916,-0.6189 -0.5628,-0.9366" /><path
           id="path194"
           style="fill:#000000;fill-opacity:1;fill-rule:nonzero;stroke:none"
           d="m 429.3256,506.5856 c -2.4832,0.5895 -5.1428,1.3999 -7.4492,2.2303 -0.4599,0.1663 -0.9066,0.3418 -1.3407,0.5244 0.0476,0.0745 0.0973,0.1491 0.1492,0.2239 0.041,0.0501 0.0803,0.1022 0.1178,0.1563 0.0296,0.0428 0.0577,0.0861 0.0842,0.13 0.2611,0.368 0.5662,0.7394 0.8944,1.1186 0.2511,-0.0996 0.5069,-0.1966 0.7678,-0.2908 2.2264,-0.8067 4.7472,-1.581 7.1366,-2.1557 -0.1501,-0.6161 -0.2759,-1.2828 -0.3601,-1.937" /><path
           id="path196"
           style="fill:#000000;fill-opacity:1;fill-rule:nonzero;stroke:none"
           d="m 445.0242,506.5232 c -1.0821,-0.4957 -2.2138,-0.9303 -3.3527,-1.0972 -1.1327,-0.1335 -2.2143,0.0149 -3.2461,0.0532 -1.2851,0.0106 -2.7363,0.0811 -4.3715,0.2743 0.0555,0.4931 0.1731,1.0798 0.3393,1.7212 0.0122,0.0482 0.0245,0.0959 0.0368,0.143 1.4913,-0.1948 2.8172,-0.2791 4.0282,-0.3128 1.128,-5e-4 2.0622,-0.1024 2.9349,0.0532 0.9992,0.1409 2.0485,0.6037 3.1273,1.1483 0.192,-0.6651 0.357,-1.3505 0.5038,-1.9832" /><path
           id="path198"
           style="fill:#000000;fill-opacity:1;fill-rule:nonzero;stroke:none"
           d="m 453.4876,510.0525 c -1.0588,-0.3878 -2.0594,-0.7694 -2.9427,-1.1019 -0.3676,-0.1359 -0.715,-0.2631 -1.0517,-0.39 -0.1091,0.4393 -0.2295,0.8985 -0.3607,1.3519 -0.007,0.029 -0.0153,0.058 -0.0239,0.087 -0.008,0.0285 -0.0172,0.0567 -0.0265,0.0847 -0.0498,0.1668 -0.1015,0.334 -0.1547,0.5005 0.2881,0.1118 0.5792,0.2227 0.8759,0.3363 0.5754,0.2167 1.2074,0.4566 1.8776,0.7072 0.5475,-0.4621 1.1881,-1.007 1.8067,-1.5757" /><path
           id="path200"
           style="fill:#000000;fill-opacity:1;fill-rule:nonzero;stroke:none"
           d="m 469.9742,546.6373 c -1.6492,-2.8275 -3.8573,-4.6702 -5.4174,-6.6956 -0.4196,-0.5305 -0.6814,-0.9693 -0.8205,-1.3785 -0.1157,-0.0243 -0.2315,-0.0494 -0.3473,-0.0752 -0.56,-0.1264 -1.1217,-0.2697 -1.6619,-0.4162 0.1032,1.0086 0.5251,2.0755 1.2788,3.0688 1.4294,1.8429 3.1293,3.3445 4.5044,5.2829 0.7868,0.0891 1.6195,0.1567 2.4639,0.2138" /><path
           id="path202"
           style="fill:#000000;fill-opacity:1;fill-rule:nonzero;stroke:none"
           d="m 417.7582,574.8 c -0.0779,-0.0125 -0.1592,-0.0125 -0.2413,0.002 -0.1567,0.8953 -0.1726,1.7726 -0.1725,2.641 0.1236,-0.0675 0.2387,-0.1418 0.3419,-0.2218 0.0348,-0.0226 0.0682,-0.0485 0.0996,-0.0777 0.038,-0.0355 0.0714,-0.0741 0.1001,-0.1151 0.1165,-0.1406 0.2177,-0.3086 0.2973,-0.4916 0.4978,-0.1995 0.9289,-0.3868 1.3265,-0.4465 1.5253,-0.2688 3.0868,-0.7591 4.6155,-1.0273 0.2174,-0.0375 0.4337,-0.0746 0.6495,-0.1111 -0.2902,-0.4862 -0.59,-1.0217 -0.8323,-1.5881 -0.0627,-0.0647 -0.0949,-0.0589 -0.1271,-0.0531 -1.642,0.2926 -3.2063,0.7839 -4.612,1.0279 -0.5216,0.0999 -0.9991,0.283 -1.4452,0.4614" /><path
           id="path204"
           style="fill:#000000;fill-opacity:1;fill-rule:nonzero;stroke:none"
           d="m 429.9904,574.3131 c 0.46,-0.0247 0.9317,-0.0401 1.4184,-0.0443 0.856,-0.0115 1.7008,-0.0298 2.5395,-0.0319 -0.0191,-0.1141 -0.0367,-0.2311 -0.0521,-0.3507 -0.0537,-0.4864 -0.0848,-0.995 -0.0932,-1.4843 -0.8161,-2e-4 -1.6226,0.0147 -2.4188,0.0253 -0.8456,0.0151 -1.652,0.0621 -2.4304,0.1319 0.1586,0.2563 0.3373,0.5385 0.5253,0.8511 0.0223,0.0337 0.0439,0.0681 0.0648,0.1033 0.0208,0.0352 0.0407,0.0708 0.0596,0.1066 0.1313,0.2252 0.2609,0.4572 0.3869,0.693" /><path
           id="path206"
           style="fill:#000000;fill-opacity:1;fill-rule:nonzero;stroke:none"
           d="m 438.9661,574.6066 c 1.3161,0.2458 2.642,0.6471 3.9972,1.2943 0.6159,0.2904 1.2079,0.5879 1.7902,0.8793 0.0445,-0.5467 0.1783,-1.206 0.4209,-1.8485 -0.4541,-0.2281 -0.9266,-0.4622 -1.426,-0.6973 -1.7382,-0.8087 -3.4461,-1.2677 -5.12,-1.5241 0.0101,0.1561 0.0244,0.3202 0.0429,0.4933 0.009,0.0486 0.0156,0.0977 0.0212,0.1473 0.005,0.0473 0.009,0.0945 0.0119,0.1414 0.0442,0.2937 0.1492,0.6596 0.2617,1.1143" /><path
           id="path208"
           style="fill:#000000;fill-opacity:1;fill-rule:nonzero;stroke:none"
           d="m 449.6111,578.7677 c 0.9481,0.2376 1.961,0.3814 3.0857,0.3874 0.1119,-6e-4 0.2244,-0.002 0.3374,-0.006 0.0727,-0.1301 0.1585,-0.2553 0.2577,-0.3737 0.3729,-0.4454 0.8725,-0.7221 1.402,-0.8216 -0.01,-0.2506 -0.027,-0.5187 -0.051,-0.799 -0.6594,0.094 -1.3096,0.1354 -1.9529,0.1368 -1.0586,0.0147 -1.9936,-0.1185 -2.8773,-0.3556 -0.0799,0.0409 -0.1621,0.0773 -0.246,0.109 3e-4,0.0387 -3e-4,0.0776 -0.002,0.1167 -0.002,0.0524 -0.006,0.1044 -0.0112,0.1558 -0.01,0.4305 0.0189,0.9203 0.0574,1.4498" /><path
           id="path210"
           style="fill:#000000;fill-opacity:1;fill-rule:nonzero;stroke:none"
           d="m 459.4766,577.5233 c 1.6957,-0.83 3.4385,-2.0217 5.1884,-3.6746 0.4295,-0.4088 0.844,-0.8428 1.2421,-1.291 -0.1806,-0.1931 -0.3788,-0.3963 -0.593,-0.6084 -0.2418,-0.2403 -0.4975,-0.4908 -0.7555,-0.7467 -0.386,0.4423 -0.7886,0.8685 -1.2069,1.2673 -1.3995,1.3449 -2.7401,2.343 -4.0346,3.0709 0.0729,0.6431 0.1311,1.3192 0.1595,1.9825" /><path
           id="path212"
           style="fill:#000000;fill-opacity:1;fill-rule:nonzero;stroke:none"
           d="m 468.8548,568.6721 c 0.3669,-0.5484 0.7024,-1.0706 1.0037,-1.5451 0.6588,-1.0407 1.2854,-2.1351 1.7717,-3.3491 -0.5768,-0.2395 -1.1817,-0.4883 -1.7851,-0.7481 -0.4219,1.0545 -0.9933,2.0265 -1.639,3.056 -0.2353,0.3763 -0.4874,0.7764 -0.7557,1.1909 0.3584,0.3655 0.7635,0.7586 1.1815,1.1725 0.0259,0.0237 0.0515,0.0479 0.0766,0.0729 0.0266,0.0264 0.0525,0.0534 0.0776,0.0807 0.0229,0.023 0.0458,0.0461 0.0687,0.0693" /><path
           id="path214"
           style="fill:#000000;fill-opacity:1;fill-rule:nonzero;stroke:none"
           d="m 472.5867,558.9581 c 0.0161,-1.3988 -0.0505,-2.8292 -0.1671,-4.0708 -0.1071,-1.1419 -0.2891,-2.2531 -0.5405,-3.315 -0.3676,-0.0148 -0.7458,-0.0328 -1.1287,-0.0553 -0.3048,-0.018 -0.6158,-0.0374 -0.9303,-0.0583 0.3019,1.1232 0.5104,2.3191 0.6292,3.6116 0.0865,0.9419 0.1418,1.9704 0.1517,3.0181 0.6102,0.2907 1.2884,0.5794 1.9857,0.8697" /><path
           id="path216"
           style="fill:#000000;fill-opacity:1;fill-rule:nonzero;stroke:none"
           d="m 465.6496,534.0259 c 1.4239,-1.5535 3.3789,-3.151 4.6995,-5.1903 -0.6451,-0.0244 -1.4094,-0.0742 -2.2202,-0.1716 -1.1901,1.48 -2.8278,2.8148 -4.1684,4.3367 -0.1607,0.1827 -0.3162,0.3673 -0.4655,0.5535 0.3164,0.0815 0.6343,0.159 0.9497,0.2293 0.4119,0.0931 0.8145,0.1732 1.2049,0.2424" /><path
           id="path218"
           style="fill:#000000;fill-opacity:1;fill-rule:nonzero;stroke:none"
           d="m 471.8298,524.0351 c 0.0921,-2.0372 -0.2336,-4.4448 -1.4564,-6.4536 -0.4049,0.5197 -0.9547,0.9707 -1.4821,1.2686 0.921,1.5503 1.1065,3.4329 0.9787,5.1396 0.5249,0.033 0.9999,0.0423 1.4162,0.0452 0.1991,10e-4 0.3804,9e-4 0.5436,2e-4" /><path
           id="path220"
           style="fill:#000000;fill-opacity:1;fill-rule:nonzero;stroke:none"
           d="m 466.8836,514.4124 c -1.4311,-0.7986 -3.0679,-1.4074 -4.6215,-1.8395 -1.2036,-0.3213 -2.4304,-0.5507 -3.7051,-0.8709 -0.3962,0.4838 -0.8431,0.9833 -1.3226,1.4467 -0.1026,0.0977 -0.2061,0.195 -0.3102,0.2917 1.7647,0.5189 3.3649,0.7906 4.7878,1.1768 0.3239,0.0841 0.6464,0.1737 0.9655,0.2692 0.0439,-0.002 0.0877,-0.004 0.1313,-0.005 0.0454,-0.005 0.0913,-0.008 0.1375,-0.0101 0.0488,-0.002 0.0974,-0.003 0.1456,-0.002 0.6703,-0.0273 1.3104,-0.0375 1.8548,-0.0619 0.0478,-0.005 0.0961,-0.009 0.1448,-0.0116 0.0511,-0.003 0.102,-0.004 0.1525,-0.003 0.7601,-0.0417 1.1651,-0.1195 1.4671,-0.2223 0.0551,-0.0554 0.1127,-0.1079 0.1725,-0.1574" /><path
           id="path222"
           style="fill:#000000;fill-opacity:1;fill-rule:nonzero;stroke:none"
           d="m 411.3052,531.8689 c 0.3037,0.5935 0.6034,1.1716 0.8837,1.7328 0.5772,1.1466 1.2429,2.2353 1.6837,3.5093 0.3006,0.8337 0.5001,1.7058 0.6122,2.6132 0.5854,0.0706 1.1894,0.1072 1.806,0.1395 -0.0987,-1.1667 -0.3136,-2.301 -0.6634,-3.3579 -0.4992,-1.4518 -1.2131,-2.6627 -1.7437,-3.746 -0.1543,-0.3124 -0.3125,-0.6256 -0.4724,-0.9397 -0.7135,0.0151 -1.4274,0.025 -2.1061,0.0488" /><path
           id="path224"
           style="fill:#000000;fill-opacity:1;fill-rule:nonzero;stroke:none"
           d="m 414.372,544.552 c -0.3859,2.5374 -1.2731,5.0268 -2.5168,7.564 0.5893,0.1111 1.1668,0.1951 1.7224,0.2582 1.2096,-2.5241 2.1081,-5.1019 2.5178,-7.6933 -0.5299,-0.0292 -1.1149,-0.067 -1.7234,-0.1289" /><path
           id="path226"
           style="fill:#000000;fill-opacity:1;fill-rule:nonzero;stroke:none"
           d="m 434.8817,557.4672 c -0.8123,0.5644 -1.9197,0.5261 -2.7022,0.1142 v 0 c -0.3537,-0.1952 -0.4822,-0.6401 -0.287,-0.9938 v 0 c 0.1952,-0.3537 0.6402,-0.4821 0.9939,-0.2869 v 0 c 0.3536,0.1952 0.4821,0.6401 0.2869,0.9938 v 0 c -0.1952,0.3537 -0.6401,0.4821 -0.9938,0.2869 -0.7498,-0.4257 -1.4845,-1.2219 -1.9892,-2.0742 v 0 c -0.205,-0.3507 -0.087,-0.8011 0.2637,-1.0062 v 0 c 0.3506,-0.2051 0.8011,-0.087 1.0062,0.2636 v 0 c 0.205,0.3507 0.087,0.8012 -0.2637,1.0062 v 0 c -0.3506,0.2051 -0.8011,0.087 -1.0062,-0.2636 -0.4301,-0.7355 -0.725,-1.6576 -0.7526,-2.4838 v 0 c -0.007,-0.4137 0.3223,-0.7549 0.736,-0.7622 v 0 c 0.4137,-0.007 0.7549,0.3223 0.7622,0.736 v 0 c 0.007,0.4137 -0.3223,0.755 -0.736,0.7622 v 0 c -0.4137,0.007 -0.755,-0.3222 -0.7622,-0.736 -0.01,-0.834 0.2987,-1.7963 0.9127,-2.4654 1.4292,-1.3933 4.523,-1.8744 6.5143,-1.4522 1.1631,0.2841 2.1645,1.1439 2.6448,2.1328 0.4461,0.9954 0.5241,2.3426 0.1558,3.5605 -0.5103,1.5213 -1.8309,3.0395 -3.3548,3.5405 v 0 c -0.4027,0.1253 -0.8308,-0.0996 -0.9561,-0.5023 v 0 c -0.1253,-0.4027 0.0996,-0.8307 0.5023,-0.956 v 0 c 0.4027,-0.1253 0.8307,0.0995 0.956,0.5022 v 0 c 0.1253,0.4027 -0.0995,0.8307 -0.5022,0.9561 -0.9556,0.244 -2.1779,0.206 -3.0438,-0.1786 v 0 c -0.3257,-0.1343 -0.4808,-0.5071 -0.3465,-0.8328 v 0 c 0.1343,-0.3257 0.5072,-0.4808 0.8329,-0.3464 v 0 c 0.3256,0.1343 0.4807,0.5071 0.3464,0.8328 v 0 c -0.1343,0.3256 -0.5072,0.4808 -0.8328,0.3464 -0.4306,-0.2054 -0.8734,-0.576 -1.1064,-0.9998 v 0 c -0.1579,-0.2755 -0.0625,-0.6268 0.2131,-0.7847 v 0 c 0.2755,-0.1578 0.6268,-0.0624 0.7846,0.2131 v 0 c 0.1579,0.2755 0.0625,0.6268 -0.2131,0.7847 v 0 c -0.2755,0.1578 -0.6268,0.0624 -0.7846,-0.2131 -0.2067,-0.4246 -0.2715,-1.0352 -0.1191,-1.6105 v 0 c 0.0662,-0.2749 0.3428,-0.4441 0.6177,-0.3778 v 0 c 0.2749,0.0662 0.4441,0.3428 0.3779,0.6177 -0.0844,0.4071 -0.0324,0.5947 0.1212,0.799 0.1273,0.2051 0.2883,0.2937 0.5949,0.3921 0.609,0.2238 1.3957,0.1733 2.1037,-0.1004 1.0851,-0.3109 1.9322,-1.3434 2.2844,-2.562 0.3123,-0.9442 0.2683,-1.7178 -0.0697,-2.4142 -0.3037,-0.7028 -0.7485,-1.105 -1.5532,-1.2657 -1.6429,-0.399 -4.1549,-0.0481 -5.0716,0.9802 -0.4092,0.3874 -0.5261,0.7841 -0.5106,1.3776 -0.003,0.6013 0.1774,1.1745 0.5242,1.7674 0.4178,0.7251 0.8958,1.2553 1.4263,1.5361 0.4976,0.2947 0.7379,0.3431 1.118,0.006 v 0 c 0.3205,-0.2422 0.7767,-0.1788 1.0189,0.1416 v 0 c 0.2423,0.3205 0.1789,0.7767 -0.1416,1.0189 z" /><path
           id="path228"
           style="fill:#000000;fill-opacity:1;fill-rule:nonzero;stroke:none"
           d="m 434.0735,562.4687 c -0.2552,-0.1394 -0.499,-0.4255 -0.6045,-0.6384 v 0 c -0.1701,-0.3685 -0.009,-0.8051 0.359,-0.9752 v 0 c 0.3684,-0.1702 0.8051,-0.01 0.9752,0.3589 v 0 c 0.1702,0.3685 0.01,0.8051 -0.359,0.9753 v 0 c -0.3684,0.1701 -0.805,0.009 -0.9752,-0.359 -0.0924,-0.1997 -0.1758,-0.4687 -0.2357,-0.7321 v 0 c -0.0866,-0.4007 0.168,-0.7957 0.5686,-0.8823 v 0 c 0.4007,-0.0867 0.7957,0.1679 0.8824,0.5686 v 0 c 0.0866,0.4007 -0.168,0.7957 -0.5687,0.8823 v 0 c -0.4006,0.0867 -0.7957,-0.1679 -0.8823,-0.5686 -0.1156,-0.5164 -0.2034,-1.2042 -0.2852,-1.9806 v 0 c -0.0411,-0.4162 0.2629,-0.7868 0.679,-0.8279 v 0 c 0.4161,-0.0411 0.7868,0.2628 0.8279,0.6789 v 0 c 0.0411,0.4162 -0.2629,0.7868 -0.679,0.8279 v 0 c -0.4161,0.0411 -0.7868,-0.2628 -0.8279,-0.6789 -0.163,-1.5504 -0.3158,-3.5419 -0.6515,-5.5771 -0.3172,-2.0551 -0.5743,-4.0706 -0.629,-5.5754 0.005,-0.8336 0.0345,-1.5831 0.0935,-2.0742 v 0 c 0.0135,-0.3496 0.3077,-0.622 0.6573,-0.6086 v 0 c 0.3496,0.0135 0.6221,0.3077 0.6086,0.6573 v 0 c -0.0134,0.3496 -0.3077,0.6221 -0.6573,0.6086 v 0 c -0.3496,-0.0134 -0.622,-0.3077 -0.6086,-0.6573 0.03,-0.2492 0.0722,-0.4735 0.129,-0.621 v 0 c 0.0817,-0.3056 0.3957,-0.487 0.7013,-0.4053 v 0 c 0.3055,0.0818 0.487,0.3958 0.4052,0.7013 v 0 c -0.0817,0.3056 -0.3957,0.487 -0.7013,0.4053 v 0 c -0.3056,-0.0818 -0.487,-0.3958 -0.4052,-0.7013 0.0387,-0.0952 0.2244,-0.3444 0.5599,-0.463 v 0 c 0.2989,-0.0194 0.557,0.2071 0.5764,0.5061 v 0 c 0.0194,0.2989 -0.2072,0.5569 -0.5061,0.5764 v 0 c -0.2989,0.0194 -0.557,-0.2072 -0.5764,-0.5061 v 0 c -0.0194,-0.299 0.2072,-0.557 0.5061,-0.5764 0.3303,0.0868 0.5276,0.3124 0.5609,0.411 v 0 c 0.1097,0.2607 -0.0127,0.5609 -0.2734,0.6705 v 0 c -0.2607,0.1097 -0.5609,-0.0127 -0.6705,-0.2734 -0.007,0.004 0.1548,0.185 0.4602,0.2739 0.2968,-0.1162 0.4546,-0.3174 0.4695,-0.3231 0.009,0.0318 0.0184,0.1519 0.0304,0.3737 0.0228,0.4509 0.0736,1.1496 0.1489,1.9611 0.0705,1.425 0.3393,3.3596 0.6746,5.3918 0.3251,2.1036 0.4631,4.1469 0.6044,5.6763 0.0704,0.7633 0.1382,1.3762 0.2293,1.8157 0.0434,0.2149 0.0763,0.3373 0.1188,0.4293 0.0297,0.0798 -0.0603,-0.014 -0.1369,-0.0736 v 0 c 0.3669,0.1637 0.5316,0.5938 0.368,0.9606 v 0 c -0.1637,0.3669 -0.5938,0.5317 -0.9607,0.368 z" /><path
           id="path230"
           style="fill:#000000;fill-opacity:1;fill-rule:nonzero;stroke:none"
           d="m 443.32,562.2107 c -0.2413,0.1514 -0.6711,0.2286 -0.9334,0.1826 v 0 c -0.3946,-0.0922 -0.6397,-0.4869 -0.5474,-0.8814 v 0 c 0.0922,-0.3946 0.4868,-0.6397 0.8814,-0.5475 v 0 c 0.3946,0.0922 0.6397,0.4869 0.5475,0.8815 v 0 c -0.0923,0.3946 -0.4869,0.6397 -0.8815,0.5474 -0.2379,-0.0627 -0.5232,-0.2206 -0.7148,-0.3765 v 0 c -0.3122,-0.2638 -0.3514,-0.7307 -0.0876,-1.0429 v 0 c 0.2638,-0.3122 0.7307,-0.3514 1.0429,-0.0876 v 0 c 0.3122,0.2638 0.3514,0.7307 0.0876,1.0429 v 0 c -0.2638,0.3122 -0.7307,0.3514 -1.0429,0.0876 -0.356,-0.3035 -0.741,-0.8019 -1.0801,-1.3643 v 0 c -0.2118,-0.3577 -0.0936,-0.8194 0.2641,-1.0313 v 0 c 0.3577,-0.2118 0.8194,-0.0936 1.0312,0.2641 v 0 c 0.2118,0.3577 0.0936,0.8194 -0.2641,1.0312 v 0 c -0.3577,0.2119 -0.8194,0.0937 -1.0312,-0.264 -0.6662,-1.1129 -1.3546,-2.7393 -1.8634,-4.4256 -0.775,-2.5983 -1.3548,-5.1349 -0.9891,-7.1863 0.2377,-1.2016 0.9,-2.3703 1.5325,-3.4033 0.3253,-0.5 0.6415,-1.0233 0.9799,-1.4714 0.2371,-0.2536 0.4954,-0.5248 0.7438,-0.6905 v 0 c 0.2683,-0.2334 0.6749,-0.2052 0.9083,0.063 v 0 c 0.2335,0.2683 0.2052,0.6749 -0.063,0.9083 v 0 c -0.2682,0.2334 -0.6749,0.2052 -0.9083,-0.063 v 0 c -0.2334,-0.2682 -0.2052,-0.6749 0.063,-0.9083 0.1361,-0.0861 0.3937,-0.1951 0.6184,-0.2019 v 0 c 0.319,-0.009 0.5852,0.2417 0.5946,0.5608 v 0 c 0.009,0.319 -0.2417,0.5852 -0.5608,0.5946 v 0 c -0.319,0.009 -0.5852,-0.2417 -0.5946,-0.5607 v 0 c -0.009,-0.3191 0.2417,-0.5853 0.5608,-0.5947 0.1167,0.0139 0.3215,0.0852 0.4195,0.1588 v 0 c 0.2462,0.1732 0.3053,0.5131 0.1322,0.7593 v 0 c -0.1732,0.2462 -0.5132,0.3054 -0.7593,0.1322 v 0 c -0.2462,-0.1732 -0.3054,-0.5131 -0.1322,-0.7593 v 0 c 0.1732,-0.2462 0.5131,-0.3054 0.7593,-0.1322 0.0777,0.0739 0.1733,0.203 0.2113,0.2904 v 0 c 0.1363,0.2477 0.046,0.5591 -0.2018,0.6954 v 0 c -0.2478,0.1364 -0.5591,0.046 -0.6954,-0.2017 -0.008,0.003 0.0363,0.0719 0.061,0.109 0.0406,0.0332 0.1859,0.0876 0.2411,0.1034 0.0961,-0.003 0.211,-0.0319 0.1916,0.0176 -0.0638,0.1059 -0.1704,0.3286 -0.3316,0.6271 -0.2675,0.3913 -0.5345,0.8856 -0.851,1.4224 -0.6314,1.0082 -1.1821,1.921 -1.3531,2.8457 -0.3515,1.6798 0.1646,3.8854 0.9151,6.4439 0.4672,1.613 1.0728,3.0857 1.6665,4.0998 0.2908,0.5014 0.5273,0.8234 0.7404,1.0012 0.0925,0.0842 0.0785,0.082 0.0921,0.0776 -0.009,0.0133 -0.2043,0.0522 -0.2358,0.0562 v 0 c 0.3287,-0.2309 0.7824,-0.1517 1.0133,0.177 v 0 c 0.231,0.3287 0.1517,0.7824 -0.177,1.0134" /><path
           id="path232"
           style="fill:#000000;fill-opacity:1;fill-rule:nonzero;stroke:none"
           d="m 444.0766,556.5584 c 0.0223,0.1356 0.0391,0.2477 0.0496,0.3259 v 0 c 0.0338,0.4067 -0.2684,0.7637 -0.675,0.7976 v 0 c -0.4066,0.0338 -0.7637,-0.2684 -0.7975,-0.675 v 0 c -0.0339,-0.4067 0.2684,-0.7637 0.675,-0.7976 v 0 c 0.4066,-0.0338 0.7637,0.2684 0.7975,0.675 0.0107,0.0864 0.009,0.2561 -0.1305,0.6079 v 0 c -0.2445,0.3345 -0.7139,0.4074 -1.0484,0.1629 v 0 c -0.3345,-0.2445 -0.4074,-0.7139 -0.1629,-1.0484 v 0 c 0.2445,-0.3345 0.7139,-0.4074 1.0484,-0.1629 v 0 c 0.3345,0.2445 0.4074,0.7139 0.1629,1.0484 -1.0983,0.1393 -1.3288,-0.1861 -1.3581,-0.2614 v 0 c -0.1297,-0.4001 0.0895,-0.8297 0.4897,-0.9594 v 0 c 0.4001,-0.1297 0.8297,0.0896 0.9594,0.4897 v 0 c 0.1297,0.4002 -0.0896,0.8297 -0.4897,0.9594 v 0 c -0.4002,0.1297 -0.8297,-0.0895 -0.9594,-0.4897 -0.0238,-0.0623 -0.0508,-0.1475 -0.0761,-0.234 -0.098,-0.3359 -0.2387,-0.948 -0.3563,-1.5311 -0.2707,-1.5004 -0.3758,-2.8139 -0.3754,-4.2672 0.005,-0.6152 0.006,-1.4716 0.3781,-2.1948 0.347,-0.5329 1.0217,-0.9567 1.5815,-1.1142 0.6749,-0.1383 1.5168,0.0766 2.0897,0.4488 0.6246,0.4458 1.0371,1.1605 1.3196,1.6103 0.7202,1.1671 1.4509,2.2023 1.9493,3.288 0.1568,0.327 0.3073,0.6368 0.4424,1.031 0.1423,0.3926 0.243,0.8423 0.3483,1.2384 0.0797,0.3176 0.1567,0.6166 0.224,0.8369 0.0242,0.0719 -0.0431,-0.0475 -0.1752,-0.1692 -0.0757,-0.0353 -0.295,-0.08 -0.4301,-0.0736 -0.1393,0.0383 -0.3829,0.1984 -0.4604,0.288 -0.0746,0.1441 -0.1162,0.3445 -0.122,0.376 0.0231,-0.0362 -0.1665,-0.3523 -0.34,-0.7911 -0.1616,-0.4002 -0.3289,-0.8807 -0.4411,-1.4683 -0.1697,-0.9291 -0.1553,-2.1019 -0.1629,-2.9999 v 0 c 0.002,-0.4475 0.3662,-0.8086 0.8137,-0.8067 v 0 c 0.4475,0.002 0.8086,0.3662 0.8067,0.8136 v 0 c -0.002,0.4475 -0.3662,0.8087 -0.8136,0.8068 v 0 c -0.4475,-0.002 -0.8087,-0.3662 -0.8068,-0.8137 0.006,-1.2101 0.0328,-2.3859 0.4383,-3.2248 v 0 c 0.2079,-0.3954 0.6969,-0.5476 1.0924,-0.3398 v 0 c 0.3955,0.2079 0.5477,0.6969 0.3398,1.0924 v 0 c -0.2078,0.3955 -0.6969,0.5477 -1.0924,0.3398 v 0 c -0.3955,-0.2078 -0.5476,-0.6969 -0.3398,-1.0924 0.3858,-0.6738 1.1103,-1.156 1.6811,-1.3336 v 0 c 0.4265,-0.1268 0.8749,0.1162 1.0017,0.5426 v 0 c 0.1268,0.4265 -0.1162,0.875 -0.5427,1.0018 v 0 c -0.4265,0.1267 -0.8749,-0.1162 -1.0017,-0.5427 v 0 c -0.1268,-0.4265 0.1162,-0.875 0.5427,-1.0017 0.6014,-0.0668 1.2806,0.0668 1.6292,0.3643 v 0 c 0.2394,0.1505 0.3114,0.4666 0.1609,0.706 v 0 c -0.1506,0.2394 -0.4667,0.3115 -0.7061,0.1609 -0.0914,0.0209 -0.3081,0.1066 -0.6247,0.3131 -0.3478,0.0954 -0.5642,0.2078 -0.7082,0.542 -0.2523,0.4131 -0.2453,1.2731 -0.2501,2.4791 -0.0153,0.9155 -0.0551,1.9664 0.0715,2.7245 0.0769,0.4894 0.1836,0.8191 0.3206,1.1948 0.1245,0.3358 0.3568,0.763 0.4217,1.2017 0.003,0.131 -0.0511,0.4012 -0.1567,0.5899 -0.0861,0.1024 -0.3465,0.2737 -0.5054,0.3153 -0.1542,0.01 -0.3954,-0.0396 -0.4903,-0.0849 -0.2313,-0.1745 -0.421,-0.4726 -0.4895,-0.7142 -0.0725,-0.2528 -0.1531,-0.5811 -0.23,-0.9037 -0.096,-0.4264 -0.1679,-0.8253 -0.2669,-1.1308 -0.1117,-0.3203 -0.2289,-0.5461 -0.3924,-0.8772 -0.4862,-0.9382 -1.2243,-1.8739 -2.0202,-3.0454 -0.3251,-0.487 -0.5748,-0.9533 -0.892,-1.1153 -0.3586,-0.2291 -0.581,-0.2851 -0.7963,-0.1804 -0.3262,0.0848 -0.4996,0.1809 -0.5565,0.3537 -0.1892,0.2579 -0.1462,0.7212 -0.1493,1.37 -0.0186,1.3914 0.0563,2.5448 0.2984,3.9737 0.0834,0.5653 0.1855,1.14 0.2448,1.444 0.014,0.073 0.0209,0.1134 0.0242,0.1351 -0.003,0.005 -0.2143,-0.2812 -1.31,-0.1458 -0.1221,0.3281 -0.1234,0.4317 -0.1234,0.3905 -2e-4,-0.0507 -0.005,-0.1281 -0.0186,-0.253 v 0 c -0.0541,-0.3981 0.2248,-0.7646 0.6228,-0.8187 v 0 c 0.3981,-0.0541 0.7646,0.2247 0.8187,0.6228" /><path
           id="path234"
           style="fill:#000000;fill-opacity:1;fill-rule:nonzero;stroke:none"
           d="m 452.3922,562.115 c -0.041,0.0397 -0.2121,0.005 -0.2624,0.0354 v 0 c 0.3213,0.019 0.5664,0.2948 0.5475,0.6162 v 0 c -0.019,0.3213 -0.2948,0.5665 -0.6162,0.5475 v 0 c -0.3213,-0.0189 -0.5665,-0.2948 -0.5475,-0.6162 v 0 c 0.0189,-0.3213 0.2948,-0.5664 0.6162,-0.5475 -0.0486,-5e-4 -0.1543,0.0197 -0.0998,-0.0712 v 0 c 0.2573,-0.2488 0.6675,-0.2419 0.9163,0.0153 v 0 c 0.2488,0.2572 0.2419,0.6675 -0.0153,0.9163 v 0 c -0.2573,0.2487 -0.6675,0.2419 -0.9163,-0.0153 v 0 c -0.2488,-0.2573 -0.2419,-0.6675 0.0153,-0.9163 0.0716,-0.0944 0.1334,-0.2204 0.2319,-0.4529 v 0 c 0.1858,-0.3472 0.618,-0.4781 0.9652,-0.2923 v 0 c 0.3472,0.1858 0.4781,0.6179 0.2923,0.9652 v 0 c -0.1858,0.3472 -0.6179,0.4781 -0.9651,0.2923 v 0 c -0.3473,-0.1858 -0.4782,-0.6179 -0.2924,-0.9652 0.2073,-0.4734 0.4003,-1.1461 0.5609,-2.0623 0.2528,-1.1592 0.406,-2.5928 0.4416,-4.1909 v 0 c 0.0139,-0.4815 0.4154,-0.8605 0.8968,-0.8467 v 0 c 0.4814,0.0138 0.8605,0.4153 0.8467,0.8968 v 0 c -0.0139,0.4814 -0.4153,0.8605 -0.8968,0.8466 v 0 c -0.4814,-0.0138 -0.8605,-0.4153 -0.8467,-0.8967 0.0487,-1.3837 -0.0809,-2.8604 -0.3429,-4.1896 v 0 c -0.0929,-0.4605 0.2052,-0.9091 0.6658,-1.0019 v 0 c 0.4605,-0.0929 0.9091,0.2052 1.0019,0.6657 v 0 c 0.0929,0.4606 -0.2052,0.9092 -0.6657,1.002 v 0 c -0.4606,0.0929 -0.9092,-0.2052 -1.002,-0.6658 -0.5189,-2.7202 -1.364,-3.8447 -2.2578,-4.6024 v 0 c -0.338,-0.2815 -0.3839,-0.7837 -0.1025,-1.1217 v 0 c 0.2814,-0.3381 0.7837,-0.384 1.1217,-0.1026 v 0 c 0.3381,0.2815 0.384,0.7837 0.1025,1.1218 v 0 c -0.2814,0.338 -0.7836,0.3839 -1.1217,0.1025 -0.553,-0.5906 -1.1307,-0.9492 -1.6142,-1.3924 v 0 c -0.2331,-0.16 -0.2925,-0.4787 -0.1325,-0.7119 v 0 c 0.16,-0.2332 0.4787,-0.2925 0.7119,-0.1325 0.4897,0.2245 1.2421,0.4667 2.054,1.0125 1.0779,0.8837 2.2775,2.5181 2.9063,5.4905 0.2926,1.4219 0.4528,3.0826 0.4187,4.5759 -0.0583,1.6678 -0.2488,3.2564 -0.5397,4.5113 -0.2666,0.9808 -0.608,1.8136 -0.9487,2.3646 -0.1756,0.2797 -0.3911,0.5456 -0.5882,0.7113 -0.2148,0.1696 -0.5811,0.3183 -0.8698,0.3037 -0.2257,0.0201 -0.5612,-0.1005 -0.7513,-0.2268 v 0 c -0.2685,-0.2988 -0.244,-0.7587 0.0548,-1.0272 v 0 c 0.2988,-0.2685 0.7587,-0.2439 1.0272,0.0549 z" /><path
           id="path236"
           style="fill:#000000;fill-opacity:1;fill-rule:nonzero;stroke:none"
           d="m 293.8579,551.8866 c -0.1139,0.2285 -0.1422,0.3052 -0.1297,0.4107 v 0 c 0.01,0.4012 -0.3072,0.7346 -0.7084,0.7445 v 0 c -0.4013,0.01 -0.7346,-0.3071 -0.7446,-0.7084 v 0 c -0.01,-0.4012 0.3072,-0.7345 0.7084,-0.7445 v 0 c 0.4012,-0.01 0.7346,0.3072 0.7446,0.7084 -0.009,0.0978 -0.0219,0.0667 0.0918,0.1881 v 0 c 0.2605,0.3048 0.2246,0.763 -0.0802,1.0236 v 0 c -0.3048,0.2605 -0.7631,0.2246 -1.0237,-0.0802 v 0 c -0.2605,-0.3048 -0.2246,-0.7631 0.0802,-1.0236 v 0 c 0.3049,-0.2606 0.7631,-0.2247 1.0237,0.0802 0.2416,0.3086 0.8451,0.6423 2.0403,1.1656 v 0 c 0.3666,0.1605 0.5336,0.5879 0.3731,0.9545 v 0 c -0.1605,0.3666 -0.5879,0.5336 -0.9545,0.3731 v 0 c -0.3666,-0.1606 -0.5336,-0.5879 -0.3731,-0.9545 v 0 c 0.1605,-0.3666 0.5879,-0.5336 0.9545,-0.3731 1.8132,0.7806 4.9117,2.0904 9.4198,3.4806 1.6105,0.4891 3.3886,0.9816 5.4483,1.4734 3.268,0.783 7.1488,1.5687 11.1155,2.237 2.6555,0.4505 5.3222,0.8395 7.8506,1.1445 2.4303,0.2967 4.6992,0.492 6.9223,0.6317 2.8531,0.185 5.6148,0.2704 8.2217,0.3013 7.1612,0.0776 12.7808,-0.5751 17.5668,-1.3187 5.2155,-0.8024 9.0282,-1.4379 11.3478,-1.8993 1.0431,-0.2289 1.7377,-0.4566 2.3424,-0.6551 0.2926,-0.0861 0.5208,-0.1372 0.6961,-0.1967 0.3184,-0.104 0.5178,-0.1423 0.5154,-0.1615 -0.1085,0.0807 -0.3234,0.333 -0.3809,0.4567 v 0 c 0.1879,-0.5159 0.7584,-0.7818 1.2743,-0.5939 v 0 c 0.516,0.1879 0.7819,0.7584 0.594,1.2744 v 0 c -0.1879,0.5159 -0.7585,0.7818 -1.2744,0.5939 v 0 c -0.5159,-0.1879 -0.7818,-0.7584 -0.5939,-1.2744 -0.0272,0.1306 -0.0303,0.3785 -0.0149,0.4544 v 0 c -0.133,-0.5258 0.1855,-1.0598 0.7113,-1.1928 v 0 c 0.5258,-0.133 1.0599,0.1855 1.1929,0.7113 v 0 c 0.1329,0.5258 -0.1855,1.0599 -0.7114,1.1929 v 0 c -0.5258,0.1329 -1.0598,-0.1855 -1.1928,-0.7114 0.0608,0.1106 0.2225,0.3029 0.2803,0.349 v 0 c -0.4592,-0.2624 -0.6187,-0.8475 -0.3562,-1.3068 v 0 c 0.2625,-0.4592 0.8475,-0.6187 1.3068,-0.3562 v 0 c 0.4592,0.2625 0.6187,0.8475 0.3562,1.3068 v 0 c -0.2625,0.4592 -0.8475,0.6187 -1.3068,0.3562 -0.0732,-0.3147 -1.3231,-0.2791 -1.9596,-0.1688 v 0 c -0.2616,0.1073 -0.5607,-0.0178 -0.668,-0.2795 v 0 c -0.1073,-0.2616 0.0178,-0.5607 0.2794,-0.668 0.7329,-0.4513 2.3514,-0.815 3.2986,-0.5468 0.2661,0.1651 0.5674,0.5437 0.6733,0.8318 0.0382,0.1663 0.0341,0.5014 -0.0206,0.7078 -0.0855,0.2007 -0.355,0.5182 -0.5491,0.6439 -0.3161,0.1464 -0.6293,0.211 -0.846,0.2784 -0.2706,0.0833 -0.5219,0.1362 -0.7541,0.2018 -0.6148,0.154 -1.415,0.3624 -2.5347,0.5613 -2.3552,0.4623 -6.2029,1.0979 -11.4287,1.896 -4.8262,0.7298 -10.6044,1.3769 -17.8647,1.2815 -2.6242,-0.0319 -5.4325,-0.1195 -8.3149,-0.3069 -2.243,-0.1502 -4.5629,-0.3592 -7.0217,-0.6683 -2.5481,-0.3238 -5.2523,-0.7346 -7.9245,-1.2042 -3.9879,-0.7051 -7.9153,-1.5335 -11.2066,-2.3553 -2.0801,-0.5211 -3.8991,-1.0494 -5.5224,-1.5669 -4.561,-1.4339 -7.7368,-2.8008 -9.5483,-3.6075 -1.2461,-0.5458 -2.0965,-1.0301 -2.5628,-1.5498 -0.2402,-0.2929 -0.4204,-0.741 -0.4409,-1.0954 0.001,-0.3466 0.118,-0.7572 0.2751,-1.0845 v 0 c 0.1761,-0.3611 0.6115,-0.511 0.9726,-0.335 v 0 c 0.3611,0.1761 0.5111,0.6116 0.335,0.9727 z" /><path
           id="path238"
           style="fill:#000000;fill-opacity:1;fill-rule:nonzero;stroke:none"
           d="m 369.5672,565.2656 c -0.2139,0.1527 -0.4202,0.6162 -0.6178,1.0475 v 0 c -0.1641,0.3627 -0.5912,0.5237 -0.954,0.3596 v 0 c -0.3627,-0.1641 -0.5237,-0.5912 -0.3596,-0.954 v 0 c 0.1642,-0.3627 0.5913,-0.5237 0.954,-0.3596 v 0 c 0.3628,0.1642 0.5238,0.5913 0.3596,0.954 -0.089,0.2612 -0.1533,0.4516 -0.1417,0.4966 v 0 c -0.1663,0.4099 -0.6333,0.6073 -1.0431,0.4411 v 0 c -0.4098,-0.1662 -0.6073,-0.6332 -0.441,-1.043 v 0 c 0.1662,-0.4099 0.6332,-0.6073 1.043,-0.4411 v 0 c 0.4098,0.1662 0.6073,0.6332 0.4411,1.043 -0.0658,0.1404 -0.7471,0.5189 -1.2671,0.3378 v 0 c -0.3495,-0.2859 -0.401,-0.801 -0.1151,-1.1505 v 0 c 0.286,-0.3494 0.8011,-0.401 1.1505,-0.115 v 0 c 0.3495,0.2859 0.401,0.801 0.1151,1.1505 v 0 c -0.2859,0.3494 -0.801,0.4009 -1.1505,0.115 -0.2077,-0.2415 -0.2993,-0.4787 -0.3168,-0.5576 -0.0182,-0.1055 -0.018,-0.271 -0.008,-0.3763 0.0195,-0.1722 0.1295,-0.4912 0.2875,-0.7526 0.5912,-0.7822 1.9603,-1.8156 3.4406,-2.7665 2.1645,-1.3529 4.9026,-2.2158 6.3083,-3.004 0.5292,-0.2859 0.7714,-0.454 0.8486,-0.6252 0.1038,-0.179 0.1051,-0.0481 0.06,-0.055 0.0481,-0.1178 -0.5981,-0.3562 -1.3467,-0.704 v 0 c -0.4788,-0.2405 -0.6721,-0.8236 -0.4316,-1.3024 v 0 c 0.2404,-0.4788 0.8235,-0.6721 1.3023,-0.4316 v 0 c 0.4788,0.2404 0.6721,0.8235 0.4317,1.3023 v 0 c -0.2405,0.4788 -0.8235,0.6721 -1.3024,0.4317 -0.7016,-0.3438 -1.3543,-0.5985 -1.9866,-0.8784 v 0 c -0.4995,-0.2284 -0.7193,-0.8186 -0.4909,-1.3182 v 0 c 0.2285,-0.4995 0.8186,-0.7193 1.3182,-0.4909 v 0 c 0.4995,0.2285 0.7193,0.8186 0.4909,1.3182 v 0 c -0.2285,0.4996 -0.8186,0.7193 -1.3182,0.4909 -0.5259,-0.2402 -1.0748,-0.5226 -1.5605,-0.8651 v 0 c -0.4479,-0.3196 -0.5519,-0.9418 -0.2323,-1.3897 v 0 c 0.3196,-0.4479 0.9418,-0.5519 1.3897,-0.2323 v 0 c 0.4479,0.3196 0.5519,0.9418 0.2323,1.3897 v 0 c -0.3196,0.4479 -0.9418,0.5519 -1.3897,0.2323 -0.7541,-0.7455 -1.4057,-1.7895 -1.798,-3.2498 v 0 c -0.1011,-0.2641 0.0311,-0.5601 0.2953,-0.6612 v 0 c 0.2641,-0.101 0.5601,0.0312 0.6611,0.2953 0.6177,1.1801 1.2272,1.6499 1.9992,1.9938 0.3619,0.2623 0.7424,0.4544 1.2303,0.678 0.5839,0.2763 1.2687,0.563 2.0298,0.9533 0.7038,0.3814 1.7343,0.9334 2.1541,1.8125 0.152,0.5216 0.0213,1.172 -0.1742,1.5387 -0.3001,0.5161 -0.8825,1.0004 -1.5097,1.367 -1.6079,0.9122 -4.2654,1.7664 -6.1859,3.0141 -1.4313,0.9032 -2.6061,1.7664 -2.96,2.2664 -0.0843,0.0673 -0.0792,0.0183 -0.0991,0.022 -0.01,-0.0169 -0.013,-0.118 -0.0271,-0.1846 -0.0157,-0.0629 -0.1035,-0.2889 -0.271,-0.4954 -0.5511,-0.2083 -1.2272,0.1665 -1.2882,0.2952 0.0705,-0.1002 0.1839,-0.2699 0.3123,-0.4893 0.1973,-0.4413 0.5268,-1.1287 0.9789,-1.5528 v 0 c 0.3036,-0.263 0.763,-0.2301 1.026,0.0735 v 0 c 0.263,0.3037 0.2301,0.7631 -0.0735,1.0261" /><path
           id="path240"
           style="fill:#000000;fill-opacity:1;fill-rule:nonzero;stroke:none"
           d="m 328.5342,582.4362 c -0.3401,0.7589 -0.9516,1.3428 -1.5468,1.6274 v 0 c -0.4041,0.1692 -0.8688,-0.0212 -1.038,-0.4253 v 0 c -0.1692,-0.4041 0.0213,-0.8688 0.4253,-1.038 v 0 c 0.4041,-0.1692 0.8688,0.0212 1.038,0.4253 v 0 c 0.1692,0.4041 -0.0212,0.8688 -0.4253,1.038 -0.6078,0.2664 -1.3348,0.3559 -1.9768,0.3734 v 0 c -0.4743,-0.004 -0.8558,-0.3916 -0.8519,-0.866 v 0 c 0.004,-0.4744 0.3916,-0.8558 0.866,-0.8519 v 0 c 0.4744,0.004 0.8558,0.3916 0.8519,0.866 v 0 c -0.004,0.4744 -0.3916,0.8558 -0.866,0.8519 -0.4792,0.007 -1.2257,0.1153 -2.0156,-0.1273 v 0 c -0.4679,-0.1706 -0.7088,-0.6882 -0.5381,-1.156 v 0 c 0.1706,-0.4679 0.6882,-0.7088 1.156,-0.5382 v 0 c 0.4679,0.1707 0.7088,0.6882 0.5382,1.1561 v 0 c -0.1707,0.4678 -0.6883,0.7088 -1.1561,0.5381 -1.3674,-0.5655 -2.4701,-2.2345 -2.8983,-3.6283 -0.2114,-0.7588 -0.3384,-1.7457 6e-4,-2.5746 0.5104,-0.9638 1.7562,-1.6353 3.0611,-1.9238 1.2904,-0.2739 2.9109,-0.3158 4.3808,-0.1065 1.2927,0.1974 2.5751,0.7044 3.4709,1.2207 1.0429,0.5963 1.7888,1.5399 1.9594,2.4737 0.0528,0.3147 0.1662,0.9055 -0.008,1.54 -0.5374,1.1867 -2.0396,1.9963 -3.1232,2.5576 -0.886,0.4559 -1.8044,0.8084 -2.5531,1.0304 -0.8521,0.1696 -1.6261,0.2104 -2.0706,0.0983 v 0 c -0.4061,-0.0439 -0.6998,-0.4087 -0.6558,-0.8148 v 0 c 0.0439,-0.4062 0.4087,-0.6998 0.8148,-0.6559 v 0 c 0.4062,0.0439 0.6998,0.4087 0.6559,0.8149 v 0 c -0.0439,0.4061 -0.4088,0.6997 -0.8149,0.6558 -0.1286,-0.035 -0.3379,-0.1175 -0.4788,-0.2222 v 0 c -0.3108,-0.2136 -0.3895,-0.6387 -0.1759,-0.9494 v 0 c 0.2135,-0.3108 0.6386,-0.3895 0.9493,-0.1759 v 0 c 0.3108,0.2136 0.3895,0.6386 0.176,0.9494 v 0 c -0.2136,0.3107 -0.6387,0.3895 -0.9494,0.1759 -0.1514,-0.1534 -0.3071,-0.6014 -0.2535,-0.8299 v 0 c 0.0938,-0.3327 0.4395,-0.5264 0.7722,-0.4326 v 0 c 0.3327,0.0938 0.5263,0.4395 0.4326,0.7722 v 0 c -0.0938,0.3326 -0.4395,0.5263 -0.7722,0.4325 v 0 c -0.3327,-0.0938 -0.5264,-0.4395 -0.4326,-0.7721 0.1546,-0.2636 0.4306,-0.4735 0.7278,-0.6079 v 0 c 0.243,-0.1446 0.5572,-0.0647 0.7018,0.1784 v 0 c 0.1445,0.2431 0.0646,0.5573 -0.1785,0.7018 -0.1869,0.1534 -0.1553,0.1689 -0.0463,0.0673 0.0307,-0.1476 -0.098,-0.5308 -0.1779,-0.635 -0.0694,-0.0556 -0.1626,-0.1051 -0.1351,-0.1232 0.1776,-0.0447 0.6582,-0.1952 1.3662,-0.4838 0.6701,-0.1944 1.4229,-0.479 2.2159,-0.8874 1.0902,-0.5581 2.1658,-1.0621 2.2083,-1.4897 0.0927,-0.1091 0.033,-0.2458 -0.008,-0.6616 -0.007,-0.4475 -0.2251,-0.7402 -1.014,-1.1961 -0.7742,-0.4429 -1.7641,-0.8337 -2.8564,-0.981 -1.3177,-0.1942 -2.6419,-0.1605 -3.7546,0.0842 -1.0983,0.2302 -1.7141,0.5204 -1.825,0.9259 -0.17,0.2927 -0.0593,0.67 0.147,1.3256 0.3169,1.1292 0.9939,2.2404 1.7595,2.4529 0.3411,0.17 0.7808,0.0875 1.4118,0.1036 0.5693,0.0274 0.9784,0.0248 1.35,-0.1188 0.3842,-0.1255 0.5952,-0.2696 0.8388,-0.7743 v 0 c 0.1685,-0.3646 0.6008,-0.5237 0.9654,-0.3552 v 0 c 0.3647,0.1685 0.5238,0.6007 0.3553,0.9654 z" /><path
           id="path242"
           style="fill:#000000;fill-opacity:1;fill-rule:nonzero;stroke:none"
           d="m 327.2956,593.8655 c -0.5273,0.1768 -1.1143,-0.1752 -1.1892,-0.309 v 0 c -0.1685,-0.3759 -4e-4,-0.8171 0.3754,-0.9855 v 0 c 0.3759,-0.1685 0.8171,-4e-4 0.9855,0.3755 v 0 c 0.1685,0.3758 4e-4,0.817 -0.3755,0.9854 v 0 c -0.3758,0.1685 -0.817,4e-4 -0.9854,-0.3754 -0.0484,-0.0995 -0.0943,-0.2329 -0.1266,-0.3471 v 0 c -0.0928,-0.4117 0.1656,-0.8206 0.5772,-0.9134 v 0 c 0.4117,-0.0929 0.8206,0.1656 0.9134,0.5772 v 0 c 0.0929,0.4116 -0.1656,0.8205 -0.5772,0.9134 v 0 c -0.4116,0.0928 -0.8205,-0.1656 -0.9134,-0.5772 -0.061,-0.2175 -0.1256,-0.5405 -0.1886,-0.9262 v 0 c -0.0575,-0.4385 0.2514,-0.8405 0.6898,-0.898 v 0 c 0.4384,-0.0575 0.8405,0.2513 0.898,0.6897 v 0 c 0.0575,0.4385 -0.2513,0.8405 -0.6898,0.898 v 0 c -0.4384,0.0575 -0.8405,-0.2513 -0.898,-0.6897 -0.125,-0.7667 -0.2591,-1.8755 -0.3868,-3.1752 -0.0988,-0.8651 -0.1955,-1.8249 -0.2855,-2.8306 -0.097,-1.3424 -0.1828,-2.7815 -0.2468,-4.2101 v 0 c -0.0183,-0.5609 0.4215,-1.0304 0.9823,-1.0487 v 0 c 0.5608,-0.0183 1.0303,0.4214 1.0487,0.9823 v 0 c 0.0183,0.5608 -0.4215,1.0303 -0.9823,1.0487 v 0 c -0.5608,0.0183 -1.0303,-0.4215 -1.0487,-0.9823 -0.0403,-1.4295 -0.0592,-2.8649 -0.0465,-4.194 v 0 c 0.003,-0.5505 0.4511,-0.9946 1.0016,-0.992 v 0 c 0.5505,0.003 0.9946,0.4511 0.992,1.0016 v 0 c -0.003,0.5505 -0.4511,0.9946 -1.0016,0.992 v 0 c -0.5505,-0.003 -0.9946,-0.4511 -0.992,-1.0016 0.0708,-1.6613 0.1923,-3.1934 0.383,-4.373 v 0 c 0.0482,-0.444 0.4473,-0.7647 0.8912,-0.7165 v 0 c 0.444,0.0483 0.7648,0.4473 0.7165,0.8913 v 0 c -0.0482,0.444 -0.4473,0.7647 -0.8912,0.7165 v 0 c -0.444,-0.0483 -0.7648,-0.4473 -0.7165,-0.8913 0.15,-0.4634 0.3137,-0.8878 0.4876,-1.2277 v 0 c 0.0595,-0.2765 0.3318,-0.4524 0.6083,-0.3929 v 0 c 0.2765,0.0595 0.4523,0.3318 0.3929,0.6083 0.0274,0.3406 0.0691,0.7293 0.1189,1.1871 -0.0598,1.1246 -0.0521,2.5755 0.003,4.2078 10e-5,1.3058 0.0312,2.704 0.0839,4.118 0.0289,1.4148 0.0791,2.8295 0.141,4.1621 0.0293,1.0003 0.0647,1.9463 0.1028,2.8068 0.0776,1.2886 0.1592,2.363 0.2321,3.1051 0.036,0.3688 0.0659,0.6321 0.0914,0.7983 0.0111,0.0778 0.007,0.086 -0.003,0.0736 -0.0362,-0.0475 -0.5869,-0.3672 -1.0807,-0.2173 v 0 c 0.3137,-0.251 0.7715,-0.2001 1.0224,0.1136 v 0 c 0.251,0.3137 0.2001,0.7714 -0.1136,1.0224 z" /></g></g></g></svg>