<?xml version="1.0" encoding="UTF-8" standalone="no"?>
<svg
   xmlns:dc="http://purl.org/dc/elements/1.1/"
   xmlns:cc="http://creativecommons.org/ns#"
   xmlns:rdf="http://www.w3.org/1999/02/22-rdf-syntax-ns#"
   xmlns:svg="http://www.w3.org/2000/svg"
   xmlns="http://www.w3.org/2000/svg"
   viewBox="0 0 423.54507 333.51041"
   height="333.51041"
   width="423.54507"
   xml:space="preserve"
   id="svg2"
   version="1.1"><metadata
     id="metadata8"><rdf:RDF><cc:Work
         rdf:about=""><dc:format>image/svg+xml</dc:format><dc:type
           rdf:resource="http://purl.org/dc/dcmitype/StillImage" /></cc:Work></rdf:RDF></metadata><defs
     id="defs6"><clipPath
       id="clipPath14"
       clipPathUnits="userSpaceOnUse"><path
         id="path12"
         d="M 0,0 H 612 V 792 H 0 Z" /></clipPath><clipPath
       id="clipPath24"
       clipPathUnits="userSpaceOnUse"><path
         id="path22"
         d="m 59.14286,72 h 493.7143 V 720 H 59.14286 Z" /></clipPath></defs><g
     clip-path="url(#clipPath14)"
     transform="matrix(1.3333333,0,0,-1.3333333,-171.348,876.09227)"
     id="g10"><g
       id="g16" /><g
       id="g18"><g
         clip-path="url(#clipPath24)"
         id="g20"><path
           id="path26"
           style="fill:#000000;fill-opacity:1;fill-rule:nonzero;stroke:none"
           d="m 158.8366,616.6877 c 0.0729,0.5118 0.348,0.5351 1.1934,1.0817 v 0 c 0.3262,0.2073 0.4227,0.6399 0.2153,0.9662 v 0 c -0.2073,0.3262 -0.6399,0.4226 -0.9661,0.2153 v 0 c -0.3263,-0.2073 -0.4227,-0.6399 -0.2154,-0.9661 v 0 c 0.2074,-0.3263 0.6399,-0.4227 0.9662,-0.2154 1.2109,0.7464 2.629,2.2162 4.463,3.6204 v 0 c 0.3401,0.2674 0.399,0.7598 0.1317,1.0998 v 0 c -0.2674,0.3401 -0.7598,0.399 -1.0998,0.1317 v 0 c -0.3401,-0.2674 -0.399,-0.7598 -0.1317,-1.0998 v 0 c 0.2674,-0.3401 0.7598,-0.399 1.0998,-0.1317 1.3829,1.0785 3.0657,2.1829 4.9264,3.5353 v 0 c 0.3591,0.2629 0.4371,0.7671 0.1742,1.1263 v 0 c -0.2629,0.3591 -0.7671,0.4371 -1.1262,0.1743 v 0 c -0.3592,-0.2629 -0.4372,-0.7672 -0.1743,-1.1263 v 0 c 0.2629,-0.3592 0.7671,-0.4372 1.1263,-0.1743 1.2916,0.9459 2.6704,2.0241 4.2565,3.2751 1.3365,1.0387 2.7272,2.2515 4.2813,3.4121 1.9001,1.4146 4.1173,2.6951 6.5308,4.0733 2.406,1.3876 5.0352,2.8055 7.8905,4.2678 2.2876,1.1727 4.6532,2.3746 7.1154,3.5403 3.1181,1.4876 6.347,2.912 9.4916,4.1308 2.4055,0.9352 4.7704,1.6968 7.1753,2.4261 9.8249,2.94 19.4742,4.6818 28.5944,4.123 2.2526,-0.1289 4.481,-0.423 6.7561,-0.804 2.8596,-0.4786 5.6855,-1.015 8.4307,-1.8142 3.7761,-1.0923 7.3845,-2.7059 11.1933,-4.445 2.7662,-1.2598 5.6207,-2.6088 8.4785,-3.8989 3.3972,-1.5363 6.8171,-2.8911 10.2912,-4.1743 3.5155,-1.3145 7.1775,-2.508 10.896,-3.5072 1.8757,-0.5007 3.7748,-0.9087 5.65,-1.3118 2.4345,-0.5228 4.8712,-0.983 7.4072,-1.4164 1.9886,-0.3376 4.0549,-0.7271 6.134,-1.0273 8.0031,-1.1534 16.3154,-1.2397 24.3722,-1.4545 1.915,-0.0623 3.8017,-0.1565 5.7525,-0.2386 12.1941,-0.4748 25.0073,-0.8948 36.1209,-3.0112 6.1376,-1.1455 11.9491,-2.7416 16.9948,-4.7939 5.9588,-2.4166 10.8379,-5.6341 15.3594,-9.2789 4.8933,-3.9453 8.8635,-8.5149 11.9303,-13.5902 1.6391,-2.7035 2.9689,-5.4395 4.2897,-8.2466 0.7636,-1.6341 1.5614,-3.2183 2.2434,-4.8329 0.8526,-2.0094 1.4887,-4.1583 2.1327,-6.3164 0.5124,-1.7118 1.0057,-3.3636 1.4324,-5.0187 0.548,-2.099 1.0142,-4.1758 1.3529,-6.3563 1.1066,-7.1224 1.2406,-14.2444 -0.024,-20.4893 -0.77,-3.8695 -2.2129,-7.3159 -4.418,-10.7436 -4.2634,-6.6099 -11.1552,-12.4926 -18.65,-17.5766 -5.9053,-4.0371 -12.4898,-7.5468 -19.0305,-10.9015 -2.1875,-1.1262 -4.327,-2.3187 -6.561,-3.4232 -2.6947,-1.3256 -5.5377,-2.479 -8.2569,-3.6487 -2.2635,-0.957 -4.437,-1.9065 -6.3637,-2.7965 -2.2044,-1.032 -4.1706,-2.0351 -5.9952,-3.302 -1.9353,-1.3709 -3.5947,-3.1572 -5.1902,-4.6786 -2.8625,-2.7564 -5.6021,-4.879 -8.5236,-7.3727 -2.441,-2.0021 -5.2746,-4.181 -8.3682,-6.1124 -7.4633,-4.7831 -16.2896,-7.7277 -27.2376,-8.9802 -7.3573,-0.8501 -15.9648,-0.9933 -25.1466,-0.3341 -4.8682,0.3615 -9.8334,1.1793 -14.7167,2.0288 -8.4525,1.4327 -15.9827,3.1386 -23.3896,5.8339 -4.7856,1.7689 -9.4888,3.9052 -13.8777,6.0501 -4.7376,2.3094 -8.8662,4.7358 -13.1791,7.1479 -6.9898,3.849 -14.9609,7.6645 -22.9897,10.9329 -8.4204,3.4504 -16.2535,6.9136 -24.3595,10.0223 -9.8424,3.7562 -19.5064,7.5669 -27.2812,12.0576 -11.6752,6.6888 -19.0571,16.007 -22.9532,26.0081 -2.8653,7.3445 -3.4614,13.9765 -2.754,20.1535 0.3759,3.5217 1.5957,6.5471 2.9625,9.8896 0.6011,1.4597 1.2411,2.9766 1.8857,4.3317 2.1971,4.6681 4.355,7.7924 6.6925,11.7352 1.9758,3.3092 4.6211,7.1028 7.0934,10.5214 2.193,3.0259 3.9352,5.2757 5.528,7.5901 0.726,1.0603 1.4642,2.3208 2.2419,3.5608 0.4888,0.7732 0.9832,1.5253 1.5132,2.2392 0.5186,0.7221 1.0292,1.3548 1.5961,1.9162 v 0 c 0.4342,0.4185 0.4468,1.1098 0.0282,1.544 v 0 c -0.4186,0.4341 -1.1099,0.4467 -1.544,0.0281 v 0 c -0.4341,-0.4186 -0.4467,-1.1099 -0.0282,-1.544 v 0 c 0.4186,-0.4341 1.1099,-0.4467 1.544,-0.0281 0.4511,0.4509 0.8673,0.7973 1.3485,1.0924 v 0 c 0.5038,0.2996 0.6693,0.9509 0.3697,1.4548 v 0 c -0.2997,0.5038 -0.951,0.6693 -1.4548,0.3696 v 0 c -0.5039,-0.2996 -0.6694,-0.9509 -0.3697,-1.4548 v 0 c 0.2996,-0.5038 0.951,-0.6693 1.4548,-0.3696 0.462,0.3281 0.8684,0.544 1.3817,0.6878 v 0 c 0.5039,0.102 0.8297,0.5932 0.7277,1.097 v 0 c -0.102,0.5039 -0.5932,0.8297 -1.097,0.7277 v 0 c -0.5039,-0.102 -0.8296,-0.5932 -0.7276,-1.097 v 0 c 0.1019,-0.5039 0.5931,-0.8297 1.0969,-0.7277 0.3753,0.2201 0.7394,0.3814 1.2023,0.4761 v 0 c 0.2816,-0.0266 0.5313,0.1801 0.5579,0.4616 v 0 c 0.0266,0.2815 -0.18,0.5313 -0.4616,0.5579 -0.5338,0.1888 -1.1253,0.294 -1.6671,0.3292 -0.7114,-0.1041 -1.4619,-0.3638 -2.0978,-0.6879 -0.6177,-0.3585 -1.2413,-0.8413 -1.78,-1.3453 -0.6696,-0.6309 -1.3172,-1.3865 -1.8945,-2.1452 -0.5659,-0.7669 -1.1049,-1.5889 -1.6034,-2.3805 -0.8023,-1.265 -1.5257,-2.4872 -2.2097,-3.47 -1.5618,-2.2568 -3.2976,-4.4841 -5.5161,-7.5308 -2.4992,-3.4254 -5.212,-7.2859 -7.2504,-10.6614 -2.3427,-3.85 -4.6183,-7.0659 -6.9431,-11.8632 -0.6745,-1.4057 -1.3455,-2.9792 -1.9564,-4.4472 -1.3991,-3.3405 -2.7636,-6.7098 -3.2299,-10.5598 -0.7363,-6.4563 -0.0763,-13.736 2.881,-21.4125 4.018,-10.4152 11.9461,-20.4926 23.9954,-27.5306 7.9657,-4.6169 17.8183,-8.5339 27.6681,-12.3171 8.0412,-3.0737 15.8477,-6.5165 24.3069,-9.9737 7.9341,-3.265 15.7385,-7.0384 22.633,-10.875 4.3062,-2.3598 8.5321,-4.7911 13.3839,-7.1107 4.4466,-2.1199 9.296,-4.2682 14.1922,-6.0291 7.5646,-2.7645 15.3386,-4.5471 23.8602,-6.0091 4.9017,-0.8188 10.0025,-1.6221 14.9953,-1.9618 9.2974,-0.6539 18.1474,-0.4957 25.6443,0.3778 11.1955,1.3168 20.5879,4.4779 28.3293,9.4417 3.148,2.0699 6.0566,4.4118 8.4765,6.506 2.9109,2.4219 5.742,4.5575 8.7282,7.3601 1.6586,1.5714 3.1922,3.2273 4.9196,4.424 1.6737,1.186 3.4427,2.0981 5.6065,3.1267 1.887,0.9087 4.0104,1.8727 6.2475,2.8549 2.6949,1.1625 5.5914,2.3422 8.3617,3.7065 2.2893,1.122 4.4507,2.3155 6.6077,3.415 6.5611,3.3571 13.2776,6.9325 19.2998,11.036 7.5753,5.2006 14.7583,11.4185 19.1983,18.339 2.3093,3.5896 3.9248,7.4323 4.7577,11.5167 1.3047,6.505 1.1734,14.0157 0.0513,21.2932 -0.3478,2.2552 -0.8352,4.4474 -1.3893,6.586 -0.4445,1.6954 -0.9565,3.3875 -1.4755,5.0981 -0.655,2.153 -1.3413,4.4158 -2.2518,6.5399 -0.7222,1.6782 -1.5476,3.295 -2.3068,4.8951 -1.3285,2.8195 -2.7136,5.6598 -4.404,8.4492 -3.1797,5.2315 -7.4063,10.0834 -12.448,14.1499 -4.6033,3.7136 -9.7596,7.1089 -15.9045,9.617 -5.1726,2.1051 -11.1918,3.7654 -17.4181,4.9348 -11.3009,2.079 -24.2664,2.4453 -36.4567,2.8558 -1.9441,0.0591 -3.8413,0.1309 -5.7738,0.171 -8.0732,0.2155 -16.2726,0.2969 -24.1435,1.4361 -2.0369,0.2944 -4.0789,0.6804 -6.0853,1.0217 -2.5201,0.4263 -4.9164,0.8745 -7.3281,1.3882 -1.8765,0.3988 -3.7297,0.7919 -5.5598,1.2765 -3.675,0.9664 -7.2564,2.1134 -10.7402,3.3954 -3.4499,1.2853 -6.8029,2.6244 -10.1547,4.1521 -2.8373,1.2949 -5.6834,2.654 -8.4568,3.9312 -3.8121,1.751 -7.5496,3.4277 -11.4524,4.5718 -2.8359,0.8262 -5.7744,1.389 -8.6552,1.8742 -2.3088,0.3887 -4.6442,0.6983 -6.9699,0.8353 -9.364,0.5132 -19.334,-1.3227 -29.2477,-4.3331 -2.4228,-0.7258 -4.8591,-1.502 -7.319,-2.4481 -3.1875,-1.2308 -6.4825,-2.6788 -9.6285,-4.1742 -2.4804,-1.188 -4.8675,-2.4141 -7.1528,-3.5992 -2.864,-1.4878 -5.5245,-2.9439 -7.945,-4.361 -2.3967,-1.4173 -4.6787,-2.7879 -6.6378,-4.2961 -1.587,-1.2179 -2.9778,-2.4628 -4.2616,-3.4905 -1.5839,-1.2489 -2.9408,-2.3097 -4.2112,-3.2394 -1.8229,-1.344 -3.5141,-2.4728 -4.9424,-3.6043 -1.8804,-1.516 -3.2424,-3.0103 -4.2456,-3.6703 -0.7845,-0.4891 -1.531,-0.906 -1.8503,-1.8956 v 0 c -0.1015,-0.3887 0.1313,-0.7861 0.52,-0.8877 v 0 c 0.3887,-0.1015 0.7861,0.1313 0.8876,0.52 z" /><path
           id="path28"
           style="fill:#000000;fill-opacity:1;fill-rule:nonzero;stroke:none"
           d="m 213.1752,410.6149 c -0.5324,-0.014 -0.9753,0.4062 -0.9893,0.9386 -0.014,0.5324 0.4062,0.9753 0.9385,0.9893 l 188.8117,4.9721 c 0.5324,0.014 0.9753,-0.4062 0.9893,-0.9386 0.0141,-0.5324 -0.4061,-0.9753 -0.9385,-0.9893 z" /><path
           id="path30"
           style="fill:#000000;fill-opacity:1;fill-rule:nonzero;stroke:none"
           d="m 418.6143,421.5467 c 0.0764,0.2437 0.1241,0.3466 0.1555,0.3702 v 0 c 0.1942,0.3771 0.0459,0.8402 -0.3312,1.0344 v 0 c -0.3771,0.1941 -0.8401,0.0458 -1.0343,-0.3313 v 0 c -0.1942,-0.377 -0.0459,-0.8401 0.3312,-1.0343 v 0 c 0.3771,-0.1941 0.8402,-0.0458 1.0343,0.3312 -0.0194,-0.0352 -0.9038,-0.2639 -1.2271,-0.0361 v 0 c 0.2501,-0.3699 0.7527,-0.467 1.1226,-0.2168 v 0 c 0.3699,0.2501 0.467,0.7528 0.2169,1.1227 v 0 c -0.2502,0.3698 -0.7528,0.4669 -1.1227,0.2168 v 0 c -0.3699,-0.2501 -0.467,-0.7528 -0.2168,-1.1227 -0.0772,0.1687 -0.0839,-0.0776 -0.091,-0.6181 v 0 c 0.0184,-0.491 0.4314,-0.8741 0.9224,-0.8557 v 0 c 0.491,0.0184 0.8741,0.4314 0.8557,0.9224 v 0 c -0.0184,0.491 -0.4314,0.8741 -0.9224,0.8557 v 0 c -0.491,-0.0184 -0.8741,-0.4314 -0.8557,-0.9224 -0.0125,-1.0954 -0.0964,-2.9561 -0.1643,-4.8983 0.0141,-2.3849 -0.0169,-4.7958 0.0944,-6.1797 0.0749,-0.5917 0.2625,-1.149 0.5703,-1.4929 v 0 c 0.324,-0.3377 0.8604,-0.349 1.1982,-0.025 v 0 c 0.3377,0.3239 0.3489,0.8604 0.025,1.1982 v 0 c -0.324,0.3377 -0.8604,0.3489 -1.1982,0.025 v 0 c -0.3377,-0.324 -0.3489,-0.8604 -0.025,-1.1982 0.2744,-0.2009 0.9833,-0.2452 1.2592,-0.0689 v 0 c 0.3536,0.257 0.4318,0.7521 0.1748,1.1056 v 0 c -0.2571,0.3536 -0.7521,0.4319 -1.1057,0.1748 v 0 c -0.3536,-0.257 -0.4318,-0.752 -0.1748,-1.1056 v 0 c 0.2571,-0.3536 0.7521,-0.4319 1.1057,-0.1748 0.1714,0.167 0.3311,0.4267 0.4083,0.6378 v 0 c 0.1674,0.3701 0.003,0.8059 -0.3672,0.9733 v 0 c -0.3702,0.1674 -0.806,0.003 -0.9734,-0.3672 v 0 c -0.1673,-0.3702 -0.003,-0.806 0.3673,-0.9734 v 0 c 0.3701,-0.1673 0.8059,-0.003 0.9733,0.3673 0.2451,0.7442 0.4741,2.3264 0.4895,4.726 v 0 c 0.0104,0.2826 -0.2102,0.5202 -0.4928,0.5307 v 0 c -0.2826,0.0104 -0.5201,-0.2102 -0.5306,-0.4928 -0.1596,-2.3244 -0.4976,-3.6756 -0.8067,-4.1579 -0.0613,-0.0953 -0.0393,-0.0362 0.004,0.0385 0.1426,0.0794 0.7279,0.0459 0.8922,-0.0402 0.0875,-0.1144 0.1087,-0.0258 0.1215,0.433 -0.0462,1.2796 0.0464,3.6479 0.0944,6.0515 -0.0404,1.9343 -0.0646,3.8256 -0.1614,4.9799 -0.0493,0.5843 -0.1342,1.0879 -0.3485,1.4585 -0.3906,0.3273 -1.3576,0.0623 -1.4776,-0.169 -0.0679,-0.1693 -0.1374,-0.4199 -0.1983,-0.7097 v 0 c -0.1001,-0.3891 0.1342,-0.7856 0.5232,-0.8857 v 0 c 0.3891,-0.1001 0.7856,0.1342 0.8857,0.5232 z" /><path
           id="path32"
           style="fill:#000000;fill-opacity:1;fill-rule:nonzero;stroke:none"
           d="m 421.5346,420.8625 c 0.2944,0.7557 0.4423,0.9806 0.4188,0.8693 v 0 c 0.384,0.2367 0.5034,0.7399 0.2667,1.1239 v 0 c -0.2368,0.384 -0.74,0.5034 -1.124,0.2667 v 0 c -0.384,-0.2368 -0.5033,-0.74 -0.2666,-1.124 v 0 c 0.2367,-0.384 0.7399,-0.5034 1.1239,-0.2666 -0.1877,-0.0688 -0.7922,0.0624 -0.8958,0.1275 v 0 c 0.2817,-0.3835 0.8209,-0.466 1.2044,-0.1844 v 0 c 0.3834,0.2817 0.466,0.8209 0.1843,1.2044 v 0 c -0.2817,0.3834 -0.8209,0.4659 -1.2043,0.1843 v 0 c -0.3835,-0.2817 -0.466,-0.8209 -0.1844,-1.2043 -0.0265,0.0335 -0.0451,0.0299 -0.0254,-0.135 v 0 c 0.1074,-0.4888 0.5907,-0.7981 1.0795,-0.6907 v 0 c 0.4888,0.1074 0.7981,0.5907 0.6907,1.0796 v 0 c -0.1074,0.4888 -0.5907,0.798 -1.0796,0.6906 v 0 c -0.4888,-0.1073 -0.798,-0.5907 -0.6906,-1.0795 0.1063,-0.7248 0.0858,-2.3599 0.0265,-4.2353 -0.0208,-1.2084 0.006,-2.4342 0.0483,-3.5523 0.1902,-1.5579 0.4129,-2.9383 0.5853,-3.8698 0.0861,-0.4652 0.1591,-0.8054 0.2103,-1.003 v 0 c 0.003,-0.384 0.316,-0.6931 0.7,-0.6905 v 0 c 0.384,0.003 0.6931,0.3159 0.6906,0.6999 v 0 c -0.003,0.384 -0.316,0.6932 -0.7,0.6906 v 0 c -0.384,-0.003 -0.6932,-0.316 -0.6906,-0.7 0.0261,-0.0931 0.0528,-0.0932 0.0868,-0.042 v 0 c -0.1,-0.3273 0.0842,-0.6737 0.4114,-0.7738 v 0 c 0.3273,-0.1001 0.6738,0.0841 0.7738,0.4114 v 0 c 0.1001,0.3273 -0.0841,0.6737 -0.4114,0.7738 v 0 c -0.3272,0.1 -0.6737,-0.0841 -0.7738,-0.4114 0.1206,0.157 0.9611,0.1878 0.9996,0.1094 v 0 c -0.1569,0.2563 -0.4918,0.3369 -0.7481,0.1801 v 0 c -0.2563,-0.1569 -0.337,-0.4918 -0.1801,-0.7481 v 0 c 0.1569,-0.2563 0.4918,-0.337 0.7481,-0.1801 v 0 c 0.2563,0.1569 0.3369,0.4918 0.1801,0.7481 -0.0518,0.0413 -0.2382,0.6583 -0.5824,1.9797 v 0 c -0.0691,0.2743 -0.3474,0.4405 -0.6216,0.3714 v 0 c -0.2742,-0.0692 -0.4405,-0.3475 -0.3714,-0.6217 0.3262,-1.3371 0.5153,-2.0365 0.6463,-2.296 0.0929,-0.1674 0.9707,-0.1382 1.1142,0.093 0.058,0.1298 0.0945,0.2841 0.1191,0.4155 0.0481,0.2526 0.0733,0.6425 0.0871,1.1229 0.0276,0.9598 0.008,2.3328 0.0206,3.8719 -0.084,1.0945 -0.1509,2.2562 -0.1722,3.4214 -0.0601,1.8996 -0.1661,3.6812 -0.4264,4.6239 -0.0719,0.2521 -0.1996,0.5556 -0.356,0.766 -0.2334,0.2418 -0.9884,0.4184 -1.3479,0.2445 -0.374,-0.3275 -0.6692,-0.9276 -0.9372,-1.7815 v 0 c -0.1325,-0.3793 0.0676,-0.7941 0.4468,-0.9266 v 0 c 0.3793,-0.1325 0.7941,0.0675 0.9266,0.4468 z" /><path
           id="path34"
           style="fill:#000000;fill-opacity:1;fill-rule:nonzero;stroke:none"
           d="m 417.6495,422.0489 c 0.182,1.326 -0.2454,1.9659 0.0632,2.4825 v 0 c 0.1613,0.3904 -0.0245,0.8376 -0.4149,0.9988 v 0 c -0.3904,0.1612 -0.8376,-0.0245 -0.9988,-0.4149 v 0 c -0.1613,-0.3904 0.0245,-0.8376 0.4149,-0.9989 v 0 c 0.3904,-0.1612 0.8376,0.0246 0.9988,0.415 0.2064,0.4217 0.6835,0.7783 1.6011,1.1268 v 0 c 0.468,0.2137 0.6742,0.7663 0.4605,1.2343 v 0 c -0.2136,0.468 -0.7662,0.6742 -1.2343,0.4605 v 0 c -0.468,-0.2136 -0.6742,-0.7662 -0.4605,-1.2342 v 0 c 0.2136,-0.4681 0.7662,-0.6742 1.2343,-0.4606 0.9361,0.4018 2.3093,0.6451 3.7058,0.6851 v 0 c 0.5663,0.0302 1.0008,0.5138 0.9706,1.0801 v 0 c -0.0302,0.5663 -0.5138,1.0009 -1.0801,0.9706 v 0 c -0.5663,-0.0302 -1.0009,-0.5138 -0.9706,-1.0801 v 0 c 0.0302,-0.5663 0.5138,-1.0009 1.0801,-0.9706 0.8634,0.0284 1.5161,0.0671 2.016,-0.1254 0.6546,-0.1317 1.0419,-0.6759 1.4154,-1.6569 0.3968,-0.9887 0.5442,-2.1203 0.4764,-3.1959 -0.024,-1.7773 -0.9985,-2.9816 -1.8525,-3.5868 -0.1969,-0.1409 -0.3289,-0.1882 -0.5345,-0.2375 -0.272,-0.0625 -0.3222,-0.0975 -0.2952,-0.0753 0.0103,-0.0262 0.1262,-0.0997 0.1303,-0.0642 -0.005,0.007 0.0248,-0.0824 0.0362,-0.1073 -0.002,-0.0353 -0.0486,-0.2368 -0.0863,-0.329 -0.1392,-0.1197 -0.2887,-0.2083 -0.1182,-0.2167 0.1942,0.003 0.4324,-0.0328 0.7858,-0.1171 0.7215,-0.1662 1.5648,-0.4852 2.3765,-0.954 0.4458,-0.2638 0.8138,-0.5651 1.2063,-0.9551 0.5388,-0.5009 0.9844,-1.0497 1.409,-1.6775 0.4471,-0.6103 0.8075,-1.215 1.1183,-1.8266 v 0 c 0.2681,-0.5525 0.9334,-0.783 1.4859,-0.5149 v 0 c 0.5526,0.2682 0.7831,0.9335 0.5149,1.486 v 0 c -0.2682,0.5525 -0.9335,0.783 -1.486,0.5149 v 0 c -0.5525,-0.2682 -0.783,-0.9335 -0.5148,-1.486 0.2391,-0.4539 0.4249,-0.8602 0.5777,-1.2478 v 0 c 0.194,-0.5538 0.8002,-0.8454 1.354,-0.6514 v 0 c 0.5537,0.194 0.8453,0.8002 0.6513,1.3539 v 0 c -0.194,0.5538 -0.8001,0.8454 -1.3539,0.6514 v 0 c -0.5537,-0.194 -0.8454,-0.8002 -0.6514,-1.3539 0.3091,-0.6227 0.4798,-1.0255 0.5396,-1.1977 v 0 c -0.0287,-0.4464 0.3099,-0.8316 0.7563,-0.8603 v 0 c 0.4465,-0.0288 0.8317,0.3099 0.8604,0.7563 v 0 c 0.0287,0.4464 -0.3099,0.8316 -0.7564,0.8604 v 0 c -0.4464,0.0287 -0.8316,-0.3099 -0.8603,-0.7564 0.0983,-0.0337 0.2026,-0.0172 0.2971,-0.0405 v 0 c -0.0955,-0.2662 0.0428,-0.5594 0.309,-0.6549 v 0 c 0.2662,-0.0955 0.5594,0.0429 0.6549,0.309 0.1253,0.0626 0.249,0.1873 0.3557,0.2823 0.1011,0.4713 0.0339,1.2172 -0.1509,2.0043 -0.1435,0.4581 -0.3461,0.9908 -0.5823,1.5164 -0.323,0.6942 -0.751,1.4678 -1.2348,2.1808 -0.5062,0.6958 -1.1339,1.4163 -1.7989,2.0042 -0.51,0.4265 -1.1181,0.8404 -1.7169,1.1368 -0.982,0.4939 -2.1054,0.8579 -2.9866,1.0089 -0.4479,0.0743 -0.92,0.1044 -1.2781,0.072 -0.3817,-0.0439 -0.9255,-0.2712 -1.233,-0.6417 -0.1208,-0.2164 -0.1992,-0.5707 -0.1911,-0.7689 0.0219,-0.1882 0.1049,-0.4501 0.1887,-0.6066 0.182,-0.2917 0.6175,-0.6518 1.0317,-0.7656 0.4055,-0.0602 0.7901,0.022 1.031,0.0762 0.3154,0.0685 0.7419,0.2236 1.1066,0.4516 1.1781,0.7313 2.6851,2.5538 2.9391,4.8909 0.0914,1.2832 -0.0924,2.8315 -0.5489,4.0811 -0.4798,1.2578 -1.4679,2.5107 -2.7416,2.9734 -0.9086,0.2405 -1.9092,0.1751 -2.7611,0.1118 -1.5421,-0.1169 -3.2229,-0.4914 -4.3701,-1.041 -1.085,-0.5657 -1.933,-1.4149 -2.2409,-2.2376 -0.3968,-1.1914 0.0699,-1.9646 -0.0874,-2.8454 v 0 c -0.0611,-0.397 0.2113,-0.7684 0.6084,-0.8295 v 0 c 0.397,-0.061 0.7684,0.2114 0.8295,0.6084" /><path
           id="path36"
           style="fill:#006fff;fill-opacity:1;fill-rule:nonzero;stroke:none"
           d="m 249.3972,556.8549 c -1.2461,-0.3371 -1.835,-1.3498 -2.6142,-2.6372 v 0 c -0.216,-0.3641 -0.0959,-0.8343 0.2682,-1.0503 v 0 c 0.3641,-0.2159 0.8344,-0.0958 1.0503,0.2683 v 0 c 0.216,0.3641 0.0959,0.8343 -0.2682,1.0503 v 0 c -0.3641,0.2159 -0.8344,0.0958 -1.0503,-0.2683 -1.1208,-1.7877 -3.3845,-4.5668 -5.9179,-9.033 v 0 c -0.2486,-0.4496 -0.0856,-1.0156 0.364,-1.2641 v 0 c 0.4496,-0.2485 1.0156,-0.0855 1.2641,0.3641 v 0 c 0.2485,0.4496 0.0855,1.0155 -0.3641,1.2641 v 0 c -0.4496,0.2485 -1.0155,0.0855 -1.264,-0.3641 -1.8578,-3.312 -3.7872,-7.6212 -5.7652,-12.6746 v 0 c -0.1998,-0.5173 0.0576,-1.0986 0.5749,-1.2983 v 0 c 0.5174,-0.1998 1.0987,0.0576 1.2984,0.5749 v 0 c 0.1998,0.5173 -0.0576,1.0986 -0.575,1.2984 v 0 c -0.5173,0.1998 -1.0986,-0.0577 -1.2983,-0.575 -0.9785,-2.5469 -1.9322,-5.2831 -2.9375,-8.1903 -0.7819,-2.2281 -1.5598,-4.5719 -2.3746,-6.9694 -0.7956,-2.3758 -1.6878,-4.8 -2.5342,-7.2903 -1.431,-4.1617 -2.835,-8.4587 -3.9306,-12.7779 -1.103,-4.2916 -1.7154,-8.65 -2.2617,-12.8523 -0.1229,-0.9726 -0.2434,-1.9503 -0.3551,-2.9116 -0.3768,-3.3067 -0.698,-6.4491 -0.8749,-9.3557 -0.5302,-8.6979 -0.2228,-14.9232 -0.0583,-19.32 0.0786,-1.8705 0.1345,-3.4334 0.2149,-4.6106 v 0 c 0.0391,-0.6171 0.571,-1.0856 1.1881,-1.0465 v 0 c 0.6171,0.0391 1.0856,0.571 1.0465,1.1881 v 0 c -0.0391,0.6171 -0.571,1.0857 -1.1881,1.0465 v 0 c -0.6171,-0.0391 -1.0857,-0.571 -1.0465,-1.1881 0.0821,-1.0761 0.1684,-1.8059 0.2904,-2.3997 v 0 c 0.1076,-0.5857 0.6696,-0.9732 1.2553,-0.8656 v 0 c 0.5856,0.1076 0.9732,0.6696 0.8656,1.2552 v 0 c -0.1076,0.5857 -0.6696,0.9732 -1.2553,0.8656 v 0 c -0.5857,-0.1076 -0.9732,-0.6696 -0.8656,-1.2552 0.1803,-0.7819 0.3817,-1.4002 0.4898,-1.8701 v 0 c 0.0836,-0.5305 0.5814,-0.8928 1.112,-0.8092 v 0 c 0.5305,0.0836 0.8928,0.5814 0.8092,1.112 v 0 c -0.0836,0.5305 -0.5815,0.8928 -1.112,0.8092 v 0 c -0.5305,-0.0836 -0.8928,-0.5815 -0.8092,-1.112 0.2416,-0.529 0.4188,-0.7209 0.3304,-1.0214 v 0 c -0.1776,-0.2201 -0.1432,-0.5424 0.0768,-0.7201 v 0 c 0.2201,-0.1776 0.5424,-0.1432 0.7201,0.0768 0.5369,0.4742 0.7478,1.2551 0.7939,1.9674 -0.0596,0.5939 -0.1942,1.2367 -0.2902,1.9572 -0.079,0.5003 -0.1241,1.1035 -0.1766,2.1515 -0.0664,1.1377 -0.1097,2.6793 -0.1768,4.5574 -0.1782,4.4119 -0.4965,10.502 0.0169,19.097 0.1712,2.8588 0.4847,5.9442 0.8578,9.2387 0.106,0.954 0.2204,1.9212 0.3381,2.8911 0.494,4.1975 1.0349,8.434 2.0625,12.6224 1.0593,4.2566 2.4206,8.4793 3.8289,12.6324 0.8453,2.4642 1.7459,4.8895 2.5584,7.2914 0.8031,2.409 1.564,4.7487 2.3263,6.9654 1.0128,2.902 1.9635,5.6041 2.9386,8.1174 1.9162,5.0313 3.749,9.2458 5.52,12.4979 2.3773,4.4176 4.5071,7.1934 5.6083,9.1509 0.7814,1.3438 0.9386,1.8979 1.6196,2.001 v 0 c 0.3917,0.0895 0.6366,0.4795 0.5472,0.8711 v 0 c -0.0895,0.3916 -0.4795,0.6366 -0.8711,0.5472 z" /><path
           id="path38"
           style="fill:#006fff;fill-opacity:1;fill-rule:nonzero;stroke:none"
           d="m 217.892,446.1231 c -0.0729,0.1218 -0.315,0.3399 -0.541,0.4282 v 0 c -0.398,0.0908 -0.7944,-0.1581 -0.8853,-0.5562 v 0 c -0.0908,-0.398 0.1581,-0.7943 0.5562,-0.8852 v 0 c 0.398,-0.0909 0.7943,0.1581 0.8852,0.5561 v 0 c 0.0909,0.398 -0.1581,0.7944 -0.5561,0.8853 -0.2871,0.0219 -0.7002,-0.1595 -0.8214,-0.2832 v 0 c -0.2611,-0.3223 -0.2113,-0.7953 0.111,-1.0563 v 0 c 0.3224,-0.2611 0.7954,-0.2114 1.0564,0.111 v 0 c 0.2611,0.3224 0.2114,0.7953 -0.111,1.0564 v 0 c -0.3224,0.261 -0.7953,0.2113 -1.0564,-0.1111 -0.1448,-0.1963 -0.2504,-0.4811 -0.293,-0.7021 v 0 c -0.0623,-0.4234 0.2303,-0.8171 0.6537,-0.8794 v 0 c 0.4233,-0.0623 0.817,0.2304 0.8794,0.6537 v 0 c 0.0623,0.4234 -0.2304,0.8171 -0.6538,0.8794 v 0 c -0.4233,0.0623 -0.817,-0.2304 -0.8793,-0.6537 -0.0723,-0.4104 -0.0699,-1.0745 0.0696,-1.7294 0.4788,-1.9056 2.4809,-3.9107 3.8911,-4.8045 0.5441,-0.3133 1.2846,-0.6464 2.0563,-0.5035 0.6129,0.2204 1.1602,0.8037 1.5043,1.3913 0.331,0.577 0.6427,1.3277 0.918,2.0895 0.3491,0.9495 0.6739,1.9878 0.9805,2.9069 0.2375,0.7373 0.4549,1.3768 0.6674,1.8538 v 0 c 0.2129,0.4802 -0.004,1.0422 -0.484,1.2551 v 0 c -0.4802,0.2129 -1.0421,-0.004 -1.255,-0.484 v 0 c -0.2129,-0.4802 0.004,-1.0421 0.4839,-1.255 v 0 c 0.4803,-0.213 1.0422,0.004 1.2551,0.4839 0.0631,0.3243 0.0903,0.53 0.1261,0.6813 v 0 c 0.257,0.3118 0.2126,0.7729 -0.0992,1.0299 v 0 c -0.3118,0.257 -0.7729,0.2125 -1.0299,-0.0993 v 0 c -0.257,-0.3118 -0.2125,-0.7729 0.0993,-1.0299 v 0 c 0.3118,-0.2569 0.7729,-0.2125 1.0298,0.0993 0.0129,0.0756 -0.0322,0.0862 -0.0468,0.1142 v 0 c 0.3002,0.1667 0.4084,0.5453 0.2417,0.8455 v 0 c -0.1668,0.3002 -0.5454,0.4084 -0.8456,0.2416 v 0 c -0.3002,-0.1667 -0.4084,-0.5453 -0.2416,-0.8455 v 0 c 0.1668,-0.3002 0.5453,-0.4084 0.8455,-0.2416 -0.0191,0.038 -0.1481,0.0507 -0.1735,0.0822 v 0 c 0.2785,-0.049 0.544,0.137 0.593,0.4155 v 0 c 0.0491,0.2785 -0.137,0.544 -0.4155,0.5931 -0.1708,0.057 -0.4445,0.0392 -0.6102,-0.005 -0.1565,-0.0508 -0.3454,-0.1707 -0.4761,-0.2694 -0.2513,-0.1972 -0.5108,-0.5151 -0.7359,-0.8406 -0.249,-0.5637 -0.4976,-1.2886 -0.7406,-2.0404 -0.2939,-0.9415 -0.5923,-1.9588 -0.9082,-2.8693 -0.2568,-0.7254 -0.504,-1.3383 -0.7686,-1.7993 -0.2515,-0.4506 -0.3366,-0.5817 -0.4034,-0.5514 -0.0181,-0.0775 -0.0954,0.0436 -0.6101,0.3599 -1.237,0.681 -2.9329,2.237 -3.2504,3.5863 -0.1393,0.4855 -0.1596,0.8586 -0.134,1.113 0.006,0.1119 -0.0201,0.0667 -0.076,-0.0217 -0.0717,-0.0624 -0.4352,-0.219 -0.6717,-0.2086 -0.1754,0.0767 -0.3656,0.2477 -0.3876,0.282 v 0 c 0.2019,-0.3473 0.6471,-0.4652 0.9944,-0.2633 v 0 c 0.3473,0.2019 0.4652,0.6472 0.2633,0.9945 z" /><path
           id="path40"
           style="fill:#006fff;fill-opacity:1;fill-rule:nonzero;stroke:none"
           d="m 212.123,474.1676 c 0.2202,0.7435 0.1146,1.6281 -0.1825,2.3179 v 0 c -0.1883,0.3943 -0.6606,0.5613 -1.0549,0.373 v 0 c -0.3943,-0.1883 -0.5613,-0.6606 -0.373,-1.0549 v 0 c 0.1883,-0.3943 0.6606,-0.5613 1.0549,-0.373 v 0 c 0.3943,0.1883 0.5613,0.6606 0.373,1.0549 -0.3093,0.6806 -0.8571,1.3742 -1.4538,1.9131 v 0 c -0.3598,0.3058 -0.8994,0.262 -1.2051,-0.0978 v 0 c -0.3058,-0.3598 -0.262,-0.8994 0.0978,-1.2052 v 0 c 0.3598,-0.3057 0.8993,-0.2619 1.2051,0.0979 v 0 c 0.3058,0.3598 0.262,0.8993 -0.0978,1.2051 -0.558,0.5208 -1.3674,1.0936 -2.1775,1.2483 v 0 c -0.5311,0.0519 -1.0036,-0.3367 -1.0554,-0.8678 v 0 c -0.0518,-0.5311 0.3367,-1.0036 0.8678,-1.0554 v 0 c 0.5311,-0.0518 1.0036,0.3367 1.0554,0.8678 v 0 c 0.0518,0.5311 -0.3367,1.0036 -0.8678,1.0554 -0.4628,0.0271 -1.1067,-0.1882 -1.4717,-0.4999 -0.3182,-0.3144 -0.6172,-0.8373 -0.781,-1.3515 -0.4203,-1.4564 -0.4221,-3.8246 -0.4564,-6.0714 -0.0374,-1.6869 -0.0581,-3.3322 -0.0614,-4.6794 -0.0103,-1.4837 -0.0306,-2.5703 -0.0459,-3.3725 -0.002,-0.3992 0.003,-0.7452 -0.003,-0.9906 0.0129,-0.2375 0.0459,-0.2069 0.2231,0.1297 v 0 c -0.3599,-0.415 -0.3152,-1.0433 0.0999,-1.4032 v 0 c 0.4151,-0.3599 1.0433,-0.3152 1.4033,0.0999 v 0 c 0.3599,0.4151 0.3151,1.0433 -0.1,1.4032 v 0 c -0.415,0.36 -1.0433,0.3152 -1.4032,-0.0999 0.1269,0.0396 0.4137,0.1444 0.559,0.1252 v 0 c -0.4384,-0.0916 -0.7195,-0.5212 -0.6279,-0.9596 v 0 c 0.0915,-0.4383 0.5211,-0.7195 0.9595,-0.6279 v 0 c 0.4383,0.0916 0.7195,0.5212 0.6279,0.9595 v 0 c -0.0915,0.4384 -0.5211,0.7195 -0.9595,0.628 0.1559,-0.0463 0.3689,-0.1429 0.4061,-0.2236 v 0 c -0.3116,0.1508 -0.6866,0.0203 -0.8374,-0.2913 v 0 c -0.1507,-0.3117 -0.0203,-0.6867 0.2914,-0.8374 v 0 c 0.3117,-0.1508 0.6866,-0.0204 0.8374,0.2913 v 0 c 0.1508,0.3117 0.0203,0.6866 -0.2914,0.8374 0.1048,-0.1488 0.035,-0.0989 -0.1596,0.2344 v 0 c -0.1179,0.257 -0.4219,0.3697 -0.6789,0.2517 v 0 c -0.257,-0.118 -0.3697,-0.422 -0.2518,-0.679 0.1448,-0.4059 0.2961,-0.716 0.539,-0.9333 0.0664,-0.0948 0.3011,-0.1956 0.477,-0.2376 0.1649,-0.0152 0.4695,0.1003 0.6216,0.1697 0.2639,0.4365 0.3285,0.8362 0.3491,1.133 0.001,0.2899 -0.009,0.6442 -0.0116,1.0204 -0.0153,0.7968 -0.0256,1.8888 -0.0459,3.3791 -0.0124,1.3352 -0.008,2.9612 0.0139,4.6389 0.0448,2.2633 0.0453,4.4357 0.4025,5.5338 0.0962,0.3397 0.1423,0.4304 0.2367,0.5033 0.0477,0.0757 -0.116,0.0205 -0.0477,-0.004 0.2981,0.0467 0.7266,-0.2246 1.2571,-0.6282 0.5207,-0.4106 0.8902,-0.8163 1.133,-1.2918 0.2551,-0.4665 0.3365,-0.795 0.2137,-1.2292 v 0 c -0.1123,-0.3857 0.1093,-0.7895 0.495,-0.9018 v 0 c 0.3857,-0.1123 0.7894,0.1093 0.9017,0.495 z" /><path
           id="path42"
           style="fill:#006fff;fill-opacity:1;fill-rule:nonzero;stroke:none"
           d="m 204.5941,466.2286 c -0.2131,0.0994 -0.2435,0.1318 -0.1831,0.118 v 0 c -0.3169,0.2924 -0.8108,0.2726 -1.1032,-0.0443 v 0 c -0.2924,-0.3169 -0.2726,-0.8108 0.0443,-1.1032 v 0 c 0.3169,-0.2924 0.8108,-0.2726 1.1032,0.0443 v 0 c 0.2924,0.3169 0.2726,0.8108 -0.0443,1.1032 0.0596,-0.0566 0.2221,-0.4412 0.2102,-0.7179 v 0 c 0.1227,0.4287 -0.1253,0.8756 -0.554,0.9984 v 0 c -0.4286,0.1227 -0.8756,-0.1253 -0.9983,-0.554 v 0 c -0.1228,-0.4287 0.1253,-0.8757 0.5539,-0.9984 v 0 c 0.4287,-0.1227 0.8757,0.1253 0.9984,0.554 -0.1052,-0.2289 -0.318,-0.4401 -0.3552,-0.4727 v 0 c 0.4182,0.193 0.6008,0.6885 0.4078,1.1067 v 0 c -0.1931,0.4182 -0.6886,0.6008 -1.1068,0.4078 v 0 c -0.4182,-0.193 -0.6007,-0.6885 -0.4077,-1.1068 v 0 c 0.193,-0.4182 0.6885,-0.6007 1.1067,-0.4077 -0.0121,-0.0199 0.3312,-0.0228 0.855,0.01 0.7969,0.0685 1.6915,0.311 2.4245,0.4044 0.3618,0.0717 0.6767,0.1012 1.029,0.1265 0.2348,0.01 0.4742,0.0151 0.7215,0.0266 v 0 c 0.5922,0.0418 1.0384,0.5556 0.9966,1.1477 v 0 c -0.0417,0.5922 -0.5555,1.0384 -1.1477,0.9966 v 0 c -0.5921,-0.0417 -1.0383,-0.5555 -0.9966,-1.1477 v 0 c 0.0417,-0.5921 0.5556,-1.0383 1.1477,-0.9966 0.3626,0.0816 0.7759,0.1824 1.1707,0.3259 v 0 c 0.4882,0.1075 0.7966,0.5905 0.689,1.0786 v 0 c -0.1075,0.4881 -0.5905,0.7966 -1.0786,0.689 v 0 c -0.4881,-0.1076 -0.7966,-0.5905 -0.689,-1.0786 v 0 c 0.1076,-0.4882 0.5905,-0.7966 1.0786,-0.689 0.1328,0.0318 0.2859,0.0737 0.4247,0.1183 v 0 c 0.4743,0.1448 0.7415,0.6467 0.5967,1.121 v 0 c -0.1448,0.4743 -0.6467,0.7414 -1.121,0.5966 v 0 c -0.4743,-0.1448 -0.7414,-0.6466 -0.5966,-1.1209 v 0 c 0.1447,-0.4743 0.6466,-0.7415 1.1209,-0.5967 0.0976,0.1644 0.2059,0.3385 0.2955,0.5132 v 0 c 0.2622,0.1059 0.389,0.4043 0.2832,0.6665 v 0 c -0.1059,0.2622 -0.4043,0.389 -0.6665,0.2832 -0.1579,0.0748 -0.2933,0.1638 -0.4365,0.2547 -0.102,-0.0289 -0.1868,-0.0481 -0.29,-0.0683 -0.3133,-0.0126 -0.5915,0.0172 -0.9297,0.051 -0.224,-0.0217 -0.4585,-0.0386 -0.7117,-0.0611 -0.3783,-0.0225 -0.8249,-0.0616 -1.2836,-0.1445 -0.8495,-0.2038 -1.6867,-0.5171 -2.2763,-0.6312 -0.4953,-0.1009 -0.9745,-0.1922 -1.3087,-0.3607 -0.1177,-0.0697 -0.3798,-0.3223 -0.4982,-0.5974 -0.0252,-0.323 0.16,-0.7588 0.2832,-0.874 0.1875,-0.1311 0.4472,-0.2432 0.7251,-0.3304 v 0 c 0.3755,-0.1427 0.7956,0.046 0.9384,0.4215 v 0 c 0.1427,0.3755 -0.046,0.7956 -0.4215,0.9384 z" /><path
           id="path44"
           style="fill:#000000;fill-opacity:1;fill-rule:nonzero;stroke:none"
           d="m 304.1525,569.3276 c 0.1776,0.0661 0.7277,-0.0327 0.8941,-0.1809 v 0 c -0.2505,0.3164 -0.71,0.3698 -1.0264,0.1194 v 0 c -0.3164,-0.2505 -0.3699,-0.7101 -0.1194,-1.0265 v 0 c 0.2505,-0.3164 0.7101,-0.3698 1.0265,-0.1193 v 0 c 0.3164,0.2505 0.3698,0.71 0.1193,1.0264 0.0779,-0.1243 0.132,-0.2758 0.1385,-0.3016 v 0 c -0.0588,0.4011 -0.4316,0.6785 -0.8327,0.6197 v 0 c -0.4011,-0.0588 -0.6786,-0.4316 -0.6197,-0.8327 v 0 c 0.0588,-0.4011 0.4316,-0.6785 0.8327,-0.6197 v 0 c 0.401,0.0588 0.6785,0.4316 0.6197,0.8327 0.003,-0.0245 0.006,-0.018 0.0117,0.0524 v 0 c 0.0196,0.4085 -0.2956,0.7556 -0.7042,0.7753 v 0 c -0.4085,0.0196 -0.7556,-0.2956 -0.7752,-0.7041 v 0 c -0.0197,-0.4086 0.2956,-0.7557 0.7041,-0.7753 v 0 c 0.4085,-0.0197 0.7556,0.2956 0.7753,0.7041 0.0112,0.1471 0.0384,0.3847 0.0567,0.6472 0.0503,0.2822 0.0583,0.6431 0.0261,0.9295 -0.0465,0.3043 -0.2775,0.7709 -0.6109,1.058 -0.2869,0.1239 -0.7537,0.1425 -0.9624,0.0856 -0.1716,-0.0618 -0.3876,-0.1823 -0.5186,-0.2785 -0.2405,-0.1852 -0.5152,-0.4667 -0.7379,-0.7387 -0.4349,-0.5373 -0.8956,-1.2793 -1.1362,-1.8643 -0.1477,-0.4423 -0.1636,-1.0057 -0.0649,-1.3631 0.1822,-0.5035 0.7084,-0.953 1.116,-1.0968 0.3947,-0.117 0.9253,-0.1459 1.3503,-0.0865 0.8978,0.1461 1.8489,0.722 2.4076,1.3398 0.3623,0.4104 0.6371,0.9787 0.7325,1.3825 0.0477,0.2896 -0.0768,0.7915 -0.2437,1.0329 -0.1868,0.2023 -0.5201,0.3965 -0.7407,0.4709 -0.8308,0.1829 -1.9942,-0.0377 -2.8485,-0.2774 -0.532,-0.1651 -1.0596,-0.4392 -1.4051,-0.681 -0.3434,-0.2824 -0.6689,-0.7978 -0.7503,-1.1935 -0.0262,-0.4405 0.2674,-1.1187 0.6357,-1.396 0.5728,-0.2907 1.3111,-0.2818 1.8585,-0.1832 0.5404,0.1009 1.1182,0.2723 1.5201,0.3954 0.4143,0.1145 0.8187,0.2805 1.0507,0.4141 0.1541,0.1251 0.438,0.7648 0.3656,1.1829 -0.1648,0.269 -0.42,0.4789 -0.5027,0.5212 -0.103,0.0427 -0.2541,0.0833 -0.3279,0.0956 v 0 c -0.5298,0.0783 -1.0229,-0.2876 -1.1012,-0.8175 v 0 c -0.0784,-0.5298 0.2876,-1.0228 0.8174,-1.1012 v 0 c 0.5298,-0.0784 1.0229,0.2876 1.1012,0.8175 v 0 c 0.0784,0.5298 -0.2876,1.0228 -0.8174,1.1012 -0.1012,0.0157 -0.2732,0.0282 -0.424,0.0279 v 0 c -0.5369,-0.006 -0.9674,-0.4456 -0.9617,-0.9824 v 0 c 0.006,-0.5368 0.4456,-0.9674 0.9825,-0.9616 v 0 c 0.5368,0.006 0.9673,0.4456 0.9616,0.9824 v 0 c -0.006,0.5369 -0.4456,0.9674 -0.9824,0.9616 -0.2881,-0.0189 -0.7484,-0.0891 -1.1494,-0.2388 v 0 c -0.4852,-0.1721 -0.7391,-0.7048 -0.5671,-1.19 v 0 c 0.1721,-0.4852 0.7048,-0.7391 1.19,-0.567 v 0 c 0.4852,0.172 0.7391,0.7048 0.567,1.1899 v 0 c -0.172,0.4852 -0.7047,0.7391 -1.1899,0.5671 -0.3344,-0.2717 -0.7401,-0.7028 -0.8914,-1.1838 v 0 c -0.1477,-0.2411 -0.072,-0.5564 0.1691,-0.7041 v 0 c 0.2412,-0.1477 0.5564,-0.072 0.7041,0.1691 0.2019,0.0955 0.3722,0.0204 0.64,-0.0386 0.2034,0.0645 0.3738,0.0645 0.5518,0.0522 0.077,0.002 0.0943,10e-4 0.1034,-7e-4 3e-4,10e-4 -0.1061,0.0303 -0.2073,0.0717 -0.0467,0.0255 -0.2943,0.2296 -0.4567,0.4928 -0.07,0.4123 0.211,1.0462 0.352,1.1626 -0.0277,-0.0385 -0.2082,-0.1302 -0.5127,-0.2307 -0.3981,-0.1153 -0.8802,-0.2544 -1.3156,-0.3269 -0.4283,-0.0749 -0.5817,-0.1023 -0.4729,-0.0857 0.0727,-0.0817 0.2415,-0.4461 0.2757,-0.5411 -0.021,-0.0507 -0.1007,-0.1895 0.002,-0.1507 0.2123,0.1605 0.4439,0.291 0.7947,0.3976 0.7555,0.2558 1.5104,0.4564 1.7787,0.3697 0.0282,0.0128 -0.113,0.1071 -0.1797,0.1748 -0.0468,0.1068 -0.1233,0.4402 -0.1134,0.5308 -0.0132,-0.1693 -0.0832,-0.3601 -0.2769,-0.5805 -0.3595,-0.4245 -0.8283,-0.7216 -1.3588,-0.7736 -0.2575,-0.0357 -0.4135,-0.0241 -0.5657,0.0401 -0.137,0.0375 -0.0155,-0.0899 0.0485,-0.1237 -0.01,0.0723 0.003,0.0589 0.1006,0.211 0.1692,0.4096 0.5075,0.9353 0.8686,1.3599 0.1757,0.2098 0.2983,0.3329 0.4055,0.4038 0.0428,0.0318 -0.0118,0.002 -0.0455,-0.0166 -0.061,-0.01 -0.4035,0.007 -0.5916,0.0743 -0.0912,0.1488 -0.1518,0.2974 -0.0943,0.2019 0.0717,-0.1133 0.1171,-0.2338 0.143,-0.4149 -0.008,-0.2314 -0.0257,-0.4662 -0.0307,-0.6551 -0.002,-0.0982 1e-4,-0.2263 0.0152,-0.3363 0.0129,-0.0691 0.0766,-0.2521 0.1792,-0.4064 0.1692,-0.152 0.7371,-0.2541 0.9374,-0.1756 v 0 c 0.3526,0.1923 0.4826,0.6342 0.2902,0.9869 v 0 c -0.1924,0.3526 -0.6342,0.4826 -0.9869,0.2902 z" /><path
           id="path46"
           style="fill:#000000;fill-opacity:1;fill-rule:nonzero;stroke:none"
           d="m 257.944,493.5643 c 0.1933,0.4075 0.3787,0.8057 0.5387,1.2061 v 0 c 0.1526,0.2951 0.037,0.6581 -0.2581,0.8106 v 0 c -0.2952,0.1526 -0.6581,0.037 -0.8107,-0.2581 v 0 c -0.1526,-0.2952 -0.037,-0.6581 0.2581,-0.8107 v 0 c 0.2952,-0.1525 0.6581,-0.037 0.8107,0.2582 0.6367,1.0299 1.1261,2.2604 1.2436,4.0967 v 0 c 0.005,0.4893 -0.3884,0.8897 -0.8777,0.8942 v 0 c -0.4893,0.005 -0.8896,-0.3884 -0.8941,-0.8777 v 0 c -0.005,-0.4893 0.3884,-0.8896 0.8777,-0.8942 v 0 c 0.4893,-0.005 0.8896,0.3884 0.8941,0.8777 0.056,1.1034 0.0915,2.5618 0.1372,4.5489 v 0 c 0,0.5651 -0.458,1.0231 -1.0231,1.0231 v 0 c -0.5651,0 -1.0231,-0.458 -1.0231,-1.0231 v 0 c 0,-0.5651 0.458,-1.0231 1.0231,-1.0231 v 0 c 0.5651,0 1.0231,0.458 1.0231,1.0231 0.007,1.5987 -0.0613,3.5124 0.0224,5.5702 0.057,1.8184 0.2822,3.7149 0.6927,5.4387 1.2564,5.1757 3.5224,7.1473 7.5835,8.3992 1.46,0.4573 3.0231,0.6828 4.8254,0.975 3.9671,0.6617 8.9183,1.7785 12.6421,3.4048 7.0638,3.1395 10.181,7.7913 11.0066,12.0158 0.8119,4.5793 0.9995,10.0773 0.9491,13.7232 -0.0291,2.8203 0.0218,4.8448 1.0886,7.0696 0.7563,1.6274 1.7785,3.8164 3.6363,6.5022 1.3927,2.0254 3.2155,3.5688 6.083,5.7231 2.3326,1.7616 5.7109,3.9906 9.2712,7.1277 1.4736,1.3285 2.9403,2.8227 4.3429,4.3716 0.8269,0.9254 1.6634,1.8909 2.4878,2.8933 v 0 c 0.3724,0.437 0.3199,1.0932 -0.1172,1.4656 v 0 c -0.4371,0.3723 -1.0933,0.3199 -1.4656,-0.1172 v 0 c -0.3724,-0.4371 -0.3199,-1.0933 0.1172,-1.4657 v 0 c 0.4371,-0.3723 1.0932,-0.3198 1.4656,0.1173 1.1298,1.4017 2.1657,2.9146 3.2265,4.2652 v 0 c 0.316,0.3801 0.2641,0.9443 -0.116,1.2603 v 0 c -0.38,0.316 -0.9443,0.2641 -1.2603,-0.116 v 0 c -0.3159,-0.3801 -0.264,-0.9443 0.1161,-1.2603 v 0 c 0.38,-0.316 0.9443,-0.264 1.2602,0.116 0.7983,1.0122 1.6564,1.9103 2.4555,2.744 v 0 c 0.3135,0.3091 0.3171,0.8138 0.008,1.1272 v 0 c -0.3091,0.3135 -0.8138,0.3171 -1.1273,0.008 v 0 c -0.3135,-0.3091 -0.317,-0.8138 -0.008,-1.1273 v 0 c 0.309,-0.3135 0.8137,-0.317 1.1272,-0.008 2.4337,2.5362 4.0774,3.6259 6.0234,4.5269 v 0 c 0.2616,0.1075 0.3865,0.4067 0.2789,0.6682 v 0 c -0.1075,0.2616 -0.4067,0.3864 -0.6682,0.2789 -2.1001,-0.7623 -4.0939,-1.8546 -6.7533,-4.3387 -0.8477,-0.79 -1.8115,-1.704 -2.7125,-2.7349 -1.1756,-1.3394 -2.2804,-2.7838 -3.4331,-4.0612 -0.8409,-0.9525 -1.6809,-1.8543 -2.5294,-2.7365 -1.4069,-1.4839 -2.8247,-2.8629 -4.2756,-4.1062 -3.4511,-3.0288 -6.7442,-5.1778 -9.1556,-6.979 -2.9177,-2.1905 -5.0322,-4.0043 -6.6184,-6.2701 -1.9641,-2.8203 -3.1092,-5.205 -3.8822,-6.829 -1.2259,-2.6496 -1.3611,-5.2631 -1.3371,-8.1381 0.0167,-3.5771 -0.192,-8.8616 -1.0097,-13.2397 -0.6172,-3.7064 -2.8981,-7.3661 -9.4544,-10.267 -3.4711,-1.564 -8.1619,-2.6457 -12.0528,-3.3253 -1.782,-0.3189 -3.4952,-0.6046 -5.1184,-1.1382 -4.4234,-1.4769 -7.521,-4.3953 -8.8849,-10.0443 -0.4522,-1.8406 -0.7196,-3.9322 -0.7989,-5.8427 -0.0696,-2.1343 0.0149,-4.093 0.0224,-5.6467 0.0457,-1.9928 0.1016,-3.4455 0.1372,-4.5324 0.0851,-1.6497 -0.1193,-2.5441 -0.5406,-3.5607 -0.2178,-0.3305 -0.4567,-0.6533 -0.7206,-1.0156 v 0 c -0.2052,-0.3454 -0.0915,-0.7917 0.2538,-0.9968 v 0 c 0.3454,-0.2052 0.7917,-0.0915 0.9969,0.2538 z" /><path
           id="path48"
           style="fill:#000000;fill-opacity:1;fill-rule:nonzero;stroke:none"
           d="m 224.5067,619.3635 c -0.1712,0.3796 -0.2341,0.595 -0.228,0.7825 v 0 c -0.0173,0.4118 -0.3652,0.7317 -0.777,0.7144 v 0 c -0.4119,-0.0172 -0.7317,-0.3651 -0.7145,-0.7769 v 0 c 0.0173,-0.4119 0.3652,-0.7318 0.777,-0.7145 v 0 c 0.4119,0.0173 0.7317,0.3651 0.7145,0.777 -0.012,0.1609 -0.033,0.0921 0.0609,0.1558 v 0 c 0.2949,0.3028 0.2884,0.7873 -0.0144,1.0822 v 0 c -0.3028,0.2949 -0.7874,0.2885 -1.0823,-0.0143 v 0 c -0.2948,-0.3029 -0.2884,-0.7874 0.0144,-1.0823 v 0 c 0.3029,-0.2949 0.7874,-0.2885 1.0823,0.0144 0.1804,0.2264 0.7492,0.3501 1.9821,0.469 v 0 c 0.4411,0.0476 0.7601,0.4438 0.7125,0.8849 v 0 c -0.0476,0.4411 -0.4438,0.7601 -0.8849,0.7125 v 0 c -0.4411,-0.0476 -0.7601,-0.4438 -0.7125,-0.8849 v 0 c 0.0476,-0.4411 0.4438,-0.7601 0.8849,-0.7125 1.0243,0.0969 2.485,0.1285 4.4109,0.2676 1.9671,0.148 4.3323,0.4926 6.8321,0.7175 1.3031,0.1227 2.6383,0.2414 3.9283,0.3122 2.7497,0.1428 5.1638,0.0221 7.6107,-0.3714 3.6061,-0.5544 7.4511,-1.5408 11.2085,-2.9062 2.2898,-0.8365 4.5087,-1.6819 6.4544,-2.7661 1.278,-0.7034 2.3808,-1.5429 3.4182,-2.3762 2.7675,-2.2212 4.8025,-3.9495 6.6142,-6.0562 4.6708,-5.4669 6.3853,-11.9711 6.9355,-17.7084 0.3789,-4.0242 0.6281,-7.3412 2.3992,-9.4929 0.7718,-0.8607 1.879,-1.4175 2.9148,-1.8601 1.0786,-0.4572 2.3962,-0.9851 3.7735,-1.5401 2.5837,-1.0432 4.5204,-1.8918 6.682,-3.1902 1.4418,-0.8735 2.8425,-2.1415 4.0325,-4.1378 0.369,-0.6031 0.6994,-1.2026 0.9974,-1.9081 0.6136,-1.4401 0.8945,-3.3348 1.3402,-5.3269 0.4277,-1.9664 1.0269,-3.9009 1.6068,-5.8863 0.2977,-0.9793 0.6473,-1.9149 0.9465,-2.9004 0.6312,-2.0946 0.9916,-4.5761 1.5753,-6.9626 0.2916,-1.1382 0.611,-2.284 0.9921,-3.4033 0.4958,-1.4641 1.1859,-2.8589 1.9155,-4.3539 2.2829,-4.7638 5.3437,-10.9052 8.7931,-16.4302 v 0 c 0.3122,-0.4973 0.9684,-0.6473 1.4656,-0.3352 v 0 c 0.4973,0.3122 0.6473,0.9684 0.3352,1.4656 v 0 c -0.3122,0.4973 -0.9684,0.6473 -1.4656,0.3352 v 0 c -0.4973,-0.3122 -0.6473,-0.9684 -0.3352,-1.4656 1.7172,-2.735 3.5158,-5.3709 5.4411,-7.7785 v 0 c 0.3672,-0.4587 1.0367,-0.533 1.4954,-0.1659 v 0 c 0.4587,0.3672 0.533,1.0367 0.1659,1.4954 v 0 c -0.3671,0.4588 -1.0366,0.533 -1.4954,0.1659 v 0 c -0.4587,-0.3671 -0.533,-1.0366 -0.1659,-1.4954 1.9614,-2.4255 4.171,-4.5637 6.3741,-6.352 v 0 c 0.4366,-0.3577 1.0805,-0.2938 1.4383,0.1428 v 0 c 0.3577,0.4366 0.2937,1.0806 -0.1429,1.4383 v 0 c -0.4366,0.3577 -1.0805,0.2938 -1.4382,-0.1429 v 0 c -0.3577,-0.4366 -0.2938,-1.0805 0.1428,-1.4382 3.3954,-2.5588 6.8832,-4.4357 9.7932,-5.633 v 0 c 0.2554,-0.1215 0.5609,-0.0129 0.6824,0.2424 v 0 c 0.1215,0.2554 0.013,0.5609 -0.2424,0.6824 -2.702,1.4728 -5.8557,3.5419 -8.9378,6.2893 -2.1151,1.7497 -4.1509,3.7541 -6.0082,6.1004 -1.8756,2.342 -3.6056,4.8785 -5.3017,7.5795 -3.4218,5.4201 -6.4574,11.4496 -8.7598,16.185 -0.7195,1.507 -1.3426,2.7872 -1.7758,4.1235 -0.345,1.0686 -0.6239,2.1402 -0.8914,3.2616 -0.5712,2.2821 -0.9516,4.8088 -1.634,7.0589 -0.3154,1.0471 -0.6624,1.9854 -0.9367,2.9021 -0.6206,1.9913 -1.2356,3.8468 -1.6779,5.7182 -0.4414,1.9217 -0.7675,3.9664 -1.4773,5.653 -0.3366,0.7935 -0.7352,1.5245 -1.1272,2.1685 -1.367,2.1949 -3.1273,3.7679 -4.7514,4.7278 -2.2606,1.3461 -4.3446,2.2565 -6.9536,3.3028 -1.3797,0.5542 -2.6843,1.0751 -3.7449,1.523 -0.9986,0.4181 -1.7594,0.7615 -2.2533,1.3535 -1.4716,1.5705 -1.6546,4.412 -2.0756,8.454 -0.6022,5.8835 -2.5131,12.8534 -7.4083,18.5952 -1.8772,2.2159 -4.0121,4.0702 -6.7803,6.3252 -1.0513,0.8557 -2.2704,1.7893 -3.6483,2.5634 -2.0579,1.144 -4.3979,2.0428 -6.6989,2.8861 -3.8319,1.4104 -7.8351,2.4573 -11.5277,3.0467 -2.5453,0.3894 -5.1508,0.5024 -7.9837,0.3405 -1.3197,-0.0713 -2.6884,-0.1913 -3.9965,-0.313 -2.5442,-0.2483 -4.9027,-0.6107 -6.8035,-0.7707 -1.8892,-0.1656 -3.3559,-0.2266 -4.4488,-0.3585 -1.323,-0.1569 -2.3372,-0.4543 -2.9066,-0.9988 -0.2805,-0.3208 -0.4679,-0.8621 -0.4554,-1.2858 0.0306,-0.3973 0.1832,-0.8789 0.4008,-1.3343 v 0 c 0.1696,-0.3641 0.6023,-0.5218 0.9665,-0.3522 v 0 c 0.3642,0.1696 0.5219,0.6023 0.3522,0.9665 z" /><path
           id="path50"
           style="fill:#000000;fill-opacity:1;fill-rule:nonzero;stroke:none"
           d="m 367.8945,592.3267 c 0.2112,0.4051 0.6756,1.1359 0.8839,1.9505 v 0 c 0.0923,0.4171 -0.1711,0.83 -0.5882,0.9223 v 0 c -0.4171,0.0922 -0.83,-0.1711 -0.9223,-0.5882 v 0 c -0.0923,-0.4172 0.1711,-0.8301 0.5882,-0.9224 v 0 c 0.4171,-0.0922 0.8301,0.1711 0.9223,0.5883 0.1476,0.6135 0.0759,1.4664 -0.3036,2.0935 v 0 c -0.2658,0.3784 -0.788,0.4697 -1.1664,0.2039 v 0 c -0.3784,-0.2658 -0.4697,-0.788 -0.2039,-1.1663 v 0 c 0.2658,-0.3784 0.788,-0.4697 1.1663,-0.204 v 0 c 0.3784,0.2658 0.4697,0.788 0.204,1.1664 -0.5068,0.6585 -1.4218,1.034 -2.1424,1.2128 v 0 c -0.4767,0.1064 -0.9494,-0.1939 -1.0558,-0.6706 v 0 c -0.1064,-0.4767 0.1939,-0.9494 0.6706,-1.0558 v 0 c 0.4767,-0.1063 0.9494,0.1939 1.0558,0.6706 v 0 c 0.1063,0.4767 -0.1939,0.9494 -0.6706,1.0558 -2.0488,0.4378 -5.1596,-0.01 -8.3764,-1.0357 -2.1738,-0.698 -4.6614,-1.9287 -6.9556,-3.2393 -6.3522,-3.6309 -9.5885,-7.3342 -11.9871,-11.0603 -2.0554,-3.2147 -4.6559,-5.7495 -8.5427,-6.9012 -2.9209,-0.9016 -5.2326,-0.9085 -7.5783,-0.868 -0.9736,0.015 -2.0073,0.0639 -3.2084,-0.009 -1.461,-0.0905 -3.1621,-0.5107 -4.6547,-0.8366 -2.0445,-0.4528 -3.8524,-0.6037 -5.9714,-1.6124 -1.0116,-0.4906 -1.9529,-1.2104 -3.0909,-1.8127 -0.9623,-0.5234 -2.1613,-0.9545 -3.4634,-1.4089 -3.2693,-1.1322 -6.7377,-2.0747 -10.4966,-3.552 -1.1803,-0.4595 -2.4104,-0.9559 -3.5858,-1.5034 -1.4252,-0.658 -2.7719,-1.4618 -4.1367,-2.3468 -0.8127,-0.5257 -1.5884,-1.1262 -2.4382,-1.7277 -1.2366,-0.8927 -2.6607,-1.8191 -4.1414,-2.7461 -1.3993,-0.8763 -2.8934,-1.6751 -4.453,-2.5242 -2.0059,-1.1048 -4.1292,-2.2368 -6.1391,-3.3639 v 0 c -0.4718,-0.2618 -0.6421,-0.8565 -0.3802,-1.3283 v 0 c 0.2618,-0.4719 0.8565,-0.6421 1.3283,-0.3803 v 0 c 0.4718,0.2618 0.6421,0.8565 0.3803,1.3283 v 0 c -0.2618,0.4719 -0.8565,0.6421 -1.3284,0.3803 -1.2807,-0.7119 -2.522,-1.4351 -3.6025,-2.0933 v 0 c -0.4594,-0.2793 -0.6055,-0.8782 -0.3262,-1.3376 v 0 c 0.2793,-0.4594 0.8782,-0.6055 1.3376,-0.3261 v 0 c 0.4595,0.2793 0.6055,0.8781 0.3262,1.3375 v 0 c -0.2793,0.4595 -0.8782,0.6055 -1.3376,0.3262 -1.998,-1.2258 -3.3777,-2.3051 -4.3159,-3.2358 v 0 c -0.3732,-0.3665 -0.3787,-0.9661 -0.0122,-1.3393 v 0 c 0.3664,-0.3731 0.966,-0.3786 1.3392,-0.0121 v 0 c 0.3732,0.3664 0.3786,0.966 0.0122,1.3392 v 0 c -0.3665,0.3732 -0.9661,0.3786 -1.3392,0.0122 -1.1629,-1.3545 -1.6129,-2.5203 -1.9098,-3.4936 v 0 c -0.1201,-0.256 -0.01,-0.561 0.246,-0.6811 v 0 c 0.2559,-0.1202 0.5609,-0.0101 0.681,0.2459 0.5495,0.8295 1.0784,1.5797 2.3099,2.5775 0.8573,0.8324 2.0693,1.7615 4.0001,2.9233 1.0647,0.6459 2.2743,1.3481 3.5392,2.0484 2.0014,1.0987 4.1279,2.2089 6.1557,3.3019 1.5529,0.8463 3.0991,1.6752 4.5571,2.5878 1.4955,0.9362 2.9728,1.8977 4.2511,2.8196 0.8724,0.6404 1.6069,1.2325 2.338,1.7236 1.3241,0.8847 2.5387,1.6368 3.8635,2.2688 1.1267,0.5327 2.2983,1.0118 3.4656,1.4731 3.67,1.4364 7.0973,2.357 10.4313,3.5017 1.3151,0.4484 2.6502,0.9223 3.7537,1.5031 1.2626,0.6812 2.1887,1.3975 3.0114,1.7898 1.8279,0.8908 3.3888,0.9811 5.5546,1.4507 1.5206,0.3348 3.0904,0.7315 4.3554,0.8028 1.1029,0.0645 2.0537,0.0119 3.0595,-0.009 2.3713,-0.0437 5.0211,-0.0118 8.1818,0.9439 4.283,1.3442 7.3965,4.3393 9.5678,7.7457 2.2963,3.6274 5.156,6.9894 11.2913,10.5097 2.2443,1.2893 4.5719,2.4503 6.6048,3.1025 3.0814,0.9958 5.7855,1.4023 7.4442,1.0142 0.6188,-0.1202 1.0466,-0.2286 1.157,-0.4488 0.215,-0.2194 0.235,-0.4187 0.1634,-0.7972 -0.0964,-0.5629 -0.4541,-1.146 -0.6831,-1.651 v 0 c -0.1749,-0.3617 -0.0235,-0.7966 0.3382,-0.9715 v 0 c 0.3616,-0.1749 0.7966,-0.0235 0.9715,0.3381" /><path
           id="path52"
           style="fill:#000000;fill-opacity:1;fill-rule:nonzero;stroke:none"
           d="m 306.4996,609.7517 c -0.0984,0.2007 -0.3386,0.466 -0.5531,0.5816 v 0 c -0.3618,0.1637 -0.7878,0.003 -0.9515,-0.3587 v 0 c -0.1637,-0.3617 -0.003,-0.7877 0.3586,-0.9514 v 0 c 0.3618,-0.1638 0.7878,-0.003 0.9515,0.3586 v 0 c 0.1637,0.3617 0.003,0.7877 -0.3586,0.9515 -0.2495,0.083 -0.6415,0.0538 -0.8274,-0.0276 v 0 c -0.3543,-0.1689 -0.5046,-0.5929 -0.3358,-0.9472 v 0 c 0.1688,-0.3543 0.5929,-0.5047 0.9472,-0.3358 v 0 c 0.3543,0.1688 0.5046,0.5929 0.3358,0.9472 v 0 c -0.1688,0.3542 -0.5929,0.5046 -0.9472,0.3358 -0.3002,-0.1719 -0.5855,-0.4924 -0.7696,-0.7813 v 0 c -0.2097,-0.3207 -0.1197,-0.7507 0.201,-0.9604 v 0 c 0.3208,-0.2097 0.7508,-0.1197 0.9605,0.201 v 0 c 0.2097,0.3207 0.1197,0.7507 -0.2011,0.9604 v 0 c -0.3207,0.2097 -0.7507,0.1197 -0.9604,-0.201 -1.2176,-1.8298 -1.8985,-7.6915 -2.6907,-14.4018 -0.5303,-4.9126 -0.9841,-10.2932 -1.5228,-14.8432 -0.4912,-3.8712 -0.8558,-7.1472 -1.0031,-10.663 -0.0486,-1.3786 -0.0891,-2.8697 -0.0858,-4.3831 -0.002,-0.7254 -0.037,-1.5052 -0.0165,-2.3048 0.024,-0.8105 0.1647,-1.5971 0.262,-2.3406 0.184,-1.3242 0.3304,-2.7423 0.4652,-4.2639 0.2958,-3.3144 0.4364,-6.6079 0.6196,-10.0374 0.0593,-1.2583 0.139,-2.5508 0.1698,-3.8907 0.0325,-1.3358 0.0166,-2.7083 -0.0209,-4.1089 -0.0293,-1.3833 -0.1109,-2.7816 -0.1923,-4.2339 -0.1988,-3.2856 -0.475,-6.7319 -0.59,-9.9808 -0.0525,-1.8019 -0.0136,-3.56 0.0103,-5.1821 0.007,-1.5801 -0.0274,-3.1145 8e-4,-4.686 0.0251,-1.0717 0.0994,-2.144 0.151,-3.0886 0.1452,-1.9769 0.2184,-3.4081 0.2879,-4.7422 0.0689,-1.4276 0.0315,-2.8376 0.0687,-3.9837 v 0 c 0.005,-0.5363 0.4436,-0.967 0.9798,-0.9622 v 0 c 0.5363,0.005 0.9671,0.4436 0.9622,0.9799 v 0 c -0.005,0.5362 -0.4436,0.967 -0.9798,0.9621 v 0 c -0.5363,-0.005 -0.9671,-0.4435 -0.9622,-0.9798 0.0827,-0.6566 0.1958,-1.2707 0.373,-1.7198 v 0 c 0.0912,-0.3992 0.4888,-0.6489 0.8881,-0.5576 v 0 c 0.3992,0.0912 0.6489,0.4889 0.5576,0.8881 v 0 c -0.0912,0.3992 -0.4889,0.6489 -0.8881,0.5576 v 0 c -0.3992,-0.0912 -0.6489,-0.4889 -0.5576,-0.8881 0.0927,-0.2275 0.2331,-0.4858 0.3876,-0.6532 v 0 c 0.1961,-0.2853 0.5864,-0.3575 0.8716,-0.1613 v 0 c 0.2852,0.1962 0.3574,0.5864 0.1612,0.8716 v 0 c -0.1961,0.2852 -0.5863,0.3574 -0.8716,0.1613 v 0 c -0.2852,-0.1962 -0.3574,-0.5864 -0.1612,-0.8716 0.1689,-0.1647 0.4813,-0.3362 0.7271,-0.3524 v 0 c 0.279,-0.0461 0.5426,0.1426 0.5887,0.4216 v 0 c 0.0462,0.279 -0.1425,0.5426 -0.4215,0.5888 0.006,0.0234 0.1253,-0.009 0.1385,0.0524 -0.001,0.0588 0.0213,0.1135 0.0252,0.2736 -2e-4,0.327 0.0523,0.7873 0.1234,1.4067 0.0169,1.0854 0.1093,2.5222 0.0941,4.0264 -0.007,1.3367 -0.0195,2.8068 -0.1038,4.8138 -0.0585,0.9616 -0.1364,1.9969 -0.1654,3.0155 -0.0522,1.5255 -0.0422,3.0452 -0.0746,4.6546 -0.0169,1.631 -0.0483,3.3399 0.0103,5.0851 0.0869,3.1987 0.3356,6.6203 0.5099,9.9292 0.0827,1.4499 0.1674,2.8851 0.1994,4.3081 0.024,1.4173 0.0261,2.8437 -0.021,4.2176 -0.049,1.3789 -0.1468,2.6969 -0.2219,3.9393 -0.1847,3.4187 -0.3295,6.7486 -0.631,10.1098 -0.1386,1.5357 -0.2927,3.0032 -0.4839,4.3639 -0.1169,0.7902 -0.2555,1.4719 -0.2804,2.1249 -0.0307,0.7282 -0.008,1.4788 -0.0166,2.2465 -0.01,1.4846 0.0231,2.9393 0.0649,4.3101 0.0819,3.4553 0.3772,6.6541 0.805,10.5189 0.5459,4.5816 1.004,9.9695 1.5358,14.8601 0.6635,6.7274 1.187,12.4312 2.0853,13.8335 0.139,0.2053 0.201,0.2778 0.2196,0.2579 -0.0263,-0.005 -0.266,-0.0197 -0.3768,6e-4 -0.0758,0.0527 -0.191,0.1768 -0.1847,0.1405 v 0 c 0.1624,-0.3674 0.5919,-0.5337 0.9593,-0.3713 v 0 c 0.3675,0.1623 0.5338,0.5918 0.3714,0.9593" /><path
           id="path54"
           style="fill:#000000;fill-opacity:1;fill-rule:nonzero;stroke:none"
           d="m 158.1805,569.7471 c 0.1287,0.1269 0.2649,0.2711 0.3716,0.4116 v 0 c 0.2513,0.1528 0.3312,0.4803 0.1785,0.7316 v 0 c -0.1527,0.2512 -0.4802,0.3311 -0.7315,0.1784 v 0 c -0.2513,-0.1527 -0.3312,-0.4802 -0.1785,-0.7315 v 0 c 0.1527,-0.2513 0.4803,-0.3312 0.7315,-0.1785 0.9198,0.515 1.651,1.3808 2.5117,2.2768 v 0 c 0.248,0.279 0.2228,0.7062 -0.0562,0.9542 v 0 c -0.279,0.248 -0.7063,0.2228 -0.9542,-0.0562 v 0 c -0.248,-0.2791 -0.2228,-0.7063 0.0562,-0.9543 v 0 c 0.279,-0.248 0.7063,-0.2228 0.9542,0.0563 1.5491,1.7104 5.3527,5.0681 10.1349,8.1719 v 0 c 0.3452,0.2262 0.4416,0.6894 0.2154,1.0346 v 0 c -0.2263,0.3452 -0.6895,0.4416 -1.0347,0.2154 v 0 c -0.3451,-0.2263 -0.4416,-0.6895 -0.2153,-1.0347 v 0 c 0.2262,-0.3452 0.6894,-0.4416 1.0346,-0.2153 4.0413,2.6443 8.5818,4.4306 12.6586,6.4036 4.7567,2.3152 10.6579,4.7056 16.0347,6.0219 5.3791,1.315 10.1368,2.3663 14.8257,2.3649 6.1903,0.0143 12.101,-1.4596 18.1739,-3.1518 4.4044,-1.2258 8.862,-2.9375 13.1994,-2.8419 3.9854,0.1279 7.838,2.2147 11.0604,5.4395 2.5009,2.4999 4.5146,4.5056 6.9989,6.2044 4.6515,3.225 9.6065,3.8519 13.6889,3.1609 2.2606,-0.355 4.5462,-1.8734 6.6478,-3.8327 1.3973,-1.2862 2.3682,-3.1768 3.6911,-5.0861 0.8691,-1.2502 1.814,-2.2538 2.6787,-3.2188 1.051,-1.1685 2.0091,-2.6868 3.0484,-4.395 0.7699,-1.258 1.6162,-2.2679 2.2104,-3.3724 0.951,-1.7459 1.3938,-4.1088 2.157,-6.6814 0.7631,-2.5455 1.9469,-4.6064 2.5628,-7.0277 0.9403,-3.629 1.1671,-9.1226 3.5198,-14.2562 1.8734,-4.0349 5.0423,-8.2956 8.8801,-12.4927 2.0576,-2.2518 4.3896,-4.4346 6.5039,-6.681 1.2805,-1.3583 2.4169,-2.8759 3.7607,-4.3153 0.8025,-0.8587 1.6278,-1.7987 2.5754,-2.6142 1.6244,-1.3791 3.7233,-2.1441 5.5397,-2.8375 1.7905,-0.676 3.5107,-1.2479 5.1304,-1.8754 1.5529,-0.6013 3.0171,-1.498 4.6986,-2.2392 0.978,-0.4281 2.0218,-0.8971 3.1558,-1.2463 3.1589,-0.9539 6.9529,-0.8374 10.2845,-0.594 4.8109,0.3557 8.8121,0.8699 12.6158,1.2984 1.8659,0.2115 3.7339,0.3433 5.5515,0.7659 1.8379,0.4413 3.6443,1.2804 5.2749,2.0816 1.1454,0.5668 2.2318,1.1661 3.1126,1.6426 0.9644,0.5011 1.6425,0.8035 2.2057,1.052 1.874,0.9165 2.993,1.8299 4.3588,2.805 0.4774,0.3478 1.1176,0.604 1.8206,1.0481 v 0 c 0.3341,0.2034 0.44,0.6391 0.2366,0.9731 v 0 c -0.2035,0.334 -0.6391,0.44 -0.9732,0.2365 v 0 c -0.334,-0.2034 -0.4399,-0.6391 -0.2365,-0.9731 v 0 c 0.2034,-0.3341 0.6391,-0.44 0.9731,-0.2365 1.2827,0.8233 2.6075,2.0528 3.8125,2.886 v 0 c 0.2811,0.1858 0.3584,0.5643 0.1726,0.8454 v 0 c -0.1858,0.2811 -0.5643,0.3584 -0.8454,0.1726 v 0 c -0.2811,-0.1858 -0.3583,-0.5643 -0.1725,-0.8454 v 0 c 0.1858,-0.2811 0.5642,-0.3584 0.8453,-0.1726 0.6006,0.4173 1.1198,0.7164 1.6147,0.8447 v 0 c 0.3015,0.0714 0.488,0.3737 0.4166,0.6752 v 0 c -0.0714,0.3016 -0.3737,0.4881 -0.6753,0.4167 v 0 c -0.3015,-0.0714 -0.488,-0.3738 -0.4166,-0.6753 v 0 c 0.0714,-0.3015 0.3737,-0.4881 0.6753,-0.4166 0.4861,0.1394 0.7884,0.1366 1.1588,-0.1321 v 0 c 0.2289,-0.166 0.5491,-0.1149 0.715,0.1141 v 0 c 0.166,0.2289 0.1149,0.5491 -0.114,0.715 -0.5833,0.4225 -1.354,0.5288 -2.0188,0.3948 -0.6554,-0.1442 -1.3646,-0.5 -2.0285,-0.9185 -1.3239,-0.8383 -2.6728,-2.0039 -3.8763,-2.6944 -0.6058,-0.3529 -1.2828,-0.5906 -1.9308,-1.0007 -1.4551,-0.9262 -2.4856,-1.6745 -4.2598,-2.437 -0.5567,-0.2668 -1.2789,-0.6119 -2.2692,-1.1481 -0.8967,-0.4667 -1.9624,-1.0368 -3.08,-1.5717 -1.6205,-0.7812 -3.251,-1.5335 -4.9102,-1.909 -1.6728,-0.3925 -3.4369,-0.5093 -5.3419,-0.7224 -3.8183,-0.4295 -7.7801,-0.9386 -12.5461,-1.2897 -3.2935,-0.2456 -6.7746,-0.3769 -9.6187,0.5059 -1.028,0.3115 -1.9738,0.7386 -2.9617,1.1694 -1.5763,0.6827 -3.0773,1.5896 -4.7783,2.2478 -1.6615,0.6419 -3.3877,1.2146 -5.1455,1.8774 -1.8392,0.6866 -3.6752,1.314 -5.0372,2.491 -0.857,0.7288 -1.6182,1.5983 -2.4419,2.4764 -1.2843,1.3669 -2.4253,2.8844 -3.7727,4.3125 -2.1569,2.2819 -4.4846,4.4523 -6.499,6.6503 -3.7855,4.1334 -6.8115,8.1892 -8.5975,12.0546 -2.2566,4.8173 -2.4631,10.1278 -3.4563,13.958 -0.6908,2.6206 -1.8957,4.709 -2.6051,7.0798 -0.7542,2.4933 -1.2495,4.9906 -2.3179,6.9728 -0.6763,1.2409 -1.5433,2.2816 -2.2494,3.4442 -1.0506,1.7175 -2.091,3.3475 -3.2346,4.6212 -0.8813,0.9781 -1.7604,1.9005 -2.5645,3.0584 -1.272,1.8246 -2.3326,3.842 -3.9178,5.3323 -2.2002,2.0455 -4.8525,3.7801 -7.455,4.2345 -4.3366,0.7113 -9.872,-0.027 -14.8327,-3.4181 -2.5867,-1.7912 -4.7005,-3.9042 -7.1942,-6.4139 -3.0659,-3.0832 -6.4043,-4.9111 -10.0183,-4.9797 -4.0177,-0.12 -8.2696,1.5395 -12.746,2.788 -6.0934,1.6989 -12.2122,3.2137 -18.5895,3.2116 -4.8579,-0.013 -9.7935,-1.0999 -15.1876,-2.4235 -5.4914,-1.3455 -11.534,-3.7865 -16.3442,-6.1226 -4.0155,-1.9614 -8.6389,-3.804 -12.8046,-6.5385 -4.8384,-3.2018 -8.7348,-6.7013 -10.326,-8.5239 -0.8171,-0.992 -1.3666,-1.8052 -2.0538,-2.2645 -0.1411,-0.01 -0.2599,0.001 -0.3966,0.0133 v 0 c -0.3687,-0.1595 -0.5384,-0.5876 -0.3789,-0.9564 v 0 c 0.1595,-0.3687 0.5877,-0.5383 0.9564,-0.3788 z" /><path
           id="path56"
           style="fill:#000000;fill-opacity:1;fill-rule:nonzero;stroke:none"
           d="m 424.8258,577.1884 c -0.0799,0.343 -0.3092,0.9173 -0.6652,1.2379 v 0 c -0.2491,0.2277 -0.6357,0.2103 -0.8634,-0.0389 v 0 c -0.2277,-0.2491 -0.2104,-0.6357 0.0388,-0.8634 v 0 c 0.2492,-0.2277 0.6358,-0.2104 0.8635,0.0388 v 0 c 0.2277,0.2492 0.2103,0.6358 -0.0389,0.8635 -0.2233,0.1869 -0.6522,0.2685 -0.891,0.2251 v 0 c -0.3507,-0.111 -0.545,-0.4852 -0.434,-0.8359 v 0 c 0.1109,-0.3506 0.4851,-0.545 0.8358,-0.434 v 0 c 0.3507,0.1109 0.545,0.4851 0.434,0.8358 v 0 c -0.1109,0.3507 -0.4851,0.545 -0.8358,0.4341 -0.2142,-0.0574 -0.483,-0.2133 -0.6639,-0.3685 v 0 c -0.2771,-0.2857 -0.2702,-0.742 0.0155,-1.0192 v 0 c 0.2857,-0.2771 0.742,-0.2702 1.0192,0.0155 v 0 c 0.2771,0.2857 0.2702,0.742 -0.0155,1.0192 v 0 c -0.2857,0.2771 -0.742,0.2702 -1.0192,-0.0155 -0.5754,-0.6664 -0.8414,-1.922 -1.3271,-3.0823 -1.447,-3.5318 -5.2532,-8.2532 -9.9408,-12.9102 -6.1386,-6.0531 -13.4192,-9.8773 -19.8032,-12.5343 -5.1285,-2.1806 -9.6733,-2.3062 -13.5025,-2.2514 -3.6362,0.0595 -7.4655,-0.4649 -10.6572,-0.6894 -4.2297,-0.3137 -7.5135,0.3464 -11.2667,1.6534 -2.4107,0.8334 -4.7129,1.1493 -6.2297,1.6828 -1.2584,0.4302 -2.2527,1.2322 -3.7078,1.7014 -0.5453,0.1637 -1.1247,0.2195 -1.5303,0.3028 -0.3322,0.0647 -0.5595,0.1528 -0.8274,0.2814 -0.2784,0.1245 -0.5362,0.3887 -0.994,0.7223 -2.8237,2.0102 -5.622,3.7226 -7.2477,7.2363 -1.273,2.7069 -2.2552,5.5397 -3.4021,8.8506 -1.2088,3.4093 -4.2576,7.1557 -7.2108,9.6284 -2.6383,2.1665 -5.9021,2.7284 -9.1899,2.6614 -2.8465,-0.0599 -5.2301,-0.0538 -7.6189,-1.4135 -1.4641,-0.8506 -3.4551,-2.1064 -5.1405,-3.9216 -1.3073,-1.4267 -2.2691,-3.3458 -3.2804,-4.9923 -1.2923,-2.1313 -2.7043,-3.4928 -4.4057,-4.7868 -1.2151,-0.9204 -2.5605,-1.9286 -3.9478,-2.7173 -2.9023,-1.6637 -5.1485,-2.0347 -7.9126,-2.5088 -4.5956,-0.8144 -10.2464,-0.7041 -15.4621,0.7171 -6.1954,1.6942 -10.1604,3.2313 -15.1698,4.0878 -2.3884,0.4031 -5.1087,0.2256 -7.8866,0.136 -1.8126,-0.0606 -3.7924,-0.2378 -5.961,-0.8522 -1.2588,-0.3597 -2.5502,-0.9029 -3.7985,-1.3936 -1.4178,-0.5597 -2.9731,-0.9833 -4.4239,-1.8241 v 0 c -0.3932,-0.2302 -0.5253,-0.7355 -0.2951,-1.1287 v 0 c 0.2302,-0.3932 0.7355,-0.5253 1.1286,-0.2951 v 0 c 0.3932,0.2302 0.5253,0.7355 0.2951,1.1287 v 0 c -0.2302,0.3932 -0.7355,0.5253 -1.1286,0.2951 -2.0183,-1.1779 -3.6875,-3.4023 -5.3158,-5.494 v 0 c -0.3015,-0.395 -0.2257,-0.9597 0.1693,-1.2612 v 0 c 0.395,-0.3016 0.9596,-0.2258 1.2612,0.1692 v 0 c 0.3015,0.395 0.2257,0.9597 -0.1693,1.2612 v 0 c -0.395,0.3016 -0.9596,0.2258 -1.2612,-0.1692 -2.3801,-3.1497 -4.9645,-5.8811 -7.2477,-8.1761 v 0 c -0.3308,-0.3287 -0.3324,-0.8633 -0.004,-1.1941 v 0 c 0.3287,-0.3307 0.8633,-0.3324 1.1941,-0.004 v 0 c 0.3308,0.3287 0.3324,0.8634 0.004,1.1941 v 0 c -0.3287,0.3308 -0.8633,0.3325 -1.1941,0.004 -3.3122,-3.4504 -5.0911,-6.2215 -6.7928,-13.0542 v 0 c -0.0726,-0.2734 0.0902,-0.5537 0.3636,-0.6263 v 0 c 0.2733,-0.0725 0.5537,0.0903 0.6262,0.3637 1.8753,6.6504 3.5959,8.9014 6.9934,12.119 2.3265,2.2861 5.0185,5.0806 7.4877,8.2818 1.6004,2.1377 3.0341,4.1723 4.7189,5.1623 1.2547,0.7433 2.69,1.1224 4.1946,1.714 1.2664,0.4994 2.486,1.0167 3.6447,1.3458 2.0276,0.5798 3.7979,0.7296 5.5649,0.787 2.8056,0.0947 5.3737,0.2756 7.557,-0.1018 4.8609,-0.8283 8.7506,-2.3477 15.0095,-4.0651 5.4147,-1.4917 11.4121,-1.644 16.1934,-0.8364 2.7642,0.4823 5.3459,0.9561 8.4653,2.7331 1.4782,0.8481 2.9102,1.921 4.128,2.8472 1.784,1.3522 3.4361,2.9556 4.8454,5.2444 1.045,1.7171 1.9216,3.5087 3.0629,4.7356 1.5261,1.6649 3.3074,2.7719 4.7434,3.607 2.0002,1.1914 3.925,1.1174 6.8002,1.1747 3.1364,0.0643 5.7861,-0.345 8.0467,-2.2781 2.8148,-2.3545 5.6112,-5.7833 6.6658,-8.8793 1.1564,-3.3084 2.1802,-6.2237 3.4987,-9.0097 1.8682,-3.8927 5.022,-5.924 7.8039,-7.9068 0.3719,-0.257 0.7488,-0.5997 1.2671,-0.8523 0.3352,-0.1575 0.766,-0.3155 1.2212,-0.4087 0.5027,-0.0991 1.0013,-0.1408 1.3625,-0.2579 1.1759,-0.3467 2.1547,-1.1328 3.6596,-1.6639 1.7013,-0.5856 3.9738,-0.8941 6.2308,-1.6819 3.8571,-1.3365 7.5061,-2.0523 11.9363,-1.7334 3.249,0.2462 7.0051,0.7806 10.512,0.7343 3.8698,-0.0599 8.7725,0.1043 14.1604,2.3644 6.4261,2.7525 13.9184,6.7856 20.1695,13.0272 4.7471,4.7051 8.7072,9.6125 10.2791,13.3633 0.5287,1.2866 0.7499,2.4245 1.0234,2.6336 0.0522,0.085 0.0259,0.0902 0.0309,0.1022 -0.0196,0.0259 -0.2524,0.0844 -0.3364,0.1434 0.0408,-0.0421 0.0683,-0.3011 0.044,-0.4882 v 0 c 0.0419,-0.3996 0.3997,-0.6895 0.7992,-0.6476 v 0 c 0.3996,0.0419 0.6895,0.3997 0.6476,0.7993" /><path
           id="path58"
           style="fill:#000000;fill-opacity:1;fill-rule:nonzero;stroke:none"
           d="m 325.6324,611.4963 c 0.0325,0.0285 -0.1004,0.0196 -0.182,0.0316 v 0 c 0.3764,-0.089 0.7537,0.144 0.8428,0.5204 v 0 c 0.089,0.3764 -0.144,0.7537 -0.5204,0.8428 v 0 c -0.3764,0.089 -0.7538,-0.144 -0.8428,-0.5204 v 0 c -0.089,-0.3764 0.144,-0.7538 0.5204,-0.8428 -0.1049,0.0593 -0.3136,0.2705 -0.3435,0.3385 v 0 c 0.1188,-0.3524 0.5007,-0.5418 0.8531,-0.423 v 0 c 0.3524,0.1188 0.5418,0.5007 0.423,0.8531 v 0 c -0.1188,0.3524 -0.5007,0.5418 -0.8531,0.4231 v 0 c -0.3524,-0.1188 -0.5418,-0.5008 -0.423,-0.8532 0.0281,0.0729 0.038,0.0572 -0.0439,-0.1527 v 0 c -0.144,-0.3102 -0.009,-0.6784 0.301,-0.8224 v 0 c 0.3102,-0.144 0.6784,-0.009 0.8224,0.301 v 0 c 0.144,0.3102 0.009,0.6784 -0.301,0.8224 v 0 c -0.3102,0.144 -0.6784,0.009 -0.8224,-0.301 -0.0964,-0.2396 -0.4685,-0.5504 -0.8685,-0.9486 -1.7395,-1.7519 -4.7363,-3.306 -8.5612,-5.5363 -3.612,-2.1209 -7.7305,-5.707 -11.0185,-9.0798 -2.7017,-2.7733 -4.3448,-5.8325 -5.2973,-8.8137 -0.5424,-1.7272 -0.7796,-3.4071 -0.8698,-4.8047 -0.0747,-1.1645 -0.0771,-2.2224 0.0814,-3.3298 0.119,-0.8226 0.3541,-1.6555 0.5462,-2.5934 0.3737,-1.773 0.5424,-3.9876 0.5706,-5.9666 0.0269,-2.6632 -0.44,-4.6567 -1.0825,-6.9899 -0.5143,-1.8992 -1.2636,-3.9388 -1.9657,-6.1515 -0.267,-0.844 -0.5023,-1.6728 -0.7603,-2.6203 -0.4231,-1.551 -0.8281,-3.3535 -1.3774,-5.2343 -0.2846,-0.9803 -0.6263,-1.9787 -0.9665,-2.9399 -0.9085,-2.5673 -1.8921,-4.6266 -2.8913,-7.004 -0.693,-1.6232 -1.3739,-3.3925 -2.0178,-5.3047 -0.3031,-0.9103 -0.5736,-1.8606 -0.8766,-2.8847 -0.4504,-1.4963 -0.9347,-3.1555 -1.4494,-4.8515 -0.4873,-1.6464 -1.1032,-3.3468 -1.6055,-5.0615 -0.372,-1.2937 -0.7303,-2.5987 -0.9793,-3.8445 -0.3298,-1.6289 -0.3201,-3.188 -0.294,-4.5953 0.0545,-2.2279 0.177,-4.5145 0.6013,-6.5485 v 0 c 0.1003,-0.4903 0.579,-0.8064 1.0692,-0.7061 v 0 c 0.4903,0.1002 0.8064,0.579 0.7062,1.0692 v 0 c -0.1003,0.4903 -0.579,0.8064 -1.0693,0.7061 v 0 c -0.4902,-0.1003 -0.8064,-0.579 -0.7061,-1.0692 0.4983,-2.3413 1.3895,-4.3828 2.5672,-6.0677 v 0 c 0.2706,-0.3913 0.8073,-0.4892 1.1986,-0.2186 v 0 c 0.3914,0.2707 0.4892,0.8073 0.2186,1.1987 v 0 c -0.2706,0.3913 -0.8073,0.4892 -1.1986,0.2185 v 0 c -0.3914,-0.2706 -0.4892,-0.8072 -0.2186,-1.1986 0.6723,-0.9526 1.4545,-1.9276 2.4123,-2.7067 v 0 c 0.3539,-0.2906 0.8763,-0.2393 1.1669,0.1145 v 0 c 0.2906,0.3538 0.2393,0.8762 -0.1145,1.1668 v 0 c -0.3539,0.2906 -0.8763,0.2394 -1.1669,-0.1145 v 0 c -0.2906,-0.3538 -0.2393,-0.8762 0.1145,-1.1668 3.2037,-2.415 8.3004,-2.158 10.3057,-4.2912 v 0 c 0.1921,-0.2075 0.5161,-0.2199 0.7236,-0.0278 v 0 c 0.2074,0.1922 0.2199,0.5161 0.0277,0.7236 -2.3957,2.6189 -7.4664,2.5744 -10.0045,4.8766 -0.8091,0.6721 -1.422,1.481 -2.0476,2.4055 -1.0594,1.5501 -1.782,3.2688 -2.209,5.4508 -0.3788,1.8922 -0.4669,4.0198 -0.4986,6.2219 -0.0286,1.399 -0.0501,2.7436 0.2484,4.1837 0.2466,1.1757 0.5979,2.4036 0.9794,3.6832 0.4843,1.6566 1.0991,3.3539 1.6037,5.0555 0.495,1.7124 0.9577,3.3815 1.3833,4.8773 0.2998,1.0347 0.5561,1.9583 0.841,2.8311 0.6085,1.8852 1.2417,3.5977 1.8996,5.2003 0.9779,2.3441 1.9777,4.4572 2.9095,7.1036 0.3417,0.9705 0.6972,2.0153 0.9922,3.0353 0.556,1.9331 0.959,3.7569 1.3647,5.2698 0.2526,0.9405 0.4749,1.7362 0.7314,2.5572 0.6796,2.1817 1.4274,4.2549 1.9517,6.23 0.6194,2.3733 1.0951,4.6149 1.0419,7.4413 -0.0302,2.0305 -0.2116,4.3806 -0.6045,6.2636 -0.2118,0.9881 -0.4462,1.7822 -0.5538,2.4973 -0.1519,0.9994 -0.1516,1.8897 -0.0844,3.0121 0.0798,1.3368 0.2819,2.8365 0.7877,4.4493 0.8802,2.8568 2.3283,5.6249 4.888,8.2701 3.2318,3.3415 7.212,6.834 10.6929,8.8887 3.7829,2.2475 6.8778,3.906 8.7658,5.8309 0.3617,0.374 0.8441,0.8181 1.0903,1.3169 0.1668,0.326 0.2591,0.762 0.1966,1.104 -0.0753,0.2028 -0.3726,0.5031 -0.6064,0.5937 -0.2182,0.0443 -0.5279,0.01 -0.7171,-0.0566 v 0 c -0.3693,-0.1581 -0.5404,-0.5857 -0.3823,-0.955 v 0 c 0.1582,-0.3693 0.5858,-0.5404 0.9551,-0.3822 z" /><path
           id="path60"
           style="fill:#a400c7;fill-opacity:1;fill-rule:nonzero;stroke:none"
           d="m 305.6267,567.8153 c 0.2427,0.5031 0.2543,1.2225 0.1078,1.7555 v 0 c -0.1536,0.429 -0.6258,0.6523 -1.0548,0.4988 v 0 c -0.4291,-0.1536 -0.6524,-0.6258 -0.4988,-1.0549 v 0 c 0.1535,-0.429 0.6258,-0.6523 1.0548,-0.4988 v 0 c 0.429,0.1536 0.6523,0.6258 0.4988,1.0549 -0.1657,0.5321 -0.5893,1.1564 -1.0867,1.5081 v 0 c -0.4407,0.2559 -1.0054,0.1061 -1.2613,-0.3346 v 0 c -0.256,-0.4407 -0.1062,-1.0054 0.3345,-1.2614 v 0 c 0.4407,-0.2559 1.0055,-0.1061 1.2614,0.3346 v 0 c 0.2559,0.4407 0.1061,1.0054 -0.3346,1.2614 -0.6374,0.2904 -1.3293,0.2008 -1.6415,0.1516 v 0 c -0.5244,-0.1098 -0.8606,-0.6239 -0.7508,-1.1484 v 0 c 0.1098,-0.5244 0.6239,-0.8606 1.1483,-0.7508 v 0 c 0.5245,0.1098 0.8606,0.6239 0.7509,1.1484 v 0 c -0.1098,0.5244 -0.624,0.8606 -1.1484,0.7508 -0.3703,-0.0796 -0.9727,-0.2956 -1.3838,-0.7454 -0.328,-0.4893 -0.4501,-1.1878 -0.424,-1.6714 0.0651,-0.6658 0.4795,-1.4934 1.0518,-1.9216 0.7712,-0.4113 1.7909,-0.2919 2.3623,-0.0821 0.6607,0.2821 1.211,0.9592 1.448,1.5547 0.2177,0.5942 0.3006,1.3629 0.2266,1.9605 -0.077,0.4767 -0.3755,1.0149 -0.6884,1.3174 -0.3225,0.2831 -0.8108,0.5256 -1.2255,0.6329 -0.8182,0.1848 -1.9308,0.0509 -2.7463,-0.3974 -1.2657,-0.7515 -2.1504,-2.2615 -2.4292,-3.4887 -0.0982,-0.5108 -0.2074,-1.2775 -0.0178,-1.999 0.2153,-0.5881 0.8087,-1.2646 1.4489,-1.5468 0.5405,-0.1643 1.2168,-0.088 1.6487,0.0668 0.4193,0.1604 0.8722,0.4215 1.1968,0.653 0.8013,0.6013 1.2866,1.5186 1.5369,2.1566 0.1698,0.4345 0.3418,0.9716 0.3846,1.5154 0.0284,0.2801 0.0879,0.7427 0.007,1.2179 -0.0997,0.3417 -0.4011,0.7608 -0.6295,0.9454 -0.2332,0.1629 -0.576,0.3085 -0.8227,0.3731 -0.4862,0.1095 -1.1402,0.1 -1.6249,-0.007 -1.1862,-0.3846 -2.1592,-1.5648 -2.5869,-2.5176 -0.2184,-0.5201 -0.3537,-1.1996 -0.3393,-1.7385 0.0836,-0.7632 0.6463,-1.6664 1.3043,-2.056 0.7693,-0.3304 1.7877,-0.2677 2.4386,-0.0482 1.0719,0.4372 1.9482,1.5709 2.3509,2.3791 0.2161,0.4166 0.4238,1.1333 0.2954,1.7985 -0.232,0.6527 -0.9106,1.3072 -1.5201,1.5829 -0.9227,0.294 -2.043,0.1588 -2.7539,0.0216 -0.3804,-0.0735 -0.9199,-0.2293 -1.3593,-0.4976 -0.6496,-0.5415 -1.1012,-1.5782 -1.054,-2.3337 0.1574,-0.4546 0.5741,-0.9356 0.8397,-1.0745 v 0 c 0.5381,-0.3588 1.2652,-0.2135 1.624,0.3246 v 0 c 0.3588,0.5381 0.2135,1.2651 -0.3246,1.6239 v 0 c -0.5381,0.3588 -1.2652,0.2135 -1.624,-0.3246 v 0 c -0.3588,-0.5381 -0.2135,-1.2651 0.3246,-1.6239 0.2447,-0.1043 0.5586,-0.1925 0.8029,-0.225 v 0 c 0.5512,-0.1704 1.1363,0.1384 1.3066,0.6896 v 0 c 0.1704,0.5513 -0.1384,1.1363 -0.6896,1.3067 v 0 c -0.5513,0.1704 -1.1363,-0.1384 -1.3067,-0.6897 v 0 c -0.1704,-0.5512 0.1384,-1.1363 0.6897,-1.3066 0.4642,-0.0531 1.0207,-0.0631 1.489,-0.0454 v 0 c 0.4331,-0.0622 0.8346,0.2385 0.8968,0.6716 v 0 c 0.0623,0.4331 -0.2384,0.8346 -0.6715,0.8968 v 0 c -0.4331,0.0622 -0.8346,-0.2384 -0.8969,-0.6715 v 0 c -0.0622,-0.4331 0.2385,-0.8347 0.6716,-0.8969 0.1648,0.0706 0.3263,0.1432 0.4755,0.2176 v 0 c 0.2803,-0.0373 0.5378,0.1598 0.575,0.4401 v 0 c 0.0373,0.2803 -0.1597,0.5378 -0.4401,0.575 -0.1241,0.1108 -0.2529,0.2222 -0.3844,0.3356 -0.4235,0.1458 -0.8194,0.2961 -1.097,0.4731 -0.1282,0.0825 -0.1334,0.1273 -0.1238,0.1791 0.035,0.0147 0.3051,-0.2895 0.436,-0.5406 -0.0389,-0.0935 -0.0908,-0.2184 0.0322,-0.2189 0.003,0.0405 0.0621,0.0499 0.372,0.1266 0.6276,0.1544 1.1348,0.2818 1.3145,0.1727 0.2302,-0.0314 0.1661,0.0813 0.1372,0.0945 0.0444,0.1204 0.0457,0.24 -0.0963,-0.0771 -0.2851,-0.6029 -0.6633,-1.1762 -1.0233,-1.2235 -0.3675,-0.1261 -0.5514,-0.16 -0.6205,-0.0487 -0.1241,0.0219 -0.0528,-0.0762 -0.022,0.1228 -0.0279,0.2316 10e-4,0.4011 0.1276,0.6983 0.257,0.6703 0.5962,1.1923 1.0149,1.2365 0.2179,0.0803 0.3816,0.1013 0.5716,0.0633 0.0877,-0.009 0.0457,0.0184 0.0472,0.0146 0.002,0.02 -0.135,0.2269 -0.1709,0.3058 0.046,-0.0499 0.0182,-0.2389 0.007,-0.5938 -0.009,-0.283 -0.0951,-0.5107 -0.2483,-0.9014 -0.2162,-0.5527 -0.3872,-0.97 -0.8131,-1.2289 -0.2466,-0.1694 -0.4777,-0.2997 -0.7266,-0.3806 -0.2364,-0.0863 -0.2126,-0.1008 -0.1812,-0.0647 -0.1759,0.0402 -0.1596,0.0491 -0.1923,0.2434 -0.102,0.1999 -0.0305,0.4771 0.0577,0.978 0.1127,0.8969 0.531,1.7869 1.3222,2.2484 0.4455,0.296 0.8953,0.3513 1.365,0.2291 0.231,-0.0458 0.3189,-0.0807 0.4317,-0.1918 0.1237,-0.0921 0.1209,-0.0659 0.1277,-0.2096 0.0559,-0.366 0.0185,-0.7156 -0.1295,-1.0761 -0.1287,-0.3592 -0.1895,-0.4733 -0.3804,-0.4991 -0.3782,-0.1338 -0.6798,-0.2101 -0.6964,-0.0823 -0.1713,0.0807 -0.2097,0.2061 -0.199,0.4942 -0.0175,0.2836 -0.0219,0.3622 0.043,0.3773 -0.0413,0.0254 -0.0616,-0.0329 0.2586,0.032 0.3191,0.083 0.4207,0.1701 0.3186,0.1509 0.2123,-0.0605 0.3336,-0.1877 0.4585,-0.4675 0.144,-0.2788 0.1918,-0.4315 0.1283,-0.5825 v 0 c -0.1704,-0.3639 -0.0135,-0.7969 0.3503,-0.9672 v 0 c 0.3638,-0.1704 0.7968,-0.0135 0.9672,0.3503" /><path
           id="path62"
           style="fill:#a400c7;fill-opacity:1;fill-rule:nonzero;stroke:none"
           d="m 323.9183,552.7933 c -0.0545,0.0114 -0.186,0.0806 -0.1874,0.0427 v 0 c 0.2632,-0.3426 0.7543,-0.4069 1.0969,-0.1437 v 0 c 0.3426,0.2632 0.4069,0.7543 0.1437,1.0969 v 0 c -0.2633,0.3425 -0.7543,0.4069 -1.0969,0.1436 v 0 c -0.3426,-0.2632 -0.4069,-0.7543 -0.1437,-1.0968 0.0128,-0.0393 0.007,-0.0716 0.0313,-0.1986 v 0 c 0.1551,-0.4355 0.6339,-0.6628 1.0694,-0.5077 v 0 c 0.4355,0.1551 0.6628,0.6338 0.5077,1.0693 v 0 c -0.1551,0.4356 -0.6338,0.6629 -1.0694,0.5078 v 0 c -0.4355,-0.1551 -0.6628,-0.6339 -0.5077,-1.0694 0.0586,-0.263 0.0869,-0.6217 0.106,-1.1191 v 0 c 0.0589,-0.5196 0.5278,-0.893 1.0474,-0.8341 v 0 c 0.5195,0.0589 0.8929,0.5278 0.834,1.0474 v 0 c -0.0589,0.5195 -0.5278,0.8929 -1.0473,0.834 v 0 c -0.5195,-0.0589 -0.893,-0.5278 -0.8341,-1.0473 0.0413,-1 -0.01,-2.3127 -0.08,-3.6625 0.0189,-1.3538 0.0246,-2.6837 0.0486,-3.6095 0.0243,-0.5307 0.0291,-1.042 0.1337,-1.4443 0.0966,-0.2214 0.4134,-0.5856 0.6349,-0.7024 0.2223,-0.0667 0.5763,-0.0786 0.7336,-0.0373 v 0 c 0.5237,0.118 0.8526,0.6383 0.7346,1.1621 v 0 c -0.118,0.5238 -0.6383,0.8527 -1.1621,0.7346 v 0 c -0.5237,-0.118 -0.8527,-0.6383 -0.7346,-1.162 v 0 c 0.118,-0.5238 0.6383,-0.8527 1.1621,-0.7347 0.2644,0.1165 0.5891,0.3912 0.7185,0.6207 v 0 c 0.261,0.4138 0.1372,0.9608 -0.2766,1.2218 v 0 c -0.4137,0.261 -0.9607,0.1372 -1.2217,-0.2766 v 0 c -0.261,-0.4137 -0.1372,-0.9607 0.2765,-1.2217 v 0 c 0.4138,-0.261 0.9608,-0.1372 1.2218,0.2765 0.1865,0.5581 0.1055,1.1906 0.064,1.5937 v 0 c 0.0301,0.3617 -0.2387,0.6793 -0.6004,0.7095 v 0 c -0.3617,0.0301 -0.6794,-0.2387 -0.7095,-0.6004 v 0 c -0.0301,-0.3617 0.2387,-0.6794 0.6004,-0.7095 v 0 c 0.3617,-0.0301 0.6793,0.2387 0.7095,0.6004 -0.0174,0.3746 -0.0365,0.7154 0.0791,1.4781 v 0 c 0.0596,0.2764 -0.1161,0.5489 -0.3925,0.6085 v 0 c -0.2765,0.0597 -0.5489,-0.116 -0.6086,-0.3925 -0.2186,-0.7858 -0.3084,-1.2131 -0.3879,-1.585 -0.1151,-0.4797 -0.165,-0.8805 -0.2529,-0.7584 0.0293,0.071 0.2128,0.2448 0.3407,0.3288 0.107,0.0301 0.403,0.0215 0.5789,-0.0231 0.1742,-0.0943 0.4555,-0.4164 0.535,-0.575 0.006,-0.0397 0.0434,0.3318 0.0584,0.907 0.008,0.9043 0.0351,2.2303 0.0486,3.5954 -0.0759,1.3665 -0.1747,2.7783 -0.3707,3.8711 -0.0995,0.5489 -0.2371,1.0796 -0.4103,1.4674 -0.0913,0.1984 -0.2297,0.4329 -0.3678,0.5901 -0.1524,0.1587 -0.4537,0.3559 -0.6989,0.4152 v 0 c -0.3897,0.0978 -0.7848,-0.1387 -0.8827,-0.5283 v 0 c -0.0978,-0.3897 0.1388,-0.7849 0.5284,-0.8827 z" /><path
           id="path64"
           style="fill:#a400c7;fill-opacity:1;fill-rule:nonzero;stroke:none"
           d="m 322.9096,552.4218 c -0.1516,0.3891 -0.4335,0.7012 -0.5544,0.9012 v 0 c -0.2008,0.337 -0.6367,0.4474 -0.9737,0.2467 v 0 c -0.337,-0.2007 -0.4475,-0.6366 -0.2467,-0.9736 v 0 c 0.2007,-0.337 0.6366,-0.4475 0.9736,-0.2468 v 0 c 0.337,0.2008 0.4475,0.6367 0.2468,0.9737 0.0391,-0.0317 0.089,-0.2686 0.1444,-0.307 v 0 c 0.2178,0.4175 0.056,0.9325 -0.3615,1.1504 v 0 c -0.4175,0.2178 -0.9325,0.056 -1.1503,-0.3615 v 0 c -0.2179,-0.4175 -0.056,-0.9326 0.3615,-1.1504 v 0 c 0.4175,-0.2178 0.9325,-0.056 1.1503,0.3615 0.0234,-0.0212 -0.0268,-0.1265 0.0626,-0.1532 v 0 c 0.5061,0.2142 0.7427,0.7981 0.5285,1.3042 v 0 c -0.2141,0.5061 -0.798,0.7427 -1.3041,0.5286 v 0 c -0.5061,-0.2142 -0.7428,-0.7981 -0.5286,-1.3042 v 0 c 0.2142,-0.5061 0.7981,-0.7427 1.3042,-0.5286 0.5666,0.2752 2.6718,-0.3661 4.4166,-1.3543 0.8315,-0.3991 1.4021,-0.811 1.8359,-1.2675 0.4301,-0.4307 0.5623,-0.6342 0.5532,-0.8179 0.0241,0.0285 0.0876,0.2167 0.0488,0.1799 -0.0337,-0.0618 -0.0606,-0.0814 -0.2142,-0.1741 -0.3162,-0.205 -0.7381,-0.3501 -1.2157,-0.471 v 0 c -0.5836,-0.1433 -0.9406,-0.7327 -0.7973,-1.3164 v 0 c 0.1434,-0.5836 0.7327,-0.9406 1.3164,-0.7973 v 0 c 0.5837,0.1434 0.9406,0.7327 0.7973,1.3164 v 0 c -0.1433,0.5837 -0.7327,0.9406 -1.3164,0.7973 -0.3166,-0.1013 -0.6355,-0.1456 -1.0076,-0.2243 v 0 c -0.5606,-0.089 -0.9429,-0.6155 -0.854,-1.1761 v 0 c 0.089,-0.5606 0.6156,-0.943 1.1762,-0.854 v 0 c 0.5606,0.089 0.9429,0.6155 0.8539,1.1761 v 0 c -0.0889,0.5606 -0.6155,0.943 -1.1761,0.854 -0.3712,-0.0974 -0.88,-0.2806 -1.27,-0.5876 v 0 c -0.4103,-0.2963 -0.5027,-0.8691 -0.2064,-1.2794 v 0 c 0.2963,-0.4104 0.8691,-0.5028 1.2794,-0.2065 v 0 c 0.4104,0.2963 0.5028,0.8691 0.2065,1.2795 v 0 c -0.2963,0.4103 -0.8691,0.5027 -1.2795,0.2064 -0.1931,-0.3138 -0.3768,-0.744 -0.4338,-1.1679 v 0 c -0.1215,-0.2553 -0.0131,-0.5608 0.2423,-0.6824 v 0 c 0.2553,-0.1215 0.5608,-0.013 0.6824,0.2423 0.2307,0.1807 0.3875,0.1559 0.5821,0.1221 0.127,0.0664 0.2191,0.0343 0.5192,0.0434 0.2992,0.0278 0.7222,0.0463 1.2039,0.1406 0.579,0.1385 1.2906,0.3816 1.8365,0.697 0.2775,0.1674 0.6137,0.4409 0.8326,0.7071 0.2122,0.2885 0.416,0.8368 0.4254,1.2584 -0.0438,0.7404 -0.4729,1.6411 -1.0516,2.3158 -0.5744,0.649 -1.4592,1.3437 -2.4504,1.8762 -2.0657,0.9584 -4.8436,1.5823 -6.3111,0.997 -0.3186,-0.1993 -0.6675,-0.5738 -0.7984,-0.8898 -0.0998,-0.3358 -0.0607,-0.8956 0.1463,-1.2095 0.1976,-0.3346 0.4108,-0.5684 0.38,-0.5873 v 0 c 0.114,-0.3852 0.5187,-0.6051 0.9039,-0.4911 v 0 c 0.3852,0.114 0.605,0.5187 0.4911,0.9039 z" /><path
           id="path66"
           style="fill:#006fff;fill-opacity:1;fill-rule:nonzero;stroke:none"
           d="m 193.7747,559.0128 c -0.2346,-0.007 -0.2043,0.002 -0.2062,0.0514 v 0 c -0.3363,0.268 -0.8261,0.2126 -1.0941,-0.1237 v 0 c -0.268,-0.3363 -0.2126,-0.8262 0.1237,-1.0941 v 0 c 0.3363,-0.268 0.8262,-0.2126 1.0941,0.1237 v 0 c 0.268,0.3363 0.2126,0.8261 -0.1237,1.0941 -0.01,-0.005 0.0709,-0.1298 0.0976,-0.0267 v 0 c -0.01,0.4582 -0.3892,0.8216 -0.8474,0.8118 v 0 c -0.4582,-0.01 -0.8216,-0.3892 -0.8118,-0.8473 v 0 c 0.01,-0.4582 0.3892,-0.8216 0.8473,-0.8118 v 0 c 0.4582,0.01 0.8217,0.3892 0.8119,0.8473 -4e-4,0.2593 0.2159,0.6591 0.7032,1.227 v 0 c 0.314,0.4079 0.2377,0.9932 -0.1702,1.3072 v 0 c -0.408,0.3139 -0.9933,0.2377 -1.3072,-0.1703 v 0 c -0.314,-0.4079 -0.2378,-0.9932 0.1702,-1.3072 v 0 c 0.408,-0.3139 0.9932,-0.2377 1.3072,0.1703 1.984,2.594 7.2974,5.7942 14.2255,8.6804 4.0129,1.6771 8.4218,3.2564 12.673,4.2919 2.087,0.5103 4.032,0.9088 6.1016,1.3107 3.9659,0.7664 8.0484,1.4677 11.3594,1.6865 5.4703,0.3762 9.4272,0.239 13.647,-0.5838 3.6944,-0.707 6.4471,-2.6846 9.7862,-4.2292 4.8251,-2.2224 10.8138,-4.0871 16.2197,-5.1438 4.3752,-0.8377 8.6427,-1.0394 12.1789,-1.0035 3.7539,0.0475 8.0696,0.6668 11.0329,1.42 2.844,0.7319 5.5275,0.5916 8.1135,0.488 3.1402,-0.1365 7.7131,-0.721 12.4611,-2.5161 3.2956,-1.228 6.8084,-2.4881 9.5374,-4.6401 4.0385,-3.1559 8.3748,-7.8438 12.6972,-11.31 3.704,-2.9563 7.1387,-6.6525 12.0044,-9.3412 3.6964,-2.0304 8.2707,-3.2262 13.98,-3.5936 5.648,-0.3412 12.3934,-0.7622 18.9635,-0.6996 3.4685,0.0212 6.9693,0.2023 10.1524,0.7134 1.7324,0.2845 3.4359,0.7101 5.1223,1.3037 2.47,0.8648 4.9712,2.149 7.1972,3.3022 1.2465,0.6326 2.3841,1.2095 3.4143,1.7289 v 0 c 0.5486,0.2854 0.7619,0.9614 0.4765,1.51 v 0 c -0.2853,0.5486 -0.9614,0.762 -1.51,0.4766 v 0 c -0.5486,-0.2854 -0.7619,-0.9615 -0.4765,-1.51 v 0 c 0.2853,-0.5486 0.9614,-0.762 1.51,-0.4766 1.0264,0.5262 1.9443,0.9943 2.757,1.4049 v 0 c 0.56,0.2882 0.7803,0.9757 0.492,1.5357 v 0 c -0.2882,0.5599 -0.9757,0.7802 -1.5357,0.492 v 0 c -0.5599,-0.2882 -0.7802,-0.9758 -0.492,-1.5357 v 0 c 0.2882,-0.56 0.9758,-0.7802 1.5357,-0.492 1.1839,0.681 2.1224,1.2275 2.8294,1.6394 v 0 c 0.4714,0.2271 0.6694,0.7934 0.4423,1.2648 v 0 c -0.2271,0.4714 -0.7933,0.6694 -1.2647,0.4423 v 0 c -0.4714,-0.2271 -0.6695,-0.7933 -0.4424,-1.2647 v 0 c 0.2271,-0.4714 0.7934,-0.6695 1.2648,-0.4424 0.5489,0.4256 0.919,0.7501 1.1409,0.9841 v 0 c 0.2658,0.0964 0.4033,0.39 0.3069,0.6559 v 0 c -0.0963,0.2658 -0.3899,0.4033 -0.6558,0.3069 -0.3753,0.0177 -0.9219,-0.0674 -1.6144,-0.2398 -0.7827,-0.3058 -1.8013,-0.7487 -3.0503,-1.3186 -0.8099,-0.4246 -1.7257,-0.9071 -2.7472,-1.4462 -1.0178,-0.546 -2.1422,-1.1492 -3.3745,-1.8075 -2.218,-1.1617 -4.5824,-2.3931 -6.9055,-3.2123 -1.5948,-0.5593 -3.1137,-0.9339 -4.7618,-1.1986 -3.0632,-0.5031 -6.4053,-0.6813 -9.8262,-0.7096 -6.4923,-0.0324 -13.1615,0.4163 -18.8095,0.7886 -5.5244,0.342 -9.6241,1.405 -13.0651,3.3091 -4.5761,2.5158 -7.8437,6.0889 -11.6658,9.1665 -4.1835,3.3529 -8.5214,8.0502 -12.7058,11.3387 -3.0289,2.3612 -6.8427,3.7687 -10.1251,5.0019 -4.9933,1.8502 -9.9117,2.4732 -13.1674,2.5968 -2.5777,0.1054 -5.5934,0.2376 -8.7466,-0.5476 -2.8304,-0.7127 -6.9158,-1.2901 -10.5129,-1.3195 -3.4667,-0.0376 -7.5116,0.1472 -11.7323,0.9596 -5.2872,0.9948 -11.0538,2.754 -15.7524,4.8864 -3.1772,1.4343 -6.1875,3.511 -10.2832,4.3129 -4.3756,0.842 -8.6214,0.9874 -14.1817,0.6021 -3.4256,-0.2454 -7.6186,-0.9794 -11.6027,-1.7648 -2.0789,-0.4075 -4.0716,-0.82 -6.1929,-1.3421 -4.352,-1.0754 -8.8979,-2.7145 -12.9559,-4.4226 -7.0347,-2.9709 -12.6682,-6.4148 -14.944,-9.3522 -0.5476,-0.7769 -0.9054,-1.6976 -0.8851,-2.3997 0.0369,-0.3776 0.2763,-0.8935 0.5921,-1.1564 0.3217,-0.2083 0.8418,-0.3251 1.2792,-0.2839 v 0 c 0.4007,0.0285 0.7024,0.3765 0.6738,0.7772 v 0 c -0.0286,0.4007 -0.3766,0.7024 -0.7773,0.6739 z" /></g></g></g></svg>