<?xml version="1.0" encoding="UTF-8" standalone="no"?>
<svg
   xmlns:dc="http://purl.org/dc/elements/1.1/"
   xmlns:cc="http://creativecommons.org/ns#"
   xmlns:rdf="http://www.w3.org/1999/02/22-rdf-syntax-ns#"
   xmlns:svg="http://www.w3.org/2000/svg"
   xmlns="http://www.w3.org/2000/svg"
   viewBox="0 0 371.11176 359.2392"
   height="359.2392"
   width="371.11176"
   xml:space="preserve"
   id="svg2"
   version="1.1"><metadata
     id="metadata8"><rdf:RDF><cc:Work
         rdf:about=""><dc:format>image/svg+xml</dc:format><dc:type
           rdf:resource="http://purl.org/dc/dcmitype/StillImage" /></cc:Work></rdf:RDF></metadata><defs
     id="defs6"><clipPath
       id="clipPath14"
       clipPathUnits="userSpaceOnUse"><path
         id="path12"
         d="M 0,0 H 612 V 792 H 0 Z" /></clipPath><clipPath
       id="clipPath24"
       clipPathUnits="userSpaceOnUse"><path
         id="path22"
         d="M 0,0 H 612 V 792 H 0 Z" /></clipPath><clipPath
       id="clipPath62"
       clipPathUnits="userSpaceOnUse"><path
         id="path60"
         d="m 59.14286,72 h 493.7143 V 720 H 59.14286 Z" /></clipPath></defs><g
     clip-path="url(#clipPath14)"
     transform="matrix(1.3333333,0,0,-1.3333333,-113.51039,913.62893)"
     id="g10"><g
       id="g16" /><g
       id="g18"><g
         clip-path="url(#clipPath24)"
         id="g20"><g
           transform="matrix(0.8456908,0,0,0.8456908,72,720)"
           id="g26"><text
             id="text30"
             style="font-variant:normal;font-weight:normal;font-size:15px;writing-mode:lr-tb;fill:#000000;fill-opacity:0;fill-rule:nonzero;stroke:none"
             transform="matrix(1,0,0,-1,44.31378,-56.51987)"><tspan
               id="tspan28"
               y="0"
               x="0">3</tspan></text>
</g><g
           transform="matrix(0.8456908,0,0,0.8456908,72,720)"
           id="g32"><text
             id="text36"
             style="font-variant:normal;font-weight:normal;font-size:35px;writing-mode:lr-tb;fill:#000000;fill-opacity:0;fill-rule:nonzero;stroke:none"
             transform="matrix(1,0,0,-1,39.46564,-102.9847)"><tspan
               id="tspan34"
               y="0"
               x="0">q</tspan></text>
</g><g
           transform="matrix(0.8456908,0,0,0.8456908,72,720)"
           id="g38"><text
             id="text42"
             style="font-variant:normal;font-weight:normal;font-size:11px;writing-mode:lr-tb;fill:#000000;fill-opacity:0;fill-rule:nonzero;stroke:none"
             transform="matrix(1,0,0,-1,88.26105,-89.6644)"><tspan
               id="tspan40"
               y="0"
               x="0">z</tspan></text>
</g><g
           transform="matrix(0.8456908,0,0,0.8456908,72,720)"
           id="g44"><text
             id="text48"
             style="font-variant:normal;font-weight:normal;font-size:14px;writing-mode:lr-tb;fill:#000000;fill-opacity:0;fill-rule:nonzero;stroke:none"
             transform="matrix(1,0,0,-1,46.39777,-351.1029)"><tspan
               id="tspan46"
               y="0"
               x="0">3</tspan></text>
</g><g
           transform="matrix(0.8456908,0,0,0.8456908,72,720)"
           id="g50"><text
             id="text54"
             style="font-variant:normal;font-weight:normal;font-size:21px;writing-mode:lr-tb;fill:#000000;fill-opacity:0;fill-rule:nonzero;stroke:none"
             transform="matrix(1,0,0,-1,85.93121,-358.6859)"><tspan
               id="tspan52"
               y="0"
               x="0">I</tspan></text>
</g></g></g><g
       id="g56"><g
         clip-path="url(#clipPath62)"
         id="g58"><path
           id="path64"
           style="fill:#000000;fill-opacity:1;fill-rule:nonzero;stroke:none"
           d="m 324.3196,575.9408 c 0,-33.0876 -17.9018,-61.9942 -44.5486,-77.5618 -13.2784,-7.7575 -28.7282,-12.2032 -45.2164,-12.2032 -33.0876,0 -61.9942,17.9018 -77.5618,44.5486 -7.7575,13.2785 -12.2032,28.7282 -12.2032,45.2164 0,33.0876 17.9018,61.9942 44.5486,77.5618 13.2785,7.7575 28.7282,12.2032 45.2164,12.2032 33.0876,0 61.9942,-17.9018 77.5618,-44.5486 7.7575,-13.2785 12.2032,-28.7282 12.2032,-45.2164 m -1.9285,0 c 0,16.1333 -4.3493,31.2508 -11.9399,44.2436 -15.2333,26.0746 -43.5191,43.5929 -75.8966,43.5929 -16.1333,0 -31.2508,-4.3493 -44.2435,-11.9399 -26.0747,-15.2334 -43.5929,-43.5191 -43.5929,-75.8966 0,-16.1333 4.3492,-31.2508 11.9399,-44.2436 15.2333,-26.0746 43.519,-43.5929 75.8965,-43.5929 16.1333,0 31.2508,4.3493 44.2436,11.9399 26.0747,15.2334 43.5929,43.5191 43.5929,75.8966" /><path
           id="path66"
           style="fill:#000000;fill-opacity:1;fill-rule:nonzero;stroke:none"
           d="m 166.0974,586.6163 c -0.9882,-0.1849 -1.945,-0.3762 -2.869,-0.5736 0.004,0.0711 0.007,0.1443 0.01,0.2194 0.022,0.5298 0.0468,1.1351 0.0552,1.7332 0.9442,0.1969 1.9205,0.3877 2.9276,0.5723 -0.0433,-0.5851 -0.0956,-1.2543 -0.1238,-1.9513" /><path
           id="path68"
           style="fill:#000000;fill-opacity:1;fill-rule:nonzero;stroke:none"
           d="m 191.7618,589.5588 c -0.1174,-0.007 -0.2346,-0.0147 -0.3516,-0.0221 0.0873,0.3303 0.1734,0.6655 0.2517,0.9821 0.0583,0.241 0.1165,0.5915 0.1439,0.9624 0.0419,-0.5741 -0.004,-1.2347 -0.044,-1.9224" /><path
           id="path70"
           style="fill:#000000;fill-opacity:1;fill-rule:nonzero;stroke:none"
           d="m 222.9731,590.1976 c -2.4993,0.0411 -4.9663,0.0614 -7.3966,0.0614 -0.818,0 -1.6317,-0.002 -2.4412,-0.007 0.002,0.4659 0.006,0.9072 0.0182,1.2721 0.1108,0.2045 0.1926,0.4258 0.2406,0.6578 0.7241,0.004 1.4516,0.005 2.1824,0.005 2.4361,0 4.909,-0.0203 7.4141,-0.0615 0.0163,-0.5168 -0.0267,-1.1768 -0.0175,-1.9285" /><path
           id="path72"
           style="fill:#000000;fill-opacity:1;fill-rule:nonzero;stroke:none"
           d="m 232.5145,589.9427 c -1.6367,0.0603 -3.2626,0.1117 -4.8767,0.1545 0.0406,0.543 0.1188,1.1844 0.133,1.9257 1.6119,-0.043 3.2357,-0.0946 4.87,-0.1549 -0.005,-0.2179 -0.0148,-0.4799 -0.0293,-0.7756 -0.0157,-0.3628 -0.0529,-0.7515 -0.097,-1.1497" /><path
           id="path74"
           style="fill:#000000;fill-opacity:1;fill-rule:nonzero;stroke:none"
           d="m 239.9488,589.6124 c -0.8665,0.045 -1.7364,0.088 -2.6094,0.1287 0.035,0.3478 0.066,0.7086 0.0854,1.0707 0.004,0.0751 0.005,0.093 0.005,0.1109 0.0104,0.2418 0.0163,0.4915 0.0163,0.7436 0.9255,-0.0436 1.8473,-0.0898 2.765,-0.1386 0.003,-0.0789 0.01,-0.1584 0.0206,-0.2383 0.0815,-0.116 -0.1032,-0.7492 -0.2833,-1.677" /><path
           id="path76"
           style="fill:#000000;fill-opacity:1;fill-rule:nonzero;stroke:none"
           d="m 275.5739,586.3351 c -1.3148,0.1811 -2.6497,0.357 -4.0038,0.5275 0.0121,0.1453 0.0275,0.2872 0.0485,0.4303 0.012,0.0512 0.0224,0.1032 0.0312,0.1558 0.009,0.0552 0.0165,0.1103 0.0218,0.1652 0.0537,0.3132 0.1185,0.6709 0.1761,1.0632 1.4298,-0.1872 2.8386,-0.3807 4.225,-0.5801 -0.0419,-0.3602 -0.2678,-0.9785 -0.4988,-1.7619" /><path
           id="path78"
           style="fill:#000000;fill-opacity:1;fill-rule:nonzero;stroke:none"
           d="m 283.9675,585.0633 c -1.1791,0.196 -2.3794,0.3877 -3.5998,0.5749 0.1386,0.5287 0.2791,1.1234 0.3635,1.7532 1.3306,-0.212 2.6377,-0.4296 3.92,-0.6525 -0.1659,-0.4251 -0.3611,-0.8729 -0.5721,-1.3956 -0.0362,-0.0897 -0.0736,-0.1833 -0.1116,-0.28" /><path
           id="path80"
           style="fill:#000000;fill-opacity:1;fill-rule:nonzero;stroke:none"
           d="m 292.4166,583.5097 c -1.1697,0.2377 -2.368,0.4708 -3.5934,0.699 0.2051,0.5035 0.4229,1.053 0.6173,1.6515 1.1446,-0.2216 2.2659,-0.4475 3.3631,-0.6775 -0.008,-0.1398 -0.0243,-0.2804 -0.0536,-0.437 -0.009,-0.0377 -0.018,-0.0759 -0.0256,-0.1145 -0.008,-0.0388 -0.0145,-0.0777 -0.0203,-0.1165 -0.0613,-0.2848 -0.1695,-0.6225 -0.2875,-1.005" /><path
           id="path82"
           style="fill:#000000;fill-opacity:1;fill-rule:nonzero;stroke:none"
           d="m 299.9479,581.8159 c -0.9122,0.2275 -1.8489,0.4519 -2.8094,0.6729 0.1088,0.3565 0.2236,0.7597 0.3174,1.2028 0.0273,0.1429 0.0511,0.291 0.0716,0.4411 1.0483,-0.2473 2.0698,-0.4984 3.0634,-0.7531 -0.2184,-0.4727 -0.4365,-1.0066 -0.643,-1.5637" /><path
           id="path84"
           style="fill:#000000;fill-opacity:1;fill-rule:nonzero;stroke:none"
           d="m 314.552,576.9391 c -0.6376,0.3048 -1.3167,0.6069 -2.036,0.9061 0.1449,0.4523 0.27,0.9366 0.3406,1.399 0.015,0.0778 0.0264,0.1571 0.0339,0.2377 0.8046,-0.3247 1.5657,-0.6522 2.2817,-0.9823 -0.0224,-0.0344 -0.0441,-0.0696 -0.065,-0.1055 -0.0872,-0.1496 -0.1564,-0.3048 -0.2084,-0.463 -0.129,-0.3125 -0.2434,-0.6476 -0.3468,-0.992" /><path
           id="path86"
           style="fill:#000000;fill-opacity:1;fill-rule:nonzero;stroke:none"
           d="m 323.1497,570.6599 c -0.0813,-1.9725 -1.6271,-3.9144 -4.8016,-5.6189 -9.7119,-5.2147 -34.8364,-8.5615 -65.9625,-8.5615 -6.1636,0 -12.5629,0.1298 -19.1236,0.4001 -45.9687,1.8939 -83.1608,10.2158 -87.8443,18.7248 -0.4395,0.7985 -0.6383,1.602 -0.6053,2.4028 0.0688,1.6682 1.1851,3.3146 3.4483,4.814 0.1258,-0.6128 0.289,-1.2947 0.521,-1.967 -1.2472,-0.9028 -1.9984,-1.8607 -2.0423,-2.9264 -0.0193,-0.4671 0.1131,-0.9306 0.3679,-1.3934 3.0784,-5.593 20.6751,-10.8208 45.3852,-14.2167 0.4131,-0.1959 0.8215,-0.3755 1.2072,-0.5214 0.6516,-0.2405 1.3405,-0.1818 1.9159,0.1068 11.4157,-1.4629 24.218,-2.5401 37.7258,-3.0966 6.5334,-0.2691 12.9062,-0.3984 19.0442,-0.3984 30.6693,0 55.4726,3.1894 65.0501,8.332 2.2678,1.2176 3.7254,2.5021 3.787,3.9992 0.0193,0.4671 -0.1131,0.9306 -0.3679,1.3934 -0.4222,0.7671 -1.1174,1.5273 -2.0667,2.2768 0.0695,0.2896 0.1326,0.5528 0.1925,0.7789 0.3332,0.1661 0.6172,0.4048 0.8364,0.6914 1.2878,-0.9311 2.2077,-1.8729 2.7274,-2.8171 0.4395,-0.7985 0.6383,-1.602 0.6053,-2.4028" /><path
           id="path88"
           style="fill:#000000;fill-opacity:1;fill-rule:nonzero;stroke:none"
           d="m 308.0086,579.5105 c -1.0715,0.355 -2.2003,0.7045 -3.3836,1.0481 0.0948,0.2403 0.1903,0.466 0.2885,0.6814 0.0182,0.0347 0.0357,0.07 0.0524,0.1059 0.0173,0.0374 0.0336,0.0749 0.0489,0.1126 0.0917,0.1969 0.1894,0.4057 0.2872,0.6251 0.8106,-0.2399 1.5971,-0.4822 2.3587,-0.727 -0.1296,-0.6317 0.002,-1.2897 0.3479,-1.8461" /><path
           id="path90"
           style="fill:#000000;fill-opacity:1;fill-rule:nonzero;stroke:none"
           d="m 266.7862,587.4334 c -1.5534,0.1754 -3.1288,0.3437 -4.7247,0.5048 -0.0169,0.719 -0.0345,1.3877 -0.0336,1.8898 1.7053,-0.1775 3.3873,-0.3637 5.0442,-0.5583 -0.0533,-0.3073 -0.1191,-0.6411 -0.1832,-1.0229 -0.0445,-0.2771 -0.0775,-0.5499 -0.1027,-0.8134" /><path
           id="path92"
           style="fill:#000000;fill-opacity:1;fill-rule:nonzero;stroke:none"
           d="m 257.2328,588.3973 c -4.0376,0.3609 -8.1907,0.6753 -12.436,0.9387 0.107,0.5857 0.2119,1.2397 0.2292,1.9106 4.1727,-0.2659 8.2524,-0.5842 12.2195,-0.9497 -0.024,-0.6001 -0.0222,-1.2531 -0.0127,-1.8996" /><path
           id="path94"
           style="fill:#000000;fill-opacity:1;fill-rule:nonzero;stroke:none"
           d="m 208.3138,590.1981 c -4.0328,-0.0685 -7.9433,-0.1941 -11.7081,-0.3736 0.0375,0.6393 0.0759,1.2964 0.093,1.9269 3.7518,0.18 7.6454,0.3061 11.6587,0.375 -0.0308,-0.5796 -0.0412,-1.27 -0.0436,-1.9283" /><path
           id="path96"
           style="fill:#000000;fill-opacity:1;fill-rule:nonzero;stroke:none"
           d="m 186.3862,589.1768 c -1.8566,-0.149 -3.6651,-0.3126 -5.422,-0.4903 0.0632,0.6265 0.1645,1.2774 0.2419,1.9394 1.8266,0.1833 3.707,0.3517 5.6374,0.5044 -0.0894,-0.3463 -0.1833,-0.6973 -0.2758,-1.0334 -0.08,-0.3065 -0.1386,-0.62 -0.1815,-0.9201" /><path
           id="path98"
           style="fill:#000000;fill-opacity:1;fill-rule:nonzero;stroke:none"
           d="m 176.0902,588.1408 c -1.7725,-0.2188 -3.4818,-0.4532 -5.1235,-0.7028 0.0368,0.6197 0.0785,1.2789 0.0894,1.9323 1.6753,0.2517 3.4178,0.4882 5.2233,0.7088 -0.0677,-0.5115 -0.1352,-1.0807 -0.1749,-1.6967 -0.005,-0.0791 -0.01,-0.1597 -0.0143,-0.2416" /><path
           id="path100"
           style="fill:#000000;fill-opacity:1;fill-rule:nonzero;stroke:none"
           d="m 158.3486,584.8586 c -2.0015,-0.5535 -3.7809,-1.1439 -5.3178,-1.7686 -0.0969,0.5513 -0.1843,1.2554 -0.3045,1.9454 1.6561,0.6427 3.5672,1.2503 5.7113,1.8193 -0.004,-0.0986 -0.008,-0.1974 -0.0124,-0.2959 -0.003,-0.0339 -0.005,-0.0681 -0.006,-0.1024 -10e-4,-0.0332 -0.002,-0.0663 -0.002,-0.0993 -0.0218,-0.4869 -0.0581,-0.9943 -0.0681,-1.4985" /><path
           id="path102"
           style="fill:#000000;fill-opacity:1;fill-rule:nonzero;stroke:none"
           d="m 247.7051,617.0305 c -0.2438,2.6179 -0.5104,5.1583 -0.7983,7.6128 0.3586,0.042 0.7086,0.0869 1.0394,0.1241 0.26,0.0294 0.5165,0.0609 0.7681,0.0923 0.2892,-2.4454 0.5576,-4.9744 0.8035,-7.5791 -0.6774,-0.089 -1.2472,-0.2084 -1.7118,-0.2468 -0.0335,-4e-4 -0.0671,-0.002 -0.1009,-0.003" /><path
           id="path104"
           style="fill:#000000;fill-opacity:1;fill-rule:nonzero;stroke:none"
           d="m 248.4543,607.7033 c -0.1041,1.5279 -0.2155,3.0353 -0.3341,4.5208 0.6963,0.0589 1.3248,0.177 1.8189,0.2487 0.127,-1.5664 0.246,-3.1567 0.3569,-4.7695 -0.3752,5e-4 -0.7621,10e-5 -1.1446,-0.002 -0.2322,-0.002 -0.4652,-5e-4 -0.6971,0.002" /><path
           id="path106"
           style="fill:#000000;fill-opacity:1;fill-rule:nonzero;stroke:none"
           d="m 249.4932,576.0109 c -2e-4,1.4016 -0.006,2.7957 -0.0177,4.1814 0.5668,-0.007 1.1959,-0.004 1.8535,0.0116 0.0118,-1.3836 0.0178,-2.7754 0.0181,-4.1749 -0.1624,-0.002 -0.3243,-0.003 -0.4854,-0.005 -0.5062,-0.005 -0.9669,-0.0109 -1.3685,-0.0134" /><path
           id="path108"
           style="fill:#000000;fill-opacity:1;fill-rule:nonzero;stroke:none"
           d="m 249.4183,567.1119 c 0.0232,1.3587 0.041,2.7263 0.0535,4.102 0.4347,-0.0134 0.8658,-0.0151 1.2836,-0.0121 0.0533,-0.003 0.1071,-0.004 0.1612,-0.004 0.0533,5e-4 0.1061,0.003 0.1584,0.007 0.0832,8e-4 0.1663,0.002 0.2492,0.002 -0.013,-1.3475 -0.0316,-2.6867 -0.0555,-4.0172 -0.6687,-0.0186 -1.2992,-0.0502 -1.8504,-0.0781" /><path
           id="path110"
           style="fill:#000000;fill-opacity:1;fill-rule:nonzero;stroke:none"
           d="m 246.328,522.1074 c 0.1127,0.8414 0.2227,1.6948 0.3301,2.5598 0.5108,0.0293 1.0985,0.0486 1.715,0.0634 -0.1085,-0.8424 -0.2194,-1.6741 -0.3329,-2.4948 -0.5892,-0.0435 -1.1696,-0.0873 -1.7122,-0.1284" /><path
           id="path112"
           style="fill:#000000;fill-opacity:1;fill-rule:nonzero;stroke:none"
           d="m 244.957,513.2004 c 0.2293,1.2995 0.4513,2.6403 0.6657,4.0201 0.0921,0.006 0.1838,0.0125 0.2748,0.0193 0.4407,0.0331 0.9195,0.0695 1.417,0.107 -0.2163,-1.3583 -0.4398,-2.6808 -0.6701,-3.9655 -0.4848,-0.0409 -0.9735,-0.0924 -1.4557,-0.1522 -0.0418,-0.003 -0.0837,-0.007 -0.1257,-0.0128 -0.0356,-0.005 -0.071,-0.01 -0.106,-0.0159" /><path
           id="path114"
           style="fill:#000000;fill-opacity:1;fill-rule:nonzero;stroke:none"
           d="m 234.5546,486.2149 c -1.8067,0 -3.6466,1.3204 -5.3376,4.1435 -6.5854,10.9945 -11.4549,45.1324 -11.4549,85.5824 0,46.2332 6.5095,83.9577 14.4926,89.0144 0.7549,0.4781 1.5244,0.7115 2.2999,0.7115 1.8067,0 3.6466,-1.3204 5.3376,-4.1435 1.1236,-1.8759 2.1972,-4.4254 3.2053,-7.5652 -0.1812,-0.0179 -0.3613,-0.0366 -0.5399,-0.0558 -0.4556,-0.0494 -0.896,-0.1011 -1.3123,-0.1515 -0.9277,2.8034 -1.9127,5.0988 -2.9435,6.8199 -1.1872,1.9819 -2.3968,3.2422 -3.7472,3.2422 -0.4444,0 -0.8786,-0.1518 -1.3078,-0.4237 -1.4285,-0.9048 -2.7887,-2.8874 -4.0583,-5.7972 -0.4616,-0.3432 -0.8027,-0.8518 -0.9247,-1.4602 -0.061,-0.3044 -0.0618,-0.6068 -0.0106,-0.895 -0.903,-2.4845 -1.7535,-5.4542 -2.5424,-8.8484 -0.3439,-0.3956 -0.5618,-0.9056 -0.5877,-1.4699 -0.002,-0.0337 -0.003,-0.0763 -0.005,-0.1269 -0.009,-0.1194 -0.01,-0.2409 -7e-4,-0.3638 0.004,-0.0601 0.0109,-0.1195 0.0196,-0.1782 0.0106,-0.0811 0.0255,-0.162 0.0447,-0.2426 -3.4322,-16.1793 -5.5662,-40.7277 -5.5662,-68.0661 0,-39.9641 4.6794,-73.7577 11.1915,-84.6298 1.1871,-1.9819 2.3967,-3.2422 3.7471,-3.2422 0.4444,0 0.8786,0.1519 1.3079,0.4237 1.974,1.2504 3.8179,4.5592 5.472,9.5289 0.5237,-0.001 1.0897,-8e-4 1.6673,2e-4 -1.8645,-5.8369 -3.9501,-9.7034 -6.1473,-11.0952 -0.7548,-0.4781 -1.5244,-0.7115 -2.2999,-0.7115" /><path
           id="path116"
           style="fill:#000000;fill-opacity:1;fill-rule:nonzero;stroke:none"
           d="m 242.7472,502.8423 c 0.4314,1.6601 0.8465,3.4419 1.244,5.3365 0.5693,0.091 1.1361,0.1832 1.6779,0.2514 -0.4123,-1.9758 -0.8428,-3.8392 -1.2896,-5.5819 -0.5768,-0.004 -1.1148,-0.005 -1.6323,-0.006" /><path
           id="path118"
           style="fill:#000000;fill-opacity:1;fill-rule:nonzero;stroke:none"
           d="m 247.2185,529.5178 c 0.3417,3.1829 0.6488,6.5004 0.9184,9.9348 0.6109,0.0438 1.1963,0.0985 1.7871,0.1523 -0.2853,-3.4694 -0.6097,-6.8213 -0.97,-10.0395 -0.576,-0.0113 -1.1683,-0.0258 -1.7355,-0.0476" /><path
           id="path120"
           style="fill:#000000;fill-opacity:1;fill-rule:nonzero;stroke:none"
           d="m 248.4886,544.3162 c 0.0876,1.3236 0.1699,2.6624 0.2467,4.0155 0.5472,-0.002 1.1591,-0.007 1.8066,-0.0118 -0.0776,-1.2945 -0.1606,-2.5759 -0.2487,-3.8435 -0.6349,-0.0532 -1.2503,-0.1126 -1.8046,-0.1602" /><path
           id="path122"
           style="fill:#000000;fill-opacity:1;fill-rule:nonzero;stroke:none"
           d="m 248.9822,553.1491 c 0.1378,3.0031 0.2489,6.0684 0.3319,9.1863 0.5991,0.0299 1.2281,0.0681 1.8451,0.0991 -0.0886,-3.1565 -0.2077,-6.2577 -0.3556,-9.2948 -0.6254,0.004 -1.2398,0.008 -1.8214,0.009" /><path
           id="path124"
           style="fill:#000000;fill-opacity:1;fill-rule:nonzero;stroke:none"
           d="m 249.412,585.0133 c -0.0453,2.5192 -0.1094,5.0072 -0.1913,7.4593 0.6358,0.0884 1.1843,0.0607 1.8512,-0.0325 0.0823,-2.4382 0.1468,-4.9115 0.1926,-7.4154 -0.6834,-0.0179 -1.3086,-0.0206 -1.8525,-0.0114" /><path
           id="path126"
           style="fill:#000000;fill-opacity:1;fill-rule:nonzero;stroke:none"
           d="m 249.0347,597.2922 c -0.0828,1.8871 -0.1762,3.7502 -0.28,5.5873 0.118,-6e-4 0.2373,-8e-4 0.3573,-3e-4 0.1023,-6e-4 0.1266,0 0.1509,8e-4 0.4473,0.003 0.9,0.002 1.3363,10e-4 0.1053,-1.8441 0.2002,-3.7141 0.2841,-5.6078 -0.6131,0.049 -1.2226,0.0613 -1.8486,0.0187" /><path
           id="path128"
           style="fill:#000000;fill-opacity:1;fill-rule:nonzero;stroke:none"
           d="m 246.3045,629.4254 c -0.365,2.7024 -0.7571,5.2825 -1.1744,7.7275 0.6066,0.0252 1.2216,0.0558 1.8226,0.0827 0.4093,-2.4083 0.795,-4.9432 1.1549,-7.5929 -0.1721,-0.0215 -0.342,-0.0424 -0.5091,-0.0621 -0.0635,-0.002 -0.1273,-0.007 -0.1915,-0.014 -0.0684,-0.008 -0.1357,-0.0182 -0.202,-0.0314 -0.3209,-0.0379 -0.6213,-0.0765 -0.9005,-0.1098" /><path
           id="path130"
           style="fill:#000000;fill-opacity:1;fill-rule:nonzero;stroke:none"
           d="m 244.2461,641.9435 c -0.5118,2.5639 -1.054,4.9418 -1.6235,7.1149 0.0946,0.0108 0.1897,0.0214 0.2852,0.0319 0.0552,0.002 0.1107,0.006 0.1665,0.0123 0.0556,0.006 0.1106,0.0139 0.1649,0.0235 0.4024,0.0425 0.8075,0.0812 1.2105,0.1159 0.5696,-2.2122 1.1127,-4.6252 1.6259,-7.2205 -0.6325,-0.0298 -1.2497,-0.0591 -1.8295,-0.078" /><path
           id="path132"
           style="fill:#000000;fill-opacity:1;fill-rule:nonzero;stroke:none"
           d="m 113.7874,637.0155 c 0.0567,1.1607 0.1451,1.8513 0.1955,3.3795 v 0 c -0.005,0.5097 -0.4222,0.9188 -0.9319,0.9138 v 0 c -0.5097,-0.005 -0.9189,-0.4222 -0.9139,-0.9319 v 0 c 0.005,-0.5096 0.4222,-0.9188 0.9319,-0.9138 v 0 c 0.5097,0.005 0.9188,0.4222 0.9139,0.9319 0.048,1.3368 0.0508,3.3195 0.1457,5.8869 v 0 c 0.008,0.6109 -0.4809,1.1127 -1.0918,1.1207 v 0 c -0.611,0.008 -1.1128,-0.4809 -1.1207,-1.0919 v 0 c -0.008,-0.6109 0.4808,-1.1127 1.0918,-1.1207 v 0 c 0.6109,-0.008 1.1127,0.4809 1.1207,1.0919 0.0407,2.0777 0.2321,4.487 0.4666,6.7635 v 0 c 0.0611,0.6315 -0.4013,1.193 -1.0329,1.2541 v 0 c -0.6315,0.0611 -1.193,-0.4014 -1.2541,-1.0329 v 0 c -0.0611,-0.6316 0.4014,-1.193 1.0329,-1.2541 v 0 c 0.6316,-0.0611 1.193,0.4013 1.2541,1.0329 0.1703,1.9547 0.4,3.7482 0.5313,5.1733 0.1637,1.5579 0.2225,2.5674 0.247,3.337 0.006,0.2882 0.0159,0.6002 -0.0116,0.9076 -0.0162,0.1762 -0.009,0.3801 -0.0149,0.6119 -0.008,0.2398 -0.0985,0.7131 -0.3882,1.1379 -0.4377,0.289 -1.0606,0.324 -1.2142,0.2755 -0.1009,-0.0424 -0.235,-0.1166 -0.2945,-0.1571 -0.1005,-0.0718 -0.2259,-0.1757 -0.3213,-0.2631 -0.1877,-0.1741 -0.4175,-0.4123 -0.5804,-0.6062 -0.6272,-0.7041 -1.5871,-1.8385 -2.4087,-3.0422 -0.4352,-0.6576 -0.8719,-1.2896 -1.1823,-1.8118 -0.1783,-0.2805 -0.3336,-0.5733 -0.4235,-0.7781 -0.0475,-0.1125 -0.1032,-0.2905 -0.1305,-0.4368 -0.0113,-0.0974 0.005,-0.3713 0.0761,-0.6074 0.1614,-0.2716 0.8616,-0.6633 1.179,-0.6609 0.5754,0.2074 0.9344,0.546 1.1937,0.8571 0.2515,0.3037 0.5562,0.7139 0.8746,1.1566 0.6353,0.8829 1.3697,1.9532 2.0041,2.7871 0.599,0.7969 1.025,1.4563 1.3758,1.8057 0.2617,0.2592 0.3395,0.347 0.266,0.2598 -0.22,-0.0603 -0.6972,-0.0466 -0.8768,0.0112 -0.1465,0.0816 -0.3325,0.2338 -0.3729,0.2767 -0.033,0.056 -0.0599,0.1013 -0.0264,0.0188 0.0779,-0.18 0.1601,-0.4706 0.2537,-0.7938 0.2858,-0.9583 0.8279,-1.9362 1.2072,-2.5411 0.2088,-0.3247 0.4956,-0.675 0.7605,-0.9031 0.3887,-0.2523 0.9296,-0.4281 1.2785,-0.4335 0.3319,0.0209 0.9354,0.3839 1.0858,0.6186 0.0775,0.2036 0.1159,0.4599 0.1147,0.5536 -0.0126,0.1573 -0.0462,0.3178 -0.0678,0.3916 -0.0198,0.0746 -0.0346,0.1206 -0.0257,0.082 0.005,-0.0245 0.0202,-0.1679 -0.007,-0.449 -0.0427,-0.1381 -1.0282,-0.8142 -1.6608,-0.6039 v 0 c 0.4671,-0.3496 1.1293,-0.2544 1.4789,0.2127 v 0 c 0.3496,0.4671 0.2544,1.1292 -0.2127,1.4789 v 0 c -0.4671,0.3496 -1.1292,0.2544 -1.4788,-0.2127 v 0 c -0.3497,-0.4671 -0.2545,-1.1292 0.2126,-1.4789 0.0702,-0.0478 -0.1698,0.1601 -0.1875,0.1815 v 0 c 0.3657,-0.4545 1.0307,-0.5265 1.4852,-0.1607 v 0 c 0.4545,0.3657 0.5265,1.0307 0.1607,1.4852 v 0 c -0.3657,0.4545 -1.0307,0.5265 -1.4852,0.1607 v 0 c -0.4545,-0.3657 -0.5265,-1.0307 -0.1607,-1.4852 -0.0825,0.1198 -0.1074,0.1653 -0.1003,0.151 v 0 c 0.257,-0.5234 0.8897,-0.7394 1.4131,-0.4824 v 0 c 0.5235,0.2571 0.7394,0.8898 0.4824,1.4132 v 0 c -0.2571,0.5234 -0.8898,0.7394 -1.4132,0.4824 v 0 c -0.5234,-0.2571 -0.7394,-0.8898 -0.4823,-1.4132 0.1831,0.0385 0.3905,0.0224 0.6314,-0.0654 v 0 c 0.1193,-0.2563 0.4239,-0.3674 0.6803,-0.248 v 0 c 0.2563,0.1193 0.3674,0.4239 0.248,0.6803 0.0879,0.2408 0.2037,0.4214 0.3358,0.5639 -0.0185,0.0377 -0.0588,0.1121 -0.124,0.21 -0.045,0.0566 -0.2866,0.2661 -0.8506,0.429 -5e-4,4e-4 -0.9867,-0.6765 -1.0423,-0.8783 -0.0148,-0.2215 0.002,-0.3724 0.0103,-0.4154 0.0158,-0.0713 0.0291,-0.1194 0.0355,-0.1505 0.005,-0.0319 -0.004,0.01 -0.0147,0.0766 -4e-4,0.0486 0.0333,0.2669 0.0977,0.4441 0.1374,0.2083 0.7194,0.5572 1.0124,0.5811 0.0761,0.0172 0.1382,0.0272 0.1092,0.1273 -0.0667,0.0522 -0.1158,0.1239 -0.248,0.3469 -0.3406,0.5503 -0.7373,1.2498 -0.9177,1.9245 -0.0903,0.3215 -0.2048,0.7254 -0.3354,1.0544 -0.0711,0.1725 -0.2054,0.4268 -0.351,0.6186 -0.093,0.1069 -0.3349,0.3062 -0.5242,0.4073 -0.2499,0.0887 -0.7843,0.1049 -1.0534,0.0249 -0.4709,-0.2493 -0.8375,-0.6289 -1.084,-0.9092 -0.5044,-0.558 -0.9767,-1.3108 -1.5169,-2.0552 -0.6459,-0.8978 -1.3725,-2.0062 -1.9705,-2.8846 -0.2984,-0.4387 -0.5535,-0.8048 -0.7545,-1.0666 -0.1921,-0.2524 -0.1771,-0.2664 0.184,-0.0968 0.3246,0.004 1.0099,-0.3796 1.1696,-0.6469 0.0567,-0.2016 0.0715,-0.4441 0.0651,-0.5036 -0.0165,-0.0612 -0.0355,-0.1161 -0.0224,-0.076 0.0334,0.1075 0.0991,0.2542 0.2261,0.474 0.2801,0.4458 0.7079,1.0369 1.1681,1.7038 0.7472,1.1181 1.6171,2.1582 2.2171,2.8475 0.1208,0.128 0.2734,0.2705 0.4123,0.3824 0.0662,0.0536 0.0893,0.0686 0.0992,0.069 0.002,5e-4 -0.0825,-0.0465 -0.1649,-0.0827 -0.0957,-0.0274 -0.6913,0.008 -1.1291,0.2973 -0.1319,0.2556 -0.1834,0.4167 -0.1776,0.2634 0.007,-0.1613 0.004,-0.4306 0.0298,-0.7293 0.014,-0.156 6e-4,-0.3428 -0.0116,-0.645 -0.023,-0.7377 -0.0755,-1.659 -0.2351,-3.1775 -0.1635,-1.3804 -0.432,-3.1852 -0.644,-5.1806 -0.2087,-2.3063 -0.3776,-4.8052 -0.3921,-6.9559 0.0272,-2.6075 0.1471,-4.6212 0.221,-5.9338 0.08,-1.5035 0.1219,-2.188 0.1955,-3.3719 v 0 c 0.003,-0.4017 0.3309,-0.7251 0.7326,-0.7222 v 0 c 0.4017,0.003 0.7251,0.3309 0.7222,0.7327" /><path
           id="path134"
           style="fill:#000000;fill-opacity:1;fill-rule:nonzero;stroke:none"
           d="m 113.3492,637.0539 c -0.1956,-0.038 -0.0843,-1.4759 0.0917,-1.5071 v 0 c 0.4187,-0.0343 0.7859,0.2774 0.8201,0.6961 v 0 c 0.0343,0.4187 -0.2774,0.7859 -0.6961,0.8201 v 0 c -0.4187,0.0343 -0.7858,-0.2773 -0.8201,-0.696 v 0 c -0.0343,-0.4187 0.2774,-0.7859 0.6961,-0.8202 0.1199,-0.0201 0.3136,-0.0338 0.555,-0.0428 v 0 c 0.4385,0.004 0.7908,0.3624 0.7869,0.8009 v 0 c -0.004,0.4384 -0.3624,0.7907 -0.8008,0.7869 v 0 c -0.4385,-0.004 -0.7908,-0.3624 -0.7869,-0.8009 v 0 c 0.004,-0.4384 0.3624,-0.7907 0.8008,-0.7869 0.4781,-0.0179 1.2301,-0.02 2.1599,-0.0128 v 0 c 0.475,0.015 0.8478,0.4122 0.8328,0.8872 v 0 c -0.015,0.4749 -0.4122,0.8478 -0.8872,0.8328 v 0 c -0.475,-0.015 -0.8478,-0.4123 -0.8328,-0.8872 v 0 c 0.015,-0.475 0.4122,-0.8478 0.8872,-0.8328 1.8584,0.014 4.4477,0.0641 7.0427,0.0944 2.9434,0.0613 5.7182,0.0315 7.774,0.004 1.5972,0.002 2.5828,0.0101 3.4449,0.0152 0.4751,-0.007 0.9927,-0.0329 1.4952,-0.0219 0.2921,0.0155 0.6322,0.051 0.9059,0.1113 0.2904,0.0709 0.7672,0.3065 1.0808,0.6854 0.1008,0.1995 0.1708,0.5576 0.1642,0.7114 -0.0202,0.135 -0.0763,0.319 -0.1101,0.3968 -0.0702,0.1397 -0.1772,0.2966 -0.2476,0.3833 -0.132,0.1581 -0.3054,0.3269 -0.4244,0.4367 -0.4715,0.4191 -1.0799,0.7512 -1.6281,1.0654 -0.2471,0.1366 -0.5522,0.4128 -0.9226,0.656 -0.3774,0.2451 -0.8109,0.4817 -1.3181,0.5825 v 0 c -0.6248,0.007 -1.1367,-0.4943 -1.1434,-1.119 v 0 c -0.007,-0.6248 0.4942,-1.1367 1.119,-1.1435 v 0 c 0.6248,-0.007 1.1367,0.4943 1.1434,1.1191 v 0 c 0.007,0.6247 -0.4942,1.1367 -1.119,1.1434 -0.4613,-2.1545 -0.7158,-1.983 -0.7208,-1.9715 0.0102,0 0.0315,-0.0162 0.0832,-0.0668 0.1064,-0.1045 0.2939,-0.2969 0.5015,-0.4576 0.649,-0.4742 1.7293,-0.873 2.5787,-1.1919 0.4262,-0.1603 0.806,-0.2815 1.1084,-0.4108 v 0 c 0.4714,-0.2206 1.0324,-0.0173 1.253,0.4542 v 0 c 0.2206,0.4714 0.0172,1.0323 -0.4542,1.2529 v 0 c -0.4714,0.2206 -1.0324,0.0173 -1.253,-0.4541 v 0 c -0.2206,-0.4714 -0.0172,-1.0324 0.4542,-1.253 0.4361,-0.1897 0.6274,-0.2563 0.5743,-0.2719 v 0 c 0.1867,-0.465 0.715,-0.6908 1.1801,-0.5041 v 0 c 0.4651,0.1867 0.6908,0.715 0.5041,1.1801 v 0 c -0.1866,0.4651 -0.715,0.6908 -1.18,0.5041 v 0 c -0.4651,-0.1867 -0.6908,-0.715 -0.5042,-1.1801 -0.009,0.0731 -0.0179,0.2683 -0.0959,0.1685 v 0 c -0.233,-0.4796 -0.033,-1.0573 0.4466,-1.2903 v 0 c 0.4797,-0.233 1.0574,-0.033 1.2904,0.4466 v 0 c 0.2329,0.4797 0.033,1.0574 -0.4467,1.2904 v 0 c -0.4796,0.2329 -1.0573,0.033 -1.2903,-0.4467 -0.0894,-0.5992 -1.1216,-1.6628 -1.498,-2.9775 v 0 c -0.1024,-0.2636 0.0283,-0.5603 0.2919,-0.6627 v 0 c 0.2636,-0.1024 0.5603,0.0283 0.6627,0.2919 0.4771,0.8821 1.6704,1.6661 2.2801,2.5042 0.1321,0.3325 0.1956,0.9225 0.0432,1.3522 -0.3051,0.6123 -0.949,1.0495 -1.4597,1.3025 -0.3804,0.1902 -0.791,0.3499 -1.1669,0.5167 -0.8467,0.3739 -1.7066,0.7283 -1.972,1.0088 -0.0552,0.0566 -0.105,0.1384 -0.1902,0.2559 -0.0422,0.0586 -0.1042,0.139 -0.1677,0.2123 -0.0693,0.0761 -0.3784,0.2897 -0.865,0.3978 -0.3662,-2.1634 -0.1624,-2.2645 0.1618,-2.4566 0.2168,-0.1232 0.5819,-0.4285 1.0362,-0.6812 0.5818,-0.3139 1.0185,-0.5236 1.2656,-0.7474 0.0984,-0.0855 0.1764,-0.1546 0.2221,-0.2098 0.0224,-0.0237 -0.0124,0.0308 -0.0394,0.0786 -0.0146,0.0367 -0.0577,0.1802 -0.0741,0.2788 -0.003,0.1176 0.0616,0.4434 0.1457,0.6163 0.1959,0.19 0.3695,0.2959 0.2514,0.278 -0.1308,-0.0268 -0.3004,-0.0367 -0.54,-0.0418 -0.4196,-0.0246 -0.8994,-0.0145 -1.4123,-0.022 -0.8659,0.005 -1.8477,0.007 -3.4406,0.0152 -2.0558,-0.0197 -4.8631,-0.038 -7.8356,-0.1476 -2.5997,-0.1192 -5.1892,-0.2582 -7.0396,-0.3606 -0.9249,-0.0514 -1.6599,-0.0932 -2.1196,-0.1194 -0.2275,-0.0131 -0.3655,-0.0227 -0.4171,-0.0288 0.005,-0.0171 0.1042,-1.4311 0.0798,-1.4336 v 0 c 0.3933,0.0817 0.6461,0.4667 0.5645,0.86 v 0 c -0.0816,0.3934 -0.4667,0.6461 -0.86,0.5645 z" /><path
           id="path136"
           style="fill:#000000;fill-opacity:1;fill-rule:nonzero;stroke:none"
           d="m 113.7864,635.9907 c 0.01,0.1474 -0.0103,0.3695 -0.0665,0.544 v 0 c -0.1581,0.3752 -0.5905,0.5513 -0.9658,0.3931 v 0 c -0.3752,-0.1581 -0.5513,-0.5905 -0.3932,-0.9657 v 0 c 0.1582,-0.3753 0.5906,-0.5513 0.9658,-0.3932 v 0 c 0.3753,0.1581 0.5513,0.5905 0.3932,0.9658 -0.1266,0.229 -0.6971,0.5152 -0.9725,0.4791 v 0 c -0.397,-0.1128 -0.6274,-0.5261 -0.5145,-0.9231 v 0 c 0.1128,-0.397 0.5261,-0.6273 0.9231,-0.5145 v 0 c 0.397,0.1129 0.6273,0.5261 0.5145,0.9231 v 0 c -0.1129,0.397 -0.5262,0.6274 -0.9231,0.5145 -0.3219,-0.1328 -0.5815,-0.377 -0.772,-0.6111 v 0 c -0.2592,-0.3351 -0.1977,-0.817 0.1374,-1.0762 v 0 c 0.3351,-0.2592 0.8169,-0.1977 1.0762,0.1374 v 0 c 0.2592,0.3351 0.1977,0.8169 -0.1374,1.0762 v 0 c -0.3351,0.2592 -0.8169,0.1977 -1.0762,-0.1374 -0.3635,-0.4504 -0.8677,-1.218 -1.4693,-2.1259 -1.3443,-2.0973 -3.7563,-5.6187 -5.6616,-8.4783 -1.3193,-1.9754 -2.3158,-3.4663 -3.083,-4.5779 -0.2971,-0.4187 -0.5466,-0.7626 -0.7814,-1.0679 -0.225,-0.2934 -0.3829,-0.5224 -0.4787,-0.6033 -0.0298,-0.02 0.0465,0.042 0.1025,0.082 0.1057,0.028 0.4845,-0.0139 0.6471,-0.0885 0.1185,-0.1505 0.2049,-0.3419 0.194,-0.3344 -0.0193,0.021 -0.0333,0.0574 -0.0499,0.1522 -0.034,0.1934 -0.0577,0.4843 -0.1237,0.7566 -0.2197,0.5465 -0.5173,0.7132 -0.4864,0.7288 -0.0995,0.0625 -0.1009,0.4358 -0.1967,0.9192 -0.0596,0.3003 -0.1089,0.5762 -0.1356,0.8086 -0.0226,0.3247 0.0294,0.5242 -0.0527,0.2151 v 0 c 0.2534,0.389 0.1435,0.9099 -0.2455,1.1633 v 0 c -0.38902,0.2535 -0.90986,0.1436 -1.16331,-0.2455 v 0 c -0.25345,-0.389 -0.14355,-0.9098 0.24548,-1.1633 v 0 c 0.38903,-0.2534 0.90983,-0.1435 1.16333,0.2455 -1.57714,0.4834 -1.5651,0.1351 -1.53712,-0.1429 0.02786,-0.2752 0.06647,-0.5886 0.0829,-0.887 0.04025,-0.7458 0.07198,-1.6285 0.16502,-2.4446 0.05155,-0.4194 0.07186,-0.961 0.26769,-1.4542 0.16482,-0.3626 0.57298,-0.7409 0.90311,-0.8836 0.326,-0.1143 0.7557,-0.1451 1.0874,-0.1198 v 0 c 0.4913,0.0587 0.8419,0.5046 0.7831,0.9959 v 0 c -0.0587,0.4912 -0.5046,0.8418 -0.9959,0.7831 v 0 c -0.4912,-0.0588 -0.8418,-0.5047 -0.7831,-0.9959 v 0 c 0.0588,-0.4913 0.5047,-0.8419 0.9959,-0.7831 0.5382,0.0502 1.1538,0.2153 1.7309,0.3758 v 0 c 0.5008,0.1556 0.7806,0.6878 0.625,1.1886 v 0 c -0.1556,0.5008 -0.6878,0.7806 -1.1886,0.625 v 0 c -0.5008,-0.1556 -0.7806,-0.6878 -0.625,-1.1886 v 0 c 0.1556,-0.5008 0.6878,-0.7806 1.1886,-0.625 0.4581,0.1424 0.9034,0.2841 1.3344,0.3866 v 0 c 0.5104,0.1224 0.8249,0.6354 0.7024,1.1457 v 0 c -0.1224,0.5104 -0.6354,0.8249 -1.1458,0.7024 v 0 c -0.5103,-0.1224 -0.8248,-0.6354 -0.7024,-1.1457 v 0 c 0.1225,-0.5104 0.6355,-0.8249 1.1458,-0.7024 0.7248,0.3254 1.263,0.5434 1.7292,0.4292 v 0 c 0.2507,-0.1308 0.56,-0.0336 0.6908,0.2171 v 0 c 0.1309,0.2507 0.0337,0.56 -0.217,0.6908 -0.7178,0.5036 -1.7446,0.5746 -2.6457,0.5112 -0.4991,-0.1207 -1.0034,-0.2804 -1.4557,-0.4215 -0.5601,-0.1927 -1.0202,-0.3539 -1.3789,-0.4101 -0.2075,-0.0392 -0.2523,-0.056 -0.3098,-0.0363 -0.0565,-0.008 0.0559,-0.1322 0.0393,-0.0801 -0.0813,0.141 -0.0706,0.4805 -0.124,0.9829 -0.0849,0.748 -0.1121,1.5823 -0.1514,2.3445 -0.0179,0.3533 -0.0579,0.7047 -0.0815,0.9605 -0.0234,0.253 -0.0356,0.3011 -0.1284,-0.0166 -1.53189,0.5457 -1.54969,0.0655 -1.46275,-0.4215 0.04232,-0.2781 0.10994,-0.6051 0.18082,-0.9172 0.08709,-0.3742 0.16037,-1.011 0.51153,-1.5185 0.27233,-0.2897 0.3919,-0.2899 0.22166,-0.0474 0.0015,-0.1422 -0.02704,-0.3576 -0.0407,-0.5994 -0.0065,-0.1232 -0.0041,-0.2867 0.01157,-0.4275 0.02394,-0.1545 0.16354,-0.4697 0.36487,-0.6847 0.251,-0.1431 0.7362,-0.1965 0.9568,-0.1297 0.1808,0.0829 0.3904,0.2382 0.5016,0.3589 0.2117,0.2269 0.4118,0.5297 0.6067,0.7997 0.2385,0.3296 0.4941,0.7018 0.7854,1.132 0.779,1.12 1.7858,2.6171 3.1095,4.5902 1.9117,2.8422 4.3408,6.3622 5.7139,8.476 0.582,0.9264 1.0374,1.6684 1.3269,2.0621 0.1359,0.1879 0.1261,0.1997 -0.0364,0.1114 -0.1907,-0.0121 -0.7016,0.2453 -0.7926,0.3891 -0.0187,0.0854 -0.0253,0.163 -0.0264,0.1022 v 0 c -0.021,-0.4011 0.2872,-0.7434 0.6884,-0.7643 v 0 c 0.4012,-0.021 0.7434,0.2872 0.7644,0.6884 z" /><path
           id="path138"
           style="fill:#000000;fill-opacity:1;fill-rule:nonzero;stroke:none"
           d="m 102.5393,676.9445 c -0.003,-0.0234 -0.0374,-0.1854 -0.0771,-0.2768 v 0 c 0.2029,0.3464 0.0867,0.7917 -0.2597,0.9947 v 0 c -0.3464,0.2029 -0.7917,0.0867 -0.9947,-0.2597 v 0 c -0.203,-0.3464 -0.0867,-0.7917 0.2597,-0.9947 v 0 c 0.3464,-0.203 0.7917,-0.0867 0.9947,0.2597 -0.0806,-0.1018 -0.3035,-0.2574 -0.3855,-0.2869 v 0 c 0.3906,0.0917 0.6329,0.4827 0.5412,0.8733 v 0 c -0.0917,0.3905 -0.4827,0.6329 -0.8733,0.5412 v 0 c -0.3906,-0.0917 -0.6329,-0.4827 -0.5412,-0.8733 v 0 c 0.0917,-0.3906 0.4827,-0.6329 0.8733,-0.5412 -0.1373,-0.003 -0.2331,0.0109 -0.1584,-0.0218 v 0 c 0.3698,-0.1543 0.7946,0.0205 0.9489,0.3903 v 0 c 0.1542,0.3698 -0.0205,0.7946 -0.3903,0.9489 v 0 c -0.3698,0.1542 -0.7947,-0.0205 -0.9489,-0.3903 v 0 c -0.1543,-0.3699 0.0205,-0.7947 0.3903,-0.9489 0.1794,-0.0704 0.4753,-0.2565 0.8421,-0.4867 1.0959,-0.7316 2.4905,-1.5375 3.7251,-2.2504 0.8957,-0.441 1.7126,-0.8366 2.3052,-1.1358 v 0 c 0.337,-0.1972 0.77,-0.084 0.9672,0.253 v 0 c 0.1972,0.3369 0.084,0.77 -0.253,0.9672 v 0 c -0.3369,0.1972 -0.7699,0.0839 -0.9672,-0.253 v 0 c -0.1972,-0.3369 -0.0839,-0.77 0.253,-0.9672 0.2952,-0.1488 0.5184,-0.2633 0.6715,-0.3487 v 0 c 0.2892,-0.208 0.6922,-0.1423 0.9003,0.1468 v 0 c 0.2081,0.2891 0.1424,0.6922 -0.1468,0.9003 v 0 c -0.2891,0.2081 -0.6922,0.1423 -0.9002,-0.1468 v 0 c -0.2081,-0.2891 -0.1424,-0.6922 0.1467,-0.9003 0.0737,-0.0402 0.1042,-0.0511 0.1236,-0.0581 v 0 c 0.2374,-0.2423 0.6261,-0.2462 0.8684,-0.009 v 0 c 0.2422,0.2373 0.2462,0.6261 0.009,0.8683 v 0 c -0.2373,0.2422 -0.6261,0.2462 -0.8683,0.009 v 0 c -0.2423,-0.2373 -0.2463,-0.6261 -0.009,-0.8683 0.0127,0.005 -0.0659,0.1781 -0.0814,0.3893 v 0 c -0.0336,-0.3203 0.1988,-0.6071 0.5191,-0.6407 v 0 c 0.3202,-0.0335 0.6071,0.1989 0.6407,0.5191 -0.0104,0.2608 -0.1305,0.5013 -0.2011,0.5917 -0.0639,0.0781 -0.1586,0.1687 -0.2465,0.2452 -0.1725,0.1489 -0.4227,0.3293 -0.7117,0.5224 -0.5756,0.3846 -1.3698,0.862 -2.2247,1.3747 -1.2667,0.6491 -2.658,1.3711 -3.7487,2.0161 -0.368,0.2324 -0.7469,0.4682 -1.0546,0.6011 -0.1688,0.0688 -0.4613,0.1298 -0.7239,0.099 -0.1572,-0.0471 -0.4312,-0.2366 -0.5429,-0.3906 -0.0754,-0.1523 -0.1254,-0.3928 -0.1244,-0.5194 v 0 c 0.0158,-0.4014 0.354,-0.714 0.7554,-0.6982 v 0 c 0.4014,0.0158 0.714,0.354 0.6982,0.7555 z" /><path
           id="path140"
           style="fill:#000000;fill-opacity:1;fill-rule:nonzero;stroke:none"
           d="m 108.9095,677.3962 c -1.2011,-0.2405 -2.7881,-1.6647 -3.9056,-2.9519 v 0 c -0.2793,-0.3293 -0.2388,-0.8228 0.0906,-1.1021 v 0 c 0.3293,-0.2793 0.8228,-0.2387 1.1021,0.0906 v 0 c 0.2793,0.3294 0.2387,0.8228 -0.0907,1.1021 v 0 c -0.3293,0.2793 -0.8227,0.2388 -1.102,-0.0906 -0.5643,-0.7364 -1.0421,-1.4875 -1.2606,-2.0156 v 0 c -0.1605,-0.3193 -0.0317,-0.7082 0.2876,-0.8686 v 0 c 0.3193,-0.1605 0.7081,-0.0317 0.8686,0.2876 v 0 c 0.1604,0.3193 0.0317,0.7081 -0.2876,0.8686 v 0 c -0.3193,0.1604 -0.7082,0.0317 -0.8686,-0.2876 -0.112,-0.2768 -0.1866,-0.6321 -0.118,-0.9413 v 0 c 0.0874,-0.3079 0.4078,-0.4867 0.7157,-0.3994 v 0 c 0.3079,0.0874 0.4867,0.4078 0.3994,0.7157 v 0 c -0.0874,0.3079 -0.4078,0.4867 -0.7157,0.3994 v 0 c -0.3079,-0.0874 -0.4867,-0.4078 -0.3994,-0.7157 0.0878,-0.188 0.4085,-0.4385 0.61,-0.4655 v 0 c 0.3002,-0.0271 0.5655,0.1943 0.5926,0.4945 v 0 c 0.0271,0.3003 -0.1944,0.5656 -0.4946,0.5926 v 0 c -0.3002,0.0271 -0.5655,-0.1944 -0.5925,-0.4946 v 0 c -0.0271,-0.3002 0.1943,-0.5655 0.4945,-0.5925 0.1524,0.006 0.349,0.06 0.4823,0.1273 v 0 c 0.2602,0.1108 0.3813,0.4115 0.2705,0.6717 v 0 c -0.1107,0.2602 -0.4115,0.3814 -0.6716,0.2706 -0.0685,-0.0185 -0.0256,9e-4 0.0209,0.0171 0.0876,-0.0167 0.342,-0.211 0.4028,-0.3043 0.0152,-0.1207 0.0445,-0.1316 0.1594,0.0436 0.235,0.3743 0.7023,0.9537 1.2972,1.5852 1.0218,1.2356 2.3034,2.4591 2.9528,2.5283 v 0 c 0.3963,0.0663 0.6637,0.4413 0.5974,0.8375 v 0 c -0.0663,0.3962 -0.4413,0.6636 -0.8375,0.5973 z" /><path
           id="path142"
           style="fill:#000000;fill-opacity:1;fill-rule:nonzero;stroke:none"
           d="m 111.8995,681.2092 c 0.1419,0.126 0.2789,0.3545 0.3048,0.4446 v 0 c 0.1045,0.3827 -0.121,0.7777 -0.5038,0.8821 v 0 c -0.3827,0.1045 -0.7776,-0.121 -0.8821,-0.5037 v 0 c -0.1045,-0.3828 0.1211,-0.7777 0.5038,-0.8822 v 0 c 0.3827,-0.1045 0.7777,0.1211 0.8821,0.5038 0.0148,0.0756 0.0233,0.1677 0.0226,0.2103 v 0 c 0.0186,0.3912 -0.2834,0.7235 -0.6746,0.7422 v 0 c -0.3913,0.0187 -0.7236,-0.2833 -0.7423,-0.6746 v 0 c -0.0187,-0.3912 0.2833,-0.7235 0.6746,-0.7422 v 0 c 0.3913,-0.0187 0.7236,0.2833 0.7423,0.6746 -0.003,0.0774 -0.0113,0.1427 -0.0165,0.194 v 0 c 0.005,0.3816 -0.3007,0.6949 -0.6824,0.6997 v 0 c -0.3816,0.005 -0.6949,-0.3007 -0.6997,-0.6823 v 0 c -0.005,-0.3817 0.3007,-0.6949 0.6824,-0.6997 v 0 c 0.3816,-0.005 0.6949,0.3007 0.6997,0.6823 -0.0112,0.1085 -0.0351,0.1256 -0.0122,0.1714 -0.0406,0.002 0.0736,0.0202 0.2776,0.0835 0.0555,0.0228 0.0237,0.0154 0.0644,-0.008 0.0392,-0.005 -0.0526,0.053 -0.073,0.0447 -0.0298,0.1039 -0.0499,0.2232 -0.0673,0.1303 -0.0138,-0.1067 -0.0545,-0.2335 -0.1241,-0.4187 -0.1392,-0.3742 -0.3548,-0.8254 -0.4956,-1.2194 -0.0818,-0.2491 -0.1618,-0.5321 -0.178,-0.786 -2e-4,-0.2816 0.2122,-0.7596 0.5048,-0.959 0.6594,-0.3013 1.5597,-0.1261 2.0874,-0.1088 0.2957,0.01 0.438,0.0322 0.4529,0.005 -0.001,0.0407 -0.093,0.1197 -0.117,0.1081 0.001,0.1586 0.059,0.3546 0.0502,0.3556 v 0 c -0.2288,-0.3154 -0.1586,-0.7566 0.1569,-0.9854 v 0 c 0.3155,-0.2289 0.7567,-0.1586 0.9855,0.1569 v 0 c 0.2288,0.3154 0.1585,0.7567 -0.1569,0.9855 v 0 c -0.3155,0.2288 -0.7567,0.1585 -0.9855,-0.157 -0.0114,-0.0145 -0.031,-0.0272 -0.0989,-0.0806 v 0 c -0.2994,-0.2583 -0.3327,-0.7105 -0.0744,-1.0099 v 0 c 0.2583,-0.2994 0.7104,-0.3327 1.0098,-0.0744 v 0 c 0.2994,0.2583 0.3328,0.7104 0.0745,1.0098 v 0 c -0.2584,0.2995 -0.7105,0.3328 -1.0099,0.0745 -0.1413,-0.1149 -0.3449,-0.2484 -0.5376,-0.3878 v 0 c -0.3225,-0.2482 -0.3826,-0.7108 -0.1344,-1.0333 v 0 c 0.2482,-0.3224 0.7108,-0.3826 1.0333,-0.1344 v 0 c 0.3224,0.2483 0.3826,0.7109 0.1343,1.0333 v 0 c -0.2482,0.3224 -0.7108,0.3826 -1.0332,0.1344 -0.5079,-0.4934 -1.1972,-0.8759 -1.9404,-2.1522 v 0 c -0.1526,-0.2381 -0.0832,-0.5548 0.1549,-0.7074 v 0 c 0.2381,-0.1525 0.5548,-0.0831 0.7074,0.155 0.7203,1.008 1.2279,1.0624 1.9771,1.537 0.1558,0.129 0.3822,0.2969 0.5756,0.4724 0.0971,0.0889 0.2198,0.2175 0.3043,0.335 0.087,0.1332 0.1943,0.4523 0.176,0.719 -0.0885,0.3469 -0.4614,0.8141 -0.8999,0.9711 -0.3194,0.061 -0.6285,0.0224 -0.8728,0.005 -0.655,-0.0438 -1.3245,-0.2188 -1.363,-0.1093 0.0314,-0.0461 0.1577,-0.2871 0.1796,-0.2507 0.006,0.0641 0.0561,0.1792 0.1464,0.4039 0.1164,0.3148 0.3351,0.7571 0.505,1.189 0.085,0.2178 0.1676,0.4717 0.2081,0.6905 0.0368,0.2325 0.002,0.6218 -0.1493,0.9053 -0.1861,0.2366 -0.5364,0.4533 -0.7921,0.5172 -0.2507,0.0457 -0.6104,0.0185 -0.8579,-0.0698 -0.2677,-0.1105 -0.7261,-0.371 -0.9741,-0.78 -0.1362,-0.2697 -0.186,-0.5862 -0.2006,-0.7437 -0.007,-0.0816 -0.011,-0.1327 -0.0183,-0.1441 -0.003,-8e-4 0.002,0.0542 0.008,0.101 0.018,0.061 0.1433,0.2689 0.268,0.3833 v 0 c -0.3331,-0.2245 -0.4212,-0.6766 -0.1967,-1.0097 v 0 c 0.2245,-0.3331 0.6766,-0.4212 1.0097,-0.1967 z" /><path
           id="path144"
           style="fill:#000000;fill-opacity:1;fill-rule:nonzero;stroke:none"
           d="m 86.75105,610.1733 c 0.88466,-0.4378 1.85497,-1.1545 2.89282,-1.9924 v 0 c 0.30982,-0.2507 0.76427,-0.2029 1.01504,0.107 v 0 c 0.25078,0.3098 0.20291,0.7642 -0.10691,1.015 v 0 c -0.30982,0.2508 -0.76427,0.2029 -1.01504,-0.1069 v 0 c -0.25078,-0.3098 -0.20291,-0.7643 0.10691,-1.0151 0.5149,-0.4124 1.03713,-0.8443 1.57251,-1.2747 v 0 c 0.30505,-0.2477 0.75315,-0.2012 1.00086,0.1038 v 0 c 0.24771,0.3051 0.20122,0.7532 -0.10383,1.0009 v 0 c -0.30504,0.2477 -0.75314,0.2012 -1.00085,-0.1039 v 0 c -0.24771,-0.305 -0.20123,-0.7531 0.10382,-1.0008 0.47508,-0.3695 0.97108,-0.7275 1.38208,-1.0149 v 0 c 0.29953,-0.2209 0.72137,-0.1571 0.94221,0.1425 v 0 c 0.22085,0.2995 0.15705,0.7213 -0.14248,0.9422 v 0 c -0.29953,0.2208 -0.72137,0.157 -0.94221,-0.1425 v 0 c -0.22084,-0.2995 -0.15705,-0.7214 0.14248,-0.9422 0.87704,-0.5789 1.36108,-0.8011 2.33591,-1.1123 v 0 c 0.26456,-0.0999 0.56,0.0336 0.65989,0.2981 v 0 c 0.09989,0.2646 -0.0336,0.56 -0.29816,0.6599 -0.88223,0.39 -1.11356,0.5939 -1.89811,1.2391 -0.38971,0.3029 -0.84536,0.6618 -1.28457,1.0348 -0.52337,0.4293 -1.04198,0.8671 -1.56135,1.2919 -1.06001,0.8603 -2.14729,1.6631 -3.1491,2.171 v 0 c -0.35914,0.18 -0.79621,0.0348 -0.97623,-0.3243 v 0 c -0.18002,-0.3591 -0.03482,-0.7962 0.32431,-0.9762 z" /><path
           id="path146"
           style="fill:#000000;fill-opacity:1;fill-rule:nonzero;stroke:none"
           d="m 94.01452,611.6089 c -0.91894,-0.2307 -2.16446,-1.3267 -3.20572,-2.6131 v 0 c -0.27132,-0.3459 -0.21087,-0.8463 0.13503,-1.1176 v 0 c 0.34591,-0.2713 0.84627,-0.2109 1.1176,0.135 v 0 c 0.27132,0.3459 0.21087,0.8463 -0.13503,1.1176 v 0 c -0.34591,0.2713 -0.84627,0.2109 -1.1176,-0.135 -0.6315,-0.797 -1.24664,-1.7332 -1.68284,-2.6128 v 0 c -0.19648,-0.4039 -0.02832,-0.8906 0.37559,-1.087 v 0 c 0.40391,-0.1965 0.89062,-0.0284 1.0871,0.3755 v 0 c 0.19647,0.404 0.02832,0.8907 -0.37559,1.0871 v 0 c -0.40391,0.1965 -0.89062,0.0284 -1.0871,-0.3756 -0.28368,-0.8159 -0.45744,-1.6676 -0.39823,-2.35 v 0 c -0.01423,-0.2824 0.20319,-0.5229 0.48562,-0.5372 v 0 c 0.28243,-0.0142 0.52292,0.2032 0.53716,0.4856 0.11826,0.4895 0.41071,1.0443 0.83813,1.6901 0.37652,0.7912 0.89398,1.596 1.47275,2.3417 0.92554,1.2209 1.85203,2.107 2.27118,2.1761 v 0 c 0.39201,0.0878 0.6386,0.4768 0.55077,0.8688 v 0 c -0.08782,0.392 -0.47681,0.6386 -0.86882,0.5508 z" /><path
           id="path148"
           style="fill:#000000;fill-opacity:1;fill-rule:nonzero;stroke:none"
           d="m 93.52271,615.8828 c 0.03631,-0.7091 0.29393,-1.6882 0.66894,-2.5091 v 0 c 0.17976,-0.3784 0.63227,-0.5395 1.0107,-0.3597 v 0 c 0.37844,0.1798 0.5395,0.6323 0.35974,1.0107 v 0 c -0.17976,0.3784 -0.63226,0.5395 -1.0107,0.3597 v 0 c -0.37843,-0.1797 -0.53949,-0.6322 -0.35974,-1.0107 0.36483,-0.5728 0.84417,-1.14 1.34288,-1.4564 v 0 c 0.21783,-0.1803 0.5406,-0.1499 0.72094,0.0679 v 0 c 0.18033,0.2179 0.14993,0.5406 -0.0679,0.721 -0.25548,0.308 -0.45306,0.7598 -0.62544,1.3184 -0.34134,0.6872 -0.55172,1.4152 -0.58707,1.9424 v 0 c -0.02325,0.4011 -0.36722,0.7074 -0.76827,0.6841 v 0 c -0.40106,-0.0232 -0.70733,-0.3672 -0.68408,-0.7683 z" /><path
           id="path150"
           style="fill:#000000;fill-opacity:1;fill-rule:nonzero;stroke:none"
           d="m 138.4419,644.0392 c -0.0862,-0.004 -0.1842,-0.005 -0.0756,-0.0658 v 0 c 0.3782,-0.1693 0.822,10e-5 0.9912,0.3783 v 0 c 0.1693,0.3782 0,0.822 -0.3782,0.9913 v 0 c -0.3782,0.1692 -0.822,-10e-5 -0.9913,-0.3783 v 0 c -0.1693,-0.3782 1e-4,-0.822 0.3783,-0.9913 0.1226,-0.061 0.2593,-0.1576 0.4548,-0.3113 v 0 c 0.3439,-0.2529 0.8278,-0.1792 1.0808,0.1647 v 0 c 0.2529,0.344 0.1792,0.8279 -0.1647,1.0809 v 0 c -0.344,0.2529 -0.8279,0.1792 -1.0809,-0.1648 v 0 c -0.2529,-0.3439 -0.1792,-0.8278 0.1648,-1.0808 0.3991,-0.3102 0.8613,-0.7468 1.3208,-1.1854 v 0 c 0.3345,-0.3042 0.8523,-0.2797 1.1566,0.0548 v 0 c 0.3042,0.3345 0.2797,0.8524 -0.0548,1.1566 v 0 c -0.3345,0.3043 -0.8523,0.2797 -1.1566,-0.0548 v 0 c -0.3042,-0.3345 -0.2797,-0.8523 0.0548,-1.1566 1.6099,-1.3444 3.1876,-2.5374 4.8407,-2.4482 v 0 c 0.3046,0.0101 0.5433,0.2652 0.5332,0.5698 v 0 c -0.0101,0.3046 -0.2652,0.5434 -0.5698,0.5333 -1.1379,-0.003 -2.2261,1.093 -3.7022,2.5564 -0.484,0.4196 -1.0232,0.8824 -1.5074,1.2202 -0.2451,0.1703 -0.52,0.3339 -0.7558,0.4342 -0.2525,0.1007 -0.6585,0.1621 -0.9789,0.0834 v 0 c -0.3829,-0.1216 -0.5947,-0.5305 -0.4732,-0.9134 v 0 c 0.1216,-0.3829 0.5305,-0.5947 0.9134,-0.4732 z" /><path
           id="path152"
           style="fill:#000000;fill-opacity:1;fill-rule:nonzero;stroke:none"
           d="m 144.3261,645.5905 c -0.8844,-1.0312 -1.9229,-2.2595 -2.8503,-3.4028 v 0 c -0.2605,-0.3252 -0.2081,-0.8 0.1171,-1.0605 v 0 c 0.3252,-0.2605 0.8,-0.2081 1.0605,0.1171 v 0 c 0.2606,0.3252 0.2081,0.8001 -0.1171,1.0606 v 0 c -0.3252,0.2605 -0.8,0.208 -1.0605,-0.1172 -0.6271,-0.912 -1.1985,-1.7851 -1.5939,-2.4893 v 0 c -0.1624,-0.2315 -0.1064,-0.5508 0.1251,-0.7132 v 0 c 0.2316,-0.1624 0.5509,-0.1063 0.7133,0.1252 0.5099,0.5867 1.1873,1.3322 1.9331,2.1339 0.9031,1.1419 1.9158,2.3673 2.7833,3.4065 v 0 c 0.2595,0.3067 0.2212,0.7657 -0.0854,1.0252 v 0 c -0.3067,0.2594 -0.7657,0.2212 -1.0252,-0.0855 z" /><path
           id="path154"
           style="fill:#000000;fill-opacity:1;fill-rule:nonzero;stroke:none"
           d="m 147.7885,651.1219 c 0.0679,-0.1335 0.1171,-0.4221 0.1043,-0.4935 v 0 c 0.0887,0.3793 -0.1468,0.7587 -0.5261,0.8474 v 0 c -0.3793,0.0887 -0.7586,-0.1469 -0.8473,-0.5262 v 0 c -0.0887,-0.3792 0.1468,-0.7586 0.5261,-0.8473 v 0 c 0.3793,-0.0887 0.7586,0.1468 0.8473,0.5261 -0.0258,-0.0441 -0.0689,-0.113 -0.0605,-0.0939 v 0 c 0.2333,0.2965 0.1822,0.726 -0.1143,0.9594 v 0 c -0.2964,0.2334 -0.7259,0.1822 -0.9593,-0.1142 v 0 c -0.2334,-0.2965 -0.1822,-0.726 0.1142,-0.9594 v 0 c 0.2965,-0.2334 0.726,-0.1822 0.9594,0.1142 0.0229,0.0623 0.0578,0.1093 0.1615,0.174 v 0 c 0.3152,0.1587 0.442,0.5429 0.2833,0.858 v 0 c -0.1587,0.3152 -0.5428,0.442 -0.858,0.2833 v 0 c -0.3151,-0.1587 -0.442,-0.5428 -0.2833,-0.858 v 0 c 0.1587,-0.3151 0.5429,-0.442 0.858,-0.2833 0.0209,-0.0132 -0.0228,-0.0607 0.0539,-0.1226 0.0735,-0.0488 0.0547,-0.081 0.0654,-0.1518 -0.0972,0.1673 -0.1591,0.3146 -0.1717,0.1713 -0.007,-0.1541 -0.0482,-0.3493 -0.0944,-0.5768 -0.0182,-0.4022 -0.4204,-1.0182 -0.3789,-1.792 0.0799,-0.2699 0.3752,-0.6058 0.543,-0.6987 0.1525,-0.0651 0.3515,-0.1092 0.4743,-0.1238 v 0 c 0.4543,-0.0356 0.8514,0.3038 0.887,0.7581 v 0 c 0.0356,0.4543 -0.3039,0.8515 -0.7582,0.8871 v 0 c -0.4543,0.0356 -0.8514,-0.3039 -0.887,-0.7582 v 0 c -0.0356,-0.4543 0.3039,-0.8514 0.7582,-0.887 0.2374,-0.023 0.5197,-0.0146 0.7802,-0.003 v 0 c 0.4678,0.0348 0.8189,0.4422 0.7841,0.91 v 0 c -0.0348,0.4678 -0.4422,0.8188 -0.91,0.7841 v 0 c -0.4677,-0.0348 -0.8188,-0.4422 -0.784,-0.91 v 0 c 0.0347,-0.4678 0.4421,-0.8188 0.9099,-0.7841 0.3894,0.0334 0.7787,0.0744 1.1051,0.0553 v 0 c 0.4608,-0.0295 0.8582,0.3201 0.8877,0.7809 v 0 c 0.0294,0.4608 -0.3202,0.8582 -0.781,0.8877 v 0 c -0.4607,0.0294 -0.8582,-0.3202 -0.8876,-0.781 v 0 c -0.0295,-0.4607 0.3201,-0.8582 0.7809,-0.8876 0.2257,0.0945 0.3595,0.1835 0.5037,0.2211 v 0 c 0.2506,-0.131 0.56,-0.034 0.691,0.2166 v 0 c 0.131,0.2506 0.034,0.56 -0.2166,0.691 -0.2255,0.2309 -0.572,0.4106 -0.8696,0.5398 -0.463,0.0313 -0.962,-0.006 -1.3394,-0.0297 -0.2507,-0.0268 -0.4256,-0.0473 -0.5296,-0.0452 -0.0419,-0.002 0.0184,-0.0203 0.0704,-0.0399 0.0672,-0.0475 0.3001,-0.319 0.364,-0.4998 -0.0746,-0.1262 0.3542,0.3984 0.5554,1.1849 0.0388,0.2322 0.0899,0.5482 0.0987,0.8392 0.003,0.3018 -0.1204,0.8282 -0.439,1.1911 -0.2458,0.1548 -0.6091,0.2928 -0.8888,0.3216 -0.2765,0.0157 -0.6822,-0.0474 -0.9517,-0.2068 -0.2359,-0.1063 -0.5001,-0.2987 -0.6612,-0.4711 -0.0826,-0.0965 -0.1885,-0.2801 -0.2389,-0.4303 -0.0368,-0.1743 0.0264,-0.5562 0.1561,-0.7632 v 0 c 0.2587,-0.3074 0.7175,-0.3469 1.0249,-0.0883 v 0 c 0.3074,0.2586 0.347,0.7175 0.0884,1.0249 z" /><path
           id="path156"
           style="fill:#000000;fill-opacity:1;fill-rule:nonzero;stroke:none"
           d="m 284.2289,532.6235 h 2.8386 c -0.0704,-0.5159 -0.1163,-1.0474 -0.1398,-1.5452 -0.006,-0.1285 -0.01,-0.2564 -0.0137,-0.3833 h -3.0918 c 0.1043,0.7505 0.2045,1.3877 0.319,1.8783 0.0296,0.0161 0.0588,0.0328 0.0877,0.0502" /><path
           id="path158"
           style="fill:#000000;fill-opacity:1;fill-rule:nonzero;stroke:none"
           d="m 275.571,532.6235 h 3.6743 c -0.0822,-0.4604 -0.1529,-0.9249 -0.2145,-1.364 -0.0263,-0.1882 -0.0519,-0.3768 -0.0767,-0.5645 h -4.2285 c 0.2579,0.9379 0.5334,1.6443 0.8454,1.9285" /><path
           id="path160"
           style="fill:#000000;fill-opacity:1;fill-rule:nonzero;stroke:none"
           d="m 244.0576,532.6235 h 9.7938 c -0.005,-0.0476 -0.0101,-0.0952 -0.0149,-0.1426 -0.0116,-0.0668 -0.0204,-0.1347 -0.0264,-0.2034 -0.007,-0.0738 -0.01,-0.147 -0.009,-0.2197 -0.0288,-0.4361 -0.0368,-0.8768 -0.0367,-1.2872 l -9.801,-0.007 c 0.0238,0.6341 0.0536,1.3061 0.0945,1.8603" /><path
           id="path162"
           style="fill:#000000;fill-opacity:1;fill-rule:nonzero;stroke:none"
           d="m 193.2407,532.6235 h 3.8083 c -0.0854,-0.604 -0.1406,-1.2481 -0.1738,-1.8961 l -5.757,-0.004 c 0.031,0.2232 0.0588,0.2672 0.1763,0.3262 0.922,0.1247 1.6514,0.7554 1.9462,1.5742" /><path
           id="path164"
           style="fill:#000000;fill-opacity:1;fill-rule:nonzero;stroke:none"
           d="m 103.4461,444.3435 h 217.53 l 39.6861,86.3515 h -54.0395 c 0.1761,0.637 0.4268,1.2786 0.6657,1.9285 h 54.8783 c 0.703,0 1.1697,-0.7281 0.8761,-1.3669 l -40.5724,-88.2801 c -0.1573,-0.3422 -0.4995,-0.5616 -0.8762,-0.5616 H 101.7633 c -0.745,0 -1.2086,0.809 -0.8319,1.4519 l 51.7335,88.28 c 0.173,0.2953 0.4896,0.4767 0.8319,0.4767 h 13.6502 c -0.0304,-0.6049 -0.0627,-1.2653 -0.0739,-1.9187 l -13.0237,-0.01 -50.6033,-86.3515 z" /><path
           id="path166"
           style="fill:#000000;fill-opacity:1;fill-rule:nonzero;stroke:none"
           d="m 171.9588,532.6235 h 8.9919 c -0.2426,-0.6047 -0.4358,-1.257 -0.575,-1.9086 l -8.534,-0.006 c 0.0279,0.5663 0.0766,1.2392 0.1171,1.915" /><path
           id="path168"
           style="fill:#000000;fill-opacity:1;fill-rule:nonzero;stroke:none"
           d="m 186.1198,532.6235 h 0.6061 c -0.1617,-0.4149 -0.2882,-0.8425 -0.3692,-1.2449 -0.0225,-0.0869 -0.0404,-0.176 -0.0534,-0.267 -0.0109,-0.0764 -0.0181,-0.1525 -0.0217,-0.2281 -0.006,-0.0544 -0.0115,-0.1091 -0.0167,-0.1641 l -1.0305,-8e-4 c 0.0265,0.124 0.0482,0.2169 0.0617,0.273 0.4978,0.4317 0.7758,1.0229 0.8237,1.6319" /><path
           id="path170"
           style="fill:#000000;fill-opacity:1;fill-rule:nonzero;stroke:none"
           d="m 201.942,532.6235 h 2.7127 c -0.0493,-0.5739 -0.0986,-1.2191 -0.12,-1.8902 l -2.8587,-0.002 c 0.0382,0.5679 0.102,1.1051 0.2018,1.564 0.0296,0.159 0.0431,0.2525 0.0642,0.3284" /><path
           id="path172"
           style="fill:#000000;fill-opacity:1;fill-rule:nonzero;stroke:none"
           d="m 209.4808,532.6235 h 1.841 c 0.0418,-0.6087 0.1113,-1.2569 0.1893,-1.885 l -2.2237,-0.002 c 0.0502,0.5983 0.1271,1.2533 0.1934,1.8866" /><path
           id="path174"
           style="fill:#000000;fill-opacity:1;fill-rule:nonzero;stroke:none"
           d="m 216.1184,532.6235 h 8.331 c -0.1868,-0.6452 -0.3227,-1.2855 -0.4178,-1.8755 l -7.6827,-0.006 c -0.0942,0.67 -0.1807,1.3283 -0.2305,1.8813" /><path
           id="path176"
           style="fill:#000000;fill-opacity:1;fill-rule:nonzero;stroke:none"
           d="m 229.3389,532.6235 h 2.7014 c -0.1578,-0.6195 -0.2816,-1.2585 -0.3718,-1.8697 l -2.7695,-0.002 c 0.1455,0.9276 0.3024,1.6504 0.4399,1.8718" /><path
           id="path178"
           style="fill:#000000;fill-opacity:1;fill-rule:nonzero;stroke:none"
           d="m 237.0943,532.6235 h 2.3217 c -0.0507,-0.6133 -0.0823,-1.2451 -0.0963,-1.8639 l -2.7842,-0.002 c 0.1537,0.9565 0.3364,1.6628 0.4734,1.7402 0.03,0.0414 0.0584,0.0833 0.0854,0.1258" /><path
           id="path180"
           style="fill:#000000;fill-opacity:1;fill-rule:nonzero;stroke:none"
           d="m 258.6984,532.6235 h 3.3512 c -0.1449,-0.6177 -0.2597,-1.2443 -0.3409,-1.8469 l -3.125,-0.002 c -0.002,0.3848 0.005,0.7429 0.0366,1.0843 0.0236,0.2772 0.0494,0.5322 0.0781,0.7649" /><path
           id="path182"
           style="fill:#000000;fill-opacity:1;fill-rule:nonzero;stroke:none"
           d="m 267.006,532.6235 h 3.3179 c -0.22,-0.6402 -0.4062,-1.2971 -0.5588,-1.9285 h -3.1985 c 0.1157,0.7415 0.2633,1.3983 0.4394,1.9285" /><path
           id="path184"
           style="fill:#000000;fill-opacity:1;fill-rule:nonzero;stroke:none"
           d="m 291.9535,532.6235 h 3.7078 c -0.0109,-0.0284 -0.0214,-0.0572 -0.0313,-0.0863 -0.034,-0.0996 -0.0611,-0.1999 -0.0815,-0.3004 -0.1422,-0.533 -0.2231,-1.08 -0.2717,-1.5418 h -3.5399 c 0.005,0.0764 0.008,0.1167 0.01,0.1573 0.002,0.0403 0.003,0.0805 0.002,0.1204 0.0342,0.7036 0.0927,1.2412 0.2041,1.6508" /><path
           id="path186"
           style="fill:#000000;fill-opacity:1;fill-rule:nonzero;stroke:none"
           d="m 300.7745,532.6235 h 1.3947 c -0.0823,-0.2512 -0.1608,-0.5068 -0.2306,-0.762 -0.1119,-0.4454 -0.184,-0.8353 -0.2341,-1.1665 h -1.5847 c 0.0188,0.1077 0.0433,0.1996 0.0783,0.2822 0.1215,0.3787 0.3773,0.9297 0.5764,1.6463" /><path
           id="path188"
           style="fill:#000000;fill-opacity:1;fill-rule:nonzero;stroke:none"
           d="m 235.7809,663.6151 c -0.0688,0.3472 -0.0429,0.7471 -0.0829,1.1971 v 0 c -0.0107,0.3539 -0.3062,0.6322 -0.6601,0.6215 v 0 c -0.354,-0.0107 -0.6322,-0.3062 -0.6215,-0.6601 v 0 c 0.0106,-0.354 0.3062,-0.6322 0.6601,-0.6215 v 0 c 0.3539,0.0106 0.6322,0.3062 0.6215,0.6601 0.0313,0.3313 0.002,0.7666 -0.1128,1.1142 v 0 c -0.1911,0.379 -0.6533,0.5313 -1.0323,0.3402 v 0 c -0.3789,-0.1911 -0.5312,-0.6533 -0.3401,-1.0323 v 0 c 0.1911,-0.379 0.6533,-0.5313 1.0323,-0.3402 v 0 c 0.3789,0.1912 0.5312,0.6533 0.3401,1.0323 -0.117,0.2399 -0.3883,0.5044 -0.5764,0.6187 v 0 c -0.417,0.1871 -0.9066,7e-4 -1.0936,-0.4163 v 0 c -0.1871,-0.417 -7e-4,-0.9066 0.4163,-1.0937 v 0 c 0.417,-0.187 0.9066,-6e-4 1.0937,0.4164 v 0 c 0.187,0.4169 6e-4,0.9066 -0.4164,1.0936 -0.1942,0.101 -0.4885,0.1724 -0.6829,0.191 -0.5101,-0.045 -1.0578,-0.3321 -1.3773,-0.5977 -0.55,-0.5757 -0.7153,-1.4404 -0.7584,-2.0167 -0.02,-0.3672 -0.0832,-0.9144 0.0564,-1.4699 0.1813,-0.5716 0.6495,-1.1547 1.1051,-1.4556 0.6918,-0.3757 1.6489,-0.3066 2.2393,-0.0503 0.6921,0.3578 1.1804,1.1694 1.3514,1.8618 0.1543,0.6928 0.1247,1.5626 -0.0795,2.1795 -0.2027,0.4961 -0.6375,0.9266 -0.9544,1.1274 -0.2683,0.1618 -0.7842,0.4122 -1.3499,0.4113 -0.644,-0.1063 -1.2608,-0.6223 -1.5649,-1.102 -0.2833,-0.4749 -0.5073,-1.1365 -0.5846,-1.6992 -0.0417,-0.3496 -0.068,-0.8342 0.0204,-1.2626 0.1792,-0.5292 0.6979,-1.0042 1.0913,-1.1708 0.3922,-0.143 0.9355,-0.1958 1.3285,-0.1372 0.96,0.2432 1.6927,1.1476 2.0436,1.8744 0.2243,0.4591 0.4245,1.0666 0.4644,1.5686 0.005,0.4446 -0.273,1.0316 -0.5597,1.3006 -0.3103,0.2314 -0.8612,0.3964 -1.2582,0.3889 -0.7999,-0.1679 -1.4413,-0.747 -1.8073,-1.0736 -0.3394,-0.3032 -0.6763,-0.6374 -0.9206,-0.957 v 0 c -0.3447,-0.468 -0.2446,-1.1268 0.2234,-1.4714 v 0 c 0.468,-0.3447 1.1268,-0.2447 1.4715,0.2234 v 0 c 0.3446,0.468 0.2446,1.1268 -0.2235,1.4714 v 0 c -0.468,0.3447 -1.1268,0.2446 -1.4714,-0.2234 -0.2446,-0.3396 -0.4741,-0.879 -0.5094,-1.3386 v 0 c -0.016,-0.5819 0.4427,-1.0667 1.0246,-1.0828 v 0 c 0.582,-0.0161 1.0667,0.4426 1.0828,1.0246 v 0 c 0.0161,0.5819 -0.4426,1.0667 -1.0245,1.0828 v 0 c -0.582,0.0161 -1.0668,-0.4426 -1.0829,-1.0246 8e-4,-0.2319 0.0634,-0.5697 0.149,-0.7926 v 0 c 0.2157,-0.538 0.8267,-0.7993 1.3647,-0.5835 v 0 c 0.538,0.2157 0.7993,0.8267 0.5836,1.3647 v 0 c -0.2157,0.538 -0.8267,0.7993 -1.3647,0.5836 v 0 c -0.5381,-0.2157 -0.7993,-0.8267 -0.5836,-1.3648 0.3773,-0.4083 0.9606,-0.7836 1.6411,-1.0462 v 0 c 0.2314,-0.1626 0.5508,-0.1069 0.7134,0.1245 v 0 c 0.1626,0.2313 0.1069,0.5507 -0.1244,0.7133 -0.3792,0.4824 -0.4058,0.7678 -0.2822,0.9905 -0.0153,0.029 0.003,-0.0619 0.0105,-0.0478 -0.0216,0.0327 -0.0332,-0.0202 0.0969,0.1489 0.1303,0.1892 0.3245,0.3852 0.6251,0.6624 0.396,0.3647 0.6323,0.652 0.6209,0.5669 0.0264,0.0361 -0.1242,0.0929 -0.1448,0.103 0.003,0.0476 -0.0957,0.2993 -0.1084,0.3352 0.009,-0.2215 -0.0824,-0.5159 -0.2438,-0.8697 -0.2607,-0.5613 -0.4658,-0.9114 -0.6995,-0.865 -0.1359,-0.0279 -0.2201,-0.0171 -0.3519,0.0505 -0.1305,0.044 -0.0324,-0.075 0.0305,-0.1072 -0.0417,0.1284 -0.0183,0.3086 0.0205,0.6138 0.0378,0.374 0.1391,0.691 0.3137,0.9726 0.1538,0.2768 0.1274,0.2959 0.1277,0.2383 0.0316,0.0446 0.0351,2e-4 0.2925,-0.1491 0.1741,-0.0894 0.1925,-0.0636 0.2213,-0.1885 0.1424,-0.3131 0.1703,-0.7332 0.0709,-1.2 -0.0827,-0.4671 -0.1595,-0.6837 -0.3665,-0.7341 -0.3167,-0.1548 -0.5392,-0.2021 -0.6683,-0.05 -0.2245,0.1368 -0.3324,0.2688 -0.3712,0.5073 -0.0623,0.1871 0.009,0.4451 0.0564,0.8815 0.0482,0.5146 0.0593,0.8135 0.1762,0.8099 0.1738,0.1567 0.2304,0.2082 0.2656,0.1781 0.0256,0.0244 -0.0428,0.0586 -0.0445,0.0724 0.01,0.0257 -0.0971,0.1522 -0.1157,0.1973 0.0964,-0.072 0.1546,-0.2132 0.2033,-0.46 -0.0162,-0.3403 -0.1014,-0.7919 -0.0829,-1.3053 v 0 c 0.0405,-0.3997 0.3974,-0.6908 0.7971,-0.6503 v 0 c 0.3996,0.0405 0.6908,0.3974 0.6503,0.7971" /><path
           id="path190"
           style="fill:#000000;fill-opacity:1;fill-rule:nonzero;stroke:none"
           d="m 102.2439,423.4173 c 0.334,0.1845 0.8648,0.0308 1.7148,-0.3263 v 0 c 0.4114,-0.1592 0.8739,0.0452 1.0332,0.4566 v 0 c 0.1592,0.4113 -0.0452,0.8739 -0.4566,1.0331 v 0 c -0.4114,0.1592 -0.874,-0.0452 -1.0332,-0.4566 v 0 c -0.1592,-0.4114 0.0452,-0.8739 0.4566,-1.0331 0.8581,-0.3552 1.835,-0.9097 2.8316,-1.442 v 0 c 0.4285,-0.2174 0.9521,-0.0463 1.1695,0.3822 v 0 c 0.2173,0.4285 0.0462,0.9521 -0.3823,1.1695 v 0 c -0.4285,0.2174 -0.9521,0.0463 -1.1695,-0.3822 v 0 c -0.2174,-0.4285 -0.0463,-0.9521 0.3823,-1.1695 1.0115,-0.5253 1.9221,-1.0283 2.7628,-1.4763 v 0 c 0.4427,-0.2293 0.9874,-0.0565 1.2168,0.3862 v 0 c 0.2294,0.4426 0.0565,0.9874 -0.3861,1.2168 v 0 c -0.4427,0.2294 -0.9875,0.0565 -1.2168,-0.3862 v 0 c -0.2294,-0.4426 -0.0565,-0.9874 0.3861,-1.2168 1.646,-0.7063 3.0899,-1.2297 4.3825,-1.2758 v 0 c 0.2804,-0.0365 0.5373,0.1612 0.5738,0.4416 v 0 c 0.0365,0.2805 -0.1612,0.5374 -0.4416,0.5739 -1.0483,0.2587 -2.1833,0.9385 -3.6839,1.8632 -0.8376,0.4218 -1.7667,0.9098 -2.8064,1.4251 -0.9993,0.4803 -2.0652,1.0258 -3.0425,1.3801 -0.9848,0.353 -2.0815,0.5181 -2.9128,0.1517 v 0 c -0.3632,-0.1716 -0.5185,-0.6053 -0.3468,-0.9684 v 0 c 0.1717,-0.3632 0.6053,-0.5185 0.9685,-0.3468 z" /><path
           id="path192"
           style="fill:#000000;fill-opacity:1;fill-rule:nonzero;stroke:none"
           d="m 112.2275,426.2667 c -0.4331,0.0842 -0.9706,-0.0725 -1.313,-0.2935 v 0 c -0.3416,-0.2384 -0.4253,-0.7085 -0.187,-1.0502 v 0 c 0.2384,-0.3416 0.7086,-0.4253 1.0502,-0.187 v 0 c 0.3416,0.2384 0.4254,0.7086 0.187,1.0502 v 0 c -0.2384,0.3416 -0.7086,0.4254 -1.0502,0.187 -0.3224,-0.218 -0.6787,-0.5589 -0.9961,-0.9239 v 0 c -0.2766,-0.3311 -0.2324,-0.8237 0.0987,-1.1002 v 0 c 0.3311,-0.2766 0.8238,-0.2324 1.1003,0.0987 v 0 c 0.2766,0.3311 0.2324,0.8237 -0.0987,1.1003 v 0 c -0.3311,0.2766 -0.8237,0.2323 -1.1003,-0.0988 -0.6263,-0.7245 -1.2901,-1.7261 -1.8562,-2.6875 v 0 c -0.2274,-0.4012 -0.0866,-0.9107 0.3145,-1.1381 v 0 c 0.4011,-0.2274 0.9107,-0.0866 1.1381,0.3145 v 0 c 0.2274,0.4011 0.0866,0.9106 -0.3145,1.1381 v 0 c -0.4011,0.2274 -0.9107,0.0866 -1.1381,-0.3145 -0.5502,-0.9677 -0.9999,-1.9229 -1.3043,-2.677 -0.1117,-0.3338 -0.225,-0.6709 -0.2875,-0.9677 -0.0228,-0.1664 -0.0458,-0.346 -0.0486,-0.4962 -0.001,-0.079 7e-4,-0.1991 0.0154,-0.2921 0.0216,-0.1064 0.1241,-0.3566 0.2698,-0.5126 v 0 c 0.2635,-0.2402 0.6718,-0.2214 0.9121,0.0421 v 0 c 0.2402,0.2635 0.2214,0.6719 -0.0421,0.9121 v 0 c -0.2635,0.2402 -0.6719,0.2214 -0.9121,-0.0421 v 0 c -0.2403,-0.2635 -0.2214,-0.6719 0.0421,-0.9121 0.1861,-0.1142 0.5421,-0.1613 0.6829,-0.1185 v 0 c 0.3242,0.0962 0.509,0.4369 0.4128,0.7611 v 0 c -0.0962,0.3242 -0.437,0.509 -0.7611,0.4128 v 0 c -0.3242,-0.0962 -0.509,-0.437 -0.4128,-0.7612 v 0 c 0.0962,-0.3241 0.437,-0.5089 0.7611,-0.4127 0.1036,0.0481 0.2227,0.1256 0.2952,0.1909 v 0 c 0.2588,0.1876 0.3166,0.5495 0.129,0.8084 v 0 c -0.1876,0.2588 -0.5495,0.3166 -0.8084,0.129 v 0 c -0.2588,-0.1876 -0.3166,-0.5495 -0.129,-0.8084 v 0 c 0.1876,-0.2588 0.5495,-0.3166 0.8084,-0.129 0.1266,0.1216 0.2951,0.3079 0.4944,0.5487 v 0 c 0.1953,0.2046 0.1878,0.5287 -0.0168,0.724 v 0 c -0.2046,0.1952 -0.5287,0.1877 -0.7239,-0.0169 -0.213,-0.1911 -0.3455,-0.2839 -0.4343,-0.3193 -0.0334,-0.0114 3e-4,0.019 0.0304,0.0445 0.0807,0.0249 0.3886,-0.0148 0.5421,-0.0992 0.113,-0.1263 0.1985,-0.3228 0.2156,-0.3566 0.01,-0.0202 0.0197,-0.0479 0.0359,-0.0198 0.0321,0.0657 0.0814,0.1644 0.1443,0.3088 0.0712,0.1877 0.1947,0.4362 0.3452,0.7574 0.2803,0.7059 0.6794,1.5635 1.1967,2.4779 0.5124,0.9406 1.0729,1.8509 1.6026,2.5095 0.2608,0.3273 0.4655,0.5464 0.6597,0.688 0.1756,0.1403 0.1116,0.1456 0.0814,0.124 v 0 c 0.3886,-0.102 0.7862,0.1304 0.8882,0.519 v 0 c 0.1019,0.3886 -0.1305,0.7862 -0.5191,0.8881 z" /><path
           id="path194"
           style="fill:#000000;fill-opacity:1;fill-rule:nonzero;stroke:none"
           d="m 113.2523,433.2731 c 0.0373,0.008 0.1656,0.0198 0.2371,0.0157 v 0 c -0.3985,0.0528 -0.7643,-0.2274 -0.8171,-0.6258 v 0 c -0.0528,-0.3984 0.2273,-0.7642 0.6258,-0.8171 v 0 c 0.3984,-0.0528 0.7642,0.2274 0.817,0.6258 v 0 c 0.0529,0.3984 -0.2273,0.7643 -0.6257,0.8171 0.0984,-0.0224 0.3149,-0.1317 0.403,-0.2098 v 0 c -0.273,0.2952 -0.7336,0.3133 -1.0289,0.0403 v 0 c -0.2952,-0.273 -0.3132,-0.7337 -0.0402,-1.0289 v 0 c 0.273,-0.2952 0.7336,-0.3133 1.0289,-0.0403 v 0 c 0.2952,0.273 0.3132,0.7337 0.0402,1.0289 0.1283,-0.2136 0.1715,-0.5063 0.1655,-0.5648 v 0 c 0.0896,0.3923 -0.1559,0.7831 -0.5483,0.8727 v 0 c -0.3924,0.0895 -0.7831,-0.1559 -0.8727,-0.5483 v 0 c -0.0896,-0.3924 0.1559,-0.7831 0.5483,-0.8727 v 0 c 0.3924,-0.0896 0.7831,0.1559 0.8727,0.5483 -0.025,-0.052 -0.05,-0.0934 -0.004,-0.0547 -0.1062,-0.0421 -0.1755,-0.0743 -0.0469,-0.0982 0.1369,-0.0122 0.1895,-0.0298 0.2243,-0.0806 -0.0699,0.1025 -0.1442,0.2764 -0.1416,0.2494 0.0125,-0.0419 0.0115,-0.0927 -0.004,-0.2159 -0.029,-0.2537 -0.1103,-0.5796 -0.1667,-0.8922 -0.0692,-0.496 -0.2342,-1.1451 0.0435,-1.7449 0.207,-0.2867 0.5476,-0.4434 0.7546,-0.4926 0.201,-0.046 0.3961,-0.0701 0.5236,-0.1037 0.2319,-0.0631 0.4306,-0.1756 0.6079,-0.3058 -0.009,0.0359 -0.0896,0.1271 -0.1236,0.0328 0.0274,-0.052 -0.1689,-0.2142 -0.4557,-0.4623 -0.1986,-0.1954 -0.4066,-0.3625 -0.5351,-0.4827 -0.0102,-0.042 -0.0326,-0.0989 -0.0438,-0.1476 -0.0263,-0.0723 -0.1033,-0.2854 -0.1019,-0.5603 v 0 c 0.0448,-0.356 0.3697,-0.6083 0.7257,-0.5636 v 0 c 0.356,0.0448 0.6083,0.3697 0.5636,0.7257 v 0 c -0.0448,0.356 -0.3697,0.6083 -0.7257,0.5636 v 0 c -0.356,-0.0448 -0.6083,-0.3697 -0.5636,-0.7257 0.0669,-0.1915 0.3243,-0.4603 0.4681,-0.5116 v 0 c 0.3248,-0.0999 0.6691,0.0824 0.769,0.4072 v 0 c 0.1,0.3247 -0.0823,0.669 -0.4071,0.769 v 0 c -0.3248,0.0999 -0.6691,-0.0824 -0.769,-0.4071 v 0 c -0.0999,-0.3248 0.0823,-0.6691 0.4071,-0.7691 0.1088,-0.0119 0.2408,-0.003 0.2835,0.0144 v 0 c 0.3168,0.05 0.5331,0.3475 0.4831,0.6644 v 0 c -0.0501,0.3168 -0.3476,0.5331 -0.6645,0.4831 v 0 c -0.3168,-0.0501 -0.5331,-0.3476 -0.483,-0.6645 v 0 c 0.05,-0.3168 0.3475,-0.5331 0.6644,-0.483 0.0484,0.0325 0.1096,0.0741 0.1406,0.1102 v 0 c 0.264,0.1015 0.3957,0.3977 0.2943,0.6617 v 0 c -0.1015,0.2639 -0.3977,0.3957 -0.6617,0.2942 -0.012,0.0196 0.0179,0.0522 0.0455,0.0814 0.0321,0.0153 0.1563,0.0245 0.2597,0.0143 0.1385,-0.0496 0.393,-0.3151 0.4582,-0.4941 0.001,-0.2743 -0.0675,-0.4725 -0.0683,-0.5129 -0.004,-0.0401 -0.002,-0.0714 0.0207,-0.0816 0.0594,0.0611 0.2932,0.2549 0.5413,0.5011 0.3095,0.3418 0.7184,0.9139 0.7738,1.5151 -0.0157,0.3343 -0.2285,0.8657 -0.6044,1.132 -0.2685,0.1481 -0.6631,0.3131 -1.0357,0.3846 -0.2026,0.04 -0.4025,0.0571 -0.5393,0.0835 -0.1334,0.023 -0.0761,-0.0297 0.0246,-0.1183 -0.0709,0.0486 0.1118,0.3385 0.2693,0.9079 0.0658,0.2614 0.1747,0.6144 0.2405,0.9504 0.0323,0.1716 0.0548,0.3934 0.0464,0.5774 -0.0183,0.1988 -0.1577,0.5518 -0.3584,0.7633 -0.2749,0.2078 -0.6981,0.3628 -1.0166,0.4011 -0.3242,0.0272 -0.8258,-0.0752 -1.1549,-0.342 -0.1582,-0.1677 -0.3173,-0.4354 -0.379,-0.6476 -0.0247,-0.1403 0.0243,-0.4974 0.1755,-0.7372 0.1157,-0.108 0.3559,-0.2298 0.4855,-0.2563 0.1026,-0.008 0.2694,0.007 0.353,0.0281 v 0 c 0.3864,0.1102 0.6103,0.5126 0.5002,0.899 v 0 c -0.1102,0.3863 -0.5127,0.6102 -0.899,0.5001 z" /><path
           id="path196"
           style="fill:#000000;fill-opacity:1;fill-rule:nonzero;stroke:none"
           d="m 121.9441,424.9994 c 0.124,0.0614 0.5397,0.1701 1.1187,0.2784 v 0 c 0.4431,0.1095 0.7136,0.5575 0.6041,1.0006 v 0 c -0.1095,0.4431 -0.5575,0.7136 -1.0006,0.6041 v 0 c -0.4432,-0.1095 -0.7137,-0.5575 -0.6042,-1.0006 v 0 c 0.1095,-0.4431 0.5575,-0.7136 1.0007,-0.6041 0.4821,0.0978 1.0024,0.1718 1.5016,0.2025 v 0 c 0.4884,0.0513 0.8428,0.4887 0.7916,0.9771 v 0 c -0.0513,0.4885 -0.4887,0.8429 -0.9772,0.7916 v 0 c -0.4884,-0.0512 -0.8428,-0.4887 -0.7915,-0.9771 v 0 c 0.0512,-0.4884 0.4887,-0.8428 0.9771,-0.7916 0.4912,0.0652 0.8621,0.0855 1.0985,0.0424 v 0 c 0.4595,-0.0958 0.9097,0.199 1.0056,0.6585 v 0 c 0.0958,0.4596 -0.1991,0.9098 -0.6586,1.0056 v 0 c -0.4595,0.0958 -0.9097,-0.199 -1.0055,-0.6586 v 0 c -0.0959,-0.4595 0.199,-0.9097 0.6585,-1.0055 0.1177,0.0357 0.0924,0.113 0.0955,0.1664 v 0 c 0.2737,-0.258 0.7047,-0.2453 0.9627,0.0284 v 0 c 0.258,0.2736 0.2453,0.7046 -0.0284,0.9626 v 0 c -0.2736,0.258 -0.7046,0.2453 -0.9626,-0.0283 v 0 c -0.258,-0.2737 -0.2453,-0.7047 0.0283,-0.9627 0.0267,0.0772 0.0156,0.3102 0.0552,0.307 v 0 c -0.0663,-0.2749 0.1029,-0.5515 0.3778,-0.6177 v 0 c 0.2749,-0.0663 0.5515,0.1028 0.6178,0.3778 0.1015,0.2537 0.0242,0.6898 -0.1178,0.9251 -0.1628,0.21 -0.4566,0.398 -0.6805,0.5053 -0.4497,0.1 -1.0606,0.1079 -1.6314,0.0625 -0.564,-0.0809 -1.1871,-0.2158 -1.7128,-0.3665 -0.6314,-0.1908 -1.2314,-0.4388 -1.5556,-0.6905 v 0 c -0.3293,-0.23 -0.4099,-0.6834 -0.1798,-1.0128 v 0 c 0.23,-0.3294 0.6834,-0.4099 1.0128,-0.1799 z" /><path
           id="path198"
           style="fill:#000000;fill-opacity:1;fill-rule:nonzero;stroke:none"
           d="m 121.7221,423.3721 c -0.0263,-0.1909 0.061,-0.5458 0.1507,-0.6841 v 0 c 0.2562,-0.317 0.721,-0.3663 1.038,-0.11 v 0 c 0.3171,0.2562 0.3663,0.721 0.1101,1.038 v 0 c -0.2563,0.3171 -0.721,0.3663 -1.0381,0.1101 v 0 c -0.317,-0.2563 -0.3663,-0.721 -0.11,-1.0381 0.0963,-0.1088 0.2517,-0.2223 0.3293,-0.2643 v 0 c 0.3751,-0.1742 0.8204,-0.0113 0.9946,0.3638 v 0 c 0.1741,0.3751 0.0112,0.8204 -0.3639,0.9946 v 0 c -0.3751,0.1742 -0.8204,0.0113 -0.9946,-0.3638 v 0 c -0.1741,-0.3752 -0.0112,-0.8204 0.3639,-0.9946 0.1445,-0.0687 0.3325,-0.1228 0.4797,-0.153 v 0 c 0.4206,-0.0639 0.8133,0.2253 0.8772,0.6459 v 0 c 0.0639,0.4206 -0.2252,0.8133 -0.6458,0.8773 v 0 c -0.4206,0.0639 -0.8134,-0.2253 -0.8773,-0.6459 v 0 c -0.0639,-0.4206 0.2252,-0.8134 0.6459,-0.8773 0.2842,-0.0558 0.6617,-0.0886 1.0247,-0.109 v 0 c 0.4491,-0.007 0.8191,0.3507 0.8265,0.7998 v 0 c 0.007,0.4491 -0.3507,0.8191 -0.7998,0.8265 v 0 c -0.449,0.007 -0.8191,-0.3507 -0.8265,-0.7997 v 0 c -0.007,-0.4491 0.3507,-0.8192 0.7998,-0.8266 0.6908,-0.004 1.4537,-0.008 2.3112,0.0299 v 0 c 0.436,0.0157 0.7767,0.3819 0.7611,0.8179 v 0 c -0.0157,0.436 -0.3819,0.7767 -0.8179,0.761 v 0 c -0.436,-0.0156 -0.7767,-0.3818 -0.761,-0.8178 v 0 c 0.0156,-0.436 0.3818,-0.7768 0.8178,-0.7611 0.6064,0.1145 1.2735,0.2516 1.9929,0.4251 v 0 c 0.281,0.0314 0.4834,0.2847 0.4519,0.5658 v 0 c -0.0314,0.281 -0.2847,0.4834 -0.5657,0.452 -0.7141,0.0132 -1.3446,0.0644 -1.9358,0.136 -0.8192,-0.0219 -1.5367,-0.002 -2.227,0.0175 -0.3403,-0.009 -0.6267,-0.0102 -0.8221,0.006 -0.0907,0.006 -0.0955,-0.002 -0.0827,-0.0102 0.0172,-0.014 0.1247,-0.0953 0.1917,-0.1679 0.0603,-0.1018 0.1367,-0.4171 0.1203,-0.5642 v 0 c 0.0885,0.3918 -0.1575,0.7812 -0.5493,0.8697 v 0 c -0.3919,0.0885 -0.7813,-0.1574 -0.8698,-0.5493 z" /><path
           id="path200"
           style="fill:#000000;fill-opacity:1;fill-rule:nonzero;stroke:none"
           d="m 134.1906,424.7333 c 0.5979,0.5385 1.3205,0.6388 2.2942,0.649 v 0 c 0.5065,0.0405 0.8842,0.484 0.8437,0.9905 v 0 c -0.0405,0.5065 -0.4839,0.8843 -0.9905,0.8438 v 0 c -0.5065,-0.0406 -0.8843,-0.484 -0.8438,-0.9905 v 0 c 0.0406,-0.5066 0.484,-0.8843 0.9906,-0.8438 0.1778,-0.0329 0.3462,-0.0723 0.5307,-0.1145 v 0 c 0.5862,0.0163 1.0481,0.5047 1.0318,1.0909 v 0 c -0.0163,0.5861 -0.5047,1.0481 -1.0908,1.0318 v 0 c -0.5862,-0.0163 -1.0481,-0.5047 -1.0318,-1.0909 v 0 c 0.0163,-0.5861 0.5046,-1.0481 1.0908,-1.0318 0.3635,10e-4 0.7276,-0.013 1.11,-0.0304 v 0 c 0.6009,-0.0135 1.099,0.4627 1.1125,1.0636 v 0 c 0.0135,0.601 -0.4628,1.099 -1.0637,1.1125 v 0 c -0.6009,0.0135 -1.099,-0.4628 -1.1125,-1.0637 v 0 c -0.0134,-0.6009 0.4628,-1.099 1.0637,-1.1124 1.3451,0.1618 2.8083,0.2978 3.7901,1.008 v 0 c 0.2488,0.1344 0.3415,0.4451 0.207,0.6939 v 0 c -0.1344,0.2488 -0.4451,0.3414 -0.6939,0.207 -0.751,-0.2263 -1.8921,0.0442 -3.2542,0.2672 -0.3913,-10e-5 -0.8091,-0.003 -1.218,-0.023 -0.2017,-0.0529 -0.4172,-0.1105 -0.619,-0.174 -1.1114,-0.1566 -2.3345,-0.57 -3.1698,-1.4487 v 0 c -0.2857,-0.2825 -0.2883,-0.743 -0.006,-1.0287 v 0 c 0.2825,-0.2856 0.743,-0.2882 1.0287,-0.006 z" /><path
           id="path202"
           style="fill:#000000;fill-opacity:1;fill-rule:nonzero;stroke:none"
           d="m 144.2996,433.0784 c -0.2227,0.1837 -0.2903,0.2726 -0.2805,0.2204 v 0 c 0.1588,-0.3872 0.6015,-0.5723 0.9888,-0.4135 v 0 c 0.3872,0.1589 0.5724,0.6016 0.4135,0.9888 v 0 c -0.1588,0.3873 -0.6015,0.5724 -0.9888,0.4135 v 0 c -0.3872,-0.1588 -0.5724,-0.6015 -0.4135,-0.9888 0.0139,-0.0598 0.0337,-0.1465 0.0659,-0.2779 v 0 c 0.1351,-0.4139 0.5802,-0.6398 0.9941,-0.5047 v 0 c 0.4139,0.1351 0.6398,0.5802 0.5047,0.9941 v 0 c -0.1351,0.4139 -0.5802,0.6399 -0.9941,0.5047 v 0 c -0.4139,-0.1351 -0.6399,-0.5802 -0.5047,-0.9941 0.0657,-0.2664 0.1559,-0.6425 0.2676,-1.1099 v 0 c 0.1283,-0.4512 0.5981,-0.713 1.0492,-0.5847 v 0 c 0.4512,0.1283 0.713,0.5981 0.5847,1.0492 v 0 c -0.1283,0.4512 -0.598,0.713 -1.0492,0.5847 v 0 c -0.4512,-0.1283 -0.713,-0.598 -0.5847,-1.0492 0.224,-0.9359 0.5233,-2.1997 0.8499,-3.5511 0.303,-1.2049 0.6082,-2.397 0.8983,-3.4743 0.2442,-0.859 0.4832,-1.6583 0.7035,-2.3313 0.3008,-0.6474 0.5981,-1.2066 0.8676,-1.5811 v 0 c 0.2062,-0.4156 0.7103,-0.5852 1.1259,-0.379 v 0 c 0.4156,0.2063 0.5852,0.7104 0.3789,1.126 v 0 c -0.2062,0.4155 -0.7103,0.5852 -1.1259,0.3789 v 0 c -0.4155,-0.2063 -0.5852,-0.7104 -0.3789,-1.1259 0.1377,-0.1903 0.3005,-0.3849 0.45,-0.5071 v 0 c 0.2597,-0.3053 0.7177,-0.3424 1.023,-0.0827 v 0 c 0.3053,0.2596 0.3423,0.7176 0.0827,1.023 v 0 c -0.2597,0.3053 -0.7177,0.3423 -1.023,0.0826 v 0 c -0.3053,-0.2596 -0.3423,-0.7176 -0.0827,-1.0229 0.0808,-0.0637 0.2149,-0.1579 0.3241,-0.2049 v 0 c 0.3186,-0.1867 0.7281,-0.0798 0.9148,0.2387 v 0 c 0.1867,0.3186 0.0798,0.7281 -0.2387,0.9148 v 0 c -0.3186,0.1867 -0.7282,0.0798 -0.9149,-0.2387 v 0 c -0.1866,-0.3186 -0.0797,-0.7282 0.2388,-0.9148 0.1314,-0.0461 0.401,-0.0805 0.565,-0.041 v 0 c 0.33,0.0714 0.5396,0.3968 0.4682,0.7268 v 0 c -0.0714,0.33 -0.3968,0.5397 -0.7268,0.4683 0.1029,0.0262 0.3073,0.006 0.3644,0.002 0.0454,-0.01 0.1066,-0.0377 0.1108,-0.0113 -0.004,0.0577 -0.008,0.1415 -0.051,0.3141 -0.0907,0.3511 -0.2039,0.8589 -0.3485,1.5215 -0.2248,0.6375 -0.4656,1.3916 -0.7204,2.2325 -0.3334,1.0483 -0.6815,2.2091 -1.0312,3.3967 -0.4044,1.3278 -0.7842,2.5779 -1.09,3.5045 -0.1531,0.464 -0.2905,0.856 -0.4027,1.1346 -0.0568,0.1412 -0.1136,0.2709 -0.1624,0.3638 -0.0529,0.1006 -0.1692,0.2795 -0.4253,0.4815 v 0 c -0.3527,0.1923 -0.7945,0.0623 -0.9868,-0.2904 v 0 c -0.1924,-0.3527 -0.0624,-0.7945 0.2903,-0.9868 z" /><path
           id="path204"
           style="fill:#006fff;fill-opacity:1;fill-rule:nonzero;stroke:none"
           d="m 234.8829,663.6223 c -0.006,-0.0198 -0.007,-0.0383 0.1592,-1.6742 v 0 c 0.5326,0 0.9643,0.4317 0.9643,0.9643 v 0 c 0,0.5325 -0.4317,0.9643 -0.9643,0.9643 v 0 c -0.5325,0 -0.9643,-0.4318 -0.9643,-0.9643 v 0 c 0,-0.5326 0.4318,-0.9643 0.9643,-0.9643 0.1572,0.3272 0.158,0.3458 0.1638,0.3655 v 0 c 0.3327,0.0822 0.5359,0.4185 0.4538,0.7512 v 0 c -0.0822,0.3327 -0.4185,0.5359 -0.7512,0.4538 v 0 c -0.3327,-0.0821 -0.5359,-0.4184 -0.4538,-0.7512 v 0 c 0.0821,-0.3327 0.4184,-0.5359 0.7512,-0.4538 0.026,0.0442 0.0534,0.0883 0.1045,0.1388 v 0 c 0.274,0.0733 0.4369,0.3549 0.3636,0.629 v 0 c -0.0732,0.274 -0.3548,0.4369 -0.6289,0.3636 -0.0694,0.0183 -0.1224,0.041 -0.1595,0.0675 0.009,0.0209 -7e-4,0.0369 0.1565,0.3642 0.1658,-1.6359 0.1751,-1.652 0.1894,-1.6668 v 0 c 0.39,0.0963 0.6282,0.4905 0.5319,0.8805 v 0 c -0.0963,0.39 -0.4905,0.6282 -0.8805,0.5319 z" /><path
           id="path206"
           style="fill:#006fff;fill-opacity:1;fill-rule:nonzero;stroke:none"
           d="m 191.6085,562.7546 -3.5189,-7.9644 c -0.5795,0.2452 -1.1818,0.4899 -1.8001,0.6979 l 3.6076,8.165 c 0.5153,-0.2701 1.1048,-0.5884 1.7114,-0.8985" /><path
           id="path208"
           style="fill:#006fff;fill-opacity:1;fill-rule:nonzero;stroke:none"
           d="m 214.6707,614.9507 -2.2062,-4.9932 c -0.0554,0.0271 -0.1116,0.0547 -0.1688,0.083 -0.4363,0.2152 -0.9757,0.4759 -1.5792,0.7001 l 2.3353,5.2887 c 0.274,-0.2279 0.7112,-0.555 1.4576,-0.9951 0.0531,-0.0301 0.1069,-0.0579 0.1613,-0.0835" /><path
           id="path210"
           style="fill:#006fff;fill-opacity:1;fill-rule:nonzero;stroke:none"
           d="m 217.6455,621.6835 -1.02,-2.3086 c -0.5546,0.3277 -1.0307,0.7153 -1.6284,1.0597 l 0.7069,1.6008 c 0.5719,-0.3926 1.2822,-0.5142 1.9415,-0.3519" /><path
           id="path212"
           style="fill:#006fff;fill-opacity:1;fill-rule:nonzero;stroke:none"
           d="m 226.7426,642.2728 -7.5553,-17.0998 c -0.0528,0.0973 -0.1129,0.1918 -0.1803,0.2829 -0.0419,0.746 -0.4229,1.4014 -0.9915,1.8144 l 7.2587,16.4383 c 0.0315,-0.0827 0.0678,-0.1644 0.1091,-0.2449 0.1591,-0.3101 0.3761,-0.5711 0.6311,-0.7765 0.1723,-0.1429 0.3676,-0.264 0.5833,-0.3572 0.0733,-0.0306 0.109,-0.0444 0.1449,-0.0572" /><path
           id="path214"
           style="fill:#006fff;fill-opacity:1;fill-rule:nonzero;stroke:none"
           d="m 231.255,652.4855 -2.4798,-5.6123 c -0.3324,0.2006 -0.7182,0.3236 -1.1333,0.3427 -0.3048,0.014 -0.5989,-0.0292 -0.872,-0.1202 l 2.8197,6.3856 c 0.1757,-0.0836 0.3645,-0.1472 0.564,-0.1872 0.1796,0.0739 0.6397,-0.3377 1.1014,-0.8086" /><path
           id="path216"
           style="fill:#006fff;fill-opacity:1;fill-rule:nonzero;stroke:none"
           d="m 234.6586,664.9608 c 0.2152,0.4871 0.7846,0.7076 1.2717,0.4923 0.4872,-0.2152 0.7076,-0.7846 0.4923,-1.2717 l -3.1836,-7.2055 c -0.5247,0.3546 -1.104,0.6785 -1.7073,0.9037 z" /><path
           id="path218"
           style="fill:#006fff;fill-opacity:1;fill-rule:nonzero;stroke:none"
           d="m 210.515,605.5452 -3.0492,-6.9012 c -0.5234,0.2429 -1.1116,0.5116 -1.765,0.7379 l 3.0865,6.9898 c 0.2845,-0.0876 0.6723,-0.3048 1.2668,-0.6013 0.0326,-0.018 0.0659,-0.0354 0.0997,-0.052 0.0331,-0.0164 0.0664,-0.0319 0.0999,-0.0466 0.0855,-0.0419 0.1728,-0.0842 0.2613,-0.1266" /><path
           id="path220"
           style="fill:#006fff;fill-opacity:1;fill-rule:nonzero;stroke:none"
           d="m 205.5382,594.2812 -3.2473,-7.3495 c -0.583,0.2177 -1.2034,0.4298 -1.8243,0.5965 l 3.3294,7.5401 c 0.4674,-0.1192 1.0371,-0.4335 1.7422,-0.7871" /><path
           id="path222"
           style="fill:#006fff;fill-opacity:1;fill-rule:nonzero;stroke:none"
           d="m 200.4237,582.7058 -2.4891,-5.6336 c -0.1817,0.0615 -0.3592,0.1229 -0.5287,0.1854 -0.3656,0.1339 -0.8075,0.278 -1.2996,0.3961 l 2.4138,5.4665 c 0.2242,0.002 0.4518,0.036 0.6772,0.1044 -0.1637,0.1649 0.3746,-0.1104 1.2264,-0.5188" /><path
           id="path224"
           style="fill:#006fff;fill-opacity:1;fill-rule:nonzero;stroke:none"
           d="m 195.9794,572.6471 -2.4207,-5.4786 c -0.499,0.2616 -1.0203,0.5441 -1.5226,0.8068 -0.0526,0.0326 -0.1069,0.0634 -0.1628,0.0923 l 2.2323,5.0553 c 0.3299,0.1694 0.6279,-0.015 1.5442,-0.3564 0.0311,-0.0129 0.0625,-0.0252 0.0944,-0.0369 0.0326,-0.0119 0.0652,-0.0231 0.0979,-0.0335 0.046,-0.0166 0.0918,-0.0329 0.1373,-0.049" /><path
           id="path226"
           style="fill:#006fff;fill-opacity:1;fill-rule:nonzero;stroke:none"
           d="m 186.1667,550.4383 -34.5648,-78.2299 c -0.2152,-0.4871 -0.7846,-0.7075 -1.2717,-0.4923 -0.4872,0.2152 -0.7076,0.7846 -0.4924,1.2717 l 34.5618,78.2228 c 0.4616,-0.1516 1.0612,-0.4393 1.7671,-0.7723" /><path
           id="path228"
           style="fill:#006fff;fill-opacity:1;fill-rule:nonzero;stroke:none"
           d="m 183.0849,544.1741 c 0.0708,-0.036 0.2214,-0.0889 0.3261,-0.1062 v 0 c 0.3956,-0.0507 0.7574,0.2287 0.8081,0.6242 v 0 c 0.0508,0.3955 -0.2286,0.7573 -0.6241,0.8081 v 0 c -0.3955,0.0508 -0.7573,-0.2286 -0.8081,-0.6242 v 0 c -0.0508,-0.3955 0.2286,-0.7573 0.6241,-0.8081 0.1183,-0.006 0.3948,0.0523 0.5411,0.1358 v 0 c 0.3246,0.2264 0.4043,0.6731 0.1778,0.9978 v 0 c -0.2264,0.3246 -0.6731,0.4042 -0.9977,0.1778 v 0 c -0.3247,-0.2264 -0.4043,-0.6731 -0.1779,-0.9977 v 0 c 0.2264,-0.3247 0.6732,-0.4043 0.9978,-0.1779 0.1078,0.0912 0.2536,0.3042 0.2903,0.4065 v 0 c 0.1175,0.3748 -0.0911,0.7739 -0.466,0.8914 v 0 c -0.3748,0.1175 -0.7739,-0.0911 -0.8914,-0.466 v 0 c -0.1175,-0.3748 0.0912,-0.7739 0.466,-0.8914 v 0 c 0.3748,-0.1175 0.774,0.0911 0.8914,0.466 0.0221,0.0908 0.0349,0.23 0.0315,0.2968 -0.0315,0.215 -0.152,0.4992 -0.2876,0.6742 -0.1555,0.1754 -0.4384,0.3188 -0.5791,0.3536 -0.1351,0.0244 -0.3134,0.0261 -0.4334,0.0168 -0.23,-0.023 -0.5356,-0.1159 -0.7496,-0.2201 -0.356,-0.3005 -0.5485,-0.8009 -0.577,-1.1069 -0.0192,-0.2955 0.0132,-0.6456 0.0593,-0.9005 0.0389,-0.1275 0.0117,-0.5198 0.2252,-0.9937 0.228,-0.3095 0.6273,-0.5284 0.8651,-0.5871 0.2321,-0.0497 0.4955,-0.0654 0.6676,-0.0645 0.4659,0.0259 0.9757,0.3289 1.2301,0.6272 0.2341,0.2993 0.4383,0.7488 0.5196,1.132 0.1105,0.5968 -0.0324,1.2927 -0.2115,1.7323 -0.3464,0.6785 -1.1302,1.1184 -1.7663,1.2455 -0.6314,0.1104 -1.3783,0.069 -1.9333,-0.029 -0.52,-0.1033 -1.1816,-0.2948 -1.6739,-0.7783 -0.561,-0.6815 -0.8521,-1.8843 -0.6974,-2.7423 0.2018,-0.6106 0.8032,-1.1549 1.2975,-1.3212 0.4541,-0.1343 1.0513,-0.1431 1.4798,-0.0472 0.7694,0.2302 1.3645,0.9749 1.6098,1.6284 0.2277,0.6489 0.3203,1.4587 0.2953,2.0717 -0.0333,0.4947 -0.2612,1.0732 -0.5506,1.4262 -0.3138,0.3372 -0.8657,0.6332 -1.3375,0.7171 -0.5976,0.0868 -1.4391,-0.0658 -2.0124,-0.4655 -0.6188,-0.5941 -0.8458,-1.5364 -0.92,-2.122 -0.059,-0.7472 0.2427,-1.601 0.6886,-2.0748 0.4756,-0.4335 1.2636,-0.7285 1.9484,-0.7493 0.727,-0.005 1.7312,0.2252 2.4147,0.8083 0.3474,0.3376 0.6356,0.8451 0.7624,1.2181 0.0995,0.3419 0.0795,0.8287 -0.0105,1.1196 -0.1086,0.2853 -0.3537,0.6339 -0.5708,0.8309 -0.7198,0.4355 -1.5576,0.3712 -1.9981,0.3337 -0.5665,-0.0589 -1.1763,-0.2451 -1.5861,-0.4708 -0.3382,-0.2199 -0.7367,-0.6798 -0.8879,-1.1096 v 0 c -0.1509,-0.5657 0.1854,-1.1466 0.7511,-1.2975 v 0 c 0.5657,-0.1509 1.1466,0.1853 1.2975,0.751 v 0 c 0.1509,0.5657 -0.1854,1.1467 -0.7511,1.2975 v 0 c -0.5657,0.1509 -1.1466,-0.1853 -1.2975,-0.751 -0.0112,-0.2703 0.0635,-0.7031 0.1994,-0.9372 v 0 c 0.2014,-0.4684 0.7443,-0.6848 1.2127,-0.4835 v 0 c 0.4683,0.2014 0.6848,0.7443 0.4834,1.2127 v 0 c -0.2013,0.4683 -0.7442,0.6848 -1.2126,0.4834 v 0 c -0.4684,-0.2013 -0.6848,-0.7442 -0.4835,-1.2126 0.1431,-0.1946 0.3896,-0.431 0.6027,-0.548 v 0 c 0.3394,-0.2708 0.834,-0.2151 1.1047,0.1242 v 0 c 0.2707,0.3394 0.2151,0.834 -0.1243,1.1047 v 0 c -0.3393,0.2708 -0.8339,0.2151 -1.1047,-0.1242 v 0 c -0.2707,-0.3394 -0.2151,-0.834 0.1243,-1.1047 0.3883,-0.1821 0.9618,-0.3348 1.6401,-0.3998 v 0 c 0.2755,-0.0637 0.5505,0.108 0.6143,0.3835 v 0 c 0.0637,0.2756 -0.108,0.5506 -0.3836,0.6143 -0.5467,0.2183 -0.7921,0.4257 -0.891,0.6314 -0.0295,0.0765 0.0569,0.0408 0.1142,0.0465 0.0491,-0.0322 0.1114,-0.2634 0.1527,-0.3365 -0.0584,-0.0819 -0.1596,-0.2115 -0.0469,-0.1533 0.1517,0.1197 0.3429,0.1969 0.7148,0.2505 0.4717,0.0714 0.718,0.1723 0.5177,0.1826 0.0415,-0.0146 0.005,0.0491 0.0135,0.0181 0.027,-0.0254 0.0322,0.1145 0.0231,0.12 -0.0558,-0.1916 -0.1145,-0.3159 -0.2469,-0.4208 -0.2447,-0.2735 -0.5966,-0.3114 -1.1112,-0.2919 -0.3791,-2e-4 -0.4969,0.045 -0.6301,0.2186 -0.1628,0.1332 -0.1729,0.1532 -0.1079,0.4953 0.0505,0.5078 0.0723,0.8646 0.1801,0.8546 0.14,0.1733 0.2714,0.1975 0.5655,0.1601 0.1768,-0.008 0.1741,-10e-4 0.2562,-0.1095 0.1078,-0.0928 0.1236,-0.1164 0.1292,-0.3361 0.0337,-0.4606 -0.01,-0.9581 -0.168,-1.4011 -0.1406,-0.4383 -0.1812,-0.5698 -0.3529,-0.5502 -0.2143,-0.0478 -0.3745,-0.0409 -0.5533,0.0393 -0.1491,0.0511 -0.0886,-0.0125 -0.0442,0.0807 -0.1203,0.3724 -0.007,0.8808 0.2523,1.1198 0.0675,0.1437 0.17,0.124 0.6761,0.2346 0.4313,0.1076 0.8789,0.1636 1.2932,0.1048 0.4094,-0.0423 0.5224,-0.0392 0.5669,-0.2254 0.1455,-0.2781 0.2351,-0.5286 0.1802,-0.7701 -0.0355,-0.209 -0.0921,-0.3368 -0.2041,-0.4636 -0.0917,-0.1278 -0.0132,-0.1007 -0.006,-0.064 -0.1328,0.008 -0.2337,0.0182 -0.322,0.0494 -0.0828,0.0222 0.0399,-0.0604 0.1386,-0.141 -0.0158,-0.0702 0.0387,0.1 -0.0167,0.496 -0.0331,0.1846 -0.0492,0.3407 -0.0333,0.4831 0.007,0.1307 -0.0672,-10e-4 -0.1672,-0.1387 0.0332,0.053 0.066,0.0881 0.139,0.1196 0.0316,0.0181 -0.004,0.028 -0.0161,0.0369 -0.0274,0.0197 -0.2168,0.1243 -0.3203,0.2323 0.0156,-0.0202 -0.0152,0.0344 -0.0392,0.0946 -0.001,0.0283 0.008,0.1328 0.023,0.2017 0.0262,0.069 0.1577,0.2604 0.2618,0.3495 0.1098,0.0583 0.3604,0.1118 0.4465,0.1098 0.0725,-0.0131 0.1848,-0.0519 0.2107,-0.0624 v 0 c -0.3489,0.199 -0.7932,0.0775 -0.9922,-0.2714 v 0 c -0.1991,-0.349 -0.0775,-0.7932 0.2714,-0.9923 z" /><path
           id="path230"
           style="fill:#006fff;fill-opacity:1;fill-rule:nonzero;stroke:none"
           d="m 151.6704,472.7181 c 0.1072,0.2411 0.1853,0.5213 0.2099,0.729 v 0 c 0.0248,0.4146 -0.2911,0.7708 -0.7057,0.7957 v 0 c -0.4146,0.0248 -0.7708,-0.2911 -0.7957,-0.7057 v 0 c -0.0248,-0.4146 0.2911,-0.7708 0.7057,-0.7957 v 0 c 0.4146,-0.0248 0.7708,0.2911 0.7957,0.7057 0.0155,0.2316 -0.0596,0.577 -0.1712,0.783 v 0 c -0.2396,0.3559 -0.7222,0.4501 -1.078,0.2106 v 0 c -0.3558,-0.2395 -0.4501,-0.7221 -0.2106,-1.078 v 0 c 0.2395,-0.3558 0.7222,-0.4501 1.078,-0.2105 v 0 c 0.3558,0.2395 0.4501,0.7221 0.2106,1.0779 -0.152,0.2069 -0.4936,0.4255 -0.7126,0.4842 v 0 c -0.436,0.0757 -0.8508,-0.2164 -0.9265,-0.6525 v 0 c -0.0756,-0.436 0.2165,-0.8508 0.6525,-0.9264 v 0 c 0.4361,-0.0757 0.8509,0.2165 0.9265,0.6525 v 0 c 0.0757,0.436 -0.2165,0.8508 -0.6525,0.9264 -0.2064,0.0352 -0.5089,0.0105 -0.6979,-0.0417 -0.6721,-0.3167 -1.1347,-1.0655 -1.3832,-1.5137 -0.2061,-0.516 -0.1663,-1.1947 0.015,-1.5709 0.1565,-0.2947 0.4927,-0.6153 0.7759,-0.755 0.2863,-0.1179 0.7347,-0.1692 1.0657,-0.1058 0.7511,0.2321 1.3447,0.9902 1.6282,1.5727 0.172,0.3389 0.34,0.8262 0.3529,1.2721 -0.016,0.2812 -0.1668,0.6613 -0.3082,0.8584 -0.1494,0.1828 -0.3933,0.3776 -0.5777,0.4875 -0.3659,0.203 -0.8798,0.3472 -1.2876,0.3961 -0.8874,0.0276 -1.8803,-0.3795 -2.4606,-0.8215 -0.5502,-0.4896 -0.9275,-1.3574 -0.9142,-2.0026 0.0628,-0.3752 0.3488,-0.8457 0.5831,-1.0446 0.228,-0.1681 0.563,-0.3247 0.8291,-0.4035 0.5119,-0.1402 1.2045,-0.1946 1.8167,-0.1517 0.4671,0.0277 1.0007,0.1 1.4691,0.216 0.4796,0.1258 0.974,0.3453 1.3069,0.5567 0.2885,0.1855 0.5963,0.5056 0.7529,0.7613 0.1515,0.3003 0.2098,0.9133 0.0523,1.337 -0.1493,0.2222 -0.4567,0.4681 -0.6142,0.5415 -0.1361,0.0528 -0.3345,0.0996 -0.4563,0.1162 -0.223,0.0259 -0.5039,0.0244 -0.7401,0.0104 -0.4675,-0.03 -0.9954,-0.1059 -1.3807,-0.1494 -0.3308,-0.0449 -0.6442,-0.0867 -0.8855,-0.1328 -0.1462,-0.0337 -0.2688,-0.0646 -0.3477,-0.0895 -0.054,-0.0165 -0.2028,-0.0705 -0.588,-0.3574 v 0 c -0.3696,-0.4341 -0.3174,-1.0855 0.1166,-1.4551 v 0 c 0.434,-0.3696 1.0855,-0.3174 1.4551,0.1167 v 0 c 0.3696,0.434 0.3173,1.0854 -0.1167,1.455 v 0 c -0.434,0.3696 -1.0854,0.3174 -1.455,-0.1166 -0.1002,-1.1987 0.6314,-1.6886 0.72,-1.6967 0.1067,-7e-4 0.1448,0.002 0.1658,0.005 0.272,0.0192 0.6459,0.0752 0.9835,0.1246 0.2828,0.037 0.5279,0.0822 0.6665,0.0956 0.0635,0.007 0.021,0.003 -0.0513,5e-4 -0.0519,0.007 -0.2958,0.0832 -0.4638,0.1796 -0.2039,0.2007 -0.4162,0.7737 -0.4028,1.0164 0.0782,0.2189 0.2337,0.448 0.2501,0.469 0.007,0.003 0.0112,0.009 -0.0452,-0.023 -0.1186,-0.0696 -0.3194,-0.169 -0.5216,-0.2935 -0.1836,-0.1374 -0.6162,-0.3056 -1.0405,-0.7752 v 0 c -0.3514,-0.4592 -0.2639,-1.1163 0.1954,-1.4676 v 0 c 0.4592,-0.3514 1.1163,-0.2639 1.4676,0.1953 v 0 c 0.3513,0.4593 0.2639,1.1164 -0.1954,1.4677 v 0 c -0.4592,0.3513 -1.1163,0.2638 -1.4676,-0.1954 -0.2747,-0.4521 -0.4154,-1.163 -0.3238,-1.6603 v 0 c 0.0885,-0.5194 0.5813,-0.8686 1.1007,-0.7801 v 0 c 0.5194,0.0886 0.8686,0.5814 0.7801,1.1008 v 0 c -0.0886,0.5193 -0.5814,0.8686 -1.1008,0.78 v 0 c -0.5194,-0.0885 -0.8686,-0.5814 -0.78,-1.1007 0.0701,-0.2516 0.2686,-0.6278 0.49,-0.8402 v 0 c 0.3537,-0.3452 0.9202,-0.3383 1.2654,0.0154 v 0 c 0.3452,0.3537 0.3383,0.9203 -0.0154,1.2655 v 0 c -0.3537,0.3452 -0.9203,0.3383 -1.2655,-0.0154 v 0 c -0.3451,-0.3538 -0.3382,-0.9203 0.0155,-1.2655 0.2979,-0.0925 0.7346,-0.1356 1.0218,-0.0174 v 0 c 0.2828,0.001 0.511,0.2318 0.5096,0.5146 v 0 c -0.001,0.2827 -0.2317,0.5109 -0.5145,0.5095 -0.0542,0.1165 0.1222,0.1842 0.2331,0.2742 0.0343,-0.0299 0.119,-0.1526 0.1408,-0.12 -0.005,0.0708 0.0183,0.0471 0.1052,0.0663 -0.0823,-0.0226 0.0889,-0.0181 0.5278,0.2403 0.1001,0.0676 0.2744,0.1565 0.4635,0.2703 0.0974,0.0594 0.2388,0.1561 0.3483,0.2487 0.1191,0.1102 0.343,0.4276 0.4382,0.7347 0.0192,0.2727 -0.2022,0.8696 -0.4088,1.0728 -0.2102,0.1278 -0.4899,0.2146 -0.6075,0.2276 -0.1495,0.006 -0.334,-0.0105 -0.448,-0.0297 -0.2095,-0.0367 -0.4473,-0.0922 -0.6712,-0.1312 -0.3409,-0.0521 -0.6546,-0.1019 -0.8154,-0.1128 0.001,0.002 0.0208,0.004 0.0431,0.006 0.1498,-0.01 0.8769,-0.4982 0.7778,-1.6955 -0.38,-0.2809 -0.4978,-0.3249 -0.4968,-0.3282 0.0313,10e-4 0.1151,0.0119 0.2517,0.0314 0.1693,0.0303 0.4362,0.0621 0.7707,0.1039 0.4145,0.0605 0.8891,0.1424 1.2625,0.1761 0.1826,0.0172 0.2811,0.024 0.3482,0.0164 0.0274,-3e-4 -0.046,0.0193 -0.0914,0.0345 -0.0529,0.0309 -0.29,0.224 -0.4035,0.3806 -0.0496,0.2274 -0.0203,0.5704 -0.0197,0.5855 0.007,-0.0265 0.0431,-0.004 -0.0469,-0.064 -0.1883,-0.1276 -0.4027,-0.226 -0.7281,-0.3068 -0.3566,-0.0953 -0.7134,-0.146 -1.1066,-0.172 -0.4692,-0.0248 -0.8377,0.0133 -1.1258,0.1148 -0.1352,0.042 -0.1356,0.0431 -0.1478,0.0683 -0.006,-0.006 0.1351,-0.2474 0.178,-0.3593 -0.0416,0.0825 -0.022,0.1389 0.1858,0.2622 0.3196,0.2855 0.6806,0.473 1.0653,0.4296 0.2396,0.0125 0.4013,7e-4 0.5542,-0.0623 0.0749,-0.023 0.0511,0.0115 0.0594,0.008 0.0164,0.0105 -0.0391,0.1783 -0.0452,0.2218 0.0361,-0.1126 -0.005,-0.2487 -0.1141,-0.5174 -0.1906,-0.4427 -0.3735,-0.7623 -0.4814,-0.7144 -0.0697,-0.0226 -0.0156,-0.0226 -0.0616,0.0139 -0.0492,0.0148 0.0166,-0.0474 0.0203,-0.0124 -0.0244,0.0663 -0.0177,-0.0128 0.0899,0.0906 0.1993,0.4355 0.3732,0.8438 0.3485,0.7505 0.0216,0.0209 -0.0811,0.0193 -0.1199,0.0245 -0.0439,0.0284 -0.2425,0.1627 -0.2983,0.2267 -0.0155,0.0632 -0.0412,0.2071 -0.0416,0.1746 0.009,-0.0576 0.006,-0.1053 -0.0521,-0.2614 v 0 c -0.154,-0.371 0.0219,-0.7967 0.3929,-0.9507 v 0 c 0.371,-0.154 0.7967,0.0219 0.9507,0.3929 z" /><path
           id="path232"
           style="fill:#000000;fill-opacity:1;fill-rule:nonzero;stroke:none"
           d="m 237.1634,487.578 c 0.097,0.1919 0.1739,0.4905 0.164,0.6979 v 0 c -0.01,0.3748 -0.3215,0.6708 -0.6964,0.661 v 0 c -0.3748,-0.01 -0.6708,-0.3215 -0.661,-0.6963 v 0 c 0.01,-0.3748 0.3215,-0.6708 0.6963,-0.6611 v 0 c 0.3748,0.01 0.6708,0.3215 0.6611,0.6964 -0.0379,0.2247 -0.2132,0.5359 -0.3656,0.6586 v 0 c -0.2656,0.2251 -0.6635,0.1923 -0.8886,-0.0733 v 0 c -0.2252,-0.2656 -0.1924,-0.6634 0.0732,-0.8885 v 0 c 0.2656,-0.2252 0.6634,-0.1924 0.8886,0.0732 v 0 c 0.2252,0.2656 0.1924,0.6634 -0.0732,0.8886 -0.2256,0.2121 -0.6093,0.3484 -0.8868,0.3829 v 0 c -0.4168,-0.0195 -0.739,-0.3733 -0.7195,-0.7901 v 0 c 0.0195,-0.4169 0.3732,-0.739 0.7901,-0.7195 v 0 c 0.4169,0.0195 0.739,0.3732 0.7195,0.7901 v 0 c -0.0195,0.4168 -0.3732,0.739 -0.7901,0.7195 -0.277,0.0233 -0.6618,-0.0358 -0.9596,-0.1387 -0.5702,-0.3733 -0.8996,-1.0449 -1.0202,-1.4206 -0.0771,-0.3255 -0.047,-0.7954 0.0703,-1.0824 0.1507,-0.2821 0.5255,-0.6188 0.841,-0.7288 0.5734,-0.1193 1.2827,0.102 1.6994,0.4091 0.5331,0.4763 0.7645,1.2653 0.8216,1.7088 0.0594,0.3341 -0.001,0.8946 -0.27,1.2959 -0.3553,0.3347 -0.9105,0.4919 -1.2714,0.5063 -0.3501,0.007 -0.7624,-0.0488 -1.0848,-0.1119 -0.7761,-0.1892 -1.5347,-0.6474 -2.0075,-1.1145 -0.4721,-0.4951 -0.8457,-1.2363 -0.932,-1.8432 -0.0148,-0.248 -0.003,-0.8085 0.2556,-1.31 0.4295,-0.5269 1.1925,-0.8477 1.7483,-0.9039 0.6292,-0.0456 1.4786,0.1952 1.9891,0.6289 0.4513,0.5135 0.5851,1.2631 0.5697,1.7149 0.005,0.4536 -0.072,1.1941 -0.4155,1.7998 -0.3506,0.4036 -0.9312,0.6634 -1.2683,0.7249 -0.3304,0.05 -0.7024,0.0469 -0.9366,0.0341 -0.6033,-0.0906 -1.2626,-0.5588 -1.5384,-0.9537 -0.2429,-0.3977 -0.4173,-0.9652 -0.468,-1.3962 -0.0194,-0.3527 -0.008,-0.8553 0.1045,-1.2923 0.2046,-0.5911 0.7091,-1.1631 1.1401,-1.4522 0.4295,-0.272 0.9893,-0.4933 1.4258,-0.591 0.5882,-0.1246 1.3424,0.005 1.8048,0.2665 0.4397,0.2881 0.8702,0.813 1.0885,1.2919 0.2835,0.6175 0.4181,1.4561 0.3689,2.1072 -0.006,0.1293 0.0254,0.6011 -0.2389,1.1795 -0.3238,0.4523 -0.9043,0.7944 -1.3042,0.9274 -0.3959,0.1211 -0.8708,0.1893 -1.2361,0.2222 -1.0233,0.009 -2.1436,-0.4321 -2.7743,-0.8382 -0.393,-0.2905 -0.7817,-0.8217 -0.9277,-1.2016 -0.046,-0.149 -0.134,-0.4375 -0.1697,-0.7465 -0.0139,-0.3227 0.1486,-0.9725 0.4147,-1.3431 0.796,-0.6746 1.8445,-0.7996 2.4459,-0.8699 v 0 c 0.6493,-0.1083 1.2635,0.3303 1.3717,0.9797 v 0 c 0.1083,0.6493 -0.3303,1.2634 -0.9796,1.3717 v 0 c -0.6493,0.1083 -1.2635,-0.3303 -1.3717,-0.9796 v 0 c -0.1083,-0.6493 0.3303,-1.2635 0.9796,-1.3718 0.4531,-0.0618 0.9499,-0.0944 1.3757,-0.0917 v 0 c 0.6373,-0.0137 1.165,0.4918 1.1788,1.129 v 0 c 0.0137,0.6373 -0.4918,1.165 -1.1291,1.1788 v 0 c -0.6373,0.0137 -1.165,-0.4918 -1.1787,-1.1291 v 0 c -0.0137,-0.6373 0.4918,-1.165 1.129,-1.1787 0.2835,0.0178 0.5866,0.0504 0.8374,0.0961 v 0 c 0.5956,0.053 1.0355,0.5787 0.9826,1.1742 v 0 c -0.053,0.5956 -0.5787,1.0355 -1.1742,0.9826 v 0 c -0.5956,-0.0529 -1.0355,-0.5787 -0.9826,-1.1742 v 0 c 0.053,-0.5956 0.5787,-1.0355 1.1742,-0.9826 0.3581,0.2239 0.7107,0.4929 0.8986,0.7804 v 0 c 0.2577,0.1167 0.372,0.4201 0.2553,0.6777 v 0 c -0.1166,0.2576 -0.42,0.3719 -0.6776,0.2552 -0.1769,0.1224 -0.3708,0.2775 -0.6673,0.4435 -0.1865,0.007 -0.3685,0.0255 -0.5955,0.0548 -0.3428,0.0193 -0.6734,0.0618 -1.035,0.1355 -0.6709,0.1418 -1.12,0.1729 -0.8533,0.1443 0.0543,-0.1122 0.1644,-0.4878 0.1773,-0.5213 -0.009,-0.0209 0.009,-0.007 0.0676,0.1564 -0.0141,0.0145 -0.1289,-0.1244 -0.0693,-0.1015 0.3561,0.2782 0.7915,0.5063 1.2347,0.4786 0.2858,0.0164 0.5081,0.0227 0.7098,-0.0102 0.1949,-0.0211 0.1097,0.0758 0.0337,0.1459 -0.0134,0.1917 -0.054,0.1763 0.002,-0.2229 0.0719,-0.3657 0.0474,-0.699 -0.0983,-1.0422 -0.1042,-0.2427 -0.1536,-0.3017 -0.3053,-0.3684 -0.1273,-0.091 -0.0744,-0.0865 -0.2515,-0.0146 -0.2681,0.0831 -0.4856,0.1906 -0.6991,0.3689 -0.2136,0.1615 -0.2194,0.1627 -0.1854,0.2416 -0.0321,0.131 -0.008,0.2527 0.0292,0.5197 0.008,0.2122 0.0183,0.2855 0.0863,0.3783 0.035,0.0957 -0.1869,-0.0306 -0.2229,-0.0748 0.1754,0.0202 0.3045,0.0344 0.4249,0.017 0.1178,-0.006 -0.0582,0.1029 -0.1903,0.2022 0.1202,-0.0406 0.1458,-0.2407 0.202,-0.6378 0.0291,-0.2856 0.0846,-0.2736 0.1028,-0.1614 -0.0883,-0.1214 -0.2013,-0.1358 -0.4365,-0.083 -0.2822,0.0387 -0.2977,0.0334 -0.211,0.0453 0.0165,-0.1211 0.0663,-0.2257 0.0902,0.0267 -0.0249,0.1884 0.0338,0.3475 0.2918,0.632 0.2572,0.3126 0.5264,0.5141 1.003,0.6389 0.2519,0.0805 0.4637,0.1378 0.6535,0.1539 0.1816,0.0243 0.0848,0.0882 -0.0275,0.1543 -0.002,0.1076 -0.0242,0.227 -0.0284,0.044 -0.038,-0.3286 -0.0812,-0.6256 -0.2033,-0.6426 -0.1935,-0.1519 -0.2737,-0.1882 -0.2609,-0.1293 0.0315,-0.019 0.1909,-0.1492 0.2262,-0.1564 0.002,-0.0119 0.0169,-0.139 0.0542,-0.1021 0.086,0.2794 0.1186,0.4469 0.1551,0.3914 0.085,0.0979 0.1185,0.1478 0.2141,0.1894 0.0917,0.0517 0.0316,0.1153 7e-4,0.1634 -0.0381,0.0257 -0.1443,0.2073 -0.178,0.2694 -0.006,0.0454 0.0105,0.1499 -0.0357,0.1156 v 0 c -0.2149,-0.3394 -0.114,-0.7888 0.2254,-1.0037 v 0 c 0.3394,-0.2149 0.7888,-0.114 1.0037,0.2254 z" /></g></g></g></svg>