<?xml version="1.0" encoding="UTF-8" standalone="no"?>
<svg
   xmlns:dc="http://purl.org/dc/elements/1.1/"
   xmlns:cc="http://creativecommons.org/ns#"
   xmlns:rdf="http://www.w3.org/1999/02/22-rdf-syntax-ns#"
   xmlns:svg="http://www.w3.org/2000/svg"
   xmlns="http://www.w3.org/2000/svg"
   viewBox="0 0 369.59241 318.43759"
   height="318.43759"
   width="369.59241"
   xml:space="preserve"
   id="svg2"
   version="1.1"><metadata
     id="metadata8"><rdf:RDF><cc:Work
         rdf:about=""><dc:format>image/svg+xml</dc:format><dc:type
           rdf:resource="http://purl.org/dc/dcmitype/StillImage" /></cc:Work></rdf:RDF></metadata><defs
     id="defs6"><clipPath
       id="clipPath14"
       clipPathUnits="userSpaceOnUse"><path
         id="path12"
         d="M 0,0 H 612 V 792 H 0 Z" /></clipPath><clipPath
       id="clipPath24"
       clipPathUnits="userSpaceOnUse"><path
         id="path22"
         d="M 0,0 H 612 V 792 H 0 Z" /></clipPath><clipPath
       id="clipPath122"
       clipPathUnits="userSpaceOnUse"><path
         id="path120"
         d="m 59.14286,72 h 493.7143 V 720 H 59.14286 Z" /></clipPath><clipPath
       id="clipPath132"
       clipPathUnits="userSpaceOnUse"><path
         id="path130"
         d="M 0,0 H 612 V 792 H 0 Z" /></clipPath><clipPath
       id="clipPath142"
       clipPathUnits="userSpaceOnUse"><path
         id="path140"
         d="m 59.14286,72 h 493.7143 V 720 H 59.14286 Z" /></clipPath><clipPath
       id="clipPath152"
       clipPathUnits="userSpaceOnUse"><path
         id="path150"
         d="M 0,0 H 612 V 792 H 0 Z" /></clipPath><clipPath
       id="clipPath162"
       clipPathUnits="userSpaceOnUse"><path
         id="path160"
         d="m 59.14286,72 h 493.7143 V 720 H 59.14286 Z" /></clipPath></defs><g
     clip-path="url(#clipPath14)"
     transform="matrix(1.3333333,0,0,-1.3333333,-163.0284,942.22893)"
     id="g10"><g
       id="g16" /><g
       id="g18"><g
         clip-path="url(#clipPath24)"
         id="g20"><g
           transform="matrix(0.8456908,0,0,0.8456908,72,720)"
           id="g26"><text
             id="text30"
             style="font-variant:normal;font-weight:normal;font-size:18px;writing-mode:lr-tb;fill:#000000;fill-opacity:0;fill-rule:nonzero;stroke:none"
             transform="matrix(1,0,0,-1,126.5492,-79.88486)"><tspan
               id="tspan28"
               y="0"
               x="0">U</tspan></text>
</g><g
           transform="matrix(0.8456908,0,0,0.8456908,72,720)"
           id="g32"><text
             id="text36"
             style="font-variant:normal;font-weight:normal;font-size:12px;writing-mode:lr-tb;fill:#000000;fill-opacity:0;fill-rule:nonzero;stroke:none"
             transform="matrix(1,0,0,-1,178.6156,-98.89463)"><tspan
               id="tspan34"
               y="0"
               x="0">s</tspan></text>
</g><g
           transform="matrix(0.8456908,0,0,0.8456908,72,720)"
           id="g38"><text
             id="text42"
             style="font-variant:normal;font-weight:normal;font-size:17px;writing-mode:lr-tb;fill:#000000;fill-opacity:0;fill-rule:nonzero;stroke:none"
             transform="matrix(1,0,0,-1,128.4945,-114.5226)"><tspan
               id="tspan40"
               y="0"
               x="0">I</tspan></text>
</g><g
           transform="matrix(0.8456908,0,0,0.8456908,72,720)"
           id="g44"><text
             id="text48"
             style="font-variant:normal;font-weight:normal;font-size:13px;writing-mode:lr-tb;fill:#000000;fill-opacity:0;fill-rule:nonzero;stroke:none"
             transform="matrix(1,0,0,-1,189.2235,-109.7843)"><tspan
               id="tspan46"
               y="0"
               x="0">i</tspan></text>
</g><g
           transform="matrix(0.8456908,0,0,0.8456908,72,720)"
           id="g50"><text
             id="text54"
             style="font-variant:normal;font-weight:normal;font-size:18px;writing-mode:lr-tb;fill:#000000;fill-opacity:0;fill-rule:nonzero;stroke:none"
             transform="matrix(1,0,0,-1,128.4799,-131.6583)"><tspan
               id="tspan52"
               y="0"
               x="0">I</tspan></text>
</g><g
           transform="matrix(0.8456908,0,0,0.8456908,72,720)"
           id="g56"><text
             id="text60"
             style="font-variant:normal;font-weight:normal;font-size:14px;writing-mode:lr-tb;fill:#000000;fill-opacity:0;fill-rule:nonzero;stroke:none"
             transform="matrix(1,0,0,-1,126.0912,-143.8263)"><tspan
               id="tspan58"
               y="0"
               x="0">I</tspan></text>
</g><g
           transform="matrix(0.8456908,0,0,0.8456908,72,720)"
           id="g62"><text
             id="text66"
             style="font-variant:normal;font-weight:normal;font-size:18px;writing-mode:lr-tb;fill:#000000;fill-opacity:0;fill-rule:nonzero;stroke:none"
             transform="matrix(1,0,0,-1,278.6161,-142.2286)"><tspan
               id="tspan64"
               y="0"
               x="0">l</tspan></text>
</g><g
           transform="matrix(0.8456908,0,0,0.8456908,72,720)"
           id="g68"><text
             id="text72"
             style="font-variant:normal;font-weight:normal;font-size:16px;writing-mode:lr-tb;fill:#000000;fill-opacity:0;fill-rule:nonzero;stroke:none"
             transform="matrix(1,0,0,-1,117.1351,-158.7228)"><tspan
               id="tspan70"
               y="0"
               x="0">l</tspan></text>
</g><g
           transform="matrix(0.8456908,0,0,0.8456908,72,720)"
           id="g74"><text
             id="text78"
             style="font-variant:normal;font-weight:normal;font-size:15px;writing-mode:lr-tb;fill:#000000;fill-opacity:0;fill-rule:nonzero;stroke:none"
             transform="matrix(1,0,0,-1,292.496,-154.3136)"><tspan
               id="tspan76"
               y="0"
               x="0">l</tspan></text>
</g><g
           transform="matrix(0.8456908,0,0,0.8456908,72,720)"
           id="g80"><text
             id="text84"
             style="font-variant:normal;font-weight:normal;font-size:19px;writing-mode:lr-tb;fill:#000000;fill-opacity:0;fill-rule:nonzero;stroke:none"
             transform="matrix(1,0,0,-1,103.4733,-176.9425)"><tspan
               id="tspan82"
               y="0"
               x="0">l</tspan></text>
</g><g
           transform="matrix(0.8456908,0,0,0.8456908,72,720)"
           id="g86"><text
             id="text90"
             style="font-variant:normal;font-weight:normal;font-size:16px;writing-mode:lr-tb;fill:#000000;fill-opacity:0;fill-rule:nonzero;stroke:none"
             transform="matrix(1,0,0,-1,303.264,-175.5509)"><tspan
               id="tspan88"
               y="0"
               x="0">l</tspan></text>
</g><g
           transform="matrix(0.8456908,0,0,0.8456908,72,720)"
           id="g92"><text
             id="text96"
             style="font-variant:normal;font-weight:normal;font-size:16px;writing-mode:lr-tb;fill:#000000;fill-opacity:0;fill-rule:nonzero;stroke:none"
             transform="matrix(1,0,0,-1,89.22303,-198.7853)"><tspan
               id="tspan94"
               y="0"
               x="0">l</tspan></text>
</g><g
           transform="matrix(0.8456908,0,0,0.8456908,72,720)"
           id="g98"><text
             id="text102"
             style="font-variant:normal;font-weight:normal;font-size:15px;writing-mode:lr-tb;fill:#000000;fill-opacity:0;fill-rule:nonzero;stroke:none"
             transform="matrix(1,0,0,-1,310.8549,-203.4386)"><tspan
               id="tspan100"
               y="0"
               x="0">I</tspan></text>
</g><g
           transform="matrix(0.8456908,0,0,0.8456908,72,720)"
           id="g104"><text
             id="text108"
             style="font-variant:normal;font-weight:normal;font-size:14px;writing-mode:lr-tb;fill:#000000;fill-opacity:0;fill-rule:nonzero;stroke:none"
             transform="matrix(1,0,0,-1,87.11854,-211.7638)"><tspan
               id="tspan106"
               y="0"
               x="0">I</tspan></text>
</g><g
           transform="matrix(0.8456908,0,0,0.8456908,72,720)"
           id="g110"><text
             id="text114"
             style="font-variant:normal;font-weight:normal;font-size:15px;writing-mode:lr-tb;fill:#000000;fill-opacity:0;fill-rule:nonzero;stroke:none"
             transform="matrix(1,0,0,-1,308.038,-217.1104)"><tspan
               id="tspan112"
               y="0"
               x="0">p</tspan></text>
</g></g></g><g
       id="g116"><g
         clip-path="url(#clipPath122)"
         id="g118"><path
           id="path124"
           style="fill:#000000;fill-opacity:1;fill-rule:nonzero;stroke:none"
           d="m 129.8345,473.5522 c 0,-0.5326 -0.4318,-0.9643 -0.9643,-0.9643 -0.5326,0 -0.9643,0.4317 -0.9643,0.9643 V 693.516 c 0,0.5325 0.4317,0.9642 0.9643,0.9642 0.5325,0 0.9643,-0.4317 0.9643,-0.9642 z" /></g></g><g
       id="g126"><g
         clip-path="url(#clipPath132)"
         id="g128"><path
           id="path134"
           style="fill:#000000;fill-opacity:1;fill-rule:nonzero;stroke:none"
           d="m 123.36,693.516 5.5102,12.6734 5.5102,-12.6734 z" /></g></g><g
       id="g136"><g
         clip-path="url(#clipPath142)"
         id="g138"><path
           id="path144"
           style="fill:#000000;fill-opacity:1;fill-rule:nonzero;stroke:none"
           d="m 128.8702,472.5879 c -0.5326,0 -0.9643,0.4317 -0.9643,0.9643 0,0.5326 0.4317,0.9643 0.9643,0.9643 h 257.7129 c 0.5325,0 0.9642,-0.4317 0.9642,-0.9643 0,-0.5326 -0.4317,-0.9643 -0.9642,-0.9643 z" /></g></g><g
       id="g146"><g
         clip-path="url(#clipPath152)"
         id="g148"><path
           id="path154"
           style="fill:#000000;fill-opacity:1;fill-rule:nonzero;stroke:none"
           d="m 386.5831,479.0624 12.6734,-5.5102 -12.6734,-5.5102 z" /></g></g><g
       id="g156"><g
         clip-path="url(#clipPath162)"
         id="g158"><path
           id="path164"
           style="fill:#000000;fill-opacity:1;fill-rule:nonzero;stroke:none"
           d="m 146.8357,555.8132 c 0.3641,2.2402 0.8818,4.4182 1.6031,6.4062 0.4076,1.1027 0.8839,2.1816 1.4135,3.2404 -0.1415,-0.6751 0.006,-1.4058 0.467,-1.9895 0.1673,-0.212 0.3631,-0.3883 0.5776,-0.5279 -0.1972,-0.4675 -0.382,-0.9396 -0.5533,-1.417 -0.6155,-1.6818 -1.0706,-3.4984 -1.4049,-5.3909 -0.188,0.0578 -0.3789,0.0914 -0.569,0.1022 -0.546,0.0365 -1.0879,-0.1153 -1.534,-0.4235" /><path
           id="path166"
           style="fill:#000000;fill-opacity:1;fill-rule:nonzero;stroke:none"
           d="m 146.2217,543.852 c -0.2203,2.2061 -0.1234,4.5076 0.0265,6.7779 0.0178,0.2536 0.0371,0.5077 0.0578,0.762 0.1689,-0.179 0.3683,-0.335 0.5957,-0.4597 0.4382,-0.2402 0.9185,-0.33 1.3812,-0.2867 -0.004,-0.0523 -0.007,-0.1047 -0.0111,-0.157 -0.1142,-1.5493 -0.2034,-3.0474 -0.1849,-4.4984 -0.4848,-0.2187 -0.8963,-0.5963 -1.151,-1.0903 -0.0234,-0.0214 -0.0576,-0.0607 -0.1003,-0.1158 -0.1122,-0.1281 -0.2124,-0.2701 -0.298,-0.4252 -0.0883,-0.1601 -0.1566,-0.3258 -0.2055,-0.4943 -0.0378,-0.004 -0.0746,-0.009 -0.1104,-0.0125" /><path
           id="path168"
           style="fill:#000000;fill-opacity:1;fill-rule:nonzero;stroke:none"
           d="m 182.5722,608.2081 c -0.6997,-1.8768 -1.6874,-3.7976 -2.8188,-5.7282 -0.6042,0.0222 -1.2254,0.043 -1.8487,0.0596 -0.1029,0.003 -0.2057,0.005 -0.3084,0.008 1.2355,2.0037 2.3141,3.9639 3.0711,5.8552 0.4387,-0.0484 0.8701,-0.0916 1.2806,-0.1338 0.2095,-0.0215 0.4177,-0.0418 0.6242,-0.0608" /><path
           id="path170"
           style="fill:#000000;fill-opacity:1;fill-rule:nonzero;stroke:none"
           d="m 183.5696,635.1711 c -0.4754,-2.3997 -0.731,-5.1539 -0.7225,-7.8889 -0.3576,0.0878 -0.7234,0.1824 -1.0934,0.2846 -0.0556,0.0201 -0.1124,0.0383 -0.1703,0.0545 -0.059,0.0165 -0.118,0.0307 -0.1771,0.0426 -0.1129,0.0317 -0.2255,0.0633 -0.3378,0.0949 0.0431,2.9286 0.3671,5.8591 0.9219,8.3442 0.0455,0.2075 0.0923,0.4114 0.1404,0.6119 0.2887,-0.3127 0.5742,-0.6197 0.8482,-0.9131 0.2027,-0.2172 0.3999,-0.4277 0.5906,-0.6307" /><path
           id="path172"
           style="fill:#000000;fill-opacity:1;fill-rule:nonzero;stroke:none"
           d="m 201.2659,650.6465 c -1.9699,-0.4656 -4.1568,-1.2299 -6.3677,-2.3218 -0.0405,0.7381 -0.0348,1.423 -0.0324,1.9386 2.3546,1.0836 4.7007,1.8331 6.8043,2.2679 -0.1223,-0.5794 -0.2615,-1.2163 -0.4042,-1.8847" /><path
           id="path174"
           style="fill:#000000;fill-opacity:1;fill-rule:nonzero;stroke:none"
           d="m 211.2355,649.1639 c -1.6873,0.9634 -3.1915,1.9394 -4.9434,2.0149 0.1234,0.6106 0.2383,1.2049 0.334,1.7667 2.0325,-0.2331 3.7207,-1.2578 5.3186,-2.1799 -0.2305,-0.4884 -0.4696,-1.0322 -0.7092,-1.6017" /><path
           id="path176"
           style="fill:#000000;fill-opacity:1;fill-rule:nonzero;stroke:none"
           d="m 217.8899,647.5558 c 0.6857,0.0235 1.4495,0.0219 2.179,-0.0905 -0.5593,-0.7996 -1.1577,-1.6936 -1.748,-2.6303 -0.0446,-0.0587 -0.0869,-0.1199 -0.1267,-0.1836 -0.0245,-0.0394 -0.0478,-0.0791 -0.0699,-0.1193 -0.186,0.193 -0.2478,0.3701 -0.2438,0.5454 -0.005,-0.0683 0,-0.117 -0.006,-0.1144 -0.0133,0.015 -0.035,0.0435 -0.0727,0.1077 -0.0759,0.1309 -0.1807,0.3051 -0.2728,0.4631 -0.0153,0.0429 -0.0335,0.0851 -0.0542,0.1268 -0.3872,-10e-5 -0.7787,-6e-4 -1.1553,0.0148 -0.1335,8e-4 -0.1996,0.01 -0.2629,0.0254 -0.3073,0.0382 -0.6214,0.0922 -0.9007,0.1683 0.3646,1.0622 0.7473,1.9851 1.0912,2.721 0.5904,-0.3115 1.1545,-0.6496 1.6429,-1.0344" /><path
           id="path178"
           style="fill:#000000;fill-opacity:1;fill-rule:nonzero;stroke:none"
           d="m 224.3156,645.1287 c 1.3068,-0.9086 2.8737,-2.1483 3.8865,-3.5692 0.0424,-0.0625 0.0863,-0.127 0.131,-0.1938 -0.2206,-0.27 -0.4448,-0.55 -0.6666,-0.836 -0.2175,-0.2847 -0.4278,-0.5765 -0.6312,-0.8732 -0.1295,0.2555 -0.2804,0.4495 -0.4925,0.7445 -0.8013,1.1781 -2.1189,2.2117 -3.3579,3.0804 0.3939,0.595 0.776,1.1495 1.1307,1.6473" /><path
           id="path180"
           style="fill:#000000;fill-opacity:1;fill-rule:nonzero;stroke:none"
           d="m 231.0952,637.0667 c 0.3081,-0.3834 0.6326,-0.7737 0.9728,-1.1811 1.1947,-1.402 2.5776,-2.8937 4.5656,-3.8084 -0.271,-0.593 -0.5825,-1.1775 -0.8816,-1.7606 -2.2685,1.1123 -3.9401,2.8849 -5.1508,4.3298 -0.2007,0.2348 -0.3994,0.4682 -0.5951,0.7014 0.3378,0.5961 0.6987,1.1745 1.0891,1.7189" /><path
           id="path182"
           style="fill:#000000;fill-opacity:1;fill-rule:nonzero;stroke:none"
           d="m 241.2491,630.3571 c 0.9454,-0.341 1.9221,-0.7268 2.9132,-1.2185 0.2525,-0.1263 0.5106,-0.2484 0.7742,-0.3665 -0.3015,-0.5989 -0.5437,-1.2201 -0.7345,-1.844 -0.316,0.1403 -0.625,0.2858 -0.9268,0.4367 -0.9879,0.4984 -1.9873,0.8844 -2.9814,1.2378 0.3135,0.5988 0.634,1.1863 0.9553,1.7545" /><path
           id="path184"
           style="fill:#000000;fill-opacity:1;fill-rule:nonzero;stroke:none"
           d="m 249.6017,627.1858 c 2.3881,-0.6196 5.0588,-1.0931 7.9754,-1.5249 -0.2352,-0.6284 -0.4742,-1.2872 -0.7049,-1.9556 -2.9422,0.4548 -5.7002,0.975 -8.1947,1.6613 0.1136,0.3369 0.2609,0.6796 0.4483,1.025 0.033,0.0518 0.0643,0.1051 0.0937,0.1601 0.0208,0.0388 0.0405,0.078 0.059,0.1175 0.0876,0.1551 0.1982,0.3266 0.3232,0.5166" /><path
           id="path186"
           style="fill:#000000;fill-opacity:1;fill-rule:nonzero;stroke:none"
           d="m 283.3896,622.1841 c 1.7717,-0.3233 3.5636,-0.7313 5.3785,-1.2503 -0.2913,-0.4391 -0.61,-0.912 -0.9099,-1.3934 -0.0278,-0.0399 -0.0547,-0.0809 -0.0805,-0.123 -0.0285,-0.0466 -0.0553,-0.0938 -0.0803,-0.1415 -0.0266,-0.0448 -0.0529,-0.0895 -0.0789,-0.1343 -1.5805,0.4336 -3.14,0.7797 -4.6866,1.0583 0.1395,0.6607 0.2956,1.3305 0.4577,1.9842" /><path
           id="path188"
           style="fill:#000000;fill-opacity:1;fill-rule:nonzero;stroke:none"
           d="m 293.4992,619.3452 c 2.0086,-0.7599 4.0909,-1.639 6.1846,-2.6523 -0.1014,-0.1315 -0.202,-0.2644 -0.3013,-0.3983 -0.267,-0.3628 -0.5269,-0.7373 -0.7744,-1.1168 -0.0378,0.0669 -0.0791,0.1325 -0.124,0.1968 -0.075,0.1061 -0.2236,0.2928 -0.3516,0.4304 -0.0331,0.0327 -0.0883,0.0818 -0.1541,0.1369 -0.1033,0.0943 -0.2145,0.1793 -0.3322,0.2542 -0.5223,0.3266 -1.1461,0.4568 -1.777,0.3278 -0.1543,-0.0316 -0.3021,-0.0772 -0.4423,-0.1353 -1.0392,0.4351 -2.0695,0.8387 -3.0838,1.2136 0.2203,0.3343 0.4561,0.6834 0.6919,1.0446 0.1598,0.245 0.3153,0.479 0.4642,0.6984" /><path
           id="path190"
           style="fill:#000000;fill-opacity:1;fill-rule:nonzero;stroke:none"
           d="m 304.0153,614.398 c 1.7477,-1.0131 3.4731,-2.1283 5.1393,-3.3546 2.4742,-1.8259 4.8044,-3.9788 7.0026,-6.3754 -0.5328,-0.3927 -1.0492,-0.8473 -1.4856,-1.3596 -1.8532,2.0222 -3.8009,3.8553 -5.8615,5.4573 -0.0788,0.2674 -0.2056,0.5255 -0.3823,0.7619 -0.2845,0.277 -0.6252,0.5092 -0.9785,0.6902 -0.3632,0.2598 -0.8002,0.4206 -1.2693,0.4457 -1.1149,0.7513 -2.2481,1.4531 -3.3905,2.1091 0.1418,0.2056 0.2932,0.4169 0.4544,0.6348 0.2696,0.3649 0.5171,0.6785 0.7714,0.9906" /><path
           id="path192"
           style="fill:#000000;fill-opacity:1;fill-rule:nonzero;stroke:none"
           d="m 319.26,601.0232 c 1.6925,-2.1335 3.301,-4.4025 4.8319,-6.762 -0.651,-0.2573 -1.2926,-0.5243 -1.9104,-0.7958 -1.2019,1.8432 -2.4412,3.6155 -3.7255,5.2999 0.1892,0.4752 0.2292,1.0142 0.0795,1.5446 -0.0317,0.1099 -0.0588,0.1797 -0.081,0.2209 0.1337,0.1293 0.4126,0.288 0.8055,0.4924" /><path
           id="path194"
           style="fill:#000000;fill-opacity:1;fill-rule:nonzero;stroke:none"
           d="m 326.6385,590.0898 c 0.3645,-0.6432 0.7212,-1.2981 1.0681,-1.9662 -0.6902,-0.2204 -1.3475,-0.4468 -1.9442,-0.6703 -0.3331,0.6327 -0.6764,1.2546 -1.0281,1.868 0.6248,0.2667 1.2652,0.5249 1.9042,0.7685" /><path
           id="path196"
           style="fill:#000000;fill-opacity:1;fill-rule:nonzero;stroke:none"
           d="m 333.6399,571.4258 c 0.4833,-1.5797 0.9644,-3.1262 1.4623,-4.5884 0.3119,-0.9509 0.6213,-1.8777 0.9106,-2.7935 -0.7685,-0.2268 -1.467,-0.4521 -2.091,-0.6613 -0.291,0.8875 -0.6054,1.7976 -0.9288,2.7514 -0.4946,1.514 -0.9696,3.1078 -1.4433,4.7222 0.6798,0.1881 1.383,0.3811 2.0902,0.5696" /><path
           id="path198"
           style="fill:#000000;fill-opacity:1;fill-rule:nonzero;stroke:none"
           d="m 298.832,507.4228 c -0.7332,0.0509 -1.4669,0.1195 -2.2006,0.1989 -0.0166,0.4943 -0.0196,1.0163 0.004,1.5385 0.003,0.0357 0.006,0.0716 0.007,0.1077 0.002,0.0328 0.002,0.0656 0.002,0.0982 0.002,0.0428 0.004,0.0854 0.006,0.1277 0.6511,-0.0782 1.2993,-0.1478 1.9451,-0.2036 0.0448,-0.6101 0.1275,-1.2436 0.2354,-1.8674" /><path
           id="path200"
           style="fill:#000000;fill-opacity:1;fill-rule:nonzero;stroke:none"
           d="m 278.7711,509.7531 c -1.2007,0.1452 -2.4013,0.2979 -3.6002,0.463 -1.7849,0.238 -3.6009,0.4478 -5.4672,0.6623 -0.001,0.3735 0.006,0.7638 0.0129,1.1741 0.002,0.0321 0.003,0.0643 0.004,0.0967 5e-4,0.0321 4e-4,0.0641 -3e-4,0.096 0.003,0.1913 0.008,0.3771 0.013,0.5568 1.9371,-0.2346 3.8281,-0.464 5.6922,-0.7245 1.1725,-0.1588 2.3484,-0.3059 3.5262,-0.4459 -0.0803,-0.6118 -0.1411,-1.2517 -0.1802,-1.8785" /><path
           id="path202"
           style="fill:#000000;fill-opacity:1;fill-rule:nonzero;stroke:none"
           d="m 224.0843,506.9338 c -1.6117,-0.3969 -3.2067,-0.8232 -4.7895,-1.2858 -0.955,-0.2792 -1.9168,-0.5751 -2.8826,-0.8648 0.1139,0.6942 0.2596,1.3944 0.4636,2.0827 0.6269,0.1925 1.2574,0.3858 1.8914,0.5738 1.8252,0.5413 3.6688,1.0355 5.5347,1.4924 -0.1072,-0.7246 -0.1723,-1.415 -0.2176,-1.9983" /><path
           id="path204"
           style="fill:#000000;fill-opacity:1;fill-rule:nonzero;stroke:none"
           d="m 211.4039,503.4571 c -0.7614,-0.1578 -1.5225,-0.288 -2.2819,-0.3794 -1.8782,-0.2238 -3.7487,-0.2808 -5.6184,-0.2309 -0.3897,0.008 -0.7794,0.023 -1.1686,0.0421 0.1034,0.565 0.2583,1.164 0.4881,1.8035 0.2432,-0.0121 0.4857,-0.0221 0.7273,-0.0295 1.8184,-0.0451 3.5543,0.0107 5.3524,0.2309 0.9011,0.1089 1.8095,0.2791 2.7254,0.4899 -0.0299,-0.1801 -0.0569,-0.3555 -0.0813,-0.525 -0.0667,-0.4861 -0.1131,-0.9539 -0.143,-1.4016" /><path
           id="path206"
           style="fill:#000000;fill-opacity:1;fill-rule:nonzero;stroke:none"
           d="m 162.7828,515.3247 c -0.558,0.4463 -1.1067,0.9021 -1.6439,1.3682 0.737,0.0455 1.4046,0.4288 1.8201,1.0175 0.3347,-0.28 0.6743,-0.5566 1.0186,-0.8302 -0.3966,-0.5023 -0.8035,-1.0284 -1.1948,-1.5555" /><path
           id="path208"
           style="fill:#000000;fill-opacity:1;fill-rule:nonzero;stroke:none"
           d="m 157.3729,520.373 c -0.8975,1.0007 -1.7353,2.0468 -2.4997,3.1442 -0.1922,0.2773 -0.3807,0.5559 -0.5654,0.8359 0.4207,0.5124 0.6293,1.1951 0.5192,1.9017 -0.2052,1.3155 -1.4379,2.2156 -2.7534,2.0105 -0.1368,0.243 -0.2709,0.4865 -0.4025,0.7303 0.4786,0.3984 0.9751,0.8152 1.4773,1.2316 0.8664,-1.7029 1.8362,-3.3906 2.9444,-5.0355 0.1058,-0.3723 0.2527,-0.7401 0.4328,-1.019 0.2069,-0.2571 0.4557,-0.4607 0.7288,-0.6086 0.621,-0.8132 1.2836,-1.5938 1.983,-2.3467 -0.6676,-0.2024 -1.2949,-0.5016 -1.8645,-0.8444" /><path
           id="path210"
           style="fill:#000000;fill-opacity:1;fill-rule:nonzero;stroke:none"
           d="m 149.5166,533.4763 c -0.6464,1.5012 -1.2235,2.9893 -1.7581,4.4382 -0.1497,0.4007 -0.2974,0.8062 -0.4389,1.2164 0.195,0.0255 0.3939,0.0536 0.5904,0.0833 0.4709,0.0765 0.9243,0.183 1.3352,0.2889 0.1055,-0.303 0.2156,-0.6084 0.3287,-0.9176 0.4676,-1.2633 0.9616,-2.5437 1.4967,-3.8294 -0.53,-0.4288 -1.0525,-0.862 -1.554,-1.2798" /><path
           id="path212"
           style="fill:#000000;fill-opacity:1;fill-rule:nonzero;stroke:none"
           d="m 170.5927,509.9741 c -1.3776,0.794 -2.693,1.628 -3.9353,2.4816 0.1709,0.2306 0.345,0.4607 0.5208,0.6894 0.6173,-0.2876 1.3512,-0.3127 2.0166,-0.0101 0.847,-0.5483 1.7201,-1.0821 2.618,-1.5963 -0.4501,-0.5304 -0.8585,-1.0614 -1.2201,-1.5646" /><path
           id="path214"
           style="fill:#000000;fill-opacity:1;fill-rule:nonzero;stroke:none"
           d="m 180.5385,505.5066 c -1.9375,0.6277 -3.819,1.3796 -5.6253,2.2198 0.4158,0.5687 0.8343,1.1058 1.2581,1.5776 1.6998,-0.7712 3.4693,-1.4583 5.3019,-2.0343 -0.3451,-0.6051 -0.6564,-1.1955 -0.9347,-1.7631" /><path
           id="path216"
           style="fill:#000000;fill-opacity:1;fill-rule:nonzero;stroke:none"
           d="m 197.5486,503.2153 c -0.4088,0.0242 -0.816,0.0444 -1.221,0.0581 -1.8631,0.0676 -3.7596,0.0706 -5.6587,0.249 -1.7866,0.1705 -3.5796,0.4156 -5.3545,0.7627 0.267,0.4861 0.5684,0.9993 0.9082,1.5388 0.0167,0.0246 0.0331,0.0496 0.0491,0.075 0.0152,0.024 0.0299,0.0483 0.0441,0.0726 0.0181,0.0287 0.0363,0.0574 0.0546,0.086 1.4744,-0.2717 2.9676,-0.4723 4.4848,-0.6232 1.8093,-0.183 3.6505,-0.1952 5.5463,-0.275 0.507,-0.0225 1.0129,-0.0543 1.5172,-0.091 -0.1634,-0.6415 -0.283,-1.2626 -0.3701,-1.853" /><path
           id="path218"
           style="fill:#000000;fill-opacity:1;fill-rule:nonzero;stroke:none"
           d="m 237.2913,509.5902 c -2.8181,-0.4713 -5.5615,-0.9724 -8.249,-1.533 0.04,0.2872 0.0888,0.5785 0.1506,0.8763 0.0787,0.3892 0.1683,0.7764 0.268,1.162 2.6283,0.5464 5.3058,1.0389 8.0427,1.5032 -0.0782,-0.5636 -0.1409,-1.1133 -0.1851,-1.6226 -0.0106,-0.1295 -0.0196,-0.2582 -0.0272,-0.3859" /><path
           id="path220"
           style="fill:#000000;fill-opacity:1;fill-rule:nonzero;stroke:none"
           d="m 252.0301,511.7541 c -3.2112,-0.3144 -6.5108,-0.8303 -9.8243,-1.3658 0.077,0.6565 0.1817,1.3397 0.3133,2.0272 3.196,0.5088 6.4106,0.9936 9.5564,1.2892 -0.0185,-0.6236 -0.0386,-1.2833 -0.0454,-1.9506" /><path
           id="path222"
           style="fill:#000000;fill-opacity:1;fill-rule:nonzero;stroke:none"
           d="m 264.8865,511.4484 c -2.6225,0.3229 -5.3005,0.6186 -8.0341,0.5975 0.012,0.5855 0.0332,1.1928 0.0509,1.8072 10e-4,0.0421 0.002,0.084 0.004,0.1257 2.764,0.0132 5.4663,-0.2735 8.0324,-0.5859 -0.0222,-0.3923 -0.0352,-0.7805 -0.0417,-1.1556 -0.004,-0.2533 -0.009,-0.5176 -0.0112,-0.7889" /><path
           id="path224"
           style="fill:#000000;fill-opacity:1;fill-rule:nonzero;stroke:none"
           d="m 291.813,508.2272 c -0.2749,0.0352 -0.5498,0.0699 -0.8244,0.1036 -2.4568,0.3159 -4.9352,0.5909 -7.4217,0.8695 0.0305,0.6503 0.0872,1.2807 0.1732,1.89 2.5004,-0.2745 5.0015,-0.5462 7.4904,-0.8603 0.2117,-0.028 0.4229,-0.0565 0.6337,-0.0852 -0.0163,-0.2194 -0.0296,-0.4381 -0.0397,-0.6539 -0.0166,-0.4212 -0.0198,-0.8441 -0.0115,-1.2637" /><path
           id="path226"
           style="fill:#000000;fill-opacity:1;fill-rule:nonzero;stroke:none"
           d="m 307.4507,507.6788 c -1.2724,-0.1703 -2.5631,-0.2833 -3.8654,-0.3359 -0.1239,0.5822 -0.252,1.2472 -0.3221,1.8119 1.5335,0.0721 3.0115,0.2072 4.4584,0.4207 -0.0473,-0.1306 -0.0828,-0.2641 -0.1067,-0.3989 -0.118,-0.384 -0.186,-0.7556 -0.1979,-1.0301 -0.004,-0.1596 0.008,-0.316 0.0337,-0.4677" /><path
           id="path228"
           style="fill:#000000;fill-opacity:1;fill-rule:nonzero;stroke:none"
           d="m 336.4655,535.789 c -0.4334,-3.1249 -1.0358,-6.1419 -2.11,-8.8296 -1.8803,-4.6103 -4.8657,-8.6049 -8.3978,-11.5709 -3.4472,-2.8719 -7.8178,-5.1086 -12.6626,-6.4932 -0.2731,0.4271 -0.5694,0.8386 -0.8898,1.2053 -0.0884,0.1363 -0.1912,0.2647 -0.3078,0.3826 2.6503,0.7148 5.1483,1.7025 7.4257,2.9265 0.2833,0.1101 0.5944,0.2555 0.9176,0.4488 0.0704,0.0572 0.1367,0.1176 0.1989,0.1807 1.4539,0.8593 2.8066,1.819 4.0385,2.8685 0.9571,0.8086 1.8595,1.6822 2.7009,2.6204 0.2534,-0.0734 0.5232,-0.1062 0.8014,-0.0912 1.1275,0.0609 2.0321,0.8873 2.2371,1.9479 0.0407,0.0292 0.0832,0.0607 0.1277,0.0945 0.7672,0.8088 0.8638,2.0101 0.3079,2.9175 0.5902,1.057 1.1195,2.1689 1.583,3.3355 1.0156,2.5017 1.5678,5.2793 1.9977,8.3484 0.6425,-0.1044 1.3286,-0.2024 2.0316,-0.2917" /><path
           id="path230"
           style="fill:#000000;fill-opacity:1;fill-rule:nonzero;stroke:none"
           d="m 337.6038,547.2237 c -0.1286,-2.2286 -0.3189,-4.474 -0.5515,-6.6574 -0.7116,0.0912 -1.4013,0.192 -2.0327,0.2995 0.2135,2.0182 0.3895,4.0851 0.5127,6.1431 0.6101,0.056 1.2115,0.1408 1.7853,0.19 0.0945,0.008 0.1899,0.0166 0.2862,0.0248" /><path
           id="path232"
           style="fill:#000000;fill-opacity:1;fill-rule:nonzero;stroke:none"
           d="m 337.2694,559.3892 c 0.2525,-1.1495 0.4532,-2.3232 0.531,-3.5045 0.0807,-1.2704 0.0531,-2.5376 0.007,-3.8073 -0.2464,-0.0193 -0.4898,-0.0391 -0.7285,-0.0596 -0.0631,-6e-4 -0.1266,-0.004 -0.1905,-0.009 -0.0681,-0.006 -0.1353,-0.0148 -0.2015,-0.0263 -0.3544,-0.0348 -0.6741,-0.0734 -0.9582,-0.1081 0.0396,1.3325 0.0652,2.6057 -0.0292,3.8655 -0.0729,1.004 -0.2473,1.9942 -0.4751,2.9958 0.6165,0.2092 1.2953,0.4315 2.0448,0.6538" /><path
           id="path234"
           style="fill:#000000;fill-opacity:1;fill-rule:nonzero;stroke:none"
           d="m 329.7449,583.7154 c 0.4186,-1.0346 0.8078,-2.1014 1.1613,-3.2047 0.4762,-1.4588 0.8971,-2.9692 1.334,-4.4685 -0.6931,-0.1855 -1.3772,-0.3735 -2.0332,-0.555 -0.4166,1.5042 -0.8094,2.99 -1.2496,4.4014 -0.3498,1.1004 -0.7347,2.1583 -1.1496,3.1813 0.601,0.2186 1.2558,0.4367 1.9371,0.6455" /><path
           id="path236"
           style="fill:#000000;fill-opacity:1;fill-rule:nonzero;stroke:none"
           d="m 273.3686,623.296 c 1.7316,-0.096 3.4778,-0.2272 5.2419,-0.4211 -0.1476,-0.6466 -0.2891,-1.3214 -0.4155,-2.0077 -1.6602,0.1751 -3.3149,0.295 -4.9744,0.3854 -0.2655,0.0148 -0.5297,0.0317 -0.7926,0.0505 0.2848,0.6128 0.5912,1.2318 0.8758,1.8515 0.0217,0.0473 0.0433,0.0945 0.0648,0.1414" /><path
           id="path238"
           style="fill:#000000;fill-opacity:1;fill-rule:nonzero;stroke:none"
           d="m 262.4157,624.8231 c 1.8955,-0.3527 3.8467,-0.7176 5.8664,-1.0087 -0.1961,-0.4131 -0.3988,-0.8478 -0.5936,-1.2966 -0.0198,-0.0401 -0.0386,-0.081 -0.0564,-0.1227 -0.0196,-0.0461 -0.0378,-0.0924 -0.0544,-0.1389 -0.0517,-0.1257 -0.1021,-0.2524 -0.1512,-0.3798 -1.9917,0.302 -3.9025,0.6641 -5.7381,1.0056 0.2393,0.663 0.4865,1.3182 0.7273,1.9411" /><path
           id="path240"
           style="fill:#000000;fill-opacity:1;fill-rule:nonzero;stroke:none"
           d="m 190.3956,645.6671 c -1.2577,-0.8766 -2.374,-1.7973 -3.2114,-2.701 -0.7922,-0.8401 -1.4019,-1.6636 -1.8946,-2.5635 -0.3066,0.3349 -0.6103,0.6701 -0.9023,0.9983 -0.1046,0.1173 -0.2092,0.2369 -0.3136,0.3574 0.5031,0.8444 1.0986,1.6396 1.8148,2.4159 1.0899,1.1623 2.5902,2.3491 4.2269,3.4315 0.0551,-0.6395 0.1536,-1.2991 0.2802,-1.9386" /><path
           id="path242"
           style="fill:#000000;fill-opacity:1;fill-rule:nonzero;stroke:none"
           d="m 183.1839,622.2606 c 0.4126,-3.1255 0.7726,-6.2852 0.4868,-9.3101 -0.3948,0.0326 -0.8054,0.0707 -1.2292,0.1145 -0.1984,0.0204 -0.395,0.0403 -0.5892,0.06 0.2821,2.822 -0.0775,5.8273 -0.4906,8.9893 -0.0248,0.1947 -0.048,0.391 -0.0696,0.5885 0.6587,-0.1671 1.2993,-0.3146 1.8918,-0.4422" /><path
           id="path244"
           style="fill:#000000;fill-opacity:1;fill-rule:nonzero;stroke:none"
           d="m 176.7695,597.7436 c -0.1618,-0.2451 -0.324,-0.4899 -0.4863,-0.7344 -1.2229,-1.8266 -2.6748,-3.6886 -4.0188,-5.3577 -0.5166,-0.6434 -1.0129,-1.2559 -1.502,-1.8535 -0.7177,0.096 -1.4792,0.1931 -2.2346,0.2791 0.7344,0.887 1.4692,1.7884 2.2539,2.7651 1.2509,1.5621 2.5623,3.2479 3.693,4.916 0.672,0.01 1.4537,0.002 2.2948,-0.0146" /><path
           id="path246"
           style="fill:#000000;fill-opacity:1;fill-rule:nonzero;stroke:none"
           d="m 167.0573,585.3812 c -2.773,-3.2278 -6.0684,-6.9253 -9.2764,-11.2063 -0.7301,0.3402 -1.6141,0.3069 -2.3382,-0.1659 -0.4045,-0.264 -0.7035,-0.6289 -0.8855,-1.0399 -0.045,-0.0959 -0.0841,-0.1958 -0.1168,-0.2995 -0.0367,-0.1163 -0.0642,-0.2333 -0.0827,-0.3501 -0.0317,-0.1575 -0.0574,-0.3187 -0.0739,-0.4592 -0.079,-0.6898 0.1415,-1.3449 0.5581,-1.8353 -0.4591,-0.6885 -0.9028,-1.3774 -1.3267,-2.07 -0.0956,0.0371 -0.1948,0.0685 -0.297,0.0937 -0.0571,0.0133 -0.1305,0.027 -0.2126,0.0398 -0.2014,0.0476 -0.4124,0.0699 -0.6291,0.0634 -0.2453,-0.007 -0.4809,-0.0512 -0.7018,-0.1261 -0.1951,-0.0559 -0.3847,-0.137 -0.5639,-0.2436 1.0219,1.7568 2.1644,3.4629 3.3499,5.1359 3.4501,4.8869 7.1191,9.0646 10.2138,12.6272 0.5603,-0.004 1.2815,-0.0544 2.1156,-0.1335 0.0573,-0.01 0.1154,-0.0176 0.1742,-0.0233 0.0311,-0.003 0.0621,-0.005 0.093,-0.007" /><path
           id="path248"
           style="fill:#000000;fill-opacity:1;fill-rule:nonzero;stroke:none"
           d="m 179.9466,665.6055 c 0.0156,0.2527 0.005,0.4951 -0.0385,0.6779 v 0 c -0.1227,0.3893 -0.5378,0.6055 -0.9271,0.4828 v 0 c -0.3893,-0.1227 -0.6055,-0.5378 -0.4828,-0.9271 v 0 c 0.1227,-0.3893 0.5378,-0.6055 0.9271,-0.4828 v 0 c 0.3893,0.1227 0.6055,0.5378 0.4828,0.9271 -0.0521,0.1412 -0.4162,0.4982 -0.7936,0.5659 v 0 c -0.4105,-0.0279 -0.7206,-0.3833 -0.6927,-0.7938 v 0 c 0.0279,-0.4105 0.3833,-0.7206 0.7938,-0.6927 v 0 c 0.4105,0.0279 0.7206,0.3833 0.6927,0.7938 v 0 c -0.0279,0.4105 -0.3833,0.7206 -0.7938,0.6927 -0.316,-0.0852 -0.5662,-0.2921 -0.6294,-0.3788 v 0 c -0.2267,-0.3473 -0.129,-0.8125 0.2182,-1.0392 v 0 c 0.3472,-0.2267 0.8125,-0.129 1.0392,0.2182 v 0 c 0.2267,0.3473 0.129,0.8125 -0.2183,1.0392 v 0 c -0.3472,0.2267 -0.8124,0.129 -1.0391,-0.2182 -0.1515,-0.2464 -0.2886,-0.6658 -0.371,-1.0689 -0.2569,-1.342 -0.3222,-3.8008 -0.0552,-5.8616 0.1933,-1.3326 0.9074,-2.7334 1.9898,-3.3613 0.6416,-0.3163 1.5024,-0.3575 2.1397,-0.1949 0.985,0.3206 1.8144,1.1436 2.338,2.0405 0.5078,0.8901 0.888,1.9991 1.1782,3.0657 0.2811,1.045 0.475,2.1394 0.5496,3.0321 0.0567,0.573 0.05,1.0926 0.0481,1.4493 0.008,0.1886 0.0176,0.3567 0.0273,0.4792 0.005,0.0609 0.01,0.1101 0.0144,0.1444 0.002,0.0172 0.005,0.0319 0.007,0.0427 0.002,0.0104 0.004,0.0464 -1.527,0.1536 v 0 c -0.0788,-0.4199 0.1978,-0.8241 0.6177,-0.9029 v 0 c 0.4199,-0.0787 0.8241,0.1979 0.9029,0.6178 v 0 c 0.0787,0.4199 -0.1979,0.8241 -0.6178,0.9028 v 0 c -0.4199,0.0787 -0.8241,-0.1978 -0.9028,-0.6177 -0.0677,-0.3407 -0.0552,-1.0429 -0.0564,-1.7619 0.006,-1.4938 0.2131,-3.6768 0.7937,-5.22 v 0 c 0.1812,-0.4536 0.6959,-0.6744 1.1494,-0.4931 v 0 c 0.4536,0.1812 0.6744,0.6959 0.4931,1.1494 v 0 c -0.1813,0.4536 -0.6959,0.6744 -1.1495,0.4931 v 0 c -0.4535,-0.1812 -0.6743,-0.6959 -0.493,-1.1494 0.415,-0.9845 1.1779,-1.7301 1.9313,-2.1009 v 0 c 0.4335,-0.2089 0.9543,-0.0269 1.1633,0.4066 v 0 c 0.2089,0.4336 0.0269,0.9544 -0.4067,1.1633 v 0 c -0.4335,0.2089 -0.9543,0.0269 -1.1632,-0.4066 v 0 c -0.209,-0.4336 -0.0269,-0.9544 0.4066,-1.1633 0.5528,-0.2233 1.1951,-0.3402 1.7694,-0.3774 v 0 c 0.4226,-0.0514 0.807,0.2495 0.8584,0.6722 v 0 c 0.0514,0.4227 -0.2495,0.807 -0.6722,0.8584 v 0 c -0.4227,0.0515 -0.807,-0.2495 -0.8584,-0.6722 v 0 c -0.0515,-0.4226 0.2495,-0.807 0.6722,-0.8584 0.2361,0.0585 0.4791,0.1253 0.7088,0.1984 v 0 c 0.2823,-0.0163 0.5244,0.1993 0.5408,0.4816 v 0 c 0.0163,0.2823 -0.1993,0.5244 -0.4817,0.5407 -0.2058,0.0984 -0.3943,0.2002 -0.5823,0.31 -0.4839,0.0915 -0.8509,0.2059 -1.1983,0.4166 -0.5069,0.2366 -0.7907,0.4957 -1.0455,1.1874 -0.5407,1.2625 -0.7554,3.1834 -0.8028,4.5937 -0.0281,0.735 -0.0689,1.367 -0.0569,1.4444 -1.5302,0.1107 -1.5286,0.138 -1.5263,0.1326 0.002,-0.008 0.005,-0.019 0.007,-0.0357 0.004,-0.0334 0.009,-0.0832 0.0133,-0.1453 0.009,-0.1242 0.0178,-0.2992 0.0282,-0.4926 0.002,-0.3647 0.0108,-0.8026 -0.0398,-1.2975 -0.0971,-0.8181 -0.2981,-1.7834 -0.5928,-2.7556 -0.3034,-1.0129 -0.6401,-1.9319 -1.0948,-2.6604 -0.4389,-0.7218 -0.8177,-1.1079 -1.4092,-1.2297 -0.3776,-0.1218 -0.6266,-0.1308 -0.9067,0.036 -0.6262,0.2677 -0.9885,1.0395 -1.1301,2.1118 -0.2871,1.9186 -0.2579,4.1714 -0.0552,5.357 0.0498,0.3237 0.1065,0.5406 0.1059,0.5266 -0.0268,-0.0309 -0.2422,-0.2052 -0.5279,-0.2883 -0.347,0.0698 -0.6852,0.3987 -0.7178,0.4776 -0.003,0.0551 0.002,0.03 -0.004,-0.1646 v 0 c -0.0194,-0.4012 0.2901,-0.7422 0.6914,-0.7617 v 0 c 0.4013,-0.0194 0.7423,0.2901 0.7617,0.6914" /><path
           id="path250"
           style="fill:#006fff;fill-opacity:1;fill-rule:nonzero;stroke:none"
           d="m 279.33,605.3928 c 1.0647,2.5359 2.7112,4.7672 4.7726,6.5268 0.0225,-0.0341 0.0457,-0.0674 0.0697,-0.1 0.2656,-0.418 0.6051,-0.9721 0.9876,-1.5359 -1.5418,-1.3608 -2.8112,-3.0232 -3.7159,-4.8948 -0.5528,-7e-4 -1.1524,0.005 -1.7559,0.004 -0.1194,-2e-4 -0.2389,-3e-4 -0.3581,-2e-4" /><path
           id="path252"
           style="fill:#006fff;fill-opacity:1;fill-rule:nonzero;stroke:none"
           d="m 278.3076,595.2425 c -0.2172,1.0998 -0.3311,2.2367 -0.3311,3.4002 0,0.6525 0.0358,1.2968 0.1056,1.9308 0.5031,-2e-4 1.0521,-0.003 1.616,-0.002 0.1075,2e-4 0.2162,2e-4 0.3256,0 -0.0783,-0.632 -0.1187,-1.2757 -0.1187,-1.9289 0,-0.895 0.0758,-1.7723 0.2212,-2.6258 -0.6041,-0.2286 -1.2175,-0.4877 -1.8186,-0.7744" /><path
           id="path254"
           style="fill:#006fff;fill-opacity:1;fill-rule:nonzero;stroke:none"
           d="m 296.2538,581.2123 c -0.2743,-0.0128 -0.5503,-0.0193 -0.8277,-0.0193 -3.1006,0 -6.0124,0.8087 -8.5358,2.2267 0.154,0.6027 0.3541,1.2502 0.5712,1.8986 2.2284,-1.335 4.8196,-2.1267 7.5906,-2.1923 0.1317,-0.2936 0.2695,-0.5689 0.4093,-0.8186 0.0236,-0.0458 0.0488,-0.0912 0.0756,-0.136 0.0313,-0.0523 0.0642,-0.103 0.0987,-0.152 0.1786,-0.2722 0.388,-0.5455 0.6181,-0.8071" /><path
           id="path256"
           style="fill:#006fff;fill-opacity:1;fill-rule:nonzero;stroke:none"
           d="m 305.407,584.3276 c -0.3858,-0.2694 -0.7829,-0.5237 -1.1906,-0.7619 -0.8786,-0.5132 -1.8061,-0.952 -2.7737,-1.3074 -0.093,0.6704 -0.4665,1.2873 -1.0483,1.6754 0.9992,0.3373 1.9528,0.7736 2.8491,1.2973 0.2946,0.1721 0.5831,0.3536 0.8649,0.5442 0.0177,-0.0231 0.0354,-0.0462 0.0532,-0.0692 0.3744,-0.4787 0.8016,-0.9498 1.2454,-1.3784" /><path
           id="path258"
           style="fill:#006fff;fill-opacity:1;fill-rule:nonzero;stroke:none"
           d="m 312.5975,595.5222 c -0.537,-2.9746 -1.828,-5.6872 -3.668,-7.9324 -0.267,0.2389 -0.5406,0.538 -0.8425,0.9219 -0.0331,0.0499 -0.0682,0.0989 -0.1054,0.147 -0.0359,0.0464 -0.0732,0.0911 -0.1117,0.1341 -0.0719,0.0944 -0.1439,0.1909 -0.216,0.2893 1.4364,1.8346 2.4689,4.0005 2.9637,6.3641 0.7017,0.0316 1.3891,0.0629 1.9799,0.076" /><path
           id="path260"
           style="fill:#006fff;fill-opacity:1;fill-rule:nonzero;stroke:none"
           d="m 293.9177,614.0914 c -1.2212,-0.1178 -2.4011,-0.377 -3.523,-0.7612 0.0374,0.0924 0.0694,0.1882 0.0957,0.2871 0.1803,0.6854 0.3764,1.2954 0.6792,1.952 1.1978,0.3003 2.4448,0.4768 3.7264,0.5151 -0.3621,-0.267 -0.6538,-0.6383 -0.8239,-1.0907 -0.1119,-0.2974 -0.1612,-0.603 -0.1544,-0.9023" /><path
           id="path262"
           style="fill:#006fff;fill-opacity:1;fill-rule:nonzero;stroke:none"
           d="m 310.8635,600.264 c -0.2326,2.2415 -0.9422,4.3413 -2.0257,6.1961 -0.0821,0.1405 -0.1664,0.2796 -0.2527,0.4173 0.4674,0.8098 0.4381,1.8539 -0.1573,2.6502 -0.2845,0.277 -0.6252,0.5092 -0.9785,0.6902 -0.4254,0.3043 -0.952,0.4727 -1.5129,0.4465 -0.0636,-3e-4 -0.0816,-0.003 -0.1006,-0.007 -0.1637,-0.0143 -0.3224,-0.0449 -0.4744,-0.0899 -0.8602,0.7174 -1.7992,1.3435 -2.8021,1.8634 0.2049,0.3117 0.4327,0.6359 0.6846,0.9764 0.1733,0.2346 0.3142,0.418 0.4587,0.601 2.8261,-1.5254 5.1834,-3.8077 6.8004,-6.5755 1.245,-2.131 2.0514,-4.5497 2.2949,-7.1323 -0.6326,9e-4 -1.2931,-0.0155 -1.9344,-0.0366" /><path
           id="path264"
           style="fill:#006fff;fill-opacity:1;fill-rule:nonzero;stroke:none"
           d="m 298.6081,615.1778 c -0.0378,0.0669 -0.0791,0.1325 -0.124,0.1968 -0.075,0.1061 -0.2236,0.2928 -0.3516,0.4304 -0.0243,0.024 -0.0605,0.0569 -0.1042,0.0945 0.32,-0.0478 0.6371,-0.1043 0.9512,-0.1693 -0.1264,-0.1824 -0.2504,-0.3668 -0.3714,-0.5524" /><path
           id="path266"
           style="fill:#006fff;fill-opacity:1;fill-rule:nonzero;stroke:none"
           d="m 282.8083,586.5894 c -0.9409,0.9848 -1.7677,2.0795 -2.4591,3.263 -0.1538,0.2632 -0.3009,0.5308 -0.441,0.8025 0.5942,0.3143 1.1831,0.5824 1.7536,0.8078 0.1126,-0.2155 0.2302,-0.428 0.3526,-0.6375 0.4453,-0.7622 0.9537,-1.4831 1.5181,-2.1554 -0.0122,-0.032 -0.0243,-0.0642 -0.0363,-0.0964 -0.0117,-0.0288 -0.0229,-0.0578 -0.0335,-0.0872 -0.2287,-0.6352 -0.446,-1.2557 -0.6544,-1.8968" /><path
           id="path268"
           style="fill:#006fff;fill-opacity:1;fill-rule:nonzero;stroke:none"
           d="m 197.848,574.3436 c -1.7225,1.4069 -3.6021,2.6288 -5.6083,3.6353 0.2807,0.4277 0.5488,0.8576 0.7824,1.2732 0.0682,0.1233 0.137,0.254 0.2046,0.3895 2.0982,-1.0639 4.0648,-2.3498 5.8689,-3.8268 -0.43,-0.4879 -0.8513,-0.9865 -1.2476,-1.4712" /><path
           id="path270"
           style="fill:#006fff;fill-opacity:1;fill-rule:nonzero;stroke:none"
           d="m 206.1077,563.8166 c -0.3696,0.7772 -0.7712,1.5363 -1.2031,2.2756 -1.0251,1.7546 -2.2208,3.3974 -3.5644,4.9056 0.3916,0.4875 0.8123,0.9915 1.2515,1.4927 1.5053,-1.6606 2.8405,-3.4782 3.9781,-5.4254 0.4408,-0.7545 0.8519,-1.5283 1.2317,-2.3201 -0.5689,-0.3126 -1.1387,-0.6244 -1.6938,-0.9284" /><path
           id="path272"
           style="fill:#006fff;fill-opacity:1;fill-rule:nonzero;stroke:none"
           d="m 210.9687,550.7669 c 0,-0.2514 -0.003,-0.5021 -0.009,-0.7521 -0.5693,-0.1285 -1.233,-0.2488 -1.9399,-0.3591 0.0133,0.3688 0.0199,0.7392 0.0199,1.1112 0,2.9503 -0.4198,5.8025 -1.2031,8.5002 0.0794,0.0431 0.1597,0.0869 0.241,0.1314 0.4832,0.2647 0.9834,0.5384 1.4894,0.816 0.9111,-2.9887 1.4013,-6.1609 1.4013,-9.4476" /><path
           id="path274"
           style="fill:#006fff;fill-opacity:1;fill-rule:nonzero;stroke:none"
           d="m 210.4594,545.0175 c -0.6014,-3.3534 -1.7195,-6.5275 -3.2689,-9.4371 -0.1453,0.0437 -0.2896,0.0873 -0.4325,0.131 -0.5256,0.1607 -1.0034,0.3074 -1.437,0.4667 1.4397,2.63 2.5022,5.4959 3.1148,8.525 0.6734,0.0923 1.3591,0.1973 2.0236,0.3144" /><path
           id="path276"
           style="fill:#006fff;fill-opacity:1;fill-rule:nonzero;stroke:none"
           d="m 193.4803,522.0225 c -3.1572,-1.6362 -6.6182,-2.7676 -10.2762,-3.2872 -0.0695,0.5027 -0.0664,1.0411 -0.004,1.6659 0.006,0.0392 0.0112,0.0788 0.0153,0.1187 0.005,0.0427 0.008,0.0852 0.01,0.1276 3.277,0.5392 6.3779,1.5585 9.2201,3.0117 0.1496,-0.2977 0.3101,-0.5861 0.4816,-0.8604 0.0409,-0.075 0.0862,-0.1486 0.136,-0.2204 0.0379,-0.0547 0.0776,-0.1073 0.1191,-0.1579 0.1,-0.1383 0.1995,-0.2708 0.2976,-0.398" /><path
           id="path278"
           style="fill:#006fff;fill-opacity:1;fill-rule:nonzero;stroke:none"
           d="m 178.4134,518.4128 c -1.7423,0.0106 -3.452,0.1589 -5.1187,0.4345 0.0812,0.6523 -0.1088,1.2836 -0.4874,1.7723 0.0683,0.0769 0.1377,0.1551 0.2083,0.2351 1.7372,-0.3231 3.5262,-0.4986 5.3536,-0.513 -0.0285,-0.6281 -0.0151,-1.2915 0.0442,-1.9289" /><path
           id="path280"
           style="fill:#006fff;fill-opacity:1;fill-rule:nonzero;stroke:none"
           d="m 166.798,520.6377 c -2.3277,0.9135 -4.5238,2.089 -6.552,3.4901 0.4287,0.5064 0.6202,1.1585 0.557,1.7958 0.0229,0.0383 0.0476,0.0779 0.0742,0.1189 2.1535,-1.5476 4.5175,-2.8208 7.0407,-3.7685 -0.368,-0.4819 -0.7663,-1.0424 -1.1199,-1.6363" /><path
           id="path282"
           style="fill:#006fff;fill-opacity:1;fill-rule:nonzero;stroke:none"
           d="m 156.5033,574.3879 c 1.7639,1.6517 3.7129,3.1082 5.8125,4.3348 1.1025,0.6441 2.2465,1.2249 3.427,1.7373 -0.4027,-0.2644 -0.7304,-0.6517 -0.9196,-1.1344 -0.137,-0.4053 -0.2235,-0.9432 -0.2355,-1.5511 -0.4394,-0.2287 -0.8725,-0.4678 -1.299,-0.717 -1.6968,-0.9913 -3.2891,-2.1422 -4.7561,-3.432 -0.5249,0.5702 -1.2843,0.8417 -2.0293,0.7624" /><path
           id="path284"
           style="fill:#006fff;fill-opacity:1;fill-rule:nonzero;stroke:none"
           d="m 146.6253,555.6499 c 0.5409,3.5729 1.666,6.954 3.275,10.0429 -0.2144,-0.7704 -0.0848,-1.5843 0.419,-2.2225 0.1318,-0.167 0.2813,-0.3119 0.4437,-0.4341 -0.9524,-2.1587 -1.6611,-4.4489 -2.0914,-6.836 -0.1005,0.0187 -0.2013,0.0308 -0.3019,0.0365 -0.6352,0.0424 -1.2648,-0.1699 -1.7444,-0.5868" /><path
           id="path286"
           style="fill:#006fff;fill-opacity:1;fill-rule:nonzero;stroke:none"
           d="m 146.8157,544.761 c -0.3653,1.9461 -0.5564,3.9537 -0.5564,6.0059 0,0.2234 0.002,0.4462 0.007,0.6685 0.1771,-0.1973 0.39,-0.3685 0.6357,-0.5032 0.4084,-0.2238 0.8532,-0.3171 1.2864,-0.2937 0.006,-1.528 0.1253,-3.0295 0.3489,-4.4965 -0.6761,-0.1562 -1.2706,-0.6012 -1.6011,-1.2422 -0.0234,-0.0214 -0.0576,-0.0607 -0.1202,-0.1388" /><path
           id="path288"
           style="fill:#006fff;fill-opacity:1;fill-rule:nonzero;stroke:none"
           d="m 150.6773,534.4361 c -0.9147,1.5656 -1.6879,3.1789 -2.3252,4.859 0.726,0.1468 1.3878,0.3448 1.8851,0.4709 0.5534,-1.4263 1.2112,-2.8006 1.9641,-4.1134 -0.51,-0.3946 -1.0219,-0.8058 -1.524,-1.2165" /><path
           id="path290"
           style="fill:#006fff;fill-opacity:1;fill-rule:nonzero;stroke:none"
           d="m 156.1948,527.4385 c -0.9846,0.9466 -1.9095,1.9549 -2.7683,3.0187 0.5011,0.4133 1.0056,0.823 1.5012,1.2106 0.7076,-0.8764 1.4629,-1.7128 2.2619,-2.5052 -0.2571,-0.3581 -0.4979,-0.727 -0.6933,-1.0757 -0.0498,-0.0771 -0.0957,-0.1579 -0.1374,-0.2421 -0.0514,-0.1042 -0.0947,-0.2102 -0.13,-0.3175 -0.0114,-0.029 -0.0228,-0.0587 -0.0341,-0.0888" /><path
           id="path292"
           style="fill:#006fff;fill-opacity:1;fill-rule:nonzero;stroke:none"
           d="m 151.0767,567.7616 c 0.96,1.5522 2.0475,3.0171 3.248,4.3802 -0.0167,-0.098 -0.0306,-0.1938 -0.0409,-0.2815 -0.0859,-0.7501 0.1823,-1.4591 0.6717,-1.96 -0.5079,-0.6272 -0.9913,-1.275 -1.4489,-1.942 -0.093,0.0357 -0.1892,0.066 -0.2884,0.0904 -0.0571,0.0133 -0.1305,0.027 -0.2126,0.0398 -0.2014,0.0476 -0.4124,0.0699 -0.6291,0.0634 -0.2453,-0.007 -0.4809,-0.0512 -0.7018,-0.1261 -0.2075,-0.0594 -0.4088,-0.1474 -0.598,-0.2642" /><path
           id="path294"
           style="fill:#006fff;fill-opacity:1;fill-rule:nonzero;stroke:none"
           d="m 166.5662,580.8039 c 2.8939,1.1618 5.9945,1.9177 9.2314,2.1968 -0.0294,-0.0582 -0.0483,-0.0965 -0.0663,-0.1356 -0.0174,-0.0377 -0.0337,-0.0757 -0.049,-0.1139 -0.2714,-0.5843 -0.5687,-1.1896 -0.833,-1.7887 -1.9696,-0.243 -3.8809,-0.6743 -5.7153,-1.2752 -0.2644,0.4407 -0.6711,0.8006 -1.1865,1.0027 -0.4567,0.1791 -0.935,0.2092 -1.3813,0.1139" /><path
           id="path296"
           style="fill:#006fff;fill-opacity:1;fill-rule:nonzero;stroke:none"
           d="m 204.508,531.3646 c -1.9469,-2.5942 -4.2746,-4.8862 -6.9001,-6.7932 -0.2103,0.2557 -0.4068,0.5052 -0.5794,0.7595 -0.1882,0.2535 -0.3525,0.5377 -0.4957,0.8434 2.2969,1.6764 4.35,3.6668 6.0962,5.9081 0.099,-0.0525 0.1668,-0.0859 0.2368,-0.1163 0.0512,-0.0223 0.1027,-0.0426 0.1545,-0.061 0.4858,-0.2014 0.9969,-0.3807 1.4877,-0.5405" /><path
           id="path298"
           style="fill:#006fff;fill-opacity:1;fill-rule:nonzero;stroke:none"
           d="m 187.6692,579.8228 c -2.3614,0.7352 -4.8463,1.1904 -7.4158,1.3268 0.3309,0.7152 0.6426,1.3704 0.9499,1.8699 2.6154,-0.2071 5.1432,-0.7252 7.5466,-1.5173 -0.317,-0.562 -0.6839,-1.1083 -1.0807,-1.6794" /><path
           id="path300"
           style="fill:#006fff;fill-opacity:1;fill-rule:nonzero;stroke:none"
           d="m 321.3976,548.9813 c 2.3749,-0.9353 4.5175,-2.332 6.3174,-4.0797 -0.5205,-0.386 -1.0101,-0.8297 -1.4524,-1.2788 -1.6507,1.5749 -3.6143,2.8247 -5.788,3.6469 0.2302,0.4954 0.4537,0.9205 0.6579,1.274 0.0222,0.0338 0.0436,0.0684 0.0643,0.1036 0.0206,0.035 0.0402,0.0704 0.0588,0.106 0.0574,0.0961 0.1032,0.1694 0.142,0.228" /><path
           id="path302"
           style="fill:#006fff;fill-opacity:1;fill-rule:nonzero;stroke:none"
           d="m 297.4848,540.1366 c 1.5951,3.003 3.967,5.5304 6.8478,7.3143 -0.0122,-0.7202 0.0201,-1.5055 0.0947,-2.2515 -2.0156,-1.4346 -3.7088,-3.2929 -4.9495,-5.445 -0.5542,-0.0386 -1.089,-0.0661 -1.5772,-0.0764 -0.1188,0.1707 -0.2588,0.3247 -0.4158,0.4586" /><path
           id="path304"
           style="fill:#006fff;fill-opacity:1;fill-rule:nonzero;stroke:none"
           d="m 297.3556,522.4622 c -0.4758,0.9283 -0.8779,1.9006 -1.1987,2.9092 0.107,0.0557 0.2137,0.111 0.3197,0.1658 0.5067,0.262 0.9888,0.5007 1.4297,0.7061 0.2946,-0.986 0.6751,-1.9348 1.1331,-2.8378 -0.0346,-0.017 -0.0695,-0.0343 -0.1047,-0.0519 -0.4933,-0.2534 -1.0372,-0.5585 -1.5791,-0.8914" /><path
           id="path306"
           style="fill:#006fff;fill-opacity:1;fill-rule:nonzero;stroke:none"
           d="m 333.5204,531.1753 c 0,-7.051 -3.8147,-13.2113 -9.4933,-16.5289 -2.83,-1.6533 -6.1226,-2.6011 -9.6367,-2.6011 -2.0059,0 -3.9396,0.3087 -5.7563,0.8812 0.7532,0.3362 1.8139,0.7838 2.9106,1.2817 0.9257,-0.1541 1.8763,-0.2343 2.8457,-0.2343 0.2162,0 0.4315,0.004 0.6459,0.0119 0.5143,-1.0365 1.7169,-1.58 2.8605,-1.2319 0.2849,0.0868 0.542,0.2215 0.7652,0.3926 0.4273,0.097 1.0742,0.2906 1.7788,0.712 0.4999,0.4064 0.7945,0.9718 0.8703,1.5641 0.5998,0.2639 1.1816,0.561 1.7431,0.8891 1.5228,0.8896 2.8966,2.0065 4.0748,3.3042 0.3226,-0.1337 0.6795,-0.1991 1.0515,-0.179 1.1275,0.0609 2.0321,0.8873 2.2371,1.9479 0.0407,0.0292 0.0832,0.0607 0.1277,0.0945 0.9163,0.9659 0.876,2.4918 -0.0899,3.4081 0.5147,1.4079 0.8737,2.8859 1.037,4.4193 0.658,0.1745 1.2384,0.6251 1.5562,1.2868 0.0363,0.1455 0.0639,0.2901 0.0842,0.4317 0.0419,0.1266 0.0733,0.2567 0.0938,0.3888 0.2114,0.9289 -0.1426,1.9349 -0.9721,2.5134 -0.0294,0.0204 -0.0661,0.045 -0.1061,0.071 -0.0638,0.0444 -0.1303,0.0862 -0.1995,0.1251 -0.1189,0.0668 -0.241,0.1224 -0.3652,0.1672 -0.0946,0.0366 -0.1915,0.0672 -0.2903,0.0917 -0.1635,0.8677 -0.3923,1.7123 -0.6809,2.5287 0.07,-0.022 0.1402,-0.0406 0.2105,-0.056 0.0487,-0.0113 0.098,-0.0212 0.1479,-0.0296 0.084,-0.0128 0.0921,-0.0141 0.1003,-0.0154 0.0399,-0.009 0.0802,-0.0161 0.1209,-0.0226 0.0301,-0.005 0.0601,-0.009 0.0901,-0.0129 0.2114,-0.0507 0.7119,-0.2104 1.3789,-0.3622 0.0458,-0.0126 0.0922,-0.0239 0.1392,-0.034 0.4705,-1.6549 0.7201,-3.3998 0.7201,-5.2031" /><path
           id="path308"
           style="fill:#006fff;fill-opacity:1;fill-rule:nonzero;stroke:none"
           d="m 303.8275,515.2234 c -1.3873,0.9205 -2.6476,2.0171 -3.7489,3.258 0.2949,0.1758 0.5912,0.3402 0.888,0.4952 0.056,0.0235 0.1114,0.0493 0.1663,0.0774 0.0546,0.028 0.1076,0.0577 0.1591,0.0891 0.1784,0.087 0.3664,0.168 0.5659,0.2497 1.0596,-1.1266 2.2694,-2.1103 3.5974,-2.9191 -0.6222,-0.3926 -1.1818,-0.8083 -1.6278,-1.2503" /><path
           id="path310"
           style="fill:#006fff;fill-opacity:1;fill-rule:nonzero;stroke:none"
           d="m 295.2788,530.3283 c -0.0122,0.2808 -0.0184,0.5632 -0.0184,0.847 0,1.2992 0.1295,2.5681 0.3763,3.7946 0.4208,-0.0623 0.9051,-0.0993 1.3447,-0.111 0.1925,-0.004 0.394,-0.006 0.602,-0.004 -0.2581,-1.1844 -0.3942,-2.4143 -0.3944,-3.676 -0.5863,-0.2331 -1.2424,-0.5276 -1.9102,-0.8503" /><path
           id="path312"
           style="fill:#006fff;fill-opacity:1;fill-rule:nonzero;stroke:none"
           d="m 309.8858,549.7718 c 1.4445,0.3487 2.953,0.5335 4.5046,0.5335 0.7269,0 1.4444,-0.0405 2.1503,-0.1195 -0.2452,-0.474 -0.5022,-1.0092 -0.7391,-1.5577 -0.0418,-0.0984 -0.0829,-0.1981 -0.1232,-0.2989 -0.4252,0.0315 -0.8548,0.0475 -1.288,0.0475 -1.8285,0 -3.5904,-0.2852 -5.2436,-0.8136 0.007,0.1392 0.0163,0.2717 0.0293,0.3968 0.2506,0.2486 0.4503,0.5564 0.5751,0.9119 0.1046,0.2979 0.1472,0.6026 0.1346,0.9" /></g></g></g></svg>