<?xml version="1.0" encoding="UTF-8" standalone="no"?>
<svg
   xmlns:dc="http://purl.org/dc/elements/1.1/"
   xmlns:cc="http://creativecommons.org/ns#"
   xmlns:rdf="http://www.w3.org/1999/02/22-rdf-syntax-ns#"
   xmlns:svg="http://www.w3.org/2000/svg"
   xmlns="http://www.w3.org/2000/svg"
   viewBox="0 0 260.27667 254.98987"
   height="254.98987"
   width="260.27667"
   xml:space="preserve"
   id="svg2"
   version="1.1"><metadata
     id="metadata8"><rdf:RDF><cc:Work
         rdf:about=""><dc:format>image/svg+xml</dc:format><dc:type
           rdf:resource="http://purl.org/dc/dcmitype/StillImage" /></cc:Work></rdf:RDF></metadata><defs
     id="defs6"><clipPath
       id="clipPath14"
       clipPathUnits="userSpaceOnUse"><path
         id="path12"
         d="M 0,0 H 612 V 792 H 0 Z" /></clipPath><clipPath
       id="clipPath24"
       clipPathUnits="userSpaceOnUse"><path
         id="path22"
         d="M 0,0 H 612 V 792 H 0 Z" /></clipPath><clipPath
       id="clipPath44"
       clipPathUnits="userSpaceOnUse"><path
         id="path42"
         d="m 59.14286,72 h 493.7143 V 720 H 59.14286 Z" /></clipPath><clipPath
       id="clipPath54"
       clipPathUnits="userSpaceOnUse"><path
         id="path52"
         d="M 0,0 H 612 V 792 H 0 Z" /></clipPath><clipPath
       id="clipPath64"
       clipPathUnits="userSpaceOnUse"><path
         id="path62"
         d="m 59.14286,72 h 493.7143 V 720 H 59.14286 Z" /></clipPath><clipPath
       id="clipPath74"
       clipPathUnits="userSpaceOnUse"><path
         id="path72"
         d="M 0,0 H 612 V 792 H 0 Z" /></clipPath><clipPath
       id="clipPath84"
       clipPathUnits="userSpaceOnUse"><path
         id="path82"
         d="m 59.14286,72 h 493.7143 V 720 H 59.14286 Z" /></clipPath><clipPath
       id="clipPath132"
       clipPathUnits="userSpaceOnUse"><path
         id="path130"
         d="M 0,0 H 612 V 792 H 0 Z" /></clipPath><clipPath
       id="clipPath142"
       clipPathUnits="userSpaceOnUse"><path
         id="path140"
         d="m 59.14286,72 h 493.7143 V 720 H 59.14286 Z" /></clipPath></defs><g
     clip-path="url(#clipPath14)"
     transform="matrix(1.3333333,0,0,-1.3333333,-170.1696,910.91067)"
     id="g10"><g
       id="g16" /><g
       id="g18"><g
         clip-path="url(#clipPath24)"
         id="g20"><g
           transform="matrix(0.8456908,0,0,0.8456908,72,720)"
           id="g26"><text
             id="text30"
             style="font-variant:normal;font-weight:normal;font-size:12px;writing-mode:lr-tb;fill:#000000;fill-opacity:0;fill-rule:nonzero;stroke:none"
             transform="matrix(1,0,0,-1,225.454,-157.4897)"><tspan
               id="tspan28"
               y="0"
               x="0">r</tspan></text>
</g><g
           transform="matrix(0.8456908,0,0,0.8456908,72,720)"
           id="g32"><text
             id="text36"
             style="font-variant:normal;font-weight:normal;font-size:20px;writing-mode:lr-tb;fill:#000000;fill-opacity:0;fill-rule:nonzero;stroke:none"
             transform="matrix(1,0,0,-1,175.8045,-191.3257)"><tspan
               id="tspan34"
               y="0"
               x="0">y</tspan></text>
</g></g></g><g
       id="g38"><g
         clip-path="url(#clipPath44)"
         id="g40"><path
           id="path46"
           style="fill:#000000;fill-opacity:1;fill-rule:nonzero;stroke:none"
           d="m 135.531,498.6443 c 0,-0.5325 -0.4318,-0.9643 -0.9643,-0.9643 -0.5326,0 -0.9643,0.4318 -0.9643,0.9643 v 171.2766 c 0,0.5326 0.4317,0.9643 0.9643,0.9643 0.5325,0 0.9643,-0.4317 0.9643,-0.9643 z" /></g></g><g
       id="g48"><g
         clip-path="url(#clipPath54)"
         id="g50"><path
           id="path56"
           style="fill:#000000;fill-opacity:1;fill-rule:nonzero;stroke:none"
           d="m 129.0565,669.9209 5.5102,12.6735 5.5102,-12.6735 z" /></g></g><g
       id="g58"><g
         clip-path="url(#clipPath64)"
         id="g60"><path
           id="path66"
           style="fill:#000000;fill-opacity:1;fill-rule:nonzero;stroke:none"
           d="m 134.5667,497.68 c -0.5326,0 -0.9643,0.4318 -0.9643,0.9643 0,0.5326 0.4317,0.9643 0.9643,0.9643 h 175.1887 c 0.5325,0 0.9642,-0.4317 0.9642,-0.9643 0,-0.5325 -0.4317,-0.9643 -0.9642,-0.9643 z" /></g></g><g
       id="g68"><g
         clip-path="url(#clipPath74)"
         id="g70"><path
           id="path76"
           style="fill:#000000;fill-opacity:1;fill-rule:nonzero;stroke:none"
           d="m 309.7554,504.1545 12.6734,-5.5102 -12.6734,-5.5102 z" /></g></g><g
       id="g78"><g
         clip-path="url(#clipPath84)"
         id="g80"><path
           id="path86"
           style="fill:#006fff;fill-opacity:1;fill-rule:nonzero;stroke:none"
           d="m 247.3697,637.9056 c -2.253,0.3957 -4.5522,0.6569 -6.8892,0.775 0.0187,0.2 0.0268,0.3474 0.0253,0.4421 0.0724,0.1333 0.1629,0.3057 0.2712,0.5223 0.0249,0.0738 0.0485,0.1533 0.0709,0.2372 0.088,0.2269 0.1589,0.4604 0.2119,0.6983 2.3474,-0.138 4.6573,-0.4156 6.9215,-0.8246 -0.1766,-0.5231 -0.3629,-1.0806 -0.5461,-1.6509 -0.0165,-0.0469 -0.0324,-0.0942 -0.0655,-0.1994" /><path
           id="path88"
           style="fill:#006fff;fill-opacity:1;fill-rule:nonzero;stroke:none"
           d="m 278.0181,621.5548 c -2.1756,2.2604 -4.5389,4.3387 -7.065,6.2098 0.3589,0.5782 0.694,1.137 1.0018,1.6579 2.7068,-1.9922 5.2345,-4.2137 7.5541,-6.636 -0.4019,-0.3339 -0.8186,-0.6801 -1.2381,-1.0255 -0.0826,-0.0681 -0.1668,-0.1368 -0.2528,-0.2062" /><path
           id="path90"
           style="fill:#006fff;fill-opacity:1;fill-rule:nonzero;stroke:none"
           d="m 292.4192,594.594 c -0.2924,1.3501 -0.6335,2.6821 -1.0212,3.9941 0.2443,0.1539 0.49,0.3122 0.7321,0.4734 0.3302,0.2211 0.6468,0.436 0.9467,0.6407 0.4802,-1.5653 0.8959,-3.1588 1.2442,-4.7774 -0.6649,-0.1076 -1.3092,-0.2373 -1.9018,-0.3308" /><path
           id="path92"
           style="fill:#006fff;fill-opacity:1;fill-rule:nonzero;stroke:none"
           d="m 295.619,582.6642 c 0,-2.3664 -0.1417,-4.6996 -0.417,-6.9918 -0.6065,0.2475 -1.244,0.4791 -1.8618,0.6889 0.2314,2.0691 0.3502,4.1721 0.3502,6.3029 0,0.7922 -0.0164,1.5805 -0.0489,2.3647 0.7559,0.1131 1.4223,0.2418 1.9161,0.328 0.0408,-0.8925 0.0614,-1.7902 0.0614,-2.6927" /><path
           id="path94"
           style="fill:#006fff;fill-opacity:1;fill-rule:nonzero;stroke:none"
           d="m 269.6722,534.3091 c -0.9301,-0.6182 -1.8791,-1.2102 -2.846,-1.775 -1.6913,-0.9881 -3.4371,-1.8931 -5.2318,-2.7093 0.0724,0.4532 0.1463,0.9069 0.2229,1.3567 0.0187,0.1054 0.023,0.1319 0.027,0.1583 0.0459,0.2674 0.093,0.5338 0.1411,0.7985 1.3189,0.6377 2.6091,1.3255 3.868,2.061 0.9903,0.5785 1.9612,1.1866 2.9117,1.8229 0.0829,-0.1713 0.1655,-0.3373 0.2466,-0.4965 0.2104,-0.4092 0.4339,-0.8188 0.6605,-1.2166" /><path
           id="path96"
           style="fill:#006fff;fill-opacity:1;fill-rule:nonzero;stroke:none"
           d="m 230.2565,525.1071 c -4.1479,0.524 -8.1594,1.4859 -11.9866,2.838 0.373,0.5507 0.7566,1.1014 1.1383,1.6465 3.7372,-1.2808 7.6525,-2.178 11.6989,-2.6445 -0.2813,-0.6245 -0.5678,-1.2404 -0.8506,-1.84" /><path
           id="path98"
           style="fill:#006fff;fill-opacity:1;fill-rule:nonzero;stroke:none"
           d="m 209.3659,531.9688 c -3.2018,1.7871 -6.2167,3.8687 -9.0083,6.2082 0.3771,0.361 0.7648,0.7408 1.1494,1.1425 0.0561,0.0547 0.1111,0.111 0.165,0.169 2.7554,-2.1917 5.672,-4.193 8.768,-5.9099 -0.1099,-0.1612 -0.2198,-0.3233 -0.3292,-0.4859 -0.0547,-0.0728 -0.1077,-0.1476 -0.1589,-0.2244 -0.0504,-0.0756 -0.0985,-0.1521 -0.1441,-0.2294 -0.1494,-0.2252 -0.2968,-0.4489 -0.4419,-0.6701" /><path
           id="path100"
           style="fill:#006fff;fill-opacity:1;fill-rule:nonzero;stroke:none"
           d="m 181.0004,595.4642 c 0.857,3.8061 2.0882,7.4706 3.6527,10.9529 0.1047,-0.058 0.2041,-0.109 0.3059,-0.1568 0.0877,-0.0413 0.176,-0.0796 0.2649,-0.1152 0.4104,-0.1828 0.8126,-0.3476 1.1988,-0.4966 -1.4664,-3.2602 -2.6304,-6.6857 -3.4564,-10.2409 -0.6865,-0.003 -1.3292,0.005 -1.9659,0.0566" /><path
           id="path102"
           style="fill:#006fff;fill-opacity:1;fill-rule:nonzero;stroke:none"
           d="m 204.697,630.455 c 1.1949,0.8242 2.4221,1.6047 3.6795,2.3393 1.2718,0.743 2.5744,1.439 3.9054,2.0856 -0.004,-0.7256 -0.0119,-1.4503 -0.011,-2.1585 -0.9911,-0.5025 -1.9653,-1.0337 -2.9215,-1.5923 -1.5028,-0.8779 -2.9611,-1.8238 -4.3707,-2.8333 -0.085,0.6942 -0.1796,1.42 -0.2817,2.1592" /><path
           id="path104"
           style="fill:#006fff;fill-opacity:1;fill-rule:nonzero;stroke:none"
           d="m 221.9251,638.5391 c 2.9297,0.8203 5.9531,1.4163 9.0504,1.7685 -0.0501,-0.3538 -0.0808,-0.6495 -0.1124,-0.8786 -0.0434,-0.3364 -0.0917,-0.7044 -0.1419,-1.0935 -3.0119,-0.3683 -5.95,-0.9754 -8.7949,-1.8018 8e-4,0.6385 -8e-4,1.3052 -0.001,2.0054" /><path
           id="path106"
           style="fill:#006fff;fill-opacity:1;fill-rule:nonzero;stroke:none"
           d="m 189.3328,614.8653 c 1.9542,2.9233 4.1668,5.6592 6.6053,8.1749 0.136,-0.7328 0.3141,-1.4811 0.5583,-2.2133 -1.9284,-2.0762 -3.7014,-4.2986 -5.3006,-6.6489 -0.6581,0.2152 -1.2632,0.4184 -1.863,0.6873" /><path
           id="path108"
           style="fill:#006fff;fill-opacity:1;fill-rule:nonzero;stroke:none"
           d="m 179.6532,579.8008 c -0.0461,0.9487 -0.0695,1.9033 -0.0695,2.8634 0,1.0891 0.03,2.1711 0.0893,3.2454 0.6586,-0.0625 1.3048,-0.0981 1.9251,-0.1176 -0.057,-1.0354 -0.0858,-2.0782 -0.0858,-3.1278 0,-0.6873 0.0124,-1.3717 0.0369,-2.053 -0.6249,-0.2639 -1.2561,-0.5443 -1.896,-0.8104" /><path
           id="path110"
           style="fill:#006fff;fill-opacity:1;fill-rule:nonzero;stroke:none"
           d="m 183.6303,561.3348 c -1.1002,2.7815 -1.9916,5.6684 -2.6549,8.6413 0.6084,0.2223 1.2212,0.4534 1.8222,0.6936 0.6004,-2.7559 1.4033,-5.4362 2.3925,-8.0244 -0.5116,-0.4192 -1.0344,-0.859 -1.5598,-1.3105" /><path
           id="path112"
           style="fill:#006fff;fill-opacity:1;fill-rule:nonzero;stroke:none"
           d="m 193.5041,544.9602 c -1.995,2.3311 -3.8084,4.8222 -5.4182,7.4515 0.4971,0.4482 0.9875,0.8839 1.466,1.3012 1.5733,-2.6056 3.3526,-5.0728 5.3153,-7.3791 -0.0848,-0.0899 -0.1697,-0.1805 -0.2546,-0.2717 -0.31,-0.3386 -0.6872,-0.7032 -1.1085,-1.1019" /><path
           id="path114"
           style="fill:#006fff;fill-opacity:1;fill-rule:nonzero;stroke:none"
           d="m 251.1841,526.2454 c -3.3984,-0.8153 -6.9131,-1.3314 -10.5147,-1.5191 0.3044,0.6873 0.6033,1.3553 0.8936,1.9866 3.423,0.2388 6.7614,0.7847 9.9877,1.6105 -0.0594,-0.2881 -0.1209,-0.5861 -0.1803,-0.8969 -0.0237,-0.0975 -0.0445,-0.1964 -0.0623,-0.2966 -0.0206,-0.1157 -0.0368,-0.2311 -0.0489,-0.3462 -0.0281,-0.184 -0.053,-0.3638 -0.0751,-0.5383" /><path
           id="path116"
           style="fill:#006fff;fill-opacity:1;fill-rule:nonzero;stroke:none"
           d="m 284.7968,548.9127 c -2.2022,-3.0738 -4.6971,-5.9235 -7.4442,-8.5084 -0.1838,0.3786 -0.3363,0.7248 -0.4748,1.0923 -0.0252,0.0846 -0.0529,0.169 -0.0831,0.2532 -0.0345,0.0963 -0.0718,0.1908 -0.1116,0.2834 -0.0406,0.1114 -0.0763,0.2089 -0.1072,0.2952 2.4031,2.3225 4.5992,4.8578 6.558,7.5755 0.196,-0.1397 0.4017,-0.2803 0.6091,-0.414 0.1603,-0.1156 0.3296,-0.2227 0.5074,-0.3201 0.1789,-0.0982 0.3614,-0.1837 0.5464,-0.2571" /><path
           id="path118"
           style="fill:#006fff;fill-opacity:1;fill-rule:nonzero;stroke:none"
           d="m 293.0366,565.4951 c -0.8669,-2.8022 -1.9404,-5.5136 -3.2028,-8.1164 -0.3915,0.218 -0.8144,0.3824 -1.2572,0.485 -0.0462,0.037 -0.0995,0.0798 -0.1612,0.1291 -0.1093,0.0865 -0.2128,0.1668 -0.3105,0.2418 1.329,2.7423 2.4412,5.6092 3.3143,8.5784 0.1649,-0.0666 0.3181,-0.1331 0.4595,-0.2004 0.323,-0.4383 0.7158,-0.8148 1.1579,-1.1175" /><path
           id="path120"
           style="fill:#006fff;fill-opacity:1;fill-rule:nonzero;stroke:none"
           d="m 287.777,607.7597 c -0.5373,1.0722 -1.108,2.1249 -1.7107,3.1565 -0.626,1.0715 -1.2865,2.1203 -1.9799,3.145 0.0604,0.0488 0.1208,0.0978 0.1814,0.1472 0.045,0.0345 0.0896,0.07 0.1338,0.1063 0.0412,0.0339 0.0816,0.0683 0.1214,0.1033 0.3688,0.3042 0.7241,0.5994 1.057,0.8765 0.7552,-1.1082 1.4729,-2.244 2.1515,-3.4054 0.5797,-0.9924 1.1309,-2.0035 1.6523,-3.0323 -0.4907,-0.3295 -1.0324,-0.7042 -1.6068,-1.0971" /><path
           id="path122"
           style="fill:#006fff;fill-opacity:1;fill-rule:nonzero;stroke:none"
           d="m 262.7417,632.8171 c -1.9514,0.9801 -3.9679,1.8497 -6.0413,2.6005 0.2006,0.6175 0.4108,1.2367 0.6119,1.8301 2.2112,-0.7986 4.3599,-1.7278 6.4369,-2.7782 -0.3364,-0.5589 -0.6718,-1.1153 -1.0075,-1.6524" /><path
           id="path124"
           style="fill:#000000;fill-opacity:1;fill-rule:nonzero;stroke:none"
           d="m 235.3181,580.8655 c -0.5326,0 -0.9643,0.4317 -0.9643,0.9643 0,0.5325 0.4317,0.9642 0.9643,0.9642 h 46.6559 c 0.5326,0 0.9643,-0.4317 0.9643,-0.9642 0,-0.5326 -0.4317,-0.9643 -0.9643,-0.9643 z" /></g></g><g
       id="g126"><g
         clip-path="url(#clipPath132)"
         id="g128"><path
           id="path134"
           style="fill:#000000;fill-opacity:1;fill-rule:nonzero;stroke:none"
           d="m 281.974,587.34 12.6735,-5.5102 -12.6735,-5.5102 z" /></g></g><g
       id="g136"><g
         clip-path="url(#clipPath142)"
         id="g138"><path
           id="path144"
           style="fill:#000000;fill-opacity:1;fill-rule:nonzero;stroke:none"
           d="m 262.3736,594.3124 c 0.0104,0.1957 0.0189,0.323 0.0261,0.3935 v 0 c 0.005,0.4123 -0.3259,0.7503 -0.7382,0.7549 v 0 c -0.4122,0.005 -0.7502,-0.3259 -0.7548,-0.7382 v 0 c -0.005,-0.4122 0.3259,-0.7502 0.7382,-0.7548 v 0 c 0.4122,-0.005 0.7502,0.3259 0.7548,0.7381 0.004,0.0366 0.007,0.0656 0.01,0.0864 v 0 c -0.009,0.4175 -0.3544,0.7488 -0.7719,0.7399 v 0 c -0.4175,-0.009 -0.7488,-0.3543 -0.74,-0.7718 v 0 c 0.009,-0.4175 0.3544,-0.7488 0.7719,-0.74 v 0 c 0.4175,0.009 0.7488,0.3544 0.74,0.7719 -0.005,0.1011 -1.5181,0.0247 -1.5222,4e-4 v 0 c -0.015,-0.4226 0.3155,-0.7773 0.7381,-0.7923 v 0 c 0.4225,-0.015 0.7773,0.3155 0.7923,0.7381 v 0 c 0.0149,0.4225 -0.3155,0.7773 -0.7381,0.7923 v 0 c -0.4226,0.0149 -0.7773,-0.3155 -0.7923,-0.7381 -0.0151,-0.0682 -0.0321,-0.3021 -0.0448,-0.5806 -0.0137,-0.356 -0.0135,-0.8928 0.0389,-1.4012 0.0527,-0.3319 0.1548,-0.6469 0.2329,-0.891 0.0897,-0.26 0.1746,-0.5488 0.2721,-0.7936 0.0649,-0.1467 0.1348,-0.299 0.2039,-0.4148 0.0402,-0.066 0.1363,-0.1995 0.2508,-0.3057 0.0833,-0.0598 0.3601,-0.1689 0.5584,-0.1761 0.1964,0.0437 0.4712,0.2209 0.5475,0.3157 0.1733,0.3314 0.1927,0.6585 0.1843,0.8388 -0.009,0.1772 -0.0231,0.3278 -0.0123,0.4488 v 0 c 0.0112,0.4169 -0.3177,0.764 -0.7346,0.7751 v 0 c -0.4169,0.0112 -0.764,-0.3177 -0.7751,-0.7346 v 0 c -0.0112,-0.4169 0.3177,-0.7639 0.7346,-0.7751 v 0 c 0.4169,-0.0112 0.7639,0.3177 0.7751,0.7346 0.0275,0.4575 0.2264,0.7934 0.6154,1.1842 v 0 c 0.3069,0.3569 0.2663,0.895 -0.0905,1.2018 v 0 c -0.3569,0.3069 -0.895,0.2663 -1.2018,-0.0906 v 0 c -0.3069,-0.3568 -0.2664,-0.8949 0.0905,-1.2017 v 0 c 0.3569,-0.3069 0.895,-0.2664 1.2018,0.0905 0.222,0.2202 0.442,0.3733 0.736,0.5283 v 0 c 0.4334,0.2799 0.5577,0.8582 0.2777,1.2915 v 0 c -0.28,0.4333 -0.8582,0.5576 -1.2915,0.2776 v 0 c -0.4334,-0.2799 -0.5577,-0.8582 -0.2777,-1.2915 v 0 c 0.28,-0.4333 0.8582,-0.5576 1.2915,-0.2776 0.8443,0.7348 1.871,1.0705 2.8155,0.6157 v 0 c 0.2425,-0.1454 0.557,-0.0668 0.7024,0.1758 v 0 c 0.1455,0.2425 0.0668,0.557 -0.1757,0.7024 -1.2544,0.8639 -3.0536,0.7272 -4.356,0.0753 -0.3665,-0.2719 -0.7427,-0.6321 -1.0146,-0.9863 -0.4752,-0.6142 -0.827,-1.4705 -0.8327,-2.2549 10e-4,-0.2349 0.0323,-0.4621 0.0488,-0.6051 0.0167,-0.1398 0.041,-0.0751 0.1218,0.1293 0.0656,0.0802 0.3274,0.2488 0.5101,0.2915 0.1845,-0.008 0.4467,-0.1109 0.5186,-0.1608 0.0796,-0.0763 0.1414,-0.1557 0.1439,-0.1452 -0.006,0.0373 -0.0259,0.1278 -0.0647,0.2744 -0.0498,0.1714 -0.1045,0.437 -0.182,0.7372 -0.0727,0.2612 -0.1313,0.4522 -0.1479,0.6396 -0.0704,0.4133 -0.0936,0.845 -0.1076,1.1782 -0.0129,0.2652 -0.0217,0.4778 -0.0327,0.5258 -0.003,0.005 -1.5156,-0.0633 -1.52,0.022 0.003,0.005 0.006,-0.006 0.009,-0.0379 0.006,-0.0656 0.0101,-0.1862 0.0124,-0.3795 v 0 c -0.009,-0.4017 0.3103,-0.7341 0.7119,-0.7426 v 0 c 0.4017,-0.008 0.7341,0.3103 0.7426,0.712" /><path
           id="path146"
           style="fill:#000000;fill-opacity:1;fill-rule:nonzero;stroke:none"
           d="m 236.4831,582.1715 c -0.0169,-0.0824 0.008,0.1828 -0.008,0.5143 v 0 c -0.01,0.3841 -0.3287,0.6878 -0.7128,0.6782 v 0 c -0.3841,-0.01 -0.6877,-0.3286 -0.6782,-0.7127 v 0 c 0.01,-0.3841 0.3286,-0.6877 0.7127,-0.6782 v 0 c 0.3841,0.01 0.6878,0.3286 0.6783,0.7127 0.009,0.3137 -0.1438,0.7186 -0.3018,0.9408 v 0 c -0.3087,0.3122 -0.8121,0.3151 -1.1243,0.006 v 0 c -0.3123,-0.3087 -0.3152,-0.8121 -0.007,-1.1243 v 0 c 0.3086,-0.3123 0.812,-0.3152 1.1243,-0.006 v 0 c 0.3122,0.3086 0.3151,0.812 0.007,1.1243 -0.1842,0.2162 -0.5565,0.4332 -0.8444,0.509 v 0 c -0.4918,0.0464 -0.928,-0.3147 -0.9743,-0.8065 v 0 c -0.0464,-0.4917 0.3147,-0.9279 0.8064,-0.9743 v 0 c 0.4918,-0.0463 0.928,0.3147 0.9744,0.8065 v 0 c 0.0463,0.4917 -0.3148,0.928 -0.8065,0.9743 -0.4174,-0.003 -0.8667,-0.2042 -1.0913,-0.3766 -0.2108,-0.1707 -0.4287,-0.4043 -0.5845,-0.5932 -0.2166,-0.2942 -0.4239,-0.6906 -0.5289,-1.0191 -0.0996,-0.3406 -0.1286,-0.8529 0.004,-1.2397 0.1759,-0.2946 0.5376,-0.5387 0.7043,-0.5872 0.1462,-0.0321 0.3324,-0.046 0.4573,-0.0443 0.2406,0.006 0.5172,0.0439 0.7087,0.0757 0.6083,0.1034 1.2792,0.4575 1.724,0.8143 0.239,0.1901 0.4908,0.4322 0.6536,0.6384 0.0867,0.1175 0.2029,0.3427 0.2575,0.5403 0.0198,0.1209 0.007,0.3939 -0.041,0.5634 -0.0771,0.1686 -0.3061,0.4333 -0.4487,0.5299 -0.3325,0.137 -0.7459,0.1481 -0.9611,0.1049 -0.197,-0.0452 -0.4326,-0.1272 -0.6302,-0.2091 -0.3886,-0.1624 -0.8208,-0.3841 -1.1758,-0.5599 -0.4136,-0.2234 -0.8543,-0.5021 -1.1552,-0.782 -0.3699,-0.3662 -0.6977,-0.9335 -0.72,-1.4462 0.0746,-0.3233 0.3528,-0.6524 0.4702,-0.7203 0.0991,-0.0447 0.2266,-0.083 0.2974,-0.0972 0.1291,-0.0227 0.2987,-0.0358 0.4427,-0.0381 0.2808,-0.003 0.6516,0.0228 0.9415,0.0722 0.5434,0.0891 1.1555,0.2964 1.593,0.5006 0.2689,0.1092 0.5519,0.2688 0.7402,0.4159 0.1062,0.0943 0.2704,0.3246 0.3522,0.5313 0.0472,0.274 -0.1431,0.854 -0.3488,1.0655 -0.4171,0.2603 -0.9784,0.3399 -1.3661,0.3173 -0.3767,-0.0464 -0.8602,-0.1812 -1.2044,-0.3559 -0.2429,-0.1249 -0.596,-0.4267 -0.7846,-0.7582 v 0 c -0.218,-0.5012 0.0116,-1.0843 0.5129,-1.3023 v 0 c 0.5012,-0.218 1.0843,0.0116 1.3023,0.5129 v 0 c 0.218,0.5012 -0.0116,1.0843 -0.5129,1.3023 v 0 c -0.5012,0.218 -1.0843,-0.0116 -1.3023,-0.5129 -0.0347,-0.2067 -0.0284,-0.5894 0.0556,-0.7985 v 0 c 0.1282,-0.4632 0.6076,-0.7348 1.0709,-0.6067 v 0 c 0.4632,0.1282 0.7349,0.6077 0.6067,1.0709 v 0 c -0.1282,0.4633 -0.6076,0.7349 -1.0709,0.6067 v 0 c -0.4633,-0.1281 -0.7349,-0.6076 -0.6067,-1.0709 0.0996,-0.1718 0.2872,-0.3959 0.4382,-0.4924 v 0 c 0.2987,-0.2877 0.774,-0.2788 1.0617,0.0199 v 0 c 0.2877,0.2987 0.2788,0.774 -0.0199,1.0617 v 0 c -0.2987,0.2877 -0.774,0.2788 -1.0617,-0.0199 v 0 c -0.2877,-0.2987 -0.2788,-0.7741 0.0199,-1.0617 0.2662,-0.1347 0.6548,-0.2599 1.0949,-0.3301 v 0 c 0.2671,-0.0929 0.5589,0.0484 0.6518,0.3155 v 0 c 0.0928,0.2671 -0.0484,0.5589 -0.3155,0.6518 -0.3112,0.1909 -0.3949,0.3278 -0.3891,0.4441 0.0204,0.0293 0.1306,-0.0717 0.1973,-0.1247 0.0511,-0.0901 0.069,-0.3578 0.0817,-0.4558 -0.0929,-0.1115 -0.2063,-0.2159 -0.1328,-0.1762 0.1311,0.0728 0.2959,0.1116 0.5134,0.128 0.2069,0.0403 0.1861,0.072 0.0274,0.1369 -0.1381,0.1605 -0.3069,0.6752 -0.2787,0.8735 0.0627,0.1302 0.1673,0.2734 0.1782,0.2736 -0.003,-0.0413 -0.0537,-0.0986 -0.224,-0.2042 -0.3372,-0.175 -0.7463,-0.3289 -1.1464,-0.4015 -0.2009,-0.0346 -0.4398,-0.049 -0.6468,-0.0434 -0.0999,0.002 -0.1439,0.005 -0.1687,0.0126 -0.005,4e-4 0.0615,-0.02 0.1152,-0.0419 0.0779,-0.0479 0.3325,-0.3524 0.4062,-0.6477 -0.0351,-0.1249 0.0267,-0.0918 0.2759,0.0845 0.1693,0.1323 0.447,0.27 0.8223,0.4344 0.37,0.1805 0.754,0.3762 1.068,0.5033 0.1539,0.0631 0.2414,0.0943 0.3136,0.1069 0.054,0.0146 -0.144,0.028 -0.3393,0.0881 -0.1019,0.0738 -0.3032,0.3067 -0.3652,0.4355 -0.0333,0.1314 -0.0444,0.3584 -0.0342,0.4274 0.0353,0.0931 0.0858,0.19 0.0706,0.1629 -0.0403,-0.0819 -0.1359,-0.1913 -0.3056,-0.3468 -0.2908,-0.2654 -0.5748,-0.4435 -0.8684,-0.4859 -0.1697,-0.0265 -0.3364,-0.0496 -0.4652,-0.0487 -0.0597,-0.001 -0.0398,-0.004 -0.0206,-0.004 0.0373,-0.0159 0.3087,-0.2066 0.452,-0.4197 0.002,-0.0634 0.0207,-0.1137 0.0907,0.0396 0.0644,0.1648 0.149,0.2937 0.2921,0.449 0.1153,0.1498 0.2026,0.254 0.296,0.3296 0.0803,0.0746 -0.0652,0.0285 -0.2138,6e-4 -0.0255,0.051 -0.1344,0.1398 -0.1192,0.1542 0.0418,0.02 0.0249,0.1488 0.0419,0.1424 -0.003,-0.2226 -0.0512,-0.5379 -0.008,-0.8489 v 0 c 0.1018,-0.3886 0.4995,-0.621 0.888,-0.5191 v 0 c 0.3886,0.1019 0.6211,0.4995 0.5192,0.8881" /><path
           id="path148"
           style="fill:#000000;fill-opacity:1;fill-rule:nonzero;stroke:none"
           d="m 224.7764,574.1252 c -0.0516,0.1948 -0.1218,0.3883 -0.1872,0.5219 v 0 c -0.2187,0.3582 -0.6863,0.4713 -1.0445,0.2527 v 0 c -0.3582,-0.2187 -0.4713,-0.6864 -0.2527,-1.0446 v 0 c 0.2187,-0.3582 0.6864,-0.4713 1.0446,-0.2526 v 0 c 0.3582,0.2187 0.4713,0.6863 0.2526,1.0445 -0.0438,0.079 -0.15,0.2127 -0.2423,0.2971 v 0 c -0.3428,0.2573 -0.8293,0.188 -1.0866,-0.1549 v 0 c -0.2573,-0.3428 -0.188,-0.8293 0.1548,-1.0866 v 0 c 0.3429,-0.2573 0.8294,-0.188 1.0867,0.1549 v 0 c 0.2573,0.3428 0.1879,0.8293 -0.1549,1.0866 -0.1311,0.0904 -0.5066,0.1844 -0.7248,0.1579 v 0 c -0.4224,-0.1143 -0.6722,-0.5495 -0.5578,-0.9719 v 0 c 0.1144,-0.4224 0.5495,-0.6721 0.9719,-0.5578 v 0 c 0.4225,0.1144 0.6722,0.5496 0.5578,0.972 v 0 c -0.1144,0.4224 -0.5495,0.6721 -0.9719,0.5577 -0.2006,-0.0742 -0.4371,-0.2636 -0.5127,-0.3581 -0.056,-0.0813 -0.1172,-0.2039 -0.146,-0.2723 -0.0495,-0.1251 -0.0924,-0.2926 -0.1194,-0.4271 -0.0447,-0.3653 -0.1011,-1.1044 0.0614,-1.7716 0.3755,-1.0728 1.491,-1.7687 2.3331,-2.0311 0.3635,-0.1101 0.8081,-0.181 1.2164,-0.1937 0.2511,-0.004 0.6567,-0.0522 1.0951,0.0197 0.5582,0.1478 1.0109,0.5433 1.2345,0.7678 0.3207,0.3572 0.4815,0.8175 0.5265,0.9932 0.0523,0.1697 0.0919,0.3639 0.1104,0.4927 0.009,0.0729 0.0103,0.1959 0.002,0.2938 -0.01,0.0632 -0.0665,0.2394 -0.1441,0.3809 -0.1587,0.1806 -0.8262,0.3917 -1.1309,0.3077 -0.2636,-0.1782 -0.4704,-0.471 -0.5208,-0.5972 -0.0384,-0.112 -0.0698,-0.2472 -0.086,-0.3375 -0.0305,-0.1756 -0.0482,-0.3388 -0.0737,-0.4556 -0.2395,-1.2198 -0.568,-3.9576 -1.2741,-6.0339 -0.4596,-1.3301 -0.9595,-2.123 -1.4933,-2.5256 -0.2134,-0.1772 -0.2722,-0.2031 -0.4926,-0.2145 v 0 c -0.4946,-0.0567 -0.8496,-0.5036 -0.793,-0.9983 v 0 c 0.0567,-0.4946 0.5037,-0.8496 0.9983,-0.7929 v 0 c 0.4946,0.0566 0.8497,0.5036 0.793,0.9982 v 0 c -0.0567,0.4946 -0.5036,0.8497 -0.9983,0.793 -0.3145,-0.0441 -0.6274,0.0493 -1.0348,0.2848 v 0 c -0.4529,0.2415 -1.0157,0.0701 -1.2572,-0.3827 v 0 c -0.2415,-0.4529 -0.0701,-1.0157 0.3828,-1.2572 v 0 c 0.4528,-0.2415 1.0157,-0.0701 1.2571,0.3828 v 0 c 0.2415,0.4528 0.0701,1.0157 -0.3827,1.2571 -0.4278,0.2045 -0.7193,0.437 -0.9145,0.7738 v 0 c -0.2445,0.4243 -0.7867,0.5699 -1.2109,0.3254 v 0 c -0.4242,-0.2446 -0.5699,-0.7867 -0.3254,-1.211 v 0 c 0.2446,-0.4242 0.7867,-0.5699 1.211,-0.3253 v 0 c 0.4242,0.2445 0.5699,0.7867 0.3253,1.2109 -0.3211,0.2812 -0.4925,0.4723 -0.4172,0.8881 v 0 c 0.1152,0.2583 -7e-4,0.5611 -0.2589,0.6763 v 0 c -0.2582,0.1153 -0.561,-6e-4 -0.6763,-0.2588 -0.4008,-0.6508 -0.4056,-1.5309 -0.1838,-2.1913 0.3476,-0.6048 0.9752,-1.1841 1.5764,-1.5281 0.6213,-0.3129 1.447,-0.5044 2.1144,-0.436 0.4841,0.0693 1.0293,0.3167 1.4116,0.6243 0.7662,0.6556 1.4993,1.85 2.0074,3.346 0.7789,2.2609 1.1493,5.1141 1.3916,6.2333 0.0405,0.2035 0.0616,0.3952 0.0816,0.5085 0.009,0.0539 0.006,0.0465 0.004,0.0335 -0.0144,-0.0278 -0.1776,-0.2512 -0.3761,-0.3973 -0.3044,-0.0839 -0.9642,0.1245 -1.1165,0.2958 -0.0712,0.1322 -0.1229,0.2925 -0.1293,0.3358 -7e-4,0.053 0.002,0.1093 0.006,0.0983 0.008,-0.04 0.0116,-0.0853 -0.004,-0.1819 -0.0376,-0.146 -0.0233,-0.1945 -0.0888,-0.2231 -0.2123,-0.2108 -0.2969,-0.3317 -0.3617,-0.3013 -0.1502,-0.0392 -0.3818,0.006 -0.7357,0.0197 -0.3011,0.007 -0.5171,0.0421 -0.7613,0.1207 -0.6447,0.1993 -1.1377,0.4345 -1.1675,0.8628 -0.1123,0.3497 -0.0637,0.7855 -0.0265,1.1223 -0.001,0.0847 -0.01,0.1044 -0.0146,0.1167 -0.007,-5e-4 -0.0433,-0.0674 -0.0735,-0.1097 -0.0473,-0.0515 -0.2543,-0.2151 -0.4184,-0.2793 -0.1907,-0.0189 -0.5316,0.0668 -0.6278,0.1308 -0.0529,0.0548 -0.1194,0.141 -0.1203,0.15 0.0187,-0.004 0.0438,-0.0365 0.0984,-0.1732 v 0 c 0.1226,-0.3825 0.5321,-0.5933 0.9147,-0.4707 v 0 c 0.3826,0.1226 0.5933,0.5321 0.4707,0.9147" /></g></g></g></svg>