<?xml version="1.0" encoding="UTF-8" standalone="no"?>
<svg
   xmlns:dc="http://purl.org/dc/elements/1.1/"
   xmlns:cc="http://creativecommons.org/ns#"
   xmlns:rdf="http://www.w3.org/1999/02/22-rdf-syntax-ns#"
   xmlns:svg="http://www.w3.org/2000/svg"
   xmlns="http://www.w3.org/2000/svg"
   viewBox="0 0 434.80042 281.69135"
   height="281.69135"
   width="434.80042"
   xml:space="preserve"
   id="svg2"
   version="1.1"><metadata
     id="metadata8"><rdf:RDF><cc:Work
         rdf:about=""><dc:format>image/svg+xml</dc:format><dc:type
           rdf:resource="http://purl.org/dc/dcmitype/StillImage" /></cc:Work></rdf:RDF></metadata><defs
     id="defs6"><clipPath
       id="clipPath14"
       clipPathUnits="userSpaceOnUse"><path
         id="path12"
         d="M 0,0 H 612 V 792 H 0 Z" /></clipPath><clipPath
       id="clipPath24"
       clipPathUnits="userSpaceOnUse"><path
         id="path22"
         d="m 59.14286,72 h 493.7143 V 720 H 59.14286 Z" /></clipPath></defs><g
     clip-path="url(#clipPath14)"
     transform="matrix(1.3333333,0,0,-1.3333333,-170.9072,907.68387)"
     id="g10"><g
       id="g16" /><g
       id="g18"><g
         clip-path="url(#clipPath24)"
         id="g20"><path
           id="path26"
           style="fill:#000000;fill-opacity:1;fill-rule:nonzero;stroke:none"
           d="m 158.16,623.358 c 0.073,0.5118 0.348,0.5351 1.1934,1.0817 v 0 c 0.3263,0.2073 0.4227,0.6399 0.2154,0.9662 v 0 c -0.2074,0.3262 -0.6399,0.4226 -0.9662,0.2153 v 0 c -0.3262,-0.2073 -0.4227,-0.6399 -0.2153,-0.9662 v 0 c 0.2073,-0.3262 0.6399,-0.4226 0.9661,-0.2153 1.211,0.7464 2.629,2.2162 4.463,3.6204 v 0 c 0.3401,0.2674 0.399,0.7598 0.1317,1.0998 v 0 c -0.2674,0.3401 -0.7597,0.399 -1.0998,0.1317 v 0 c -0.3401,-0.2674 -0.399,-0.7598 -0.1316,-1.0998 v 0 c 0.2673,-0.3401 0.7597,-0.399 1.0997,-0.1317 1.383,1.0785 3.0657,2.1828 4.9264,3.5353 v 0 c 0.3592,0.2629 0.4372,0.7671 0.1743,1.1263 v 0 c -0.2629,0.3591 -0.7672,0.4371 -1.1263,0.1742 v 0 c -0.3591,-0.2628 -0.4372,-0.7671 -0.1743,-1.1262 v 0 c 0.2629,-0.3592 0.7672,-0.4372 1.1263,-0.1743 1.2916,0.9459 2.6705,2.0241 4.2565,3.2751 1.3365,1.0387 2.7273,2.2515 4.2814,3.4121 1.9001,1.4146 4.1173,2.695 6.5307,4.0733 2.4061,1.3876 5.0352,2.8055 7.8906,4.2678 2.2875,1.1727 4.6532,2.3745 7.1154,3.5403 3.118,1.4876 6.3469,2.912 9.4916,4.1308 2.4055,0.9352 4.7704,1.6967 7.1753,2.4261 9.8248,2.94 19.4741,4.6818 28.5944,4.123 2.2525,-0.1289 4.481,-0.4231 6.756,-0.804 2.8596,-0.4786 5.6855,-1.015 8.4308,-1.8142 3.776,-1.0923 7.3845,-2.7059 11.1932,-4.445 2.7662,-1.2598 5.6208,-2.6088 8.4786,-3.8989 3.3972,-1.5363 6.8171,-2.8911 10.2911,-4.1743 3.5156,-1.3145 7.1775,-2.508 10.896,-3.5072 1.8757,-0.5007 3.7749,-0.9087 5.6501,-1.3118 2.4345,-0.5228 4.8711,-0.983 7.4071,-1.4164 1.9887,-0.3376 4.055,-0.7271 6.1341,-1.0273 8.003,-1.1534 16.3154,-1.2397 24.3722,-1.4545 1.915,-0.0623 3.8017,-0.1565 5.7525,-0.2386 12.1941,-0.4748 25.0072,-0.8948 36.1208,-3.0112 6.1376,-1.1455 11.9491,-2.7416 16.9949,-4.7939 5.9588,-2.4166 10.8379,-5.6341 15.3594,-9.2789 4.8932,-3.9453 8.8634,-8.5149 11.9303,-13.5902 1.6391,-2.7035 2.9689,-5.4395 4.2897,-8.2466 0.7635,-1.6341 1.5613,-3.2183 2.2434,-4.8329 0.8525,-2.0094 1.4886,-4.1583 2.1327,-6.3164 0.5124,-1.7118 1.0057,-3.3636 1.4324,-5.0188 0.5479,-2.0989 1.0142,-4.1757 1.3529,-6.3562 1.1066,-7.1224 1.2405,-14.2444 -0.024,-20.4893 -0.77,-3.8695 -2.213,-7.3159 -4.4181,-10.7437 -4.2633,-6.6098 -11.1552,-12.4925 -18.6499,-17.5765 -5.9053,-4.0371 -12.4899,-7.5468 -19.0305,-10.9016 -2.1876,-1.1261 -4.327,-2.3186 -6.561,-3.4232 -2.6948,-1.3255 -5.5378,-2.4789 -8.2569,-3.6486 -2.2635,-0.957 -4.437,-1.9065 -6.3637,-2.7965 -2.2045,-1.032 -4.1707,-2.0351 -5.9952,-3.302 -1.9354,-1.3709 -3.5947,-3.1572 -5.1902,-4.6786 -2.8625,-2.7564 -5.6021,-4.879 -8.5236,-7.3727 -2.441,-2.0021 -5.2747,-4.181 -8.3683,-6.1124 -7.4633,-4.7831 -16.2896,-7.7277 -27.2375,-8.9802 -7.3573,-0.8501 -15.9648,-0.9933 -25.1466,-0.3341 -4.8682,0.3614 -9.8335,1.1793 -14.7168,2.0288 -8.4525,1.4327 -15.9826,3.1386 -23.3896,5.8339 -4.7855,1.7689 -9.4888,3.9052 -13.8777,6.0501 -4.7375,2.3094 -8.8662,4.7358 -13.179,7.1479 -6.9898,3.8489 -14.961,7.6645 -22.9898,10.9329 -8.4203,3.4504 -16.2534,6.9136 -24.3594,10.0223 -9.8425,3.7561 -19.5065,7.5669 -27.2812,12.0576 -11.6752,6.6888 -19.0572,16.007 -22.9533,26.0081 -2.8653,7.3444 -3.4614,13.9765 -2.754,20.1535 0.3759,3.5217 1.5957,6.5471 2.9626,9.8896 0.601,1.4597 1.241,2.9766 1.8856,4.3317 2.1972,4.6681 4.355,7.7924 6.6925,11.7352 1.9758,3.3092 4.6211,7.1028 7.0935,10.5214 2.1929,3.0259 3.9352,5.2757 5.528,7.5901 0.726,1.0603 1.4642,2.3208 2.2418,3.5608 0.4888,0.7732 0.9832,1.5253 1.5132,2.2392 0.5186,0.7221 1.0292,1.3548 1.5962,1.9161 v 0 c 0.4341,0.4186 0.4467,1.1099 0.0281,1.544 v 0 c -0.4186,0.4342 -1.1098,0.4468 -1.544,0.0282 v 0 C 159.594,628.12 159.5814,627.4287 160,626.9946 v 0 c 0.4186,-0.4341 1.1099,-0.4467 1.544,-0.0282 0.451,0.451 0.8672,0.7974 1.3484,1.0924 v 0 c 0.5038,0.2997 0.6694,0.951 0.3697,1.4548 v 0 c -0.2996,0.5039 -0.951,0.6694 -1.4548,0.3697 v 0 c -0.5038,-0.2996 -0.6693,-0.9509 -0.3697,-1.4548 v 0 c 0.2997,-0.5038 0.951,-0.6693 1.4548,-0.3697 0.462,0.3282 0.8684,0.5441 1.3818,0.6879 v 0 c 0.5038,0.102 0.8296,0.5932 0.7276,1.097 v 0 c -0.102,0.5039 -0.5931,0.8296 -1.097,0.7276 v 0 c -0.5038,-0.102 -0.8296,-0.5931 -0.7276,-1.0969 v 0 c 0.102,-0.5039 0.5931,-0.8297 1.097,-0.7277 0.3753,0.2201 0.7394,0.3814 1.2023,0.4761 v 0 c 0.2815,-0.0266 0.5313,0.1801 0.5579,0.4616 v 0 c 0.0266,0.2815 -0.1801,0.5313 -0.4616,0.5579 -0.5339,0.1888 -1.1253,0.294 -1.6672,0.3292 -0.7113,-0.1041 -1.4619,-0.3639 -2.0978,-0.6879 -0.6177,-0.3585 -1.2412,-0.8413 -1.7799,-1.3453 -0.6696,-0.631 -1.3173,-1.3865 -1.8945,-2.1452 -0.5659,-0.7669 -1.105,-1.5889 -1.6035,-2.3806 -0.8022,-1.2649 -1.5257,-2.4871 -2.2097,-3.4699 -1.5618,-2.2568 -3.2976,-4.4841 -5.5161,-7.5308 -2.4992,-3.4254 -5.2119,-7.286 -7.2503,-10.6614 -2.3427,-3.85 -4.6184,-7.0659 -6.9431,-11.8632 -0.6745,-1.4057 -1.3456,-2.9792 -1.9564,-4.4472 -1.3992,-3.3405 -2.7636,-6.7098 -3.23,-10.5599 -0.7362,-6.4562 -0.0763,-13.736 2.881,-21.4124 4.018,-10.4152 11.9462,-20.4926 23.9955,-27.5307 7.9656,-4.6169 17.8183,-8.5338 27.668,-12.317 8.0412,-3.0738 15.8477,-6.5165 24.3069,-9.9738 7.9342,-3.265 15.7386,-7.0383 22.633,-10.8749 4.3063,-2.3598 8.5322,-4.7911 13.3839,-7.1107 4.4466,-2.1199 9.2961,-4.2683 14.1922,-6.0291 7.5647,-2.7645 15.3386,-4.5471 23.8603,-6.0091 4.9016,-0.8188 10.0025,-1.6221 14.9953,-1.9618 9.2973,-0.654 18.1474,-0.4957 25.6442,0.3778 11.1956,1.3168 20.588,4.4778 28.3294,9.4417 3.1479,2.0699 6.0566,4.4118 8.4765,6.506 2.9108,2.4219 5.742,4.5574 8.7281,7.36 1.6587,1.5715 3.1923,3.2274 4.9197,4.4241 1.6736,1.186 3.4426,2.0981 5.6065,3.1267 1.887,0.9087 4.0104,1.8727 6.2474,2.8549 2.6949,1.1625 5.5915,2.3422 8.3618,3.7065 2.2893,1.122 4.4507,2.3155 6.6076,3.415 6.5612,3.3571 13.2777,6.9325 19.2999,11.036 7.5753,5.2006 14.7583,11.4185 19.1982,18.339 2.3093,3.5896 3.9249,7.4323 4.7577,11.5167 1.3047,6.5049 1.1735,14.0157 0.0514,21.2932 -0.3479,2.2552 -0.8352,4.4474 -1.3893,6.586 -0.4446,1.6954 -0.9565,3.3875 -1.4756,5.0981 -0.655,2.153 -1.3413,4.4158 -2.2518,6.5399 -0.7222,1.6782 -1.5475,3.295 -2.3067,4.895 -1.3285,2.8195 -2.7136,5.6599 -4.404,8.4492 -3.1798,5.2316 -7.4064,10.0835 -12.448,14.1499 -4.6033,3.7137 -9.7596,7.109 -15.9046,9.6171 -5.1725,2.1051 -11.1917,3.7654 -17.418,4.9348 -11.3009,2.079 -24.2665,2.4452 -36.4567,2.8558 -1.9441,0.0591 -3.8414,0.1309 -5.7739,0.171 -8.0731,0.2155 -16.2726,0.2969 -24.1434,1.4361 -2.037,0.2944 -4.0789,0.6803 -6.0853,1.0217 -2.5201,0.4263 -4.9164,0.8745 -7.3281,1.3882 -1.8765,0.3988 -3.7298,0.7919 -5.5599,1.2765 -3.6749,0.9664 -7.2564,2.1133 -10.7402,3.3954 -3.4498,1.2853 -6.8029,2.6244 -10.1547,4.1521 -2.8373,1.2949 -5.6833,2.6539 -8.4567,3.9312 -3.8122,1.751 -7.5497,3.4277 -11.4524,4.5718 -2.836,0.8262 -5.7745,1.389 -8.6553,1.8742 -2.3087,0.3887 -4.6441,0.6983 -6.9698,0.8353 -9.3641,0.5132 -19.3341,-1.3227 -29.2478,-4.3331 -2.4227,-0.7258 -4.8591,-1.502 -7.3189,-2.4481 -3.1876,-1.2308 -6.4826,-2.6788 -9.6285,-4.1742 -2.4805,-1.188 -4.8675,-2.4141 -7.1529,-3.5992 -2.864,-1.4878 -5.5245,-2.9439 -7.9449,-4.361 -2.3968,-1.4173 -4.6787,-2.7879 -6.6379,-4.2961 -1.5869,-1.2179 -2.9777,-2.4629 -4.2616,-3.4905 -1.5838,-1.2489 -2.9407,-2.3097 -4.2111,-3.2394 -1.823,-1.344 -3.5142,-2.4728 -4.9425,-3.6043 -1.8804,-1.5161 -3.2424,-3.0103 -4.2456,-3.6703 -0.7844,-0.4891 -1.531,-0.906 -1.8502,-1.8957 v 0 c -0.1015,-0.3886 0.1312,-0.786 0.5199,-0.8876 v 0 c 0.3887,-0.1015 0.7861,0.1313 0.8876,0.52 z" /><path
           id="path28"
           style="fill:#006fff;fill-opacity:1;fill-rule:nonzero;stroke:none"
           d="m 133.8794,632.4971 c 0.3585,0.0158 2.5736,-1.9027 4.5772,-3.4752 v 0 c 0.3713,-0.2823 0.901,-0.2101 1.1833,0.1612 v 0 c 0.2822,0.3713 0.2101,0.9011 -0.1612,1.1833 v 0 c -0.3713,0.2822 -0.9011,0.2101 -1.1833,-0.1612 v 0 c -0.2823,-0.3713 -0.2101,-0.9011 0.1612,-1.1833 0.853,-0.666 1.6434,-1.2341 2.3312,-1.7055 v 0 c 0.409,-0.27 0.9594,-0.1574 1.2294,0.2515 v 0 c 0.27,0.409 0.1574,0.9594 -0.2516,1.2294 v 0 c -0.4089,0.27 -0.9593,0.1574 -1.2293,-0.2515 v 0 c -0.2701,-0.409 -0.1574,-0.9594 0.2515,-1.2294 0.5837,-0.3799 1.1104,-0.7022 1.5564,-0.968 v 0 c 0.4124,-0.2507 0.9499,-0.1196 1.2006,0.2928 v 0 c 0.2507,0.4124 0.1196,0.95 -0.2928,1.2006 v 0 c -0.4125,0.2507 -0.95,0.1196 -1.2007,-0.2928 v 0 c -0.2506,-0.4124 -0.1195,-0.9499 0.2929,-1.2006 0.5946,-0.2205 1.0794,-0.3646 1.442,-0.4518 v 0 c 0.2389,-0.1513 0.5552,-0.0804 0.7066,0.1585 v 0 c 0.1513,0.2388 0.0804,0.5552 -0.1585,0.7065 -0.2551,0.3043 -0.6221,0.6591 -1.0821,1.0801 -0.4334,0.2687 -0.9268,0.5806 -1.4866,0.9557 -0.6843,0.4345 -1.4436,0.9458 -2.287,1.5691 -2.0171,1.4839 -4.3922,3.423 -5.4573,3.5784 v 0 c -0.3998,0.0392 -0.7557,-0.2531 -0.7949,-0.6529 v 0 c -0.0392,-0.3998 0.2531,-0.7557 0.653,-0.7949 z" /><path
           id="path30"
           style="fill:#006fff;fill-opacity:1;fill-rule:nonzero;stroke:none"
           d="m 142.9881,634.0648 c -0.5379,-0.0943 -1.1722,-0.5059 -1.7771,-1.0449 v 0 c -0.2814,-0.2397 -0.3152,-0.6622 -0.0754,-0.9437 v 0 c 0.2398,-0.2814 0.6623,-0.3152 0.9437,-0.0754 v 0 c 0.2814,0.2397 0.3152,0.6623 0.0754,0.9437 v 0 c -0.2397,0.2814 -0.6622,0.3152 -0.9437,0.0754 -0.916,-0.6575 -2.0323,-1.7065 -3.1317,-2.8597 v 0 c -0.3406,-0.4033 -0.2899,-1.0063 0.1134,-1.3469 v 0 c 0.4032,-0.3407 1.0062,-0.2899 1.3469,0.1133 v 0 c 0.3406,0.4033 0.2899,1.0063 -0.1134,1.347 v 0 c -0.4032,0.3406 -1.0063,0.2898 -1.3469,-0.1134 -0.7625,-0.8878 -1.5218,-1.8149 -2.1015,-2.5598 v 0 c -0.3297,-0.433 -0.246,-1.0512 0.1869,-1.3808 v 0 c 0.433,-0.3297 1.0512,-0.246 1.3808,0.1869 v 0 c 0.3297,0.433 0.246,1.0512 -0.1869,1.3808 v 0 c -0.433,0.3297 -1.0512,0.246 -1.3808,-0.1869 -0.5481,-0.7742 -0.9595,-1.4319 -1.0719,-1.8433 -0.004,-0.0806 -0.007,-0.2819 0.0254,-0.436 v 0 c 0.0871,-0.4556 0.5271,-0.7543 0.9827,-0.6672 v 0 c 0.4557,0.0871 0.7544,0.5271 0.6673,0.9828 v 0 c -0.0872,0.4556 -0.5272,0.7543 -0.9828,0.6672 v 0 c -0.4557,-0.0871 -0.7544,-0.5271 -0.6672,-0.9828 0.0797,-0.2003 0.4531,-0.5725 0.7021,-0.6407 v 0 c 0.4312,-0.0771 0.8432,0.21 0.9203,0.6412 v 0 c 0.0771,0.4312 -0.2099,0.8432 -0.6411,0.9203 v 0 c -0.4312,0.0771 -0.8432,-0.21 -0.9203,-0.6412 v 0 c -0.0771,-0.4312 0.21,-0.8432 0.6411,-0.9203 0.2954,0.0276 0.5402,0.1482 0.6188,0.2335 v 0 c 0.3251,0.2087 0.4194,0.6413 0.2107,0.9664 v 0 c -0.2087,0.325 -0.6413,0.4194 -0.9664,0.2107 v 0 c -0.325,-0.2087 -0.4194,-0.6414 -0.2107,-0.9664 v 0 c 0.2087,-0.3251 0.6414,-0.4194 0.9664,-0.2107 0.1093,0.1471 0.2703,0.3644 0.4756,0.6442 v 0 c 0.2056,0.1943 0.2147,0.5184 0.0204,0.7239 v 0 c -0.1942,0.2055 -0.5183,0.2146 -0.7238,0.0203 -0.2726,-0.1718 -0.4391,-0.2312 -0.5279,-0.2113 -0.0204,0.0217 0.1577,0.1158 0.4328,0.1477 0.2139,-0.0617 0.5761,-0.4216 0.6507,-0.5957 0.0297,-0.1397 0.0296,-0.313 0.0363,-0.3552 -0.0137,-0.0534 0.3516,0.4146 0.9292,1.1187 0.546,0.7334 1.2613,1.6373 1.9942,2.5203 0.925,1.2433 1.8203,2.3375 2.5397,3.0741 0.5632,0.4561 0.905,0.6581 1.019,0.6133 v 0 c 0.4006,0.0305 0.7006,0.3799 0.6701,0.7805 v 0 c -0.0304,0.4005 -0.3798,0.7006 -0.7804,0.6701" /><path
           id="path32"
           style="fill:#006fff;fill-opacity:1;fill-rule:nonzero;stroke:none"
           d="m 145.5271,641.5752 c 0.002,-0.005 0.0156,-0.3092 0.0421,-0.8595 v 0 c 0.0461,-0.4485 0.4471,-0.7747 0.8956,-0.7286 v 0 c 0.4485,0.0462 0.7746,0.4471 0.7285,0.8956 v 0 c -0.0461,0.4485 -0.4471,0.7747 -0.8956,0.7286 v 0 c -0.4485,-0.0462 -0.7746,-0.4471 -0.7285,-0.8956 0.019,-0.4429 0.0312,-0.9836 0.053,-1.5743 v 0 c 0.0406,-0.4932 0.4732,-0.8602 0.9664,-0.8197 v 0 c 0.4932,0.0406 0.8602,0.4733 0.8197,0.9665 v 0 c -0.0406,0.4932 -0.4732,0.8601 -0.9664,0.8196 v 0 c -0.4932,-0.0405 -0.8602,-0.4732 -0.8197,-0.9664 0.0412,-0.5887 0.0932,-1.2347 0.1701,-1.8619 v 0 c 0.0677,-0.5022 0.5296,-0.8545 1.0319,-0.7869 v 0 c 0.5022,0.0676 0.8545,0.5296 0.7869,1.0318 v 0 c -0.0677,0.5023 -0.5296,0.8546 -1.0318,0.7869 v 0 c -0.5023,-0.0676 -0.8546,-0.5295 -0.787,-1.0318 0.121,-0.6213 0.2749,-1.2637 0.4687,-1.8181 v 0 c 0.1213,-0.429 0.5673,-0.6785 0.9963,-0.5573 v 0 c 0.4289,0.1213 0.6784,0.5673 0.5572,0.9963 v 0 c -0.1212,0.429 -0.5673,0.6784 -0.9963,0.5572 v 0 c -0.4289,-0.1212 -0.6784,-0.5673 -0.5572,-0.9962 0.1344,-0.1132 0.2736,-0.2288 0.412,-0.3273 v 0 c 0.0931,-0.2671 0.3851,-0.4081 0.6521,-0.315 v 0 c 0.267,0.0931 0.408,0.3851 0.3149,0.6521 0.0538,0.1443 0.114,0.2814 0.1744,0.4295 -0.1016,0.4908 -0.1609,1.031 -0.2033,1.6237 -0.0864,0.5861 -0.148,1.1846 -0.2028,1.7638 -0.0742,0.5778 -0.1405,1.129 -0.215,1.5945 -0.0903,0.5853 -0.2164,1.1293 -0.4414,1.4777 v 0 c -0.2169,0.3382 -0.6668,0.4366 -1.005,0.2198 v 0 c -0.3382,-0.2169 -0.4366,-0.6668 -0.2198,-1.005 z" /><path
           id="path34"
           style="fill:#60ba46;fill-opacity:1;fill-rule:nonzero;stroke:none"
           d="m 199.2102,671.666 c 0.3212,0.0966 1.0951,-0.4343 2.1444,-1.311 v 0 c 0.3662,-0.2881 0.8967,-0.2248 1.1849,0.1415 v 0 c 0.2881,0.3662 0.2248,0.8967 -0.1415,1.1849 v 0 c -0.3662,0.2881 -0.8967,0.2248 -1.1849,-0.1415 v 0 c -0.2881,-0.3662 -0.2248,-0.8967 0.1415,-1.1849 0.824,-0.6761 1.7043,-1.5135 2.5387,-2.3212 v 0 c 0.3686,-0.3431 0.9455,-0.3224 1.2887,0.0462 v 0 c 0.3431,0.3686 0.3224,0.9455 -0.0462,1.2886 v 0 c -0.3686,0.3431 -0.9456,0.3225 -1.2887,-0.0461 v 0 c -0.3431,-0.3686 -0.3224,-0.9456 0.0462,-1.2887 0.8566,-0.7835 1.6653,-1.5361 2.2933,-2.0359 v 0 c 0.3769,-0.3073 0.9315,-0.2509 1.2388,0.126 v 0 c 0.3073,0.3769 0.2509,0.9315 -0.126,1.2388 v 0 c -0.3768,0.3073 -0.9315,0.2509 -1.2387,-0.126 v 0 c -0.3073,-0.3769 -0.2509,-0.9315 0.1259,-1.2388 0.4132,-0.2262 0.8271,-0.4052 1.1546,-0.4388 v 0 c 0.3257,-0.1125 0.6809,0.0603 0.7935,0.386 v 0 c 0.1125,0.3257 -0.0603,0.681 -0.386,0.7935 -0.0502,0.0969 -0.1864,0.2986 -0.449,0.6239 -0.5552,0.4651 -1.3152,1.2014 -2.1637,2.006 -0.8711,0.7798 -1.8327,1.6288 -2.738,2.3129 -1.1742,0.8725 -2.4377,1.5523 -3.4385,1.4176 v 0 c -0.3957,-0.0692 -0.6604,-0.4461 -0.5912,-0.8418 v 0 c 0.0692,-0.3957 0.4461,-0.6604 0.8419,-0.5912 z" /><path
           id="path36"
           style="fill:#60ba46;fill-opacity:1;fill-rule:nonzero;stroke:none"
           d="m 206.5708,672.6685 c -0.4696,-0.3435 -1.2358,-0.9701 -2.0887,-1.6963 v 0 c -0.3458,-0.3169 -0.3693,-0.8542 -0.0524,-1.2001 v 0 c 0.3169,-0.3458 0.8541,-0.3693 1.2,-0.0524 v 0 c 0.3459,0.3169 0.3694,0.8542 0.0525,1.2 v 0 c -0.3169,0.3459 -0.8542,0.3694 -1.2001,0.0525 -0.7073,-0.6084 -1.4835,-1.2941 -2.2039,-1.9478 v 0 c -0.3726,-0.3591 -0.3835,-0.9522 -0.0244,-1.3247 v 0 c 0.359,-0.3726 0.9521,-0.3835 1.3247,-0.0245 v 0 c 0.3726,0.3591 0.3835,0.9522 0.0244,1.3247 v 0 c -0.359,0.3726 -0.9521,0.3836 -1.3247,0.0245 -0.704,-0.6717 -1.3663,-1.3257 -1.8554,-1.8461 v 0 c -0.3571,-0.3855 -0.3342,-0.9875 0.0513,-1.3446 v 0 c 0.3855,-0.3572 0.9876,-0.3342 1.3447,0.0513 v 0 c 0.3572,0.3855 0.3342,0.9875 -0.0513,1.3446 v 0 c -0.3855,0.3572 -0.9875,0.3342 -1.3447,-0.0513 -0.3368,-0.4717 -0.5994,-0.9048 -0.6911,-1.2184 -0.0267,-0.0925 -0.0665,-0.2591 -0.0687,-0.3972 v 0 c -0.032,-0.3724 0.2439,-0.7003 0.6164,-0.7324 v 0 c 0.3724,-0.032 0.7003,0.2439 0.7323,0.6164 v 0 c 0.0321,0.3724 -0.2439,0.7003 -0.6163,0.7323 v 0 c -0.3724,0.0321 -0.7003,-0.2439 -0.7324,-0.6163 0.0196,-0.1768 0.2482,-0.5777 0.4703,-0.6915 v 0 c 0.3186,-0.1283 0.6809,0.026 0.8092,0.3446 v 0 c 0.1282,0.3186 -0.026,0.6809 -0.3447,0.8092 v 0 c -0.3186,0.1283 -0.6809,-0.026 -0.8091,-0.3446 v 0 c -0.1283,-0.3186 0.026,-0.6809 0.3446,-0.8092 0.1693,-0.0298 0.3844,-0.008 0.4786,0.0329 v 0 c 0.3029,0.0792 0.4843,0.389 0.4051,0.692 v 0 c -0.0792,0.3029 -0.389,0.4843 -0.6919,0.4051 v 0 c -0.303,-0.0792 -0.4844,-0.389 -0.4052,-0.692 v 0 c 0.0792,-0.3029 0.389,-0.4843 0.692,-0.4051 0.0751,0.0396 0.1736,0.0966 0.2566,0.1553 v 0 c 0.2562,0.1197 0.3669,0.4244 0.2472,0.6806 v 0 c -0.1197,0.2562 -0.4244,0.3669 -0.6806,0.2472 -0.0673,-0.0115 -0.0903,-9e-4 -0.11,0.014 -7e-4,0.0163 0.1464,0.0355 0.2823,0.0199 0.1694,-0.0925 0.3799,-0.4546 0.4044,-0.5741 0.003,-0.0814 -0.009,-0.1729 0.0141,-0.1704 0.1038,0.0556 0.3762,0.2666 0.793,0.6085 0.4528,0.4962 1.0737,1.1223 1.7596,1.7901 0.6696,0.6859 1.39,1.3992 2.0511,2.0444 0.7896,0.7786 1.4814,1.4478 1.88,1.8376 v 0 c 0.3069,0.2593 0.3455,0.7182 0.0862,1.0251 v 0 c -0.2592,0.3069 -0.7181,0.3455 -1.025,0.0862" /><path
           id="path38"
           style="fill:#60ba46;fill-opacity:1;fill-rule:nonzero;stroke:none"
           d="m 210.3086,677.8087 c -0.008,0.076 -0.0129,-0.0121 0.0264,0.008 v 0 c 0.2282,0.3539 0.1263,0.8258 -0.2277,1.0541 v 0 c -0.3539,0.2282 -0.8258,0.1263 -1.0541,-0.2276 v 0 c -0.2282,-0.354 -0.1263,-0.8259 0.2276,-1.0542 v 0 c 0.354,-0.2282 0.8259,-0.1263 1.0542,0.2277 0.0177,0.0264 -0.0118,-0.0179 0.064,-0.002 v 0 c 0.4007,0.1832 0.5769,0.6565 0.3937,1.0572 v 0 c -0.1833,0.4007 -0.6566,0.5769 -1.0573,0.3937 v 0 c -0.4006,-0.1833 -0.5769,-0.6566 -0.3936,-1.0573 v 0 c 0.1832,-0.4006 0.6565,-0.5769 1.0572,-0.3936 0.1387,0.0602 0.1863,0.0408 0.2368,-0.0456 v 0 c 0.4263,-0.2194 0.9497,-0.0516 1.169,0.3747 v 0 c 0.2193,0.4263 0.0516,0.9497 -0.3747,1.169 v 0 c -0.4263,0.2194 -0.9497,0.0516 -1.1691,-0.3747 v 0 c -0.2193,-0.4263 -0.0515,-0.9497 0.3748,-1.169 -0.1162,0.1014 -0.2599,0.3025 -0.262,0.2575 0.0136,-0.0604 0.008,-0.1394 -0.004,-0.3111 0.005,-0.3916 0.0746,-0.6674 0.0279,-0.9288 -0.0246,-0.2689 -0.2916,-0.6403 -0.5335,-1.1322 -0.1231,-0.2788 -0.2831,-0.5355 -0.4286,-0.7875 -0.1467,-0.2541 -0.3209,-0.6193 -0.3164,-1.0621 0.1365,-0.3434 0.4691,-0.6027 0.5738,-0.6391 0.0878,-0.0215 0.1894,-0.0346 0.249,-0.0384 0.0927,-0.005 0.216,4e-4 0.3168,0.009 0.1938,0.0171 0.4547,0.0624 0.6648,0.1146 0.4652,0.0881 1.0638,0.2918 1.5904,0.4482 0.2149,0.0614 0.3963,0.0979 0.5915,0.1262 0.279,0.0839 0.4637,0.1203 0.6503,0.1267 0.1162,0.009 0.1256,0.0124 0.1665,2e-4 v 0 c 0.5639,-0.1465 1.1397,0.1918 1.2862,0.7556 v 0 c 0.1465,0.5639 -0.1918,1.1397 -0.7557,1.2862 v 0 c -0.5638,0.1465 -1.1397,-0.1918 -1.2862,-0.7557 v 0 c -0.1464,-0.5638 0.1919,-1.1396 0.7557,-1.2861 0.0426,0.0315 -0.0667,0.1328 -0.0852,0.1832 v 0 c 0.3671,-0.3732 0.9672,-0.3781 1.3404,-0.011 v 0 c 0.3731,0.3671 0.378,0.9672 0.011,1.3403 v 0 c -0.3671,0.3732 -0.9672,0.3781 -1.3404,0.011 v 0 c -0.3732,-0.3671 -0.3781,-0.9672 -0.011,-1.3403 0.005,0.0649 -0.0448,0.2612 -0.0218,0.2744 v 0 c 0.0413,-0.4625 0.4497,-0.804 0.9122,-0.7627 v 0 c 0.4626,0.0413 0.804,0.4497 0.7627,0.9123 v 0 c -0.0413,0.4625 -0.4497,0.8039 -0.9122,0.7626 v 0 c -0.4625,-0.0413 -0.804,-0.4497 -0.7627,-0.9122 0.1122,-0.003 0.2222,0.008 0.3218,-0.0524 v 0 c -0.0484,-0.2787 0.1383,-0.5437 0.417,-0.592 v 0 c 0.2786,-0.0484 0.5436,0.1383 0.592,0.417 0.1266,0.0952 0.2436,0.2494 0.3441,0.3767 -2e-4,0.2737 -0.1479,0.6797 -0.3034,0.9074 -0.1761,0.2105 -0.5063,0.4258 -0.734,0.5275 -0.2293,0.058 -0.5393,0.0879 -0.7775,0.0837 -0.3493,-0.0144 -0.7814,-0.0895 -1.1607,-0.195 -0.2417,-0.0969 -0.5163,-0.2215 -0.7622,-0.3514 -0.5064,-0.2733 -1.0039,-0.5602 -1.3193,-0.7178 -0.1289,-0.0539 -0.2742,-0.0978 -0.4037,-0.1286 -0.0608,-0.0153 -0.0785,-0.0233 -0.0874,-0.0282 0.009,-0.004 0.0694,-0.0128 0.1083,-0.0227 0.0959,-0.0339 0.4118,-0.2824 0.5461,-0.6111 -0.0283,-0.2205 0.0101,-0.2207 0.1645,-0.005 0.1554,0.218 0.3847,0.5353 0.582,0.8945 0.1914,0.3723 0.5628,0.9135 0.7172,1.5431 0.1118,0.5347 0.0732,0.9792 0.1032,1.1855 0.004,0.2346 -0.0126,0.533 -0.0674,0.7751 -0.0708,0.2578 -0.3397,0.6869 -0.6652,0.8962 -0.499,0.1963 -1.2235,0.1711 -1.6943,-0.0466 -0.2303,-0.1241 -0.5246,-0.3757 -0.6831,-0.6226 -0.1369,-0.2532 -0.2292,-0.6815 -0.1888,-1.0094 v 0 c 0.0482,-0.3988 0.4106,-0.683 0.8095,-0.6348 v 0 c 0.3988,0.0483 0.683,0.4107 0.6347,0.8095 z" /><path
           id="path40"
           style="fill:#006fff;fill-opacity:1;fill-rule:nonzero;stroke:none"
           d="m 170.8582,631.6227 c 0.64,0.5456 1.3787,0.4454 3.5641,0.72 v 0 c 0.3462,0.0386 0.5956,0.3505 0.557,0.6967 v 0 c -0.0386,0.3462 -0.3506,0.5956 -0.6968,0.557 v 0 c -0.3462,-0.0386 -0.5956,-0.3505 -0.557,-0.6967 v 0 c 0.0386,-0.3463 0.3506,-0.5956 0.6968,-0.557 2.3282,0.2438 6.0912,1.0963 10.7903,1.6317 v 0 c 0.3741,0.0441 0.6417,0.3831 0.5976,0.7572 v 0 c -0.044,0.3742 -0.383,0.6417 -0.7572,0.5977 v 0 c -0.3741,-0.0441 -0.6417,-0.3831 -0.5976,-0.7573 v 0 c 0.044,-0.3741 0.3831,-0.6417 0.7572,-0.5976 8.6718,1.0109 19.8233,0.8854 32.0851,0.8209 v 0 c 0.3974,-0.002 0.721,0.3191 0.7227,0.7165 v 0 c 0.002,0.3974 -0.3192,0.721 -0.7166,0.7226 v 0 c -0.3974,0.002 -0.7209,-0.3191 -0.7226,-0.7165 v 0 c -0.002,-0.3974 0.3191,-0.7209 0.7165,-0.7226 6.1538,-0.032 12.6096,-0.3177 18.69,-0.7276 5.3965,-0.3619 10.2337,-0.8746 15.4642,-1.6112 2.6194,-0.3708 5.3739,-0.791 8.2833,-1.3006 1.7688,-0.3096 3.5866,-0.7291 5.4297,-1.0924 2.9476,-0.576 5.9013,-0.9482 8.9275,-1.4157 3.0497,-0.47 6.2134,-1.0548 9.4365,-1.5687 3.2023,-0.5061 6.4555,-0.9109 9.6597,-1.3544 1.8527,-0.2616 3.6954,-0.5331 5.5958,-0.8235 4.6038,-0.7048 9.4769,-1.4948 14.2098,-2.2902 2.6551,-0.4472 5.2565,-0.9043 7.8773,-1.3485 5.3528,-0.894 10.8005,-1.5652 16.0188,-2.2214 2.5874,-0.3302 5.1155,-0.606 7.6334,-0.9436 3.1762,-0.4255 6.3751,-1.0547 9.6798,-1.4966 2.7035,-0.3611 5.4711,-0.4959 8.1912,-0.7137 4.0967,-0.3236 8.1875,-0.8524 12.2177,-1.2189 3.3688,-0.3068 6.6394,-0.5418 9.7909,-0.7159 2.4816,-0.1362 4.888,-0.2658 7.3022,-0.3445 4.8654,-0.1584 9.6591,-0.2794 14.1938,-0.16 2.827,0.0747 5.6096,0.2025 8.1861,0.5129 3.62,0.4324 6.8607,1.3086 9.4454,1.8833 1.523,0.3419 2.8202,0.6356 3.8009,0.7932 0.9704,0.1577 1.4472,0.1922 1.4182,0.1231 v 0 c 0.3618,-0.2488 0.8568,-0.1571 1.1056,0.2047 v 0 c 0.2488,0.3617 0.1571,0.8567 -0.2046,1.1055 v 0 c -0.3618,0.2488 -0.8568,0.1572 -1.1056,-0.2046 v 0 c -0.2488,-0.3618 -0.1572,-0.8568 0.2046,-1.1056 -0.0228,0.0733 -0.1324,0.3683 -0.127,0.4035 v 0 c -0.0389,-0.3981 0.2523,-0.7524 0.6504,-0.7913 v 0 c 0.3981,-0.0389 0.7524,0.2523 0.7913,0.6504 v 0 c 0.0389,0.3981 -0.2523,0.7524 -0.6504,0.7913 v 0 c -0.3981,0.0389 -0.7523,-0.2523 -0.7913,-0.6504 0.033,-0.0215 0.0392,-0.0603 -0.0606,-0.2491 v 0 c -0.2001,-0.3004 -0.1188,-0.7061 0.1816,-0.9062 v 0 c 0.3004,-0.2001 0.7061,-0.1188 0.9062,0.1816 v 0 c 0.2001,0.3004 0.1188,0.7061 -0.1816,0.9062 v 0 c -0.3004,0.2001 -0.7061,0.1188 -0.9062,-0.1816 -0.2167,-0.4169 -0.7066,-1.0061 -1.55,-1.8368 v 0 c -0.2092,-0.1904 -0.2245,-0.5142 -0.0342,-0.7234 v 0 c 0.1904,-0.2091 0.5142,-0.2244 0.7234,-0.0341 0.9329,0.7855 1.58,1.4062 1.9489,1.8702 0.1925,0.25 0.3535,0.5688 0.4142,0.8325 0.0333,0.3191 -0.1756,0.8255 -0.4125,1.0465 -0.6043,0.3266 -1.5268,0.3049 -2.5738,0.1364 -1.0361,-0.1678 -2.3738,-0.4703 -3.8957,-0.8122 -2.6208,-0.5956 -5.7731,-1.4645 -9.2831,-1.8918 -2.5171,-0.3041 -5.229,-0.4274 -8.0411,-0.5013 -4.4933,-0.1176 -9.2422,0.004 -14.1019,0.1638 -2.3976,0.079 -4.7866,0.2087 -7.2674,0.3459 -3.1386,0.1719 -6.3814,0.4036 -9.7359,0.7079 -4.0006,0.3627 -8.101,0.8919 -12.2361,1.2183 -2.7448,0.214 -5.4724,0.3402 -8.1112,0.6885 -3.2594,0.4295 -6.4582,1.0531 -9.6813,1.4799 -2.5368,0.3362 -5.07,0.6088 -7.6444,0.9336 -5.219,0.6668 -10.635,1.3442 -15.9534,2.2433 -2.6174,0.4361 -5.221,0.8858 -7.8826,1.3265 -4.7392,0.7853 -9.6245,1.5661 -14.2368,2.2611 -1.9047,0.2877 -3.7563,0.5571 -5.614,0.8159 -3.2126,0.4566 -6.4502,0.8711 -9.626,1.385 -3.2041,0.5143 -6.3705,1.1031 -9.4424,1.5803 -3.0466,0.4723 -5.9703,0.8418 -8.8667,1.4105 -1.8198,0.3543 -3.6537,0.773 -5.4636,1.0862 -2.9265,0.5054 -5.7068,0.9226 -8.3355,1.2877 -5.2557,0.7334 -10.1498,1.2456 -15.5738,1.6031 -6.0984,0.3994 -12.5987,0.6753 -18.7815,0.6961 -12.2581,0.0396 -23.4833,0.1387 -32.2509,-0.9051 -4.7599,-0.5787 -8.5394,-1.4689 -10.7704,-1.7329 -2.1038,-0.2036 -3.1731,-0.0932 -4.2708,-0.7905 v 0 c -0.3267,-0.2337 -0.4022,-0.6881 -0.1684,-1.0148 v 0 c 0.2337,-0.3267 0.688,-0.4022 1.0148,-0.1684 z" /><path
           id="path42"
           style="fill:#006fff;fill-opacity:1;fill-rule:nonzero;stroke:none"
           d="m 133.1939,582.8705 c -0.1002,0.0844 -0.0858,0.0549 -0.0785,0.0593 v 0 c -0.1132,0.3805 -0.5134,0.5972 -0.8939,0.484 v 0 c -0.3805,-0.1132 -0.5971,-0.5134 -0.4839,-0.8939 v 0 c 0.1131,-0.3805 0.5134,-0.5972 0.8939,-0.484 v 0 c 0.3805,0.1132 0.5971,0.5134 0.4839,0.8939 -0.0121,-0.0226 -0.0393,-0.2086 -0.0324,-0.2165 v 0 c 0.2021,0.3362 0.0933,0.7725 -0.2429,0.9746 v 0 c -0.3361,0.202 -0.7725,0.0933 -0.9745,-0.2429 v 0 c -0.2021,-0.3362 -0.0933,-0.7725 0.2429,-0.9746 v 0 c 0.3361,-0.202 0.7725,-0.0933 0.9745,0.2429 8e-4,0.0706 0.1588,0.1633 0.6276,0.3387 v 0 c 0.3594,0.1316 0.544,0.5297 0.4123,0.8891 v 0 c -0.1316,0.3593 -0.5297,0.5439 -0.889,0.4123 v 0 c -0.3594,-0.1317 -0.544,-0.5297 -0.4123,-0.8891 v 0 c 0.1316,-0.3594 0.5297,-0.544 0.889,-0.4123 0.9732,0.3724 2.6899,0.6962 5.0266,1.0152 4.3078,0.5518 10.5041,0.999 17.9439,1.4046 4.8555,0.255 10.4076,0.498 16.2862,0.3696 2.6248,-0.0491 5.267,-0.1513 7.9394,-0.3883 3.3446,-0.2989 6.7353,-0.9495 10.2131,-1.5058 2.1311,-0.3388 4.2851,-0.5667 6.4005,-0.8684 1.3891,-0.1987 2.7634,-0.4077 4.1372,-0.6279 4.8479,-0.779 9.6255,-1.5873 14.4551,-2.6349 11.0978,-2.3951 22.5125,-6.0976 34.1957,-9.4558 4.3627,-1.2635 8.8328,-2.5543 13.4053,-3.8016 2.2993,-0.6284 4.6375,-1.2357 6.9883,-1.826 2.3053,-0.5719 4.6267,-1.1696 6.9964,-1.6986 3.9684,-0.8863 8.0662,-1.5205 12.2468,-2.1304 4.1881,-0.6133 8.5036,-1.222 12.8365,-1.7404 4.2771,-0.5115 8.6281,-0.9967 13.0399,-1.1921 2.6588,-0.11 5.3439,-0.0704 8.022,0.0138 4.4392,0.1339 8.9166,0.5293 13.4658,0.9913 3.7286,0.378 7.5323,0.7866 11.1876,1.2223 1.7005,0.2031 3.3778,0.4083 5.0646,0.6286 4.4727,0.5825 8.9783,1.2682 13.1993,1.9655 5.8182,0.9688 11.2724,1.9934 16.5218,2.801 2.2117,0.3387 4.3796,0.6015 6.5557,0.8627 7.4617,0.8817 14.8396,1.7773 21.3408,2.1234 v 0 c 0.4976,0.0272 0.8789,0.4528 0.8516,0.9504 v 0 c -0.0272,0.4976 -0.4527,0.8789 -0.9503,0.8516 v 0 c -0.4977,-0.0273 -0.879,-0.4528 -0.8517,-0.9504 v 0 c 0.0273,-0.4976 0.4528,-0.8789 0.9504,-0.8516 5.1407,0.2652 9.6797,0.2401 13.7923,-0.092 v 0 c 0.5245,-0.0401 0.9822,0.3525 1.0223,0.877 v 0 c 0.0401,0.5244 -0.3525,0.9821 -0.877,1.0222 v 0 c -0.5244,0.0402 -0.9821,-0.3525 -1.0222,-0.8769 v 0 c -0.0401,-0.5245 0.3525,-0.9822 0.8769,-1.0223 2.0259,-0.1539 3.954,-0.4508 5.8659,-0.6948 v 0 c 0.5209,-0.0666 0.9972,0.3018 1.0638,0.8227 v 0 c 0.0666,0.5209 -0.3017,0.9972 -0.8227,1.0638 v 0 c -0.5209,0.0666 -0.9972,-0.3017 -1.0638,-0.8227 v 0 c -0.0666,-0.5209 0.3018,-0.9972 0.8227,-1.0638 10.2558,-1.1618 19.0407,-1.0239 21.7298,-2.8488 v 0 c 0.23,-0.1646 0.5498,-0.1117 0.7144,0.1182 v 0 c 0.1647,0.2299 0.1117,0.5498 -0.1182,0.7144 -3.0559,2.2888 -11.9589,2.4598 -22.0849,3.9027 -1.8872,0.2417 -3.8651,0.5459 -5.9616,0.7075 -4.1882,0.303 -8.8486,0.2953 -14.0364,-0.005 -6.564,-0.37 -13.9927,-1.2904 -21.4494,-2.191 -2.1774,-0.259 -4.3741,-0.5232 -6.6128,-0.8634 -5.281,-0.7987 -10.7473,-1.8114 -16.5502,-2.7636 -4.2092,-0.6968 -8.6848,-1.3795 -13.1379,-1.9608 -1.6796,-0.2182 -3.3472,-0.421 -5.0453,-0.6226 -3.6448,-0.4331 -7.4332,-0.8387 -11.1566,-1.2148 -4.5379,-0.4572 -8.9518,-0.8439 -13.3384,-0.9717 -2.6634,-0.0744 -5.2821,-0.1042 -7.8887,0.0138 -4.3512,0.1844 -8.6345,0.6556 -12.9054,1.1591 -4.3149,0.5082 -8.608,1.106 -12.7924,1.7109 -4.1736,0.6058 -8.2063,1.226 -12.1165,2.0973 -2.3417,0.5223 -4.6426,1.1147 -6.9556,1.6883 -2.3473,0.575 -4.6713,1.1643 -6.9636,1.7763 -4.5666,1.2212 -9.0303,2.4857 -13.3989,3.7263 -11.6605,3.3362 -23.1303,7.0393 -34.3138,9.4401 -4.8687,1.0402 -9.6921,1.8415 -14.5488,2.6068 -1.3804,0.2184 -2.7683,0.4265 -4.1647,0.6234 -2.1441,0.3028 -4.286,0.5266 -6.3765,0.8568 -3.4555,0.5438 -6.8997,1.1939 -10.3229,1.4929 -2.7105,0.2379 -5.4062,0.3406 -8.0466,0.3881 -5.927,0.0879 -11.5338,-0.1976 -16.3941,-0.4935 -7.4493,-0.4376 -13.688,-0.9195 -18.036,-1.5074 -2.3682,-0.3004 -4.2125,-0.6265 -5.3312,-1.0196 -0.5774,-0.2079 -1.0983,-0.5273 -1.3688,-0.909 -0.1283,-0.2329 -0.189,-0.6551 -0.1277,-0.9246 0.0808,-0.2425 0.2756,-0.5306 0.468,-0.717 v 0 c 0.2948,-0.2729 0.755,-0.2552 1.0279,0.0396 v 0 c 0.273,0.2948 0.2552,0.755 -0.0396,1.028 z" /><path
           id="path44"
           style="fill:#006fff;fill-opacity:1;fill-rule:nonzero;stroke:none"
           d="m 234.2152,495.1108 c 1.2131,1.9211 2.5506,2.6326 5.5455,3.669 v 0 c 0.3769,0.1303 0.5768,0.5416 0.4464,0.9186 v 0 c -0.1304,0.377 -0.5417,0.5768 -0.9186,0.4464 v 0 c -0.377,-0.1304 -0.5769,-0.5416 -0.4465,-0.9186 v 0 c 0.1304,-0.377 0.5417,-0.5768 0.9187,-0.4464 3.606,1.256 8.6532,2.7637 14.905,4.3636 v 0 c 0.3735,0.0951 0.5991,0.4749 0.5041,0.8483 v 0 c -0.0951,0.3735 -0.4749,0.5992 -0.8484,0.5041 v 0 c -0.3734,-0.0951 -0.5991,-0.4749 -0.504,-0.8484 v 0 c 0.095,-0.3734 0.4749,-0.5991 0.8483,-0.504 4.087,1.0134 8.6396,2.1421 13.3553,2.8874 v 0 c 0.4226,0.0692 0.7091,0.4679 0.6398,0.8905 v 0 c -0.0692,0.4226 -0.4679,0.7091 -0.8905,0.6399 v 0 c -0.4226,-0.0692 -0.7091,-0.4679 -0.6398,-0.8905 v 0 c 0.0692,-0.4226 0.4679,-0.7091 0.8905,-0.6399 4.1359,0.6565 8.3406,0.9419 12.8668,1.0251 3.4788,0.0899 7.1714,0.0656 10.7879,0.0272 10.6587,-0.1293 20.4472,-0.9809 30.0895,-2.1211 v 0 c 0.4293,-0.0512 0.8188,0.2553 0.87,0.6846 v 0 c 0.0513,0.4293 -0.2552,0.8188 -0.6845,0.87 v 0 c -0.4293,0.0512 -0.8188,-0.2553 -0.87,-0.6845 v 0 c -0.0512,-0.4293 0.2553,-0.8188 0.6845,-0.8701 6.4992,-0.7659 12.8202,-1.1411 18.6159,-1.5509 v 0 c 0.4163,-0.0301 0.7781,0.2829 0.8082,0.6992 v 0 c 0.0301,0.4163 -0.283,0.7782 -0.6993,0.8082 v 0 c -0.4163,0.0301 -0.7781,-0.2829 -0.8082,-0.6992 v 0 c -0.0301,-0.4163 0.283,-0.7782 0.6993,-0.8082 9.0594,-0.6517 16.9555,-0.9526 23.9476,-1.0483 v 0 c 0.4114,-0.006 0.7496,0.3229 0.7554,0.7343 v 0 c 0.006,0.4114 -0.3229,0.7496 -0.7342,0.7554 v 0 c -0.4114,0.006 -0.7496,-0.3229 -0.7555,-0.7342 v 0 c -0.006,-0.4114 0.323,-0.7496 0.7343,-0.7555 7.7164,-0.0318 13.5552,0.2742 19.0768,-0.739 v 0 c 0.2774,-0.0547 0.5467,0.1259 0.6013,0.4033 v 0 c 0.0547,0.2775 -0.1259,0.5467 -0.4033,0.6014 -5.6302,1.1844 -11.5699,1.037 -19.2536,1.224 -6.9727,0.1025 -14.8244,0.4087 -23.8598,1.066 -5.8036,0.4285 -12.0864,0.8188 -18.5394,1.5981 -9.6646,1.1632 -19.5377,2.0417 -30.2536,2.1932 -3.6197,0.0567 -7.3414,0.0993 -10.8483,0.0273 -4.5648,-0.1282 -8.8788,-0.4664 -13.0785,-1.1759 -4.7701,-0.8081 -9.3739,-2.0017 -13.4488,-3.0654 -6.2802,-1.5905 -11.3868,-3.0988 -15.033,-4.3509 -3.0791,-1.0647 -4.8906,-2.0909 -6.2973,-4.2479 v 0 c -0.2171,-0.3379 -0.1191,-0.788 0.2189,-1.0051 v 0 c 0.338,-0.2171 0.788,-0.1191 1.0051,0.2189 z" /><path
           id="path46"
           style="fill:#60ba46;fill-opacity:1;fill-rule:nonzero;stroke:none"
           d="m 315.5053,641.2348 c -0.106,-0.0223 -0.346,0.0928 -0.7217,0.2126 v 0 c -0.2982,0.1325 -0.6474,-0.002 -0.7799,-0.3002 v 0 c -0.1325,-0.2982 0.002,-0.6474 0.3002,-0.7799 v 0 c 0.2983,-0.1324 0.6474,0.002 0.7799,0.3002 v 0 c 0.1325,0.2983 -0.002,0.6475 -0.3002,0.7799 -0.2561,0.1813 -0.6632,0.3696 -1.1149,0.4591 v 0 c -0.43,0.0206 -0.7953,-0.3113 -0.8159,-0.7413 v 0 c -0.0206,-0.43 0.3113,-0.7953 0.7413,-0.8159 v 0 c 0.4301,-0.0206 0.7953,0.3113 0.8159,0.7413 v 0 c 0.0206,0.43 -0.3113,0.7953 -0.7413,0.8159 -1.7659,-0.0352 -3.9129,-1.8943 -6.5971,-3.8028 v 0 c -0.3194,-0.2236 -0.397,-0.6638 -0.1733,-0.9832 v 0 c 0.2236,-0.3194 0.6638,-0.397 0.9832,-0.1733 v 0 c 0.3194,0.2236 0.397,0.6638 0.1733,0.9832 v 0 c -0.2236,0.3194 -0.6638,0.397 -0.9832,0.1733 -1.9964,-1.364 -4.5113,-2.9047 -7.0635,-5.1683 -1.8619,-1.661 -3.7881,-3.6842 -5.7503,-5.9513 -4.62,-5.3646 -8.668,-11.8905 -9.8964,-18.6258 -0.4997,-2.7994 -0.7818,-5.6648 -0.42,-8.51 0.7968,-6.0785 4.5688,-11.8098 8.317,-17.7558 2.4115,-3.7869 4.7492,-7.9094 6.5752,-12.2404 1.6766,-3.9872 2.8095,-8.3756 3.7975,-12.5391 0.4936,-2.0918 0.9664,-4.0654 1.3879,-6.0632 0.8701,-4.0938 1.5364,-8.1258 1.9087,-12.224 0.162,-1.6587 0.2595,-3.2975 0.3247,-4.9072 0.0414,-1.1664 0.0407,-2.3129 0.0408,-3.488 0.002,-4.7722 -0.0792,-9.6191 -0.6702,-14.0903 -0.8531,-6.5366 -2.483,-12.9553 -4.5626,-18.6138 -0.5521,-1.5091 -1.1255,-2.8562 -1.7644,-4.2746 -0.954,-2.0965 -1.9829,-4.2843 -3.0039,-6.25 -1.3739,-2.714 -2.7289,-4.8088 -4.1607,-6.7366 -0.4093,-0.5466 -0.8827,-1.0786 -1.3547,-1.684 -1.3258,-1.7133 -2.3976,-3.7378 -3.1903,-5.0996 -0.3543,-0.6461 -0.7146,-1.1669 -0.9473,-1.6506 v 0 c -0.2453,-0.4701 -0.0631,-1.05 0.407,-1.2953 v 0 c 0.4701,-0.2453 1.05,-0.063 1.2953,0.407 v 0 c 0.2453,0.4701 0.063,1.0501 -0.407,1.2953 v 0 c -0.4701,0.2453 -1.05,0.0631 -1.2953,-0.407 -0.0542,-0.1421 -0.1271,-0.3054 -0.1843,-0.4836 v 0 c -0.1905,-0.4636 0.0309,-0.9939 0.4946,-1.1844 v 0 c 0.4636,-0.1905 0.9938,0.0309 1.1843,0.4945 v 0 c 0.1905,0.4636 -0.0309,0.9939 -0.4945,1.1844 v 0 c -0.4636,0.1905 -0.9939,-0.0309 -1.1844,-0.4945 -0.0566,-0.1948 -0.0893,-0.6327 0.0204,-0.9499 v 0 c 0.1774,-0.4377 0.676,-0.6486 1.1136,-0.4711 v 0 c 0.4377,0.1774 0.6486,0.676 0.4711,1.1136 v 0 c -0.1774,0.4377 -0.676,0.6486 -1.1136,0.4711 v 0 c -0.4377,-0.1774 -0.6486,-0.676 -0.4711,-1.1136 0.2769,-0.2742 0.6961,-0.4494 1.0668,-0.4709 v 0 c 0.2644,-0.1003 0.5601,0.0326 0.6605,0.297 v 0 c 0.1003,0.2644 -0.0326,0.56 -0.297,0.6604 -0.1817,0.1884 -0.0319,0.2072 0.1542,0.1567 0.042,-0.1502 0.0417,-0.4056 0.0745,-0.3822 0.0313,0.0371 0.1037,0.1241 0.2073,0.2844 0.1791,0.3057 0.5689,0.7925 1.0112,1.4981 0.8331,1.3985 1.8484,3.296 3.0777,4.8449 0.4325,0.5491 0.9209,1.0916 1.3876,1.7032 1.5101,1.9593 3.0077,4.1945 4.4725,6.9816 1.0312,2.0118 2.0734,4.2547 3.0229,6.3693 0.6519,1.4374 1.2611,2.8595 1.8366,4.4185 2.1209,5.7724 3.8114,12.4239 4.6885,19.0914 0.5981,4.6026 0.6791,9.591 0.6708,14.3831 -0.003,1.1745 -0.005,2.3603 -0.0497,3.5658 -0.0527,1.6318 -0.1407,3.3345 -0.293,5.0363 -0.4015,4.177 -1.1087,8.3359 -2.0087,12.4745 -0.443,2.0232 -0.9369,4.018 -1.4447,6.1026 -1.0125,4.1803 -2.2121,8.7253 -3.962,12.8498 -1.879,4.4405 -4.3011,8.7122 -6.7439,12.5447 -3.8175,5.9284 -7.4656,11.2729 -8.2115,16.8862 -0.361,2.6328 -0.1108,5.2157 0.3634,7.9488 1.0841,6.4018 4.8765,12.5621 9.3743,17.8504 1.913,2.2603 3.745,4.2318 5.5348,5.8694 2.4184,2.2258 4.8145,3.7516 6.8132,5.1856 2.7661,1.9078 4.6901,3.5703 5.7128,3.4021 0.2897,0.054 0.4748,0.0548 0.7096,0.018 0.2379,-0.1527 0.4532,-0.358 0.7382,-0.5116 v 0 c 0.3809,-0.1279 0.7933,0.0771 0.9212,0.458 v 0 c 0.1279,0.3808 -0.0772,0.7932 -0.458,0.9211 z" /><path
           id="path48"
           style="fill:#a400c7;fill-opacity:1;fill-rule:nonzero;stroke:none"
           d="m 303.8607,559.6315 c 0.1015,0.2123 0.161,0.5327 0.1501,0.7411 v 0 c -0.0492,0.4089 -0.4206,0.7005 -0.8295,0.6513 v 0 c -0.4089,-0.0492 -0.7005,-0.4206 -0.6513,-0.8295 v 0 c 0.0492,-0.4089 0.4205,-0.7006 0.8295,-0.6514 v 0 c 0.4089,0.0492 0.7005,0.4206 0.6513,0.8296 -0.0307,0.2209 -0.1681,0.5212 -0.2941,0.6779 v 0 c -0.2879,0.3086 -0.7714,0.3253 -1.08,0.0374 v 0 c -0.3086,-0.2879 -0.3253,-0.7714 -0.0374,-1.08 v 0 c 0.2879,-0.3086 0.7714,-0.3254 1.08,-0.0375 v 0 c 0.3086,0.288 0.3253,0.7715 0.0374,1.0801 -0.1446,0.1498 -0.4255,0.3125 -0.6241,0.3678 v 0 c -0.424,0.0837 -0.8356,-0.1922 -0.9193,-0.6162 v 0 c -0.0836,-0.424 0.1923,-0.8356 0.6163,-0.9193 v 0 c 0.424,-0.0836 0.8355,0.1923 0.9192,0.6163 v 0 c 0.0837,0.424 -0.1922,0.8356 -0.6162,0.9192 -0.2041,0.037 -0.5568,-0.003 -0.7706,-0.0933 -0.2305,-0.1586 -0.4309,-0.4448 -0.4878,-0.5967 -0.0453,-0.1402 -0.0791,-0.3197 -0.0936,-0.4537 -0.0257,-0.2606 -0.0256,-0.5578 -0.0242,-0.7852 0.004,-0.2434 -0.0657,-0.6573 0.0346,-1.1161 0.1865,-0.4804 0.7026,-0.8706 1.0926,-0.9846 0.3775,-0.0929 0.8755,-0.0956 1.2564,-0.0217 0.729,0.1735 1.4356,0.7651 1.8582,1.3698 0.4115,0.6111 0.713,1.4372 0.7416,2.1039 -0.002,0.5577 -0.3488,1.2145 -0.771,1.5366 -0.4255,0.2792 -1.0828,0.4489 -1.6867,0.4519 -1.4735,-0.0657 -3.3721,-0.991 -4.343,-1.9404 -0.307,-0.322 -0.6063,-0.8072 -0.7011,-1.2557 -0.04,-0.3172 -0.0999,-0.942 0.2021,-1.5139 0.3924,-0.4639 1.051,-0.6851 1.5618,-0.737 0.4993,-0.0459 1.0788,-0.0297 1.5631,-0.008 1.1557,0.0545 2.4024,0.443 3.2263,0.9105 0.4679,0.2696 0.868,0.6875 1.0781,1.0061 0.1533,0.2242 0.3141,0.5399 0.3869,0.8252 0.0546,0.3162 -0.0772,0.8877 -0.3318,1.2026 -0.3871,0.3108 -0.9021,0.423 -1.2215,0.4394 -0.3131,0.0136 -0.6242,-0.001 -0.859,0.0113 -0.5641,0.004 -1.2531,0.0638 -1.8486,0.0214 -0.3756,-0.0443 -0.786,-0.1646 -1.046,-0.3002 -0.1457,-0.0848 -0.3702,-0.2718 -0.5014,-0.4454 -0.1228,-0.2245 -0.177,-0.8083 -0.0565,-1.1164 0.2495,-0.3214 0.6162,-0.5281 0.8139,-0.5842 0.1843,-0.0472 0.4062,-0.0827 0.5973,-0.1061 0.3805,-0.0462 0.7621,-0.0737 1.001,-0.1267 0.0552,-0.006 -0.0493,0.0576 -0.0845,0.0737 -0.0149,0.0293 -0.0753,0.1925 -0.0927,0.2774 v 0 c 0.0252,-0.486 0.4397,-0.8595 0.9257,-0.8342 v 0 c 0.486,0.0253 0.8595,0.4398 0.8343,0.9258 v 0 c -0.0253,0.486 -0.4398,0.8595 -0.9258,0.8342 v 0 c -0.486,-0.0253 -0.8595,-0.4397 -0.8342,-0.9258 0.006,0.0999 0.0967,0.3769 0.1665,0.4878 v 0 c -0.3239,-0.3673 -0.2888,-0.9276 0.0785,-1.2515 v 0 c 0.3672,-0.3239 0.9275,-0.2888 1.2514,0.0785 v 0 c 0.3239,0.3672 0.2888,0.9275 -0.0784,1.2514 v 0 c -0.3673,0.324 -0.9276,0.2888 -1.2515,-0.0784 0.2158,0.1355 0.2933,0.1834 0.1134,0.1713 v 0 c -0.4947,-0.0467 -0.8579,-0.4856 -0.8112,-0.9803 v 0 c 0.0467,-0.4947 0.4856,-0.8579 0.9803,-0.8112 v 0 c 0.4947,0.0467 0.8579,0.4856 0.8112,0.9803 v 0 c -0.0467,0.4947 -0.4856,0.8579 -0.9803,0.8112 -0.2701,-0.156 -0.7667,-0.309 -1.1055,-0.6457 v 0 c -0.2346,-0.1579 -0.2967,-0.4761 -0.1388,-0.7107 v 0 c 0.158,-0.2346 0.4762,-0.2967 0.7108,-0.1387 0.0732,-0.0593 0.3426,-0.1998 0.7026,-0.2964 0.2402,0.0276 0.6774,0.1365 1.0478,0.4476 0.1408,0.1914 0.2624,0.5691 0.2631,0.7767 -0.023,0.1928 -0.1259,0.4716 -0.2183,0.6147 -0.1857,0.2385 -0.5763,0.5114 -0.9135,0.6121 -0.3788,0.1133 -0.8327,0.1807 -1.1658,0.2485 -0.1658,0.0336 -0.2703,0.0592 -0.3395,0.0897 -0.0556,0.0214 0.1307,-0.0919 0.3151,-0.2922 0.0764,-0.226 0.0332,-0.7215 -0.0321,-0.8619 -0.0688,-0.0818 -0.1845,-0.182 -0.1749,-0.184 0.0395,0.0227 0.1027,0.0354 0.3209,0.0464 0.4063,0.051 1.0301,0.01 1.6773,0.0214 0.3172,0.0157 0.6179,0.0555 0.836,0.0658 0.2119,0.0131 0.1478,0.0642 -0.008,0.1467 -0.0194,0.0824 -0.09,0.3632 -0.094,0.3502 0.0141,-0.0454 -0.004,-0.0981 -0.0935,-0.2633 -0.1072,-0.1888 -0.2244,-0.3366 -0.4884,-0.4816 -0.6528,-0.3691 -1.564,-0.6463 -2.4995,-0.6645 -0.4737,-0.0115 -0.9477,-0.0185 -1.3327,0.029 -0.3734,0.0414 -0.4298,0.0308 -0.318,0.002 -0.0274,-0.0618 0.0517,-0.0514 0.1264,0.2987 -0.005,0.075 0.0294,0.101 0.2327,0.2966 0.6822,0.7282 2.0908,1.4389 3.1161,1.4468 0.4003,0.0319 0.5696,0.01 0.716,-0.0895 0.1511,-0.0566 0.1234,0.0353 0.1102,-0.1222 0.0132,-0.3747 -0.1428,-0.813 -0.4458,-1.2591 -0.2919,-0.4523 -0.5569,-0.7097 -0.873,-0.7471 -0.2209,-0.0464 -0.3878,-0.045 -0.5545,0.0105 -0.1563,0.0342 -0.0656,-0.0629 -0.003,-0.0884 -0.041,0.0591 0.0248,0.2969 0.0345,0.696 0.005,0.2276 0.01,0.4475 0.034,0.6145 0.0106,0.0801 0.0132,0.0922 0.0216,0.102 -0.003,-10e-4 -0.1327,-0.1777 -0.2709,-0.2884 -0.0526,-0.006 -0.2316,-0.0253 -0.2763,-0.0207 -0.0316,0.0224 -0.1598,0.1008 -0.1865,0.1243 -0.008,0.0303 -0.0624,0.163 -0.0693,0.1863 0.0129,0.0103 0.0369,0.1028 0.0194,0.0673 v 0 c -0.1739,-0.3621 -0.0214,-0.7967 0.3407,-0.9706 v 0 c 0.3621,-0.174 0.7967,-0.0215 0.9706,0.3406 z" /><path
           id="path50"
           style="fill:#a400c7;fill-opacity:1;fill-rule:nonzero;stroke:none"
           d="m 287.7843,550.6069 c -0.1743,-0.1021 -0.3545,-0.3071 -0.414,-0.4055 v 0 c -0.1684,-0.3845 0.007,-0.8328 0.3914,-1.0012 v 0 c 0.3845,-0.1684 0.8328,0.007 1.0012,0.3914 v 0 c 0.1684,0.3846 -0.007,0.8328 -0.3914,1.0012 v 0 c -0.3846,0.1684 -0.8328,-0.007 -1.0012,-0.3914 -0.0463,-0.0844 -0.0922,-0.2065 -0.1191,-0.2879 v 0 c -0.0803,-0.4305 0.2035,-0.8445 0.634,-0.9248 v 0 c 0.4305,-0.0803 0.8445,0.2035 0.9248,0.634 v 0 c 0.0803,0.4305 -0.2036,0.8445 -0.634,0.9248 v 0 c -0.4305,0.0803 -0.8446,-0.2035 -0.9248,-0.634 -0.0488,-0.1498 -0.0878,-0.3544 -0.1154,-0.5534 v 0 c -0.0133,-0.4738 0.3602,-0.8687 0.834,-0.8819 v 0 c 0.4739,-0.0133 0.8688,0.3601 0.882,0.834 v 0 c 0.0133,0.4739 -0.3601,0.8687 -0.834,0.882 v 0 c -0.4739,0.0132 -0.8688,-0.3602 -0.882,-0.8341 -0.0502,-0.5828 -0.0367,-1.463 0.005,-2.4233 0.0615,-0.9577 0.1528,-2.0271 0.2407,-3.0077 0.2467,-1.7895 0.4828,-3.2918 0.5443,-3.0602 v 0 c -0.13,-0.4431 0.1239,-0.9076 0.5669,-1.0376 v 0 c 0.4431,-0.13 0.9076,0.1239 1.0376,0.567 v 0 c 0.13,0.443 -0.1239,0.9076 -0.5669,1.0375 v 0 c -0.4431,0.13 -0.9077,-0.1238 -1.0376,-0.5669 0.171,0.288 1.4343,0.2586 1.5046,0.1245 v 0 c -0.1976,0.3924 -0.6759,0.5504 -1.0684,0.3528 v 0 c -0.3924,-0.1976 -0.5504,-0.6759 -0.3528,-1.0683 v 0 c 0.1976,-0.3925 0.6759,-0.5504 1.0683,-0.3528 v 0 c 0.3925,0.1975 0.5504,0.6758 0.3529,1.0683 0.0159,-0.0701 0.0191,-0.1219 0.005,-0.1213 v 0 c -0.106,0.4033 -0.5189,0.6444 -0.9222,0.5384 v 0 c -0.4033,-0.106 -0.6443,-0.5188 -0.5384,-0.9221 v 0 c 0.106,-0.4034 0.5188,-0.6444 0.9222,-0.5384 v 0 c 0.4033,0.1059 0.6443,0.5188 0.5384,0.9221 -0.0334,0.0191 -0.0713,0.0667 -0.1176,0.1621 v 0 c -0.0719,0.3652 -0.4262,0.6031 -0.7915,0.5312 v 0 c -0.3652,-0.0719 -0.6031,-0.4262 -0.5312,-0.7915 v 0 c 0.0718,-0.3652 0.4262,-0.6031 0.7915,-0.5312 v 0 c 0.3652,0.0718 0.6031,0.4262 0.5312,0.7915 -0.0935,0.1954 -0.2065,0.5223 -0.3439,1.0082 v 0 c -0.0474,0.2788 -0.3119,0.4664 -0.5906,0.419 v 0 c -0.2788,-0.0474 -0.4664,-0.3118 -0.419,-0.5906 0.0315,-0.5076 0.0407,-0.867 0.0307,-1.0967 -0.004,-0.1171 -0.0102,-0.2173 -0.0193,-0.2891 -0.003,-0.0407 0.01,-0.1213 0.0267,-0.1938 0.0842,-0.1623 1.353,-0.1934 1.5289,0.1114 0.1123,0.4048 -0.0118,1.9475 -0.1424,3.7381 -0.1179,0.9718 -0.2376,2.015 -0.3281,2.9502 -0.11,0.9334 -0.1895,1.7272 -0.2095,2.2212 -0.0176,0.1604 -0.0328,0.2481 -0.0419,0.3099 -0.007,0.0258 -0.0289,-0.0104 -0.047,-0.0304 -0.0313,-0.0339 -0.179,-0.1968 -0.3162,-0.2799 v 0 c 0.3577,0.1829 0.4993,0.6212 0.3164,0.9788 v 0 c -0.1829,0.3577 -0.6212,0.4993 -0.9788,0.3164 z" /><path
           id="path52"
           style="fill:#a400c7;fill-opacity:1;fill-rule:nonzero;stroke:none"
           d="m 285.1658,548.348 c -0.1008,0.2568 -0.0537,0.3153 0.1807,0.5412 v 0 c 0.2763,0.3289 0.2336,0.8195 -0.0953,1.0958 v 0 c -0.3289,0.2763 -0.8195,0.2336 -1.0958,-0.0953 v 0 c -0.2763,-0.3289 -0.2336,-0.8195 0.0953,-1.0958 v 0 c 0.3289,-0.2763 0.8195,-0.2336 1.0958,0.0953 0.2201,0.2572 0.5338,0.4215 1.0638,0.5402 v 0 c 0.4415,0.1192 0.7029,0.5738 0.5837,1.0153 v 0 c -0.1192,0.4416 -0.5737,0.7029 -1.0153,0.5838 v 0 c -0.4416,-0.1192 -0.7029,-0.5738 -0.5838,-1.0154 v 0 c 0.1192,-0.4415 0.5738,-0.7029 1.0154,-0.5837 1.2358,0.351 3.1164,-0.3295 4.2036,-1.4195 v 0 c 0.3797,-0.351 0.972,-0.3278 1.323,0.0519 v 0 c 0.351,0.3797 0.3278,0.972 -0.0519,1.323 v 0 c -0.3797,0.351 -0.972,0.3278 -1.323,-0.0519 v 0 c -0.351,-0.3797 -0.3278,-0.972 0.0519,-1.323 0.5568,-0.4837 0.752,-0.9829 0.8147,-1.5782 0.065,-0.4082 0.1152,-0.6836 0.0681,-0.894 0.0132,-0.1507 -0.0602,-0.1656 -0.3984,-0.315 v 0 c -0.4391,-0.2032 -0.6304,-0.7238 -0.4272,-1.1629 v 0 c 0.2031,-0.4392 0.7238,-0.6304 1.1629,-0.4273 v 0 c 0.4391,0.2032 0.6304,0.7239 0.4272,1.163 v 0 c -0.2031,0.4391 -0.7238,0.6304 -1.1629,0.4272 -0.3416,-0.165 -0.7533,-0.252 -1.1684,-0.3214 v 0 c -0.4767,-0.0797 -0.7985,-0.5307 -0.7188,-1.0074 v 0 c 0.0797,-0.4767 0.5307,-0.7985 1.0074,-0.7188 v 0 c 0.4767,0.0797 0.7985,0.5307 0.7188,1.0074 v 0 c -0.0797,0.4767 -0.5307,0.7985 -1.0074,0.7188 -0.4438,-0.075 -0.7853,-0.1009 -1.191,-0.0832 v 0 c -0.4832,0.0193 -0.8906,-0.3567 -0.9099,-0.8399 v 0 c -0.0193,-0.4832 0.3568,-0.8906 0.84,-0.9099 v 0 c 0.4832,-0.0193 0.8905,0.3568 0.9098,0.84 v 0 c 0.0193,0.4832 -0.3567,0.8905 -0.8399,0.9098 -0.5026,-0.1026 -1.0276,-0.1379 -1.7546,-0.0879 v 0 c -0.275,0.0659 -0.5513,-0.1035 -0.6173,-0.3785 v 0 c -0.0659,-0.275 0.1036,-0.5514 0.3786,-0.6173 0.7095,-0.2944 1.3342,-0.5196 1.9232,-0.6661 0.5042,-0.0185 1.0321,0.0207 1.55,0.1069 0.4638,0.0775 1.0893,0.2201 1.6158,0.4576 0.5288,0.2517 1.1533,0.8108 1.3674,1.4942 0.1257,0.5072 0.1031,1.0809 0.0681,1.5217 -0.11,0.8697 -0.5786,1.9595 -1.3851,2.7361 -1.4891,1.2918 -4.0832,2.1169 -5.906,1.6438 -0.7188,-0.2184 -1.4193,-0.6528 -1.8236,-1.1389 -0.39,-0.5175 -0.5775,-1.3476 -0.3675,-2.0083 v 0 c 0.1289,-0.3805 0.5418,-0.5845 0.9223,-0.4556 v 0 c 0.3805,0.1288 0.5845,0.5417 0.4556,0.9222" /><path
           id="path54"
           style="fill:#006fff;fill-opacity:1;fill-rule:nonzero;stroke:none"
           d="m 305.62,559.1269 c -0.0408,0.014 -0.0816,0.0284 -0.1224,0.0429 v 0 c 0,0.3341 -0.2709,0.605 -0.605,0.605 v 0 c -0.3341,0 -0.605,-0.2709 -0.605,-0.605 -0.0408,-0.0145 -0.0816,-0.0289 -0.1224,-0.0429 v 0 c 0,-0.4018 0.3257,-0.7274 0.7274,-0.7274 v 0 c 0.4017,0 0.7274,0.3256 0.7274,0.7274" /><path
           id="path56"
           style="fill:#006fff;fill-opacity:1;fill-rule:nonzero;stroke:none"
           d="m 304.3348,559.1571 c 0.0276,-0.0548 0.061,-0.2848 0.0525,-0.4054 v 0 c 0.1148,0.4017 -0.1177,0.8204 -0.5194,0.9352 v 0 c -0.4016,0.1148 -0.8203,-0.1178 -0.9351,-0.5194 v 0 c -0.1148,-0.4017 0.1177,-0.8203 0.5194,-0.9351 v 0 c 0.4016,-0.1148 0.8203,0.1177 0.9351,0.5193 -0.0376,-0.1122 -0.1568,-0.29 -0.1869,-0.3319 v 0 c 0.3451,0.2627 0.4119,0.7555 0.1492,1.1006 v 0 c -0.2628,0.3451 -0.7556,0.4119 -1.1007,0.1492 v 0 c -0.3451,-0.2628 -0.4119,-0.7555 -0.1491,-1.1007 v 0 c 0.2627,-0.3451 0.7555,-0.4119 1.1006,-0.1491 -0.0465,-0.0427 -0.066,-0.0747 0.0652,-0.0656 v 0 c 0.4541,0.1035 0.7382,0.5556 0.6347,1.0097 v 0 c -0.1036,0.4542 -0.5557,0.7383 -1.0098,0.6348 v 0 c -0.4541,-0.1036 -0.7383,-0.5557 -0.6347,-1.0098 v 0 c 0.1035,-0.4541 0.5556,-0.7383 1.0098,-0.6347 0.2834,0.0274 0.7782,0.0436 1.4871,0.0898 2.4067,0.2257 7.5274,0.5426 11.8578,1.0012 1.7765,0.2032 3.4024,0.5687 4.6644,0.7966 1.2102,0.2289 2.074,0.3027 2.7235,0.3657 0.1992,0.0222 0.4343,0.004 0.7767,0.0488 0.1266,0.0315 0.5375,0.0618 1.0963,0.3805 0.1774,0.1701 0.3928,0.5369 0.4461,0.7208 0.0294,0.1692 0.031,0.4224 0.0151,0.5415 -0.0419,0.2102 -0.1383,0.4689 -0.2178,0.6239 -0.1554,0.2849 -0.4246,0.6418 -0.6705,0.8856 -0.8161,0.7256 -1.9997,1.097 -2.7874,1.4747 -0.2677,0.1252 -0.52,0.2886 -0.8226,0.4637 -0.274,0.1589 -0.4948,0.2991 -0.6386,0.3952 -0.1477,0.0896 -0.3155,0.1704 -0.3944,0.2004 -0.0438,0.0168 -0.0861,0.0312 -0.0744,0.0232 -0.0363,0.0134 0.0636,-0.034 -0.4646,-2.1872 v 0 c 0.6299,0 1.1406,0.5107 1.1406,1.1406 v 0 c 0,0.63 -0.5107,1.1407 -1.1406,1.1407 v 0 c -0.63,0 -1.1407,-0.5107 -1.1407,-1.1407 v 0 c 0,-0.6299 0.5107,-1.1406 1.1407,-1.1406 -0.1716,0.0148 -0.2808,0.0383 -0.2463,0.0315 0.151,-0.0309 0.8458,-0.3122 1.6185,-0.6011 1.3142,-0.482 2.5583,-0.9024 3.0846,-1.3524 0.2343,-0.1902 0.2302,-0.1355 0.1452,-0.0568 0.087,-0.169 0.1077,-0.1356 0.0808,-0.2059 v 0 c -0.0704,-0.5803 0.3428,-1.1078 0.9231,-1.1783 v 0 c 0.5802,-0.0705 1.1078,0.3428 1.1783,0.923 v 0 c 0.0705,0.5803 -0.3428,1.1078 -0.9231,1.1783 v 0 c -0.5802,0.0705 -1.1078,-0.3427 -1.1783,-0.923 0.0967,0.0646 -0.1195,-0.0943 -0.4307,-0.4712 v 0 c -0.3701,-0.4479 -0.3071,-1.111 0.1408,-1.4811 v 0 c 0.4478,-0.3701 1.1109,-0.3071 1.4811,0.1407 v 0 c 0.3701,0.4479 0.3071,1.111 -0.1408,1.4811 v 0 c -0.4479,0.3702 -1.111,0.3072 -1.4811,-0.1407 -0.3614,-0.487 -0.8624,-0.979 -1.2992,-1.5644 v 0 c -0.3335,-0.416 -0.2667,-1.0236 0.1493,-1.3571 v 0 c 0.416,-0.3336 1.0236,-0.2667 1.3571,0.1492 v 0 c 0.3336,0.416 0.2668,1.0236 -0.1492,1.3572 v 0 c -0.416,0.3335 -1.0236,0.2667 -1.3572,-0.1493 -0.3294,-0.657 -0.5904,-1.5041 -0.4357,-2.3349 v 0 c 0.008,-0.2827 0.244,-0.5052 0.5266,-0.497 v 0 c 0.2827,0.008 0.5052,0.244 0.497,0.5267 0.1158,0.5104 0.4381,0.7452 0.9183,1.097 0.3734,0.425 0.9088,0.8695 1.4149,1.4322 0.2307,0.2789 0.731,0.8129 0.9102,1.5563 0.0441,0.5145 -0.105,1.0715 -0.2361,1.3692 -0.2538,0.4412 -0.594,0.7015 -0.713,0.8052 -0.8942,0.7319 -2.3808,1.2935 -3.6655,1.7975 -0.7422,0.286 -1.4822,0.5935 -1.8717,0.7058 -0.0118,0.004 -0.1263,0.0296 -1.419,-0.8869 0.5927,-1.2227 0.6974,-1.2726 0.7521,-1.2944 -0.0508,0.0156 -0.0558,0.0151 -0.055,0.0113 0.0316,-0.0203 0.0248,-0.0205 0.0617,-0.054 0.174,-0.1144 0.4536,-0.2898 0.7646,-0.4692 0.257,-0.1481 0.5937,-0.3605 0.9861,-0.5499 0.9628,-0.4572 1.88,-0.7127 2.1541,-1.0489 0.1143,-0.1066 0.1779,-0.1924 0.225,-0.294 0.0218,-0.0382 -0.006,0.0404 -0.024,0.1012 -0.005,0.0471 -0.003,0.2351 0.0142,0.3501 0.0405,0.1275 0.2303,0.4488 0.372,0.5904 0.3392,0.1408 0.3393,0.1868 -0.009,0.1388 -0.0292,-0.0167 -0.2405,-5e-4 -0.6229,-0.0369 -0.6349,-0.0667 -1.6216,-0.1605 -2.9269,-0.4106 -1.3096,-0.2619 -2.8438,-0.6338 -4.496,-0.8427 -4.2622,-0.5763 -9.3579,-1.0159 -11.8123,-1.3715 -0.6949,-0.1224 -1.2512,-0.2251 -1.635,-0.3507 -0.201,-0.0667 -0.4575,-0.1829 -0.6383,-0.3271 -0.1006,-0.0957 -0.2632,-0.3296 -0.3186,-0.5044 -0.026,-0.1819 0.0153,-0.4796 0.0769,-0.6096 v 0 c 0.1656,-0.366 0.5966,-0.5284 0.9626,-0.3628 v 0 c 0.366,0.1657 0.5284,0.5967 0.3627,0.9626" /><path
           id="path58"
           style="fill:#006fff;fill-opacity:1;fill-rule:nonzero;stroke:none"
           d="m 315.558,551.4084 c -0.0144,0.0103 0.0619,-0.1345 0.0863,-0.197 v 0 c -0.0322,0.4075 -0.3886,0.7118 -0.7962,0.6796 v 0 c -0.4075,-0.0323 -0.7117,-0.3887 -0.6795,-0.7962 v 0 c 0.0322,-0.4076 0.3887,-0.7118 0.7962,-0.6796 v 0 c 0.4075,0.0322 0.7118,0.3887 0.6795,0.7962 -0.007,-0.0739 -0.0593,-0.2519 -0.0546,-0.2657 v 0 c 0.2509,0.3317 0.1855,0.8039 -0.1462,1.0548 v 0 c -0.3316,0.2509 -0.8039,0.1854 -1.0548,-0.1462 v 0 c -0.2509,-0.3316 -0.1854,-0.8039 0.1463,-1.0548 v 0 c 0.3316,-0.2509 0.8038,-0.1854 1.0547,0.1462 0.0106,0.0317 0.0888,0.0628 0.3504,0.1469 v 0 c 0.4036,0.1483 0.6105,0.5958 0.4621,0.9993 v 0 c -0.1484,0.4036 -0.5958,0.6105 -0.9994,0.4621 v 0 c -0.4036,-0.1484 -0.6104,-0.5958 -0.4621,-0.9994 v 0 c 0.1484,-0.4035 0.5958,-0.6104 0.9994,-0.462 0.5465,0.1903 1.3299,0.2769 2.1353,0.1567 0.6263,-0.0448 1.0739,-0.3765 1.5281,-1.0594 0.4804,-0.6832 0.7624,-1.5341 0.8127,-2.5923 0.2011,-2.1316 -1.0543,-4.3363 -2.5817,-5.1214 -0.7902,-0.4021 -1.4248,-0.3828 -2.0158,-0.1178 -0.5859,0.2275 -0.8944,0.5728 -0.9826,1.1139 -0.0982,0.4948 -0.0927,0.8406 0.1394,1.2208 0.2526,0.5625 0.9457,1.0733 1.8084,1.4174 v 0 c 0.4505,0.1939 0.6586,0.7162 0.4648,1.1668 v 0 c -0.1939,0.4505 -0.7163,0.6586 -1.1668,0.4647 v 0 c -0.4505,-0.1938 -0.6586,-0.7162 -0.4647,-1.1667 v 0 c 0.1938,-0.4505 0.7162,-0.6586 1.1667,-0.4648 0.5303,0.2201 0.9718,0.3151 1.3782,0.2775 v 0 c 0.5078,-0.0214 0.9368,0.373 0.9581,0.8808 v 0 c 0.0214,0.5078 -0.373,0.9367 -0.8808,0.9581 v 0 c -0.5078,0.0213 -0.9368,-0.373 -0.9581,-0.8808 v 0 c -0.0214,-0.5078 0.373,-0.9368 0.8808,-0.9581 0.322,0.0626 0.4414,0.1051 0.6062,0.006 v 0 c 0.2803,-0.279 0.7338,-0.2779 1.0128,0.002 v 0 c 0.279,0.2804 0.2779,0.7338 -0.002,1.0128 v 0 c -0.2803,0.279 -0.7338,0.2779 -1.0128,-0.002 v 0 c -0.279,-0.2804 -0.2779,-0.7338 0.002,-1.0128 0.2193,-0.0985 0.3438,-0.2301 0.3858,-0.697 v 0 c -0.0107,-0.2826 0.2097,-0.5203 0.4923,-0.531 v 0 c 0.2826,-0.0107 0.5203,0.2097 0.531,0.4923 0.0846,0.6596 -0.0911,1.325 -0.3988,1.7509 -0.3621,0.4252 -0.9965,0.7197 -1.5401,0.8178 -0.6735,0.008 -1.4861,-0.1888 -2.1563,-0.4847 -1.0589,-0.4827 -2.1509,-1.3743 -2.6196,-2.3312 -0.3035,-0.7489 -0.283,-1.6361 -0.1018,-2.2958 0.2617,-0.9034 1.0506,-1.7325 1.9355,-2.084 0.8796,-0.3139 2.0891,-0.279 3.1422,0.2548 1.9622,0.9855 3.658,3.7698 3.6107,6.3969 -0.0711,1.2691 -0.4839,2.5349 -1.0853,3.4358 -0.6274,0.9019 -1.6483,1.6231 -2.6912,1.7782 -1.015,0.0978 -2.1359,-0.0617 -2.8703,-0.343 -0.3782,-0.1512 -0.7843,-0.4125 -1.0148,-0.7011 -0.1141,-0.1708 -0.2254,-0.5148 -0.2191,-0.7575 0.0379,-0.2316 0.1996,-0.5481 0.3539,-0.7087 v 0 c 0.2822,-0.286 0.7427,-0.2891 1.0287,-0.007 v 0 c 0.2859,0.2822 0.289,0.7427 0.007,1.0287 z" /><path
           id="path60"
           style="fill:#006fff;fill-opacity:1;fill-rule:nonzero;stroke:none"
           d="m 322.2306,542.5202 c -0.0175,-1.0945 0.0182,-2.3949 -0.0247,-3.8035 v 0 c -0.0128,-0.3972 0.2989,-0.7295 0.6961,-0.7423 v 0 c 0.3972,-0.0128 0.7295,0.2989 0.7423,0.6961 v 0 c 0.0127,0.3972 -0.2989,0.7295 -0.6961,0.7423 v 0 c -0.3972,0.0127 -0.7295,-0.2989 -0.7423,-0.6961 0.0527,-0.5156 0.0954,-1.04 0.121,-1.5834 v 0 c -0.0226,-0.2819 0.1875,-0.5288 0.4694,-0.5515 v 0 c 0.2818,-0.0226 0.5287,0.1875 0.5514,0.4694 0.1135,0.5492 0.2105,1.0959 0.2966,1.6193 0.0489,1.4481 0.0183,2.7632 0.0408,3.8226 v 0 c 0.008,0.4017 -0.312,0.7333 -0.7137,0.7408 v 0 c -0.4017,0.008 -0.7333,-0.3121 -0.7408,-0.7137" /><path
           id="path62"
           style="fill:#60ba46;fill-opacity:1;fill-rule:nonzero;stroke:none"
           d="m 304.2387,558.9755 c 0.4437,0.4221 0.9373,1.7165 1.4405,3.764 v 0 c 0.1075,0.5218 -0.2283,1.032 -0.7502,1.1395 v 0 c -0.5218,0.1075 -1.032,-0.2284 -1.1395,-0.7502 v 0 c -0.1075,-0.5219 0.2284,-1.032 0.7502,-1.1395 v 0 c 0.5219,-0.1075 1.032,0.2283 1.1395,0.7502 0.5113,2.3593 0.8372,6.2435 1.1547,9.982 v 0 c 0.0447,0.577 -0.3868,1.0811 -0.9639,1.1258 v 0 c -0.577,0.0447 -1.0811,-0.3868 -1.1258,-0.9639 v 0 c -0.0447,-0.5771 0.3869,-1.0811 0.9639,-1.1258 v 0 c 0.5771,-0.0447 1.0811,0.3868 1.1258,0.9639 0.1168,1.3413 0.2672,2.7105 0.3909,3.8595 v 0 c 0.0576,0.5974 -0.38,1.1284 -0.9774,1.186 v 0 c -0.5974,0.0575 -1.1284,-0.3801 -1.186,-0.9775 v 0 c -0.0576,-0.5974 0.3801,-1.1284 0.9775,-1.1859 v 0 c 0.5974,-0.0576 1.1284,0.38 1.1859,0.9774 0.1124,1.0746 0.2104,1.9048 0.3013,2.5527 0.0571,0.4138 0.1059,0.7433 0.1607,1.0699 0.0699,0.394 0.1453,0.7674 0.2112,1.0265 -0.0242,0.004 -0.0774,-0.088 -0.0851,-0.0754 -0.0108,10e-5 -0.045,-0.0313 -0.0534,-0.0292 -0.0149,-0.0106 -0.0332,-0.0238 -0.053,-0.0379 0.002,0.008 -1.431,1.5866 -1.447,1.5675 v 0 c -0.4378,-0.3892 -0.4773,-1.0597 -0.0881,-1.4976 v 0 c 0.3893,-0.4379 1.0598,-0.4773 1.4976,-0.0881 v 0 c 0.4379,0.3892 0.4773,1.0597 0.0881,1.4976 v 0 c -0.3892,0.4379 -1.0597,0.4773 -1.4976,0.0881 -0.2558,-0.2602 -1.9143,-1.8292 -2.9285,-2.7569 -0.2746,-0.2568 -0.518,-0.4614 -0.7043,-0.6296 -0.1353,-0.1139 -0.255,-0.2324 -0.3128,-0.2975 -0.0198,-0.023 -0.0761,-0.0971 -0.1218,-0.1698 v 0 c -0.2637,-0.4603 -0.1044,-1.0472 0.3559,-1.3109 v 0 c 0.4603,-0.2637 1.0472,-0.1043 1.3109,0.3559 v 0 c 0.2637,0.4603 0.1043,1.0472 -0.356,1.3109 v 0 c -0.4602,0.2637 -1.0471,0.1043 -1.3108,-0.3559 -0.1258,-0.4101 1.306,-1.3158 1.4091,-1.2482 0.0773,0.0629 0.1409,0.1243 0.1818,0.1679 0.4575,0.4528 1.8574,2.1076 2.8706,3.3988 0.4968,0.6435 0.7014,1.0724 0.7068,0.974 -0.0699,-0.0244 -0.3677,-0.0629 -0.4628,-0.0611 v 0 c 0.5734,-0.1489 1.1589,0.1952 1.3079,0.7685 v 0 c 0.1489,0.5734 -0.1952,1.1589 -0.7685,1.3079 v 0 c -0.5734,0.1489 -1.1589,-0.1952 -1.3078,-0.7685 v 0 c -0.149,-0.5734 0.1951,-1.1589 0.7684,-1.3079 -0.0717,0.027 -0.211,0.0997 -0.1972,0.0739 v 0 c 0.4445,-0.4059 1.1339,-0.3746 1.5399,0.0699 v 0 c 0.4059,0.4445 0.3747,1.1339 -0.0699,1.5399 v 0 c -0.4445,0.4059 -1.1339,0.3746 -1.5399,-0.0699 v 0 c -0.4059,-0.4445 -0.3746,-1.1339 0.0699,-1.5399 0.148,-0.068 0.366,-0.417 0.6933,-0.9318 v 0 c 0.2736,-0.4804 0.8849,-0.6481 1.3653,-0.3745 v 0 c 0.4804,0.2736 0.6481,0.8849 0.3745,1.3653 v 0 c -0.2736,0.4804 -0.8848,0.6481 -1.3653,0.3745 v 0 c -0.4804,-0.2736 -0.6481,-0.8848 -0.3745,-1.3653 0.4926,-0.5355 1.0849,-1.2178 1.7751,-1.6501 v 0 c 0.2068,-0.1929 0.5308,-0.1816 0.7237,0.0252 v 0 c 0.1929,0.2067 0.1817,0.5307 -0.0251,0.7236 -0.3252,0.515 -0.5285,1.202 -0.7339,1.8921 -0.271,0.5357 -0.5795,1.1332 -0.9629,1.5507 -0.1636,0.1361 -0.4807,0.3196 -0.738,0.3939 -0.2719,0.0477 -0.7543,-0.009 -1.0137,-0.1276 -0.6526,-0.4269 -1.0155,-1.0965 -1.4038,-1.6148 -0.9474,-1.2832 -2.2712,-2.9195 -2.6286,-3.3309 -0.0178,-0.0188 0.009,0.007 0.0707,0.0585 0.0953,0.0617 1.5247,-0.8439 1.4054,-1.2425 -0.0466,-0.0744 -0.0949,-0.1378 -0.1106,-0.1563 0.005,0.006 0.0226,0.0251 0.1059,0.0929 0.1772,0.1348 0.4625,0.3481 0.7881,0.6223 1.0665,0.9133 2.7658,2.4578 3.0265,2.6606 -0.0148,-0.018 -1.4486,1.5603 -1.4479,1.5665 -0.0288,-0.0227 -0.0566,-0.0459 -0.0733,-0.0581 -0.0454,-0.0392 -0.1186,-0.1176 -0.1749,-0.185 -0.0941,-0.1149 -0.2545,-0.4091 -0.3376,-0.6776 -0.0577,-0.3134 -0.1253,-0.751 -0.1805,-1.1734 -0.0486,-0.3493 -0.0921,-0.7095 -0.1407,-1.1316 -0.0764,-0.6733 -0.1602,-1.537 -0.2562,-2.6237 -0.0975,-1.1469 -0.2241,-2.5386 -0.3172,-3.9061 -0.2622,-3.7439 -0.5233,-7.5387 -0.9547,-9.7546 -0.3331,-2.0125 -0.5936,-3.1049 -0.5935,-3.1387 v 0 c -0.2801,-0.2879 -0.2738,-0.7485 0.0141,-1.0286 v 0 c 0.2879,-0.2802 0.7484,-0.2739 1.0286,0.014 z" /><path
           id="path64"
           style="fill:#60ba46;fill-opacity:1;fill-rule:nonzero;stroke:none"
           d="m 314.2953,587.1885 c -0.1553,0.4019 -0.2239,0.7054 -0.2051,1.0179 v 0 c 0.0571,0.3291 -0.1634,0.6422 -0.4925,0.6993 v 0 c -0.3291,0.0571 -0.6422,-0.1634 -0.6993,-0.4925 v 0 c -0.0571,-0.3291 0.1634,-0.6422 0.4925,-0.6993 v 0 c 0.3291,-0.0571 0.6422,0.1634 0.6993,0.4925 0.1389,0.3964 0.2837,0.4882 0.7009,0.5463 v 0 c 0.4357,0.187 0.6373,0.6917 0.4504,1.1274 v 0 c -0.187,0.4357 -0.6918,0.6373 -1.1275,0.4504 v 0 c -0.4357,-0.187 -0.6373,-0.6918 -0.4503,-1.1275 v 0 c 0.187,-0.4356 0.6917,-0.6373 1.1274,-0.4503 0.4454,0.1674 0.8553,0.2412 1.3278,0.0792 v 0 c 0.5051,-0.1199 1.0117,0.1924 1.1316,0.6975 v 0 c 0.1199,0.505 -0.1924,1.0117 -0.6975,1.1315 v 0 c -0.5051,0.1199 -1.0117,-0.1924 -1.1316,-0.6975 v 0 c -0.1199,-0.505 0.1924,-1.0117 0.6975,-1.1315 0.4444,-0.0459 0.8176,-0.4776 1.2276,-1.3602 0.4328,-0.8953 0.6873,-1.9984 0.7041,-3.2273 0.0657,-1.9599 -0.7926,-3.555 -1.5978,-4.1 -0.2,-0.1584 -0.2508,-0.163 -0.4874,-0.1489 -0.425,0.005 -0.6266,-0.0655 -0.6825,-0.007 -0.0866,-0.013 -0.1186,0.0714 -0.2632,0.3985 -0.1569,0.3308 -0.248,0.7076 -0.3021,1.1016 -0.0551,0.4567 -0.0729,0.7687 0.0431,1.0183 0.0439,0.2137 0.2178,0.3005 0.6648,0.4968 v 0 c 0.4918,0.2448 0.6921,0.842 0.4473,1.3338 v 0 c -0.2447,0.4918 -0.8419,0.6921 -1.3337,0.4473 v 0 c -0.4918,-0.2448 -0.6921,-0.8419 -0.4473,-1.3337 v 0 c 0.2447,-0.4918 0.8419,-0.6921 1.3337,-0.4474 0.4471,0.209 0.9687,0.3309 1.5076,0.4203 v 0 c 0.5669,0.1134 0.9346,0.665 0.8211,1.2319 v 0 c -0.1134,0.567 -0.665,0.9346 -1.2319,0.8211 v 0 c -0.567,-0.1134 -0.9346,-0.665 -0.8212,-1.2319 v 0 c 0.1135,-0.567 0.6651,-0.9346 1.232,-0.8211 0.4552,0.1067 0.809,0.1757 1.1411,0.1886 v 0 c 0.5542,0.002 1.0017,0.4533 0.9995,1.0075 v 0 c -0.002,0.5543 -0.4534,1.0017 -1.0076,0.9995 v 0 c -0.5542,-0.002 -1.0017,-0.4533 -0.9994,-1.0076 v 0 c 0.002,-0.5542 0.4533,-1.0017 1.0075,-0.9994 0.5047,0.1728 0.7715,0.2866 1.1332,0.1016 v 0 c 0.1922,-0.2073 0.5162,-0.2196 0.7236,-0.0274 v 0 c 0.2074,0.1923 0.2196,0.5163 0.0274,0.7237 -0.4017,0.6383 -1.1702,1.0412 -1.8923,1.2091 -0.4857,0.01 -1.0349,-0.0552 -1.545,-0.1428 -0.6072,-0.14 -1.3621,-0.3699 -1.982,-0.692 -0.62,-0.3347 -1.3038,-0.9581 -1.5699,-1.6911 -0.1686,-0.6189 -0.1257,-1.3368 -0.0322,-1.8719 0.0784,-0.4906 0.2422,-1.1016 0.4731,-1.5938 0.2437,-0.4958 0.733,-1.0697 1.3121,-1.3065 0.5479,-0.1446 1.0069,-0.0612 1.201,-0.0714 0.4759,-0.003 1.0928,0.1664 1.5462,0.4761 1.1909,0.8864 2.3873,3.135 2.3952,5.5422 -0.0182,1.4181 -0.3426,2.8859 -0.8458,3.9874 -0.5262,1.1137 -1.4463,2.1033 -2.4657,2.4051 -0.8778,0.1584 -1.8289,-0.0453 -2.4388,-0.3303 -0.6993,-0.421 -1.1638,-1.2121 -1.2159,-1.9175 -0.1176,-0.4737 -0.1092,-1.0687 -0.006,-1.6091 v 0 c 0.1062,-0.3875 0.5064,-0.6155 0.8938,-0.5093 v 0 c 0.3875,0.1062 0.6155,0.5064 0.5093,0.8938 z" /><path
           id="path66"
           style="fill:#60ba46;fill-opacity:1;fill-rule:nonzero;stroke:none"
           d="m 320.8378,580.0486 c 0.0882,0.1384 0.0937,0.181 0.1448,0.2263 v 0 c 0.3293,0.1047 0.5114,0.4565 0.4067,0.7859 v 0 c -0.1047,0.3293 -0.4565,0.5114 -0.7859,0.4067 v 0 c -0.3293,-0.1047 -0.5114,-0.4565 -0.4067,-0.7859 v 0 c 0.1047,-0.3293 0.4565,-0.5114 0.7859,-0.4067 0.0639,-0.028 -0.0879,-0.0731 -0.1251,-0.1405 v 0 c 0.3817,-0.2307 0.878,-0.1083 1.1087,0.2733 v 0 c 0.2306,0.3816 0.1083,0.878 -0.2734,1.1086 v 0 c -0.3816,0.2307 -0.878,0.1083 -1.1086,-0.2733 v 0 c -0.2307,-0.3816 -0.1083,-0.878 0.2733,-1.1086 -0.0356,-0.0286 -0.1564,0.0257 -0.1979,-0.062 v 0 c 0.1903,-0.512 0.7597,-0.7729 1.2717,-0.5826 v 0 c 0.5121,0.1903 0.7729,0.7597 0.5826,1.2717 v 0 c -0.1903,0.512 -0.7596,0.7729 -1.2717,0.5826 v 0 c -0.512,-0.1903 -0.7728,-0.7596 -0.5826,-1.2717 0.0719,-0.0628 0.0214,-0.3097 -0.1272,-0.7655 -0.0265,-0.1955 -0.2306,-0.481 -0.409,-0.8962 -0.097,-0.2617 -0.331,-0.6302 -0.388,-1.1808 0.0575,-0.325 0.3291,-0.6998 0.457,-0.7891 0.1076,-0.0583 0.2491,-0.1105 0.3183,-0.1297 0.1226,-0.0307 0.2846,-0.0536 0.4123,-0.0645 0.2437,-0.0197 0.5543,-0.0191 0.7852,-0.007 0.3576,0.006 0.7338,0.066 1.0379,0.1082 0.201,0.0283 0.3627,0.0471 0.5096,0.0494 v 0 c 0.585,0.0898 0.9865,0.6369 0.8966,1.222 v 0 c -0.0898,0.585 -0.6369,0.9865 -1.2219,0.8966 v 0 c -0.5851,-0.0898 -0.9865,-0.6369 -0.8967,-1.2219 v 0 c 0.0898,-0.5851 0.6369,-0.9865 1.222,-0.8967 0.1386,0.0299 0.1556,0.0425 0.1875,0.0383 v 0 c 0.5728,-0.0879 1.1084,0.3052 1.1963,0.878 v 0 c 0.0879,0.5728 -0.3052,1.1084 -0.878,1.1963 v 0 c -0.5728,0.0879 -1.1084,-0.3052 -1.1963,-0.878 v 0 c -0.0879,-0.5728 0.3052,-1.1084 0.878,-1.1963 0.0329,0.054 -0.1225,0.192 -0.1356,0.2515 v 0 c 0.3301,-0.3698 0.8975,-0.402 1.2673,-0.0719 v 0 c 0.3698,0.3301 0.402,0.8975 0.0719,1.2673 v 0 c -0.33,0.3699 -0.8975,0.4021 -1.2673,0.072 v 0 c -0.3698,-0.3301 -0.402,-0.8975 -0.0719,-1.2674 0.0979,0.0889 0.1795,0.202 0.3086,0.217 v 0 c 0.0997,-0.2646 0.395,-0.3984 0.6597,-0.2987 v 0 c 0.2646,0.0996 0.3984,0.395 0.2987,0.6596 0.0682,0.1769 0.0701,0.4222 0.0699,0.6202 -0.2024,0.2716 -0.6145,0.5235 -0.8802,0.6242 -0.2722,0.0424 -0.6014,0.0337 -0.8339,0.006 -0.2242,-0.0547 -0.4586,-0.1284 -0.6571,-0.1956 -0.2985,-0.1025 -0.5345,-0.1945 -0.7337,-0.2398 -0.1672,-0.0245 -0.3647,-0.0396 -0.5296,-0.0394 -0.0766,-10e-4 -0.0939,-0.004 -0.0999,-0.005 0.005,-0.004 0.0953,-0.0391 0.1669,-0.0766 0.093,-0.0688 0.3451,-0.4198 0.4024,-0.7186 -0.0593,-0.1762 0.1071,-0.0145 0.3203,0.3947 0.1055,0.1981 0.4013,0.5651 0.6004,1.0669 0.1969,0.6102 0.3011,1.4245 0.1139,2.0593 -0.1778,0.2792 -0.5137,0.6192 -0.8211,0.755 -0.3092,0.0969 -0.7897,0.0956 -1.0907,-0.0492 -0.2387,-0.0468 -0.5464,-0.2 -0.7827,-0.3795 v 0 c -0.2869,-0.2812 -0.2915,-0.7418 -0.0103,-1.0287 v 0 c 0.2812,-0.2869 0.7417,-0.2915 1.0286,-0.0103 z" /><path
           id="path68"
           style="fill:#60ba46;fill-opacity:1;fill-rule:nonzero;stroke:none"
           d="m 264.604,654.7605 c 0.4467,0.0507 0.9024,0.3894 1.0251,0.6929 v 0 c 0.1492,0.2468 0.07,0.5678 -0.1768,0.717 v 0 c -0.2468,0.1491 -0.5678,0.07 -0.7169,-0.1768 v 0 c -0.1492,-0.2468 -0.0701,-0.5678 0.1767,-0.717 v 0 c 0.2468,-0.1491 0.5678,-0.07 0.717,0.1768 0.1188,0.1717 0.2064,0.4431 0.2253,0.6464 v 0 c -0.01,0.3209 -0.278,0.573 -0.5989,0.5631 v 0 c -0.3208,-0.01 -0.5729,-0.278 -0.563,-0.5989 v 0 c 0.01,-0.3208 0.278,-0.5729 0.5989,-0.563 v 0 c 0.3208,0.01 0.5729,0.278 0.563,0.5988 0.007,0.2101 -0.078,0.5235 -0.2073,0.7293 v 0 c -0.2252,0.2726 -0.6287,0.3111 -0.9014,0.0859 v 0 c -0.2726,-0.2252 -0.3111,-0.6287 -0.0859,-0.9014 v 0 c 0.2252,-0.2726 0.6287,-0.3111 0.9014,-0.0859 v 0 c 0.2726,0.2252 0.3111,0.6287 0.0859,0.9014 -0.1916,0.1973 -0.5546,0.3409 -0.785,0.352 -0.2099,-10e-4 -0.4818,-0.0546 -0.7129,-0.1324 -0.4431,-0.1536 -1.0118,-0.4547 -1.6049,-0.8462 -1.1751,-0.7794 -2.6491,-2.0311 -4.035,-3.543 -2.1899,-2.3903 -4.741,-5.2338 -7.0143,-8.7559 -1.5655,-2.4353 -2.8398,-5.4097 -4.317,-8.5506 -0.8092,-1.7292 -1.8103,-3.5339 -2.6809,-5.4506 -0.7036,-1.5522 -1.3041,-3.1903 -1.8045,-4.744 -0.487,-1.5055 -0.8445,-3.0031 -1.1337,-4.4828 -0.2055,-1.0572 -0.3811,-2.1277 -0.5302,-3.2644 -0.2216,-1.6638 -0.3914,-3.4601 -0.5419,-5.2145 -0.1415,-1.6838 -0.3263,-3.3811 -0.4095,-5.0883 -0.0991,-2.0866 -0.0743,-4.21 0.1083,-6.4686 0.162,-1.969 0.4925,-4.0376 0.824,-5.9597 0.2986,-1.7389 0.6505,-3.3786 1.02,-5.1275 0.6016,-2.8366 1.2135,-5.9805 1.7844,-9.0396 0.3735,-1.9962 0.6532,-3.9458 0.9714,-5.7907 0.2409,-1.3733 0.5873,-2.6323 0.8304,-3.8225 0.4034,-1.9742 0.6151,-3.8723 0.7304,-5.9472 0.0787,-1.3978 0.0939,-2.8426 0.0397,-4.2248 -0.0875,-2.3673 -0.5611,-4.3326 -1.2814,-6.5678 -0.3642,-1.1273 -0.7829,-2.2899 -1.2711,-3.5534 -0.5356,-1.3868 -1.0898,-2.8604 -1.7092,-4.2767 -1.702,-3.894 -4.0681,-7.2439 -6.6946,-10.443 -0.8619,-1.0516 -1.7656,-2.0543 -2.6755,-3.0594 -1.1585,-1.277 -2.383,-2.4846 -3.557,-3.8548 -1.1786,-1.3756 -2.2467,-2.9381 -3.2978,-4.5587 -0.8795,-1.3672 -1.604,-2.8815 -2.347,-4.2167 -0.6177,-1.1169 -1.4038,-2.0903 -2.1214,-3.1862 -1.2482,-1.9206 -2.3118,-3.9725 -3.1653,-5.951 -0.8467,-1.9713 -1.4286,-4.0178 -1.7424,-6.0021 -0.2157,-1.3808 -0.2018,-2.8063 -0.1672,-3.973 v 0 c 0.0151,-0.5218 0.4503,-0.9325 0.9721,-0.9174 v 0 c 0.5218,0.0151 0.9326,0.4503 0.9175,0.9721 v 0 c -0.0151,0.5218 -0.4504,0.9326 -0.9722,0.9175 v 0 c -0.5218,-0.0151 -0.9325,-0.4504 -0.9174,-0.9722 0.055,-1.3653 0.2736,-2.5424 0.6291,-3.4348 v 0 c 0.1809,-0.4656 0.705,-0.6963 1.1706,-0.5154 v 0 c 0.4655,0.1809 0.6963,0.705 0.5154,1.1705 v 0 c -0.1809,0.4656 -0.705,0.6964 -1.1706,0.5155 v 0 c -0.4656,-0.1809 -0.6963,-0.705 -0.5154,-1.1706 0.4048,-0.886 1.0381,-1.6315 1.7316,-2.0814 v 0 c 0.3393,-0.2444 0.8126,-0.1675 1.057,0.1718 v 0 c 0.2444,0.3393 0.1675,0.8125 -0.1718,1.057 v 0 c -0.3393,0.2444 -0.8125,0.1675 -1.0569,-0.1718 v 0 c -0.2445,-0.3393 -0.1676,-0.8125 0.1717,-1.057 0.2114,-0.0513 0.4445,-0.0986 0.6594,-0.1192 v 0 c 0.2505,-0.1312 0.56,-0.0344 0.6911,0.2162 v 0 c 0.1312,0.2505 0.0344,0.5599 -0.2162,0.6911 -0.1038,0.1462 -0.1736,0.2847 -0.2482,0.44 -0.4549,0.3774 -0.713,0.7898 -0.9317,1.5084 -0.268,0.7123 -0.4048,1.5859 -0.4255,2.8344 -0.0325,1.1491 -0.0494,2.4003 0.1492,3.6201 0.3,1.8684 0.8232,3.6828 1.6326,5.5378 0.8303,1.9122 1.8237,3.8178 3.0272,5.654 0.6614,1.0176 1.4883,2.0528 2.1877,3.3069 0.7709,1.3902 1.4653,2.8507 2.2787,4.1099 1.0306,1.6075 2.0172,3.0727 3.1207,4.3713 1.1177,1.3147 2.3192,2.5054 3.5093,3.824 0.9108,1.0076 1.8442,2.0456 2.7334,3.1313 2.6633,3.2585 5.1642,6.8285 6.9412,10.891 0.6388,1.4611 1.2081,2.9721 1.7411,4.351 0.4953,1.2828 0.9314,2.4946 1.3054,3.6517 0.745,2.2988 1.2782,4.5272 1.3855,7.0648 0.0573,1.4299 0.043,2.9616 -0.0358,4.4031 -0.1175,2.1255 -0.3444,4.1626 -0.7612,6.2186 -0.2542,1.2536 -0.5909,2.4837 -0.8118,3.7706 -0.3175,1.817 -0.6034,3.7804 -0.9874,5.8144 -0.58,3.0648 -1.2039,6.2288 -1.8165,9.08 -0.3777,1.7503 -0.7299,3.353 -1.0292,5.0538 -0.3346,1.91 -0.6587,3.8997 -0.8183,5.7966 -0.1882,2.1978 -0.2206,4.2029 -0.1327,6.2366 0.0694,1.6541 0.2411,3.3213 0.374,5.0277 0.1328,1.7482 0.2818,3.5072 0.4825,5.1394 0.1391,1.1114 0.2999,2.1303 0.4945,3.1643 0.2711,1.448 0.5933,2.8492 1.0509,4.2961 0.4844,1.5235 1.047,3.0766 1.7212,4.5743 0.8358,1.8608 1.8252,3.6586 2.6528,5.4426 1.4656,3.1763 2.6761,6.0763 4.1507,8.4046 2.1762,3.4499 4.6153,6.2182 6.7719,8.6294 1.3102,1.4671 2.649,2.6319 3.7358,3.3763 0.5375,0.3698 0.9619,0.6072 1.2901,0.7267 0.1553,0.0596 0.214,0.0762 0.2689,0.0743 0.0345,0.0103 -0.1294,0.0821 -0.1981,0.1305 0.0248,0.0194 0.0177,0.09 0.0326,0.0505 0.0266,-0.0459 0.0515,-0.0305 0.0425,-0.0708 -0.0681,-0.0123 0.0507,0.1092 0.0338,0.2128 v 0 c -0.3992,0.0455 -0.7596,-0.2412 -0.8051,-0.6403 v 0 c -0.0455,-0.3992 0.2411,-0.7596 0.6403,-0.8051" /><path
           id="path70"
           style="fill:#60ba46;fill-opacity:1;fill-rule:nonzero;stroke:none"
           d="m 247.8045,660.4047 c -0.3335,0.2043 -1.0426,0.4136 -1.9539,0.389 v 0 c -0.4015,-0.0136 -0.7159,-0.3501 -0.7023,-0.7516 v 0 c 0.0136,-0.4015 0.3501,-0.716 0.7516,-0.7023 v 0 c 0.4015,0.0136 0.716,0.3501 0.7023,0.7516 v 0 c -0.0136,0.4015 -0.3501,0.7159 -0.7516,0.7023 -0.7253,-0.0371 -1.699,-0.2231 -2.8292,-0.617 v 0 c -0.3645,-0.1241 -0.5594,-0.5202 -0.4353,-0.8847 v 0 c 0.1241,-0.3645 0.5202,-0.5594 0.8847,-0.4353 v 0 c 0.3645,0.1241 0.5594,0.5202 0.4353,0.8847 v 0 c -0.1241,0.3645 -0.5202,0.5594 -0.8847,0.4353 -4.0882,-1.3663 -10.4469,-5.7595 -15.7265,-11.3583 v 0 c -0.3043,-0.3261 -0.2865,-0.8371 0.0395,-1.1413 v 0 c 0.3261,-0.3042 0.8371,-0.2865 1.1414,0.0396 v 0 c 0.3042,0.3261 0.2865,0.837 -0.0396,1.1413 v 0 c -0.3261,0.3042 -0.8371,0.2865 -1.1413,-0.0396 -3.0182,-3.218 -5.6002,-6.95 -7.6511,-10.8581 -1.0169,-1.9379 -1.9456,-3.9503 -2.6925,-6.0691 -0.7334,-2.11 -1.1969,-4.3815 -1.6412,-6.7478 -0.7012,-3.6882 -1.2632,-7.7901 -1.919,-11.8952 -0.3242,-2.0369 -0.7003,-4.0788 -1.106,-6.122 -0.4056,-2.0612 -0.85,-4.0825 -1.326,-6.0312 -0.487,-2.0089 -1.0737,-3.9463 -1.6207,-5.7554 -0.8553,-2.7818 -1.6559,-5.1407 -2.4868,-7.5311 -0.8727,-2.495 -1.7421,-4.992 -2.5945,-7.6096 -1.0416,-3.2357 -2.0759,-6.6856 -3.0844,-10.0899 -0.6724,-2.29 -1.2819,-4.5802 -1.9184,-6.7898 -0.4607,-1.5822 -0.9445,-3.1044 -1.4491,-4.6722 -0.6883,-2.1572 -1.4972,-4.3311 -2.2343,-6.5706 -0.2343,-0.7168 -0.3875,-1.4304 -0.558,-2.0581 -0.424,-1.5734 -0.9393,-2.8919 -1.3934,-3.8746 -0.5924,-1.2772 -1.0208,-2.4698 -1.535,-3.5635 -1.1303,-2.4077 -2.2856,-4.7946 -3.5023,-6.8903 -0.8105,-1.4021 -1.6061,-2.6295 -2.442,-3.7269 -1.7649,-2.479 -3.6666,-4.4204 -5.02,-5.9031 v 0 c -0.3031,-0.304 -0.3024,-0.7962 0.002,-1.0993 v 0 c 0.304,-0.3031 0.7962,-0.3024 1.0993,0.002 v 0 c 0.3031,0.3041 0.3023,0.7962 -0.002,1.0994 v 0 c -0.304,0.3031 -0.7962,0.3023 -1.0993,-0.002 -0.6773,-0.7424 -1.2342,-1.3895 -1.548,-1.9193 v 0 c -0.2014,-0.2936 -0.1267,-0.6949 0.1669,-0.8963 v 0 c 0.2936,-0.2014 0.6949,-0.1267 0.8963,0.1669 v 0 c 0.2014,0.2936 0.1267,0.6949 -0.1669,0.8963 v 0 c -0.2936,0.2014 -0.6949,0.1267 -0.8963,-0.1669 -0.1591,-0.2733 -0.2889,-0.6005 -0.3128,-0.8726 v 0 c -0.0424,-0.3166 0.1798,-0.6076 0.4964,-0.65 v 0 c 0.3166,-0.0425 0.6076,0.1798 0.6501,0.4964 v 0 c 0.0424,0.3166 -0.1799,0.6076 -0.4964,0.65 v 0 c -0.3166,0.0425 -0.6077,-0.1798 -0.6501,-0.4964 -0.002,-0.2935 0.1804,-0.7027 0.4239,-0.8832 v 0 c 0.2244,-0.1721 0.5458,-0.1298 0.7179,0.0946 v 0 c 0.1722,0.2244 0.1298,0.5458 -0.0946,0.7179 -0.0246,0.0252 0.0578,-0.1173 0.0993,-0.0829 0.02,0.0558 0.0786,0.1184 0.2295,0.2968 0.3061,0.3737 0.8551,0.8804 1.5859,1.5512 1.4624,1.3416 3.5848,3.2587 5.5806,5.7408 0.8798,1.1653 1.7427,2.5039 2.5752,3.9519 1.2438,2.1724 2.4255,4.6416 3.549,7.0661 0.5478,1.1832 0.9711,2.3774 1.5236,3.5762 0.4842,1.0463 1.0596,2.521 1.5145,4.1924 0.1843,0.6821 0.3239,1.3428 0.5268,1.9548 0.7249,2.2028 1.5368,4.3846 2.2406,6.5872 0.4986,1.5738 0.9836,3.1255 1.4438,4.7328 0.6449,2.2286 1.2557,4.5129 1.9237,6.7775 0.9949,3.405 2.01,6.8371 3.0328,10.0573 0.8186,2.6084 1.6536,5.0948 2.4981,7.598 0.816,2.4029 1.6102,4.801 2.4552,7.6111 0.5523,1.8074 1.1587,3.7929 1.6639,5.8497 0.48,1.9701 0.9323,4.032 1.3408,6.1133 0.4,2.0573 0.7741,4.1348 1.0937,6.195 0.638,4.1281 1.1756,8.2097 1.8478,11.8544 0.44,2.3544 0.8721,4.5005 1.5681,6.4966 0.7038,2.0486 1.5672,3.9524 2.5507,5.859 1.9761,3.8311 4.4082,7.3965 7.3256,10.5402 5.1093,5.5364 11.1735,9.8123 14.9951,11.1401 1.0478,0.3477 1.8202,0.4747 2.4291,0.483 0.7197,0.0307 1.0116,-0.0738 1.1047,-0.1503 v 0 c 0.3355,-0.2209 0.7866,-0.1279 1.0075,0.2077 v 0 c 0.2208,0.3355 0.1279,0.7866 -0.2077,1.0075 z" /><path
           id="path72"
           style="fill:#60ba46;fill-opacity:1;fill-rule:nonzero;stroke:none"
           d="m 185.8805,643.1427 c -0.7199,0.3804 -1.8165,0.4721 -2.9237,0.1984 v 0 c -0.3906,-0.0998 -0.6263,-0.4973 -0.5265,-0.8879 v 0 c 0.0998,-0.3906 0.4973,-0.6263 0.8879,-0.5266 v 0 c 0.3906,0.0998 0.6263,0.4973 0.5265,0.8879 v 0 c -0.0997,0.3906 -0.4973,0.6264 -0.8879,0.5266 -1.0821,-0.2807 -2.3894,-0.9281 -3.688,-1.9522 v 0 c -0.3171,-0.2513 -0.3704,-0.712 -0.1191,-1.029 v 0 c 0.2513,-0.3171 0.712,-0.3704 1.0291,-0.1191 v 0 c 0.317,0.2513 0.3703,0.7121 0.119,1.0291 v 0 c -0.2513,0.317 -0.712,0.3703 -1.029,0.119 -1.6465,-1.2862 -3.3219,-3.2029 -5.0872,-5.6865 v 0 c -0.25,-0.3565 -0.1637,-0.8481 0.1928,-1.0981 v 0 c 0.3564,-0.25 0.8481,-0.1636 1.0981,0.1928 v 0 c 0.2499,0.3565 0.1636,0.8481 -0.1929,1.0981 v 0 c -0.3564,0.25 -0.8481,0.1637 -1.098,-0.1928 -1.2658,-1.7706 -2.7377,-3.8727 -3.9971,-6.4254 -0.5592,-1.1319 -1.0803,-2.3661 -1.5528,-3.5986 -0.6421,-1.6873 -1.077,-3.5032 -1.4822,-5.3722 -0.8408,-3.9609 -1.4447,-8.4058 -1.9261,-12.9027 -0.4046,-3.7117 -0.7313,-7.3986 -1.1442,-11.0018 -0.477,-4.2118 -1.1088,-8.2243 -1.8644,-12.3178 -0.6427,-3.4704 -1.4205,-7.0209 -2.3324,-10.4624 -1.0764,-4.0907 -2.3555,-7.9887 -3.6105,-11.676 -0.612,-1.8185 -1.1818,-3.5677 -1.7881,-5.2822 -0.8814,-2.4401 -1.7943,-4.8376 -2.6904,-7.0287 -0.6419,-1.5877 -1.2969,-3.0488 -1.9158,-4.4352 -0.6009,-1.3587 -1.2247,-2.5943 -1.7585,-3.7972 v 0 c -0.2539,-0.5709 0.003,-1.2396 0.574,-1.4936 v 0 c 0.571,-0.2539 1.2397,0.003 1.4936,0.5741 v 0 c 0.2539,0.5709 -0.003,1.2396 -0.574,1.4935 v 0 c -0.571,0.254 -1.2397,-0.003 -1.4936,-0.574 -0.9448,-2.139 -1.5094,-4.1446 -1.8202,-5.5028 v 0 c -0.1394,-0.6026 0.2361,-1.2042 0.8387,-1.3436 v 0 c 0.6027,-0.1394 1.2042,0.2361 1.3436,0.8387 v 0 c 0.1394,0.6027 -0.2361,1.2042 -0.8387,1.3436 v 0 c -0.6026,0.1394 -1.2042,-0.2361 -1.3436,-0.8387 -0.1912,-1.0016 -0.1761,-1.9198 0.1156,-2.6079 v 0 c 0.2111,-0.5164 0.8007,-0.7639 1.3171,-0.5529 v 0 c 0.5163,0.211 0.7639,0.8007 0.5528,1.317 v 0 c -0.211,0.5164 -0.8006,0.7639 -1.317,0.5529 v 0 c -0.5164,-0.211 -0.7639,-0.8007 -0.5529,-1.317 0.4435,-0.5847 1.1159,-0.9862 1.8851,-1.3465 v 0 c 0.2278,-0.1675 0.5483,-0.1187 0.7158,0.1091 v 0 c 0.1676,0.2278 0.1188,0.5483 -0.1091,0.7159 -0.5321,0.5969 -0.6782,0.923 -0.6219,1.2856 -0.0953,0.2592 -0.036,0.508 0.1968,1.3389 0.3031,1.2953 0.8104,3.092 1.7054,5.088 0.512,1.1485 1.1408,2.388 1.7673,3.7959 0.6115,1.3879 1.2761,2.8899 1.9263,4.5174 0.8801,2.2272 1.7822,4.676 2.6433,7.1432 0.6199,1.7385 1.1995,3.5016 1.8129,5.3087 1.2432,3.7042 2.5293,7.6801 3.6065,11.8357 0.8988,3.4925 1.6687,7.1247 2.2932,10.6336 0.7361,4.124 1.3543,8.2108 1.812,12.4674 0.3856,3.6315 0.6829,7.3262 1.0555,11.0218 0.4598,4.4728 1.0318,8.8292 1.8407,12.7231 0.3771,1.8565 0.7541,3.5489 1.3352,5.1329 0.442,1.2129 0.9128,2.3828 1.4306,3.4766 1.1677,2.4637 2.5325,4.4703 3.7624,6.2583 1.6945,2.4502 3.2004,4.2318 4.7062,5.4437 1.1844,0.9441 2.2204,1.4553 3.1395,1.6858 0.894,0.2376 1.4563,0.1921 1.8504,-0.0526 v 0 c 0.3503,-0.1966 0.7937,-0.072 0.9903,0.2783 v 0 c 0.1966,0.3504 0.072,0.7938 -0.2784,0.9904" /><path
           id="path74"
           style="fill:#60ba46;fill-opacity:1;fill-rule:nonzero;stroke:none"
           d="m 392.4181,633.7798 c -0.5619,0.417 -1.1876,0.7638 -1.8163,0.8611 v 0 c -0.3579,0.0611 -0.6976,-0.1796 -0.7587,-0.5376 v 0 c -0.061,-0.3579 0.1797,-0.6976 0.5376,-0.7587 v 0 c 0.358,-0.061 0.6977,0.1797 0.7587,0.5376 v 0 c 0.0611,0.358 -0.1796,0.6977 -0.5376,0.7587 -0.625,0.07 -1.3742,-0.1214 -2.0779,-0.5726 v 0 c -0.2768,-0.1694 -0.3639,-0.5312 -0.1945,-0.808 v 0 c 0.1694,-0.2768 0.5312,-0.3639 0.808,-0.1945 v 0 c 0.2768,0.1695 0.3638,0.5312 0.1944,0.808 v 0 c -0.1694,0.2768 -0.5311,0.3639 -0.8079,0.1945 -1.6875,-0.9859 -3.9655,-3.4507 -6.1938,-6.8434 v 0 c -0.2201,-0.3449 -0.119,-0.8029 0.2258,-1.023 v 0 c 0.3449,-0.2201 0.8029,-0.119 1.023,0.2258 v 0 c 0.2202,0.3449 0.119,0.8029 -0.2258,1.023 v 0 c -0.3449,0.2202 -0.8029,0.119 -1.023,-0.2258 -0.7334,-1.1207 -1.4552,-2.3558 -2.1512,-3.6454 -0.7199,-1.3321 -1.4617,-2.7537 -2.1072,-4.2226 -0.8365,-1.9055 -1.5148,-3.9607 -1.9967,-6.0565 -0.4673,-2.09 -0.6872,-4.2921 -0.7196,-6.4939 -0.0203,-1.7399 0.0735,-3.5519 0.2614,-5.291 0.6031,-5.4834 1.9856,-10.7664 3.249,-15.8585 0.7675,-3.0899 1.4572,-6.1882 2.173,-9.3149 0.4717,-2.0654 0.8735,-4.161 1.3572,-6.3096 0.7432,-3.3521 1.5939,-6.8626 2.6794,-10.1468 1.6578,-4.9078 3.9818,-9.175 6.6822,-13.0881 0.8834,-1.2858 1.8199,-2.5564 2.8108,-3.8236 2.0683,-2.6504 4.3928,-5.3395 6.4507,-7.8777 v 0 c 0.3876,-0.4746 1.0866,-0.5452 1.5613,-0.1577 v 0 c 0.4746,0.3876 0.5453,1.0866 0.1577,1.5612 v 0 c -0.3876,0.4747 -1.0866,0.5453 -1.5612,0.1578 v 0 c -0.4747,-0.3876 -0.5453,-1.0866 -0.1578,-1.5613 1.3981,-1.6966 2.6339,-3.3676 3.7165,-4.8322 v 0 c 0.352,-0.4817 1.0279,-0.5868 1.5095,-0.2347 v 0 c 0.4817,0.352 0.5868,1.0279 0.2347,1.5095 v 0 c -0.352,0.4817 -1.0278,0.5868 -1.5095,0.2348 v 0 c -0.4817,-0.3521 -0.5868,-1.0279 -0.2347,-1.5096 2.063,-2.7348 3.2931,-4.6958 4.3893,-5.9941 v 0 c 0.3189,-0.4002 0.9019,-0.4661 1.3021,-0.1472 v 0 c 0.4002,0.319 0.4661,0.9019 0.1472,1.3021 v 0 c -0.319,0.4002 -0.9019,0.4661 -1.3021,0.1472 v 0 c -0.4002,-0.3189 -0.4661,-0.9019 -0.1472,-1.3021 0.9098,-0.9151 1.8598,-1.5044 2.8814,-1.5924 v 0 c 0.277,-0.0568 0.5476,0.1218 0.6044,0.3988 v 0 c 0.0568,0.277 -0.1218,0.5476 -0.3988,0.6044 -0.6665,0.2581 -1.0321,0.7581 -1.6378,1.7442 -0.9243,1.2371 -2.0698,3.2559 -4.0942,6.1139 -1.0676,1.4772 -2.3239,3.2079 -3.7417,4.9609 -2.0979,2.5517 -4.4264,5.211 -6.4768,7.804 -0.9779,1.2393 -1.8803,2.4522 -2.7489,3.705 -2.6376,3.8203 -4.819,7.8177 -6.411,12.5593 -1.0944,3.1882 -1.9547,6.5894 -2.7297,9.9136 -0.4857,2.1154 -0.8967,4.2119 -1.3849,6.3096 -0.7244,3.1187 -1.4283,6.2325 -2.2115,9.3433 -1.2853,5.0999 -2.6584,10.2509 -3.26,15.5922 -0.193,1.6842 -0.2912,3.3838 -0.2809,5.0629 0.006,2.1242 0.1829,4.1398 0.6063,6.1247 0.419,2.026 1.0051,3.9391 1.77,5.7856 0.5923,1.4316 1.2753,2.8088 1.9607,4.1466 0.6569,1.2815 1.3204,2.477 2.0074,3.5811 2.0855,3.3654 4.114,5.7071 5.5585,6.6382 0.5796,0.3341 0.8805,0.3773 1.2433,0.2787 0.3591,-0.0711 0.6587,-0.2949 1.1304,-0.7022 v 0 c 0.314,-0.2505 0.7717,-0.1989 1.0222,0.1152 v 0 c 0.2504,0.3141 0.1989,0.7717 -0.1152,1.0222" /><path
           id="path76"
           style="fill:#60ba46;fill-opacity:1;fill-rule:nonzero;stroke:none"
           d="m 359.7299,635.1993 c -0.6225,0.2598 -1.4028,0.2668 -2.0452,0.0521 v 0 c -0.3364,-0.1001 -0.5279,-0.454 -0.4278,-0.7904 v 0 c 0.1001,-0.3363 0.454,-0.5279 0.7904,-0.4277 v 0 c 0.3363,0.1001 0.5279,0.4539 0.4278,0.7903 v 0 c -0.1002,0.3364 -0.454,0.5279 -0.7904,0.4278 -0.6175,-0.2215 -1.2849,-0.6545 -1.9014,-1.2054 v 0 c -0.2307,-0.192 -0.2622,-0.5347 -0.0702,-0.7655 v 0 c 0.192,-0.2308 0.5348,-0.2622 0.7656,-0.0702 v 0 c 0.2307,0.192 0.2622,0.5347 0.0702,0.7655 v 0 c -0.192,0.2308 -0.5348,0.2622 -0.7656,0.0702 -0.6588,-0.4926 -1.3552,-1.1596 -2.0394,-1.9288 v 0 c -0.2356,-0.2889 -0.1923,-0.7141 0.0966,-0.9496 v 0 c 0.2889,-0.2356 0.714,-0.1924 0.9496,0.0965 v 0 c 0.2356,0.2889 0.1924,0.7141 -0.0965,0.9497 v 0 c -0.2889,0.2356 -0.7141,0.1923 -0.9497,-0.0966 -1.6307,-1.9453 -3.2747,-4.5466 -4.9327,-8.1862 -0.4948,-1.0518 -1.0558,-2.2026 -1.5793,-3.5074 -2.0726,-5.3381 -3.3029,-12.7963 -4.4245,-20.7829 -0.4517,-3.35 -0.9143,-6.8524 -1.2588,-10.2237 -0.2699,-2.6362 -0.3468,-5.2021 -0.5224,-7.678 -0.2207,-3.0966 -0.6692,-6.0968 -0.9547,-9.0327 -0.2839,-2.9126 -0.4192,-5.77 -0.4906,-8.6592 -0.1613,-6.5026 0.2868,-13.2592 1.6633,-19.7754 0.3878,-1.8386 0.8883,-3.6828 1.4143,-5.4248 0.6853,-2.2333 1.4645,-4.3647 2.3204,-6.3746 2.428,-5.6503 5.7357,-10.7102 8.7553,-14.81 1.5941,-2.1776 3.0345,-4.1445 4.4116,-5.9009 v 0 c 0.3551,-0.4541 1.0112,-0.5342 1.4652,-0.179 v 0 c 0.4541,0.3551 0.5342,1.0112 0.1791,1.4652 v 0 c -0.3552,0.4541 -1.0112,0.5342 -1.4653,0.1791 v 0 c -0.4541,-0.3552 -0.5342,-1.0112 -0.179,-1.4653 0.6511,-0.8381 1.2963,-1.6572 1.9906,-2.4491 v 0 c 0.3855,-0.4364 1.0518,-0.4777 1.4882,-0.0922 v 0 c 0.4364,0.3855 0.4777,1.0518 0.0922,1.4882 v 0 c -0.3855,0.4364 -1.0517,0.4777 -1.4882,0.0922 v 0 c -0.4364,-0.3855 -0.4777,-1.0518 -0.0922,-1.4882 1.5002,-1.7077 3.2572,-3.3442 4.9073,-4.6559 v 0 c 0.467,-0.3682 1.144,-0.2882 1.5122,0.1788 v 0 c 0.3682,0.467 0.2881,1.144 -0.1789,1.5122 v 0 c -0.4669,0.3682 -1.144,0.2881 -1.5122,-0.1788 v 0 c -0.3682,-0.467 -0.2881,-1.144 0.1789,-1.5122 5.4448,-4.0342 8.7602,-4.1798 11.267,-7.3727 v 0 c 0.1666,-0.2284 0.4869,-0.2785 0.7154,-0.1119 v 0 c 0.2285,0.1667 0.2786,0.487 0.1119,0.7155 -2.5654,3.7601 -5.8251,4.3091 -10.7609,8.4601 -1.5906,1.2435 -3.2232,2.7429 -4.6602,4.3608 -0.6633,0.7451 -1.2742,1.5109 -1.9269,2.3395 -1.351,1.7311 -2.7676,3.6747 -4.3574,5.8553 -2.9503,4.0722 -6.0963,8.9434 -8.4059,14.4397 -0.8302,1.9568 -1.5657,3.9788 -2.2299,6.1581 -0.5289,1.7077 -1.0172,3.4576 -1.4031,5.2313 -1.3809,6.3567 -1.8409,12.8628 -1.7118,19.2677 0.0581,2.8663 0.1766,5.6479 0.4436,8.5106 0.2696,2.8832 0.7113,5.9127 0.9287,9.0869 0.1732,2.5181 0.2432,5.0511 0.5021,7.6155 0.3382,3.3414 0.7939,6.8126 1.2423,10.1603 1.0239,7.9783 2.1241,15.271 4.0431,20.4388 0.455,1.2703 0.9501,2.3972 1.4041,3.482 1.5538,3.5917 3.0323,6.0604 4.5444,7.9703 0.5865,0.7892 1.1402,1.4344 1.6885,1.9461 0.5906,0.4534 1.0873,0.7175 1.5686,0.823 0.4563,0.1123 0.7094,0.0772 1.0325,-0.1354 v 0 c 0.3594,-0.1795 0.7962,-0.0337 0.9758,0.3256 v 0 c 0.1795,0.3594 0.0337,0.7963 -0.3257,0.9758 z" /><path
           id="path78"
           style="fill:#006fff;fill-opacity:1;fill-rule:nonzero;stroke:none"
           d="m 150.3644,614.265 c 0.0888,0.1726 0.0927,0.1833 0.2151,0.224 v 0 c 0.3672,0.1413 0.5503,0.5536 0.409,0.9208 v 0 c -0.1413,0.3672 -0.5536,0.5503 -0.9208,0.4089 v 0 c -0.3672,-0.1413 -0.5503,-0.5535 -0.4089,-0.9207 v 0 c 0.1413,-0.3672 0.5535,-0.5503 0.9207,-0.409 0.1226,0.063 0.2209,0.0694 0.4868,0.0304 v 0 c 0.3808,-0.0585 0.7368,0.2027 0.7954,0.5834 v 0 c 0.0585,0.3807 -0.2026,0.7368 -0.5833,0.7953 v 0 c -0.3808,0.0586 -0.7369,-0.2026 -0.7954,-0.5833 v 0 c -0.0586,-0.3807 0.2026,-0.7368 0.5833,-0.7954 0.5651,-0.0695 1.3385,-0.3905 2.4173,-0.9108 v 0 c 0.3307,-0.1629 0.7308,-0.0268 0.8937,0.3039 v 0 c 0.1629,0.3308 0.0268,0.7309 -0.3039,0.8938 v 0 c -0.3308,0.1628 -0.7309,0.0268 -0.8938,-0.304 v 0 c -0.1629,-0.3307 -0.0268,-0.7309 0.304,-0.8937 1.9845,-0.9913 4.6048,-2.4532 8.0138,-3.6798 2.9442,-1.05 6.7683,-1.7399 10.4911,-2.4443 4.6871,-0.887 9.6428,-2.1191 14.9851,-2.7002 4.1893,-0.4528 8.6967,-0.4333 13.2532,-0.3698 3.9949,0.0469 7.9518,0.1002 12.2419,0.2274 4.2829,0.1379 9.1458,0.4563 13.9119,0.8123 5.6247,0.4187 11.0855,0.7889 16.8451,1.1593 1.9052,0.1243 3.8368,0.2445 5.8485,0.3999 2.0833,0.1632 4.2435,0.384 6.3659,0.5903 7.7241,0.7426 14.3523,1.099 21.0131,1.2146 3.6085,0.0578 7.2875,0.0846 10.9573,0.0606 5.8779,-0.0334 11.178,-0.461 17.0832,-1.2952 9.9584,-1.3965 21.8914,-3.3154 34.5035,-4.8837 10.2899,-1.2791 21.0253,-2.9699 32.3549,-4.109 2.5019,-0.2491 5.0051,-0.4362 7.542,-0.6188 5.8476,-0.4292 12.0108,-0.7136 18.0621,-0.9024 2.7001,-0.0847 5.3543,-0.1491 7.9623,-0.2089 3.3019,-0.0755 6.5365,-0.1419 9.6088,-0.1988 2.478,-0.0451 4.8427,-0.072 7.0104,-0.1199 1.5638,-0.0344 3.0278,-0.0986 4.4545,-0.1519 3.945,-0.1267 7.5332,-0.1352 10.2216,-0.2537 1.5764,-0.0357 2.8058,-0.0263 3.4434,-0.206 v 0 c 0.3388,-0.1144 0.7063,0.0675 0.8207,0.4064 v 0 c 0.1144,0.3388 -0.0675,0.7063 -0.4064,0.8207 v 0 c -0.3388,0.1144 -0.7063,-0.0676 -0.8207,-0.4064 v 0 c -0.1144,-0.3389 0.0675,-0.7063 0.4064,-0.8207 0.1524,-0.038 0.2102,-0.0525 0.27,-0.0927 v 0 c 0.2621,-0.2149 0.6488,-0.1766 0.8636,0.0855 v 0 c 0.2149,0.2621 0.1766,0.6488 -0.0855,0.8637 v 0 c -0.2621,0.2148 -0.6487,0.1766 -0.8636,-0.0855 v 0 c -0.2149,-0.2621 -0.1766,-0.6488 0.0855,-0.8637 0.0601,-0.0273 0.0359,0.0333 0.0446,0.005 v 0 c 0.075,-0.3113 0.3881,-0.5029 0.6994,-0.428 v 0 c 0.3113,0.075 0.503,0.3881 0.428,0.6994 v 0 c -0.0749,0.3113 -0.388,0.503 -0.6994,0.428 v 0 c -0.3113,-0.0749 -0.5029,-0.388 -0.428,-0.6994 0.071,-0.0831 0.0445,-0.2206 -0.2218,-0.6394 v 0 c -0.1607,-0.2327 -0.1024,-0.5516 0.1303,-0.7123 v 0 c 0.2326,-0.1608 0.5516,-0.1025 0.7123,0.1302 0.3682,0.4995 0.5613,1.0524 0.5067,1.4925 -0.0542,0.2333 -0.2274,0.5144 -0.394,0.673 -0.1668,0.1456 -0.4132,0.283 -0.6344,0.3708 -0.8539,0.3238 -2.2176,0.4175 -3.7768,0.5428 -2.7262,0.159 -6.3189,0.2067 -10.2395,0.3716 -1.4212,0.0523 -2.8988,0.1162 -4.4802,0.1503 -2.177,0.047 -4.5444,0.073 -7.0169,0.1171 -3.0705,0.0538 -6.3016,0.117 -9.6016,0.1894 -2.6068,0.0574 -5.254,0.1194 -7.9484,0.2015 -6.039,0.1845 -12.1683,0.4634 -17.9931,0.8872 -2.5342,0.1883 -5.0141,0.3795 -7.495,0.6325 -11.2829,1.1428 -21.9958,2.8397 -32.3124,4.1315 -12.5814,1.5741 -24.4974,3.5005 -34.473,4.9095 -5.9544,0.834 -11.3758,1.2645 -17.3146,1.293 -3.6816,0.0141 -7.3795,-0.0227 -10.9953,-0.0905 -6.6913,-0.1165 -13.3878,-0.4769 -21.1443,-1.2226 -2.1271,-0.2025 -4.2724,-0.4177 -6.3356,-0.5749 -1.9993,-0.1543 -3.9206,-0.2736 -5.8284,-0.3979 -5.7618,-0.3811 -11.2304,-0.7625 -16.8597,-1.192 -4.758,-0.3616 -9.5875,-0.6841 -13.8413,-0.827 -4.277,-0.1552 -8.2187,-0.2366 -12.2118,-0.3119 -4.5493,-0.077 -8.9666,-0.1119 -13.0689,0.3206 -5.2464,0.5487 -10.1447,1.7504 -14.8776,2.6275 -3.7319,0.6913 -7.4628,1.346 -10.2864,2.3441 -3.3218,1.1643 -5.8678,2.5616 -7.8968,3.5466 -1.0997,0.5524 -2.0389,0.9582 -2.7949,1.0918 -0.3947,0.0627 -0.859,0.0402 -1.2107,-0.0794 -0.3517,-0.1418 -0.7335,-0.4672 -0.9511,-0.8058 v 0 c -0.2065,-0.3446 -0.0946,-0.7913 0.2499,-0.9979 v 0 c 0.3446,-0.2065 0.7914,-0.0946 0.9979,0.25 z" /><path
           id="path80"
           style="fill:#006fff;fill-opacity:1;fill-rule:nonzero;stroke:none"
           d="m 145.4416,540.0758 c 0.2774,0.2369 0.5678,0.4308 0.9512,0.6144 v 0 c 0.2817,0.0857 0.4405,0.3835 0.3548,0.6651 v 0 c -0.0857,0.2816 -0.3835,0.4405 -0.6652,0.3548 v 0 c -0.2816,-0.0857 -0.4404,-0.3835 -0.3547,-0.6652 v 0 c 0.0857,-0.2816 0.3835,-0.4405 0.6651,-0.3547 1.5427,0.4268 3.7605,0.4214 7.367,0.2735 v 0 c 0.3756,-0.0103 0.6883,0.2858 0.6986,0.6613 v 0 c 0.0103,0.3755 -0.2858,0.6882 -0.6613,0.6985 v 0 c -0.3755,0.0103 -0.6883,-0.2858 -0.6986,-0.6613 v 0 c -0.0102,-0.3755 0.2858,-0.6882 0.6613,-0.6985 4.3159,-0.1381 10.8179,-0.088 17.7522,0.1014 v 0 c 0.4089,0.0124 0.7304,0.3539 0.718,0.7628 v 0 c -0.0123,0.4088 -0.3538,0.7303 -0.7627,0.7179 v 0 c -0.4089,-0.0123 -0.7304,-0.3538 -0.718,-0.7627 v 0 c 0.0124,-0.4089 0.3539,-0.7304 0.7627,-0.718 13.9539,0.4092 26.432,-1.4631 38.3707,-2.2446 9.3357,-0.5977 18.1347,-1.3179 26.9816,-2.183 6.8145,-0.6678 14.5413,-1.4043 23.0313,-1.89 8.6136,-0.4865 17.5105,-2.0575 27.006,-3.0023 8.1075,-0.813 15.8047,-1.5394 23.8645,-2.3577 8.4715,-0.8618 18.199,-1.2965 27.8076,-2.053 8.7622,-0.6861 16.9023,-2.0606 24.2391,-3.1678 10.1639,-1.5382 18.4772,-2.9802 23.8712,-4.2762 4.707,-1.1172 7.8613,-2.4249 10.0797,-3.4679 1.1999,-0.5626 2.4203,-0.9636 3.5292,-1.3501 0.5811,-0.1921 1.163,-0.3505 1.697,-0.5213 v 0 c 0.3931,-0.1341 0.8204,0.0758 0.9545,0.4689 v 0 c 0.134,0.393 -0.0759,0.8203 -0.4689,0.9544 v 0 c -0.3931,0.1341 -0.8204,-0.0758 -0.9545,-0.4689 v 0 c -0.1341,-0.393 0.0759,-0.8204 0.4689,-0.9544 0.6178,-0.1688 1.1025,-0.259 1.3361,-0.4738 v 0 c 0.2456,-0.2481 0.6458,-0.25 0.8938,-0.005 v 0 c 0.248,0.2456 0.25,0.6458 0.004,0.8938 v 0 c -0.2455,0.248 -0.6457,0.25 -0.8937,0.004 v 0 c -0.2481,-0.2455 -0.25,-0.6457 -0.004,-0.8937 0.1302,-0.093 0.1672,-0.1063 0.1906,-0.284 v 0 c 0.024,-0.315 0.2989,-0.5508 0.6139,-0.5268 v 0 c 0.315,0.0241 0.5508,0.2989 0.5268,0.6139 v 0 c -0.0241,0.315 -0.2989,0.5509 -0.6139,0.5268 v 0 c -0.315,-0.024 -0.5509,-0.2989 -0.5268,-0.6139 0.0418,-0.2023 0.0167,-0.4314 -0.1414,-0.8396 v 0 c -0.1127,-0.2594 0.006,-0.561 0.2656,-0.6737 v 0 c 0.2594,-0.1127 0.561,0.006 0.6737,0.2655 0.2292,0.4829 0.3448,0.9624 0.3428,1.3349 -0.0205,0.3972 -0.212,0.8249 -0.4334,1.0865 -0.4684,0.4942 -1.1771,0.77 -1.7481,1.0074 -0.5606,0.2025 -1.1291,0.3795 -1.6632,0.5788 -1.1217,0.3965 -2.2617,0.7735 -3.3714,1.3026 -2.2548,1.0712 -5.5741,2.4518 -10.3814,3.6074 -5.4568,1.2972 -13.8305,2.7375 -24.0115,4.2658 -7.3228,1.1028 -15.522,2.4834 -24.3519,3.174 -9.6358,0.7498 -19.349,1.1749 -27.7744,2.0243 -8.0656,0.8144 -15.7642,1.5366 -23.8677,2.3448 -9.438,0.9481 -18.3629,2.5327 -27.0693,3.0373 -8.4619,0.4839 -16.1558,1.2175 -22.9681,1.8851 -8.859,0.8691 -17.6844,1.5943 -27.0335,2.1957 -11.8746,0.7455 -24.4357,2.5938 -38.5161,2.1556 -6.9197,-0.2293 -13.3854,-0.3195 -17.6702,-0.2223 -3.6332,0.0503 -6.0212,-0.0533 -7.715,-0.6135 -0.4792,-0.079 -0.9544,-0.2113 -1.3691,-0.375 v 0 c -0.3477,-0.2012 -0.4665,-0.6462 -0.2653,-0.9939 v 0 c 0.2012,-0.3477 0.6462,-0.4665 0.9939,-0.2653 z" /></g></g></g></svg>