<?xml version="1.0" encoding="UTF-8" standalone="no"?>
<svg
   xmlns:dc="http://purl.org/dc/elements/1.1/"
   xmlns:cc="http://creativecommons.org/ns#"
   xmlns:rdf="http://www.w3.org/1999/02/22-rdf-syntax-ns#"
   xmlns:svg="http://www.w3.org/2000/svg"
   xmlns="http://www.w3.org/2000/svg"
   viewBox="0 0 250.98453 684.58429"
   height="684.58429"
   width="250.98453"
   xml:space="preserve"
   id="svg2"
   version="1.1"><metadata
     id="metadata8"><rdf:RDF><cc:Work
         rdf:about=""><dc:format>image/svg+xml</dc:format><dc:type
           rdf:resource="http://purl.org/dc/dcmitype/StillImage" /></cc:Work></rdf:RDF></metadata><defs
     id="defs6"><clipPath
       id="clipPath14"
       clipPathUnits="userSpaceOnUse"><path
         id="path12"
         d="M 0,0 H 612 V 792 H 0 Z" /></clipPath><clipPath
       id="clipPath24"
       clipPathUnits="userSpaceOnUse"><path
         id="path22"
         d="M 0,0 H 612 V 792 H 0 Z" /></clipPath><clipPath
       id="clipPath70"
       clipPathUnits="userSpaceOnUse"><path
         id="path68"
         d="m 59.14286,72 h 493.7143 V 720 H 59.14286 Z" /></clipPath><clipPath
       id="clipPath100"
       clipPathUnits="userSpaceOnUse"><path
         id="path98"
         d="M 0,0 H 612 V 792 H 0 Z" /></clipPath><clipPath
       id="clipPath110"
       clipPathUnits="userSpaceOnUse"><path
         id="path108"
         d="m 59.14286,72 h 493.7143 V 720 H 59.14286 Z" /></clipPath><clipPath
       id="clipPath120"
       clipPathUnits="userSpaceOnUse"><path
         id="path118"
         d="M 0,0 H 612 V 792 H 0 Z" /></clipPath><clipPath
       id="clipPath130"
       clipPathUnits="userSpaceOnUse"><path
         id="path128"
         d="m 59.14286,72 h 493.7143 V 720 H 59.14286 Z" /></clipPath><clipPath
       id="clipPath140"
       clipPathUnits="userSpaceOnUse"><path
         id="path138"
         d="M 0,0 H 612 V 792 H 0 Z" /></clipPath><clipPath
       id="clipPath150"
       clipPathUnits="userSpaceOnUse"><path
         id="path148"
         d="m 59.14286,72 h 493.7143 V 720 H 59.14286 Z" /></clipPath><clipPath
       id="clipPath186"
       clipPathUnits="userSpaceOnUse"><path
         id="path184"
         d="M 0,0 H 612 V 792 H 0 Z" /></clipPath><clipPath
       id="clipPath196"
       clipPathUnits="userSpaceOnUse"><path
         id="path194"
         d="m 59.14286,72 h 493.7143 V 720 H 59.14286 Z" /></clipPath><clipPath
       id="clipPath206"
       clipPathUnits="userSpaceOnUse"><path
         id="path204"
         d="M 0,0 H 612 V 792 H 0 Z" /></clipPath><clipPath
       id="clipPath216"
       clipPathUnits="userSpaceOnUse"><path
         id="path214"
         d="m 59.14286,72 h 493.7143 V 720 H 59.14286 Z" /></clipPath><clipPath
       id="clipPath226"
       clipPathUnits="userSpaceOnUse"><path
         id="path224"
         d="M 0,0 H 612 V 792 H 0 Z" /></clipPath><clipPath
       id="clipPath236"
       clipPathUnits="userSpaceOnUse"><path
         id="path234"
         d="m 59.14286,72 h 493.7143 V 720 H 59.14286 Z" /></clipPath><clipPath
       id="clipPath268"
       clipPathUnits="userSpaceOnUse"><path
         id="path266"
         d="M 0,0 H 612 V 792 H 0 Z" /></clipPath><clipPath
       id="clipPath278"
       clipPathUnits="userSpaceOnUse"><path
         id="path276"
         d="m 59.14286,72 h 493.7143 V 720 H 59.14286 Z" /></clipPath><clipPath
       id="clipPath288"
       clipPathUnits="userSpaceOnUse"><path
         id="path286"
         d="M 0,0 H 612 V 792 H 0 Z" /></clipPath><clipPath
       id="clipPath298"
       clipPathUnits="userSpaceOnUse"><path
         id="path296"
         d="m 59.14286,72 h 493.7143 V 720 H 59.14286 Z" /></clipPath><clipPath
       id="clipPath308"
       clipPathUnits="userSpaceOnUse"><path
         id="path306"
         d="M 0,0 H 612 V 792 H 0 Z" /></clipPath><clipPath
       id="clipPath318"
       clipPathUnits="userSpaceOnUse"><path
         id="path316"
         d="m 59.14286,72 h 493.7143 V 720 H 59.14286 Z" /></clipPath><clipPath
       id="clipPath334"
       clipPathUnits="userSpaceOnUse"><path
         id="path332"
         d="M 0,0 H 612 V 792 H 0 Z" /></clipPath><clipPath
       id="clipPath344"
       clipPathUnits="userSpaceOnUse"><path
         id="path342"
         d="m 59.14286,72 h 493.7143 V 720 H 59.14286 Z" /></clipPath><clipPath
       id="clipPath354"
       clipPathUnits="userSpaceOnUse"><path
         id="path352"
         d="M 0,0 H 612 V 792 H 0 Z" /></clipPath></defs><g
     clip-path="url(#clipPath14)"
     transform="matrix(1.3333333,0,0,-1.3333333,-160.85733,947.32133)"
     id="g10"><g
       id="g16" /><g
       id="g18"><g
         clip-path="url(#clipPath24)"
         id="g20"><g
           transform="matrix(0.8456908,0,0,0.8456908,72,720)"
           id="g26" /><g
           transform="matrix(0.8456908,0,0,0.8456908,72,720)"
           id="g28"><text
             id="text32"
             style="font-variant:normal;font-weight:normal;font-size:26px;writing-mode:lr-tb;fill:#000000;fill-opacity:0;fill-rule:nonzero;stroke:none"
             transform="matrix(1,0,0,-1,87.4382,-200.6717)"><tspan
               id="tspan30"
               y="0"
               x="0">A</tspan></text>
</g><g
           transform="matrix(0.8456908,0,0,0.8456908,72,720)"
           id="g34"><text
             id="text38"
             style="font-variant:normal;font-weight:normal;font-size:27px;writing-mode:lr-tb;fill:#000000;fill-opacity:0;fill-rule:nonzero;stroke:none"
             transform="matrix(1,0,0,-1,225.0649,-200.4207)"><tspan
               id="tspan36"
               y="0"
               x="0">B</tspan></text>
</g><g
           transform="matrix(0.8456908,0,0,0.8456908,72,720)"
           id="g40"><text
             id="text44"
             style="font-variant:normal;font-weight:normal;font-size:26px;writing-mode:lr-tb;fill:#000000;fill-opacity:0;fill-rule:nonzero;stroke:none"
             transform="matrix(1,0,0,-1,87.4382,-410.7068)"><tspan
               id="tspan42"
               y="0"
               x="0">A</tspan></text>
</g><g
           transform="matrix(0.8456908,0,0,0.8456908,72,720)"
           id="g46"><text
             id="text50"
             style="font-variant:normal;font-weight:normal;font-size:27px;writing-mode:lr-tb;fill:#000000;fill-opacity:0;fill-rule:nonzero;stroke:none"
             transform="matrix(1,0,0,-1,225.0649,-410.4597)"><tspan
               id="tspan48"
               y="0"
               x="0">B</tspan></text>
</g><g
           transform="matrix(0.8456908,0,0,0.8456908,72,720)"
           id="g52"><text
             id="text56"
             style="font-variant:normal;font-weight:normal;font-size:26px;writing-mode:lr-tb;fill:#000000;fill-opacity:0;fill-rule:nonzero;stroke:none"
             transform="matrix(1,0,0,-1,87.4382,-619.0818)"><tspan
               id="tspan54"
               y="0"
               x="0">A</tspan></text>
</g><g
           transform="matrix(0.8456908,0,0,0.8456908,72,720)"
           id="g58"><text
             id="text62"
             style="font-variant:normal;font-weight:normal;font-size:27px;writing-mode:lr-tb;fill:#000000;fill-opacity:0;fill-rule:nonzero;stroke:none"
             transform="matrix(1,0,0,-1,225.0649,-618.9597)"><tspan
               id="tspan60"
               y="0"
               x="0">B</tspan></text>
</g></g></g><g
       id="g64"><g
         clip-path="url(#clipPath70)"
         id="g66"><path
           id="path72"
           style="fill:#000000;fill-opacity:1;fill-rule:nonzero;stroke:none"
           d="m 156.9179,701.9932 c 8.8954,-0.1265 16.9758,-6.5433 22.9094,-17.1545 6.2157,-11.1159 10.0741,-26.8075 10.0741,-44.2337 0,-0.5604 -0.004,-1.1227 -0.012,-1.6867 -0.397,-27.9107 -10.5958,-51.2912 -24.1394,-59.1818 -3.3595,-1.9573 -6.9276,-2.9821 -10.6129,-2.9297 -8.8954,0.1265 -16.9758,6.5433 -22.9094,17.1545 -6.2157,11.1159 -10.0741,26.8075 -10.0741,44.2337 0,0.5604 0.004,1.1227 0.012,1.6867 0.397,27.9107 10.5958,51.2912 24.1394,59.1818 3.3595,1.9573 6.9276,2.9821 10.6129,2.9297 m -0.0274,-1.9284 c -3.341,0.0475 -6.5713,-0.8946 -9.6147,-2.6677 -13.1676,-7.6715 -22.7978,-30.5427 -23.1818,-57.5428 -0.008,-0.5548 -0.0119,-1.108 -0.0119,-1.6593 0,-17.0494 3.7454,-32.4131 9.8289,-43.2924 5.5056,-9.8459 12.9261,-16.049 21.2535,-16.1674 3.341,-0.0475 6.5713,0.8946 9.6147,2.6677 13.1676,7.6715 22.7978,30.5427 23.1818,57.5428 0.008,0.5548 0.0119,1.108 0.0119,1.6593 0,17.0494 -3.7454,32.4131 -9.8289,43.2924 -5.5056,9.8459 -12.9261,16.049 -21.2535,16.1674" /><path
           id="path74"
           style="fill:#000000;fill-opacity:1;fill-rule:nonzero;stroke:none"
           d="m 274.3936,709.5212 c 8.8953,-0.1265 16.9758,-6.5433 22.9093,-17.1545 6.2158,-11.1159 10.0742,-26.8074 10.0742,-44.2337 0,-0.5604 -0.004,-1.1227 -0.012,-1.6867 -0.397,-27.9107 -10.5958,-51.2912 -24.1394,-59.1818 -3.3595,-1.9573 -6.9277,-2.9821 -10.6129,-2.9297 -8.8954,0.1265 -16.9759,6.5433 -22.9094,17.1545 -6.2158,11.1159 -10.0742,26.8075 -10.0742,44.2337 0,0.5605 0.004,1.1227 0.012,1.6867 0.3971,27.9107 10.5958,51.2912 24.1394,59.1818 3.3595,1.9573 6.9277,2.9821 10.613,2.9297 m -0.0275,-1.9284 c -3.341,0.0475 -6.5712,-0.8945 -9.6146,-2.6677 -13.1676,-7.6715 -22.7978,-30.5427 -23.1819,-57.5428 -0.008,-0.5548 -0.0118,-1.108 -0.0118,-1.6593 0,-17.0494 3.7454,-32.4131 9.8289,-43.2924 5.5056,-9.8459 12.926,-16.049 21.2535,-16.1674 3.341,-0.0475 6.5712,0.8946 9.6146,2.6677 13.1676,7.6715 22.7978,30.5427 23.1819,57.5429 0.008,0.5547 0.0118,1.1079 0.0118,1.6592 0,17.0494 -3.7453,32.4131 -9.8288,43.2924 -5.5056,9.8459 -12.9261,16.049 -21.2536,16.1674" /><path
           id="path76"
           style="fill:#ed3624;fill-opacity:1;fill-rule:nonzero;stroke:none"
           d="m 164.5198,676.6264 c 0,-3.13 -1.6932,-5.8646 -4.2139,-7.3373 -1.2564,-0.734 -2.7182,-1.155 -4.2784,-1.155 -3.1299,0 -5.8646,1.6931 -7.3373,4.2139 -0.734,1.2564 -1.155,2.7182 -1.155,4.2784 0,3.1299 1.6932,5.8646 4.2139,7.3372 1.2564,0.734 2.7182,1.1551 4.2784,1.1551 3.1299,0 5.8646,-1.6932 7.3373,-4.214 0.734,-1.2564 1.155,-2.7182 1.155,-4.2783 m -1.9286,0 c 0,1.2053 -0.3246,2.3348 -0.8917,3.3055 -1.1384,1.9487 -3.2522,3.2582 -5.672,3.2582 -1.2053,0 -2.3348,-0.3246 -3.3055,-0.8917 -1.9487,-1.1384 -3.2582,-3.2522 -3.2582,-5.672 0,-1.2053 0.3245,-2.3348 0.8917,-3.3055 1.1384,-1.9487 3.2522,-3.2582 5.672,-3.2582 1.2053,0 2.3348,0.3245 3.3055,0.8916 1.9487,1.1385 3.2582,3.2523 3.2582,5.6721" /><path
           id="path78"
           style="fill:#ed3624;fill-opacity:1;fill-rule:nonzero;stroke:none"
           d="m 153.5681,639.4 c 0,-3.1299 -1.6932,-5.8646 -4.2139,-7.3373 -1.2564,-0.734 -2.7182,-1.155 -4.2784,-1.155 -3.1299,0 -5.8646,1.6932 -7.3373,4.2139 -0.734,1.2564 -1.155,2.7182 -1.155,4.2784 0,3.1299 1.6932,5.8646 4.2139,7.3373 1.2564,0.734 2.7182,1.155 4.2784,1.155 3.1299,0 5.8646,-1.6932 7.3373,-4.2139 0.734,-1.2564 1.155,-2.7182 1.155,-4.2784 m -1.9286,0 c 0,1.2053 -0.3245,2.3348 -0.8917,3.3055 -1.1384,1.9487 -3.2522,3.2582 -5.672,3.2582 -1.2053,0 -2.3348,-0.3245 -3.3055,-0.8917 -1.9487,-1.1384 -3.2582,-3.2522 -3.2582,-5.672 0,-1.2053 0.3246,-2.3348 0.8917,-3.3055 1.1384,-1.9487 3.2522,-3.2582 5.672,-3.2582 1.2053,0 2.3348,0.3246 3.3055,0.8917 1.9487,1.1384 3.2582,3.2522 3.2582,5.672" /><path
           id="path80"
           style="fill:#ed3624;fill-opacity:1;fill-rule:nonzero;stroke:none"
           d="m 172.0478,608.592 c 0,-3.1299 -1.6932,-5.8646 -4.2139,-7.3372 -1.2564,-0.7341 -2.7182,-1.1551 -4.2784,-1.1551 -3.1299,0 -5.8646,1.6932 -7.3373,4.2139 -0.734,1.2565 -1.155,2.7182 -1.155,4.2784 0,3.13 1.6932,5.8646 4.2139,7.3373 1.2564,0.734 2.7182,1.155 4.2784,1.155 3.1299,0 5.8646,-1.6932 7.3373,-4.2139 0.734,-1.2564 1.155,-2.7182 1.155,-4.2784 m -1.9286,0 c 0,1.2053 -0.3245,2.3348 -0.8917,3.3055 -1.1384,1.9487 -3.2522,3.2582 -5.672,3.2582 -1.2053,0 -2.3348,-0.3245 -3.3055,-0.8916 -1.9487,-1.1385 -3.2582,-3.2523 -3.2582,-5.6721 0,-1.2053 0.3246,-2.3348 0.8917,-3.3055 1.1384,-1.9487 3.2522,-3.2582 5.672,-3.2582 1.2053,0 2.3348,0.3246 3.3055,0.8917 1.9487,1.1384 3.2582,3.2522 3.2582,5.672" /><path
           id="path82"
           style="fill:#622d90;fill-opacity:1;fill-rule:nonzero;stroke:none"
           d="m 274.4674,691.6824 c 0,-3.1299 -1.6931,-5.8646 -4.2139,-7.3373 -1.2564,-0.734 -2.7182,-1.155 -4.2783,-1.155 -3.13,0 -5.8646,1.6932 -7.3373,4.2139 -0.734,1.2564 -1.155,2.7182 -1.155,4.2784 0,3.1299 1.6931,5.8646 4.2139,7.3372 1.2564,0.7341 2.7182,1.1551 4.2784,1.1551 3.1299,0 5.8645,-1.6932 7.3372,-4.2139 0.734,-1.2565 1.155,-2.7182 1.155,-4.2784 m -1.9285,0 c 0,1.2053 -0.3246,2.3348 -0.8917,3.3055 -1.1384,1.9487 -3.2522,3.2582 -5.672,3.2582 -1.2053,0 -2.3348,-0.3246 -3.3056,-0.8917 -1.9486,-1.1384 -3.2582,-3.2522 -3.2582,-5.672 0,-1.2053 0.3246,-2.3348 0.8917,-3.3055 1.1385,-1.9487 3.2522,-3.2582 5.6721,-3.2582 1.2052,0 2.3348,0.3245 3.3055,0.8916 1.9486,1.1385 3.2582,3.2523 3.2582,5.6721" /><path
           id="path84"
           style="fill:#622d90;fill-opacity:1;fill-rule:nonzero;stroke:none"
           d="m 263.5158,654.456 c 0,-3.1299 -1.6932,-5.8646 -4.214,-7.3372 -1.2564,-0.7341 -2.7182,-1.1551 -4.2783,-1.1551 -3.13,0 -5.8646,1.6932 -7.3373,4.2139 -0.734,1.2564 -1.155,2.7182 -1.155,4.2784 0,3.1299 1.6931,5.8646 4.2139,7.3373 1.2564,0.734 2.7182,1.155 4.2784,1.155 3.1299,0 5.8645,-1.6932 7.3372,-4.2139 0.734,-1.2564 1.1551,-2.7182 1.1551,-4.2784 m -1.9286,0 c 0,1.2053 -0.3246,2.3348 -0.8917,3.3055 -1.1384,1.9487 -3.2522,3.2582 -5.672,3.2582 -1.2053,0 -2.3348,-0.3245 -3.3056,-0.8916 -1.9486,-1.1385 -3.2582,-3.2523 -3.2582,-5.6721 0,-1.2053 0.3246,-2.3348 0.8917,-3.3055 1.1385,-1.9487 3.2522,-3.2582 5.6721,-3.2582 1.2052,0 2.3348,0.3246 3.3055,0.8917 1.9486,1.1384 3.2582,3.2522 3.2582,5.672" /><path
           id="path86"
           style="fill:#622d90;fill-opacity:1;fill-rule:nonzero;stroke:none"
           d="m 292.9472,661.984 c 0,-3.1299 -1.6932,-5.8646 -4.214,-7.3372 -1.2564,-0.7341 -2.7182,-1.1551 -4.2783,-1.1551 -3.13,0 -5.8646,1.6932 -7.3373,4.2139 -0.734,1.2565 -1.155,2.7182 -1.155,4.2784 0,3.13 1.6931,5.8646 4.2139,7.3373 1.2564,0.734 2.7182,1.155 4.2784,1.155 3.1299,0 5.8645,-1.6932 7.3372,-4.2139 0.734,-1.2564 1.1551,-2.7182 1.1551,-4.2784 m -1.9286,0 c 0,1.2053 -0.3246,2.3348 -0.8917,3.3055 -1.1384,1.9487 -3.2522,3.2582 -5.672,3.2582 -1.2053,0 -2.3348,-0.3245 -3.3056,-0.8916 -1.9486,-1.1385 -3.2582,-3.2523 -3.2582,-5.6721 0,-1.2053 0.3246,-2.3348 0.8917,-3.3055 1.1385,-1.9487 3.2522,-3.2582 5.6721,-3.2582 1.2052,0 2.3348,0.3246 3.3055,0.8917 1.9486,1.1384 3.2582,3.2522 3.2582,5.672" /><path
           id="path88"
           style="fill:#622d90;fill-opacity:1;fill-rule:nonzero;stroke:none"
           d="m 274.4674,608.4522 c 0,-3.1299 -1.6931,-5.8646 -4.2139,-7.3372 -1.2564,-0.7341 -2.7182,-1.1551 -4.2783,-1.1551 -3.13,0 -5.8646,1.6932 -7.3373,4.2139 -0.734,1.2564 -1.155,2.7182 -1.155,4.2784 0,3.1299 1.6931,5.8646 4.2139,7.3373 1.2564,0.734 2.7182,1.155 4.2784,1.155 3.1299,0 5.8645,-1.6932 7.3372,-4.2139 0.734,-1.2564 1.155,-2.7182 1.155,-4.2784 m -1.9285,0 c 0,1.2053 -0.3246,2.3348 -0.8917,3.3055 -1.1384,1.9487 -3.2522,3.2582 -5.672,3.2582 -1.2053,0 -2.3348,-0.3245 -3.3056,-0.8916 -1.9486,-1.1385 -3.2582,-3.2523 -3.2582,-5.6721 0,-1.2053 0.3246,-2.3348 0.8917,-3.3055 1.1385,-1.9487 3.2522,-3.2582 5.6721,-3.2582 1.2052,0 2.3348,0.3246 3.3055,0.8917 1.9486,1.1384 3.2582,3.2522 3.2582,5.672" /><path
           id="path90"
           style="fill:#622d90;fill-opacity:1;fill-rule:nonzero;stroke:none"
           d="m 300.4752,619.3791 c 0,-3.13 -1.6932,-5.8646 -4.214,-7.3373 -1.2564,-0.734 -2.7182,-1.155 -4.2783,-1.155 -3.13,0 -5.8646,1.6931 -7.3373,4.2139 -0.734,1.2564 -1.155,2.7182 -1.155,4.2784 0,3.1299 1.6931,5.8646 4.2139,7.3372 1.2564,0.734 2.7182,1.1551 4.2784,1.1551 3.1299,0 5.8646,-1.6932 7.3372,-4.214 0.734,-1.2564 1.1551,-2.7181 1.1551,-4.2783 m -1.9286,0 c 0,1.2053 -0.3246,2.3348 -0.8917,3.3055 -1.1384,1.9487 -3.2522,3.2582 -5.672,3.2582 -1.2053,0 -2.3348,-0.3246 -3.3056,-0.8917 -1.9486,-1.1384 -3.2582,-3.2522 -3.2582,-5.672 0,-1.2053 0.3246,-2.3348 0.8917,-3.3055 1.1385,-1.9487 3.2522,-3.2582 5.6721,-3.2582 1.2052,0 2.3348,0.3245 3.3055,0.8916 1.9486,1.1385 3.2582,3.2523 3.2582,5.6721" /><path
           id="path92"
           style="fill:#000000;fill-opacity:1;fill-rule:nonzero;stroke:none"
           d="m 163.6982,675.2438 c -0.5257,-0.0855 -1.0211,0.2714 -1.1066,0.797 -0.0855,0.5257 0.2714,1.0211 0.797,1.1066 l 82.3929,13.3982 c 0.5257,0.0855 1.0211,-0.2714 1.1066,-0.797 0.0855,-0.5257 -0.2714,-1.0211 -0.797,-1.1066 z" /></g></g><g
       id="g94"><g
         clip-path="url(#clipPath100)"
         id="g96"><path
           id="path102"
           style="fill:#000000;fill-opacity:1;fill-rule:nonzero;stroke:none"
           d="m 245.0538,695.0329 13.3935,-3.4046 -11.6247,-7.4729 z" /></g></g><g
       id="g104"><g
         clip-path="url(#clipPath110)"
         id="g106"><path
           id="path112"
           style="fill:#000000;fill-opacity:1;fill-rule:nonzero;stroke:none"
           d="m 152.7231,637.9783 c -0.5275,-0.0737 -1.0148,0.2941 -1.0885,0.8215 -0.0737,0.5275 0.2941,1.0148 0.8215,1.0885 l 82.6826,11.5576 c 0.5274,0.0738 1.0148,-0.294 1.0885,-0.8215 0.0737,-0.5274 -0.2941,-1.0147 -0.8215,-1.0885 z" /></g></g><g
       id="g114"><g
         clip-path="url(#clipPath120)"
         id="g116"><path
           id="path122"
           style="fill:#000000;fill-opacity:1;fill-rule:nonzero;stroke:none"
           d="m 234.5109,655.9483 13.3143,-3.7027 -11.7886,-7.2116 z" /></g></g><g
       id="g124"><g
         clip-path="url(#clipPath130)"
         id="g126"><path
           id="path132"
           style="fill:#000000;fill-opacity:1;fill-rule:nonzero;stroke:none"
           d="m 171.0794,607.3776 c -0.5325,0 -0.9643,0.4317 -0.9643,0.9643 0,0.5325 0.4318,0.9643 0.9643,0.9643 h 74.7016 c 0.5326,0 0.9643,-0.4318 0.9643,-0.9643 0,-0.5326 -0.4317,-0.9643 -0.9643,-0.9643 z" /></g></g><g
       id="g134"><g
         clip-path="url(#clipPath140)"
         id="g136"><path
           id="path142"
           style="fill:#000000;fill-opacity:1;fill-rule:nonzero;stroke:none"
           d="m 245.781,613.8521 12.6735,-5.5102 -12.6735,-5.5102 z" /></g></g><g
       id="g144"><g
         clip-path="url(#clipPath150)"
         id="g146"><path
           id="path152"
           style="fill:#000000;fill-opacity:1;fill-rule:nonzero;stroke:none"
           d="m 147.5479,554.956 c 0.0435,-0.006 0.2607,-0.1076 0.3548,-0.182 v 0 c -0.2597,0.3226 -0.7317,0.3735 -1.0543,0.1138 v 0 c -0.3226,-0.2597 -0.3735,-0.7317 -0.1138,-1.0543 v 0 c 0.2597,-0.3226 0.7317,-0.3735 1.0543,-0.1138 v 0 c 0.3226,0.2597 0.3735,0.7317 0.1138,1.0543 0.0635,-0.096 0.1294,-0.2908 0.1424,-0.3138 v 0 c 0.005,0.4265 -0.3365,0.7764 -0.763,0.7814 v 0 c -0.4265,0.005 -0.7764,-0.3365 -0.7815,-0.763 v 0 c -0.005,-0.4265 0.3366,-0.7764 0.7631,-0.7815 v 0 c 0.4265,-0.005 0.7764,0.3366 0.7814,0.7631 0.003,0.003 0.0415,0.0649 0.161,0.2921 v 0 c 0.1849,0.4117 0.001,0.8954 -0.4107,1.0803 v 0 c -0.4117,0.1849 -0.8954,0.001 -1.0803,-0.4108 v 0 c -0.1849,-0.4117 -0.001,-0.8953 0.4107,-1.0802 v 0 c 0.4118,-0.1849 0.8954,-10e-4 1.0803,0.4107 0.2448,0.4765 0.7168,1.2194 1.3752,2.2521 1.4524,2.3936 3.5818,6.2905 5.1654,9.6009 1.0191,2.1778 1.7133,3.9286 2.1541,4.8359 0.1179,0.23 0.1977,0.3899 0.2568,0.4825 0.0471,0.0789 -0.1171,-0.0731 -0.3785,-0.1975 -0.4021,0.0425 -0.8161,0.3597 -0.8361,0.3699 0.0112,-0.0251 0.0216,-0.0915 0.0464,-0.2743 0.0543,-0.3808 0.0891,-0.953 0.1177,-1.6847 0.0577,-1.4675 0.0782,-3.4566 0.1588,-5.4361 0.1077,-2.385 0.5057,-4.8621 0.8235,-6.6865 0.2215,-1.2098 0.4745,-2.175 0.6234,-2.7884 0.1018,-0.4041 0.1446,-0.5564 0.1375,-0.4349 0.0385,0.0735 0.1993,0.3585 0.3722,0.5135 v 0 c -0.4058,-0.3247 -0.4716,-0.9168 -0.1469,-1.3227 v 0 c 0.3246,-0.4058 0.9168,-0.4716 1.3226,-0.1469 v 0 c 0.4059,0.3246 0.4716,0.9168 0.147,1.3226 v 0 c -0.3247,0.4059 -0.9169,0.4717 -1.3227,0.147 0.2272,0.1063 0.6558,0.1447 0.7729,0.1025 v 0 c -0.4662,0.1369 -0.9551,-0.13 -1.092,-0.5962 v 0 c -0.1369,-0.4661 0.13,-0.955 0.5962,-1.0919 v 0 c 0.4661,-0.137 0.9551,0.13 1.092,0.5961 v 0 c 0.1369,0.4662 -0.13,0.9551 -0.5962,1.092 0.1032,-0.0935 0.1372,-0.1633 0.0321,-0.1195 v 0 c -0.3052,0.2859 -0.7844,0.2703 -1.0703,-0.0349 v 0 c -0.2859,-0.3051 -0.2703,-0.7843 0.0349,-1.0702 v 0 c 0.3051,-0.2859 0.7843,-0.2703 1.0702,0.0348 v 0 c 0.2859,0.3052 0.2703,0.7844 -0.0348,1.0703 -0.2398,0.111 -0.6085,0.4066 -1.1471,0.9132 v 0 c -0.1833,0.2153 -0.5064,0.2413 -0.7218,0.058 v 0 c -0.2153,-0.1833 -0.2413,-0.5065 -0.058,-0.7218 0.4194,-0.6186 0.7057,-1.0667 0.8914,-1.3545 0.1078,-0.1556 0.2972,-0.3385 0.5075,-0.4635 0.1707,-0.058 0.6409,-0.0149 0.8993,0.1164 0.2029,0.1791 0.3835,0.5084 0.432,0.6454 0.0328,0.3763 -0.0407,0.787 -0.1381,1.2177 -0.15,0.6389 -0.3823,1.5376 -0.5853,2.6801 -0.3371,1.8043 -0.7401,4.1538 -0.861,6.4196 -0.1124,1.948 -0.1657,3.933 -0.2578,5.4338 -0.0463,0.7525 -0.1054,1.4131 -0.1883,1.8822 -0.0439,0.2421 -0.1129,0.505 -0.1951,0.6969 -0.1134,0.2273 -0.6346,0.6494 -1.1609,0.6681 -0.3969,-0.1502 -0.6958,-0.4578 -0.8066,-0.6415 -0.0989,-0.1701 -0.2003,-0.38 -0.3111,-0.6042 -0.5079,-0.9773 -1.2275,-2.7095 -2.2547,-4.8312 -1.547,-3.2671 -3.6281,-7.103 -5.0436,-9.4605 -0.6118,-1.0713 -1.0735,-1.9179 -1.3132,-2.52 -0.1227,-0.3122 -0.2138,-0.6623 -0.2145,-0.9433 0.0114,-0.1653 0.1072,-0.4705 0.2338,-0.6449 0.1576,-0.1533 0.4715,-0.3019 0.6468,-0.3229 v 0 c 0.3991,-0.046 0.7599,0.2402 0.806,0.6393 v 0 c 0.046,0.399 -0.2402,0.7599 -0.6393,0.8059 z" /><path
           id="path154"
           style="fill:#000000;fill-opacity:1;fill-rule:nonzero;stroke:none"
           d="m 151.9108,560.1213 c -0.3046,0.3906 -0.7411,0.6031 -0.84,0.6338 v 0 c -0.278,0.1999 -0.6655,0.1365 -0.8654,-0.1415 v 0 c -0.1998,-0.2781 -0.1365,-0.6655 0.1416,-0.8654 v 0 c 0.278,-0.1999 0.6655,-0.1365 0.8654,0.1415 v 0 c 0.1998,0.2781 0.1365,0.6655 -0.1416,0.8654 -0.006,0.0227 0.0232,0.0184 0.0549,0.0104 v 0 c -0.258,0.262 -0.6795,0.2653 -0.9415,0.007 v 0 c -0.262,-0.258 -0.2653,-0.6795 -0.007,-0.9415 v 0 c 0.258,-0.262 0.6796,-0.2653 0.9416,-0.007 v 0 c 0.262,0.258 0.2653,0.6796 0.007,0.9416 0.0201,-0.0106 0.0753,-0.0686 0.1119,-0.1125 v 0 c -0.1856,0.332 -0.6052,0.4506 -0.9372,0.2649 v 0 c -0.3319,-0.1856 -0.4505,-0.6052 -0.2649,-0.9371 v 0 c 0.1856,-0.332 0.6052,-0.4506 0.9372,-0.2649 v 0 c 0.3319,0.1856 0.4505,0.6052 0.2649,0.9371 0.038,-0.0615 0.0962,-0.2705 0.1007,-0.4113 -0.0279,-0.1468 -0.1671,-0.3919 -0.2413,-0.472 -0.0672,-0.0555 -0.1768,-0.1177 -0.211,-0.1379 -0.0473,-0.0272 -0.1025,-0.0513 -0.0894,-0.0662 0.3946,-0.0167 1.2934,-0.1318 2.2752,-0.2109 0.6858,-0.0395 1.397,-0.0602 2.0689,-0.0671 0.5043,6e-4 1.0007,0.009 1.4566,0.0226 v 0 c 0.5562,0.0247 0.9871,0.4955 0.9625,1.0517 v 0 c -0.0247,0.5561 -0.4955,0.987 -1.0517,0.9624 v 0 c -0.5561,-0.0246 -0.987,-0.4955 -0.9624,-1.0516 v 0 c 0.0246,-0.5562 0.4955,-0.9871 1.0516,-0.9625 0.3047,0.003 0.6003,0.01 0.871,0.0171 v 0 c 0.5722,0.0375 1.0057,0.5317 0.9683,1.1039 v 0 c -0.0375,0.5722 -0.5317,1.0058 -1.1039,0.9683 v 0 c -0.5723,-0.0374 -1.0058,-0.5317 -0.9683,-1.1039 v 0 c 0.0374,-0.5722 0.5316,-1.0057 1.1039,-0.9683 0.2679,0.0539 0.5221,0.1099 0.7451,0.1667 v 0 c 0.5113,0.0467 0.888,0.499 0.8413,1.0103 v 0 c -0.0467,0.5113 -0.4991,0.888 -1.0104,0.8413 v 0 c -0.5113,-0.0467 -0.888,-0.4991 -0.8412,-1.0104 v 0 c 0.0467,-0.5113 0.499,-0.888 1.0103,-0.8412 0.213,0.1592 0.4059,0.3202 0.5593,0.4806 v 0 c 0.2804,0.0367 0.478,0.2938 0.4412,0.5742 v 0 c -0.0367,0.2804 -0.2938,0.4779 -0.5741,0.4412 -0.1741,0.1176 -0.3697,0.2364 -0.5955,0.3556 -0.2158,0.0166 -0.4507,0.0347 -0.7116,0.0539 -0.2582,-0.027 -0.5313,-0.0521 -0.8246,-0.0752 -0.4408,-0.0261 -0.9069,-0.0468 -1.3952,-0.0602 -0.6516,-0.0255 -1.3173,-0.0378 -1.9773,-0.0316 -0.9479,-0.0135 -1.895,0.0126 -2.4412,-0.0641 -0.0635,-0.0198 -0.1739,-0.0519 -0.2578,-0.0904 -0.0526,-0.0259 -0.176,-0.0947 -0.2516,-0.1569 -0.0846,-0.0884 -0.2289,-0.3419 -0.258,-0.4974 0.003,-0.1508 0.0642,-0.3701 0.1085,-0.443 0.0429,-0.0551 0.1081,-0.1255 0.1411,-0.1492 0.0582,-0.035 0.1265,-0.0703 0.1703,-0.0832 0.1622,-0.157 0.331,-0.2619 0.3026,-0.3519 v 0 c 0.2001,-0.3483 0.6447,-0.4684 0.9931,-0.2682 v 0 c 0.3483,0.2002 0.4684,0.6448 0.2682,0.9931" /><path
           id="path156"
           style="fill:#000000;fill-opacity:1;fill-rule:nonzero;stroke:none"
           d="m 264.9944,568.7426 c 0.0213,-0.2655 0.0422,-0.5828 0.0644,-0.9358 v 0 c -0.0231,-0.3224 0.2196,-0.6025 0.542,-0.6256 v 0 c 0.3224,-0.0231 0.6025,0.2195 0.6256,0.542 v 0 c 0.0231,0.3224 -0.2195,0.6025 -0.542,0.6256 v 0 c -0.3224,0.0231 -0.6025,-0.2196 -0.6256,-0.542 -0.1635,-1.274 -0.3168,-3.1152 -0.406,-5.1054 v 0 c -0.004,-0.4428 0.3522,-0.8048 0.795,-0.8086 v 0 c 0.4428,-0.004 0.8048,0.3522 0.8086,0.795 v 0 c 0.004,0.4428 -0.3522,0.8048 -0.795,0.8086 v 0 c -0.4428,0.004 -0.8049,-0.3522 -0.8086,-0.795 -0.0354,-1.2725 -0.0506,-2.5585 -0.074,-3.4784 v 0 c 7e-4,-0.4837 0.3933,-0.8753 0.877,-0.8746 v 0 c 0.4836,6e-4 0.8752,0.3933 0.8745,0.8769 v 0 c -6e-4,0.4837 -0.3932,0.8753 -0.8769,0.8746 v 0 c -0.4837,-7e-4 -0.8752,-0.3933 -0.8746,-0.8769 -0.004,-0.3719 -0.005,-0.6727 -0.0142,-0.8929 -0.0103,-0.2219 -0.014,-0.4082 -0.0222,-0.5213 -0.004,-0.0538 -0.006,-0.0571 -0.009,-0.0417 0.002,0.0178 0.0249,0.1177 0.0555,0.205 0.0681,0.1265 0.5379,0.4907 0.9481,0.534 0.3362,-0.1187 0.609,-0.3691 0.6459,-0.4252 0.0167,-0.0358 0.0339,-0.0774 0.0275,-0.056 -0.0185,0.0547 -0.0391,0.1444 -0.0685,0.2891 -0.0601,0.2938 -0.1255,0.6924 -0.1965,1.0772 -0.2679,1.3895 -0.5276,3.4024 -0.7117,5.363 -0.0794,0.8813 -0.1254,1.7232 -0.1563,2.4728 -0.0367,1.6652 -0.0753,2.9188 0.0443,3.871 0.0577,0.4654 0.0617,0.5764 0.2605,0.6809 0.3888,0.4345 1.7097,0.6366 3.1255,0.7352 0.8939,0.0627 1.4116,0.1102 1.5864,-0.0841 0.0474,-0.006 -0.015,0.0668 0.0226,-0.0725 0.058,-0.1476 0.0693,-0.2785 0.0555,-0.5528 -0.008,-0.451 0.005,-0.8029 -0.1143,-1.168 -0.094,-0.4576 -0.6225,-0.9672 -1.1677,-1.6147 -0.5902,-0.6971 -1.1452,-1.3255 -1.5795,-1.8607 -0.3343,-0.4044 -0.6639,-0.8652 -0.823,-1.3362 -0.0856,-0.3571 -0.0458,-0.8991 0.1066,-1.2402 0.1751,-0.3129 0.5359,-0.6637 0.8684,-0.8448 0.99,-0.4535 2.4915,-0.4221 3.6688,-0.6236 1.0351,-0.1929 1.8359,-0.5229 2.4767,-1.0084 0.643,-0.4685 0.9908,-0.9398 1.1239,-1.5879 0.1356,-0.7341 -0.1887,-1.4321 -0.8853,-2.2266 -0.6813,-0.8043 -1.6099,-1.4533 -2.7286,-1.8873 -1.2436,-0.5552 -2.6178,-0.7197 -4.1201,-0.6218 -0.8822,-0.0342 -1.7345,0.0475 -2.3969,0.1505 v 0 c -0.456,0.126 -0.9278,-0.1416 -1.0538,-0.5976 v 0 c -0.126,-0.456 0.1416,-0.9278 0.5976,-1.0538 v 0 c 0.456,-0.126 0.9278,0.1415 1.0538,0.5975 v 0 c 0.126,0.456 -0.1415,0.9279 -0.5976,1.0539 -0.3288,0.0498 -0.5624,0.0902 -0.7224,0.1238 v 0 c -0.3695,0.1736 -0.8099,0.0149 -0.9835,-0.3546 v 0 c -0.1737,-0.3695 -0.015,-0.8098 0.3545,-0.9835 v 0 c 0.3695,-0.1737 0.8098,-0.015 0.9835,0.3545 v 0 c 0.1737,0.3695 0.015,0.8099 -0.3545,0.9836 -0.0751,0.013 -0.079,-0.009 -0.0761,-0.0317 v 0 c -0.2848,0.2453 -0.7145,0.2133 -0.9598,-0.0715 v 0 c -0.2453,-0.2848 -0.2133,-0.7145 0.0715,-0.9598 v 0 c 0.2848,-0.2453 0.7145,-0.2133 0.9598,0.0715 v 0 c 0.2453,0.2848 0.2133,0.7145 -0.0715,0.9598 0.0187,-0.0531 0.139,-0.4448 0.0495,-0.7347 v 0 c 0.1737,0.2963 0.0743,0.6773 -0.222,0.851 v 0 c -0.2963,0.1737 -0.6773,0.0743 -0.851,-0.222 -0.1204,-0.3425 0.031,-0.799 0.1352,-0.9256 0.0882,-0.0967 0.2241,-0.2005 0.3355,-0.2751 0.2126,-0.1417 0.5386,-0.2976 0.8951,-0.4371 0.7083,-0.2758 1.7302,-0.5452 2.7386,-0.6787 1.7056,-0.0706 3.5632,0.1991 5.093,0.888 1.2851,0.6444 2.5045,1.656 3.2684,2.7178 0.7486,1.0716 1.1668,2.4451 0.8952,3.6112 -0.206,0.9355 -0.8279,1.8475 -1.623,2.4769 -0.7974,0.6123 -1.9032,1.0948 -3.0812,1.3435 -1.3327,0.2993 -2.6777,0.3217 -3.1129,0.6556 -0.1258,0.0721 -0.0755,0.0344 -0.0657,0.0717 -0.0128,0.009 0.007,-0.1458 0.0448,-0.1018 0.0243,0.1265 0.1672,0.2901 0.4806,0.656 0.4254,0.4875 0.9912,1.0914 1.6135,1.788 0.5116,0.5673 1.2872,1.3433 1.6445,2.2857 0.207,0.647 0.2412,1.2949 0.2666,1.7258 0.0129,0.4265 -0.0471,0.9394 -0.1742,1.3291 -0.1476,0.3979 -0.5089,0.9013 -0.8903,1.1701 -0.8557,0.4661 -1.9625,0.455 -2.8955,0.3772 -1.5193,-0.127 -3.3457,-0.4792 -4.3446,-1.3198 -0.536,-0.5708 -0.7667,-1.393 -0.8087,-2.0032 -0.0714,-1.1084 0.0251,-2.4657 0.1175,-4.1185 0.028,-0.7626 0.073,-1.6478 0.1513,-2.5598 0.1639,-1.9945 0.4098,-4.0849 0.6652,-5.5413 0.0672,-0.3667 0.1345,-0.7784 0.2015,-1.1109 0.0341,-0.1683 0.0756,-0.3456 0.1177,-0.4817 0.0239,-0.0739 0.071,-0.1917 0.1173,-0.2808 0.0665,-0.1094 0.3685,-0.3904 0.7329,-0.5127 0.4221,0.0417 0.9013,0.4145 0.9766,0.5575 0.0389,0.1059 0.0682,0.2325 0.0747,0.2845 0.008,0.086 0.01,0.1858 0.008,0.2616 -0.003,0.1456 -0.0113,0.324 -0.013,0.5192 2e-4,0.2549 -0.009,0.5699 -0.0143,0.9315 -0.0259,0.9259 -0.06,2.2028 -0.0739,3.4625 -0.0557,1.9665 -0.0482,3.7723 -0.03,5.0354 0.0718,0.3389 0.1438,0.631 0.2157,0.8762 v 0 c 0.0395,0.3998 -0.2525,0.7559 -0.6523,0.7954 v 0 c -0.3998,0.0396 -0.7559,-0.2524 -0.7954,-0.6522" /><path
           id="path158"
           style="fill:#000000;fill-opacity:1;fill-rule:nonzero;stroke:none"
           d="m 156.9179,524.3483 c 8.8954,-0.1265 16.9758,-6.5433 22.9094,-17.1545 6.2157,-11.1158 10.0741,-26.8074 10.0741,-44.2336 0,-0.5605 -0.004,-1.1228 -0.012,-1.6867 -0.397,-27.9108 -10.5958,-51.2913 -24.1394,-59.1819 -3.3595,-1.9572 -6.9276,-2.9821 -10.6129,-2.9297 -8.8954,0.1266 -16.9758,6.5433 -22.9094,17.1545 -6.2157,11.1159 -10.0741,26.8075 -10.0741,44.2337 0,0.5605 0.004,1.1228 0.012,1.6867 0.397,27.9107 10.5958,51.2913 24.1394,59.1818 3.3595,1.9573 6.9276,2.9822 10.6129,2.9297 m -0.0274,-1.9283 c -3.341,0.0475 -6.5713,-0.8946 -9.6147,-2.6677 -13.1676,-7.6716 -22.7978,-30.5428 -23.1818,-57.5429 -0.008,-0.5548 -0.0119,-1.1079 -0.0119,-1.6593 0,-17.0493 3.7454,-32.4131 9.8289,-43.2924 5.5056,-9.8459 12.9261,-16.0489 21.2535,-16.1674 3.341,-0.0475 6.5713,0.8946 9.6147,2.6677 13.1676,7.6715 22.7978,30.5427 23.1818,57.5429 0.008,0.5548 0.0119,1.1079 0.0119,1.6593 0,17.0493 -3.7454,32.413 -9.8289,43.2924 -5.5056,9.8459 -12.9261,16.0489 -21.2535,16.1674" /><path
           id="path160"
           style="fill:#000000;fill-opacity:1;fill-rule:nonzero;stroke:none"
           d="m 274.3936,531.8763 c 8.8953,-0.1265 16.9758,-6.5433 22.9093,-17.1545 6.2158,-11.1158 10.0742,-26.8074 10.0742,-44.2336 0,-0.5605 -0.004,-1.1228 -0.012,-1.6867 -0.397,-27.9108 -10.5958,-51.2913 -24.1394,-59.1819 -3.3595,-1.9572 -6.9277,-2.9821 -10.6129,-2.9297 -8.8954,0.1266 -16.9759,6.5434 -22.9094,17.1545 -6.2158,11.1159 -10.0742,26.8075 -10.0742,44.2337 0,0.5605 0.004,1.1228 0.012,1.6867 0.3971,27.9107 10.5958,51.2913 24.1394,59.1819 3.3595,1.9572 6.9277,2.9821 10.613,2.9296 m -0.0275,-1.9283 c -3.341,0.0475 -6.5712,-0.8946 -9.6146,-2.6677 -13.1676,-7.6716 -22.7978,-30.5427 -23.1819,-57.5429 -0.008,-0.5548 -0.0118,-1.1079 -0.0118,-1.6593 0,-17.0493 3.7454,-32.4131 9.8289,-43.2924 5.5056,-9.8459 12.926,-16.0489 21.2535,-16.1674 3.341,-0.0475 6.5712,0.8946 9.6146,2.6677 13.1676,7.6715 22.7978,30.5427 23.1819,57.5429 0.008,0.5548 0.0118,1.1079 0.0118,1.6593 0,17.0493 -3.7453,32.4131 -9.8288,43.2924 -5.5056,9.8459 -12.9261,16.0489 -21.2536,16.1674" /><path
           id="path162"
           style="fill:#ed3624;fill-opacity:1;fill-rule:nonzero;stroke:none"
           d="m 164.5198,498.9815 c 0,-3.1299 -1.6932,-5.8646 -4.2139,-7.3372 -1.2564,-0.7341 -2.7182,-1.1551 -4.2784,-1.1551 -3.1299,0 -5.8646,1.6932 -7.3373,4.2139 -0.734,1.2564 -1.155,2.7182 -1.155,4.2784 0,3.1299 1.6932,5.8646 4.2139,7.3373 1.2564,0.734 2.7182,1.155 4.2784,1.155 3.1299,0 5.8646,-1.6932 7.3373,-4.2139 0.734,-1.2564 1.155,-2.7182 1.155,-4.2784 m -1.9286,0 c 0,1.2053 -0.3246,2.3348 -0.8917,3.3055 -1.1384,1.9487 -3.2522,3.2582 -5.672,3.2582 -1.2053,0 -2.3348,-0.3245 -3.3055,-0.8917 -1.9487,-1.1384 -3.2582,-3.2522 -3.2582,-5.672 0,-1.2053 0.3245,-2.3348 0.8917,-3.3055 1.1384,-1.9487 3.2522,-3.2582 5.672,-3.2582 1.2053,0 2.3348,0.3246 3.3055,0.8917 1.9487,1.1384 3.2582,3.2522 3.2582,5.672" /><path
           id="path164"
           style="fill:#ed3624;fill-opacity:1;fill-rule:nonzero;stroke:none"
           d="m 153.5681,461.7551 c 0,-3.1299 -1.6932,-5.8645 -4.2139,-7.3372 -1.2564,-0.734 -2.7182,-1.1551 -4.2784,-1.1551 -3.1299,0 -5.8646,1.6932 -7.3373,4.214 -0.734,1.2564 -1.155,2.7182 -1.155,4.2783 0,3.13 1.6932,5.8646 4.2139,7.3373 1.2564,0.734 2.7182,1.155 4.2784,1.155 3.1299,0 5.8646,-1.6931 7.3373,-4.2139 0.734,-1.2564 1.155,-2.7182 1.155,-4.2784 m -1.9286,0 c 0,1.2053 -0.3245,2.3348 -0.8917,3.3056 -1.1384,1.9486 -3.2522,3.2582 -5.672,3.2582 -1.2053,0 -2.3348,-0.3246 -3.3055,-0.8917 -1.9487,-1.1385 -3.2582,-3.2522 -3.2582,-5.6721 0,-1.2052 0.3246,-2.3348 0.8917,-3.3055 1.1384,-1.9486 3.2522,-3.2582 5.672,-3.2582 1.2053,0 2.3348,0.3246 3.3055,0.8917 1.9487,1.1384 3.2582,3.2522 3.2582,5.672" /><path
           id="path166"
           style="fill:#ed3624;fill-opacity:1;fill-rule:nonzero;stroke:none"
           d="m 172.0478,430.9472 c 0,-3.13 -1.6932,-5.8646 -4.2139,-7.3373 -1.2564,-0.734 -2.7182,-1.155 -4.2784,-1.155 -3.1299,0 -5.8646,1.6931 -7.3373,4.2139 -0.734,1.2564 -1.155,2.7182 -1.155,4.2784 0,3.1299 1.6932,5.8645 4.2139,7.3372 1.2564,0.734 2.7182,1.1551 4.2784,1.1551 3.1299,0 5.8646,-1.6932 7.3373,-4.214 0.734,-1.2564 1.155,-2.7182 1.155,-4.2783 m -1.9286,0 c 0,1.2052 -0.3245,2.3348 -0.8917,3.3055 -1.1384,1.9486 -3.2522,3.2582 -5.672,3.2582 -1.2053,0 -2.3348,-0.3246 -3.3055,-0.8917 -1.9487,-1.1384 -3.2582,-3.2522 -3.2582,-5.672 0,-1.2053 0.3246,-2.3348 0.8917,-3.3056 1.1384,-1.9486 3.2522,-3.2582 5.672,-3.2582 1.2053,0 2.3348,0.3246 3.3055,0.8917 1.9487,1.1385 3.2582,3.2522 3.2582,5.6721" /><path
           id="path168"
           style="fill:#622d90;fill-opacity:1;fill-rule:nonzero;stroke:none"
           d="m 274.4674,514.0375 c 0,-3.1299 -1.6931,-5.8646 -4.2139,-7.3372 -1.2564,-0.7341 -2.7182,-1.1551 -4.2783,-1.1551 -3.13,0 -5.8646,1.6932 -7.3373,4.214 -0.734,1.2564 -1.155,2.7181 -1.155,4.2783 0,3.13 1.6931,5.8646 4.2139,7.3373 1.2564,0.734 2.7182,1.155 4.2784,1.155 3.1299,0 5.8645,-1.6932 7.3372,-4.2139 0.734,-1.2564 1.155,-2.7182 1.155,-4.2784 m -1.9285,0 c 0,1.2053 -0.3246,2.3348 -0.8917,3.3055 -1.1384,1.9487 -3.2522,3.2582 -5.672,3.2582 -1.2053,0 -2.3348,-0.3245 -3.3056,-0.8916 -1.9486,-1.1385 -3.2582,-3.2523 -3.2582,-5.6721 0,-1.2053 0.3246,-2.3348 0.8917,-3.3055 1.1385,-1.9487 3.2522,-3.2582 5.6721,-3.2582 1.2052,0 2.3348,0.3246 3.3055,0.8917 1.9486,1.1384 3.2582,3.2522 3.2582,5.672" /><path
           id="path170"
           style="fill:#622d90;fill-opacity:1;fill-rule:nonzero;stroke:none"
           d="m 263.5158,476.8111 c 0,-3.1299 -1.6932,-5.8645 -4.214,-7.3372 -1.2564,-0.734 -2.7182,-1.155 -4.2783,-1.155 -3.13,0 -5.8646,1.6931 -7.3373,4.2139 -0.734,1.2564 -1.155,2.7182 -1.155,4.2783 0,3.13 1.6931,5.8646 4.2139,7.3373 1.2564,0.734 2.7182,1.155 4.2784,1.155 3.1299,0 5.8645,-1.6931 7.3372,-4.2139 0.734,-1.2564 1.1551,-2.7182 1.1551,-4.2784 m -1.9286,0 c 0,1.2053 -0.3246,2.3349 -0.8917,3.3056 -1.1384,1.9486 -3.2522,3.2582 -5.672,3.2582 -1.2053,0 -2.3348,-0.3246 -3.3056,-0.8917 -1.9486,-1.1385 -3.2582,-3.2522 -3.2582,-5.6721 0,-1.2052 0.3246,-2.3348 0.8917,-3.3055 1.1385,-1.9486 3.2522,-3.2582 5.6721,-3.2582 1.2052,0 2.3348,0.3246 3.3055,0.8917 1.9486,1.1385 3.2582,3.2522 3.2582,5.672" /><path
           id="path172"
           style="fill:#622d90;fill-opacity:1;fill-rule:nonzero;stroke:none"
           d="m 285.4191,491.8672 c 0,-3.13 -1.6931,-5.8646 -4.2139,-7.3373 -1.2564,-0.734 -2.7182,-1.155 -4.2783,-1.155 -3.13,0 -5.8646,1.6931 -7.3373,4.2139 -0.734,1.2564 -1.155,2.7182 -1.155,4.2784 0,3.1299 1.6931,5.8645 4.2139,7.3372 1.2564,0.734 2.7182,1.1551 4.2784,1.1551 3.1299,0 5.8645,-1.6932 7.3372,-4.214 0.734,-1.2564 1.155,-2.7182 1.155,-4.2783 m -1.9285,0 c 0,1.2052 -0.3246,2.3348 -0.8917,3.3055 -1.1384,1.9486 -3.2522,3.2582 -5.672,3.2582 -1.2053,0 -2.3349,-0.3246 -3.3056,-0.8917 -1.9486,-1.1384 -3.2582,-3.2522 -3.2582,-5.672 0,-1.2053 0.3246,-2.3348 0.8917,-3.3056 1.1385,-1.9486 3.2522,-3.2582 5.6721,-3.2582 1.2052,0 2.3348,0.3246 3.3055,0.8917 1.9486,1.1385 3.2582,3.2522 3.2582,5.6721" /><path
           id="path174"
           style="fill:#622d90;fill-opacity:1;fill-rule:nonzero;stroke:none"
           d="m 274.4674,430.8073 c 0,-3.1299 -1.6931,-5.8645 -4.2139,-7.3372 -1.2564,-0.734 -2.7182,-1.155 -4.2783,-1.155 -3.13,0 -5.8646,1.6931 -7.3373,4.2139 -0.734,1.2564 -1.155,2.7182 -1.155,4.2783 0,3.13 1.6931,5.8646 4.2139,7.3373 1.2564,0.734 2.7182,1.155 4.2784,1.155 3.1299,0 5.8645,-1.6931 7.3372,-4.2139 0.734,-1.2564 1.155,-2.7182 1.155,-4.2784 m -1.9285,0 c 0,1.2053 -0.3246,2.3349 -0.8917,3.3056 -1.1384,1.9486 -3.2522,3.2582 -5.672,3.2582 -1.2053,0 -2.3348,-0.3246 -3.3056,-0.8917 -1.9486,-1.1385 -3.2582,-3.2522 -3.2582,-5.6721 0,-1.2052 0.3246,-2.3348 0.8917,-3.3055 1.1385,-1.9486 3.2522,-3.2582 5.6721,-3.2582 1.2052,0 2.3348,0.3246 3.3055,0.8917 1.9486,1.1385 3.2582,3.2522 3.2582,5.672" /><path
           id="path176"
           style="fill:#622d90;fill-opacity:1;fill-rule:nonzero;stroke:none"
           d="m 292.9472,452.9562 c 0,-3.1299 -1.6932,-5.8645 -4.214,-7.3372 -1.2564,-0.734 -2.7182,-1.1551 -4.2783,-1.1551 -3.13,0 -5.8646,1.6932 -7.3373,4.214 -0.734,1.2564 -1.155,2.7182 -1.155,4.2783 0,3.13 1.6931,5.8646 4.2139,7.3373 1.2564,0.734 2.7182,1.155 4.2784,1.155 3.1299,0 5.8645,-1.6931 7.3372,-4.2139 0.734,-1.2564 1.1551,-2.7182 1.1551,-4.2784 m -1.9286,0 c 0,1.2053 -0.3246,2.3348 -0.8917,3.3056 -1.1384,1.9486 -3.2522,3.2582 -5.672,3.2582 -1.2053,0 -2.3348,-0.3246 -3.3056,-0.8917 -1.9486,-1.1385 -3.2582,-3.2522 -3.2582,-5.6721 0,-1.2052 0.3246,-2.3348 0.8917,-3.3055 1.1385,-1.9486 3.2522,-3.2582 5.6721,-3.2582 1.2052,0 2.3348,0.3246 3.3055,0.8917 1.9486,1.1384 3.2582,3.2522 3.2582,5.672" /><path
           id="path178"
           style="fill:#000000;fill-opacity:1;fill-rule:nonzero;stroke:none"
           d="m 163.6982,497.5989 c -0.5257,-0.0854 -1.0211,0.2714 -1.1066,0.7971 -0.0855,0.5256 0.2714,1.021 0.797,1.1065 l 82.3929,13.3982 c 0.5257,0.0855 1.0211,-0.2713 1.1066,-0.797 0.0855,-0.5256 -0.2714,-1.0211 -0.797,-1.1065 z" /></g></g><g
       id="g180"><g
         clip-path="url(#clipPath186)"
         id="g182"><path
           id="path188"
           style="fill:#000000;fill-opacity:1;fill-rule:nonzero;stroke:none"
           d="m 245.0538,517.388 13.3935,-3.4046 -11.6247,-7.4729 z" /></g></g><g
       id="g190"><g
         clip-path="url(#clipPath196)"
         id="g192"><path
           id="path198"
           style="fill:#000000;fill-opacity:1;fill-rule:nonzero;stroke:none"
           d="m 152.7231,460.3335 c -0.5275,-0.0738 -1.0148,0.294 -1.0885,0.8215 -0.0737,0.5274 0.2941,1.0147 0.8215,1.0885 l 82.6826,11.5576 c 0.5274,0.0737 1.0148,-0.2941 1.0885,-0.8215 0.0737,-0.5275 -0.2941,-1.0148 -0.8215,-1.0885 z" /></g></g><g
       id="g200"><g
         clip-path="url(#clipPath206)"
         id="g202"><path
           id="path208"
           style="fill:#000000;fill-opacity:1;fill-rule:nonzero;stroke:none"
           d="m 234.5109,478.3034 13.3143,-3.7026 -11.7886,-7.2117 z" /></g></g><g
       id="g210"><g
         clip-path="url(#clipPath216)"
         id="g212"><path
           id="path218"
           style="fill:#000000;fill-opacity:1;fill-rule:nonzero;stroke:none"
           d="m 171.0794,429.7327 c -0.5325,0 -0.9643,0.4318 -0.9643,0.9643 0,0.5326 0.4318,0.9643 0.9643,0.9643 h 74.7016 c 0.5326,0 0.9643,-0.4317 0.9643,-0.9643 0,-0.5325 -0.4317,-0.9643 -0.9643,-0.9643 z" /></g></g><g
       id="g220"><g
         clip-path="url(#clipPath226)"
         id="g222"><path
           id="path228"
           style="fill:#000000;fill-opacity:1;fill-rule:nonzero;stroke:none"
           d="m 245.781,436.2072 12.6735,-5.5102 -12.6735,-5.5102 z" /></g></g><g
       id="g230"><g
         clip-path="url(#clipPath236)"
         id="g232"><path
           id="path238"
           style="fill:#000000;fill-opacity:1;fill-rule:nonzero;stroke:none"
           d="m 147.5477,377.3111 c 0.0436,-0.006 0.261,-0.1076 0.3551,-0.1821 v 0 c -0.2596,0.3227 -0.7317,0.3737 -1.0543,0.1141 v 0 c -0.3226,-0.2597 -0.3737,-0.7317 -0.114,-1.0543 v 0 c 0.2596,-0.3227 0.7317,-0.3737 1.0543,-0.1141 v 0 c 0.3226,0.2597 0.3737,0.7317 0.114,1.0543 0.0634,-0.0958 0.1293,-0.2906 0.1423,-0.3137 v 0 c 0.005,0.4265 -0.3365,0.7764 -0.763,0.7815 v 0 c -0.4265,0.005 -0.7764,-0.3366 -0.7815,-0.7631 v 0 c -0.005,-0.4265 0.3366,-0.7764 0.7631,-0.7814 v 0 c 0.4265,-0.005 0.7764,0.3365 0.7814,0.763 0.003,0.003 0.0415,0.065 0.161,0.2921 v 0 c 0.1849,0.4118 0.001,0.8954 -0.4107,1.0803 v 0 c -0.4117,0.1849 -0.8954,10e-4 -1.0803,-0.4107 v 0 c -0.1849,-0.4117 -0.001,-0.8954 0.4107,-1.0803 v 0 c 0.4118,-0.1849 0.8954,-0.001 1.0803,0.4107 0.2448,0.4765 0.7168,1.2195 1.3752,2.2522 1.4524,2.3935 3.5818,6.2905 5.1654,9.6009 1.0191,2.1777 1.7133,3.9285 2.1541,4.8358 0.1179,0.23 0.1977,0.3899 0.2568,0.4825 0.0471,0.0789 -0.1171,-0.0731 -0.3785,-0.1974 -0.4021,0.0424 -0.8161,0.3596 -0.8361,0.3699 0.0112,-0.0252 0.0216,-0.0916 0.0464,-0.2744 0.0543,-0.3807 0.0891,-0.953 0.1177,-1.6846 0.0577,-1.4676 0.0782,-3.4567 0.1588,-5.4362 0.1077,-2.385 0.5057,-4.8621 0.8235,-6.6864 0.2215,-1.2098 0.4745,-2.175 0.6234,-2.7884 0.1018,-0.4042 0.1446,-0.5565 0.1375,-0.4349 0.0385,0.0734 0.1992,0.3583 0.3722,0.5134 v 0 c -0.4058,-0.3246 -0.4716,-0.9168 -0.1469,-1.3226 v 0 c 0.3246,-0.4059 0.9168,-0.4717 1.3226,-0.147 v 0 c 0.4059,0.3247 0.4716,0.9168 0.147,1.3227 v 0 c -0.3247,0.4058 -0.9169,0.4716 -1.3227,0.1469 0.2272,0.1063 0.6556,0.1448 0.7729,0.1026 v 0 c -0.4662,0.1369 -0.9551,-0.13 -1.092,-0.5962 v 0 c -0.1369,-0.4662 0.13,-0.9551 0.5962,-1.092 v 0 c 0.4661,-0.1369 0.9551,0.13 1.092,0.5962 v 0 c 0.1369,0.4661 -0.13,0.9551 -0.5962,1.092 0.1032,-0.0936 0.1372,-0.1634 0.0321,-0.1196 v 0 c -0.3051,0.2859 -0.7843,0.2704 -1.0702,-0.0348 v 0 c -0.286,-0.3051 -0.2704,-0.7843 0.0347,-1.0702 v 0 c 0.3052,-0.286 0.7843,-0.2704 1.0703,0.0348 v 0 c 0.2859,0.3051 0.2703,0.7843 -0.0348,1.0702 -0.2398,0.111 -0.6086,0.4067 -1.1471,0.9132 v 0 c -0.1833,0.2154 -0.5064,0.2413 -0.7218,0.058 v 0 c -0.2153,-0.1833 -0.2413,-0.5064 -0.058,-0.7218 0.4194,-0.6186 0.7057,-1.0667 0.8914,-1.3544 0.1077,-0.1556 0.2972,-0.3386 0.5075,-0.4636 0.171,-0.058 0.6409,-0.0148 0.8989,0.1161 0.2034,0.1795 0.3839,0.5088 0.4324,0.6458 0.0328,0.3762 -0.0407,0.7869 -0.1381,1.2176 -0.15,0.6389 -0.3823,1.5377 -0.5853,2.6802 -0.3371,1.8043 -0.7401,4.1538 -0.861,6.4196 -0.1124,1.948 -0.1657,3.9329 -0.2578,5.4337 -0.0463,0.7525 -0.1054,1.4131 -0.1883,1.8822 -0.0439,0.2422 -0.113,0.505 -0.1951,0.6969 -0.1134,0.2273 -0.6346,0.6494 -1.1611,0.6681 -0.3967,-0.1502 -0.6956,-0.4577 -0.8064,-0.6415 -0.0989,-0.17 -0.2003,-0.3799 -0.3111,-0.6042 -0.5079,-0.9773 -1.2275,-2.7095 -2.2547,-4.8311 -1.547,-3.2671 -3.6281,-7.103 -5.0436,-9.4605 -0.6118,-1.0714 -1.0735,-1.918 -1.3132,-2.5201 -0.1227,-0.3122 -0.2138,-0.6623 -0.2145,-0.9433 0.0114,-0.1653 0.1072,-0.4704 0.2338,-0.6449 0.1575,-0.1532 0.4715,-0.3019 0.647,-0.3229 v 0 c 0.3991,-0.0459 0.7598,0.2403 0.8058,0.6394 v 0 c 0.0459,0.3991 -0.2404,0.7599 -0.6395,0.8058" /><path
           id="path240"
           style="fill:#000000;fill-opacity:1;fill-rule:nonzero;stroke:none"
           d="m 151.9108,382.4764 c -0.3046,0.3906 -0.7411,0.6032 -0.84,0.6339 v 0 c -0.2781,0.1998 -0.6655,0.1364 -0.8654,-0.1416 v 0 c -0.1998,-0.2781 -0.1364,-0.6655 0.1416,-0.8654 v 0 c 0.2781,-0.1999 0.6655,-0.1365 0.8654,0.1416 v 0 c 0.1998,0.2781 0.1364,0.6655 -0.1416,0.8654 -0.005,0.0226 0.0231,0.0184 0.0547,0.0105 v 0 c -0.2581,0.2619 -0.6797,0.265 -0.9416,0.007 v 0 c -0.2619,-0.2581 -0.2649,-0.6796 -0.007,-0.9415 v 0 c 0.2581,-0.2619 0.6796,-0.265 0.9415,-0.007 v 0 c 0.2619,0.2581 0.265,0.6796 0.007,0.9415 0.0205,-0.011 0.0753,-0.0685 0.1118,-0.1121 v 0 c -0.186,0.3318 -0.6057,0.45 -0.9375,0.264 v 0 c -0.3317,-0.1859 -0.4499,-0.6056 -0.264,-0.9374 v 0 c 0.186,-0.3317 0.6057,-0.4499 0.9375,-0.264 v 0 c 0.3317,0.186 0.4499,0.6057 0.264,0.9374 0.0383,-0.062 0.0965,-0.2711 0.101,-0.4118 -0.0279,-0.1468 -0.1675,-0.3924 -0.2413,-0.4721 -0.0672,-0.0555 -0.1768,-0.1177 -0.21,-0.1376 -0.0483,-0.0274 -0.1036,-0.0516 -0.0907,-0.0665 0.3949,-0.0167 1.2937,-0.1318 2.2755,-0.2109 0.6858,-0.0395 1.397,-0.0601 2.0689,-0.067 0.5043,6e-4 1.0007,0.009 1.4567,0.0226 v 0 c 0.5561,0.0246 0.987,0.4955 0.9624,1.0516 v 0 c -0.0247,0.5562 -0.4955,0.9871 -1.0517,0.9625 v 0 c -0.5562,-0.0247 -0.987,-0.4955 -0.9624,-1.0517 v 0 c 0.0247,-0.5562 0.4955,-0.9871 1.0517,-0.9624 0.3045,0.003 0.6002,0.01 0.8709,0.0171 v 0 c 0.5722,0.0374 1.0057,0.5317 0.9683,1.1039 v 0 c -0.0375,0.5722 -0.5318,1.0057 -1.104,0.9683 v 0 c -0.5722,-0.0375 -1.0057,-0.5318 -0.9682,-1.104 v 0 c 0.0374,-0.5722 0.5317,-1.0057 1.1039,-0.9682 0.2679,0.0538 0.5222,0.1099 0.7452,0.1666 v 0 c 0.5113,0.0467 0.8879,0.4991 0.8412,1.0104 v 0 c -0.0468,0.5113 -0.4992,0.8879 -1.0105,0.8412 v 0 c -0.5113,-0.0467 -0.8879,-0.4991 -0.8411,-1.0104 v 0 c 0.0467,-0.5113 0.4991,-0.8879 1.0104,-0.8412 0.2129,0.1593 0.4058,0.3202 0.5592,0.4807 v 0 c 0.2804,0.0367 0.478,0.2938 0.4412,0.5742 v 0 c -0.0367,0.2803 -0.2938,0.4779 -0.5741,0.4412 -0.1742,0.1175 -0.3697,0.2363 -0.5955,0.3555 -0.2158,0.0166 -0.4507,0.0347 -0.7116,0.054 -0.2582,-0.0271 -0.5313,-0.0522 -0.8246,-0.0752 -0.4408,-0.0262 -0.9069,-0.0468 -1.3953,-0.0602 -0.6515,-0.0256 -1.3172,-0.0379 -1.9772,-0.0317 -0.9479,-0.0134 -1.895,0.0126 -2.4412,-0.0641 -0.0633,-0.0197 -0.1739,-0.0518 -0.2578,-0.0903 -0.0526,-0.026 -0.176,-0.0948 -0.2525,-0.1578 -0.0833,-0.0871 -0.228,-0.3411 -0.2571,-0.4968 0.003,-0.1506 0.0642,-0.3699 0.1085,-0.4427 0.0431,-0.0554 0.1078,-0.1253 0.1407,-0.1488 0.0588,-0.0356 0.1268,-0.0707 0.1705,-0.0836 0.1624,-0.1571 0.3312,-0.2619 0.3028,-0.3519 v 0 c 0.2001,-0.3483 0.6447,-0.4684 0.993,-0.2683 v 0 c 0.3484,0.2002 0.4685,0.6448 0.2683,0.9931" /><path
           id="path242"
           style="fill:#000000;fill-opacity:1;fill-rule:nonzero;stroke:none"
           d="m 264.9944,391.0977 c 0.0213,-0.2654 0.0422,-0.5828 0.0644,-0.9358 v 0 c -0.0231,-0.3224 0.2196,-0.6025 0.542,-0.6256 v 0 c 0.3224,-0.0231 0.6025,0.2196 0.6256,0.542 v 0 c 0.0231,0.3224 -0.2195,0.6025 -0.542,0.6256 v 0 c -0.3224,0.0231 -0.6025,-0.2195 -0.6256,-0.542 -0.1635,-1.274 -0.3168,-3.1152 -0.406,-5.1053 v 0 c -0.004,-0.4428 0.3522,-0.8049 0.795,-0.8086 v 0 c 0.4428,-0.004 0.8048,0.3522 0.8086,0.795 v 0 c 0.004,0.4428 -0.3522,0.8048 -0.795,0.8085 v 0 c -0.4428,0.004 -0.8049,-0.3521 -0.8086,-0.7949 -0.0354,-1.2726 -0.0506,-2.5586 -0.074,-3.4785 v 0 c 7e-4,-0.4837 0.3933,-0.8752 0.877,-0.8746 v 0 c 0.4836,7e-4 0.8752,0.3933 0.8745,0.877 v 0 c -6e-4,0.4836 -0.3932,0.8752 -0.8769,0.8745 v 0 c -0.4837,-6e-4 -0.8752,-0.3932 -0.8746,-0.8769 -0.004,-0.3719 -0.005,-0.6727 -0.0142,-0.8929 -0.0103,-0.2219 -0.014,-0.4082 -0.0222,-0.5213 -0.004,-0.0538 -0.006,-0.057 -0.009,-0.0416 0.002,0.0177 0.0248,0.1175 0.0553,0.2045 0.0685,0.1273 0.5371,0.4908 0.9462,0.5347 0.3385,-0.1191 0.6111,-0.3694 0.6479,-0.4253 0.0168,-0.0359 0.034,-0.0775 0.0276,-0.0562 -0.0185,0.0547 -0.0391,0.1444 -0.0685,0.2891 -0.0601,0.2938 -0.1255,0.6924 -0.1965,1.0773 -0.2679,1.3894 -0.5276,3.4023 -0.7117,5.3629 -0.0794,0.8813 -0.1254,1.7232 -0.1563,2.4728 -0.0367,1.6652 -0.0753,2.9189 0.0443,3.871 0.0577,0.4654 0.0617,0.5764 0.2605,0.6809 0.3888,0.4346 1.7097,0.6366 3.1255,0.7352 0.8939,0.0627 1.4116,0.1103 1.5864,-0.0841 0.0474,-0.006 -0.015,0.0668 0.0226,-0.0725 0.058,-0.1476 0.0693,-0.2784 0.0555,-0.5528 -0.008,-0.4509 0.005,-0.8028 -0.1143,-1.1679 -0.094,-0.4576 -0.6225,-0.9673 -1.1677,-1.6147 -0.5902,-0.6972 -1.1452,-1.3255 -1.5795,-1.8607 -0.3343,-0.4045 -0.6639,-0.8652 -0.823,-1.3363 -0.0856,-0.3571 -0.0458,-0.899 0.1066,-1.2402 0.1751,-0.3129 0.5359,-0.6637 0.8683,-0.8447 0.9901,-0.4535 2.4917,-0.4221 3.6689,-0.6236 1.0351,-0.1929 1.8359,-0.5229 2.4767,-1.0084 0.643,-0.4685 0.9908,-0.9398 1.1239,-1.5879 0.1356,-0.7341 -0.1887,-1.4322 -0.8853,-2.2266 -0.6813,-0.8044 -1.6099,-1.4533 -2.7286,-1.8874 -1.2436,-0.5551 -2.6178,-0.7197 -4.1201,-0.6217 -0.8822,-0.0343 -1.7345,0.0474 -2.3969,0.1504 v 0 c -0.456,0.126 -0.9278,-0.1416 -1.0538,-0.5976 v 0 c -0.126,-0.456 0.1416,-0.9278 0.5976,-1.0538 v 0 c 0.456,-0.126 0.9278,0.1416 1.0538,0.5976 v 0 c 0.126,0.456 -0.1416,0.9278 -0.5976,1.0538 -0.3288,0.0499 -0.5624,0.0902 -0.7224,0.1238 v 0 c -0.3695,0.1737 -0.8098,0.015 -0.9835,-0.3545 v 0 c -0.1737,-0.3695 -0.015,-0.8098 0.3545,-0.9835 v 0 c 0.3695,-0.1737 0.8098,-0.015 0.9835,0.3544 v 0 c 0.1737,0.3695 0.015,0.8099 -0.3545,0.9836 -0.0751,0.013 -0.079,-0.009 -0.0761,-0.0316 v 0 c -0.2848,0.2453 -0.7145,0.2132 -0.9598,-0.0716 v 0 c -0.2453,-0.2848 -0.2133,-0.7145 0.0715,-0.9598 v 0 c 0.2848,-0.2453 0.7145,-0.2132 0.9598,0.0716 v 0 c 0.2453,0.2848 0.2133,0.7145 -0.0715,0.9598 0.0187,-0.0531 0.139,-0.4448 0.0494,-0.7349 v 0 c 0.1738,0.2962 0.0745,0.6773 -0.2218,0.851 v 0 c -0.2962,0.1738 -0.6773,0.0745 -0.851,-0.2218 -0.1205,-0.3425 0.0309,-0.799 0.1351,-0.9257 0.0882,-0.0967 0.2241,-0.2005 0.3355,-0.2751 0.2126,-0.1416 0.5386,-0.2976 0.8951,-0.4371 0.7083,-0.2757 1.7302,-0.5451 2.7386,-0.6787 1.7056,-0.0706 3.5632,0.1991 5.093,0.888 1.2851,0.6444 2.5045,1.6561 3.2684,2.7178 0.7486,1.0716 1.1668,2.4451 0.8952,3.6112 -0.206,0.9355 -0.8279,1.8475 -1.623,2.4769 -0.7973,0.6124 -1.9032,1.0948 -3.0812,1.3435 -1.3327,0.2994 -2.6777,0.3218 -3.1129,0.6556 -0.1258,0.0721 -0.0756,0.0344 -0.0657,0.0717 -0.0128,0.009 0.007,-0.1457 0.0448,-0.1017 0.0243,0.1264 0.1672,0.29 0.4806,0.656 0.4254,0.4875 0.9912,1.0913 1.6135,1.7879 0.5116,0.5673 1.2872,1.3434 1.6445,2.2857 0.207,0.6471 0.2412,1.2949 0.2666,1.7258 0.0129,0.4266 -0.0471,0.9395 -0.1742,1.3291 -0.1476,0.3979 -0.5089,0.9013 -0.8903,1.1701 -0.8557,0.4662 -1.9625,0.455 -2.8955,0.3773 -1.5193,-0.1271 -3.3457,-0.4793 -4.3446,-1.3198 -0.536,-0.5708 -0.7667,-1.393 -0.8087,-2.0033 -0.0714,-1.1083 0.0251,-2.4657 0.1175,-4.1184 0.028,-0.7627 0.073,-1.6478 0.1513,-2.5599 0.1639,-1.9945 0.4098,-4.0849 0.6652,-5.5413 0.0672,-0.3666 0.1345,-0.7784 0.2015,-1.1108 0.0341,-0.1684 0.0756,-0.3457 0.1177,-0.4818 0.0239,-0.0739 0.071,-0.1917 0.1172,-0.2806 0.0666,-0.1096 0.3684,-0.3904 0.733,-0.5129 0.4231,0.0421 0.901,0.4142 0.9764,0.557 0.0391,0.1065 0.0684,0.233 0.0749,0.2851 0.008,0.0859 0.01,0.1857 0.008,0.2615 -0.003,0.1456 -0.0113,0.324 -0.013,0.5192 2e-4,0.2549 -0.009,0.57 -0.0143,0.9315 -0.0259,0.9259 -0.06,2.2028 -0.0739,3.4626 -0.0557,1.9664 -0.0482,3.7722 -0.03,5.0353 0.0718,0.339 0.1438,0.631 0.2157,0.8762 v 0 c 0.0395,0.3998 -0.2525,0.7559 -0.6523,0.7955 v 0 c -0.3998,0.0395 -0.7559,-0.2525 -0.7954,-0.6523" /><path
           id="path244"
           style="fill:#000000;fill-opacity:1;fill-rule:nonzero;stroke:none"
           d="m 156.9179,348.1422 c 8.8954,-0.1265 16.9758,-6.5433 22.9094,-17.1545 6.2157,-11.1159 10.0741,-26.8075 10.0741,-44.2337 0,-0.5604 -0.004,-1.1227 -0.012,-1.6867 -0.397,-27.9107 -10.5958,-51.2912 -24.1394,-59.1818 -3.3595,-1.9573 -6.9276,-2.9821 -10.6129,-2.9297 -8.8954,0.1265 -16.9758,6.5433 -22.9094,17.1545 -6.2157,11.1159 -10.0741,26.8075 -10.0741,44.2337 0,0.5604 0.004,1.1227 0.012,1.6867 0.397,27.9107 10.5958,51.2912 24.1394,59.1818 3.3595,1.9573 6.9276,2.9821 10.6129,2.9297 m -0.0274,-1.9284 c -3.341,0.0475 -6.5713,-0.8946 -9.6147,-2.6677 -13.1676,-7.6715 -22.7978,-30.5427 -23.1818,-57.5429 -0.008,-0.5547 -0.0119,-1.1079 -0.0119,-1.6592 0,-17.0494 3.7454,-32.4131 9.8289,-43.2924 5.5056,-9.8459 12.9261,-16.049 21.2535,-16.1674 3.341,-0.0475 6.5713,0.8945 9.6147,2.6677 13.1676,7.6715 22.7978,30.5427 23.1818,57.5428 0.008,0.5548 0.0119,1.108 0.0119,1.6593 0,17.0494 -3.7454,32.4131 -9.8289,43.2924 -5.5056,9.8459 -12.9261,16.049 -21.2535,16.1674" /><path
           id="path246"
           style="fill:#000000;fill-opacity:1;fill-rule:nonzero;stroke:none"
           d="m 274.3936,355.6702 c 8.8953,-0.1265 16.9758,-6.5433 22.9093,-17.1545 6.2158,-11.1159 10.0742,-26.8075 10.0742,-44.2337 0,-0.5604 -0.004,-1.1227 -0.012,-1.6867 -0.397,-27.9107 -10.5958,-51.2912 -24.1394,-59.1818 -3.3595,-1.9573 -6.9277,-2.9821 -10.6129,-2.9297 -8.8954,0.1265 -16.9759,6.5433 -22.9094,17.1545 -6.2158,11.1159 -10.0742,26.8075 -10.0742,44.2337 0,0.5604 0.004,1.1227 0.012,1.6867 0.3971,27.9107 10.5958,51.2912 24.1394,59.1818 3.3595,1.9573 6.9277,2.9821 10.613,2.9297 m -0.0275,-1.9284 c -3.341,0.0475 -6.5712,-0.8946 -9.6146,-2.6677 -13.1676,-7.6715 -22.7978,-30.5427 -23.1819,-57.5428 -0.008,-0.5548 -0.0118,-1.108 -0.0118,-1.6593 0,-17.0494 3.7454,-32.4131 9.8289,-43.2924 5.5056,-9.8459 12.926,-16.049 21.2535,-16.1674 3.341,-0.0475 6.5712,0.8946 9.6146,2.6677 13.1676,7.6715 22.7978,30.5427 23.1819,57.5428 0.008,0.5548 0.0118,1.108 0.0118,1.6593 0,17.0494 -3.7453,32.4131 -9.8288,43.2924 -5.5056,9.8459 -12.9261,16.049 -21.2536,16.1674" /><path
           id="path248"
           style="fill:#ed3624;fill-opacity:1;fill-rule:nonzero;stroke:none"
           d="m 164.5198,322.7754 c 0,-3.13 -1.6932,-5.8646 -4.2139,-7.3373 -1.2564,-0.734 -2.7182,-1.155 -4.2784,-1.155 -3.1299,0 -5.8646,1.6931 -7.3373,4.2139 -0.734,1.2564 -1.155,2.7182 -1.155,4.2784 0,3.1299 1.6932,5.8646 4.2139,7.3372 1.2564,0.734 2.7182,1.1551 4.2784,1.1551 3.1299,0 5.8646,-1.6932 7.3373,-4.214 0.734,-1.2564 1.155,-2.7182 1.155,-4.2783 m -1.9286,0 c 0,1.2052 -0.3246,2.3348 -0.8917,3.3055 -1.1384,1.9486 -3.2522,3.2582 -5.672,3.2582 -1.2053,0 -2.3348,-0.3246 -3.3055,-0.8917 -1.9487,-1.1384 -3.2582,-3.2522 -3.2582,-5.672 0,-1.2053 0.3245,-2.3348 0.8917,-3.3056 1.1384,-1.9486 3.2522,-3.2582 5.672,-3.2582 1.2053,0 2.3348,0.3246 3.3055,0.8917 1.9487,1.1385 3.2582,3.2522 3.2582,5.6721" /><path
           id="path250"
           style="fill:#ed3624;fill-opacity:1;fill-rule:nonzero;stroke:none"
           d="m 153.5681,285.549 c 0,-3.1299 -1.6932,-5.8646 -4.2139,-7.3373 -1.2564,-0.734 -2.7182,-1.155 -4.2784,-1.155 -3.1299,0 -5.8646,1.6932 -7.3373,4.2139 -0.734,1.2564 -1.155,2.7182 -1.155,4.2784 0,3.1299 1.6932,5.8646 4.2139,7.3373 1.2564,0.734 2.7182,1.155 4.2784,1.155 3.1299,0 5.8646,-1.6932 7.3373,-4.2139 0.734,-1.2564 1.155,-2.7182 1.155,-4.2784 m -1.9286,0 c 0,1.2053 -0.3245,2.3348 -0.8917,3.3055 -1.1384,1.9487 -3.2522,3.2582 -5.672,3.2582 -1.2053,0 -2.3348,-0.3246 -3.3055,-0.8917 -1.9487,-1.1384 -3.2582,-3.2522 -3.2582,-5.672 0,-1.2053 0.3246,-2.3348 0.8917,-3.3055 1.1384,-1.9487 3.2522,-3.2582 5.672,-3.2582 1.2053,0 2.3348,0.3245 3.3055,0.8917 1.9487,1.1384 3.2582,3.2522 3.2582,5.672" /><path
           id="path252"
           style="fill:#ed3624;fill-opacity:1;fill-rule:nonzero;stroke:none"
           d="m 172.0478,254.741 c 0,-3.1299 -1.6932,-5.8646 -4.2139,-7.3372 -1.2564,-0.7341 -2.7182,-1.1551 -4.2784,-1.1551 -3.1299,0 -5.8646,1.6932 -7.3373,4.2139 -0.734,1.2565 -1.155,2.7182 -1.155,4.2784 0,3.1299 1.6932,5.8646 4.2139,7.3373 1.2564,0.734 2.7182,1.155 4.2784,1.155 3.1299,0 5.8646,-1.6932 7.3373,-4.2139 0.734,-1.2564 1.155,-2.7182 1.155,-4.2784 m -1.9286,0 c 0,1.2053 -0.3245,2.3348 -0.8917,3.3055 -1.1384,1.9487 -3.2522,3.2582 -5.672,3.2582 -1.2053,0 -2.3348,-0.3245 -3.3055,-0.8916 -1.9487,-1.1385 -3.2582,-3.2523 -3.2582,-5.6721 0,-1.2053 0.3246,-2.3348 0.8917,-3.3055 1.1384,-1.9487 3.2522,-3.2582 5.672,-3.2582 1.2053,0 2.3348,0.3246 3.3055,0.8917 1.9487,1.1384 3.2582,3.2522 3.2582,5.672" /><path
           id="path254"
           style="fill:#622d90;fill-opacity:1;fill-rule:nonzero;stroke:none"
           d="m 274.4674,337.8314 c 0,-3.13 -1.6931,-5.8646 -4.2139,-7.3373 -1.2564,-0.734 -2.7182,-1.155 -4.2783,-1.155 -3.13,0 -5.8646,1.6932 -7.3373,4.2139 -0.734,1.2564 -1.155,2.7182 -1.155,4.2784 0,3.1299 1.6931,5.8646 4.2139,7.3372 1.2564,0.7341 2.7182,1.1551 4.2784,1.1551 3.1299,0 5.8645,-1.6932 7.3372,-4.2139 0.734,-1.2565 1.155,-2.7182 1.155,-4.2784 m -1.9285,0 c 0,1.2053 -0.3246,2.3348 -0.8917,3.3055 -1.1384,1.9487 -3.2522,3.2582 -5.672,3.2582 -1.2053,0 -2.3348,-0.3246 -3.3056,-0.8917 -1.9486,-1.1384 -3.2582,-3.2522 -3.2582,-5.672 0,-1.2053 0.3246,-2.3348 0.8917,-3.3055 1.1385,-1.9487 3.2522,-3.2582 5.6721,-3.2582 1.2052,0 2.3348,0.3245 3.3055,0.8916 1.9486,1.1385 3.2582,3.2523 3.2582,5.6721" /><path
           id="path256"
           style="fill:#622d90;fill-opacity:1;fill-rule:nonzero;stroke:none"
           d="m 263.5158,300.605 c 0,-3.1299 -1.6932,-5.8646 -4.214,-7.3372 -1.2564,-0.7341 -2.7182,-1.1551 -4.2783,-1.1551 -3.13,0 -5.8646,1.6932 -7.3373,4.2139 -0.734,1.2564 -1.155,2.7182 -1.155,4.2784 0,3.1299 1.6931,5.8646 4.2139,7.3373 1.2564,0.734 2.7182,1.155 4.2784,1.155 3.1299,0 5.8645,-1.6932 7.3372,-4.2139 0.734,-1.2564 1.1551,-2.7182 1.1551,-4.2784 m -1.9286,0 c 0,1.2053 -0.3246,2.3348 -0.8917,3.3055 -1.1384,1.9487 -3.2522,3.2582 -5.672,3.2582 -1.2053,0 -2.3348,-0.3245 -3.3056,-0.8917 -1.9486,-1.1384 -3.2582,-3.2522 -3.2582,-5.672 0,-1.2053 0.3246,-2.3348 0.8917,-3.3055 1.1385,-1.9487 3.2522,-3.2582 5.6721,-3.2582 1.2052,0 2.3348,0.3246 3.3055,0.8917 1.9486,1.1384 3.2582,3.2522 3.2582,5.672" /><path
           id="path258"
           style="fill:#622d90;fill-opacity:1;fill-rule:nonzero;stroke:none"
           d="m 274.4674,254.6012 c 0,-3.1299 -1.6931,-5.8646 -4.2139,-7.3373 -1.2564,-0.734 -2.7182,-1.155 -4.2783,-1.155 -3.13,0 -5.8646,1.6932 -7.3373,4.2139 -0.734,1.2564 -1.155,2.7182 -1.155,4.2784 0,3.1299 1.6931,5.8646 4.2139,7.3373 1.2564,0.734 2.7182,1.155 4.2784,1.155 3.1299,0 5.8645,-1.6932 7.3372,-4.2139 0.734,-1.2564 1.155,-2.7182 1.155,-4.2784 m -1.9285,0 c 0,1.2053 -0.3246,2.3348 -0.8917,3.3055 -1.1384,1.9487 -3.2522,3.2582 -5.672,3.2582 -1.2053,0 -2.3348,-0.3245 -3.3056,-0.8917 -1.9486,-1.1384 -3.2582,-3.2522 -3.2582,-5.672 0,-1.2053 0.3246,-2.3348 0.8917,-3.3055 1.1385,-1.9487 3.2522,-3.2582 5.6721,-3.2582 1.2052,0 2.3348,0.3246 3.3055,0.8917 1.9486,1.1384 3.2582,3.2522 3.2582,5.672" /><path
           id="path260"
           style="fill:#000000;fill-opacity:1;fill-rule:nonzero;stroke:none"
           d="m 163.6982,321.3928 c -0.5257,-0.0855 -1.0211,0.2714 -1.1066,0.797 -0.0855,0.5257 0.2714,1.0211 0.797,1.1066 l 82.3929,13.3982 c 0.5257,0.0855 1.0211,-0.2714 1.1066,-0.797 0.0855,-0.5257 -0.2714,-1.0211 -0.797,-1.1066 z" /></g></g><g
       id="g262"><g
         clip-path="url(#clipPath268)"
         id="g264"><path
           id="path270"
           style="fill:#000000;fill-opacity:1;fill-rule:nonzero;stroke:none"
           d="m 245.0538,341.1819 13.3935,-3.4046 -11.6247,-7.473 z" /></g></g><g
       id="g272"><g
         clip-path="url(#clipPath278)"
         id="g274"><path
           id="path280"
           style="fill:#000000;fill-opacity:1;fill-rule:nonzero;stroke:none"
           d="m 152.7231,284.1273 c -0.5275,-0.0737 -1.0148,0.2941 -1.0885,0.8215 -0.0737,0.5275 0.2941,1.0148 0.8215,1.0885 l 82.6826,11.5576 c 0.5274,0.0738 1.0148,-0.294 1.0885,-0.8215 0.0737,-0.5274 -0.2941,-1.0147 -0.8215,-1.0885 z" /></g></g><g
       id="g282"><g
         clip-path="url(#clipPath288)"
         id="g284"><path
           id="path290"
           style="fill:#000000;fill-opacity:1;fill-rule:nonzero;stroke:none"
           d="m 234.5109,302.0973 13.3143,-3.7027 -11.7886,-7.2116 z" /></g></g><g
       id="g292"><g
         clip-path="url(#clipPath298)"
         id="g294"><path
           id="path300"
           style="fill:#000000;fill-opacity:1;fill-rule:nonzero;stroke:none"
           d="m 171.0794,253.5266 c -0.5325,0 -0.9643,0.4317 -0.9643,0.9643 0,0.5325 0.4318,0.9643 0.9643,0.9643 h 74.7016 c 0.5326,0 0.9643,-0.4318 0.9643,-0.9643 0,-0.5326 -0.4317,-0.9643 -0.9643,-0.9643 z" /></g></g><g
       id="g302"><g
         clip-path="url(#clipPath308)"
         id="g304"><path
           id="path310"
           style="fill:#000000;fill-opacity:1;fill-rule:nonzero;stroke:none"
           d="m 245.781,260.0011 12.6735,-5.5102 -12.6735,-5.5102 z" /></g></g><g
       id="g312"><g
         clip-path="url(#clipPath318)"
         id="g314"><path
           id="path320"
           style="fill:#000000;fill-opacity:1;fill-rule:nonzero;stroke:none"
           d="m 147.5477,201.105 c 0.0438,-0.006 0.2611,-0.1077 0.3551,-0.1821 v 0 c -0.2596,0.3226 -0.7317,0.3737 -1.0543,0.114 v 0 c -0.3226,-0.2596 -0.3737,-0.7316 -0.114,-1.0543 v 0 c 0.2596,-0.3226 0.7317,-0.3737 1.0543,-0.114 v 0 c 0.3226,0.2596 0.3737,0.7317 0.114,1.0543 0.0634,-0.0958 0.1293,-0.2906 0.1423,-0.3137 v 0 c 0.005,0.4265 -0.3365,0.7763 -0.763,0.7814 v 0 c -0.4265,0.005 -0.7764,-0.3366 -0.7815,-0.7631 v 0 c -0.005,-0.4265 0.3366,-0.7763 0.7631,-0.7814 v 0 c 0.4265,-0.005 0.7764,0.3366 0.7814,0.7631 0.003,0.003 0.0415,0.0649 0.161,0.292 v 0 c 0.1849,0.4118 0.001,0.8954 -0.4107,1.0803 v 0 c -0.4117,0.1849 -0.8954,10e-4 -1.0803,-0.4107 v 0 c -0.1849,-0.4117 -0.001,-0.8953 0.4107,-1.0802 v 0 c 0.4117,-0.1849 0.8954,-0.001 1.0803,0.4106 0.2448,0.4766 0.7168,1.2195 1.3752,2.2522 1.4524,2.3936 3.5818,6.2905 5.1654,9.6009 1.0191,2.1778 1.7133,3.9286 2.1541,4.8359 0.1178,0.23 0.1977,0.3898 0.2568,0.4825 0.0471,0.0788 -0.117,-0.0731 -0.3782,-0.1974 -0.4025,0.0424 -0.8164,0.3596 -0.8364,0.3698 0.0112,-0.0251 0.0216,-0.0916 0.0464,-0.2743 0.0543,-0.3808 0.0891,-0.953 0.1177,-1.6847 0.0577,-1.4676 0.0782,-3.4566 0.1588,-5.4361 0.1077,-2.3851 0.5057,-4.8621 0.8235,-6.6865 0.2215,-1.2098 0.4745,-2.175 0.6234,-2.7884 0.1018,-0.4041 0.1446,-0.5565 0.1375,-0.4349 0.0385,0.0736 0.199,0.3581 0.3715,0.5129 v 0 c -0.4055,-0.3251 -0.4707,-0.9174 -0.1456,-1.3229 v 0 c 0.325,-0.4055 0.9173,-0.4706 1.3228,-0.1456 v 0 c 0.4055,0.3251 0.4707,0.9174 0.1456,1.3229 v 0 c -0.3251,0.4054 -0.9173,0.4706 -1.3228,0.1456 0.2279,0.1069 0.6563,0.1453 0.7743,0.1029 v 0 c -0.466,0.1373 -0.9552,-0.1292 -1.0925,-0.5952 v 0 c -0.1373,-0.4661 0.1292,-0.9552 0.5952,-1.0925 v 0 c 0.4661,-0.1374 0.9552,0.1291 1.0925,0.5952 v 0 c 0.1374,0.466 -0.1291,0.9552 -0.5952,1.0925 0.1025,-0.0933 0.1364,-0.1631 0.0313,-0.1193 v 0 c -0.3051,0.2859 -0.7843,0.2703 -1.0702,-0.0349 v 0 c -0.2859,-0.3052 -0.2703,-0.7844 0.0349,-1.0703 v 0 c 0.3052,-0.2858 0.7844,-0.2702 1.0702,0.035 v 0 c 0.2859,0.3051 0.2703,0.7843 -0.0349,1.0702 -0.2397,0.111 -0.6084,0.4066 -1.147,0.9132 v 0 c -0.1833,0.2153 -0.5064,0.2413 -0.7218,0.058 v 0 c -0.2153,-0.1833 -0.2413,-0.5065 -0.058,-0.7218 0.4194,-0.6187 0.7057,-1.0667 0.8914,-1.3545 0.1078,-0.1556 0.2972,-0.3385 0.5075,-0.4635 0.171,-0.058 0.6409,-0.0148 0.8981,0.1154 0.2044,0.1805 0.3847,0.5094 0.4331,0.6463 0.0329,0.3764 -0.0406,0.7871 -0.138,1.2178 -0.15,0.6388 -0.3823,1.5376 -0.5853,2.6801 -0.3371,1.8043 -0.7401,4.1538 -0.861,6.4196 -0.1124,1.948 -0.1657,3.9329 -0.2578,5.4337 -0.0463,0.7525 -0.1054,1.4131 -0.1883,1.8822 -0.0439,0.2422 -0.1129,0.505 -0.195,0.6969 -0.1135,0.2273 -0.6346,0.6495 -1.1612,0.6682 -0.3967,-0.1503 -0.6955,-0.4577 -0.8064,-0.6415 -0.0989,-0.1701 -0.2003,-0.3799 -0.3111,-0.6042 -0.5079,-0.9773 -1.2275,-2.7095 -2.2547,-4.8312 -1.547,-3.2671 -3.6281,-7.103 -5.0436,-9.4605 -0.6118,-1.0713 -1.0735,-1.9179 -1.3132,-2.5201 -0.1227,-0.3121 -0.2138,-0.6622 -0.2145,-0.9432 0.0114,-0.1653 0.1072,-0.4705 0.2338,-0.6449 0.1574,-0.1531 0.4714,-0.3019 0.647,-0.323 v 0 c 0.3991,-0.0459 0.7598,0.2404 0.8058,0.6395 v 0 c 0.0459,0.3991 -0.2404,0.7598 -0.6395,0.8058" /><path
           id="path322"
           style="fill:#000000;fill-opacity:1;fill-rule:nonzero;stroke:none"
           d="m 151.9108,206.2702 c -0.3046,0.3906 -0.7411,0.6032 -0.84,0.6339 v 0 c -0.2781,0.1999 -0.6655,0.1365 -0.8654,-0.1416 v 0 c -0.1998,-0.2781 -0.1364,-0.6655 0.1416,-0.8654 v 0 c 0.2781,-0.1998 0.6655,-0.1364 0.8654,0.1416 v 0 c 0.1998,0.2781 0.1364,0.6655 -0.1416,0.8654 -0.005,0.0226 0.0229,0.0187 0.0547,0.0106 v 0 c -0.2581,0.2619 -0.6797,0.2649 -0.9416,0.007 v 0 c -0.2619,-0.2581 -0.2649,-0.6796 -0.007,-0.9415 v 0 c 0.2581,-0.2619 0.6796,-0.265 0.9415,-0.007 v 0 c 0.2619,0.2581 0.265,0.6797 0.007,0.9416 0.021,-0.0116 0.0753,-0.0685 0.1111,-0.111 v 0 c -0.1866,0.3314 -0.6065,0.4488 -0.9379,0.2622 v 0 c -0.3314,-0.1866 -0.4488,-0.6065 -0.2622,-0.9379 v 0 c 0.1866,-0.3314 0.6065,-0.4488 0.9379,-0.2622 v 0 c 0.3314,0.1866 0.4488,0.6065 0.2622,0.9379 0.0392,-0.0637 0.0972,-0.2721 0.1017,-0.4135 -0.0279,-0.1463 -0.1667,-0.391 -0.2394,-0.47 -0.0691,-0.057 -0.1787,-0.1192 -0.2138,-0.1398 -0.046,-0.0267 -0.1017,-0.0509 -0.0888,-0.0658 0.3949,-0.0167 1.2937,-0.1318 2.2755,-0.2109 0.6858,-0.0395 1.397,-0.0602 2.0689,-0.0671 0.5043,6e-4 1.0007,0.009 1.4567,0.0226 v 0 c 0.5561,0.0247 0.987,0.4955 0.9624,1.0517 v 0 c -0.0247,0.5562 -0.4955,0.9871 -1.0517,0.9624 v 0 c -0.5562,-0.0246 -0.987,-0.4955 -0.9624,-1.0516 v 0 c 0.0247,-0.5562 0.4955,-0.9871 1.0517,-0.9625 0.3045,0.003 0.6002,0.01 0.871,0.0171 v 0 c 0.5722,0.0376 1.0057,0.5319 0.9681,1.1041 v 0 c -0.0375,0.5722 -0.5318,1.0056 -1.104,0.9681 v 0 c -0.5722,-0.0375 -1.0057,-0.5318 -0.9681,-1.104 v 0 c 0.0375,-0.5722 0.5318,-1.0057 1.104,-0.9682 0.2678,0.0539 0.522,0.1099 0.745,0.1666 v 0 c 0.5113,0.0467 0.8879,0.499 0.8413,1.0104 v 0 c -0.0467,0.5113 -0.499,0.8879 -1.0104,0.8413 v 0 c -0.5113,-0.0467 -0.8879,-0.4991 -0.8413,-1.0104 v 0 c 0.0467,-0.5113 0.4991,-0.8879 1.0104,-0.8413 0.2131,0.1593 0.4059,0.3203 0.5592,0.4807 v 0 c 0.2804,0.0367 0.478,0.2937 0.4413,0.5741 v 0 c -0.0366,0.2804 -0.2937,0.478 -0.5741,0.4413 -0.1742,0.1176 -0.3698,0.2363 -0.5955,0.3556 -0.2158,0.0166 -0.4507,0.0347 -0.7116,0.0539 -0.2583,-0.027 -0.5312,-0.0521 -0.8245,-0.0752 -0.4409,-0.0261 -0.907,-0.0468 -1.3953,-0.0602 -0.6516,-0.0255 -1.3173,-0.0378 -1.9773,-0.0316 -0.9479,-0.0135 -1.895,0.0126 -2.4412,-0.0641 -0.0633,-0.0198 -0.1743,-0.052 -0.2588,-0.0907 -0.0516,-0.0256 -0.175,-0.0944 -0.2496,-0.1559 -0.086,-0.0896 -0.2299,-0.3426 -0.259,-0.4983 0.003,-0.1507 0.0639,-0.3694 0.1079,-0.4416 0.0437,-0.0566 0.108,-0.1259 0.1413,-0.15 0.059,-0.0357 0.1268,-0.0707 0.1702,-0.0833 0.1627,-0.1573 0.3315,-0.2622 0.3031,-0.3522 v 0 c 0.2001,-0.3483 0.6447,-0.4684 0.993,-0.2682 v 0 c 0.3484,0.2001 0.4685,0.6447 0.2683,0.993" /><path
           id="path324"
           style="fill:#000000;fill-opacity:1;fill-rule:nonzero;stroke:none"
           d="m 264.9944,214.8916 c 0.0213,-0.2655 0.0422,-0.5828 0.0644,-0.9358 v 0 c -0.0231,-0.3224 0.2196,-0.6025 0.542,-0.6256 v 0 c 0.3224,-0.0231 0.6025,0.2195 0.6256,0.5419 v 0 c 0.0231,0.3225 -0.2195,0.6026 -0.542,0.6257 v 0 c -0.3224,0.0231 -0.6025,-0.2196 -0.6256,-0.542 -0.1635,-1.2741 -0.3168,-3.1152 -0.406,-5.1054 v 0 c -0.004,-0.4428 0.3522,-0.8048 0.795,-0.8086 v 0 c 0.4428,-0.004 0.8048,0.3522 0.8086,0.795 v 0 c 0.004,0.4428 -0.3522,0.8048 -0.795,0.8086 v 0 c -0.4428,0.004 -0.8049,-0.3522 -0.8086,-0.795 -0.0354,-1.2725 -0.0506,-2.5585 -0.074,-3.4784 v 0 c 7e-4,-0.4837 0.3933,-0.8753 0.877,-0.8746 v 0 c 0.4836,6e-4 0.8752,0.3933 0.8745,0.8769 v 0 c -6e-4,0.4837 -0.3932,0.8753 -0.8769,0.8746 v 0 c -0.4837,-7e-4 -0.8752,-0.3933 -0.8746,-0.8769 -0.004,-0.3719 -0.005,-0.6727 -0.0142,-0.8929 -0.0103,-0.2219 -0.014,-0.4082 -0.0222,-0.5213 -0.004,-0.0539 -0.006,-0.0571 -0.009,-0.0417 0.002,0.0178 0.0248,0.1175 0.0557,0.2054 0.0681,0.1264 0.5367,0.49 0.9458,0.5339 0.338,-0.1188 0.6113,-0.3697 0.6481,-0.4257 0.0166,-0.0356 0.0338,-0.077 0.0274,-0.0557 -0.0185,0.0545 -0.0391,0.1442 -0.0685,0.2889 -0.0601,0.2939 -0.1255,0.6924 -0.1965,1.0773 -0.2679,1.3895 -0.5276,3.4023 -0.7117,5.3629 -0.0794,0.8813 -0.1254,1.7233 -0.1563,2.4728 -0.0367,1.6652 -0.0753,2.9189 0.0443,3.8711 0.0577,0.4654 0.0617,0.5764 0.2605,0.6808 0.3888,0.4346 1.7097,0.6367 3.1255,0.7353 0.8939,0.0626 1.4116,0.1102 1.5865,-0.0841 0.0473,-0.006 -0.0151,0.0668 0.0225,-0.0725 0.058,-0.1476 0.0693,-0.2785 0.0555,-0.5528 -0.008,-0.451 0.005,-0.8029 -0.1143,-1.168 -0.094,-0.4576 -0.6225,-0.9673 -1.1677,-1.6147 -0.5902,-0.6971 -1.1452,-1.3255 -1.5795,-1.8607 -0.3342,-0.4044 -0.6639,-0.8652 -0.823,-1.3362 -0.0856,-0.3571 -0.0458,-0.8991 0.1066,-1.2402 0.1751,-0.313 0.5359,-0.6637 0.8683,-0.8448 0.9901,-0.4535 2.4917,-0.4221 3.6689,-0.6236 1.0351,-0.1929 1.8359,-0.5229 2.4767,-1.0084 0.643,-0.4685 0.9908,-0.9398 1.1239,-1.5879 0.1356,-0.7341 -0.1887,-1.4322 -0.8853,-2.2266 -0.6813,-0.8043 -1.6099,-1.4533 -2.7286,-1.8873 -1.2436,-0.5552 -2.6178,-0.7197 -4.1201,-0.6218 -0.8822,-0.0342 -1.7345,0.0475 -2.3969,0.1504 v 0 c -0.456,0.126 -0.9278,-0.1415 -1.0538,-0.5976 v 0 c -0.126,-0.456 0.1416,-0.9278 0.5976,-1.0538 v 0 c 0.456,-0.1259 0.9278,0.1416 1.0538,0.5976 v 0 c 0.126,0.4561 -0.1416,0.9279 -0.5976,1.0538 -0.3288,0.0499 -0.5624,0.0903 -0.7223,0.1238 v 0 c -0.3695,0.1737 -0.8098,0.0151 -0.9836,-0.3544 v 0 c -0.1737,-0.3694 -0.0151,-0.8098 0.3544,-0.9835 v 0 c 0.3695,-0.1738 0.8098,-0.0151 0.9836,0.3543 v 0 c 0.1737,0.3695 0.015,0.8099 -0.3544,0.9836 -0.0752,0.013 -0.0791,-0.008 -0.0764,-0.0314 v 0 c -0.2849,0.2452 -0.7146,0.213 -0.9598,-0.0719 v 0 c -0.2452,-0.2849 -0.213,-0.7146 0.0719,-0.9598 v 0 c 0.2849,-0.2452 0.7146,-0.213 0.9598,0.0719 v 0 c 0.2452,0.2849 0.213,0.7146 -0.0719,0.9598 0.0189,-0.0533 0.1392,-0.445 0.0498,-0.7348 v 0 c 0.1736,0.2963 0.0741,0.6773 -0.2222,0.8509 v 0 c -0.2963,0.1737 -0.6773,0.0742 -0.851,-0.2221 -0.1203,-0.3424 0.0311,-0.7989 0.1351,-0.9254 0.0884,-0.0968 0.2243,-0.2006 0.3358,-0.2753 0.2125,-0.1416 0.5385,-0.2975 0.8949,-0.437 0.7085,-0.2758 1.7303,-0.5452 2.7387,-0.6787 1.7056,-0.0707 3.5632,0.199 5.093,0.888 1.2851,0.6444 2.5045,1.656 3.2684,2.7178 0.7486,1.0716 1.1668,2.4451 0.8952,3.6112 -0.206,0.9354 -0.8279,1.8475 -1.623,2.4768 -0.7973,0.6124 -1.9032,1.0949 -3.0812,1.3436 -1.3327,0.2993 -2.6777,0.3217 -3.1129,0.6555 -0.1258,0.0721 -0.0756,0.0345 -0.0657,0.0717 -0.0128,0.009 0.007,-0.1457 0.0448,-0.1017 0.0243,0.1264 0.1672,0.2901 0.4806,0.656 0.4254,0.4875 0.9912,1.0913 1.6135,1.788 0.5117,0.5673 1.2872,1.3434 1.6445,2.2856 0.207,0.6471 0.2412,1.2949 0.2666,1.7259 0.0129,0.4265 -0.0471,0.9394 -0.1742,1.3291 -0.1476,0.3979 -0.5089,0.9013 -0.8903,1.1701 -0.8557,0.4661 -1.9625,0.455 -2.8955,0.3772 -1.5193,-0.127 -3.3457,-0.4792 -4.3446,-1.3198 -0.536,-0.5708 -0.7667,-1.393 -0.8087,-2.0032 -0.0714,-1.1084 0.0251,-2.4657 0.1175,-4.1185 0.028,-0.7626 0.073,-1.6478 0.1513,-2.5599 0.1639,-1.9945 0.4098,-4.0848 0.6652,-5.5412 0.0672,-0.3667 0.1345,-0.7784 0.2015,-1.1109 0.0341,-0.1683 0.0756,-0.3457 0.1177,-0.4818 0.0239,-0.0739 0.071,-0.1916 0.1172,-0.2806 0.0664,-0.1093 0.3689,-0.3906 0.7346,-0.5131 0.4215,0.0424 0.8994,0.4144 0.9748,0.5573 0.0391,0.1065 0.0684,0.233 0.0749,0.2848 0.008,0.0862 0.01,0.1859 0.008,0.2618 -0.003,0.1456 -0.0113,0.324 -0.013,0.5192 2e-4,0.2549 -0.009,0.5699 -0.0143,0.9315 -0.0259,0.9259 -0.06,2.2028 -0.0739,3.4625 -0.0557,1.9665 -0.0482,3.7722 -0.03,5.0354 0.0718,0.339 0.1438,0.631 0.2157,0.8762 v 0 c 0.0395,0.3997 -0.2525,0.7559 -0.6523,0.7954 v 0 c -0.3998,0.0396 -0.7559,-0.2525 -0.7954,-0.6522" /><path
           id="path326"
           style="fill:#000000;fill-opacity:1;fill-rule:nonzero;stroke:none"
           d="m 171.2687,429.7515 c -0.5222,-0.1046 -1.0302,0.234 -1.1348,0.7562 -0.1045,0.5222 0.234,1.0303 0.7562,1.1348 l 93.4914,18.7171 c 0.5222,0.1046 1.0302,-0.234 1.1348,-0.7562 0.1045,-0.5222 -0.2341,-1.0303 -0.7562,-1.1348 z" /></g></g><g
       id="g328"><g
         clip-path="url(#clipPath334)"
         id="g330"><path
           id="path336"
           style="fill:#000000;fill-opacity:1;fill-rule:nonzero;stroke:none"
           d="M 263.4915,454.8176 277,451.9025 265.6548,444.0116 Z" /></g></g><g
       id="g338"><g
         clip-path="url(#clipPath344)"
         id="g340"><path
           id="path346"
           style="fill:#000000;fill-opacity:1;fill-rule:nonzero;stroke:none"
           d="m 163.5018,497.5873 c -0.5321,0.023 -0.9448,0.4729 -0.9218,1.005 0.023,0.5321 0.4729,0.9448 1.005,0.9218 l 93.4911,-4.0344 c 0.5321,-0.023 0.9448,-0.4729 0.9218,-1.005 -0.0229,-0.5321 -0.4729,-0.9448 -1.0049,-0.9218 z" /></g></g><g
       id="g348"><g
         clip-path="url(#clipPath354)"
         id="g350"><path
           id="path356"
           style="fill:#000000;fill-opacity:1;fill-rule:nonzero;stroke:none"
           d="m 257.2723,500.0214 12.4241,-6.0515 -12.8992,-4.9587 z" /></g></g></g></svg>